<svg version="1.1" xmlns="http://www.w3.org/2000/svg" xmlns:xlink="http://www.w3.org/1999/xlink" width="800" height="600"><g fill="none" fill-rule="nonzero" stroke="none" stroke-width="1" stroke-linecap="butt" stroke-linejoin="miter" stroke-miterlimit="10" stroke-dasharray="" stroke-dashoffset="0" font-family="none" font-weight="none" font-size="none" text-anchor="none" style="mix-blend-mode: normal"><rect x="0" y="0" width="800" height="600" fill="#181919"/><g id="Snowflakes" fill="none" font-family="sans-serif" font-weight="normal" font-size="12" text-anchor="start"/></g><g fill="none" fill-rule="nonzero" stroke="#ffffff" stroke-width="20" stroke-linecap="round" stroke-linejoin="miter" stroke-miterlimit="10" stroke-dasharray="" stroke-dashoffset="0" font-family="none" font-weight="none" font-size="none" text-anchor="none" style="mix-blend-mode: normal"><g id="Snowflake"><g><line x1="400" y1="300" x2="400" y2="500"/><polyline points="399.31346,350.34327 400,349.65673 400.68654,350.34327"/><polyline points="342.36994,428.81503 400,371.18497 457.63006,428.81503"/><polyline points="379.70224,460.14888 400,439.85112 420.29776,460.14888"/></g><g><line x1="400" y1="300" x2="226.79492" y2="400"/><polyline points="356.05818,324.57708 356.99601,324.82837 356.74472,325.76619"/><polyline points="259.62788,314.49842 338.35201,335.59248 317.25794,414.31661"/><polyline points="251.15812,362.49606 278.88538,369.92556 271.45588,397.65282"/></g><g><line x1="400" y1="300" x2="226.79492" y2="200"/><polyline points="356.74472,274.23381 356.99601,275.17163 356.05818,275.42292"/><polyline points="317.25794,185.68339 338.35201,264.40752 259.62788,285.50158"/><polyline points="271.45588,202.34718 278.88538,230.07444 251.15812,237.50394"/></g><g><line x1="400" y1="300" x2="400" y2="100"/><polyline points="400.68654,249.65673 400,250.34327 399.31346,249.65673"/><polyline points="457.63006,171.18497 400,228.81503 342.36994,171.18497"/><polyline points="420.29776,139.85112 400,160.14888 379.70224,139.85112"/></g><g><line x1="400" y1="300" x2="573.20508" y2="200"/><polyline points="443.94182,275.42292 443.00399,275.17163 443.25528,274.23381"/><polyline points="540.37212,285.50158 461.64799,264.40752 482.74206,185.68339"/><polyline points="548.84188,237.50394 521.11462,230.07444 528.54412,202.34718"/></g><g><line x1="400" y1="300" x2="573.20508" y2="400"/><polyline points="443.25528,325.76619 443.00399,324.82837 443.94182,324.57708"/><polyline points="482.74206,414.31661 461.64799,335.59248 540.37212,314.49842"/><polyline points="528.54412,397.65282 521.11462,369.92556 548.84188,362.49606"/></g></g></g><g fill="none" fill-rule="nonzero" stroke="none" stroke-width="1" stroke-linecap="butt" stroke-linejoin="miter" stroke-miterlimit="10" stroke-dasharray="" stroke-dashoffset="0" font-family="sans-serif" font-weight="normal" font-size="12" text-anchor="start" style="mix-blend-mode: normal"/></svg>