ISO-10303-21;
HEADER;
/* Generated by software containing ST-Developer
 * from STEP Tools, Inc. (www.steptools.com) 
 */
/* OPTION: using custom renumber hook */

FILE_DESCRIPTION(
/* description */ ('STEP AP242',
'CAx-IF Rec.Pracs.---Representation and Presentation of Product Manufa
cturing Information (PMI)---4.0---2014-10-13',
'CAx-IF Rec.Pracs.---3D Tessellated Geometry---0.4---2014-09-14','2;1',
'CAx-IF Rec.Pracs.---User Defined Attributes---1.5---2016-08-15'),
/* implementation_level */ '2;1');

FILE_NAME(
/* name */ '6918f3d23c0edfae2a72dbf3',
/* time_stamp */ '2025-11-15T21:42:42Z',
/* author */ (''),
/* organization */ (''),
/* preprocessor_version */ 'ST-DEVELOPER v20',
/* originating_system */ 'ONSHAPE BY PTC INC, 1.206',
/* authorisation */ '  ');

FILE_SCHEMA (('AP242_MANAGED_MODEL_BASED_3D_ENGINEERING_MIM_LF { 1 0 10303 442 1 1 4 }'));
ENDSEC;

DATA;
#10=SHAPE_REPRESENTATION_RELATIONSHIP('','',#581,#11);
#11=ADVANCED_BREP_SHAPE_REPRESENTATION('',(#579),#917);
#12=CYLINDRICAL_SURFACE('',#601,0.018415);
#13=CIRCLE('',#584,0.018415);
#14=CIRCLE('',#602,0.018415);
#15=ORIENTED_EDGE('',*,*,#163,.F.);
#16=ORIENTED_EDGE('',*,*,#164,.T.);
#17=ORIENTED_EDGE('',*,*,#165,.T.);
#18=ORIENTED_EDGE('',*,*,#166,.F.);
#19=ORIENTED_EDGE('',*,*,#167,.F.);
#20=ORIENTED_EDGE('',*,*,#168,.T.);
#21=ORIENTED_EDGE('',*,*,#169,.T.);
#22=ORIENTED_EDGE('',*,*,#170,.T.);
#23=ORIENTED_EDGE('',*,*,#171,.F.);
#24=ORIENTED_EDGE('',*,*,#172,.T.);
#25=ORIENTED_EDGE('',*,*,#173,.T.);
#26=ORIENTED_EDGE('',*,*,#174,.F.);
#27=ORIENTED_EDGE('',*,*,#175,.F.);
#28=ORIENTED_EDGE('',*,*,#176,.F.);
#29=ORIENTED_EDGE('',*,*,#177,.F.);
#30=ORIENTED_EDGE('',*,*,#178,.T.);
#31=ORIENTED_EDGE('',*,*,#179,.T.);
#32=ORIENTED_EDGE('',*,*,#180,.F.);
#33=ORIENTED_EDGE('',*,*,#181,.F.);
#34=ORIENTED_EDGE('',*,*,#182,.F.);
#35=ORIENTED_EDGE('',*,*,#183,.F.);
#36=ORIENTED_EDGE('',*,*,#184,.F.);
#37=ORIENTED_EDGE('',*,*,#185,.F.);
#38=ORIENTED_EDGE('',*,*,#186,.F.);
#39=ORIENTED_EDGE('',*,*,#187,.F.);
#40=ORIENTED_EDGE('',*,*,#169,.F.);
#41=ORIENTED_EDGE('',*,*,#188,.F.);
#42=ORIENTED_EDGE('',*,*,#189,.T.);
#43=ORIENTED_EDGE('',*,*,#190,.T.);
#44=ORIENTED_EDGE('',*,*,#167,.T.);
#45=ORIENTED_EDGE('',*,*,#191,.F.);
#46=ORIENTED_EDGE('',*,*,#192,.F.);
#47=ORIENTED_EDGE('',*,*,#193,.T.);
#48=ORIENTED_EDGE('',*,*,#170,.F.);
#49=ORIENTED_EDGE('',*,*,#190,.F.);
#50=ORIENTED_EDGE('',*,*,#194,.T.);
#51=ORIENTED_EDGE('',*,*,#191,.T.);
#52=ORIENTED_EDGE('',*,*,#189,.F.);
#53=ORIENTED_EDGE('',*,*,#195,.F.);
#54=ORIENTED_EDGE('',*,*,#192,.T.);
#55=ORIENTED_EDGE('',*,*,#194,.F.);
#56=ORIENTED_EDGE('',*,*,#163,.T.);
#57=ORIENTED_EDGE('',*,*,#196,.F.);
#58=ORIENTED_EDGE('',*,*,#197,.F.);
#59=ORIENTED_EDGE('',*,*,#198,.T.);
#60=ORIENTED_EDGE('',*,*,#166,.T.);
#61=ORIENTED_EDGE('',*,*,#199,.F.);
#62=ORIENTED_EDGE('',*,*,#200,.F.);
#63=ORIENTED_EDGE('',*,*,#196,.T.);
#64=ORIENTED_EDGE('',*,*,#165,.F.);
#65=ORIENTED_EDGE('',*,*,#201,.F.);
#66=ORIENTED_EDGE('',*,*,#202,.T.);
#67=ORIENTED_EDGE('',*,*,#199,.T.);
#68=ORIENTED_EDGE('',*,*,#203,.F.);
#69=ORIENTED_EDGE('',*,*,#197,.T.);
#70=ORIENTED_EDGE('',*,*,#200,.T.);
#71=ORIENTED_EDGE('',*,*,#202,.F.);
#72=ORIENTED_EDGE('',*,*,#172,.F.);
#73=ORIENTED_EDGE('',*,*,#204,.F.);
#74=ORIENTED_EDGE('',*,*,#205,.T.);
#75=ORIENTED_EDGE('',*,*,#206,.T.);
#76=ORIENTED_EDGE('',*,*,#174,.T.);
#77=ORIENTED_EDGE('',*,*,#207,.F.);
#78=ORIENTED_EDGE('',*,*,#208,.F.);
#79=ORIENTED_EDGE('',*,*,#209,.T.);
#80=ORIENTED_EDGE('',*,*,#173,.F.);
#81=ORIENTED_EDGE('',*,*,#206,.F.);
#82=ORIENTED_EDGE('',*,*,#210,.T.);
#83=ORIENTED_EDGE('',*,*,#207,.T.);
#84=ORIENTED_EDGE('',*,*,#205,.F.);
#85=ORIENTED_EDGE('',*,*,#211,.T.);
#86=ORIENTED_EDGE('',*,*,#208,.T.);
#87=ORIENTED_EDGE('',*,*,#210,.F.);
#88=ORIENTED_EDGE('',*,*,#178,.F.);
#89=ORIENTED_EDGE('',*,*,#212,.F.);
#90=ORIENTED_EDGE('',*,*,#213,.T.);
#91=ORIENTED_EDGE('',*,*,#214,.T.);
#92=ORIENTED_EDGE('',*,*,#176,.T.);
#93=ORIENTED_EDGE('',*,*,#215,.F.);
#94=ORIENTED_EDGE('',*,*,#216,.F.);
#95=ORIENTED_EDGE('',*,*,#217,.T.);
#96=ORIENTED_EDGE('',*,*,#179,.F.);
#97=ORIENTED_EDGE('',*,*,#214,.F.);
#98=ORIENTED_EDGE('',*,*,#218,.T.);
#99=ORIENTED_EDGE('',*,*,#215,.T.);
#100=ORIENTED_EDGE('',*,*,#213,.F.);
#101=ORIENTED_EDGE('',*,*,#219,.T.);
#102=ORIENTED_EDGE('',*,*,#216,.T.);
#103=ORIENTED_EDGE('',*,*,#218,.F.);
#104=ORIENTED_EDGE('',*,*,#220,.F.);
#105=ORIENTED_EDGE('',*,*,#175,.T.);
#106=ORIENTED_EDGE('',*,*,#220,.T.);
#107=ORIENTED_EDGE('',*,*,#209,.F.);
#108=ORIENTED_EDGE('',*,*,#211,.F.);
#109=ORIENTED_EDGE('',*,*,#204,.T.);
#110=ORIENTED_EDGE('',*,*,#171,.T.);
#111=ORIENTED_EDGE('',*,*,#217,.F.);
#112=ORIENTED_EDGE('',*,*,#219,.F.);
#113=ORIENTED_EDGE('',*,*,#212,.T.);
#114=ORIENTED_EDGE('',*,*,#177,.T.);
#115=ORIENTED_EDGE('',*,*,#221,.F.);
#116=ORIENTED_EDGE('',*,*,#187,.T.);
#117=ORIENTED_EDGE('',*,*,#222,.T.);
#118=ORIENTED_EDGE('',*,*,#223,.F.);
#119=ORIENTED_EDGE('',*,*,#222,.F.);
#120=ORIENTED_EDGE('',*,*,#186,.T.);
#121=ORIENTED_EDGE('',*,*,#224,.T.);
#122=ORIENTED_EDGE('',*,*,#225,.F.);
#123=ORIENTED_EDGE('',*,*,#224,.F.);
#124=ORIENTED_EDGE('',*,*,#185,.T.);
#125=ORIENTED_EDGE('',*,*,#226,.T.);
#126=ORIENTED_EDGE('',*,*,#227,.F.);
#127=ORIENTED_EDGE('',*,*,#226,.F.);
#128=ORIENTED_EDGE('',*,*,#184,.T.);
#129=ORIENTED_EDGE('',*,*,#228,.T.);
#130=ORIENTED_EDGE('',*,*,#229,.F.);
#131=ORIENTED_EDGE('',*,*,#228,.F.);
#132=ORIENTED_EDGE('',*,*,#183,.T.);
#133=ORIENTED_EDGE('',*,*,#230,.T.);
#134=ORIENTED_EDGE('',*,*,#231,.F.);
#135=ORIENTED_EDGE('',*,*,#198,.F.);
#136=ORIENTED_EDGE('',*,*,#203,.T.);
#137=ORIENTED_EDGE('',*,*,#201,.T.);
#138=ORIENTED_EDGE('',*,*,#164,.F.);
#139=ORIENTED_EDGE('',*,*,#232,.F.);
#140=ORIENTED_EDGE('',*,*,#180,.T.);
#141=ORIENTED_EDGE('',*,*,#221,.T.);
#142=ORIENTED_EDGE('',*,*,#233,.F.);
#143=ORIENTED_EDGE('',*,*,#230,.F.);
#144=ORIENTED_EDGE('',*,*,#182,.T.);
#145=ORIENTED_EDGE('',*,*,#234,.T.);
#146=ORIENTED_EDGE('',*,*,#235,.F.);
#147=ORIENTED_EDGE('',*,*,#234,.F.);
#148=ORIENTED_EDGE('',*,*,#181,.T.);
#149=ORIENTED_EDGE('',*,*,#232,.T.);
#150=ORIENTED_EDGE('',*,*,#236,.F.);
#151=ORIENTED_EDGE('',*,*,#193,.F.);
#152=ORIENTED_EDGE('',*,*,#195,.T.);
#153=ORIENTED_EDGE('',*,*,#188,.T.);
#154=ORIENTED_EDGE('',*,*,#168,.F.);
#155=ORIENTED_EDGE('',*,*,#233,.T.);
#156=ORIENTED_EDGE('',*,*,#223,.T.);
#157=ORIENTED_EDGE('',*,*,#225,.T.);
#158=ORIENTED_EDGE('',*,*,#227,.T.);
#159=ORIENTED_EDGE('',*,*,#229,.T.);
#160=ORIENTED_EDGE('',*,*,#231,.T.);
#161=ORIENTED_EDGE('',*,*,#235,.T.);
#162=ORIENTED_EDGE('',*,*,#236,.T.);
#163=EDGE_CURVE('',#237,#238,#287,.T.);
#164=EDGE_CURVE('',#237,#239,#288,.T.);
#165=EDGE_CURVE('',#239,#240,#289,.T.);
#166=EDGE_CURVE('',#238,#240,#290,.T.);
#167=EDGE_CURVE('',#241,#242,#291,.T.);
#168=EDGE_CURVE('',#241,#243,#292,.T.);
#169=EDGE_CURVE('',#243,#244,#293,.T.);
#170=EDGE_CURVE('',#244,#242,#294,.T.);
#171=EDGE_CURVE('',#245,#246,#295,.T.);
#172=EDGE_CURVE('',#245,#247,#296,.T.);
#173=EDGE_CURVE('',#247,#248,#297,.T.);
#174=EDGE_CURVE('',#246,#248,#298,.T.);
#175=EDGE_CURVE('',#249,#249,#13,.T.);
#176=EDGE_CURVE('',#250,#251,#299,.T.);
#177=EDGE_CURVE('',#252,#250,#300,.T.);
#178=EDGE_CURVE('',#252,#253,#301,.T.);
#179=EDGE_CURVE('',#253,#251,#302,.T.);
#180=EDGE_CURVE('',#254,#255,#303,.T.);
#181=EDGE_CURVE('',#256,#254,#304,.T.);
#182=EDGE_CURVE('',#257,#256,#305,.T.);
#183=EDGE_CURVE('',#258,#257,#306,.T.);
#184=EDGE_CURVE('',#259,#258,#307,.T.);
#185=EDGE_CURVE('',#260,#259,#308,.T.);
#186=EDGE_CURVE('',#261,#260,#309,.T.);
#187=EDGE_CURVE('',#255,#261,#310,.T.);
#188=EDGE_CURVE('',#262,#243,#311,.T.);
#189=EDGE_CURVE('',#262,#263,#312,.T.);
#190=EDGE_CURVE('',#263,#244,#313,.T.);
#191=EDGE_CURVE('',#264,#242,#314,.T.);
#192=EDGE_CURVE('',#265,#264,#315,.T.);
#193=EDGE_CURVE('',#265,#241,#316,.T.);
#194=EDGE_CURVE('',#263,#264,#317,.T.);
#195=EDGE_CURVE('',#265,#262,#318,.T.);
#196=EDGE_CURVE('',#266,#238,#319,.T.);
#197=EDGE_CURVE('',#267,#266,#320,.T.);
#198=EDGE_CURVE('',#267,#237,#321,.T.);
#199=EDGE_CURVE('',#268,#240,#322,.T.);
#200=EDGE_CURVE('',#266,#268,#323,.T.);
#201=EDGE_CURVE('',#269,#239,#324,.T.);
#202=EDGE_CURVE('',#269,#268,#325,.T.);
#203=EDGE_CURVE('',#267,#269,#326,.T.);
#204=EDGE_CURVE('',#270,#245,#327,.T.);
#205=EDGE_CURVE('',#270,#271,#328,.T.);
#206=EDGE_CURVE('',#271,#247,#329,.T.);
#207=EDGE_CURVE('',#272,#248,#330,.T.);
#208=EDGE_CURVE('',#273,#272,#331,.T.);
#209=EDGE_CURVE('',#273,#246,#332,.T.);
#210=EDGE_CURVE('',#271,#272,#333,.T.);
#211=EDGE_CURVE('',#270,#273,#334,.T.);
#212=EDGE_CURVE('',#274,#252,#335,.T.);
#213=EDGE_CURVE('',#274,#275,#336,.T.);
#214=EDGE_CURVE('',#275,#253,#337,.T.);
#215=EDGE_CURVE('',#276,#251,#338,.T.);
#216=EDGE_CURVE('',#277,#276,#339,.T.);
#217=EDGE_CURVE('',#277,#250,#340,.T.);
#218=EDGE_CURVE('',#275,#276,#341,.T.);
#219=EDGE_CURVE('',#274,#277,#342,.T.);
#220=EDGE_CURVE('',#278,#278,#14,.T.);
#221=EDGE_CURVE('',#255,#279,#343,.T.);
#222=EDGE_CURVE('',#261,#280,#344,.T.);
#223=EDGE_CURVE('',#279,#280,#345,.T.);
#224=EDGE_CURVE('',#260,#281,#346,.T.);
#225=EDGE_CURVE('',#280,#281,#347,.T.);
#226=EDGE_CURVE('',#259,#282,#348,.T.);
#227=EDGE_CURVE('',#281,#282,#349,.T.);
#228=EDGE_CURVE('',#258,#283,#350,.T.);
#229=EDGE_CURVE('',#282,#283,#351,.T.);
#230=EDGE_CURVE('',#257,#284,#352,.T.);
#231=EDGE_CURVE('',#283,#284,#353,.T.);
#232=EDGE_CURVE('',#254,#285,#354,.T.);
#233=EDGE_CURVE('',#285,#279,#355,.T.);
#234=EDGE_CURVE('',#256,#286,#356,.T.);
#235=EDGE_CURVE('',#284,#286,#357,.T.);
#236=EDGE_CURVE('',#286,#285,#358,.T.);
#237=VERTEX_POINT('',#762);
#238=VERTEX_POINT('',#763);
#239=VERTEX_POINT('',#765);
#240=VERTEX_POINT('',#767);
#241=VERTEX_POINT('',#770);
#242=VERTEX_POINT('',#771);
#243=VERTEX_POINT('',#773);
#244=VERTEX_POINT('',#775);
#245=VERTEX_POINT('',#778);
#246=VERTEX_POINT('',#779);
#247=VERTEX_POINT('',#781);
#248=VERTEX_POINT('',#783);
#249=VERTEX_POINT('',#786);
#250=VERTEX_POINT('',#788);
#251=VERTEX_POINT('',#789);
#252=VERTEX_POINT('',#791);
#253=VERTEX_POINT('',#793);
#254=VERTEX_POINT('',#796);
#255=VERTEX_POINT('',#797);
#256=VERTEX_POINT('',#799);
#257=VERTEX_POINT('',#801);
#258=VERTEX_POINT('',#803);
#259=VERTEX_POINT('',#805);
#260=VERTEX_POINT('',#807);
#261=VERTEX_POINT('',#809);
#262=VERTEX_POINT('',#813);
#263=VERTEX_POINT('',#815);
#264=VERTEX_POINT('',#819);
#265=VERTEX_POINT('',#821);
#266=VERTEX_POINT('',#829);
#267=VERTEX_POINT('',#831);
#268=VERTEX_POINT('',#835);
#269=VERTEX_POINT('',#839);
#270=VERTEX_POINT('',#845);
#271=VERTEX_POINT('',#847);
#272=VERTEX_POINT('',#851);
#273=VERTEX_POINT('',#853);
#274=VERTEX_POINT('',#861);
#275=VERTEX_POINT('',#863);
#276=VERTEX_POINT('',#867);
#277=VERTEX_POINT('',#869);
#278=VERTEX_POINT('',#877);
#279=VERTEX_POINT('',#883);
#280=VERTEX_POINT('',#885);
#281=VERTEX_POINT('',#889);
#282=VERTEX_POINT('',#893);
#283=VERTEX_POINT('',#897);
#284=VERTEX_POINT('',#901);
#285=VERTEX_POINT('',#906);
#286=VERTEX_POINT('',#910);
#287=LINE('',#761,#359);
#288=LINE('',#764,#360);
#289=LINE('',#766,#361);
#290=LINE('',#768,#362);
#291=LINE('',#769,#363);
#292=LINE('',#772,#364);
#293=LINE('',#774,#365);
#294=LINE('',#776,#366);
#295=LINE('',#777,#367);
#296=LINE('',#780,#368);
#297=LINE('',#782,#369);
#298=LINE('',#784,#370);
#299=LINE('',#787,#371);
#300=LINE('',#790,#372);
#301=LINE('',#792,#373);
#302=LINE('',#794,#374);
#303=LINE('',#795,#375);
#304=LINE('',#798,#376);
#305=LINE('',#800,#377);
#306=LINE('',#802,#378);
#307=LINE('',#804,#379);
#308=LINE('',#806,#380);
#309=LINE('',#808,#381);
#310=LINE('',#810,#382);
#311=LINE('',#812,#383);
#312=LINE('',#814,#384);
#313=LINE('',#816,#385);
#314=LINE('',#818,#386);
#315=LINE('',#820,#387);
#316=LINE('',#822,#388);
#317=LINE('',#824,#389);
#318=LINE('',#826,#390);
#319=LINE('',#828,#391);
#320=LINE('',#830,#392);
#321=LINE('',#832,#393);
#322=LINE('',#834,#394);
#323=LINE('',#836,#395);
#324=LINE('',#838,#396);
#325=LINE('',#840,#397);
#326=LINE('',#842,#398);
#327=LINE('',#844,#399);
#328=LINE('',#846,#400);
#329=LINE('',#848,#401);
#330=LINE('',#850,#402);
#331=LINE('',#852,#403);
#332=LINE('',#854,#404);
#333=LINE('',#856,#405);
#334=LINE('',#858,#406);
#335=LINE('',#860,#407);
#336=LINE('',#862,#408);
#337=LINE('',#864,#409);
#338=LINE('',#866,#410);
#339=LINE('',#868,#411);
#340=LINE('',#870,#412);
#341=LINE('',#872,#413);
#342=LINE('',#874,#414);
#343=LINE('',#882,#415);
#344=LINE('',#884,#416);
#345=LINE('',#886,#417);
#346=LINE('',#888,#418);
#347=LINE('',#890,#419);
#348=LINE('',#892,#420);
#349=LINE('',#894,#421);
#350=LINE('',#896,#422);
#351=LINE('',#898,#423);
#352=LINE('',#900,#424);
#353=LINE('',#902,#425);
#354=LINE('',#905,#426);
#355=LINE('',#907,#427);
#356=LINE('',#909,#428);
#357=LINE('',#911,#429);
#358=LINE('',#913,#430);
#359=VECTOR('',#621,1.);
#360=VECTOR('',#622,1.);
#361=VECTOR('',#623,1.);
#362=VECTOR('',#624,1.);
#363=VECTOR('',#625,1.);
#364=VECTOR('',#626,1.);
#365=VECTOR('',#627,1.);
#366=VECTOR('',#628,1.);
#367=VECTOR('',#629,1.);
#368=VECTOR('',#630,1.);
#369=VECTOR('',#631,1.);
#370=VECTOR('',#632,1.);
#371=VECTOR('',#635,1.);
#372=VECTOR('',#636,1.);
#373=VECTOR('',#637,1.);
#374=VECTOR('',#638,1.);
#375=VECTOR('',#639,1.);
#376=VECTOR('',#640,1.);
#377=VECTOR('',#641,1.);
#378=VECTOR('',#642,1.);
#379=VECTOR('',#643,1.);
#380=VECTOR('',#644,1.);
#381=VECTOR('',#645,1.);
#382=VECTOR('',#646,1.);
#383=VECTOR('',#649,1.);
#384=VECTOR('',#650,1.);
#385=VECTOR('',#651,1.);
#386=VECTOR('',#654,1.);
#387=VECTOR('',#655,1.);
#388=VECTOR('',#656,1.);
#389=VECTOR('',#659,1.);
#390=VECTOR('',#662,1.);
#391=VECTOR('',#665,1.);
#392=VECTOR('',#666,1.);
#393=VECTOR('',#667,1.);
#394=VECTOR('',#670,1.);
#395=VECTOR('',#671,1.);
#396=VECTOR('',#674,1.);
#397=VECTOR('',#675,1.);
#398=VECTOR('',#678,1.);
#399=VECTOR('',#681,1.);
#400=VECTOR('',#682,1.);
#401=VECTOR('',#683,1.);
#402=VECTOR('',#686,1.);
#403=VECTOR('',#687,1.);
#404=VECTOR('',#688,1.);
#405=VECTOR('',#691,1.);
#406=VECTOR('',#694,1.);
#407=VECTOR('',#697,1.);
#408=VECTOR('',#698,1.);
#409=VECTOR('',#699,1.);
#410=VECTOR('',#702,1.);
#411=VECTOR('',#703,1.);
#412=VECTOR('',#704,1.);
#413=VECTOR('',#707,1.);
#414=VECTOR('',#710,1.);
#415=VECTOR('',#723,1.);
#416=VECTOR('',#724,1.);
#417=VECTOR('',#725,1.);
#418=VECTOR('',#728,1.);
#419=VECTOR('',#729,1.);
#420=VECTOR('',#732,1.);
#421=VECTOR('',#733,1.);
#422=VECTOR('',#736,1.);
#423=VECTOR('',#737,1.);
#424=VECTOR('',#740,1.);
#425=VECTOR('',#741,1.);
#426=VECTOR('',#746,1.);
#427=VECTOR('',#747,1.);
#428=VECTOR('',#750,1.);
#429=VECTOR('',#751,1.);
#430=VECTOR('',#754,1.);
#431=EDGE_LOOP('',(#15,#16,#17,#18));
#432=EDGE_LOOP('',(#19,#20,#21,#22));
#433=EDGE_LOOP('',(#23,#24,#25,#26));
#434=EDGE_LOOP('',(#27));
#435=EDGE_LOOP('',(#28,#29,#30,#31));
#436=EDGE_LOOP('',(#32,#33,#34,#35,#36,#37,#38,#39));
#437=EDGE_LOOP('',(#40,#41,#42,#43));
#438=EDGE_LOOP('',(#44,#45,#46,#47));
#439=EDGE_LOOP('',(#48,#49,#50,#51));
#440=EDGE_LOOP('',(#52,#53,#54,#55));
#441=EDGE_LOOP('',(#56,#57,#58,#59));
#442=EDGE_LOOP('',(#60,#61,#62,#63));
#443=EDGE_LOOP('',(#64,#65,#66,#67));
#444=EDGE_LOOP('',(#68,#69,#70,#71));
#445=EDGE_LOOP('',(#72,#73,#74,#75));
#446=EDGE_LOOP('',(#76,#77,#78,#79));
#447=EDGE_LOOP('',(#80,#81,#82,#83));
#448=EDGE_LOOP('',(#84,#85,#86,#87));
#449=EDGE_LOOP('',(#88,#89,#90,#91));
#450=EDGE_LOOP('',(#92,#93,#94,#95));
#451=EDGE_LOOP('',(#96,#97,#98,#99));
#452=EDGE_LOOP('',(#100,#101,#102,#103));
#453=EDGE_LOOP('',(#104));
#454=EDGE_LOOP('',(#105));
#455=EDGE_LOOP('',(#106));
#456=EDGE_LOOP('',(#107,#108,#109,#110));
#457=EDGE_LOOP('',(#111,#112,#113,#114));
#458=EDGE_LOOP('',(#115,#116,#117,#118));
#459=EDGE_LOOP('',(#119,#120,#121,#122));
#460=EDGE_LOOP('',(#123,#124,#125,#126));
#461=EDGE_LOOP('',(#127,#128,#129,#130));
#462=EDGE_LOOP('',(#131,#132,#133,#134));
#463=EDGE_LOOP('',(#135,#136,#137,#138));
#464=EDGE_LOOP('',(#139,#140,#141,#142));
#465=EDGE_LOOP('',(#143,#144,#145,#146));
#466=EDGE_LOOP('',(#147,#148,#149,#150));
#467=EDGE_LOOP('',(#151,#152,#153,#154));
#468=EDGE_LOOP('',(#155,#156,#157,#158,#159,#160,#161,#162));
#469=FACE_BOUND('',#431,.T.);
#470=FACE_BOUND('',#432,.T.);
#471=FACE_BOUND('',#433,.T.);
#472=FACE_BOUND('',#434,.T.);
#473=FACE_BOUND('',#435,.T.);
#474=FACE_BOUND('',#436,.T.);
#475=FACE_BOUND('',#437,.T.);
#476=FACE_BOUND('',#438,.T.);
#477=FACE_BOUND('',#439,.T.);
#478=FACE_BOUND('',#440,.T.);
#479=FACE_BOUND('',#441,.T.);
#480=FACE_BOUND('',#442,.T.);
#481=FACE_BOUND('',#443,.T.);
#482=FACE_BOUND('',#444,.T.);
#483=FACE_BOUND('',#445,.T.);
#484=FACE_BOUND('',#446,.T.);
#485=FACE_BOUND('',#447,.T.);
#486=FACE_BOUND('',#448,.T.);
#487=FACE_BOUND('',#449,.T.);
#488=FACE_BOUND('',#450,.T.);
#489=FACE_BOUND('',#451,.T.);
#490=FACE_BOUND('',#452,.T.);
#491=FACE_BOUND('',#453,.T.);
#492=FACE_BOUND('',#454,.T.);
#493=FACE_BOUND('',#455,.T.);
#494=FACE_BOUND('',#456,.T.);
#495=FACE_BOUND('',#457,.T.);
#496=FACE_BOUND('',#458,.T.);
#497=FACE_BOUND('',#459,.T.);
#498=FACE_BOUND('',#460,.T.);
#499=FACE_BOUND('',#461,.T.);
#500=FACE_BOUND('',#462,.T.);
#501=FACE_BOUND('',#463,.T.);
#502=FACE_BOUND('',#464,.T.);
#503=FACE_BOUND('',#465,.T.);
#504=FACE_BOUND('',#466,.T.);
#505=FACE_BOUND('',#467,.T.);
#506=FACE_BOUND('',#468,.T.);
#507=PLANE('',#583);
#508=PLANE('',#585);
#509=PLANE('',#586);
#510=PLANE('',#587);
#511=PLANE('',#588);
#512=PLANE('',#589);
#513=PLANE('',#590);
#514=PLANE('',#591);
#515=PLANE('',#592);
#516=PLANE('',#593);
#517=PLANE('',#594);
#518=PLANE('',#595);
#519=PLANE('',#596);
#520=PLANE('',#597);
#521=PLANE('',#598);
#522=PLANE('',#599);
#523=PLANE('',#600);
#524=PLANE('',#603);
#525=PLANE('',#604);
#526=PLANE('',#605);
#527=PLANE('',#606);
#528=PLANE('',#607);
#529=PLANE('',#608);
#530=PLANE('',#609);
#531=PLANE('',#610);
#532=PLANE('',#611);
#533=PLANE('',#612);
#534=PLANE('',#613);
#535=PLANE('',#614);
#536=PLANE('',#615);
#537=PLANE('',#616);
#538=ADVANCED_FACE('',(#469,#470,#471,#472,#473,#474),#507,.T.);
#539=ADVANCED_FACE('',(#475),#508,.T.);
#540=ADVANCED_FACE('',(#476),#509,.F.);
#541=ADVANCED_FACE('',(#477),#510,.T.);
#542=ADVANCED_FACE('',(#478),#511,.T.);
#543=ADVANCED_FACE('',(#479),#512,.F.);
#544=ADVANCED_FACE('',(#480),#513,.F.);
#545=ADVANCED_FACE('',(#481),#514,.T.);
#546=ADVANCED_FACE('',(#482),#515,.T.);
#547=ADVANCED_FACE('',(#483),#516,.T.);
#548=ADVANCED_FACE('',(#484),#517,.F.);
#549=ADVANCED_FACE('',(#485),#518,.T.);
#550=ADVANCED_FACE('',(#486),#519,.T.);
#551=ADVANCED_FACE('',(#487),#520,.T.);
#552=ADVANCED_FACE('',(#488),#521,.F.);
#553=ADVANCED_FACE('',(#489),#522,.T.);
#554=ADVANCED_FACE('',(#490),#523,.T.);
#555=ADVANCED_FACE('',(#491,#492),#12,.F.);
#556=ADVANCED_FACE('',(#493),#524,.T.);
#557=ADVANCED_FACE('',(#494),#525,.T.);
#558=ADVANCED_FACE('',(#495),#526,.T.);
#559=ADVANCED_FACE('',(#496),#527,.T.);
#560=ADVANCED_FACE('',(#497),#528,.T.);
#561=ADVANCED_FACE('',(#498),#529,.T.);
#562=ADVANCED_FACE('',(#499),#530,.T.);
#563=ADVANCED_FACE('',(#500),#531,.T.);
#564=ADVANCED_FACE('',(#501),#532,.F.);
#565=ADVANCED_FACE('',(#502),#533,.T.);
#566=ADVANCED_FACE('',(#503),#534,.T.);
#567=ADVANCED_FACE('',(#504),#535,.T.);
#568=ADVANCED_FACE('',(#505),#536,.F.);
#569=ADVANCED_FACE('',(#506),#537,.F.);
#570=CLOSED_SHELL('',(#538,#539,#540,#541,#542,#543,#544,#545,#546,#547,
#548,#549,#550,#551,#552,#553,#554,#555,#556,#557,#558,#559,#560,#561,#562,
#563,#564,#565,#566,#567,#568,#569));
#571=STYLED_ITEM('',(#572),#579);
#572=PRESENTATION_STYLE_ASSIGNMENT((#573));
#573=SURFACE_STYLE_USAGE(.BOTH.,#574);
#574=SURFACE_SIDE_STYLE('',(#575));
#575=SURFACE_STYLE_FILL_AREA(#576);
#576=FILL_AREA_STYLE('',(#577));
#577=FILL_AREA_STYLE_COLOUR('',#578);
#578=COLOUR_RGB('',0.615686274509804,0.811764705882353,0.929411764705882);
#579=MANIFOLD_SOLID_BREP('Part 1',#570);
#580=SHAPE_DEFINITION_REPRESENTATION(#922,#581);
#581=SHAPE_REPRESENTATION('Part 1',(#582),#917);
#582=AXIS2_PLACEMENT_3D('',#759,#617,#618);
#583=AXIS2_PLACEMENT_3D('',#760,#619,#620);
#584=AXIS2_PLACEMENT_3D('',#785,#633,#634);
#585=AXIS2_PLACEMENT_3D('',#811,#647,#648);
#586=AXIS2_PLACEMENT_3D('',#817,#652,#653);
#587=AXIS2_PLACEMENT_3D('',#823,#657,#658);
#588=AXIS2_PLACEMENT_3D('',#825,#660,#661);
#589=AXIS2_PLACEMENT_3D('',#827,#663,#664);
#590=AXIS2_PLACEMENT_3D('',#833,#668,#669);
#591=AXIS2_PLACEMENT_3D('',#837,#672,#673);
#592=AXIS2_PLACEMENT_3D('',#841,#676,#677);
#593=AXIS2_PLACEMENT_3D('',#843,#679,#680);
#594=AXIS2_PLACEMENT_3D('',#849,#684,#685);
#595=AXIS2_PLACEMENT_3D('',#855,#689,#690);
#596=AXIS2_PLACEMENT_3D('',#857,#692,#693);
#597=AXIS2_PLACEMENT_3D('',#859,#695,#696);
#598=AXIS2_PLACEMENT_3D('',#865,#700,#701);
#599=AXIS2_PLACEMENT_3D('',#871,#705,#706);
#600=AXIS2_PLACEMENT_3D('',#873,#708,#709);
#601=AXIS2_PLACEMENT_3D('',#875,#711,#712);
#602=AXIS2_PLACEMENT_3D('',#876,#713,#714);
#603=AXIS2_PLACEMENT_3D('',#878,#715,#716);
#604=AXIS2_PLACEMENT_3D('',#879,#717,#718);
#605=AXIS2_PLACEMENT_3D('',#880,#719,#720);
#606=AXIS2_PLACEMENT_3D('',#881,#721,#722);
#607=AXIS2_PLACEMENT_3D('',#887,#726,#727);
#608=AXIS2_PLACEMENT_3D('',#891,#730,#731);
#609=AXIS2_PLACEMENT_3D('',#895,#734,#735);
#610=AXIS2_PLACEMENT_3D('',#899,#738,#739);
#611=AXIS2_PLACEMENT_3D('',#903,#742,#743);
#612=AXIS2_PLACEMENT_3D('',#904,#744,#745);
#613=AXIS2_PLACEMENT_3D('',#908,#748,#749);
#614=AXIS2_PLACEMENT_3D('',#912,#752,#753);
#615=AXIS2_PLACEMENT_3D('',#914,#755,#756);
#616=AXIS2_PLACEMENT_3D('',#915,#757,#758);
#617=DIRECTION('',(0.,0.,1.));
#618=DIRECTION('',(1.,0.,0.));
#619=DIRECTION('',(0.,0.,1.));
#620=DIRECTION('',(1.,0.,0.));
#621=DIRECTION('',(-1.,0.,0.));
#622=DIRECTION('',(0.,-1.,0.));
#623=DIRECTION('',(-1.,0.,0.));
#624=DIRECTION('',(-1.67202262744752E-16,-1.,0.));
#625=DIRECTION('',(0.,1.,0.));
#626=DIRECTION('',(-1.,0.,0.));
#627=DIRECTION('',(0.,1.,0.));
#628=DIRECTION('',(1.,0.,0.));
#629=DIRECTION('',(-1.,0.,0.));
#630=DIRECTION('',(0.,-1.,0.));
#631=DIRECTION('',(-1.,-1.67202262744752E-16,0.));
#632=DIRECTION('',(0.,-1.,0.));
#633=DIRECTION('',(0.,0.,1.));
#634=DIRECTION('',(1.,0.,0.));
#635=DIRECTION('',(1.,0.,0.));
#636=DIRECTION('',(0.,-1.,0.));
#637=DIRECTION('',(1.,0.,0.));
#638=DIRECTION('',(0.,-1.,0.));
#639=DIRECTION('',(1.,0.,0.));
#640=DIRECTION('',(0.707106781186548,0.707106781186548,0.));
#641=DIRECTION('',(0.,1.,0.));
#642=DIRECTION('',(-0.707106781186548,0.707106781186548,0.));
#643=DIRECTION('',(-1.,0.,0.));
#644=DIRECTION('',(-0.707106781186548,-0.707106781186548,0.));
#645=DIRECTION('',(0.,-1.,0.));
#646=DIRECTION('',(0.707106781186548,-0.707106781186548,0.));
#647=DIRECTION('',(1.,0.,0.));
#648=DIRECTION('',(0.,0.,-1.));
#649=DIRECTION('',(0.,0.,1.));
#650=DIRECTION('',(0.,1.,0.));
#651=DIRECTION('',(0.,0.,1.));
#652=DIRECTION('',(1.,0.,0.));
#653=DIRECTION('',(0.,0.,-1.));
#654=DIRECTION('',(0.,0.,1.));
#655=DIRECTION('',(0.,1.,0.));
#656=DIRECTION('',(0.,0.,1.));
#657=DIRECTION('',(0.,-1.,0.));
#658=DIRECTION('',(0.,0.,-1.));
#659=DIRECTION('',(1.,0.,0.));
#660=DIRECTION('',(0.,0.,1.));
#661=DIRECTION('',(1.,0.,0.));
#662=DIRECTION('',(-1.,0.,0.));
#663=DIRECTION('',(0.,1.,0.));
#664=DIRECTION('',(0.,0.,1.));
#665=DIRECTION('',(0.,0.,1.));
#666=DIRECTION('',(-1.,0.,0.));
#667=DIRECTION('',(0.,0.,1.));
#668=DIRECTION('',(-1.,1.67202262744752E-16,0.));
#669=DIRECTION('',(-1.67202262744752E-16,-1.,0.));
#670=DIRECTION('',(0.,0.,1.));
#671=DIRECTION('',(-1.67202262744752E-16,-1.,0.));
#672=DIRECTION('',(0.,1.,0.));
#673=DIRECTION('',(0.,0.,1.));
#674=DIRECTION('',(0.,0.,1.));
#675=DIRECTION('',(-1.,0.,0.));
#676=DIRECTION('',(0.,0.,1.));
#677=DIRECTION('',(1.,0.,0.));
#678=DIRECTION('',(0.,-1.,0.));
#679=DIRECTION('',(-1.,0.,0.));
#680=DIRECTION('',(0.,0.,1.));
#681=DIRECTION('',(0.,0.,1.));
#682=DIRECTION('',(0.,-1.,0.));
#683=DIRECTION('',(0.,0.,1.));
#684=DIRECTION('',(-1.,0.,0.));
#685=DIRECTION('',(0.,0.,1.));
#686=DIRECTION('',(0.,0.,1.));
#687=DIRECTION('',(0.,-1.,0.));
#688=DIRECTION('',(0.,0.,1.));
#689=DIRECTION('',(-1.67202262744752E-16,1.,0.));
#690=DIRECTION('',(-1.,-1.67202262744752E-16,0.));
#691=DIRECTION('',(-1.,-1.67202262744752E-16,0.));
#692=DIRECTION('',(0.,0.,1.));
#693=DIRECTION('',(1.,0.,0.));
#694=DIRECTION('',(-1.,0.,0.));
#695=DIRECTION('',(0.,-1.,0.));
#696=DIRECTION('',(0.,0.,-1.));
#697=DIRECTION('',(0.,0.,1.));
#698=DIRECTION('',(1.,0.,0.));
#699=DIRECTION('',(0.,0.,1.));
#700=DIRECTION('',(0.,-1.,0.));
#701=DIRECTION('',(0.,0.,-1.));
#702=DIRECTION('',(0.,0.,1.));
#703=DIRECTION('',(1.,0.,0.));
#704=DIRECTION('',(0.,0.,1.));
#705=DIRECTION('',(-1.,0.,0.));
#706=DIRECTION('',(0.,0.,1.));
#707=DIRECTION('',(0.,-1.,0.));
#708=DIRECTION('',(0.,0.,1.));
#709=DIRECTION('',(1.,0.,0.));
#710=DIRECTION('',(0.,-1.,0.));
#711=DIRECTION('',(0.,0.,1.));
#712=DIRECTION('',(1.,0.,0.));
#713=DIRECTION('',(0.,0.,1.));
#714=DIRECTION('',(1.,0.,0.));
#715=DIRECTION('',(0.,0.,1.));
#716=DIRECTION('',(1.,0.,0.));
#717=DIRECTION('',(0.,-1.,0.));
#718=DIRECTION('',(0.,0.,-1.));
#719=DIRECTION('',(1.,0.,0.));
#720=DIRECTION('',(0.,0.,-1.));
#721=DIRECTION('',(0.707106781186548,0.707106781186548,0.));
#722=DIRECTION('',(-0.707106781186548,0.707106781186548,0.));
#723=DIRECTION('',(0.,0.,-1.));
#724=DIRECTION('',(0.,0.,-1.));
#725=DIRECTION('',(0.707106781186548,-0.707106781186548,0.));
#726=DIRECTION('',(1.,0.,0.));
#727=DIRECTION('',(0.,0.,-1.));
#728=DIRECTION('',(0.,0.,-1.));
#729=DIRECTION('',(0.,-1.,0.));
#730=DIRECTION('',(0.707106781186548,-0.707106781186548,0.));
#731=DIRECTION('',(0.707106781186548,0.707106781186548,0.));
#732=DIRECTION('',(0.,0.,-1.));
#733=DIRECTION('',(-0.707106781186548,-0.707106781186548,0.));
#734=DIRECTION('',(0.,-1.,0.));
#735=DIRECTION('',(0.,0.,-1.));
#736=DIRECTION('',(0.,0.,-1.));
#737=DIRECTION('',(-1.,0.,0.));
#738=DIRECTION('',(-0.707106781186548,-0.707106781186548,0.));
#739=DIRECTION('',(0.707106781186548,-0.707106781186548,0.));
#740=DIRECTION('',(0.,0.,-1.));
#741=DIRECTION('',(-0.707106781186548,0.707106781186548,0.));
#742=DIRECTION('',(1.,0.,0.));
#743=DIRECTION('',(0.,0.,-1.));
#744=DIRECTION('',(0.,1.,0.));
#745=DIRECTION('',(0.,0.,1.));
#746=DIRECTION('',(0.,0.,-1.));
#747=DIRECTION('',(1.,0.,0.));
#748=DIRECTION('',(-1.,0.,0.));
#749=DIRECTION('',(0.,0.,1.));
#750=DIRECTION('',(0.,0.,-1.));
#751=DIRECTION('',(0.,1.,0.));
#752=DIRECTION('',(-0.707106781186548,0.707106781186548,0.));
#753=DIRECTION('',(-0.707106781186548,-0.707106781186548,0.));
#754=DIRECTION('',(0.707106781186548,0.707106781186548,0.));
#755=DIRECTION('',(0.,-1.,0.));
#756=DIRECTION('',(0.,0.,-1.));
#757=DIRECTION('',(0.,0.,1.));
#758=DIRECTION('',(1.,0.,0.));
#759=CARTESIAN_POINT('',(0.,0.,0.));
#760=CARTESIAN_POINT('',(0.,0.,0.004));
#761=CARTESIAN_POINT('',(0.0437,0.0415,0.004));
#762=CARTESIAN_POINT('',(0.0446,0.0415,0.004));
#763=CARTESIAN_POINT('',(0.0428,0.0415,0.004));
#764=CARTESIAN_POINT('',(0.0446,0.,0.004));
#765=CARTESIAN_POINT('',(0.0446,-0.0415,0.004));
#766=CARTESIAN_POINT('',(0.0437,-0.0415,0.004));
#767=CARTESIAN_POINT('',(0.0428,-0.0415,0.004));
#768=CARTESIAN_POINT('',(0.0428,0.,0.004));
#769=CARTESIAN_POINT('',(0.0415,-0.0437,0.004));
#770=CARTESIAN_POINT('',(0.0415,-0.0446,0.004));
#771=CARTESIAN_POINT('',(0.0415,-0.0428,0.004));
#772=CARTESIAN_POINT('',(0.,-0.0446,0.004));
#773=CARTESIAN_POINT('',(-0.0415,-0.0446,0.004));
#774=CARTESIAN_POINT('',(-0.0415,-0.0437,0.004));
#775=CARTESIAN_POINT('',(-0.0415,-0.0428,0.004));
#776=CARTESIAN_POINT('',(6.93889390390723E-18,-0.0428,0.004));
#777=CARTESIAN_POINT('',(0.,0.0446,0.004));
#778=CARTESIAN_POINT('',(0.0415,0.0446,0.004));
#779=CARTESIAN_POINT('',(-0.0415,0.0446,0.004));
#780=CARTESIAN_POINT('',(0.0415,0.0437,0.004));
#781=CARTESIAN_POINT('',(0.0415,0.0428,0.004));
#782=CARTESIAN_POINT('',(-6.93889390390723E-18,0.0428,0.004));
#783=CARTESIAN_POINT('',(-0.0415,0.0428,0.004));
#784=CARTESIAN_POINT('',(-0.0415,0.0437,0.004));
#785=CARTESIAN_POINT('',(0.,1.12759354031493E-18,0.004));
#786=CARTESIAN_POINT('',(0.018415,1.12759354031493E-18,0.004));
#787=CARTESIAN_POINT('',(-0.0437,-0.0415,0.004));
#788=CARTESIAN_POINT('',(-0.0446,-0.0415,0.004));
#789=CARTESIAN_POINT('',(-0.0428,-0.0415,0.004));
#790=CARTESIAN_POINT('',(-0.0446,0.,0.004));
#791=CARTESIAN_POINT('',(-0.0446,0.0415,0.004));
#792=CARTESIAN_POINT('',(-0.0437,0.0415,0.004));
#793=CARTESIAN_POINT('',(-0.0428,0.0415,0.004));
#794=CARTESIAN_POINT('',(-0.0428,0.,0.004));
#795=CARTESIAN_POINT('',(0.,0.0462,0.004));
#796=CARTESIAN_POINT('',(-0.042722741699797,0.0462,0.004));
#797=CARTESIAN_POINT('',(0.042722741699797,0.0462,0.004));
#798=CARTESIAN_POINT('',(-0.0444613708498985,0.0444613708498985,0.004));
#799=CARTESIAN_POINT('',(-0.0462,0.042722741699797,0.004));
#800=CARTESIAN_POINT('',(-0.0462,0.,0.004));
#801=CARTESIAN_POINT('',(-0.0462,-0.042722741699797,0.004));
#802=CARTESIAN_POINT('',(-0.0444613708498985,-0.0444613708498985,0.004));
#803=CARTESIAN_POINT('',(-0.042722741699797,-0.0462,0.004));
#804=CARTESIAN_POINT('',(0.,-0.0462,0.004));
#805=CARTESIAN_POINT('',(0.042722741699797,-0.0462,0.004));
#806=CARTESIAN_POINT('',(0.0444613708498985,-0.0444613708498985,0.004));
#807=CARTESIAN_POINT('',(0.0462,-0.042722741699797,0.004));
#808=CARTESIAN_POINT('',(0.0462,0.,0.004));
#809=CARTESIAN_POINT('',(0.0462,0.042722741699797,0.004));
#810=CARTESIAN_POINT('',(0.0444613708498985,0.0444613708498985,0.004));
#811=CARTESIAN_POINT('',(-0.0415,-0.0437,0.001));
#812=CARTESIAN_POINT('',(-0.0415,-0.0446,0.001));
#813=CARTESIAN_POINT('',(-0.0415,-0.0446,0.001));
#814=CARTESIAN_POINT('',(-0.0415,-0.0437,0.001));
#815=CARTESIAN_POINT('',(-0.0415,-0.0428,0.001));
#816=CARTESIAN_POINT('',(-0.0415,-0.0428,0.001));
#817=CARTESIAN_POINT('',(0.0415,-0.0437,0.001));
#818=CARTESIAN_POINT('',(0.0415,-0.0428,0.001));
#819=CARTESIAN_POINT('',(0.0415,-0.0428,0.001));
#820=CARTESIAN_POINT('',(0.0415,-0.0437,0.001));
#821=CARTESIAN_POINT('',(0.0415,-0.0446,0.001));
#822=CARTESIAN_POINT('',(0.0415,-0.0446,0.001));
#823=CARTESIAN_POINT('',(6.93889390390723E-18,-0.0428,0.001));
#824=CARTESIAN_POINT('',(6.93889390390723E-18,-0.0428,0.001));
#825=CARTESIAN_POINT('',(0.,-6.93889390390723E-18,0.001));
#826=CARTESIAN_POINT('',(0.,-0.0446,0.001));
#827=CARTESIAN_POINT('',(0.0437,0.0415,0.001));
#828=CARTESIAN_POINT('',(0.0428,0.0415,0.001));
#829=CARTESIAN_POINT('',(0.0428,0.0415,0.001));
#830=CARTESIAN_POINT('',(0.0437,0.0415,0.001));
#831=CARTESIAN_POINT('',(0.0446,0.0415,0.001));
#832=CARTESIAN_POINT('',(0.0446,0.0415,0.001));
#833=CARTESIAN_POINT('',(0.0428,0.,0.001));
#834=CARTESIAN_POINT('',(0.0428,-0.0415,0.001));
#835=CARTESIAN_POINT('',(0.0428,-0.0415,0.001));
#836=CARTESIAN_POINT('',(0.0428,0.,0.001));
#837=CARTESIAN_POINT('',(0.0437,-0.0415,0.001));
#838=CARTESIAN_POINT('',(0.0446,-0.0415,0.001));
#839=CARTESIAN_POINT('',(0.0446,-0.0415,0.001));
#840=CARTESIAN_POINT('',(0.0437,-0.0415,0.001));
#841=CARTESIAN_POINT('',(0.,-6.93889390390723E-18,0.001));
#842=CARTESIAN_POINT('',(0.0446,0.,0.001));
#843=CARTESIAN_POINT('',(0.0415,0.0437,0.001));
#844=CARTESIAN_POINT('',(0.0415,0.0446,0.001));
#845=CARTESIAN_POINT('',(0.0415,0.0446,0.001));
#846=CARTESIAN_POINT('',(0.0415,0.0437,0.001));
#847=CARTESIAN_POINT('',(0.0415,0.0428,0.001));
#848=CARTESIAN_POINT('',(0.0415,0.0428,0.001));
#849=CARTESIAN_POINT('',(-0.0415,0.0437,0.001));
#850=CARTESIAN_POINT('',(-0.0415,0.0428,0.001));
#851=CARTESIAN_POINT('',(-0.0415,0.0428,0.001));
#852=CARTESIAN_POINT('',(-0.0415,0.0437,0.001));
#853=CARTESIAN_POINT('',(-0.0415,0.0446,0.001));
#854=CARTESIAN_POINT('',(-0.0415,0.0446,0.001));
#855=CARTESIAN_POINT('',(-6.93889390390723E-18,0.0428,0.001));
#856=CARTESIAN_POINT('',(-6.93889390390723E-18,0.0428,0.001));
#857=CARTESIAN_POINT('',(0.,-6.93889390390723E-18,0.001));
#858=CARTESIAN_POINT('',(0.,0.0446,0.001));
#859=CARTESIAN_POINT('',(-0.0437,0.0415,0.001));
#860=CARTESIAN_POINT('',(-0.0446,0.0415,0.001));
#861=CARTESIAN_POINT('',(-0.0446,0.0415,0.001));
#862=CARTESIAN_POINT('',(-0.0437,0.0415,0.001));
#863=CARTESIAN_POINT('',(-0.0428,0.0415,0.001));
#864=CARTESIAN_POINT('',(-0.0428,0.0415,0.001));
#865=CARTESIAN_POINT('',(-0.0437,-0.0415,0.001));
#866=CARTESIAN_POINT('',(-0.0428,-0.0415,0.001));
#867=CARTESIAN_POINT('',(-0.0428,-0.0415,0.001));
#868=CARTESIAN_POINT('',(-0.0437,-0.0415,0.001));
#869=CARTESIAN_POINT('',(-0.0446,-0.0415,0.001));
#870=CARTESIAN_POINT('',(-0.0446,-0.0415,0.001));
#871=CARTESIAN_POINT('',(-0.0428,0.,0.001));
#872=CARTESIAN_POINT('',(-0.0428,0.,0.001));
#873=CARTESIAN_POINT('',(0.,-6.93889390390723E-18,0.001));
#874=CARTESIAN_POINT('',(-0.0446,0.,0.001));
#875=CARTESIAN_POINT('',(0.,1.12759354031493E-18,0.0016));
#876=CARTESIAN_POINT('',(0.,1.12759354031493E-18,0.0016));
#877=CARTESIAN_POINT('',(0.018415,1.12759354031493E-18,0.0016));
#878=CARTESIAN_POINT('',(0.,0.,0.0016));
#879=CARTESIAN_POINT('',(0.,0.0446,0.004002));
#880=CARTESIAN_POINT('',(-0.0446,0.,0.004002));
#881=CARTESIAN_POINT('',(0.0444613708498985,0.0444613708498985,0.004002));
#882=CARTESIAN_POINT('',(0.042722741699797,0.0462,0.004002));
#883=CARTESIAN_POINT('',(0.042722741699797,0.0462,0.));
#884=CARTESIAN_POINT('',(0.0462,0.042722741699797,0.004002));
#885=CARTESIAN_POINT('',(0.0462,0.042722741699797,0.));
#886=CARTESIAN_POINT('',(0.0444613708498985,0.0444613708498985,0.));
#887=CARTESIAN_POINT('',(0.0462,0.,0.004002));
#888=CARTESIAN_POINT('',(0.0462,-0.042722741699797,0.004002));
#889=CARTESIAN_POINT('',(0.0462,-0.042722741699797,0.));
#890=CARTESIAN_POINT('',(0.0462,0.,0.));
#891=CARTESIAN_POINT('',(0.0444613708498985,-0.0444613708498985,0.004002));
#892=CARTESIAN_POINT('',(0.042722741699797,-0.0462,0.004002));
#893=CARTESIAN_POINT('',(0.042722741699797,-0.0462,0.));
#894=CARTESIAN_POINT('',(0.0444613708498985,-0.0444613708498985,0.));
#895=CARTESIAN_POINT('',(0.,-0.0462,0.004002));
#896=CARTESIAN_POINT('',(-0.042722741699797,-0.0462,0.004002));
#897=CARTESIAN_POINT('',(-0.042722741699797,-0.0462,0.));
#898=CARTESIAN_POINT('',(0.,-0.0462,0.));
#899=CARTESIAN_POINT('',(-0.0444613708498985,-0.0444613708498985,0.004002));
#900=CARTESIAN_POINT('',(-0.0462,-0.042722741699797,0.004002));
#901=CARTESIAN_POINT('',(-0.0462,-0.042722741699797,0.));
#902=CARTESIAN_POINT('',(-0.0444613708498985,-0.0444613708498985,0.));
#903=CARTESIAN_POINT('',(0.0446,0.,0.004002));
#904=CARTESIAN_POINT('',(0.,0.0462,0.004002));
#905=CARTESIAN_POINT('',(-0.042722741699797,0.0462,0.004002));
#906=CARTESIAN_POINT('',(-0.042722741699797,0.0462,0.));
#907=CARTESIAN_POINT('',(0.,0.0462,0.));
#908=CARTESIAN_POINT('',(-0.0462,0.,0.004002));
#909=CARTESIAN_POINT('',(-0.0462,0.042722741699797,0.004002));
#910=CARTESIAN_POINT('',(-0.0462,0.042722741699797,0.));
#911=CARTESIAN_POINT('',(-0.0462,0.,0.));
#912=CARTESIAN_POINT('',(-0.0444613708498985,0.0444613708498985,0.004002));
#913=CARTESIAN_POINT('',(-0.0444613708498985,0.0444613708498985,0.));
#914=CARTESIAN_POINT('',(0.,-0.0446,0.004002));
#915=CARTESIAN_POINT('',(0.,0.,0.));
#916=MECHANICAL_DESIGN_GEOMETRIC_PRESENTATION_REPRESENTATION('',(#571),
#917);
#917=(
GEOMETRIC_REPRESENTATION_CONTEXT(3)
GLOBAL_UNCERTAINTY_ASSIGNED_CONTEXT((#918))
GLOBAL_UNIT_ASSIGNED_CONTEXT((#921,#920,#919))
REPRESENTATION_CONTEXT('Part 1','TOP_LEVEL_ASSEMBLY_PART')
);
#918=UNCERTAINTY_MEASURE_WITH_UNIT(LENGTH_MEASURE(1.E-8),#921,
'DISTANCE_ACCURACY_VALUE','Maximum Tolerance applied to model');
#919=(
NAMED_UNIT(*)
SI_UNIT($,.STERADIAN.)
SOLID_ANGLE_UNIT()
);
#920=(
NAMED_UNIT(*)
PLANE_ANGLE_UNIT()
SI_UNIT($,.RADIAN.)
);
#921=(
LENGTH_UNIT()
NAMED_UNIT(*)
SI_UNIT($,.METRE.)
);
#922=PRODUCT_DEFINITION_SHAPE('','',#923);
#923=PRODUCT_DEFINITION('','',#925,#924);
#924=PRODUCT_DEFINITION_CONTEXT('',#931,'design');
#925=PRODUCT_DEFINITION_FORMATION_WITH_SPECIFIED_SOURCE('','',#927,
 .NOT_KNOWN.);
#926=PRODUCT_RELATED_PRODUCT_CATEGORY('','',(#927));
#927=PRODUCT('Part 1','Part 1','Part 1',(#929));
#928=PRODUCT_CATEGORY('','');
#929=PRODUCT_CONTEXT('',#931,'mechanical');
#930=APPLICATION_PROTOCOL_DEFINITION('international standard',
'ap242_managed_model_based_3d_engineering',2011,#931);
#931=APPLICATION_CONTEXT('managed model based 3d engineering');
ENDSEC;
END-ISO-10303-21;
