ISO-10303-21;
HEADER;
/* Generated by software containing ST-Developer
 * from STEP Tools, Inc. (www.steptools.com) 
 */
/* OPTION: using custom renumber hook */

FILE_DESCRIPTION(
/* description */ ('STEP AP242',
'CAx-IF Rec.Pracs.---Representation and Presentation of Product Manufa
cturing Information (PMI)---4.0---2014-10-13',
'CAx-IF Rec.Pracs.---3D Tessellated Geometry---0.4---2014-09-14','2;1',
'CAx-IF Rec.Pracs.---User Defined Attributes---1.5---2016-08-15'),
/* implementation_level */ '2;1');

FILE_NAME(
/* name */ '6918f49042ec8c8903aed3df',
/* time_stamp */ '2025-11-15T21:45:52Z',
/* author */ (''),
/* organization */ (''),
/* preprocessor_version */ 'ST-DEVELOPER v20',
/* originating_system */ 'ONSHAPE BY PTC INC, 1.206',
/* authorisation */ '  ');

FILE_SCHEMA (('AP242_MANAGED_MODEL_BASED_3D_ENGINEERING_MIM_LF { 1 0 10303 442 1 1 4 }'));
ENDSEC;

DATA;
#10=SHAPE_REPRESENTATION_RELATIONSHIP('','',#427,#11);
#11=ADVANCED_BREP_SHAPE_REPRESENTATION('',(#425),#729);
#12=PLANE('',#432);
#13=PLANE('',#436);
#14=PLANE('',#438);
#15=PLANE('',#443);
#16=PLANE('',#453);
#17=PLANE('',#457);
#18=PLANE('',#459);
#19=PLANE('',#464);
#20=PLANE('',#471);
#21=PLANE('',#472);
#22=LINE('',#610,#58);
#23=LINE('',#614,#59);
#24=LINE('',#616,#60);
#25=LINE('',#618,#61);
#26=LINE('',#620,#62);
#27=LINE('',#624,#63);
#28=LINE('',#628,#64);
#29=LINE('',#632,#65);
#30=LINE('',#637,#66);
#31=LINE('',#639,#67);
#32=LINE('',#641,#68);
#33=LINE('',#645,#69);
#34=LINE('',#649,#70);
#35=LINE('',#651,#71);
#36=LINE('',#653,#72);
#37=LINE('',#657,#73);
#38=LINE('',#663,#74);
#39=LINE('',#669,#75);
#40=LINE('',#673,#76);
#41=LINE('',#675,#77);
#42=LINE('',#677,#78);
#43=LINE('',#681,#79);
#44=LINE('',#685,#80);
#45=LINE('',#689,#81);
#46=LINE('',#694,#82);
#47=LINE('',#696,#83);
#48=LINE('',#698,#84);
#49=LINE('',#702,#85);
#50=LINE('',#706,#86);
#51=LINE('',#708,#87);
#52=LINE('',#710,#88);
#53=LINE('',#714,#89);
#54=LINE('',#721,#90);
#55=LINE('',#722,#91);
#56=LINE('',#724,#92);
#57=LINE('',#725,#93);
#58=VECTOR('',#481,1.);
#59=VECTOR('',#484,1.);
#60=VECTOR('',#487,1.);
#61=VECTOR('',#488,1.);
#62=VECTOR('',#489,1.);
#63=VECTOR('',#494,1.);
#64=VECTOR('',#499,1.);
#65=VECTOR('',#502,1.);
#66=VECTOR('',#507,1.);
#67=VECTOR('',#508,1.);
#68=VECTOR('',#509,1.);
#69=VECTOR('',#514,1.);
#70=VECTOR('',#519,1.);
#71=VECTOR('',#520,1.);
#72=VECTOR('',#521,1.);
#73=VECTOR('',#526,1.);
#74=VECTOR('',#533,1.);
#75=VECTOR('',#540,1.);
#76=VECTOR('',#545,1.);
#77=VECTOR('',#546,1.);
#78=VECTOR('',#547,1.);
#79=VECTOR('',#552,1.);
#80=VECTOR('',#557,1.);
#81=VECTOR('',#560,1.);
#82=VECTOR('',#565,1.);
#83=VECTOR('',#566,1.);
#84=VECTOR('',#567,1.);
#85=VECTOR('',#572,1.);
#86=VECTOR('',#577,1.);
#87=VECTOR('',#578,1.);
#88=VECTOR('',#579,1.);
#89=VECTOR('',#584,1.);
#90=VECTOR('',#595,1.);
#91=VECTOR('',#596,1.);
#92=VECTOR('',#599,1.);
#93=VECTOR('',#600,1.);
#94=ORIENTED_EDGE('',*,*,#214,.F.);
#95=ORIENTED_EDGE('',*,*,#215,.F.);
#96=ORIENTED_EDGE('',*,*,#216,.T.);
#97=ORIENTED_EDGE('',*,*,#217,.T.);
#98=ORIENTED_EDGE('',*,*,#218,.F.);
#99=ORIENTED_EDGE('',*,*,#219,.F.);
#100=ORIENTED_EDGE('',*,*,#220,.T.);
#101=ORIENTED_EDGE('',*,*,#215,.T.);
#102=ORIENTED_EDGE('',*,*,#221,.F.);
#103=ORIENTED_EDGE('',*,*,#222,.F.);
#104=ORIENTED_EDGE('',*,*,#223,.T.);
#105=ORIENTED_EDGE('',*,*,#219,.T.);
#106=ORIENTED_EDGE('',*,*,#224,.T.);
#107=ORIENTED_EDGE('',*,*,#225,.T.);
#108=ORIENTED_EDGE('',*,*,#226,.F.);
#109=ORIENTED_EDGE('',*,*,#222,.T.);
#110=ORIENTED_EDGE('',*,*,#227,.T.);
#111=ORIENTED_EDGE('',*,*,#228,.F.);
#112=ORIENTED_EDGE('',*,*,#229,.F.);
#113=ORIENTED_EDGE('',*,*,#230,.T.);
#114=ORIENTED_EDGE('',*,*,#231,.T.);
#115=ORIENTED_EDGE('',*,*,#232,.F.);
#116=ORIENTED_EDGE('',*,*,#233,.F.);
#117=ORIENTED_EDGE('',*,*,#229,.T.);
#118=ORIENTED_EDGE('',*,*,#234,.T.);
#119=ORIENTED_EDGE('',*,*,#235,.F.);
#120=ORIENTED_EDGE('',*,*,#236,.F.);
#121=ORIENTED_EDGE('',*,*,#232,.T.);
#122=ORIENTED_EDGE('',*,*,#237,.T.);
#123=ORIENTED_EDGE('',*,*,#238,.F.);
#124=ORIENTED_EDGE('',*,*,#239,.F.);
#125=ORIENTED_EDGE('',*,*,#235,.T.);
#126=ORIENTED_EDGE('',*,*,#240,.F.);
#127=ORIENTED_EDGE('',*,*,#241,.F.);
#128=ORIENTED_EDGE('',*,*,#242,.T.);
#129=ORIENTED_EDGE('',*,*,#238,.T.);
#130=ORIENTED_EDGE('',*,*,#243,.T.);
#131=ORIENTED_EDGE('',*,*,#244,.F.);
#132=ORIENTED_EDGE('',*,*,#245,.F.);
#133=ORIENTED_EDGE('',*,*,#241,.T.);
#134=ORIENTED_EDGE('',*,*,#246,.F.);
#135=ORIENTED_EDGE('',*,*,#247,.F.);
#136=ORIENTED_EDGE('',*,*,#248,.T.);
#137=ORIENTED_EDGE('',*,*,#244,.T.);
#138=ORIENTED_EDGE('',*,*,#249,.F.);
#139=ORIENTED_EDGE('',*,*,#250,.F.);
#140=ORIENTED_EDGE('',*,*,#251,.T.);
#141=ORIENTED_EDGE('',*,*,#247,.T.);
#142=ORIENTED_EDGE('',*,*,#252,.T.);
#143=ORIENTED_EDGE('',*,*,#253,.T.);
#144=ORIENTED_EDGE('',*,*,#254,.F.);
#145=ORIENTED_EDGE('',*,*,#250,.T.);
#146=ORIENTED_EDGE('',*,*,#255,.T.);
#147=ORIENTED_EDGE('',*,*,#256,.F.);
#148=ORIENTED_EDGE('',*,*,#257,.F.);
#149=ORIENTED_EDGE('',*,*,#258,.T.);
#150=ORIENTED_EDGE('',*,*,#259,.T.);
#151=ORIENTED_EDGE('',*,*,#260,.F.);
#152=ORIENTED_EDGE('',*,*,#261,.F.);
#153=ORIENTED_EDGE('',*,*,#257,.T.);
#154=ORIENTED_EDGE('',*,*,#262,.T.);
#155=ORIENTED_EDGE('',*,*,#263,.F.);
#156=ORIENTED_EDGE('',*,*,#264,.F.);
#157=ORIENTED_EDGE('',*,*,#260,.T.);
#158=ORIENTED_EDGE('',*,*,#265,.F.);
#159=ORIENTED_EDGE('',*,*,#266,.F.);
#160=ORIENTED_EDGE('',*,*,#267,.T.);
#161=ORIENTED_EDGE('',*,*,#263,.T.);
#162=ORIENTED_EDGE('',*,*,#268,.T.);
#163=ORIENTED_EDGE('',*,*,#217,.F.);
#164=ORIENTED_EDGE('',*,*,#269,.F.);
#165=ORIENTED_EDGE('',*,*,#266,.T.);
#166=ORIENTED_EDGE('',*,*,#254,.T.);
#167=ORIENTED_EDGE('',*,*,#270,.T.);
#168=ORIENTED_EDGE('',*,*,#258,.F.);
#169=ORIENTED_EDGE('',*,*,#261,.T.);
#170=ORIENTED_EDGE('',*,*,#264,.T.);
#171=ORIENTED_EDGE('',*,*,#267,.F.);
#172=ORIENTED_EDGE('',*,*,#269,.T.);
#173=ORIENTED_EDGE('',*,*,#216,.F.);
#174=ORIENTED_EDGE('',*,*,#220,.F.);
#175=ORIENTED_EDGE('',*,*,#223,.F.);
#176=ORIENTED_EDGE('',*,*,#226,.T.);
#177=ORIENTED_EDGE('',*,*,#271,.T.);
#178=ORIENTED_EDGE('',*,*,#230,.F.);
#179=ORIENTED_EDGE('',*,*,#233,.T.);
#180=ORIENTED_EDGE('',*,*,#236,.T.);
#181=ORIENTED_EDGE('',*,*,#239,.T.);
#182=ORIENTED_EDGE('',*,*,#242,.F.);
#183=ORIENTED_EDGE('',*,*,#245,.T.);
#184=ORIENTED_EDGE('',*,*,#248,.F.);
#185=ORIENTED_EDGE('',*,*,#251,.F.);
#186=ORIENTED_EDGE('',*,*,#256,.T.);
#187=ORIENTED_EDGE('',*,*,#272,.T.);
#188=ORIENTED_EDGE('',*,*,#252,.F.);
#189=ORIENTED_EDGE('',*,*,#249,.T.);
#190=ORIENTED_EDGE('',*,*,#246,.T.);
#191=ORIENTED_EDGE('',*,*,#243,.F.);
#192=ORIENTED_EDGE('',*,*,#240,.T.);
#193=ORIENTED_EDGE('',*,*,#237,.F.);
#194=ORIENTED_EDGE('',*,*,#234,.F.);
#195=ORIENTED_EDGE('',*,*,#231,.F.);
#196=ORIENTED_EDGE('',*,*,#228,.T.);
#197=ORIENTED_EDGE('',*,*,#273,.T.);
#198=ORIENTED_EDGE('',*,*,#224,.F.);
#199=ORIENTED_EDGE('',*,*,#221,.T.);
#200=ORIENTED_EDGE('',*,*,#218,.T.);
#201=ORIENTED_EDGE('',*,*,#214,.T.);
#202=ORIENTED_EDGE('',*,*,#268,.F.);
#203=ORIENTED_EDGE('',*,*,#265,.T.);
#204=ORIENTED_EDGE('',*,*,#262,.F.);
#205=ORIENTED_EDGE('',*,*,#259,.F.);
#206=ORIENTED_EDGE('',*,*,#253,.F.);
#207=ORIENTED_EDGE('',*,*,#272,.F.);
#208=ORIENTED_EDGE('',*,*,#255,.F.);
#209=ORIENTED_EDGE('',*,*,#270,.F.);
#210=ORIENTED_EDGE('',*,*,#271,.F.);
#211=ORIENTED_EDGE('',*,*,#225,.F.);
#212=ORIENTED_EDGE('',*,*,#273,.F.);
#213=ORIENTED_EDGE('',*,*,#227,.F.);
#214=EDGE_CURVE('',#274,#275,#314,.T.);
#215=EDGE_CURVE('',#276,#274,#22,.T.);
#216=EDGE_CURVE('',#276,#277,#315,.T.);
#217=EDGE_CURVE('',#277,#275,#23,.T.);
#218=EDGE_CURVE('',#278,#274,#24,.T.);
#219=EDGE_CURVE('',#279,#278,#25,.T.);
#220=EDGE_CURVE('',#279,#276,#26,.T.);
#221=EDGE_CURVE('',#280,#278,#316,.T.);
#222=EDGE_CURVE('',#281,#280,#27,.T.);
#223=EDGE_CURVE('',#281,#279,#317,.T.);
#224=EDGE_CURVE('',#280,#282,#28,.T.);
#225=EDGE_CURVE('',#282,#283,#318,.F.);
#226=EDGE_CURVE('',#281,#283,#29,.T.);
#227=EDGE_CURVE('',#284,#285,#319,.T.);
#228=EDGE_CURVE('',#286,#285,#30,.T.);
#229=EDGE_CURVE('',#287,#286,#31,.T.);
#230=EDGE_CURVE('',#287,#284,#32,.T.);
#231=EDGE_CURVE('',#286,#288,#320,.T.);
#232=EDGE_CURVE('',#289,#288,#33,.T.);
#233=EDGE_CURVE('',#287,#289,#321,.T.);
#234=EDGE_CURVE('',#288,#290,#34,.T.);
#235=EDGE_CURVE('',#291,#290,#35,.T.);
#236=EDGE_CURVE('',#289,#291,#36,.T.);
#237=EDGE_CURVE('',#290,#292,#322,.T.);
#238=EDGE_CURVE('',#293,#292,#37,.T.);
#239=EDGE_CURVE('',#291,#293,#323,.T.);
#240=EDGE_CURVE('',#294,#292,#324,.T.);
#241=EDGE_CURVE('',#295,#294,#38,.T.);
#242=EDGE_CURVE('',#295,#293,#325,.T.);
#243=EDGE_CURVE('',#294,#296,#326,.T.);
#244=EDGE_CURVE('',#297,#296,#39,.T.);
#245=EDGE_CURVE('',#295,#297,#327,.T.);
#246=EDGE_CURVE('',#298,#296,#40,.T.);
#247=EDGE_CURVE('',#299,#298,#41,.T.);
#248=EDGE_CURVE('',#299,#297,#42,.T.);
#249=EDGE_CURVE('',#300,#298,#328,.T.);
#250=EDGE_CURVE('',#301,#300,#43,.T.);
#251=EDGE_CURVE('',#301,#299,#329,.T.);
#252=EDGE_CURVE('',#300,#302,#44,.T.);
#253=EDGE_CURVE('',#302,#303,#330,.F.);
#254=EDGE_CURVE('',#301,#303,#45,.T.);
#255=EDGE_CURVE('',#304,#305,#331,.T.);
#256=EDGE_CURVE('',#306,#305,#46,.T.);
#257=EDGE_CURVE('',#307,#306,#47,.T.);
#258=EDGE_CURVE('',#307,#304,#48,.T.);
#259=EDGE_CURVE('',#306,#308,#332,.T.);
#260=EDGE_CURVE('',#309,#308,#49,.T.);
#261=EDGE_CURVE('',#307,#309,#333,.T.);
#262=EDGE_CURVE('',#308,#310,#50,.T.);
#263=EDGE_CURVE('',#311,#310,#51,.T.);
#264=EDGE_CURVE('',#309,#311,#52,.T.);
#265=EDGE_CURVE('',#312,#310,#334,.T.);
#266=EDGE_CURVE('',#313,#312,#53,.T.);
#267=EDGE_CURVE('',#313,#311,#335,.T.);
#268=EDGE_CURVE('',#312,#275,#336,.T.);
#269=EDGE_CURVE('',#313,#277,#337,.T.);
#270=EDGE_CURVE('',#303,#304,#54,.F.);
#271=EDGE_CURVE('',#283,#284,#55,.T.);
#272=EDGE_CURVE('',#305,#302,#56,.T.);
#273=EDGE_CURVE('',#285,#282,#57,.F.);
#274=VERTEX_POINT('',#608);
#275=VERTEX_POINT('',#609);
#276=VERTEX_POINT('',#611);
#277=VERTEX_POINT('',#613);
#278=VERTEX_POINT('',#617);
#279=VERTEX_POINT('',#619);
#280=VERTEX_POINT('',#623);
#281=VERTEX_POINT('',#625);
#282=VERTEX_POINT('',#629);
#283=VERTEX_POINT('',#631);
#284=VERTEX_POINT('',#635);
#285=VERTEX_POINT('',#636);
#286=VERTEX_POINT('',#638);
#287=VERTEX_POINT('',#640);
#288=VERTEX_POINT('',#644);
#289=VERTEX_POINT('',#646);
#290=VERTEX_POINT('',#650);
#291=VERTEX_POINT('',#652);
#292=VERTEX_POINT('',#656);
#293=VERTEX_POINT('',#658);
#294=VERTEX_POINT('',#662);
#295=VERTEX_POINT('',#664);
#296=VERTEX_POINT('',#668);
#297=VERTEX_POINT('',#670);
#298=VERTEX_POINT('',#674);
#299=VERTEX_POINT('',#676);
#300=VERTEX_POINT('',#680);
#301=VERTEX_POINT('',#682);
#302=VERTEX_POINT('',#686);
#303=VERTEX_POINT('',#688);
#304=VERTEX_POINT('',#692);
#305=VERTEX_POINT('',#693);
#306=VERTEX_POINT('',#695);
#307=VERTEX_POINT('',#697);
#308=VERTEX_POINT('',#701);
#309=VERTEX_POINT('',#703);
#310=VERTEX_POINT('',#707);
#311=VERTEX_POINT('',#709);
#312=VERTEX_POINT('',#713);
#313=VERTEX_POINT('',#715);
#314=CIRCLE('',#430,0.000635);
#315=CIRCLE('',#431,0.000635);
#316=CIRCLE('',#434,0.024765);
#317=CIRCLE('',#435,0.024765);
#318=CIRCLE('',#437,0.003175);
#319=CIRCLE('',#439,0.003175);
#320=CIRCLE('',#441,0.02159);
#321=CIRCLE('',#442,0.02159);
#322=CIRCLE('',#445,0.00380999999878705);
#323=CIRCLE('',#446,0.00380999999878705);
#324=CIRCLE('',#448,0.009525);
#325=CIRCLE('',#449,0.009525);
#326=CIRCLE('',#451,0.0038100000315829);
#327=CIRCLE('',#452,0.0038100000315829);
#328=CIRCLE('',#455,0.02159);
#329=CIRCLE('',#456,0.02159);
#330=CIRCLE('',#458,0.003175);
#331=CIRCLE('',#460,0.003175);
#332=CIRCLE('',#462,0.024765);
#333=CIRCLE('',#463,0.024765);
#334=CIRCLE('',#466,0.000635);
#335=CIRCLE('',#467,0.000635);
#336=CIRCLE('',#469,0.0127);
#337=CIRCLE('',#470,0.0127);
#338=EDGE_LOOP('',(#94,#95,#96,#97));
#339=EDGE_LOOP('',(#98,#99,#100,#101));
#340=EDGE_LOOP('',(#102,#103,#104,#105));
#341=EDGE_LOOP('',(#106,#107,#108,#109));
#342=EDGE_LOOP('',(#110,#111,#112,#113));
#343=EDGE_LOOP('',(#114,#115,#116,#117));
#344=EDGE_LOOP('',(#118,#119,#120,#121));
#345=EDGE_LOOP('',(#122,#123,#124,#125));
#346=EDGE_LOOP('',(#126,#127,#128,#129));
#347=EDGE_LOOP('',(#130,#131,#132,#133));
#348=EDGE_LOOP('',(#134,#135,#136,#137));
#349=EDGE_LOOP('',(#138,#139,#140,#141));
#350=EDGE_LOOP('',(#142,#143,#144,#145));
#351=EDGE_LOOP('',(#146,#147,#148,#149));
#352=EDGE_LOOP('',(#150,#151,#152,#153));
#353=EDGE_LOOP('',(#154,#155,#156,#157));
#354=EDGE_LOOP('',(#158,#159,#160,#161));
#355=EDGE_LOOP('',(#162,#163,#164,#165));
#356=EDGE_LOOP('',(#166,#167,#168,#169,#170,#171,#172,#173,#174,#175,#176,
#177,#178,#179,#180,#181,#182,#183,#184,#185));
#357=EDGE_LOOP('',(#186,#187,#188,#189,#190,#191,#192,#193,#194,#195,#196,
#197,#198,#199,#200,#201,#202,#203,#204,#205));
#358=EDGE_LOOP('',(#206,#207,#208,#209));
#359=EDGE_LOOP('',(#210,#211,#212,#213));
#360=FACE_BOUND('',#338,.T.);
#361=FACE_BOUND('',#339,.T.);
#362=FACE_BOUND('',#340,.T.);
#363=FACE_BOUND('',#341,.T.);
#364=FACE_BOUND('',#342,.T.);
#365=FACE_BOUND('',#343,.T.);
#366=FACE_BOUND('',#344,.T.);
#367=FACE_BOUND('',#345,.T.);
#368=FACE_BOUND('',#346,.T.);
#369=FACE_BOUND('',#347,.T.);
#370=FACE_BOUND('',#348,.T.);
#371=FACE_BOUND('',#349,.T.);
#372=FACE_BOUND('',#350,.T.);
#373=FACE_BOUND('',#351,.T.);
#374=FACE_BOUND('',#352,.T.);
#375=FACE_BOUND('',#353,.T.);
#376=FACE_BOUND('',#354,.T.);
#377=FACE_BOUND('',#355,.T.);
#378=FACE_BOUND('',#356,.T.);
#379=FACE_BOUND('',#357,.T.);
#380=FACE_BOUND('',#358,.T.);
#381=FACE_BOUND('',#359,.T.);
#382=CYLINDRICAL_SURFACE('',#429,0.000635);
#383=CYLINDRICAL_SURFACE('',#433,0.024765);
#384=CYLINDRICAL_SURFACE('',#440,0.02159);
#385=CYLINDRICAL_SURFACE('',#444,0.00380999999878705);
#386=CYLINDRICAL_SURFACE('',#447,0.009525);
#387=CYLINDRICAL_SURFACE('',#450,0.0038100000315829);
#388=CYLINDRICAL_SURFACE('',#454,0.02159);
#389=CYLINDRICAL_SURFACE('',#461,0.024765);
#390=CYLINDRICAL_SURFACE('',#465,0.000635);
#391=CYLINDRICAL_SURFACE('',#468,0.0127);
#392=CYLINDRICAL_SURFACE('',#473,0.003175);
#393=CYLINDRICAL_SURFACE('',#474,0.003175);
#394=ADVANCED_FACE('',(#360),#382,.F.);
#395=ADVANCED_FACE('',(#361),#12,.T.);
#396=ADVANCED_FACE('',(#362),#383,.T.);
#397=ADVANCED_FACE('',(#363),#13,.F.);
#398=ADVANCED_FACE('',(#364),#14,.T.);
#399=ADVANCED_FACE('',(#365),#384,.F.);
#400=ADVANCED_FACE('',(#366),#15,.F.);
#401=ADVANCED_FACE('',(#367),#385,.T.);
#402=ADVANCED_FACE('',(#368),#386,.F.);
#403=ADVANCED_FACE('',(#369),#387,.T.);
#404=ADVANCED_FACE('',(#370),#16,.T.);
#405=ADVANCED_FACE('',(#371),#388,.F.);
#406=ADVANCED_FACE('',(#372),#17,.F.);
#407=ADVANCED_FACE('',(#373),#18,.T.);
#408=ADVANCED_FACE('',(#374),#389,.T.);
#409=ADVANCED_FACE('',(#375),#19,.F.);
#410=ADVANCED_FACE('',(#376),#390,.F.);
#411=ADVANCED_FACE('',(#377),#391,.T.);
#412=ADVANCED_FACE('',(#378),#20,.T.);
#413=ADVANCED_FACE('',(#379),#21,.F.);
#414=ADVANCED_FACE('',(#380),#392,.T.);
#415=ADVANCED_FACE('',(#381),#393,.T.);
#416=CLOSED_SHELL('',(#394,#395,#396,#397,#398,#399,#400,#401,#402,#403,
#404,#405,#406,#407,#408,#409,#410,#411,#412,#413,#414,#415));
#417=STYLED_ITEM('',(#418),#425);
#418=PRESENTATION_STYLE_ASSIGNMENT((#419));
#419=SURFACE_STYLE_USAGE(.BOTH.,#420);
#420=SURFACE_SIDE_STYLE('',(#421));
#421=SURFACE_STYLE_FILL_AREA(#422);
#422=FILL_AREA_STYLE('',(#423));
#423=FILL_AREA_STYLE_COLOUR('',#424);
#424=COLOUR_RGB('',0.615686274509804,0.811764705882353,0.929411764705882);
#425=MANIFOLD_SOLID_BREP('Part 1',#416);
#426=SHAPE_DEFINITION_REPRESENTATION(#734,#427);
#427=SHAPE_REPRESENTATION('Part 1',(#428),#729);
#428=AXIS2_PLACEMENT_3D('',#605,#475,#476);
#429=AXIS2_PLACEMENT_3D('',#606,#477,#478);
#430=AXIS2_PLACEMENT_3D('',#607,#479,#480);
#431=AXIS2_PLACEMENT_3D('',#612,#482,#483);
#432=AXIS2_PLACEMENT_3D('',#615,#485,#486);
#433=AXIS2_PLACEMENT_3D('',#621,#490,#491);
#434=AXIS2_PLACEMENT_3D('',#622,#492,#493);
#435=AXIS2_PLACEMENT_3D('',#626,#495,#496);
#436=AXIS2_PLACEMENT_3D('',#627,#497,#498);
#437=AXIS2_PLACEMENT_3D('',#630,#500,#501);
#438=AXIS2_PLACEMENT_3D('',#633,#503,#504);
#439=AXIS2_PLACEMENT_3D('',#634,#505,#506);
#440=AXIS2_PLACEMENT_3D('',#642,#510,#511);
#441=AXIS2_PLACEMENT_3D('',#643,#512,#513);
#442=AXIS2_PLACEMENT_3D('',#647,#515,#516);
#443=AXIS2_PLACEMENT_3D('',#648,#517,#518);
#444=AXIS2_PLACEMENT_3D('',#654,#522,#523);
#445=AXIS2_PLACEMENT_3D('',#655,#524,#525);
#446=AXIS2_PLACEMENT_3D('',#659,#527,#528);
#447=AXIS2_PLACEMENT_3D('',#660,#529,#530);
#448=AXIS2_PLACEMENT_3D('',#661,#531,#532);
#449=AXIS2_PLACEMENT_3D('',#665,#534,#535);
#450=AXIS2_PLACEMENT_3D('',#666,#536,#537);
#451=AXIS2_PLACEMENT_3D('',#667,#538,#539);
#452=AXIS2_PLACEMENT_3D('',#671,#541,#542);
#453=AXIS2_PLACEMENT_3D('',#672,#543,#544);
#454=AXIS2_PLACEMENT_3D('',#678,#548,#549);
#455=AXIS2_PLACEMENT_3D('',#679,#550,#551);
#456=AXIS2_PLACEMENT_3D('',#683,#553,#554);
#457=AXIS2_PLACEMENT_3D('',#684,#555,#556);
#458=AXIS2_PLACEMENT_3D('',#687,#558,#559);
#459=AXIS2_PLACEMENT_3D('',#690,#561,#562);
#460=AXIS2_PLACEMENT_3D('',#691,#563,#564);
#461=AXIS2_PLACEMENT_3D('',#699,#568,#569);
#462=AXIS2_PLACEMENT_3D('',#700,#570,#571);
#463=AXIS2_PLACEMENT_3D('',#704,#573,#574);
#464=AXIS2_PLACEMENT_3D('',#705,#575,#576);
#465=AXIS2_PLACEMENT_3D('',#711,#580,#581);
#466=AXIS2_PLACEMENT_3D('',#712,#582,#583);
#467=AXIS2_PLACEMENT_3D('',#716,#585,#586);
#468=AXIS2_PLACEMENT_3D('',#717,#587,#588);
#469=AXIS2_PLACEMENT_3D('',#718,#589,#590);
#470=AXIS2_PLACEMENT_3D('',#719,#591,#592);
#471=AXIS2_PLACEMENT_3D('',#720,#593,#594);
#472=AXIS2_PLACEMENT_3D('',#723,#597,#598);
#473=AXIS2_PLACEMENT_3D('',#726,#601,#602);
#474=AXIS2_PLACEMENT_3D('',#727,#603,#604);
#475=DIRECTION('',(0.,0.,1.));
#476=DIRECTION('',(1.,0.,0.));
#477=DIRECTION('',(0.,0.,-1.));
#478=DIRECTION('',(-1.,0.,0.));
#479=DIRECTION('',(0.,0.,1.));
#480=DIRECTION('',(1.,0.,0.));
#481=DIRECTION('',(0.,0.,-1.));
#482=DIRECTION('',(0.,0.,1.));
#483=DIRECTION('',(1.,0.,0.));
#484=DIRECTION('',(0.,0.,-1.));
#485=DIRECTION('',(-0.392836370800612,0.919608387182394,0.));
#486=DIRECTION('',(-0.919608387182395,-0.392836370800612,0.));
#487=DIRECTION('',(0.919608387182394,0.392836370800612,0.));
#488=DIRECTION('',(0.,0.,-1.));
#489=DIRECTION('',(0.919608387182394,0.392836370800612,0.));
#490=DIRECTION('',(0.,0.,-1.));
#491=DIRECTION('',(-1.,0.,0.));
#492=DIRECTION('',(0.,0.,-1.));
#493=DIRECTION('',(1.,0.,0.));
#494=DIRECTION('',(0.,0.,-1.));
#495=DIRECTION('',(0.,0.,-1.));
#496=DIRECTION('',(1.,0.,0.));
#497=DIRECTION('',(1.,2.73184799366426E-16,0.));
#498=DIRECTION('',(-2.73184799366426E-16,1.,0.));
#499=DIRECTION('',(2.73184799366426E-16,-1.,0.));
#500=DIRECTION('',(1.,2.73184799366426E-16,0.));
#501=DIRECTION('',(-2.73184799366426E-16,1.,0.));
#502=DIRECTION('',(2.73184799366426E-16,-1.,0.));
#503=DIRECTION('',(1.,2.73184799366426E-16,0.));
#504=DIRECTION('',(-2.73184799366426E-16,1.,0.));
#505=DIRECTION('',(1.,2.73184799366426E-16,0.));
#506=DIRECTION('',(-2.73184799366426E-16,1.,0.));
#507=DIRECTION('',(2.73184799366426E-16,-1.,0.));
#508=DIRECTION('',(0.,0.,-1.));
#509=DIRECTION('',(2.73184799366426E-16,-1.,0.));
#510=DIRECTION('',(0.,0.,-1.));
#511=DIRECTION('',(-1.,0.,0.));
#512=DIRECTION('',(0.,0.,-1.));
#513=DIRECTION('',(1.,0.,0.));
#514=DIRECTION('',(0.,0.,-1.));
#515=DIRECTION('',(0.,0.,-1.));
#516=DIRECTION('',(1.,0.,0.));
#517=DIRECTION('',(-0.392836370800611,0.919608387182394,0.));
#518=DIRECTION('',(-0.919608387182395,-0.392836370800611,0.));
#519=DIRECTION('',(0.919608387182394,0.392836370800611,0.));
#520=DIRECTION('',(0.,0.,-1.));
#521=DIRECTION('',(0.919608387182394,0.392836370800611,0.));
#522=DIRECTION('',(0.,0.,-1.));
#523=DIRECTION('',(-1.,0.,0.));
#524=DIRECTION('',(0.,0.,1.));
#525=DIRECTION('',(1.,0.,0.));
#526=DIRECTION('',(0.,0.,-1.));
#527=DIRECTION('',(0.,0.,1.));
#528=DIRECTION('',(1.,0.,0.));
#529=DIRECTION('',(0.,0.,-1.));
#530=DIRECTION('',(-1.,0.,0.));
#531=DIRECTION('',(0.,0.,1.));
#532=DIRECTION('',(1.,0.,0.));
#533=DIRECTION('',(0.,0.,-1.));
#534=DIRECTION('',(0.,0.,1.));
#535=DIRECTION('',(1.,0.,0.));
#536=DIRECTION('',(0.,0.,-1.));
#537=DIRECTION('',(-1.,0.,0.));
#538=DIRECTION('',(0.,0.,1.));
#539=DIRECTION('',(1.,0.,0.));
#540=DIRECTION('',(0.,0.,-1.));
#541=DIRECTION('',(0.,0.,1.));
#542=DIRECTION('',(1.,0.,0.));
#543=DIRECTION('',(-0.392836368960047,-0.919608387968643,0.));
#544=DIRECTION('',(0.919608387968643,-0.392836368960047,0.));
#545=DIRECTION('',(-0.919608387968643,0.392836368960047,0.));
#546=DIRECTION('',(0.,0.,-1.));
#547=DIRECTION('',(-0.919608387968643,0.392836368960047,0.));
#548=DIRECTION('',(0.,0.,-1.));
#549=DIRECTION('',(-1.,0.,0.));
#550=DIRECTION('',(0.,0.,1.));
#551=DIRECTION('',(1.,0.,0.));
#552=DIRECTION('',(0.,0.,-1.));
#553=DIRECTION('',(0.,0.,1.));
#554=DIRECTION('',(1.,0.,0.));
#555=DIRECTION('',(1.,2.73184799366426E-16,0.));
#556=DIRECTION('',(-2.73184799366426E-16,1.,0.));
#557=DIRECTION('',(2.73184799366426E-16,-1.,0.));
#558=DIRECTION('',(1.,2.73184799366426E-16,0.));
#559=DIRECTION('',(-2.73184799366426E-16,1.,0.));
#560=DIRECTION('',(2.73184799366426E-16,-1.,0.));
#561=DIRECTION('',(1.,5.46369598732852E-16,0.));
#562=DIRECTION('',(-5.46369598732853E-16,1.,0.));
#563=DIRECTION('',(1.,5.46369598732852E-16,0.));
#564=DIRECTION('',(-5.46369598732853E-16,1.,0.));
#565=DIRECTION('',(5.46369598732853E-16,-1.,0.));
#566=DIRECTION('',(0.,0.,-1.));
#567=DIRECTION('',(5.46369598732853E-16,-1.,0.));
#568=DIRECTION('',(0.,0.,-1.));
#569=DIRECTION('',(-1.,0.,0.));
#570=DIRECTION('',(0.,0.,1.));
#571=DIRECTION('',(1.,0.,0.));
#572=DIRECTION('',(0.,0.,-1.));
#573=DIRECTION('',(0.,0.,1.));
#574=DIRECTION('',(1.,0.,0.));
#575=DIRECTION('',(-0.392836368960047,-0.919608387968643,0.));
#576=DIRECTION('',(0.919608387968643,-0.392836368960047,0.));
#577=DIRECTION('',(-0.919608387968643,0.392836368960047,0.));
#578=DIRECTION('',(0.,0.,-1.));
#579=DIRECTION('',(-0.919608387968643,0.392836368960047,0.));
#580=DIRECTION('',(0.,0.,-1.));
#581=DIRECTION('',(-1.,0.,0.));
#582=DIRECTION('',(0.,0.,1.));
#583=DIRECTION('',(1.,0.,0.));
#584=DIRECTION('',(0.,0.,-1.));
#585=DIRECTION('',(0.,0.,1.));
#586=DIRECTION('',(1.,0.,0.));
#587=DIRECTION('',(0.,0.,-1.));
#588=DIRECTION('',(-1.,0.,0.));
#589=DIRECTION('',(0.,0.,1.));
#590=DIRECTION('',(1.,0.,0.));
#591=DIRECTION('',(0.,0.,1.));
#592=DIRECTION('',(1.,0.,0.));
#593=DIRECTION('',(0.,0.,1.));
#594=DIRECTION('',(1.,0.,0.));
#595=DIRECTION('',(-1.,-2.22044604925032E-16,0.));
#596=DIRECTION('',(1.,2.73184799366426E-16,0.));
#597=DIRECTION('',(0.,0.,1.));
#598=DIRECTION('',(1.,0.,0.));
#599=DIRECTION('',(-1.,-2.22044604925032E-16,0.));
#600=DIRECTION('',(1.,2.73184799366426E-16,0.));
#601=DIRECTION('',(-1.,-2.22044604925032E-16,0.));
#602=DIRECTION('',(2.22044604925032E-16,-1.,0.));
#603=DIRECTION('',(-1.,-2.73184799366426E-16,0.));
#604=DIRECTION('',(2.73184799366426E-16,-1.,0.));
#605=CARTESIAN_POINT('',(0.,0.,0.));
#606=CARTESIAN_POINT('',(-0.00383540000234099,0.0824784718290212,0.00635));
#607=CARTESIAN_POINT('',(-0.00383540000234099,0.0824784718290212,0.));
#608=CARTESIAN_POINT('',(-0.00358594890689671,0.0818945205031934,0.));
#609=CARTESIAN_POINT('',(-0.00365276190699076,0.0830866398371652,0.));
#610=CARTESIAN_POINT('',(-0.00358594890689671,0.0818945205031934,0.00635));
#611=CARTESIAN_POINT('',(-0.00358594890689671,0.0818945205031934,0.00635));
#612=CARTESIAN_POINT('',(-0.00383540000234099,0.0824784718290212,0.00635));
#613=CARTESIAN_POINT('',(-0.00365276190699076,0.0830866398371652,0.00635));
#614=CARTESIAN_POINT('',(-0.00365276190699076,0.0830866398371652,0.00635));
#615=CARTESIAN_POINT('',(-0.0133247708148844,0.0777343111058768,0.00635));
#616=CARTESIAN_POINT('',(-0.0133247708148844,0.0777343111058768,0.));
#617=CARTESIAN_POINT('',(-0.0230635927228772,0.073574101708572,0.));
#618=CARTESIAN_POINT('',(-0.0230635927228772,0.073574101708572,0.00635));
#619=CARTESIAN_POINT('',(-0.0230635927228772,0.073574101708572,0.00635));
#620=CARTESIAN_POINT('',(-0.0133247708148844,0.0777343111058768,0.00635));
#621=CARTESIAN_POINT('',(-0.013335,0.0508,0.00635));
#622=CARTESIAN_POINT('',(-0.013335,0.0508,0.));
#623=CARTESIAN_POINT('',(-0.0381,0.0508,0.));
#624=CARTESIAN_POINT('',(-0.0381,0.0508,0.00635));
#625=CARTESIAN_POINT('',(-0.0381,0.0508,0.00635));
#626=CARTESIAN_POINT('',(-0.013335,0.0508,0.00635));
#627=CARTESIAN_POINT('',(-0.0381,0.0254,0.00635));
#628=CARTESIAN_POINT('',(-0.0381,0.0254,0.));
#629=CARTESIAN_POINT('',(-0.0381,0.003175,0.));
#630=CARTESIAN_POINT('',(-0.0381,0.003175,0.003175));
#631=CARTESIAN_POINT('',(-0.0381,0.003175,0.00635));
#632=CARTESIAN_POINT('',(-0.0381,0.0254,0.00635));
#633=CARTESIAN_POINT('',(-0.034925,0.0254,0.00635));
#634=CARTESIAN_POINT('',(-0.034925,0.003175,0.003175));
#635=CARTESIAN_POINT('',(-0.034925,0.003175,0.00635));
#636=CARTESIAN_POINT('',(-0.034925,0.003175,0.));
#637=CARTESIAN_POINT('',(-0.034925,0.0254,0.));
#638=CARTESIAN_POINT('',(-0.034925,0.0508,0.));
#639=CARTESIAN_POINT('',(-0.034925,0.0508,0.00635));
#640=CARTESIAN_POINT('',(-0.034925,0.0508,0.00635));
#641=CARTESIAN_POINT('',(-0.034925,0.0254,0.00635));
#642=CARTESIAN_POINT('',(-0.013335,0.0508,0.00635));
#643=CARTESIAN_POINT('',(-0.013335,0.0508,0.));
#644=CARTESIAN_POINT('',(-0.0218163372455803,0.0706543450792561,0.));
#645=CARTESIAN_POINT('',(-0.0218163372455803,0.0706543450792561,0.00635));
#646=CARTESIAN_POINT('',(-0.0218163372455803,0.0706543450792561,0.00635));
#647=CARTESIAN_POINT('',(-0.013335,0.0508,0.00635));
#648=CARTESIAN_POINT('',(-0.0120775153360538,0.07481455447723,0.00635));
#649=CARTESIAN_POINT('',(-0.0120775153360538,0.07481455447723,0.));
#650=CARTESIAN_POINT('',(-0.00233869342651322,0.0789747638751709,0.));
#651=CARTESIAN_POINT('',(-0.00233869342651322,0.0789747638751709,0.00635));
#652=CARTESIAN_POINT('',(-0.00233869342651322,0.0789747638751709,0.00635));
#653=CARTESIAN_POINT('',(-0.0120775153360538,0.07481455447723,0.00635));
#654=CARTESIAN_POINT('',(-0.00383539999878707,0.0824784718292203,0.00635));
#655=CARTESIAN_POINT('',(-0.00383539999878707,0.0824784718292203,0.));
#656=CARTESIAN_POINT('',(-0.00273957142795375,0.0861274798771864,0.));
#657=CARTESIAN_POINT('',(-0.00273957142795375,0.0861274798771864,0.00635));
#658=CARTESIAN_POINT('',(-0.00273957142795375,0.0861274798771864,0.00635));
#659=CARTESIAN_POINT('',(-0.00383539999878707,0.0824784718292203,0.00635));
#660=CARTESIAN_POINT('',(2.07948024323217E-18,0.09525,0.00635));
#661=CARTESIAN_POINT('',(2.07948024323217E-18,0.09525,0.));
#662=CARTESIAN_POINT('',(0.00273957144464217,0.086127479882198,0.));
#663=CARTESIAN_POINT('',(0.00273957144464217,0.086127479882198,0.00635));
#664=CARTESIAN_POINT('',(0.00273957144464217,0.086127479882198,0.00635));
#665=CARTESIAN_POINT('',(2.07948024323217E-18,0.09525,0.00635));
#666=CARTESIAN_POINT('',(0.00383540003158289,0.0824784718048289,0.00635));
#667=CARTESIAN_POINT('',(0.00383540003158289,0.0824784718048289,0.));
#668=CARTESIAN_POINT('',(0.0023386934534382,0.0789747638176245,0.));
#669=CARTESIAN_POINT('',(0.0023386934534382,0.0789747638176245,0.00635));
#670=CARTESIAN_POINT('',(0.0023386934534382,0.0789747638176245,0.00635));
#671=CARTESIAN_POINT('',(0.00383540003158289,0.0824784718048289,0.00635));
#672=CARTESIAN_POINT('',(0.0120775153296428,0.0748145544569337,0.00635));
#673=CARTESIAN_POINT('',(0.0120775153296428,0.0748145544569337,0.));
#674=CARTESIAN_POINT('',(0.0218163372058474,0.070654345096243,0.));
#675=CARTESIAN_POINT('',(0.0218163372058474,0.070654345096243,0.00635));
#676=CARTESIAN_POINT('',(0.0218163372058474,0.070654345096243,0.00635));
#677=CARTESIAN_POINT('',(0.0120775153296428,0.0748145544569337,0.00635));
#678=CARTESIAN_POINT('',(0.013335,0.0508,0.00635));
#679=CARTESIAN_POINT('',(0.013335,0.0508,0.));
#680=CARTESIAN_POINT('',(0.034925,0.0508,0.));
#681=CARTESIAN_POINT('',(0.034925,0.0508,0.00635));
#682=CARTESIAN_POINT('',(0.034925,0.0508,0.00635));
#683=CARTESIAN_POINT('',(0.013335,0.0508,0.00635));
#684=CARTESIAN_POINT('',(0.034925,0.0254,0.00635));
#685=CARTESIAN_POINT('',(0.034925,0.0254,0.));
#686=CARTESIAN_POINT('',(0.034925,0.003175,0.));
#687=CARTESIAN_POINT('',(0.034925,0.003175,0.003175));
#688=CARTESIAN_POINT('',(0.034925,0.003175,0.00635));
#689=CARTESIAN_POINT('',(0.034925,0.0254,0.00635));
#690=CARTESIAN_POINT('',(0.0381,0.0254,0.00635));
#691=CARTESIAN_POINT('',(0.0381,0.003175,0.003175));
#692=CARTESIAN_POINT('',(0.0381,0.003175,0.00635));
#693=CARTESIAN_POINT('',(0.0381,0.003175,0.));
#694=CARTESIAN_POINT('',(0.0381,0.0254,0.));
#695=CARTESIAN_POINT('',(0.0381,0.0508,0.));
#696=CARTESIAN_POINT('',(0.0381,0.0508,0.00635));
#697=CARTESIAN_POINT('',(0.0381,0.0508,0.00635));
#698=CARTESIAN_POINT('',(0.0381,0.0254,0.00635));
#699=CARTESIAN_POINT('',(0.013335,0.0508,0.00635));
#700=CARTESIAN_POINT('',(0.013335,0.0508,0.));
#701=CARTESIAN_POINT('',(0.0230635926772955,0.0735741017280434,0.));
#702=CARTESIAN_POINT('',(0.0230635926772955,0.0735741017280434,0.00635));
#703=CARTESIAN_POINT('',(0.0230635926772955,0.0735741017280434,0.00635));
#704=CARTESIAN_POINT('',(0.013335,0.0508,0.00635));
#705=CARTESIAN_POINT('',(0.0133247707610254,0.0777343111058493,0.00635));
#706=CARTESIAN_POINT('',(0.0133247707610254,0.0777343111058493,0.));
#707=CARTESIAN_POINT('',(0.00358594884475523,0.0818945204836552,0.));
#708=CARTESIAN_POINT('',(0.00358594884475523,0.0818945204836552,0.00635));
#709=CARTESIAN_POINT('',(0.00358594884475523,0.0818945204836552,0.00635));
#710=CARTESIAN_POINT('',(0.0133247707610254,0.0777343111058493,0.00635));
#711=CARTESIAN_POINT('',(0.00383539993904487,0.0824784718100153,0.00635));
#712=CARTESIAN_POINT('',(0.00383539993904487,0.0824784718100153,0.));
#713=CARTESIAN_POINT('',(0.00365276184670939,0.0830866398190622,0.));
#714=CARTESIAN_POINT('',(0.00365276184670939,0.0830866398190622,0.00635));
#715=CARTESIAN_POINT('',(0.00365276184670939,0.0830866398190622,0.00635));
#716=CARTESIAN_POINT('',(0.00383539993904487,0.0824784718100153,0.00635));
#717=CARTESIAN_POINT('',(4.31471208499192E-18,0.09525,0.00635));
#718=CARTESIAN_POINT('',(4.31471208499192E-18,0.09525,0.));
#719=CARTESIAN_POINT('',(4.31471208499192E-18,0.09525,0.00635));
#720=CARTESIAN_POINT('',(0.,0.053975,0.00635));
#721=CARTESIAN_POINT('',(1.12798659301916E-17,0.003175,0.00635));
#722=CARTESIAN_POINT('',(-0.034925,0.003175,0.00635));
#723=CARTESIAN_POINT('',(0.,0.053975,0.));
#724=CARTESIAN_POINT('',(0.034925,0.003175,0.));
#725=CARTESIAN_POINT('',(1.38777878078145E-17,0.003175,0.));
#726=CARTESIAN_POINT('',(0.0365125,0.003175,0.003175));
#727=CARTESIAN_POINT('',(1.38777878078145E-17,0.003175,0.003175));
#728=MECHANICAL_DESIGN_GEOMETRIC_PRESENTATION_REPRESENTATION('',(#417),
#729);
#729=(
GEOMETRIC_REPRESENTATION_CONTEXT(3)
GLOBAL_UNCERTAINTY_ASSIGNED_CONTEXT((#730))
GLOBAL_UNIT_ASSIGNED_CONTEXT((#733,#732,#731))
REPRESENTATION_CONTEXT('Part 1','TOP_LEVEL_ASSEMBLY_PART')
);
#730=UNCERTAINTY_MEASURE_WITH_UNIT(LENGTH_MEASURE(1.E-8),#733,
'DISTANCE_ACCURACY_VALUE','Maximum Tolerance applied to model');
#731=(
NAMED_UNIT(*)
SI_UNIT($,.STERADIAN.)
SOLID_ANGLE_UNIT()
);
#732=(
NAMED_UNIT(*)
PLANE_ANGLE_UNIT()
SI_UNIT($,.RADIAN.)
);
#733=(
LENGTH_UNIT()
NAMED_UNIT(*)
SI_UNIT($,.METRE.)
);
#734=PRODUCT_DEFINITION_SHAPE('','',#735);
#735=PRODUCT_DEFINITION('','',#737,#736);
#736=PRODUCT_DEFINITION_CONTEXT('',#743,'design');
#737=PRODUCT_DEFINITION_FORMATION_WITH_SPECIFIED_SOURCE('','',#739,
 .NOT_KNOWN.);
#738=PRODUCT_RELATED_PRODUCT_CATEGORY('','',(#739));
#739=PRODUCT('Part 1','Part 1','Part 1',(#741));
#740=PRODUCT_CATEGORY('','');
#741=PRODUCT_CONTEXT('',#743,'mechanical');
#742=APPLICATION_PROTOCOL_DEFINITION('international standard',
'ap242_managed_model_based_3d_engineering',2011,#743);
#743=APPLICATION_CONTEXT('managed model based 3d engineering');
ENDSEC;
END-ISO-10303-21;
