ISO-10303-21;
HEADER;
/* Generated by software containing ST-Developer
 * from STEP Tools, Inc. (www.steptools.com) 
 */
/* OPTION: using custom renumber hook */

FILE_DESCRIPTION(
/* description */ ('STEP AP242',
'CAx-IF Rec.Pracs.---Representation and Presentation of Product Manufa
cturing Information (PMI)---4.0---2014-10-13',
'CAx-IF Rec.Pracs.---3D Tessellated Geometry---0.4---2014-09-14','2;1',
'CAx-IF Rec.Pracs.---User Defined Attributes---1.5---2016-08-15'),
/* implementation_level */ '2;1');

FILE_NAME(
/* name */ '6918f4b7a233dfa421cda77b',
/* time_stamp */ '2025-11-15T21:46:32Z',
/* author */ (''),
/* organization */ (''),
/* preprocessor_version */ 'ST-DEVELOPER v20',
/* originating_system */ 'ONSHAPE BY PTC INC, 1.206',
/* authorisation */ '  ');

FILE_SCHEMA (('AP242_MANAGED_MODEL_BASED_3D_ENGINEERING_MIM_LF { 1 0 10303 442 1 1 4 }'));
ENDSEC;

DATA;
#10=SHAPE_REPRESENTATION_RELATIONSHIP('','',#833,#11);
#11=ADVANCED_BREP_SHAPE_REPRESENTATION('',(#831),#1323);
#12=PLANE('',#839);
#13=PLANE('',#840);
#14=PLANE('',#841);
#15=PLANE('',#842);
#16=PLANE('',#843);
#17=PLANE('',#844);
#18=PLANE('',#845);
#19=PLANE('',#846);
#20=PLANE('',#847);
#21=PLANE('',#848);
#22=PLANE('',#849);
#23=PLANE('',#850);
#24=PLANE('',#851);
#25=PLANE('',#852);
#26=PLANE('',#853);
#27=PLANE('',#854);
#28=PLANE('',#855);
#29=PLANE('',#856);
#30=PLANE('',#857);
#31=PLANE('',#858);
#32=PLANE('',#859);
#33=PLANE('',#861);
#34=PLANE('',#862);
#35=PLANE('',#863);
#36=PLANE('',#864);
#37=PLANE('',#865);
#38=PLANE('',#866);
#39=PLANE('',#867);
#40=PLANE('',#868);
#41=PLANE('',#869);
#42=PLANE('',#870);
#43=PLANE('',#871);
#44=PLANE('',#872);
#45=PLANE('',#873);
#46=PLANE('',#874);
#47=PLANE('',#875);
#48=PLANE('',#876);
#49=PLANE('',#877);
#50=PLANE('',#878);
#51=CONICAL_SURFACE('',#837,0.0025,1.04719755119659);
#52=CONICAL_SURFACE('',#881,0.0025,1.0471975511966);
#53=B_SPLINE_CURVE_WITH_KNOTS('',3,(#1091,#1092,#1093,#1094,#1095),
 .UNSPECIFIED.,.F.,.F.,(4,1,4),(4.40575037025793E-7,5.49109979006126E-5,
0.000109381420764199),.UNSPECIFIED.);
#54=B_SPLINE_CURVE_WITH_KNOTS('',3,(#1101,#1102,#1103,#1104,#1105),
 .UNSPECIFIED.,.F.,.F.,(4,1,4),(4.40575057288207E-7,5.49109979123858E-5,
0.000109381420767483),.UNSPECIFIED.);
#55=LINE('',#1089,#161);
#56=LINE('',#1097,#162);
#57=LINE('',#1107,#163);
#58=LINE('',#1110,#164);
#59=LINE('',#1112,#165);
#60=LINE('',#1114,#166);
#61=LINE('',#1116,#167);
#62=LINE('',#1119,#168);
#63=LINE('',#1121,#169);
#64=LINE('',#1123,#170);
#65=LINE('',#1125,#171);
#66=LINE('',#1128,#172);
#67=LINE('',#1130,#173);
#68=LINE('',#1132,#174);
#69=LINE('',#1134,#175);
#70=LINE('',#1137,#176);
#71=LINE('',#1139,#177);
#72=LINE('',#1141,#178);
#73=LINE('',#1143,#179);
#74=LINE('',#1145,#180);
#75=LINE('',#1147,#181);
#76=LINE('',#1149,#182);
#77=LINE('',#1151,#183);
#78=LINE('',#1153,#184);
#79=LINE('',#1155,#185);
#80=LINE('',#1157,#186);
#81=LINE('',#1159,#187);
#82=LINE('',#1161,#188);
#83=LINE('',#1163,#189);
#84=LINE('',#1165,#190);
#85=LINE('',#1167,#191);
#86=LINE('',#1169,#192);
#87=LINE('',#1171,#193);
#88=LINE('',#1173,#194);
#89=LINE('',#1174,#195);
#90=LINE('',#1176,#196);
#91=LINE('',#1178,#197);
#92=LINE('',#1180,#198);
#93=LINE('',#1182,#199);
#94=LINE('',#1184,#200);
#95=LINE('',#1185,#201);
#96=LINE('',#1187,#202);
#97=LINE('',#1189,#203);
#98=LINE('',#1191,#204);
#99=LINE('',#1192,#205);
#100=LINE('',#1195,#206);
#101=LINE('',#1197,#207);
#102=LINE('',#1199,#208);
#103=LINE('',#1201,#209);
#104=LINE('',#1203,#210);
#105=LINE('',#1205,#211);
#106=LINE('',#1207,#212);
#107=LINE('',#1209,#213);
#108=LINE('',#1211,#214);
#109=LINE('',#1213,#215);
#110=LINE('',#1215,#216);
#111=LINE('',#1217,#217);
#112=LINE('',#1219,#218);
#113=LINE('',#1221,#219);
#114=LINE('',#1223,#220);
#115=LINE('',#1224,#221);
#116=LINE('',#1226,#222);
#117=LINE('',#1229,#223);
#118=LINE('',#1231,#224);
#119=LINE('',#1233,#225);
#120=LINE('',#1235,#226);
#121=LINE('',#1236,#227);
#122=LINE('',#1238,#228);
#123=LINE('',#1240,#229);
#124=LINE('',#1242,#230);
#125=LINE('',#1243,#231);
#126=LINE('',#1245,#232);
#127=LINE('',#1247,#233);
#128=LINE('',#1248,#234);
#129=LINE('',#1250,#235);
#130=LINE('',#1252,#236);
#131=LINE('',#1253,#237);
#132=LINE('',#1255,#238);
#133=LINE('',#1257,#239);
#134=LINE('',#1259,#240);
#135=LINE('',#1261,#241);
#136=LINE('',#1263,#242);
#137=LINE('',#1265,#243);
#138=LINE('',#1267,#244);
#139=LINE('',#1269,#245);
#140=LINE('',#1271,#246);
#141=LINE('',#1275,#247);
#142=LINE('',#1277,#248);
#143=LINE('',#1280,#249);
#144=LINE('',#1282,#250);
#145=LINE('',#1284,#251);
#146=LINE('',#1286,#252);
#147=LINE('',#1288,#253);
#148=LINE('',#1290,#254);
#149=LINE('',#1292,#255);
#150=LINE('',#1293,#256);
#151=LINE('',#1295,#257);
#152=LINE('',#1297,#258);
#153=LINE('',#1300,#259);
#154=LINE('',#1301,#260);
#155=LINE('',#1303,#261);
#156=LINE('',#1304,#262);
#157=LINE('',#1306,#263);
#158=LINE('',#1307,#264);
#159=LINE('',#1309,#265);
#160=LINE('',#1310,#266);
#161=VECTOR('',#888,1.);
#162=VECTOR('',#889,1.);
#163=VECTOR('',#896,1.);
#164=VECTOR('',#897,1.);
#165=VECTOR('',#898,1.);
#166=VECTOR('',#899,1.);
#167=VECTOR('',#902,1.);
#168=VECTOR('',#903,1.);
#169=VECTOR('',#904,1.);
#170=VECTOR('',#905,1.);
#171=VECTOR('',#908,1.);
#172=VECTOR('',#909,1.);
#173=VECTOR('',#910,1.);
#174=VECTOR('',#911,1.);
#175=VECTOR('',#914,1.);
#176=VECTOR('',#915,1.);
#177=VECTOR('',#916,1.);
#178=VECTOR('',#917,1.);
#179=VECTOR('',#920,1.);
#180=VECTOR('',#921,1.);
#181=VECTOR('',#922,1.);
#182=VECTOR('',#923,1.);
#183=VECTOR('',#924,1.);
#184=VECTOR('',#925,1.);
#185=VECTOR('',#926,1.);
#186=VECTOR('',#927,1.);
#187=VECTOR('',#928,1.);
#188=VECTOR('',#931,1.);
#189=VECTOR('',#932,1.);
#190=VECTOR('',#933,1.);
#191=VECTOR('',#934,1.);
#192=VECTOR('',#935,1.);
#193=VECTOR('',#936,1.);
#194=VECTOR('',#937,1.);
#195=VECTOR('',#938,1.);
#196=VECTOR('',#941,1.);
#197=VECTOR('',#942,1.);
#198=VECTOR('',#943,1.);
#199=VECTOR('',#944,1.);
#200=VECTOR('',#945,1.);
#201=VECTOR('',#946,1.);
#202=VECTOR('',#947,1.);
#203=VECTOR('',#948,1.);
#204=VECTOR('',#951,1.);
#205=VECTOR('',#952,1.);
#206=VECTOR('',#953,1.);
#207=VECTOR('',#954,1.);
#208=VECTOR('',#955,1.);
#209=VECTOR('',#958,1.);
#210=VECTOR('',#959,1.);
#211=VECTOR('',#960,1.);
#212=VECTOR('',#963,1.);
#213=VECTOR('',#966,1.);
#214=VECTOR('',#967,1.);
#215=VECTOR('',#968,1.);
#216=VECTOR('',#971,1.);
#217=VECTOR('',#974,1.);
#218=VECTOR('',#975,1.);
#219=VECTOR('',#976,1.);
#220=VECTOR('',#979,1.);
#221=VECTOR('',#980,1.);
#222=VECTOR('',#983,1.);
#223=VECTOR('',#984,1.);
#224=VECTOR('',#985,1.);
#225=VECTOR('',#986,1.);
#226=VECTOR('',#989,1.);
#227=VECTOR('',#990,1.);
#228=VECTOR('',#993,1.);
#229=VECTOR('',#994,1.);
#230=VECTOR('',#995,1.);
#231=VECTOR('',#996,1.);
#232=VECTOR('',#997,1.);
#233=VECTOR('',#998,1.);
#234=VECTOR('',#999,1.);
#235=VECTOR('',#1000,1.);
#236=VECTOR('',#1001,1.);
#237=VECTOR('',#1002,1.);
#238=VECTOR('',#1003,1.);
#239=VECTOR('',#1004,1.);
#240=VECTOR('',#1007,1.);
#241=VECTOR('',#1008,1.);
#242=VECTOR('',#1009,1.);
#243=VECTOR('',#1012,1.);
#244=VECTOR('',#1013,1.);
#245=VECTOR('',#1016,1.);
#246=VECTOR('',#1017,1.);
#247=VECTOR('',#1022,1.);
#248=VECTOR('',#1025,1.);
#249=VECTOR('',#1026,1.);
#250=VECTOR('',#1027,1.);
#251=VECTOR('',#1028,1.);
#252=VECTOR('',#1031,1.);
#253=VECTOR('',#1032,1.);
#254=VECTOR('',#1033,1.);
#255=VECTOR('',#1036,1.);
#256=VECTOR('',#1037,1.);
#257=VECTOR('',#1040,1.);
#258=VECTOR('',#1043,1.);
#259=VECTOR('',#1048,1.);
#260=VECTOR('',#1049,1.);
#261=VECTOR('',#1052,1.);
#262=VECTOR('',#1053,1.);
#263=VECTOR('',#1056,1.);
#264=VECTOR('',#1057,1.);
#265=VECTOR('',#1060,1.);
#266=VECTOR('',#1061,1.);
#267=ORIENTED_EDGE('',*,*,#491,.F.);
#268=ORIENTED_EDGE('',*,*,#492,.T.);
#269=ORIENTED_EDGE('',*,*,#493,.T.);
#270=ORIENTED_EDGE('',*,*,#494,.T.);
#271=ORIENTED_EDGE('',*,*,#495,.F.);
#272=ORIENTED_EDGE('',*,*,#491,.T.);
#273=ORIENTED_EDGE('',*,*,#496,.T.);
#274=ORIENTED_EDGE('',*,*,#497,.T.);
#275=ORIENTED_EDGE('',*,*,#498,.T.);
#276=ORIENTED_EDGE('',*,*,#499,.T.);
#277=ORIENTED_EDGE('',*,*,#500,.T.);
#278=ORIENTED_EDGE('',*,*,#501,.T.);
#279=ORIENTED_EDGE('',*,*,#502,.T.);
#280=ORIENTED_EDGE('',*,*,#503,.T.);
#281=ORIENTED_EDGE('',*,*,#504,.T.);
#282=ORIENTED_EDGE('',*,*,#505,.T.);
#283=ORIENTED_EDGE('',*,*,#506,.T.);
#284=ORIENTED_EDGE('',*,*,#507,.T.);
#285=ORIENTED_EDGE('',*,*,#508,.T.);
#286=ORIENTED_EDGE('',*,*,#509,.T.);
#287=ORIENTED_EDGE('',*,*,#510,.T.);
#288=ORIENTED_EDGE('',*,*,#511,.T.);
#289=ORIENTED_EDGE('',*,*,#512,.T.);
#290=ORIENTED_EDGE('',*,*,#503,.F.);
#291=ORIENTED_EDGE('',*,*,#513,.T.);
#292=ORIENTED_EDGE('',*,*,#514,.T.);
#293=ORIENTED_EDGE('',*,*,#515,.T.);
#294=ORIENTED_EDGE('',*,*,#516,.F.);
#295=ORIENTED_EDGE('',*,*,#517,.F.);
#296=ORIENTED_EDGE('',*,*,#518,.F.);
#297=ORIENTED_EDGE('',*,*,#519,.F.);
#298=ORIENTED_EDGE('',*,*,#520,.F.);
#299=ORIENTED_EDGE('',*,*,#521,.F.);
#300=ORIENTED_EDGE('',*,*,#507,.F.);
#301=ORIENTED_EDGE('',*,*,#522,.T.);
#302=ORIENTED_EDGE('',*,*,#523,.T.);
#303=ORIENTED_EDGE('',*,*,#524,.T.);
#304=ORIENTED_EDGE('',*,*,#525,.F.);
#305=ORIENTED_EDGE('',*,*,#526,.F.);
#306=ORIENTED_EDGE('',*,*,#527,.F.);
#307=ORIENTED_EDGE('',*,*,#528,.F.);
#308=ORIENTED_EDGE('',*,*,#518,.T.);
#309=ORIENTED_EDGE('',*,*,#529,.F.);
#310=ORIENTED_EDGE('',*,*,#499,.F.);
#311=ORIENTED_EDGE('',*,*,#530,.T.);
#312=ORIENTED_EDGE('',*,*,#531,.T.);
#313=ORIENTED_EDGE('',*,*,#532,.T.);
#314=ORIENTED_EDGE('',*,*,#533,.F.);
#315=ORIENTED_EDGE('',*,*,#534,.F.);
#316=ORIENTED_EDGE('',*,*,#520,.T.);
#317=ORIENTED_EDGE('',*,*,#535,.F.);
#318=ORIENTED_EDGE('',*,*,#536,.F.);
#319=ORIENTED_EDGE('',*,*,#537,.F.);
#320=ORIENTED_EDGE('',*,*,#528,.T.);
#321=ORIENTED_EDGE('',*,*,#538,.T.);
#322=ORIENTED_EDGE('',*,*,#535,.T.);
#323=ORIENTED_EDGE('',*,*,#519,.T.);
#324=ORIENTED_EDGE('',*,*,#539,.F.);
#325=ORIENTED_EDGE('',*,*,#540,.T.);
#326=ORIENTED_EDGE('',*,*,#541,.T.);
#327=ORIENTED_EDGE('',*,*,#542,.F.);
#328=ORIENTED_EDGE('',*,*,#533,.T.);
#329=ORIENTED_EDGE('',*,*,#543,.T.);
#330=ORIENTED_EDGE('',*,*,#544,.T.);
#331=ORIENTED_EDGE('',*,*,#545,.F.);
#332=ORIENTED_EDGE('',*,*,#504,.F.);
#333=ORIENTED_EDGE('',*,*,#521,.T.);
#334=ORIENTED_EDGE('',*,*,#534,.T.);
#335=ORIENTED_EDGE('',*,*,#545,.T.);
#336=ORIENTED_EDGE('',*,*,#546,.T.);
#337=ORIENTED_EDGE('',*,*,#516,.T.);
#338=ORIENTED_EDGE('',*,*,#547,.T.);
#339=ORIENTED_EDGE('',*,*,#548,.T.);
#340=ORIENTED_EDGE('',*,*,#549,.F.);
#341=ORIENTED_EDGE('',*,*,#508,.F.);
#342=ORIENTED_EDGE('',*,*,#529,.T.);
#343=ORIENTED_EDGE('',*,*,#517,.T.);
#344=ORIENTED_EDGE('',*,*,#549,.T.);
#345=ORIENTED_EDGE('',*,*,#550,.T.);
#346=ORIENTED_EDGE('',*,*,#525,.T.);
#347=ORIENTED_EDGE('',*,*,#551,.T.);
#348=ORIENTED_EDGE('',*,*,#552,.T.);
#349=ORIENTED_EDGE('',*,*,#553,.F.);
#350=ORIENTED_EDGE('',*,*,#512,.F.);
#351=ORIENTED_EDGE('',*,*,#554,.T.);
#352=ORIENTED_EDGE('',*,*,#526,.T.);
#353=ORIENTED_EDGE('',*,*,#553,.T.);
#354=ORIENTED_EDGE('',*,*,#555,.T.);
#355=ORIENTED_EDGE('',*,*,#556,.T.);
#356=ORIENTED_EDGE('',*,*,#557,.T.);
#357=ORIENTED_EDGE('',*,*,#558,.T.);
#358=ORIENTED_EDGE('',*,*,#559,.F.);
#359=ORIENTED_EDGE('',*,*,#537,.T.);
#360=ORIENTED_EDGE('',*,*,#560,.T.);
#361=ORIENTED_EDGE('',*,*,#559,.T.);
#362=ORIENTED_EDGE('',*,*,#561,.T.);
#363=ORIENTED_EDGE('',*,*,#500,.F.);
#364=ORIENTED_EDGE('',*,*,#544,.F.);
#365=ORIENTED_EDGE('',*,*,#562,.T.);
#366=ORIENTED_EDGE('',*,*,#563,.T.);
#367=ORIENTED_EDGE('',*,*,#564,.T.);
#368=ORIENTED_EDGE('',*,*,#497,.F.);
#369=ORIENTED_EDGE('',*,*,#561,.F.);
#370=ORIENTED_EDGE('',*,*,#558,.F.);
#371=ORIENTED_EDGE('',*,*,#565,.T.);
#372=ORIENTED_EDGE('',*,*,#566,.T.);
#373=ORIENTED_EDGE('',*,*,#567,.T.);
#374=ORIENTED_EDGE('',*,*,#509,.F.);
#375=ORIENTED_EDGE('',*,*,#555,.F.);
#376=ORIENTED_EDGE('',*,*,#552,.F.);
#377=ORIENTED_EDGE('',*,*,#568,.T.);
#378=ORIENTED_EDGE('',*,*,#569,.T.);
#379=ORIENTED_EDGE('',*,*,#570,.T.);
#380=ORIENTED_EDGE('',*,*,#505,.F.);
#381=ORIENTED_EDGE('',*,*,#550,.F.);
#382=ORIENTED_EDGE('',*,*,#548,.F.);
#383=ORIENTED_EDGE('',*,*,#571,.T.);
#384=ORIENTED_EDGE('',*,*,#572,.T.);
#385=ORIENTED_EDGE('',*,*,#573,.T.);
#386=ORIENTED_EDGE('',*,*,#501,.F.);
#387=ORIENTED_EDGE('',*,*,#546,.F.);
#388=ORIENTED_EDGE('',*,*,#574,.F.);
#389=ORIENTED_EDGE('',*,*,#575,.T.);
#390=ORIENTED_EDGE('',*,*,#576,.T.);
#391=ORIENTED_EDGE('',*,*,#540,.F.);
#392=ORIENTED_EDGE('',*,*,#495,.T.);
#393=ORIENTED_EDGE('',*,*,#577,.F.);
#394=ORIENTED_EDGE('',*,*,#578,.T.);
#395=ORIENTED_EDGE('',*,*,#574,.T.);
#396=ORIENTED_EDGE('',*,*,#539,.T.);
#397=ORIENTED_EDGE('',*,*,#579,.F.);
#398=ORIENTED_EDGE('',*,*,#580,.T.);
#399=ORIENTED_EDGE('',*,*,#577,.T.);
#400=ORIENTED_EDGE('',*,*,#542,.T.);
#401=ORIENTED_EDGE('',*,*,#581,.T.);
#402=ORIENTED_EDGE('',*,*,#576,.F.);
#403=ORIENTED_EDGE('',*,*,#582,.T.);
#404=ORIENTED_EDGE('',*,*,#579,.T.);
#405=ORIENTED_EDGE('',*,*,#541,.F.);
#406=ORIENTED_EDGE('',*,*,#583,.T.);
#407=ORIENTED_EDGE('',*,*,#584,.T.);
#408=ORIENTED_EDGE('',*,*,#585,.T.);
#409=ORIENTED_EDGE('',*,*,#586,.T.);
#410=ORIENTED_EDGE('',*,*,#511,.F.);
#411=ORIENTED_EDGE('',*,*,#587,.T.);
#412=ORIENTED_EDGE('',*,*,#588,.F.);
#413=ORIENTED_EDGE('',*,*,#589,.T.);
#414=ORIENTED_EDGE('',*,*,#556,.F.);
#415=ORIENTED_EDGE('',*,*,#560,.F.);
#416=ORIENTED_EDGE('',*,*,#536,.T.);
#417=ORIENTED_EDGE('',*,*,#538,.F.);
#418=ORIENTED_EDGE('',*,*,#527,.T.);
#419=ORIENTED_EDGE('',*,*,#554,.F.);
#420=ORIENTED_EDGE('',*,*,#590,.F.);
#421=ORIENTED_EDGE('',*,*,#586,.F.);
#422=ORIENTED_EDGE('',*,*,#591,.F.);
#423=ORIENTED_EDGE('',*,*,#578,.F.);
#424=ORIENTED_EDGE('',*,*,#591,.T.);
#425=ORIENTED_EDGE('',*,*,#585,.F.);
#426=ORIENTED_EDGE('',*,*,#592,.F.);
#427=ORIENTED_EDGE('',*,*,#575,.F.);
#428=ORIENTED_EDGE('',*,*,#590,.T.);
#429=ORIENTED_EDGE('',*,*,#580,.F.);
#430=ORIENTED_EDGE('',*,*,#593,.F.);
#431=ORIENTED_EDGE('',*,*,#583,.F.);
#432=ORIENTED_EDGE('',*,*,#592,.T.);
#433=ORIENTED_EDGE('',*,*,#584,.F.);
#434=ORIENTED_EDGE('',*,*,#593,.T.);
#435=ORIENTED_EDGE('',*,*,#582,.F.);
#436=ORIENTED_EDGE('',*,*,#531,.F.);
#437=ORIENTED_EDGE('',*,*,#594,.T.);
#438=ORIENTED_EDGE('',*,*,#563,.F.);
#439=ORIENTED_EDGE('',*,*,#595,.T.);
#440=ORIENTED_EDGE('',*,*,#523,.F.);
#441=ORIENTED_EDGE('',*,*,#596,.T.);
#442=ORIENTED_EDGE('',*,*,#569,.F.);
#443=ORIENTED_EDGE('',*,*,#597,.T.);
#444=ORIENTED_EDGE('',*,*,#514,.F.);
#445=ORIENTED_EDGE('',*,*,#598,.T.);
#446=ORIENTED_EDGE('',*,*,#572,.F.);
#447=ORIENTED_EDGE('',*,*,#599,.T.);
#448=ORIENTED_EDGE('',*,*,#588,.T.);
#449=ORIENTED_EDGE('',*,*,#600,.T.);
#450=ORIENTED_EDGE('',*,*,#566,.F.);
#451=ORIENTED_EDGE('',*,*,#601,.T.);
#452=ORIENTED_EDGE('',*,*,#522,.F.);
#453=ORIENTED_EDGE('',*,*,#506,.F.);
#454=ORIENTED_EDGE('',*,*,#570,.F.);
#455=ORIENTED_EDGE('',*,*,#596,.F.);
#456=ORIENTED_EDGE('',*,*,#524,.F.);
#457=ORIENTED_EDGE('',*,*,#597,.F.);
#458=ORIENTED_EDGE('',*,*,#568,.F.);
#459=ORIENTED_EDGE('',*,*,#551,.F.);
#460=ORIENTED_EDGE('',*,*,#587,.F.);
#461=ORIENTED_EDGE('',*,*,#510,.F.);
#462=ORIENTED_EDGE('',*,*,#567,.F.);
#463=ORIENTED_EDGE('',*,*,#600,.F.);
#464=ORIENTED_EDGE('',*,*,#589,.F.);
#465=ORIENTED_EDGE('',*,*,#601,.F.);
#466=ORIENTED_EDGE('',*,*,#565,.F.);
#467=ORIENTED_EDGE('',*,*,#557,.F.);
#468=ORIENTED_EDGE('',*,*,#530,.F.);
#469=ORIENTED_EDGE('',*,*,#498,.F.);
#470=ORIENTED_EDGE('',*,*,#564,.F.);
#471=ORIENTED_EDGE('',*,*,#594,.F.);
#472=ORIENTED_EDGE('',*,*,#532,.F.);
#473=ORIENTED_EDGE('',*,*,#595,.F.);
#474=ORIENTED_EDGE('',*,*,#562,.F.);
#475=ORIENTED_EDGE('',*,*,#543,.F.);
#476=ORIENTED_EDGE('',*,*,#513,.F.);
#477=ORIENTED_EDGE('',*,*,#502,.F.);
#478=ORIENTED_EDGE('',*,*,#573,.F.);
#479=ORIENTED_EDGE('',*,*,#598,.F.);
#480=ORIENTED_EDGE('',*,*,#515,.F.);
#481=ORIENTED_EDGE('',*,*,#599,.F.);
#482=ORIENTED_EDGE('',*,*,#571,.F.);
#483=ORIENTED_EDGE('',*,*,#547,.F.);
#484=ORIENTED_EDGE('',*,*,#496,.F.);
#485=ORIENTED_EDGE('',*,*,#494,.F.);
#486=ORIENTED_EDGE('',*,*,#602,.F.);
#487=ORIENTED_EDGE('',*,*,#492,.F.);
#488=ORIENTED_EDGE('',*,*,#602,.T.);
#489=ORIENTED_EDGE('',*,*,#493,.F.);
#490=ORIENTED_EDGE('',*,*,#581,.F.);
#491=EDGE_CURVE('',#603,#604,#677,.T.);
#492=EDGE_CURVE('',#603,#605,#55,.F.);
#493=EDGE_CURVE('',#605,#606,#53,.T.);
#494=EDGE_CURVE('',#606,#604,#56,.T.);
#495=EDGE_CURVE('',#607,#607,#678,.T.);
#496=EDGE_CURVE('',#604,#603,#54,.T.);
#497=EDGE_CURVE('',#608,#609,#57,.T.);
#498=EDGE_CURVE('',#609,#610,#58,.F.);
#499=EDGE_CURVE('',#610,#611,#59,.T.);
#500=EDGE_CURVE('',#611,#608,#60,.T.);
#501=EDGE_CURVE('',#612,#613,#61,.T.);
#502=EDGE_CURVE('',#613,#614,#62,.F.);
#503=EDGE_CURVE('',#614,#615,#63,.T.);
#504=EDGE_CURVE('',#615,#612,#64,.T.);
#505=EDGE_CURVE('',#616,#617,#65,.T.);
#506=EDGE_CURVE('',#617,#618,#66,.F.);
#507=EDGE_CURVE('',#618,#619,#67,.T.);
#508=EDGE_CURVE('',#619,#616,#68,.T.);
#509=EDGE_CURVE('',#620,#621,#69,.T.);
#510=EDGE_CURVE('',#621,#622,#70,.F.);
#511=EDGE_CURVE('',#622,#623,#71,.T.);
#512=EDGE_CURVE('',#623,#620,#72,.T.);
#513=EDGE_CURVE('',#614,#624,#73,.F.);
#514=EDGE_CURVE('',#624,#625,#74,.T.);
#515=EDGE_CURVE('',#625,#626,#75,.F.);
#516=EDGE_CURVE('',#627,#626,#76,.T.);
#517=EDGE_CURVE('',#628,#627,#77,.T.);
#518=EDGE_CURVE('',#629,#628,#78,.T.);
#519=EDGE_CURVE('',#630,#629,#79,.T.);
#520=EDGE_CURVE('',#631,#630,#80,.F.);
#521=EDGE_CURVE('',#615,#631,#81,.T.);
#522=EDGE_CURVE('',#618,#632,#82,.F.);
#523=EDGE_CURVE('',#632,#633,#83,.T.);
#524=EDGE_CURVE('',#633,#634,#84,.F.);
#525=EDGE_CURVE('',#635,#634,#85,.T.);
#526=EDGE_CURVE('',#636,#635,#86,.T.);
#527=EDGE_CURVE('',#637,#636,#87,.T.);
#528=EDGE_CURVE('',#629,#637,#88,.T.);
#529=EDGE_CURVE('',#619,#628,#89,.T.);
#530=EDGE_CURVE('',#610,#638,#90,.F.);
#531=EDGE_CURVE('',#638,#639,#91,.T.);
#532=EDGE_CURVE('',#639,#640,#92,.F.);
#533=EDGE_CURVE('',#641,#640,#93,.T.);
#534=EDGE_CURVE('',#631,#641,#94,.T.);
#535=EDGE_CURVE('',#642,#630,#95,.T.);
#536=EDGE_CURVE('',#643,#642,#96,.F.);
#537=EDGE_CURVE('',#611,#643,#97,.T.);
#538=EDGE_CURVE('',#637,#642,#98,.T.);
#539=EDGE_CURVE('',#644,#645,#99,.T.);
#540=EDGE_CURVE('',#644,#646,#100,.T.);
#541=EDGE_CURVE('',#646,#647,#101,.T.);
#542=EDGE_CURVE('',#645,#647,#102,.T.);
#543=EDGE_CURVE('',#640,#648,#103,.F.);
#544=EDGE_CURVE('',#648,#649,#104,.T.);
#545=EDGE_CURVE('',#641,#649,#105,.T.);
#546=EDGE_CURVE('',#649,#612,#106,.T.);
#547=EDGE_CURVE('',#626,#650,#107,.F.);
#548=EDGE_CURVE('',#650,#651,#108,.T.);
#549=EDGE_CURVE('',#627,#651,#109,.T.);
#550=EDGE_CURVE('',#651,#616,#110,.T.);
#551=EDGE_CURVE('',#634,#652,#111,.F.);
#552=EDGE_CURVE('',#652,#653,#112,.T.);
#553=EDGE_CURVE('',#635,#653,#113,.T.);
#554=EDGE_CURVE('',#623,#636,#114,.T.);
#555=EDGE_CURVE('',#653,#620,#115,.T.);
#556=EDGE_CURVE('',#654,#655,#116,.T.);
#557=EDGE_CURVE('',#655,#656,#117,.F.);
#558=EDGE_CURVE('',#656,#657,#118,.T.);
#559=EDGE_CURVE('',#654,#657,#119,.T.);
#560=EDGE_CURVE('',#643,#654,#120,.T.);
#561=EDGE_CURVE('',#657,#608,#121,.T.);
#562=EDGE_CURVE('',#648,#658,#122,.F.);
#563=EDGE_CURVE('',#658,#659,#123,.T.);
#564=EDGE_CURVE('',#659,#609,#124,.F.);
#565=EDGE_CURVE('',#656,#660,#125,.F.);
#566=EDGE_CURVE('',#660,#661,#126,.T.);
#567=EDGE_CURVE('',#661,#621,#127,.F.);
#568=EDGE_CURVE('',#652,#662,#128,.F.);
#569=EDGE_CURVE('',#662,#663,#129,.T.);
#570=EDGE_CURVE('',#663,#617,#130,.F.);
#571=EDGE_CURVE('',#650,#664,#131,.F.);
#572=EDGE_CURVE('',#664,#665,#132,.T.);
#573=EDGE_CURVE('',#665,#613,#133,.F.);
#574=EDGE_CURVE('',#666,#644,#134,.T.);
#575=EDGE_CURVE('',#666,#667,#135,.T.);
#576=EDGE_CURVE('',#667,#646,#136,.T.);
#577=EDGE_CURVE('',#668,#645,#137,.T.);
#578=EDGE_CURVE('',#668,#666,#138,.T.);
#579=EDGE_CURVE('',#669,#647,#139,.T.);
#580=EDGE_CURVE('',#669,#668,#140,.T.);
#581=EDGE_CURVE('',#670,#670,#679,.T.);
#582=EDGE_CURVE('',#667,#669,#141,.T.);
#583=EDGE_CURVE('',#671,#672,#142,.T.);
#584=EDGE_CURVE('',#672,#673,#143,.T.);
#585=EDGE_CURVE('',#673,#674,#144,.T.);
#586=EDGE_CURVE('',#674,#671,#145,.T.);
#587=EDGE_CURVE('',#622,#675,#146,.F.);
#588=EDGE_CURVE('',#676,#675,#147,.T.);
#589=EDGE_CURVE('',#676,#655,#148,.F.);
#590=EDGE_CURVE('',#671,#668,#149,.T.);
#591=EDGE_CURVE('',#666,#674,#150,.T.);
#592=EDGE_CURVE('',#667,#673,#151,.F.);
#593=EDGE_CURVE('',#672,#669,#152,.T.);
#594=EDGE_CURVE('',#638,#659,#153,.T.);
#595=EDGE_CURVE('',#658,#639,#154,.T.);
#596=EDGE_CURVE('',#632,#663,#155,.T.);
#597=EDGE_CURVE('',#662,#633,#156,.T.);
#598=EDGE_CURVE('',#624,#665,#157,.T.);
#599=EDGE_CURVE('',#664,#625,#158,.T.);
#600=EDGE_CURVE('',#675,#661,#159,.T.);
#601=EDGE_CURVE('',#660,#676,#160,.T.);
#602=EDGE_CURVE('',#605,#606,#680,.T.);
#603=VERTEX_POINT('',#1087);
#604=VERTEX_POINT('',#1088);
#605=VERTEX_POINT('',#1090);
#606=VERTEX_POINT('',#1096);
#607=VERTEX_POINT('',#1100);
#608=VERTEX_POINT('',#1108);
#609=VERTEX_POINT('',#1109);
#610=VERTEX_POINT('',#1111);
#611=VERTEX_POINT('',#1113);
#612=VERTEX_POINT('',#1117);
#613=VERTEX_POINT('',#1118);
#614=VERTEX_POINT('',#1120);
#615=VERTEX_POINT('',#1122);
#616=VERTEX_POINT('',#1126);
#617=VERTEX_POINT('',#1127);
#618=VERTEX_POINT('',#1129);
#619=VERTEX_POINT('',#1131);
#620=VERTEX_POINT('',#1135);
#621=VERTEX_POINT('',#1136);
#622=VERTEX_POINT('',#1138);
#623=VERTEX_POINT('',#1140);
#624=VERTEX_POINT('',#1144);
#625=VERTEX_POINT('',#1146);
#626=VERTEX_POINT('',#1148);
#627=VERTEX_POINT('',#1150);
#628=VERTEX_POINT('',#1152);
#629=VERTEX_POINT('',#1154);
#630=VERTEX_POINT('',#1156);
#631=VERTEX_POINT('',#1158);
#632=VERTEX_POINT('',#1162);
#633=VERTEX_POINT('',#1164);
#634=VERTEX_POINT('',#1166);
#635=VERTEX_POINT('',#1168);
#636=VERTEX_POINT('',#1170);
#637=VERTEX_POINT('',#1172);
#638=VERTEX_POINT('',#1177);
#639=VERTEX_POINT('',#1179);
#640=VERTEX_POINT('',#1181);
#641=VERTEX_POINT('',#1183);
#642=VERTEX_POINT('',#1186);
#643=VERTEX_POINT('',#1188);
#644=VERTEX_POINT('',#1193);
#645=VERTEX_POINT('',#1194);
#646=VERTEX_POINT('',#1196);
#647=VERTEX_POINT('',#1198);
#648=VERTEX_POINT('',#1202);
#649=VERTEX_POINT('',#1204);
#650=VERTEX_POINT('',#1210);
#651=VERTEX_POINT('',#1212);
#652=VERTEX_POINT('',#1218);
#653=VERTEX_POINT('',#1220);
#654=VERTEX_POINT('',#1227);
#655=VERTEX_POINT('',#1228);
#656=VERTEX_POINT('',#1230);
#657=VERTEX_POINT('',#1232);
#658=VERTEX_POINT('',#1239);
#659=VERTEX_POINT('',#1241);
#660=VERTEX_POINT('',#1244);
#661=VERTEX_POINT('',#1246);
#662=VERTEX_POINT('',#1249);
#663=VERTEX_POINT('',#1251);
#664=VERTEX_POINT('',#1254);
#665=VERTEX_POINT('',#1256);
#666=VERTEX_POINT('',#1260);
#667=VERTEX_POINT('',#1262);
#668=VERTEX_POINT('',#1266);
#669=VERTEX_POINT('',#1270);
#670=VERTEX_POINT('',#1274);
#671=VERTEX_POINT('',#1278);
#672=VERTEX_POINT('',#1279);
#673=VERTEX_POINT('',#1281);
#674=VERTEX_POINT('',#1283);
#675=VERTEX_POINT('',#1287);
#676=VERTEX_POINT('',#1289);
#677=CIRCLE('',#836,2.5E-5);
#678=CIRCLE('',#838,0.0025);
#679=CIRCLE('',#860,0.0025);
#680=CIRCLE('',#880,2.5E-5);
#681=EDGE_LOOP('',(#267,#268,#269,#270));
#682=EDGE_LOOP('',(#271));
#683=EDGE_LOOP('',(#272,#273));
#684=EDGE_LOOP('',(#274,#275,#276,#277));
#685=EDGE_LOOP('',(#278,#279,#280,#281));
#686=EDGE_LOOP('',(#282,#283,#284,#285));
#687=EDGE_LOOP('',(#286,#287,#288,#289));
#688=EDGE_LOOP('',(#290,#291,#292,#293,#294,#295,#296,#297,#298,#299));
#689=EDGE_LOOP('',(#300,#301,#302,#303,#304,#305,#306,#307,#308,#309));
#690=EDGE_LOOP('',(#310,#311,#312,#313,#314,#315,#316,#317,#318,#319));
#691=EDGE_LOOP('',(#320,#321,#322,#323));
#692=EDGE_LOOP('',(#324,#325,#326,#327));
#693=EDGE_LOOP('',(#328,#329,#330,#331));
#694=EDGE_LOOP('',(#332,#333,#334,#335,#336));
#695=EDGE_LOOP('',(#337,#338,#339,#340));
#696=EDGE_LOOP('',(#341,#342,#343,#344,#345));
#697=EDGE_LOOP('',(#346,#347,#348,#349));
#698=EDGE_LOOP('',(#350,#351,#352,#353,#354));
#699=EDGE_LOOP('',(#355,#356,#357,#358));
#700=EDGE_LOOP('',(#359,#360,#361,#362,#363));
#701=EDGE_LOOP('',(#364,#365,#366,#367,#368,#369,#370,#371,#372,#373,#374,
#375,#376,#377,#378,#379,#380,#381,#382,#383,#384,#385,#386,#387));
#702=EDGE_LOOP('',(#388,#389,#390,#391));
#703=EDGE_LOOP('',(#392));
#704=EDGE_LOOP('',(#393,#394,#395,#396));
#705=EDGE_LOOP('',(#397,#398,#399,#400));
#706=EDGE_LOOP('',(#401));
#707=EDGE_LOOP('',(#402,#403,#404,#405));
#708=EDGE_LOOP('',(#406,#407,#408,#409));
#709=EDGE_LOOP('',(#410,#411,#412,#413,#414,#415,#416,#417,#418,#419));
#710=EDGE_LOOP('',(#420,#421,#422,#423));
#711=EDGE_LOOP('',(#424,#425,#426,#427));
#712=EDGE_LOOP('',(#428,#429,#430,#431));
#713=EDGE_LOOP('',(#432,#433,#434,#435));
#714=EDGE_LOOP('',(#436,#437,#438,#439));
#715=EDGE_LOOP('',(#440,#441,#442,#443));
#716=EDGE_LOOP('',(#444,#445,#446,#447));
#717=EDGE_LOOP('',(#448,#449,#450,#451));
#718=EDGE_LOOP('',(#452,#453,#454,#455));
#719=EDGE_LOOP('',(#456,#457,#458,#459));
#720=EDGE_LOOP('',(#460,#461,#462,#463));
#721=EDGE_LOOP('',(#464,#465,#466,#467));
#722=EDGE_LOOP('',(#468,#469,#470,#471));
#723=EDGE_LOOP('',(#472,#473,#474,#475));
#724=EDGE_LOOP('',(#476,#477,#478,#479));
#725=EDGE_LOOP('',(#480,#481,#482,#483));
#726=EDGE_LOOP('',(#484,#485,#486,#487));
#727=EDGE_LOOP('',(#488,#489));
#728=EDGE_LOOP('',(#490));
#729=FACE_BOUND('',#681,.T.);
#730=FACE_BOUND('',#682,.T.);
#731=FACE_BOUND('',#683,.T.);
#732=FACE_BOUND('',#684,.T.);
#733=FACE_BOUND('',#685,.T.);
#734=FACE_BOUND('',#686,.T.);
#735=FACE_BOUND('',#687,.T.);
#736=FACE_BOUND('',#688,.T.);
#737=FACE_BOUND('',#689,.T.);
#738=FACE_BOUND('',#690,.T.);
#739=FACE_BOUND('',#691,.T.);
#740=FACE_BOUND('',#692,.T.);
#741=FACE_BOUND('',#693,.T.);
#742=FACE_BOUND('',#694,.T.);
#743=FACE_BOUND('',#695,.T.);
#744=FACE_BOUND('',#696,.T.);
#745=FACE_BOUND('',#697,.T.);
#746=FACE_BOUND('',#698,.T.);
#747=FACE_BOUND('',#699,.T.);
#748=FACE_BOUND('',#700,.T.);
#749=FACE_BOUND('',#701,.T.);
#750=FACE_BOUND('',#702,.T.);
#751=FACE_BOUND('',#703,.T.);
#752=FACE_BOUND('',#704,.T.);
#753=FACE_BOUND('',#705,.T.);
#754=FACE_BOUND('',#706,.T.);
#755=FACE_BOUND('',#707,.T.);
#756=FACE_BOUND('',#708,.T.);
#757=FACE_BOUND('',#709,.T.);
#758=FACE_BOUND('',#710,.T.);
#759=FACE_BOUND('',#711,.T.);
#760=FACE_BOUND('',#712,.T.);
#761=FACE_BOUND('',#713,.T.);
#762=FACE_BOUND('',#714,.T.);
#763=FACE_BOUND('',#715,.T.);
#764=FACE_BOUND('',#716,.T.);
#765=FACE_BOUND('',#717,.T.);
#766=FACE_BOUND('',#718,.T.);
#767=FACE_BOUND('',#719,.T.);
#768=FACE_BOUND('',#720,.T.);
#769=FACE_BOUND('',#721,.T.);
#770=FACE_BOUND('',#722,.T.);
#771=FACE_BOUND('',#723,.T.);
#772=FACE_BOUND('',#724,.T.);
#773=FACE_BOUND('',#725,.T.);
#774=FACE_BOUND('',#726,.T.);
#775=FACE_BOUND('',#727,.T.);
#776=FACE_BOUND('',#728,.T.);
#777=CYLINDRICAL_SURFACE('',#835,2.5E-5);
#778=CYLINDRICAL_SURFACE('',#879,2.5E-5);
#779=ADVANCED_FACE('',(#729),#777,.F.);
#780=ADVANCED_FACE('',(#730,#731),#51,.F.);
#781=ADVANCED_FACE('',(#732),#12,.F.);
#782=ADVANCED_FACE('',(#733),#13,.F.);
#783=ADVANCED_FACE('',(#734),#14,.F.);
#784=ADVANCED_FACE('',(#735),#15,.F.);
#785=ADVANCED_FACE('',(#736),#16,.T.);
#786=ADVANCED_FACE('',(#737),#17,.T.);
#787=ADVANCED_FACE('',(#738),#18,.T.);
#788=ADVANCED_FACE('',(#739,#740),#19,.T.);
#789=ADVANCED_FACE('',(#741),#20,.F.);
#790=ADVANCED_FACE('',(#742),#21,.F.);
#791=ADVANCED_FACE('',(#743),#22,.F.);
#792=ADVANCED_FACE('',(#744),#23,.F.);
#793=ADVANCED_FACE('',(#745),#24,.F.);
#794=ADVANCED_FACE('',(#746),#25,.F.);
#795=ADVANCED_FACE('',(#747),#26,.F.);
#796=ADVANCED_FACE('',(#748),#27,.F.);
#797=ADVANCED_FACE('',(#749),#28,.F.);
#798=ADVANCED_FACE('',(#750),#29,.T.);
#799=ADVANCED_FACE('',(#751,#752),#30,.F.);
#800=ADVANCED_FACE('',(#753),#31,.F.);
#801=ADVANCED_FACE('',(#754,#755),#32,.T.);
#802=ADVANCED_FACE('',(#756),#33,.T.);
#803=ADVANCED_FACE('',(#757),#34,.T.);
#804=ADVANCED_FACE('',(#758),#35,.T.);
#805=ADVANCED_FACE('',(#759),#36,.F.);
#806=ADVANCED_FACE('',(#760),#37,.T.);
#807=ADVANCED_FACE('',(#761),#38,.F.);
#808=ADVANCED_FACE('',(#762),#39,.T.);
#809=ADVANCED_FACE('',(#763),#40,.T.);
#810=ADVANCED_FACE('',(#764),#41,.T.);
#811=ADVANCED_FACE('',(#765),#42,.T.);
#812=ADVANCED_FACE('',(#766),#43,.T.);
#813=ADVANCED_FACE('',(#767),#44,.T.);
#814=ADVANCED_FACE('',(#768),#45,.T.);
#815=ADVANCED_FACE('',(#769),#46,.T.);
#816=ADVANCED_FACE('',(#770),#47,.T.);
#817=ADVANCED_FACE('',(#771),#48,.T.);
#818=ADVANCED_FACE('',(#772),#49,.T.);
#819=ADVANCED_FACE('',(#773),#50,.T.);
#820=ADVANCED_FACE('',(#774),#778,.F.);
#821=ADVANCED_FACE('',(#775,#776),#52,.F.);
#822=CLOSED_SHELL('',(#779,#780,#781,#782,#783,#784,#785,#786,#787,#788,
#789,#790,#791,#792,#793,#794,#795,#796,#797,#798,#799,#800,#801,#802,#803,
#804,#805,#806,#807,#808,#809,#810,#811,#812,#813,#814,#815,#816,#817,#818,
#819,#820,#821));
#823=STYLED_ITEM('',(#824),#831);
#824=PRESENTATION_STYLE_ASSIGNMENT((#825));
#825=SURFACE_STYLE_USAGE(.BOTH.,#826);
#826=SURFACE_SIDE_STYLE('',(#827));
#827=SURFACE_STYLE_FILL_AREA(#828);
#828=FILL_AREA_STYLE('',(#829));
#829=FILL_AREA_STYLE_COLOUR('',#830);
#830=COLOUR_RGB('',0.498039215686275,0.498039215686275,0.498039215686275);
#831=MANIFOLD_SOLID_BREP('Part 10',#822);
#832=SHAPE_DEFINITION_REPRESENTATION(#1328,#833);
#833=SHAPE_REPRESENTATION('Part 10',(#834),#1323);
#834=AXIS2_PLACEMENT_3D('',#1084,#882,#883);
#835=AXIS2_PLACEMENT_3D('',#1085,#884,#885);
#836=AXIS2_PLACEMENT_3D('',#1086,#886,#887);
#837=AXIS2_PLACEMENT_3D('',#1098,#890,#891);
#838=AXIS2_PLACEMENT_3D('',#1099,#892,#893);
#839=AXIS2_PLACEMENT_3D('',#1106,#894,#895);
#840=AXIS2_PLACEMENT_3D('',#1115,#900,#901);
#841=AXIS2_PLACEMENT_3D('',#1124,#906,#907);
#842=AXIS2_PLACEMENT_3D('',#1133,#912,#913);
#843=AXIS2_PLACEMENT_3D('',#1142,#918,#919);
#844=AXIS2_PLACEMENT_3D('',#1160,#929,#930);
#845=AXIS2_PLACEMENT_3D('',#1175,#939,#940);
#846=AXIS2_PLACEMENT_3D('',#1190,#949,#950);
#847=AXIS2_PLACEMENT_3D('',#1200,#956,#957);
#848=AXIS2_PLACEMENT_3D('',#1206,#961,#962);
#849=AXIS2_PLACEMENT_3D('',#1208,#964,#965);
#850=AXIS2_PLACEMENT_3D('',#1214,#969,#970);
#851=AXIS2_PLACEMENT_3D('',#1216,#972,#973);
#852=AXIS2_PLACEMENT_3D('',#1222,#977,#978);
#853=AXIS2_PLACEMENT_3D('',#1225,#981,#982);
#854=AXIS2_PLACEMENT_3D('',#1234,#987,#988);
#855=AXIS2_PLACEMENT_3D('',#1237,#991,#992);
#856=AXIS2_PLACEMENT_3D('',#1258,#1005,#1006);
#857=AXIS2_PLACEMENT_3D('',#1264,#1010,#1011);
#858=AXIS2_PLACEMENT_3D('',#1268,#1014,#1015);
#859=AXIS2_PLACEMENT_3D('',#1272,#1018,#1019);
#860=AXIS2_PLACEMENT_3D('',#1273,#1020,#1021);
#861=AXIS2_PLACEMENT_3D('',#1276,#1023,#1024);
#862=AXIS2_PLACEMENT_3D('',#1285,#1029,#1030);
#863=AXIS2_PLACEMENT_3D('',#1291,#1034,#1035);
#864=AXIS2_PLACEMENT_3D('',#1294,#1038,#1039);
#865=AXIS2_PLACEMENT_3D('',#1296,#1041,#1042);
#866=AXIS2_PLACEMENT_3D('',#1298,#1044,#1045);
#867=AXIS2_PLACEMENT_3D('',#1299,#1046,#1047);
#868=AXIS2_PLACEMENT_3D('',#1302,#1050,#1051);
#869=AXIS2_PLACEMENT_3D('',#1305,#1054,#1055);
#870=AXIS2_PLACEMENT_3D('',#1308,#1058,#1059);
#871=AXIS2_PLACEMENT_3D('',#1311,#1062,#1063);
#872=AXIS2_PLACEMENT_3D('',#1312,#1064,#1065);
#873=AXIS2_PLACEMENT_3D('',#1313,#1066,#1067);
#874=AXIS2_PLACEMENT_3D('',#1314,#1068,#1069);
#875=AXIS2_PLACEMENT_3D('',#1315,#1070,#1071);
#876=AXIS2_PLACEMENT_3D('',#1316,#1072,#1073);
#877=AXIS2_PLACEMENT_3D('',#1317,#1074,#1075);
#878=AXIS2_PLACEMENT_3D('',#1318,#1076,#1077);
#879=AXIS2_PLACEMENT_3D('',#1319,#1078,#1079);
#880=AXIS2_PLACEMENT_3D('',#1320,#1080,#1081);
#881=AXIS2_PLACEMENT_3D('',#1321,#1082,#1083);
#882=DIRECTION('',(0.,0.,1.));
#883=DIRECTION('',(1.,0.,0.));
#884=DIRECTION('',(1.,-1.98679854084673E-16,0.));
#885=DIRECTION('',(1.98679854084673E-16,1.,0.));
#886=DIRECTION('',(1.,-1.98679854084673E-16,0.));
#887=DIRECTION('',(1.98679854084673E-16,1.,0.));
#888=DIRECTION('',(-1.,1.98679854084673E-16,0.));
#889=DIRECTION('',(-1.,1.98679854084673E-16,0.));
#890=DIRECTION('',(-1.,1.98679854084673E-16,0.));
#891=DIRECTION('',(-1.98679854084673E-16,-1.,0.));
#892=DIRECTION('',(1.,-1.98679854084673E-16,0.));
#893=DIRECTION('',(1.98679854084673E-16,1.,0.));
#894=DIRECTION('',(0.,1.,0.));
#895=DIRECTION('',(0.,0.,1.));
#896=DIRECTION('',(1.,0.,0.));
#897=DIRECTION('',(0.,0.,-1.));
#898=DIRECTION('',(-1.,0.,0.));
#899=DIRECTION('',(0.,0.,-1.));
#900=DIRECTION('',(-1.,0.,0.));
#901=DIRECTION('',(0.,0.,1.));
#902=DIRECTION('',(0.,1.,0.));
#903=DIRECTION('',(0.,0.,-1.));
#904=DIRECTION('',(0.,-1.,0.));
#905=DIRECTION('',(0.,0.,-1.));
#906=DIRECTION('',(0.,-1.,0.));
#907=DIRECTION('',(0.,0.,-1.));
#908=DIRECTION('',(-1.,0.,0.));
#909=DIRECTION('',(0.,0.,-1.));
#910=DIRECTION('',(1.,0.,0.));
#911=DIRECTION('',(0.,0.,-1.));
#912=DIRECTION('',(1.,0.,0.));
#913=DIRECTION('',(0.,0.,-1.));
#914=DIRECTION('',(0.,-1.,0.));
#915=DIRECTION('',(0.,0.,-1.));
#916=DIRECTION('',(0.,1.,0.));
#917=DIRECTION('',(0.,0.,-1.));
#918=DIRECTION('',(0.766044443118978,0.,0.64278760968654));
#919=DIRECTION('',(0.,-1.,0.));
#920=DIRECTION('',(0.540716203060937,-0.540716203060937,-0.644400477571772));
#921=DIRECTION('',(0.,1.,0.));
#922=DIRECTION('',(-0.540716203060937,-0.540716203060937,0.644400477571772));
#923=DIRECTION('',(0.,-1.,0.));
#924=DIRECTION('',(0.540716203060937,-0.540716203060937,-0.644400477571772));
#925=DIRECTION('',(0.540716203060937,0.540716203060937,-0.644400477571772));
#926=DIRECTION('',(0.,1.,0.));
#927=DIRECTION('',(0.540716203060937,-0.540716203060937,-0.644400477571772));
#928=DIRECTION('',(-0.540716203060937,-0.540716203060937,0.644400477571772));
#929=DIRECTION('',(0.,0.766044443118978,0.64278760968654));
#930=DIRECTION('',(1.,0.,0.));
#931=DIRECTION('',(0.540716203060937,0.540716203060937,-0.644400477571772));
#932=DIRECTION('',(-1.,0.,0.));
#933=DIRECTION('',(0.540716203060937,-0.540716203060937,0.644400477571772));
#934=DIRECTION('',(1.,0.,0.));
#935=DIRECTION('',(0.540716203060937,0.540716203060937,-0.644400477571772));
#936=DIRECTION('',(-0.540716203060937,0.540716203060937,-0.644400477571772));
#937=DIRECTION('',(-1.,0.,0.));
#938=DIRECTION('',(0.540716203060937,-0.540716203060937,0.644400477571772));
#939=DIRECTION('',(0.,-0.766044443118978,0.64278760968654));
#940=DIRECTION('',(-1.,0.,0.));
#941=DIRECTION('',(-0.540716203060937,-0.540716203060937,-0.644400477571772));
#942=DIRECTION('',(1.,0.,0.));
#943=DIRECTION('',(-0.540716203060937,0.540716203060937,0.644400477571772));
#944=DIRECTION('',(-1.,0.,0.));
#945=DIRECTION('',(-0.540716203060937,-0.540716203060937,-0.644400477571772));
#946=DIRECTION('',(1.,0.,0.));
#947=DIRECTION('',(-0.540716203060937,-0.540716203060937,-0.644400477571772));
#948=DIRECTION('',(-0.540716203060937,0.540716203060937,0.644400477571772));
#949=DIRECTION('',(0.,0.,1.));
#950=DIRECTION('',(1.,0.,0.));
#951=DIRECTION('',(0.,-1.,0.));
#952=DIRECTION('',(-1.98679854084673E-16,-1.,0.));
#953=DIRECTION('',(1.,0.,0.));
#954=DIRECTION('',(-1.98679854084673E-16,-1.,0.));
#955=DIRECTION('',(1.,0.,0.));
#956=DIRECTION('',(0.,1.,0.));
#957=DIRECTION('',(0.,0.,1.));
#958=DIRECTION('',(0.,0.,1.));
#959=DIRECTION('',(1.,0.,0.));
#960=DIRECTION('',(0.,0.,-1.));
#961=DIRECTION('',(-0.707106781186548,0.707106781186548,0.));
#962=DIRECTION('',(-0.707106781186548,-0.707106781186548,0.));
#963=DIRECTION('',(0.707106781186548,0.707106781186548,0.));
#964=DIRECTION('',(-1.,0.,0.));
#965=DIRECTION('',(0.,0.,1.));
#966=DIRECTION('',(0.,0.,1.));
#967=DIRECTION('',(0.,1.,0.));
#968=DIRECTION('',(0.,0.,-1.));
#969=DIRECTION('',(-0.707106781186548,-0.707106781186548,0.));
#970=DIRECTION('',(0.707106781186548,-0.707106781186548,0.));
#971=DIRECTION('',(-0.707106781186548,0.707106781186548,0.));
#972=DIRECTION('',(0.,-1.,0.));
#973=DIRECTION('',(0.,0.,-1.));
#974=DIRECTION('',(0.,0.,1.));
#975=DIRECTION('',(-1.,0.,0.));
#976=DIRECTION('',(0.,0.,-1.));
#977=DIRECTION('',(0.707106781186548,-0.707106781186548,0.));
#978=DIRECTION('',(0.707106781186548,0.707106781186548,0.));
#979=DIRECTION('',(0.540716203060937,0.540716203060937,0.644400477571772));
#980=DIRECTION('',(-0.707106781186548,-0.707106781186548,0.));
#981=DIRECTION('',(1.,0.,0.));
#982=DIRECTION('',(0.,0.,-1.));
#983=DIRECTION('',(0.,1.,0.));
#984=DIRECTION('',(0.,0.,1.));
#985=DIRECTION('',(0.,-1.,0.));
#986=DIRECTION('',(0.,0.,-1.));
#987=DIRECTION('',(0.707106781186548,0.707106781186548,0.));
#988=DIRECTION('',(-0.707106781186548,0.707106781186548,0.));
#989=DIRECTION('',(-0.540716203060937,0.540716203060937,-0.644400477571772));
#990=DIRECTION('',(0.707106781186548,-0.707106781186548,0.));
#991=DIRECTION('',(0.,0.,1.));
#992=DIRECTION('',(1.,0.,0.));
#993=DIRECTION('',(0.707106781186548,-0.707106781186548,0.));
#994=DIRECTION('',(-1.,0.,0.));
#995=DIRECTION('',(0.707106781186548,0.707106781186548,0.));
#996=DIRECTION('',(-0.707106781186548,-0.707106781186548,0.));
#997=DIRECTION('',(-1.73907115386146E-16,1.,0.));
#998=DIRECTION('',(0.707106781186548,-0.707106781186548,0.));
#999=DIRECTION('',(-0.707106781186548,0.707106781186548,0.));
#1000=DIRECTION('',(1.,0.,0.));
#1001=DIRECTION('',(-0.707106781186548,-0.707106781186548,0.));
#1002=DIRECTION('',(0.707106781186548,0.707106781186548,0.));
#1003=DIRECTION('',(0.,-1.,0.));
#1004=DIRECTION('',(-0.707106781186548,0.707106781186548,0.));
#1005=DIRECTION('',(0.,1.,0.));
#1006=DIRECTION('',(0.,0.,1.));
#1007=DIRECTION('',(0.,0.,-1.));
#1008=DIRECTION('',(1.,0.,0.));
#1009=DIRECTION('',(0.,0.,-1.));
#1010=DIRECTION('',(1.,-1.98679854084673E-16,0.));
#1011=DIRECTION('',(1.98679854084673E-16,1.,0.));
#1012=DIRECTION('',(0.,0.,-1.));
#1013=DIRECTION('',(1.98679854084673E-16,1.,0.));
#1014=DIRECTION('',(0.,1.,0.));
#1015=DIRECTION('',(0.,0.,1.));
#1016=DIRECTION('',(0.,0.,-1.));
#1017=DIRECTION('',(-1.,0.,0.));
#1018=DIRECTION('',(1.,-1.98679854084673E-16,0.));
#1019=DIRECTION('',(1.98679854084673E-16,1.,0.));
#1020=DIRECTION('',(-1.,1.98679854084673E-16,0.));
#1021=DIRECTION('',(-1.98679854084673E-16,-1.,0.));
#1022=DIRECTION('',(-1.98679854084673E-16,-1.,0.));
#1023=DIRECTION('',(0.,0.,1.));
#1024=DIRECTION('',(1.,0.,0.));
#1025=DIRECTION('',(1.,0.,0.));
#1026=DIRECTION('',(1.98679854084673E-16,1.,0.));
#1027=DIRECTION('',(-1.,0.,0.));
#1028=DIRECTION('',(-1.98679854084673E-16,-1.,0.));
#1029=DIRECTION('',(-0.766044443118978,0.,0.64278760968654));
#1030=DIRECTION('',(0.,1.,0.));
#1031=DIRECTION('',(-0.540716203060937,0.540716203060937,-0.644400477571772));
#1032=DIRECTION('',(-1.73907115386146E-16,1.,-2.07254429539135E-16));
#1033=DIRECTION('',(0.540716203060937,0.540716203060937,0.644400477571772));
#1034=DIRECTION('',(-0.707106781186548,1.40487872108427E-16,0.707106781186547));
#1035=DIRECTION('',(1.98679854084673E-16,1.,0.));
#1036=DIRECTION('',(-0.577350269189626,-0.577350269189626,-0.577350269189626));
#1037=DIRECTION('',(0.577350269189625,-0.577350269189626,0.577350269189626));
#1038=DIRECTION('',(0.,-0.707106781186548,-0.707106781186547));
#1039=DIRECTION('',(1.,0.,0.));
#1040=DIRECTION('',(0.577350269189626,0.577350269189626,-0.577350269189626));
#1041=DIRECTION('',(0.,-0.707106781186548,0.707106781186547));
#1042=DIRECTION('',(-1.,0.,0.));
#1043=DIRECTION('',(0.577350269189625,-0.577350269189626,-0.577350269189626));
#1044=DIRECTION('',(-0.707106781186548,1.40487872108427E-16,-0.707106781186547));
#1045=DIRECTION('',(-1.98679854084673E-16,-1.,0.));
#1046=DIRECTION('',(0.,-1.,0.));
#1047=DIRECTION('',(0.,0.,-1.));
#1048=DIRECTION('',(0.,0.,-1.));
#1049=DIRECTION('',(0.,0.,1.));
#1050=DIRECTION('',(0.,1.,0.));
#1051=DIRECTION('',(0.,0.,1.));
#1052=DIRECTION('',(0.,0.,-1.));
#1053=DIRECTION('',(0.,0.,1.));
#1054=DIRECTION('',(1.,0.,0.));
#1055=DIRECTION('',(0.,0.,-1.));
#1056=DIRECTION('',(0.,0.,-1.));
#1057=DIRECTION('',(0.,0.,1.));
#1058=DIRECTION('',(-1.,-1.73907115386146E-16,0.));
#1059=DIRECTION('',(1.73907115386146E-16,-1.,0.));
#1060=DIRECTION('',(0.,0.,-1.));
#1061=DIRECTION('',(0.,0.,1.));
#1062=DIRECTION('',(-0.707106781186548,0.707106781186548,0.));
#1063=DIRECTION('',(0.,0.,1.));
#1064=DIRECTION('',(0.707106781186548,0.707106781186548,0.));
#1065=DIRECTION('',(0.,0.,1.));
#1066=DIRECTION('',(-0.707106781186548,-0.707106781186548,0.));
#1067=DIRECTION('',(0.,0.,1.));
#1068=DIRECTION('',(-0.707106781186548,0.707106781186548,0.));
#1069=DIRECTION('',(0.,0.,1.));
#1070=DIRECTION('',(0.707106781186548,-0.707106781186548,0.));
#1071=DIRECTION('',(0.,0.,1.));
#1072=DIRECTION('',(-0.707106781186548,-0.707106781186548,0.));
#1073=DIRECTION('',(0.,0.,1.));
#1074=DIRECTION('',(0.707106781186548,0.707106781186548,0.));
#1075=DIRECTION('',(0.,0.,1.));
#1076=DIRECTION('',(0.707106781186548,-0.707106781186548,0.));
#1077=DIRECTION('',(0.,0.,1.));
#1078=DIRECTION('',(-1.,1.98679854084673E-16,0.));
#1079=DIRECTION('',(-1.98679854084673E-16,-1.,0.));
#1080=DIRECTION('',(-1.,1.98679854084673E-16,0.));
#1081=DIRECTION('',(-1.98679854084673E-16,-1.,0.));
#1082=DIRECTION('',(1.,-1.98679854084673E-16,0.));
#1083=DIRECTION('',(1.98679854084673E-16,1.,0.));
#1084=CARTESIAN_POINT('',(0.,0.,0.));
#1085=CARTESIAN_POINT('',(-0.034925,3.4694469519536E-18,0.150515));
#1086=CARTESIAN_POINT('',(-0.0334960580837557,3.1855449805387E-18,0.150515));
#1087=CARTESIAN_POINT('',(-0.0334960580837557,2.16506350946174E-5,0.1505025));
#1088=CARTESIAN_POINT('',(-0.0334960580836871,-2.16506351218488E-5,0.150502499999955));
#1089=CARTESIAN_POINT('',(-7.21687836486434E-6,2.16506350946165E-5,0.1505025));
#1090=CARTESIAN_POINT('',(0.0334960580837557,2.16506350946098E-5,0.1505025));
#1091=CARTESIAN_POINT('',(0.0334960580837557,2.16506350946154E-5,0.1505025));
#1092=CARTESIAN_POINT('',(0.0335042758301688,2.98683815077411E-5,0.150516733554311));
#1093=CARTESIAN_POINT('',(0.0335166979079132,1.39349870657755E-7,0.150563249140307));
#1094=CARTESIAN_POINT('',(0.0335042956191899,-2.98881705288631E-5,0.150516767829901));
#1095=CARTESIAN_POINT('',(0.0334960580837557,-2.16506350946187E-5,0.1505025));
#1096=CARTESIAN_POINT('',(0.0334960580837557,-2.16506350946138E-5,0.1505025));
#1097=CARTESIAN_POINT('',(-7.21687836486435E-6,-2.16506350946071E-5,0.1505025));
#1098=CARTESIAN_POINT('',(-0.034925,3.4694469519536E-18,0.150515));
#1099=CARTESIAN_POINT('',(-0.034925,3.4694469519536E-18,0.150515));
#1100=CARTESIAN_POINT('',(-0.034925,0.0025,0.150515));
#1101=CARTESIAN_POINT('',(-0.0334960580837634,-2.16506351023982E-5,0.150502499999987));
#1102=CARTESIAN_POINT('',(-0.0335042758301733,-2.98683815048659E-5,0.150488266445673));
#1103=CARTESIAN_POINT('',(-0.0335166979079116,-1.39349854030245E-7,0.1504417508597));
#1104=CARTESIAN_POINT('',(-0.0335042956191886,2.9888170527563E-5,0.150488232170101));
#1105=CARTESIAN_POINT('',(-0.0334960580837557,2.16506350946225E-5,0.1505025));
#1106=CARTESIAN_POINT('',(6.93889390390723E-18,-0.0478,0.14734));
#1107=CARTESIAN_POINT('',(6.93889390390723E-18,-0.0478,0.12575));
#1108=CARTESIAN_POINT('',(-0.0433854833995939,-0.0478,0.12575));
#1109=CARTESIAN_POINT('',(-0.03515,-0.0478,0.12575));
#1110=CARTESIAN_POINT('',(-0.03515,-0.0478,0.14734));
#1111=CARTESIAN_POINT('',(-0.03515,-0.0478,0.132204729374053));
#1112=CARTESIAN_POINT('',(-0.0433854833995939,-0.0478,0.132204729374053));
#1113=CARTESIAN_POINT('',(-0.0433854833995939,-0.0478,0.132204729374053));
#1114=CARTESIAN_POINT('',(-0.0433854833995939,-0.0478,0.14734));
#1115=CARTESIAN_POINT('',(0.0478,-0.0419927416997969,0.14734));
#1116=CARTESIAN_POINT('',(0.0478,-0.0419927416997969,0.12575));
#1117=CARTESIAN_POINT('',(0.0478,-0.0433854833995939,0.12575));
#1118=CARTESIAN_POINT('',(0.0478,-0.03515,0.12575));
#1119=CARTESIAN_POINT('',(0.0478,-0.03515,0.14734));
#1120=CARTESIAN_POINT('',(0.0478,-0.03515,0.132204729374053));
#1121=CARTESIAN_POINT('',(0.0478,-0.0433854833995939,0.132204729374053));
#1122=CARTESIAN_POINT('',(0.0478,-0.0433854833995939,0.132204729374053));
#1123=CARTESIAN_POINT('',(0.0478,-0.0433854833995939,0.14734));
#1124=CARTESIAN_POINT('',(0.0419927416997969,0.0478,0.14734));
#1125=CARTESIAN_POINT('',(0.0419927416997969,0.0478,0.12575));
#1126=CARTESIAN_POINT('',(0.0433854833995939,0.0478,0.12575));
#1127=CARTESIAN_POINT('',(0.03515,0.0478,0.12575));
#1128=CARTESIAN_POINT('',(0.03515,0.0478,0.14734));
#1129=CARTESIAN_POINT('',(0.03515,0.0478,0.132204729374053));
#1130=CARTESIAN_POINT('',(0.0433854833995939,0.0478,0.132204729374053));
#1131=CARTESIAN_POINT('',(0.0433854833995939,0.0478,0.132204729374053));
#1132=CARTESIAN_POINT('',(0.0433854833995939,0.0478,0.14734));
#1133=CARTESIAN_POINT('',(-0.0478,0.0419927416997969,0.14734));
#1134=CARTESIAN_POINT('',(-0.0478,0.0419927416997969,0.12575));
#1135=CARTESIAN_POINT('',(-0.0478,0.0433854833995939,0.12575));
#1136=CARTESIAN_POINT('',(-0.0478,0.03515,0.12575));
#1137=CARTESIAN_POINT('',(-0.0478,0.03515,0.14734));
#1138=CARTESIAN_POINT('',(-0.0478,0.03515,0.132204729374053));
#1139=CARTESIAN_POINT('',(-0.0478,0.0433854833995939,0.132204729374053));
#1140=CARTESIAN_POINT('',(-0.0478,0.0433854833995939,0.132204729374053));
#1141=CARTESIAN_POINT('',(-0.0478,0.0433854833995939,0.14734));
#1142=CARTESIAN_POINT('',(0.0351,6.93889390390723E-18,0.14734));
#1143=CARTESIAN_POINT('',(0.00716561742793666,0.00548438257206334,0.180630900787158));
#1144=CARTESIAN_POINT('',(0.0462,-0.03355,0.134111535122204));
#1145=CARTESIAN_POINT('',(0.0462,6.93889390390723E-18,0.134111535122204));
#1146=CARTESIAN_POINT('',(0.0462,0.03355,0.134111535122204));
#1147=CARTESIAN_POINT('',(0.0108787673835451,-0.00177123261645486,0.17620574098772));
#1148=CARTESIAN_POINT('',(0.0478,0.03515,0.132204729374053));
#1149=CARTESIAN_POINT('',(0.0478,-0.0433854833995939,0.132204729374053));
#1150=CARTESIAN_POINT('',(0.0478,0.0433854833995939,0.132204729374053));
#1151=CARTESIAN_POINT('',(0.0514979378106679,0.039687545588926,0.127797698703));
#1152=CARTESIAN_POINT('',(0.045592741699797,0.0455927416997969,0.134835237383104));
#1153=CARTESIAN_POINT('',(0.0248376721699324,0.0248376721699324,0.159570166059863));
#1154=CARTESIAN_POINT('',(0.0351,0.0351,0.14734));
#1155=CARTESIAN_POINT('',(0.0351,0.0433854833995939,0.14734));
#1156=CARTESIAN_POINT('',(0.0351,-0.0351,0.14734));
#1157=CARTESIAN_POINT('',(0.0248376721699324,-0.0248376721699324,0.159570166059863));
#1158=CARTESIAN_POINT('',(0.045592741699797,-0.0455927416997969,0.134835237383104));
#1159=CARTESIAN_POINT('',(0.0514979378106679,-0.039687545588926,0.127797698703));
#1160=CARTESIAN_POINT('',(0.,0.0351,0.14734));
#1161=CARTESIAN_POINT('',(-0.002203891965655,0.010446108034345,0.176721364321499));
#1162=CARTESIAN_POINT('',(0.03355,0.0462,0.134111535122204));
#1163=CARTESIAN_POINT('',(0.,0.0462,0.134111535122204));
#1164=CARTESIAN_POINT('',(-0.03355,0.0462,0.134111535122204));
#1165=CARTESIAN_POINT('',(-0.00150925798995348,0.0141592579899535,0.172296204522061));
#1166=CARTESIAN_POINT('',(-0.03515,0.0478,0.132204729374053));
#1167=CARTESIAN_POINT('',(0.0433854833995939,0.0478,0.132204729374053));
#1168=CARTESIAN_POINT('',(-0.0433854833995939,0.0478,0.132204729374053));
#1169=CARTESIAN_POINT('',(-0.039687545588926,0.0514979378106679,0.127797698703));
#1170=CARTESIAN_POINT('',(-0.0455927416997969,0.0455927416997969,0.134835237383104));
#1171=CARTESIAN_POINT('',(-0.0248376721699324,0.0248376721699324,0.159570166059863));
#1172=CARTESIAN_POINT('',(-0.0351,0.0351,0.14734));
#1173=CARTESIAN_POINT('',(-0.0433854833995939,0.0351,0.14734));
#1174=CARTESIAN_POINT('',(0.039687545588926,0.0514979378106679,0.127797698703));
#1175=CARTESIAN_POINT('',(0.,-0.0351,0.14734));
#1176=CARTESIAN_POINT('',(0.002203891965655,-0.010446108034345,0.176721364321499));
#1177=CARTESIAN_POINT('',(-0.03355,-0.0462,0.134111535122204));
#1178=CARTESIAN_POINT('',(0.,-0.0462,0.134111535122204));
#1179=CARTESIAN_POINT('',(0.03355,-0.0462,0.134111535122204));
#1180=CARTESIAN_POINT('',(0.00150925798995348,-0.0141592579899535,0.172296204522061));
#1181=CARTESIAN_POINT('',(0.03515,-0.0478,0.132204729374053));
#1182=CARTESIAN_POINT('',(-0.0433854833995939,-0.0478,0.132204729374053));
#1183=CARTESIAN_POINT('',(0.0433854833995939,-0.0478,0.132204729374053));
#1184=CARTESIAN_POINT('',(0.039687545588926,-0.0514979378106679,0.127797698703));
#1185=CARTESIAN_POINT('',(0.0433854833995939,-0.0351,0.14734));
#1186=CARTESIAN_POINT('',(-0.0351,-0.0351,0.14734));
#1187=CARTESIAN_POINT('',(-0.0248376721699324,-0.0248376721699324,0.159570166059863));
#1188=CARTESIAN_POINT('',(-0.0455927416997969,-0.0455927416997969,0.134835237383104));
#1189=CARTESIAN_POINT('',(-0.039687545588926,-0.0514979378106679,0.127797698703));
#1190=CARTESIAN_POINT('',(0.,6.93889390390723E-18,0.14734));
#1191=CARTESIAN_POINT('',(-0.0351,-0.0433854833995939,0.14734));
#1192=CARTESIAN_POINT('',(-0.034925,0.,0.14734));
#1193=CARTESIAN_POINT('',(-0.034925,0.034925,0.14734));
#1194=CARTESIAN_POINT('',(-0.034925,-0.034925,0.14734));
#1195=CARTESIAN_POINT('',(6.93889390390723E-18,0.034925,0.14734));
#1196=CARTESIAN_POINT('',(0.034925,0.034925,0.14734));
#1197=CARTESIAN_POINT('',(0.034925,0.,0.14734));
#1198=CARTESIAN_POINT('',(0.034925,-0.034925,0.14734));
#1199=CARTESIAN_POINT('',(-6.93889390390723E-18,-0.034925,0.14734));
#1200=CARTESIAN_POINT('',(6.93889390390723E-18,-0.0478,0.14734));
#1201=CARTESIAN_POINT('',(0.03515,-0.0478,0.14734));
#1202=CARTESIAN_POINT('',(0.03515,-0.0478,0.12575));
#1203=CARTESIAN_POINT('',(6.93889390390723E-18,-0.0478,0.12575));
#1204=CARTESIAN_POINT('',(0.0433854833995939,-0.0478,0.12575));
#1205=CARTESIAN_POINT('',(0.0433854833995939,-0.0478,0.14734));
#1206=CARTESIAN_POINT('',(0.0455927416997969,-0.0455927416997969,0.14734));
#1207=CARTESIAN_POINT('',(0.0455927416997969,-0.0455927416997969,0.12575));
#1208=CARTESIAN_POINT('',(0.0478,-0.0419927416997969,0.14734));
#1209=CARTESIAN_POINT('',(0.0478,0.03515,0.14734));
#1210=CARTESIAN_POINT('',(0.0478,0.03515,0.12575));
#1211=CARTESIAN_POINT('',(0.0478,-0.0419927416997969,0.12575));
#1212=CARTESIAN_POINT('',(0.0478,0.0433854833995939,0.12575));
#1213=CARTESIAN_POINT('',(0.0478,0.0433854833995939,0.14734));
#1214=CARTESIAN_POINT('',(0.045592741699797,0.0455927416997969,0.14734));
#1215=CARTESIAN_POINT('',(0.045592741699797,0.0455927416997969,0.12575));
#1216=CARTESIAN_POINT('',(0.0419927416997969,0.0478,0.14734));
#1217=CARTESIAN_POINT('',(-0.03515,0.0478,0.14734));
#1218=CARTESIAN_POINT('',(-0.03515,0.0478,0.12575));
#1219=CARTESIAN_POINT('',(0.0419927416997969,0.0478,0.12575));
#1220=CARTESIAN_POINT('',(-0.0433854833995939,0.0478,0.12575));
#1221=CARTESIAN_POINT('',(-0.0433854833995939,0.0478,0.14734));
#1222=CARTESIAN_POINT('',(-0.0455927416997969,0.045592741699797,0.14734));
#1223=CARTESIAN_POINT('',(-0.0514979378106679,0.039687545588926,0.127797698703));
#1224=CARTESIAN_POINT('',(-0.0455927416997969,0.045592741699797,0.12575));
#1225=CARTESIAN_POINT('',(-0.0478,0.0419927416997969,0.14734));
#1226=CARTESIAN_POINT('',(-0.0478,0.0433854833995939,0.132204729374053));
#1227=CARTESIAN_POINT('',(-0.0478,-0.0433854833995939,0.132204729374053));
#1228=CARTESIAN_POINT('',(-0.0478,-0.03515,0.132204729374053));
#1229=CARTESIAN_POINT('',(-0.0478,-0.03515,0.14734));
#1230=CARTESIAN_POINT('',(-0.0478,-0.03515,0.12575));
#1231=CARTESIAN_POINT('',(-0.0478,0.0419927416997969,0.12575));
#1232=CARTESIAN_POINT('',(-0.0478,-0.0433854833995939,0.12575));
#1233=CARTESIAN_POINT('',(-0.0478,-0.0433854833995939,0.14734));
#1234=CARTESIAN_POINT('',(-0.045592741699797,-0.0455927416997969,0.14734));
#1235=CARTESIAN_POINT('',(-0.0514979378106679,-0.039687545588926,0.127797698703));
#1236=CARTESIAN_POINT('',(-0.045592741699797,-0.0455927416997969,0.12575));
#1237=CARTESIAN_POINT('',(0.,6.93889390390723E-18,0.12575));
#1238=CARTESIAN_POINT('',(-0.006325,-0.006325,0.12575));
#1239=CARTESIAN_POINT('',(0.03355,-0.0462,0.12575));
#1240=CARTESIAN_POINT('',(0.,-0.0462,0.12575));
#1241=CARTESIAN_POINT('',(-0.03355,-0.0462,0.12575));
#1242=CARTESIAN_POINT('',(0.006325,-0.006325,0.12575));
#1243=CARTESIAN_POINT('',(-0.006325,0.006325,0.12575));
#1244=CARTESIAN_POINT('',(-0.0462,-0.03355,0.12575));
#1245=CARTESIAN_POINT('',(-0.0462,-6.93889390390723E-18,0.12575));
#1246=CARTESIAN_POINT('',(-0.0462,0.03355,0.12575));
#1247=CARTESIAN_POINT('',(-0.006325,-0.006325,0.12575));
#1248=CARTESIAN_POINT('',(0.006325,0.006325,0.12575));
#1249=CARTESIAN_POINT('',(-0.03355,0.0462,0.12575));
#1250=CARTESIAN_POINT('',(0.,0.0462,0.12575));
#1251=CARTESIAN_POINT('',(0.03355,0.0462,0.12575));
#1252=CARTESIAN_POINT('',(-0.006325,0.006325,0.12575));
#1253=CARTESIAN_POINT('',(0.006325,-0.006325,0.12575));
#1254=CARTESIAN_POINT('',(0.0462,0.03355,0.12575));
#1255=CARTESIAN_POINT('',(0.0462,0.,0.12575));
#1256=CARTESIAN_POINT('',(0.0462,-0.03355,0.12575));
#1257=CARTESIAN_POINT('',(0.006325,0.006325,0.12575));
#1258=CARTESIAN_POINT('',(6.93889390390723E-18,0.034925,0.17274));
#1259=CARTESIAN_POINT('',(-0.034925,0.034925,0.17274));
#1260=CARTESIAN_POINT('',(-0.034925,0.034925,0.15369));
#1261=CARTESIAN_POINT('',(6.93889390390723E-18,0.034925,0.15369));
#1262=CARTESIAN_POINT('',(0.034925,0.034925,0.15369));
#1263=CARTESIAN_POINT('',(0.034925,0.034925,0.17274));
#1264=CARTESIAN_POINT('',(-0.034925,0.,0.17274));
#1265=CARTESIAN_POINT('',(-0.034925,-0.034925,0.17274));
#1266=CARTESIAN_POINT('',(-0.034925,-0.034925,0.15369));
#1267=CARTESIAN_POINT('',(-0.034925,0.034925,0.15369));
#1268=CARTESIAN_POINT('',(-6.93889390390723E-18,-0.034925,0.17274));
#1269=CARTESIAN_POINT('',(0.034925,-0.034925,0.17274));
#1270=CARTESIAN_POINT('',(0.034925,-0.034925,0.15369));
#1271=CARTESIAN_POINT('',(-0.034925,-0.034925,0.15369));
#1272=CARTESIAN_POINT('',(0.034925,0.,0.17274));
#1273=CARTESIAN_POINT('',(0.034925,-1.27993421728955E-33,0.15049));
#1274=CARTESIAN_POINT('',(0.034925,-0.0025,0.15049));
#1275=CARTESIAN_POINT('',(0.034925,0.,0.15369));
#1276=CARTESIAN_POINT('',(0.,6.93889390390723E-18,0.17274));
#1277=CARTESIAN_POINT('',(0.034925,-0.015875,0.17274));
#1278=CARTESIAN_POINT('',(-0.015875,-0.015875,0.17274));
#1279=CARTESIAN_POINT('',(0.015875,-0.015875,0.17274));
#1280=CARTESIAN_POINT('',(0.015875,3.78485122031303E-18,0.17274));
#1281=CARTESIAN_POINT('',(0.015875,0.015875,0.17274));
#1282=CARTESIAN_POINT('',(0.,0.015875,0.17274));
#1283=CARTESIAN_POINT('',(-0.015875,0.015875,0.17274));
#1284=CARTESIAN_POINT('',(-0.015875,-0.034925,0.17274));
#1285=CARTESIAN_POINT('',(-0.0351,6.93889390390723E-18,0.14734));
#1286=CARTESIAN_POINT('',(-0.046199303124441,0.0335493031244411,0.134112365626155));
#1287=CARTESIAN_POINT('',(-0.0462,0.03355,0.134111535122204));
#1288=CARTESIAN_POINT('',(-0.0462,-6.93930841276631E-18,0.134111535122204));
#1289=CARTESIAN_POINT('',(-0.0462,-0.03355,0.134111535122204));
#1290=CARTESIAN_POINT('',(-0.0499124530800495,-0.0372624530800496,0.129687205826718));
#1291=CARTESIAN_POINT('',(-0.015875,1.00929365875014E-17,0.17274));
#1292=CARTESIAN_POINT('',(-0.0105833333333333,-0.0105833333333333,0.178031666666667));
#1293=CARTESIAN_POINT('',(-0.0105833333333333,0.0105833333333334,0.178031666666667));
#1294=CARTESIAN_POINT('',(6.93889390390723E-18,0.034925,0.15369));
#1295=CARTESIAN_POINT('',(0.0232833333333334,0.0232833333333334,0.165331666666667));
#1296=CARTESIAN_POINT('',(0.,-0.015875,0.17274));
#1297=CARTESIAN_POINT('',(0.0105833333333333,-0.0105833333333333,0.178031666666667));
#1298=CARTESIAN_POINT('',(0.034925,0.,0.15369));
#1299=CARTESIAN_POINT('',(0.,-0.0462,0.236723519444565));
#1300=CARTESIAN_POINT('',(-0.03355,-0.0462,0.12575));
#1301=CARTESIAN_POINT('',(0.03355,-0.0462,0.134111535122204));
#1302=CARTESIAN_POINT('',(0.,0.0462,0.236723519444565));
#1303=CARTESIAN_POINT('',(0.03355,0.0462,0.12575));
#1304=CARTESIAN_POINT('',(-0.03355,0.0462,0.134111535122204));
#1305=CARTESIAN_POINT('',(0.0462,0.,0.24613837282606));
#1306=CARTESIAN_POINT('',(0.0462,-0.03355,0.12575));
#1307=CARTESIAN_POINT('',(0.0462,0.03355,0.134111535122204));
#1308=CARTESIAN_POINT('',(-0.0462,-6.93889390390723E-18,0.134113535122204));
#1309=CARTESIAN_POINT('',(-0.0462,0.03355,0.12575));
#1310=CARTESIAN_POINT('',(-0.0462,-0.03355,0.134111535122204));
#1311=CARTESIAN_POINT('',(0.03355,0.0462,0.236723519444565));
#1312=CARTESIAN_POINT('',(-0.0399,0.05255,0.236723519444565));
#1313=CARTESIAN_POINT('',(-0.0462,0.03355,0.134113535122204));
#1314=CARTESIAN_POINT('',(-0.05255,-0.0399,0.134113535122204));
#1315=CARTESIAN_POINT('',(-0.03355,-0.0462,0.236723519444565));
#1316=CARTESIAN_POINT('',(0.0399,-0.05255,0.236723519444565));
#1317=CARTESIAN_POINT('',(0.0462,-0.03355,0.24613837282606));
#1318=CARTESIAN_POINT('',(0.05255,0.0399,0.24613837282606));
#1319=CARTESIAN_POINT('',(0.034925,0.,0.15049));
#1320=CARTESIAN_POINT('',(0.0334960580837557,2.83901971414895E-19,0.15049));
#1321=CARTESIAN_POINT('',(0.034925,-1.27993421728955E-33,0.15049));
#1322=MECHANICAL_DESIGN_GEOMETRIC_PRESENTATION_REPRESENTATION('',(#823),
#1323);
#1323=(
GEOMETRIC_REPRESENTATION_CONTEXT(3)
GLOBAL_UNCERTAINTY_ASSIGNED_CONTEXT((#1324))
GLOBAL_UNIT_ASSIGNED_CONTEXT((#1327,#1326,#1325))
REPRESENTATION_CONTEXT('Part 10','TOP_LEVEL_ASSEMBLY_PART')
);
#1324=UNCERTAINTY_MEASURE_WITH_UNIT(LENGTH_MEASURE(2.E-5),#1327,
'DISTANCE_ACCURACY_VALUE','Maximum Tolerance applied to model');
#1325=(
NAMED_UNIT(*)
SI_UNIT($,.STERADIAN.)
SOLID_ANGLE_UNIT()
);
#1326=(
NAMED_UNIT(*)
PLANE_ANGLE_UNIT()
SI_UNIT($,.RADIAN.)
);
#1327=(
LENGTH_UNIT()
NAMED_UNIT(*)
SI_UNIT($,.METRE.)
);
#1328=PRODUCT_DEFINITION_SHAPE('','',#1329);
#1329=PRODUCT_DEFINITION('','',#1331,#1330);
#1330=PRODUCT_DEFINITION_CONTEXT('',#1337,'design');
#1331=PRODUCT_DEFINITION_FORMATION_WITH_SPECIFIED_SOURCE('','',#1333,
 .NOT_KNOWN.);
#1332=PRODUCT_RELATED_PRODUCT_CATEGORY('','',(#1333));
#1333=PRODUCT('Part 10','Part 10','Part 10',(#1335));
#1334=PRODUCT_CATEGORY('','');
#1335=PRODUCT_CONTEXT('',#1337,'mechanical');
#1336=APPLICATION_PROTOCOL_DEFINITION('international standard',
'ap242_managed_model_based_3d_engineering',2011,#1337);
#1337=APPLICATION_CONTEXT('managed model based 3d engineering');
ENDSEC;
END-ISO-10303-21;
