ISO-10303-21;
HEADER;
/* Generated by software containing ST-Developer
 * from STEP Tools, Inc. (www.steptools.com) 
 */
/* OPTION: using custom renumber hook */

FILE_DESCRIPTION(
/* description */ ('STEP AP242',
'CAx-IF Rec.Pracs.---Representation and Presentation of Product Manufa
cturing Information (PMI)---4.0---2014-10-13',
'CAx-IF Rec.Pracs.---3D Tessellated Geometry---0.4---2014-09-14','2;1',
'CAx-IF Rec.Pracs.---User Defined Attributes---1.5---2016-08-15'),
/* implementation_level */ '2;1');

FILE_NAME(
/* name */ '6918f4543c0edfae2a72de53',
/* time_stamp */ '2025-11-15T21:44:52Z',
/* author */ (''),
/* organization */ (''),
/* preprocessor_version */ 'ST-DEVELOPER v20',
/* originating_system */ 'ONSHAPE BY PTC INC, 1.206',
/* authorisation */ '  ');

FILE_SCHEMA (('AP242_MANAGED_MODEL_BASED_3D_ENGINEERING_MIM_LF { 1 0 10303 442 1 1 4 }'));
ENDSEC;

DATA;
#10=SHAPE_REPRESENTATION_RELATIONSHIP('','',#241,#11);
#11=ADVANCED_BREP_SHAPE_REPRESENTATION('',(#239),#375);
#12=ORIENTED_EDGE('',*,*,#72,.F.);
#13=ORIENTED_EDGE('',*,*,#73,.T.);
#14=ORIENTED_EDGE('',*,*,#74,.T.);
#15=ORIENTED_EDGE('',*,*,#75,.F.);
#16=ORIENTED_EDGE('',*,*,#76,.F.);
#17=ORIENTED_EDGE('',*,*,#77,.T.);
#18=ORIENTED_EDGE('',*,*,#75,.T.);
#19=ORIENTED_EDGE('',*,*,#78,.F.);
#20=ORIENTED_EDGE('',*,*,#79,.F.);
#21=ORIENTED_EDGE('',*,*,#80,.T.);
#22=ORIENTED_EDGE('',*,*,#76,.T.);
#23=ORIENTED_EDGE('',*,*,#81,.F.);
#24=ORIENTED_EDGE('',*,*,#82,.F.);
#25=ORIENTED_EDGE('',*,*,#79,.T.);
#26=ORIENTED_EDGE('',*,*,#83,.T.);
#27=ORIENTED_EDGE('',*,*,#84,.F.);
#28=ORIENTED_EDGE('',*,*,#85,.F.);
#29=ORIENTED_EDGE('',*,*,#84,.T.);
#30=ORIENTED_EDGE('',*,*,#86,.T.);
#31=ORIENTED_EDGE('',*,*,#87,.F.);
#32=ORIENTED_EDGE('',*,*,#88,.F.);
#33=ORIENTED_EDGE('',*,*,#89,.T.);
#34=ORIENTED_EDGE('',*,*,#87,.T.);
#35=ORIENTED_EDGE('',*,*,#90,.F.);
#36=ORIENTED_EDGE('',*,*,#91,.F.);
#37=ORIENTED_EDGE('',*,*,#92,.T.);
#38=ORIENTED_EDGE('',*,*,#88,.T.);
#39=ORIENTED_EDGE('',*,*,#93,.F.);
#40=ORIENTED_EDGE('',*,*,#94,.T.);
#41=ORIENTED_EDGE('',*,*,#95,.T.);
#42=ORIENTED_EDGE('',*,*,#96,.T.);
#43=ORIENTED_EDGE('',*,*,#93,.T.);
#44=ORIENTED_EDGE('',*,*,#90,.T.);
#45=ORIENTED_EDGE('',*,*,#86,.F.);
#46=ORIENTED_EDGE('',*,*,#83,.F.);
#47=ORIENTED_EDGE('',*,*,#81,.T.);
#48=ORIENTED_EDGE('',*,*,#78,.T.);
#49=ORIENTED_EDGE('',*,*,#74,.F.);
#50=ORIENTED_EDGE('',*,*,#97,.F.);
#51=ORIENTED_EDGE('',*,*,#98,.T.);
#52=ORIENTED_EDGE('',*,*,#91,.T.);
#53=ORIENTED_EDGE('',*,*,#96,.F.);
#54=ORIENTED_EDGE('',*,*,#73,.F.);
#55=ORIENTED_EDGE('',*,*,#99,.T.);
#56=ORIENTED_EDGE('',*,*,#100,.T.);
#57=ORIENTED_EDGE('',*,*,#94,.F.);
#58=ORIENTED_EDGE('',*,*,#100,.F.);
#59=ORIENTED_EDGE('',*,*,#101,.T.);
#60=ORIENTED_EDGE('',*,*,#97,.T.);
#61=ORIENTED_EDGE('',*,*,#95,.F.);
#62=ORIENTED_EDGE('',*,*,#99,.F.);
#63=ORIENTED_EDGE('',*,*,#72,.T.);
#64=ORIENTED_EDGE('',*,*,#77,.F.);
#65=ORIENTED_EDGE('',*,*,#80,.F.);
#66=ORIENTED_EDGE('',*,*,#82,.T.);
#67=ORIENTED_EDGE('',*,*,#85,.T.);
#68=ORIENTED_EDGE('',*,*,#89,.F.);
#69=ORIENTED_EDGE('',*,*,#92,.F.);
#70=ORIENTED_EDGE('',*,*,#98,.F.);
#71=ORIENTED_EDGE('',*,*,#101,.F.);
#72=EDGE_CURVE('',#102,#103,#122,.T.);
#73=EDGE_CURVE('',#102,#104,#123,.T.);
#74=EDGE_CURVE('',#104,#105,#124,.T.);
#75=EDGE_CURVE('',#103,#105,#125,.T.);
#76=EDGE_CURVE('',#106,#107,#126,.T.);
#77=EDGE_CURVE('',#106,#103,#127,.T.);
#78=EDGE_CURVE('',#107,#105,#128,.T.);
#79=EDGE_CURVE('',#108,#109,#129,.T.);
#80=EDGE_CURVE('',#108,#106,#130,.T.);
#81=EDGE_CURVE('',#109,#107,#131,.T.);
#82=EDGE_CURVE('',#108,#110,#132,.T.);
#83=EDGE_CURVE('',#109,#111,#133,.T.);
#84=EDGE_CURVE('',#110,#111,#134,.T.);
#85=EDGE_CURVE('',#110,#112,#135,.T.);
#86=EDGE_CURVE('',#111,#113,#136,.T.);
#87=EDGE_CURVE('',#112,#113,#137,.T.);
#88=EDGE_CURVE('',#114,#115,#138,.T.);
#89=EDGE_CURVE('',#114,#112,#139,.T.);
#90=EDGE_CURVE('',#115,#113,#140,.T.);
#91=EDGE_CURVE('',#116,#117,#141,.T.);
#92=EDGE_CURVE('',#116,#114,#142,.T.);
#93=EDGE_CURVE('',#117,#115,#143,.T.);
#94=EDGE_CURVE('',#104,#118,#144,.T.);
#95=EDGE_CURVE('',#118,#119,#145,.T.);
#96=EDGE_CURVE('',#119,#117,#146,.T.);
#97=EDGE_CURVE('',#120,#119,#147,.T.);
#98=EDGE_CURVE('',#120,#116,#148,.T.);
#99=EDGE_CURVE('',#102,#121,#149,.T.);
#100=EDGE_CURVE('',#121,#118,#150,.T.);
#101=EDGE_CURVE('',#121,#120,#151,.T.);
#102=VERTEX_POINT('',#314);
#103=VERTEX_POINT('',#315);
#104=VERTEX_POINT('',#317);
#105=VERTEX_POINT('',#319);
#106=VERTEX_POINT('',#323);
#107=VERTEX_POINT('',#324);
#108=VERTEX_POINT('',#329);
#109=VERTEX_POINT('',#330);
#110=VERTEX_POINT('',#335);
#111=VERTEX_POINT('',#337);
#112=VERTEX_POINT('',#341);
#113=VERTEX_POINT('',#343);
#114=VERTEX_POINT('',#347);
#115=VERTEX_POINT('',#348);
#116=VERTEX_POINT('',#353);
#117=VERTEX_POINT('',#354);
#118=VERTEX_POINT('',#359);
#119=VERTEX_POINT('',#361);
#120=VERTEX_POINT('',#365);
#121=VERTEX_POINT('',#369);
#122=LINE('',#313,#152);
#123=LINE('',#316,#153);
#124=LINE('',#318,#154);
#125=LINE('',#320,#155);
#126=LINE('',#322,#156);
#127=LINE('',#325,#157);
#128=LINE('',#326,#158);
#129=LINE('',#328,#159);
#130=LINE('',#331,#160);
#131=LINE('',#332,#161);
#132=LINE('',#334,#162);
#133=LINE('',#336,#163);
#134=LINE('',#338,#164);
#135=LINE('',#340,#165);
#136=LINE('',#342,#166);
#137=LINE('',#344,#167);
#138=LINE('',#346,#168);
#139=LINE('',#349,#169);
#140=LINE('',#350,#170);
#141=LINE('',#352,#171);
#142=LINE('',#355,#172);
#143=LINE('',#356,#173);
#144=LINE('',#358,#174);
#145=LINE('',#360,#175);
#146=LINE('',#362,#176);
#147=LINE('',#364,#177);
#148=LINE('',#366,#178);
#149=LINE('',#368,#179);
#150=LINE('',#370,#180);
#151=LINE('',#372,#181);
#152=VECTOR('',#259,1.);
#153=VECTOR('',#260,1.);
#154=VECTOR('',#261,1.);
#155=VECTOR('',#262,1.);
#156=VECTOR('',#265,1.);
#157=VECTOR('',#266,1.);
#158=VECTOR('',#267,1.);
#159=VECTOR('',#270,1.);
#160=VECTOR('',#271,1.);
#161=VECTOR('',#272,1.);
#162=VECTOR('',#275,1.);
#163=VECTOR('',#276,1.);
#164=VECTOR('',#277,1.);
#165=VECTOR('',#280,1.);
#166=VECTOR('',#281,1.);
#167=VECTOR('',#282,1.);
#168=VECTOR('',#285,1.);
#169=VECTOR('',#286,1.);
#170=VECTOR('',#287,1.);
#171=VECTOR('',#290,1.);
#172=VECTOR('',#291,1.);
#173=VECTOR('',#292,1.);
#174=VECTOR('',#295,1.);
#175=VECTOR('',#296,1.);
#176=VECTOR('',#297,1.);
#177=VECTOR('',#300,1.);
#178=VECTOR('',#301,1.);
#179=VECTOR('',#304,1.);
#180=VECTOR('',#305,1.);
#181=VECTOR('',#308,1.);
#182=EDGE_LOOP('',(#12,#13,#14,#15));
#183=EDGE_LOOP('',(#16,#17,#18,#19));
#184=EDGE_LOOP('',(#20,#21,#22,#23));
#185=EDGE_LOOP('',(#24,#25,#26,#27));
#186=EDGE_LOOP('',(#28,#29,#30,#31));
#187=EDGE_LOOP('',(#32,#33,#34,#35));
#188=EDGE_LOOP('',(#36,#37,#38,#39));
#189=EDGE_LOOP('',(#40,#41,#42,#43,#44,#45,#46,#47,#48,#49));
#190=EDGE_LOOP('',(#50,#51,#52,#53));
#191=EDGE_LOOP('',(#54,#55,#56,#57));
#192=EDGE_LOOP('',(#58,#59,#60,#61));
#193=EDGE_LOOP('',(#62,#63,#64,#65,#66,#67,#68,#69,#70,#71));
#194=FACE_BOUND('',#182,.T.);
#195=FACE_BOUND('',#183,.T.);
#196=FACE_BOUND('',#184,.T.);
#197=FACE_BOUND('',#185,.T.);
#198=FACE_BOUND('',#186,.T.);
#199=FACE_BOUND('',#187,.T.);
#200=FACE_BOUND('',#188,.T.);
#201=FACE_BOUND('',#189,.T.);
#202=FACE_BOUND('',#190,.T.);
#203=FACE_BOUND('',#191,.T.);
#204=FACE_BOUND('',#192,.T.);
#205=FACE_BOUND('',#193,.T.);
#206=PLANE('',#243);
#207=PLANE('',#244);
#208=PLANE('',#245);
#209=PLANE('',#246);
#210=PLANE('',#247);
#211=PLANE('',#248);
#212=PLANE('',#249);
#213=PLANE('',#250);
#214=PLANE('',#251);
#215=PLANE('',#252);
#216=PLANE('',#253);
#217=PLANE('',#254);
#218=ADVANCED_FACE('',(#194),#206,.F.);
#219=ADVANCED_FACE('',(#195),#207,.T.);
#220=ADVANCED_FACE('',(#196),#208,.T.);
#221=ADVANCED_FACE('',(#197),#209,.F.);
#222=ADVANCED_FACE('',(#198),#210,.F.);
#223=ADVANCED_FACE('',(#199),#211,.T.);
#224=ADVANCED_FACE('',(#200),#212,.T.);
#225=ADVANCED_FACE('',(#201),#213,.F.);
#226=ADVANCED_FACE('',(#202),#214,.T.);
#227=ADVANCED_FACE('',(#203),#215,.T.);
#228=ADVANCED_FACE('',(#204),#216,.T.);
#229=ADVANCED_FACE('',(#205),#217,.T.);
#230=CLOSED_SHELL('',(#218,#219,#220,#221,#222,#223,#224,#225,#226,#227,
#228,#229));
#231=STYLED_ITEM('',(#232),#239);
#232=PRESENTATION_STYLE_ASSIGNMENT((#233));
#233=SURFACE_STYLE_USAGE(.BOTH.,#234);
#234=SURFACE_SIDE_STYLE('',(#235));
#235=SURFACE_STYLE_FILL_AREA(#236);
#236=FILL_AREA_STYLE('',(#237));
#237=FILL_AREA_STYLE_COLOUR('',#238);
#238=COLOUR_RGB('',0.972549019607843,0.529411764705882,0.00392156862745098);
#239=MANIFOLD_SOLID_BREP('Part 6',#230);
#240=SHAPE_DEFINITION_REPRESENTATION(#380,#241);
#241=SHAPE_REPRESENTATION('Part 6',(#242),#375);
#242=AXIS2_PLACEMENT_3D('',#311,#255,#256);
#243=AXIS2_PLACEMENT_3D('',#312,#257,#258);
#244=AXIS2_PLACEMENT_3D('',#321,#263,#264);
#245=AXIS2_PLACEMENT_3D('',#327,#268,#269);
#246=AXIS2_PLACEMENT_3D('',#333,#273,#274);
#247=AXIS2_PLACEMENT_3D('',#339,#278,#279);
#248=AXIS2_PLACEMENT_3D('',#345,#283,#284);
#249=AXIS2_PLACEMENT_3D('',#351,#288,#289);
#250=AXIS2_PLACEMENT_3D('',#357,#293,#294);
#251=AXIS2_PLACEMENT_3D('',#363,#298,#299);
#252=AXIS2_PLACEMENT_3D('',#367,#302,#303);
#253=AXIS2_PLACEMENT_3D('',#371,#306,#307);
#254=AXIS2_PLACEMENT_3D('',#373,#309,#310);
#255=DIRECTION('',(0.,0.,1.));
#256=DIRECTION('',(1.,0.,0.));
#257=DIRECTION('',(0.,1.,0.));
#258=DIRECTION('',(0.,0.,1.));
#259=DIRECTION('',(1.,0.,0.));
#260=DIRECTION('',(0.,0.,-1.));
#261=DIRECTION('',(1.,0.,0.));
#262=DIRECTION('',(0.,0.,-1.));
#263=DIRECTION('',(0.707106781186549,-0.707106781186546,0.));
#264=DIRECTION('',(0.707106781186546,0.707106781186549,0.));
#265=DIRECTION('',(0.,0.,-1.));
#266=DIRECTION('',(-0.707106781186546,-0.707106781186549,0.));
#267=DIRECTION('',(-0.707106781186546,-0.707106781186549,0.));
#268=DIRECTION('',(0.707106781186549,0.707106781186546,0.));
#269=DIRECTION('',(-0.707106781186546,0.707106781186549,0.));
#270=DIRECTION('',(0.,0.,-1.));
#271=DIRECTION('',(0.707106781186546,-0.707106781186549,0.));
#272=DIRECTION('',(0.707106781186546,-0.707106781186549,0.));
#273=DIRECTION('',(0.707106781186548,-0.707106781186548,0.));
#274=DIRECTION('',(0.707106781186548,0.707106781186548,0.));
#275=DIRECTION('',(-0.707106781186548,-0.707106781186548,0.));
#276=DIRECTION('',(-0.707106781186548,-0.707106781186548,0.));
#277=DIRECTION('',(0.,0.,-1.));
#278=DIRECTION('',(1.,0.,0.));
#279=DIRECTION('',(0.,0.,-1.));
#280=DIRECTION('',(0.,-1.,0.));
#281=DIRECTION('',(0.,-1.,0.));
#282=DIRECTION('',(0.,0.,-1.));
#283=DIRECTION('',(0.,1.,0.));
#284=DIRECTION('',(0.,0.,1.));
#285=DIRECTION('',(0.,0.,-1.));
#286=DIRECTION('',(1.,0.,0.));
#287=DIRECTION('',(1.,0.,0.));
#288=DIRECTION('',(-1.,0.,0.));
#289=DIRECTION('',(0.,0.,1.));
#290=DIRECTION('',(0.,0.,-1.));
#291=DIRECTION('',(0.,1.,0.));
#292=DIRECTION('',(0.,1.,0.));
#293=DIRECTION('',(0.,0.,1.));
#294=DIRECTION('',(1.,0.,0.));
#295=DIRECTION('',(0.,-1.,0.));
#296=DIRECTION('',(-1.,0.,0.));
#297=DIRECTION('',(-0.707106781186548,0.707106781186548,0.));
#298=DIRECTION('',(-0.707106781186548,-0.707106781186548,0.));
#299=DIRECTION('',(0.707106781186548,-0.707106781186548,0.));
#300=DIRECTION('',(0.,0.,-1.));
#301=DIRECTION('',(-0.707106781186548,0.707106781186548,0.));
#302=DIRECTION('',(1.,0.,0.));
#303=DIRECTION('',(0.,0.,-1.));
#304=DIRECTION('',(0.,-1.,0.));
#305=DIRECTION('',(0.,0.,-1.));
#306=DIRECTION('',(0.,-1.,0.));
#307=DIRECTION('',(0.,0.,-1.));
#308=DIRECTION('',(-1.,0.,0.));
#309=DIRECTION('',(0.,0.,1.));
#310=DIRECTION('',(1.,0.,0.));
#311=CARTESIAN_POINT('',(0.,0.,0.));
#312=CARTESIAN_POINT('',(6.93889390390723E-18,-0.0428,0.125752));
#313=CARTESIAN_POINT('',(6.93889390390723E-18,-0.0428,0.12575));
#314=CARTESIAN_POINT('',(-0.0415,-0.0428,0.12575));
#315=CARTESIAN_POINT('',(-0.0391140768363208,-0.0428,0.12575));
#316=CARTESIAN_POINT('',(-0.0415,-0.0428,0.125752));
#317=CARTESIAN_POINT('',(-0.0415,-0.0428,0.004));
#318=CARTESIAN_POINT('',(6.93889390390723E-18,-0.0428,0.004));
#319=CARTESIAN_POINT('',(-0.0391140768363208,-0.0428,0.004));
#320=CARTESIAN_POINT('',(-0.0391140768363208,-0.0428,0.125752));
#321=CARTESIAN_POINT('',(-0.0384405576272406,-0.0421264807909199,0.125752));
#322=CARTESIAN_POINT('',(-0.0377670384181603,-0.0414529615818397,0.125752));
#323=CARTESIAN_POINT('',(-0.0377670384181603,-0.0414529615818397,0.12575));
#324=CARTESIAN_POINT('',(-0.0377670384181603,-0.0414529615818397,0.004));
#325=CARTESIAN_POINT('',(-0.0384405576272406,-0.0421264807909199,0.12575));
#326=CARTESIAN_POINT('',(-0.0384405576272406,-0.0421264807909199,0.004));
#327=CARTESIAN_POINT('',(-0.03961,-0.03961,0.125752));
#328=CARTESIAN_POINT('',(-0.0414529615818397,-0.0377670384181603,0.125752));
#329=CARTESIAN_POINT('',(-0.0414529615818397,-0.0377670384181603,0.12575));
#330=CARTESIAN_POINT('',(-0.0414529615818397,-0.0377670384181603,0.004));
#331=CARTESIAN_POINT('',(-0.03961,-0.03961,0.12575));
#332=CARTESIAN_POINT('',(-0.03961,-0.03961,0.004));
#333=CARTESIAN_POINT('',(-0.0421264807909199,-0.0384405576272406,0.125752));
#334=CARTESIAN_POINT('',(-0.0421264807909199,-0.0384405576272406,0.12575));
#335=CARTESIAN_POINT('',(-0.0428,-0.0391140768363208,0.12575));
#336=CARTESIAN_POINT('',(-0.0421264807909199,-0.0384405576272406,0.004));
#337=CARTESIAN_POINT('',(-0.0428,-0.0391140768363208,0.004));
#338=CARTESIAN_POINT('',(-0.0428,-0.0391140768363208,0.125752));
#339=CARTESIAN_POINT('',(-0.0428,0.,0.125752));
#340=CARTESIAN_POINT('',(-0.0428,0.,0.12575));
#341=CARTESIAN_POINT('',(-0.0428,-0.0415,0.12575));
#342=CARTESIAN_POINT('',(-0.0428,0.,0.004));
#343=CARTESIAN_POINT('',(-0.0428,-0.0415,0.004));
#344=CARTESIAN_POINT('',(-0.0428,-0.0415,0.125752));
#345=CARTESIAN_POINT('',(-0.0437,-0.0415,0.125752));
#346=CARTESIAN_POINT('',(-0.0462,-0.0415,0.125752));
#347=CARTESIAN_POINT('',(-0.0462,-0.0415,0.12575));
#348=CARTESIAN_POINT('',(-0.0462,-0.0415,0.004));
#349=CARTESIAN_POINT('',(-0.0437,-0.0415,0.12575));
#350=CARTESIAN_POINT('',(-0.0437,-0.0415,0.004));
#351=CARTESIAN_POINT('',(-0.0462,0.,0.125752));
#352=CARTESIAN_POINT('',(-0.0462,-0.042722741699797,0.125752));
#353=CARTESIAN_POINT('',(-0.0462,-0.042722741699797,0.12575));
#354=CARTESIAN_POINT('',(-0.0462,-0.042722741699797,0.004));
#355=CARTESIAN_POINT('',(-0.0462,0.,0.12575));
#356=CARTESIAN_POINT('',(-0.0462,0.,0.004));
#357=CARTESIAN_POINT('',(0.,0.,0.004));
#358=CARTESIAN_POINT('',(-0.0415,-0.0454,0.004));
#359=CARTESIAN_POINT('',(-0.0415,-0.0462,0.004));
#360=CARTESIAN_POINT('',(0.,-0.0462,0.004));
#361=CARTESIAN_POINT('',(-0.042722741699797,-0.0462,0.004));
#362=CARTESIAN_POINT('',(-0.0444613708498985,-0.0444613708498985,0.004));
#363=CARTESIAN_POINT('',(-0.0444613708498985,-0.0444613708498985,0.125752));
#364=CARTESIAN_POINT('',(-0.042722741699797,-0.0462,0.125752));
#365=CARTESIAN_POINT('',(-0.042722741699797,-0.0462,0.12575));
#366=CARTESIAN_POINT('',(-0.0444613708498985,-0.0444613708498985,0.12575));
#367=CARTESIAN_POINT('',(-0.0415,-0.0454,0.125752));
#368=CARTESIAN_POINT('',(-0.0415,-0.0454,0.12575));
#369=CARTESIAN_POINT('',(-0.0415,-0.0462,0.12575));
#370=CARTESIAN_POINT('',(-0.0415,-0.0462,0.125752));
#371=CARTESIAN_POINT('',(0.,-0.0462,0.125752));
#372=CARTESIAN_POINT('',(0.,-0.0462,0.12575));
#373=CARTESIAN_POINT('',(0.,-6.93889390390723E-18,0.12575));
#374=MECHANICAL_DESIGN_GEOMETRIC_PRESENTATION_REPRESENTATION('',(#231),
#375);
#375=(
GEOMETRIC_REPRESENTATION_CONTEXT(3)
GLOBAL_UNCERTAINTY_ASSIGNED_CONTEXT((#376))
GLOBAL_UNIT_ASSIGNED_CONTEXT((#379,#378,#377))
REPRESENTATION_CONTEXT('Part 6','TOP_LEVEL_ASSEMBLY_PART')
);
#376=UNCERTAINTY_MEASURE_WITH_UNIT(LENGTH_MEASURE(1.E-8),#379,
'DISTANCE_ACCURACY_VALUE','Maximum Tolerance applied to model');
#377=(
NAMED_UNIT(*)
SI_UNIT($,.STERADIAN.)
SOLID_ANGLE_UNIT()
);
#378=(
NAMED_UNIT(*)
PLANE_ANGLE_UNIT()
SI_UNIT($,.RADIAN.)
);
#379=(
LENGTH_UNIT()
NAMED_UNIT(*)
SI_UNIT($,.METRE.)
);
#380=PRODUCT_DEFINITION_SHAPE('','',#381);
#381=PRODUCT_DEFINITION('','',#383,#382);
#382=PRODUCT_DEFINITION_CONTEXT('',#389,'design');
#383=PRODUCT_DEFINITION_FORMATION_WITH_SPECIFIED_SOURCE('','',#385,
 .NOT_KNOWN.);
#384=PRODUCT_RELATED_PRODUCT_CATEGORY('','',(#385));
#385=PRODUCT('Part 6','Part 6','Part 6',(#387));
#386=PRODUCT_CATEGORY('','');
#387=PRODUCT_CONTEXT('',#389,'mechanical');
#388=APPLICATION_PROTOCOL_DEFINITION('international standard',
'ap242_managed_model_based_3d_engineering',2011,#389);
#389=APPLICATION_CONTEXT('managed model based 3d engineering');
ENDSEC;
END-ISO-10303-21;
