999
"DXF R12 Output" (www.mydxf.blogspot.com)
 0 
SECTION
 2 
HEADER
 9 
$ACADVER
 1 
AC1009
 9 
$EXTMIN
 10 
 0 
 20 
 0 
 9 
$EXTMAX
 10 
 8.5 
 20 
 11 
 0 
ENDSEC
 0 
SECTION
 2 
ENTITIES
0
POLYLINE
8
Layer 1
62
250
70
0
10
0.000000
20
0.000000
66
1
0
VERTEX
8
Layer 1
10
3.617924
20
120.757069
70
0
0
VERTEX
8
Layer 1
10
79.382077
20
120.757069
70
0
0
VERTEX
8
Layer 1
10
79.382077
20
3.992929
70
0
0
VERTEX
8
Layer 1
10
3.617925
20
3.992929
70
0
0
VERTEX
8
Layer 1
10
3.617924
20
120.757069
70
0
0
SEQEND
8
Layer 1
0
POLYLINE
8
Layer 1
62
7
70
0
10
0.000000
20
0.000000
66
1
0
VERTEX
8
Layer 1
10
65.795564
20
107.376657
70
0
0
VERTEX
8
Layer 1
10
66.305469
20
107.827783
70
0
0
VERTEX
8
Layer 1
10
66.347033
20
108.507334
70
0
0
VERTEX
8
Layer 1
10
60.554953
20
125.328794
70
0
0
VERTEX
8
Layer 1
10
60.103827
20
125.838699
70
0
0
VERTEX
8
Layer 1
10
59.424276
20
125.880263
70
0
0
VERTEX
8
Layer 1
10
58.914371
20
125.429137
70
0
0
VERTEX
8
Layer 1
10
58.872807
20
124.749586
70
0
0
VERTEX
8
Layer 1
10
64.664887
20
107.928126
70
0
0
VERTEX
8
Layer 1
10
65.116013
20
107.418221
70
0
0
VERTEX
8
Layer 1
10
65.795564
20
107.376657
70
0
0
VERTEX
8
Layer 1
10
65.795564
20
107.376657
70
0
0
SEQEND
8
Layer 1
0
POLYLINE
8
Layer 1
62
7
70
0
10
0.000000
20
0.000000
66
1
0
VERTEX
8
Layer 1
10
65.015669
20
109.641641
70
0
0
VERTEX
8
Layer 1
10
67.493187
20
114.721295
70
0
0
VERTEX
8
Layer 1
10
67.534763
20
115.400872
70
0
0
VERTEX
8
Layer 1
10
67.083612
20
115.910789
70
0
0
VERTEX
8
Layer 1
10
66.404036
20
115.952365
70
0
0
VERTEX
8
Layer 1
10
65.894118
20
115.501215
70
0
0
VERTEX
8
Layer 1
10
64.196520
20
112.020628
70
0
0
VERTEX
8
Layer 1
10
60.715934
20
113.718227
70
0
0
VERTEX
8
Layer 1
10
60.036358
20
113.759803
70
0
0
VERTEX
8
Layer 1
10
59.526440
20
113.308652
70
0
0
VERTEX
8
Layer 1
10
59.484864
20
112.629076
70
0
0
VERTEX
8
Layer 1
10
59.936015
20
112.119158
70
0
0
VERTEX
8
Layer 1
10
65.015669
20
109.641641
70
0
0
SEQEND
8
Layer 1
0
POLYLINE
8
Layer 1
62
7
70
0
10
0.000000
20
0.000000
66
1
0
VERTEX
8
Layer 1
10
63.454466
20
114.175714
70
0
0
VERTEX
8
Layer 1
10
65.501205
20
118.371863
70
0
0
VERTEX
8
Layer 1
10
65.542781
20
119.051439
70
0
0
VERTEX
8
Layer 1
10
65.091630
20
119.561357
70
0
0
VERTEX
8
Layer 1
10
64.412054
20
119.602933
70
0
0
VERTEX
8
Layer 1
10
63.902136
20
119.151782
70
0
0
VERTEX
8
Layer 1
10
62.635374
20
116.554537
70
0
0
VERTEX
8
Layer 1
10
60.038129
20
117.821301
70
0
0
VERTEX
8
Layer 1
10
59.358552
20
117.862877
70
0
0
VERTEX
8
Layer 1
10
58.848635
20
117.411726
70
0
0
VERTEX
8
Layer 1
10
58.807059
20
116.732150
70
0
0
VERTEX
8
Layer 1
10
59.258210
20
116.222232
70
0
0
VERTEX
8
Layer 1
10
63.454466
20
114.175714
70
0
0
SEQEND
8
Layer 1
0
POLYLINE
8
Layer 1
62
7
70
0
10
0.000000
20
0.000000
66
1
0
VERTEX
8
Layer 1
10
61.828894
20
118.896729
70
0
0
VERTEX
8
Layer 1
10
63.199437
20
121.706473
70
0
0
VERTEX
8
Layer 1
10
63.241013
20
122.386050
70
0
0
VERTEX
8
Layer 1
10
62.789862
20
122.895968
70
0
0
VERTEX
8
Layer 1
10
62.110286
20
122.937544
70
0
0
VERTEX
8
Layer 1
10
61.600368
20
122.486393
70
0
0
VERTEX
8
Layer 1
10
61.009801
20
121.275552
70
0
0
VERTEX
8
Layer 1
10
59.798961
20
121.866120
70
0
0
VERTEX
8
Layer 1
10
59.119385
20
121.907696
70
0
0
VERTEX
8
Layer 1
10
58.609467
20
121.456545
70
0
0
VERTEX
8
Layer 1
10
58.567891
20
120.776969
70
0
0
VERTEX
8
Layer 1
10
59.019042
20
120.267051
70
0
0
VERTEX
8
Layer 1
10
61.828894
20
118.896729
70
0
0
SEQEND
8
Layer 1
0
POLYLINE
8
Layer 1
62
7
70
0
10
0.000000
20
0.000000
66
1
0
VERTEX
8
Layer 1
10
65.568062
20
107.330294
70
0
0
VERTEX
8
Layer 1
10
66.177298
20
107.634149
70
0
0
VERTEX
8
Layer 1
10
77.849070
20
121.060968
70
0
0
VERTEX
8
Layer 1
10
78.065090
20
121.706602
70
0
0
VERTEX
8
Layer 1
10
77.761311
20
122.315886
70
0
0
VERTEX
8
Layer 1
10
77.115678
20
122.531906
70
0
0
VERTEX
8
Layer 1
10
76.506393
20
122.228129
70
0
0
VERTEX
8
Layer 1
10
64.834622
20
108.801311
70
0
0
VERTEX
8
Layer 1
10
64.618601
20
108.155676
70
0
0
VERTEX
8
Layer 1
10
64.922379
20
107.546392
70
0
0
VERTEX
8
Layer 1
10
65.568062
20
107.330294
70
0
0
VERTEX
8
Layer 1
10
65.568062
20
107.330294
70
0
0
SEQEND
8
Layer 1
0
POLYLINE
8
Layer 1
62
7
70
0
10
0.000000
20
0.000000
66
1
0
VERTEX
8
Layer 1
10
72.131804
20
109.748574
70
0
0
VERTEX
8
Layer 1
10
72.741125
20
110.052314
70
0
0
VERTEX
8
Layer 1
10
72.957195
20
110.697948
70
0
0
VERTEX
8
Layer 1
10
72.653455
20
111.307267
70
0
0
VERTEX
8
Layer 1
10
72.007822
20
111.523338
70
0
0
VERTEX
8
Layer 1
10
68.144567
20
111.253160
70
0
0
VERTEX
8
Layer 1
10
67.874445
20
115.116251
70
0
0
VERTEX
8
Layer 1
10
67.570705
20
115.725571
70
0
0
VERTEX
8
Layer 1
10
66.925072
20
115.941642
70
0
0
VERTEX
8
Layer 1
10
66.315752
20
115.637902
70
0
0
VERTEX
8
Layer 1
10
66.099680
20
114.992269
70
0
0
VERTEX
8
Layer 1
10
66.494005
20
109.354305
70
0
0
VERTEX
8
Layer 1
10
72.131804
20
109.748574
70
0
0
SEQEND
8
Layer 1
0
POLYLINE
8
Layer 1
62
7
70
0
10
0.000000
20
0.000000
66
1
0
VERTEX
8
Layer 1
10
74.297271
20
113.298936
70
0
0
VERTEX
8
Layer 1
10
74.906616
20
113.602754
70
0
0
VERTEX
8
Layer 1
10
75.122606
20
114.248474
70
0
0
VERTEX
8
Layer 1
10
74.818830
20
114.857667
70
0
0
VERTEX
8
Layer 1
10
74.173288
20
115.073701
70
0
0
VERTEX
8
Layer 1
10
71.290589
20
114.872147
70
0
0
VERTEX
8
Layer 1
10
71.089034
20
117.754846
70
0
0
VERTEX
8
Layer 1
10
70.785217
20
118.364191
70
0
0
VERTEX
8
Layer 1
10
70.139496
20
118.580181
70
0
0
VERTEX
8
Layer 1
10
69.530279
20
118.276329
70
0
0
VERTEX
8
Layer 1
10
69.314326
20
117.630700
70
0
0
VERTEX
8
Layer 1
10
69.639863
20
112.973236
70
0
0
VERTEX
8
Layer 1
10
74.297271
20
113.298936
70
0
0
SEQEND
8
Layer 1
0
POLYLINE
8
Layer 1
62
7
70
0
10
0.000000
20
0.000000
66
1
0
VERTEX
8
Layer 1
10
76.034244
20
116.959740
70
0
0
VERTEX
8
Layer 1
10
76.643564
20
117.263480
70
0
0
VERTEX
8
Layer 1
10
76.859635
20
117.909113
70
0
0
VERTEX
8
Layer 1
10
76.555895
20
118.518433
70
0
0
VERTEX
8
Layer 1
10
75.910262
20
118.734505
70
0
0
VERTEX
8
Layer 1
10
74.566177
20
118.640483
70
0
0
VERTEX
8
Layer 1
10
74.472212
20
119.984403
70
0
0
VERTEX
8
Layer 1
10
74.168437
20
120.593596
70
0
0
VERTEX
8
Layer 1
10
73.522896
20
120.809630
70
0
0
VERTEX
8
Layer 1
10
72.913576
20
120.505890
70
0
0
VERTEX
8
Layer 1
10
72.697504
20
119.860257
70
0
0
VERTEX
8
Layer 1
10
72.915616
20
116.741629
70
0
0
VERTEX
8
Layer 1
10
76.034244
20
116.959740
70
0
0
SEQEND
8
Layer 1
0
POLYLINE
8
Layer 1
62
7
70
0
10
0.000000
20
0.000000
66
1
0
VERTEX
8
Layer 1
10
83.467234
20
104.085545
70
0
0
VERTEX
8
Layer 1
10
83.842995
20
104.653353
70
0
0
VERTEX
8
Layer 1
10
83.707264
20
105.320501
70
0
0
VERTEX
8
Layer 1
10
83.139546
20
105.696273
70
0
0
VERTEX
8
Layer 1
10
65.675695
20
109.090915
70
0
0
VERTEX
8
Layer 1
10
65.008548
20
108.955183
70
0
0
VERTEX
8
Layer 1
10
64.632775
20
108.387465
70
0
0
VERTEX
8
Layer 1
10
64.768507
20
107.720318
70
0
0
VERTEX
8
Layer 1
10
65.336225
20
107.344545
70
0
0
VERTEX
8
Layer 1
10
82.800077
20
103.949904
70
0
0
VERTEX
8
Layer 1
10
83.467234
20
104.085545
70
0
0
VERTEX
8
Layer 1
10
83.467234
20
104.085545
70
0
0
SEQEND
8
Layer 1
0
POLYLINE
8
Layer 1
62
7
70
0
10
0.000000
20
0.000000
66
1
0
VERTEX
8
Layer 1
10
71.379543
20
103.004888
70
0
0
VERTEX
8
Layer 1
10
71.755283
20
103.572646
70
0
0
VERTEX
8
Layer 1
10
71.619500
20
104.239798
70
0
0
VERTEX
8
Layer 1
10
69.454006
20
107.450262
70
0
0
VERTEX
8
Layer 1
10
72.664634
20
109.615811
70
0
0
VERTEX
8
Layer 1
10
73.040375
20
110.183568
70
0
0
VERTEX
8
Layer 1
10
72.904592
20
110.850720
70
0
0
VERTEX
8
Layer 1
10
72.336834
20
111.226461
70
0
0
VERTEX
8
Layer 1
10
71.669682
20
111.090677
70
0
0
VERTEX
8
Layer 1
10
66.984296
20
107.930396
70
0
0
VERTEX
8
Layer 1
10
70.144634
20
103.244844
70
0
0
VERTEX
8
Layer 1
10
70.712391
20
102.869105
70
0
0
VERTEX
8
Layer 1
10
71.379543
20
103.004888
70
0
0
VERTEX
8
Layer 1
10
71.379543
20
103.004888
70
0
0
SEQEND
8
Layer 1
0
POLYLINE
8
Layer 1
62
7
70
0
10
0.000000
20
0.000000
66
1
0
VERTEX
8
Layer 1
10
75.536991
20
102.904683
70
0
0
VERTEX
8
Layer 1
10
75.912850
20
103.472430
70
0
0
VERTEX
8
Layer 1
10
75.777112
20
104.139649
70
0
0
VERTEX
8
Layer 1
10
74.161175
20
106.535339
70
0
0
VERTEX
8
Layer 1
10
76.556865
20
108.151276
70
0
0
VERTEX
8
Layer 1
10
76.932556
20
108.718948
70
0
0
VERTEX
8
Layer 1
10
76.796879
20
109.386021
70
0
0
VERTEX
8
Layer 1
10
76.229132
20
109.761880
70
0
0
VERTEX
8
Layer 1
10
75.561912
20
109.626142
70
0
0
VERTEX
8
Layer 1
10
71.691300
20
107.015416
70
0
0
VERTEX
8
Layer 1
10
74.302189
20
103.144861
70
0
0
VERTEX
8
Layer 1
10
74.869850
20
102.769051
70
0
0
VERTEX
8
Layer 1
10
75.536991
20
102.904683
70
0
0
VERTEX
8
Layer 1
10
75.536991
20
102.904683
70
0
0
SEQEND
8
Layer 1
0
POLYLINE
8
Layer 1
62
7
70
0
10
0.000000
20
0.000000
66
1
0
VERTEX
8
Layer 1
10
79.575732
20
103.230876
70
0
0
VERTEX
8
Layer 1
10
79.951423
20
103.798548
70
0
0
VERTEX
8
Layer 1
10
79.815745
20
104.465621
70
0
0
VERTEX
8
Layer 1
10
79.062392
20
105.582496
70
0
0
VERTEX
8
Layer 1
10
80.179432
20
106.335906
70
0
0
VERTEX
8
Layer 1
10
80.555172
20
106.903663
70
0
0
VERTEX
8
Layer 1
10
80.419388
20
107.570815
70
0
0
VERTEX
8
Layer 1
10
79.851631
20
107.946555
70
0
0
VERTEX
8
Layer 1
10
79.184480
20
107.810772
70
0
0
VERTEX
8
Layer 1
10
76.592682
20
106.062630
70
0
0
VERTEX
8
Layer 1
10
78.340823
20
103.470833
70
0
0
VERTEX
8
Layer 1
10
78.908580
20
103.095093
70
0
0
VERTEX
8
Layer 1
10
79.575732
20
103.230876
70
0
0
VERTEX
8
Layer 1
10
79.575732
20
103.230876
70
0
0
SEQEND
8
Layer 1
0
POLYLINE
8
Layer 1
62
7
70
1
10
0.000000
20
0.000000
66
1
0
VERTEX
8
Layer 1
10
71.587644
20
90.555197
70
0
0
VERTEX
8
Layer 1
10
72.097549
20
91.006323
70
0
0
VERTEX
8
Layer 1
10
72.139113
20
91.685874
70
0
0
VERTEX
8
Layer 1
10
66.347033
20
108.507334
70
0
0
VERTEX
8
Layer 1
10
65.895907
20
109.017239
70
0
0
VERTEX
8
Layer 1
10
65.216356
20
109.058803
70
0
0
VERTEX
8
Layer 1
10
64.706451
20
108.607677
70
0
0
VERTEX
8
Layer 1
10
64.664887
20
107.928126
70
0
0
VERTEX
8
Layer 1
10
70.456967
20
91.106666
70
0
0
VERTEX
8
Layer 1
10
70.908093
20
90.596761
70
0
0
VERTEX
8
Layer 1
10
71.587644
20
90.555197
70
0
0
VERTEX
8
Layer 1
10
71.587644
20
90.555197
70
0
0
SEQEND
8
Layer 1
0
POLYLINE
8
Layer 1
62
7
70
0
10
0.000000
20
0.000000
66
1
0
VERTEX
8
Layer 1
10
70.975660
20
102.675641
70
0
0
VERTEX
8
Layer 1
10
71.485480
20
103.126808
70
0
0
VERTEX
8
Layer 1
10
71.527056
20
103.806384
70
0
0
VERTEX
8
Layer 1
10
71.075905
20
104.316302
70
0
0
VERTEX
8
Layer 1
10
65.996251
20
106.793819
70
0
0
VERTEX
8
Layer 1
10
63.518733
20
101.714165
70
0
0
VERTEX
8
Layer 1
10
63.477157
20
101.034588
70
0
0
VERTEX
8
Layer 1
10
63.928308
20
100.524671
70
0
0
VERTEX
8
Layer 1
10
64.607884
20
100.483095
70
0
0
VERTEX
8
Layer 1
10
65.117802
20
100.934245
70
0
0
VERTEX
8
Layer 1
10
66.815400
20
104.414832
70
0
0
VERTEX
8
Layer 1
10
70.295986
20
102.717233
70
0
0
VERTEX
8
Layer 1
10
70.975660
20
102.675641
70
0
0
VERTEX
8
Layer 1
10
70.975660
20
102.675641
70
0
0
SEQEND
8
Layer 1
0
POLYLINE
8
Layer 1
62
7
70
0
10
0.000000
20
0.000000
66
1
0
VERTEX
8
Layer 1
10
71.653301
20
98.572511
70
0
0
VERTEX
8
Layer 1
10
72.163285
20
99.023734
70
0
0
VERTEX
8
Layer 1
10
72.204861
20
99.703310
70
0
0
VERTEX
8
Layer 1
10
71.753710
20
100.213228
70
0
0
VERTEX
8
Layer 1
10
67.557454
20
102.259746
70
0
0
VERTEX
8
Layer 1
10
65.510715
20
98.063597
70
0
0
VERTEX
8
Layer 1
10
65.469139
20
97.384021
70
0
0
VERTEX
8
Layer 1
10
65.920290
20
96.874103
70
0
0
VERTEX
8
Layer 1
10
66.599866
20
96.832527
70
0
0
VERTEX
8
Layer 1
10
67.109784
20
97.283678
70
0
0
VERTEX
8
Layer 1
10
68.376546
20
99.880923
70
0
0
VERTEX
8
Layer 1
10
70.973791
20
98.614159
70
0
0
VERTEX
8
Layer 1
10
71.653301
20
98.572511
70
0
0
VERTEX
8
Layer 1
10
71.653301
20
98.572511
70
0
0
SEQEND
8
Layer 1
0
POLYLINE
8
Layer 1
62
7
70
0
10
0.000000
20
0.000000
66
1
0
VERTEX
8
Layer 1
10
71.892469
20
94.527691
70
0
0
VERTEX
8
Layer 1
10
72.402453
20
94.978915
70
0
0
VERTEX
8
Layer 1
10
72.444029
20
95.658491
70
0
0
VERTEX
8
Layer 1
10
71.992878
20
96.168409
70
0
0
VERTEX
8
Layer 1
10
69.183026
20
97.538731
70
0
0
VERTEX
8
Layer 1
10
67.812483
20
94.728987
70
0
0
VERTEX
8
Layer 1
10
67.770907
20
94.049410
70
0
0
VERTEX
8
Layer 1
10
68.222058
20
93.539492
70
0
0
VERTEX
8
Layer 1
10
68.901634
20
93.497916
70
0
0
VERTEX
8
Layer 1
10
69.411552
20
93.949067
70
0
0
VERTEX
8
Layer 1
10
70.002119
20
95.159908
70
0
0
VERTEX
8
Layer 1
10
71.212959
20
94.569340
70
0
0
VERTEX
8
Layer 1
10
71.892469
20
94.527691
70
0
0
VERTEX
8
Layer 1
10
71.892469
20
94.527691
70
0
0
SEQEND
8
Layer 1
0
POLYLINE
8
Layer 1
62
7
70
0
10
0.000000
20
0.000000
66
1
0
VERTEX
8
Layer 1
10
53.896290
20
93.903475
70
0
0
VERTEX
8
Layer 1
10
54.505527
20
94.207331
70
0
0
VERTEX
8
Layer 1
10
66.177298
20
107.634149
70
0
0
VERTEX
8
Layer 1
10
66.393319
20
108.279784
70
0
0
VERTEX
8
Layer 1
10
66.089541
20
108.889068
70
0
0
VERTEX
8
Layer 1
10
65.443906
20
109.105089
70
0
0
VERTEX
8
Layer 1
10
64.834622
20
108.801311
70
0
0
VERTEX
8
Layer 1
10
53.162850
20
95.374492
70
0
0
VERTEX
8
Layer 1
10
52.946830
20
94.728858
70
0
0
VERTEX
8
Layer 1
10
53.250609
20
94.119574
70
0
0
VERTEX
8
Layer 1
10
53.896290
20
93.903475
70
0
0
VERTEX
8
Layer 1
10
53.896290
20
93.903475
70
0
0
SEQEND
8
Layer 1
0
POLYLINE
8
Layer 1
62
7
70
0
10
0.000000
20
0.000000
66
1
0
VERTEX
8
Layer 1
10
64.086848
20
100.493818
70
0
0
VERTEX
8
Layer 1
10
64.696168
20
100.797558
70
0
0
VERTEX
8
Layer 1
10
64.912240
20
101.443191
70
0
0
VERTEX
8
Layer 1
10
64.517915
20
107.081155
70
0
0
VERTEX
8
Layer 1
10
58.880116
20
106.686886
70
0
0
VERTEX
8
Layer 1
10
58.270795
20
106.383146
70
0
0
VERTEX
8
Layer 1
10
58.054725
20
105.737512
70
0
0
VERTEX
8
Layer 1
10
58.358465
20
105.128193
70
0
0
VERTEX
8
Layer 1
10
59.004098
20
104.912122
70
0
0
VERTEX
8
Layer 1
10
62.867353
20
105.182300
70
0
0
VERTEX
8
Layer 1
10
63.137475
20
101.319209
70
0
0
VERTEX
8
Layer 1
10
63.441215
20
100.709889
70
0
0
VERTEX
8
Layer 1
10
64.086848
20
100.493818
70
0
0
VERTEX
8
Layer 1
10
64.086848
20
100.493818
70
0
0
SEQEND
8
Layer 1
0
POLYLINE
8
Layer 1
62
7
70
0
10
0.000000
20
0.000000
66
1
0
VERTEX
8
Layer 1
10
60.872424
20
97.855279
70
0
0
VERTEX
8
Layer 1
10
61.481641
20
98.159131
70
0
0
VERTEX
8
Layer 1
10
61.697594
20
98.804760
70
0
0
VERTEX
8
Layer 1
10
61.372057
20
103.462224
70
0
0
VERTEX
8
Layer 1
10
56.714649
20
103.136524
70
0
0
VERTEX
8
Layer 1
10
56.105304
20
102.832706
70
0
0
VERTEX
8
Layer 1
10
55.889314
20
102.186986
70
0
0
VERTEX
8
Layer 1
10
56.193090
20
101.577793
70
0
0
VERTEX
8
Layer 1
10
56.838632
20
101.361759
70
0
0
VERTEX
8
Layer 1
10
59.721331
20
101.563313
70
0
0
VERTEX
8
Layer 1
10
59.922886
20
98.680614
70
0
0
VERTEX
8
Layer 1
10
60.226703
20
98.071269
70
0
0
VERTEX
8
Layer 1
10
60.872424
20
97.855279
70
0
0
VERTEX
8
Layer 1
10
60.872424
20
97.855279
70
0
0
SEQEND
8
Layer 1
0
POLYLINE
8
Layer 1
62
7
70
0
10
0.000000
20
0.000000
66
1
0
VERTEX
8
Layer 1
10
57.489024
20
95.625830
70
0
0
VERTEX
8
Layer 1
10
58.098344
20
95.929570
70
0
0
VERTEX
8
Layer 1
10
58.314416
20
96.575203
70
0
0
VERTEX
8
Layer 1
10
58.096304
20
99.693831
70
0
0
VERTEX
8
Layer 1
10
54.977676
20
99.475720
70
0
0
VERTEX
8
Layer 1
10
54.368356
20
99.171980
70
0
0
VERTEX
8
Layer 1
10
54.152285
20
98.526347
70
0
0
VERTEX
8
Layer 1
10
54.456025
20
97.917027
70
0
0
VERTEX
8
Layer 1
10
55.101658
20
97.700955
70
0
0
VERTEX
8
Layer 1
10
56.445743
20
97.794977
70
0
0
VERTEX
8
Layer 1
10
56.539708
20
96.451057
70
0
0
VERTEX
8
Layer 1
10
56.843483
20
95.841864
70
0
0
VERTEX
8
Layer 1
10
57.489024
20
95.625830
70
0
0
VERTEX
8
Layer 1
10
57.489024
20
95.625830
70
0
0
SEQEND
8
Layer 1
0
POLYLINE
8
Layer 1
62
7
70
0
10
0.000000
20
0.000000
66
1
0
VERTEX
8
Layer 1
10
66.003383
20
107.480186
70
0
0
VERTEX
8
Layer 1
10
66.379145
20
108.047995
70
0
0
VERTEX
8
Layer 1
10
66.243413
20
108.715142
70
0
0
VERTEX
8
Layer 1
10
65.675695
20
109.090915
70
0
0
VERTEX
8
Layer 1
10
48.211843
20
112.485556
70
0
0
VERTEX
8
Layer 1
10
47.544696
20
112.349824
70
0
0
VERTEX
8
Layer 1
10
47.168925
20
111.782107
70
0
0
VERTEX
8
Layer 1
10
47.304656
20
111.114959
70
0
0
VERTEX
8
Layer 1
10
47.872374
20
110.739187
70
0
0
VERTEX
8
Layer 1
10
65.336225
20
107.344545
70
0
0
VERTEX
8
Layer 1
10
66.003383
20
107.480186
70
0
0
VERTEX
8
Layer 1
10
66.003383
20
107.480186
70
0
0
SEQEND
8
Layer 1
0
POLYLINE
8
Layer 1
62
7
70
0
10
0.000000
20
0.000000
66
1
0
VERTEX
8
Layer 1
10
59.342238
20
105.344783
70
0
0
VERTEX
8
Layer 1
10
64.027624
20
108.505064
70
0
0
VERTEX
8
Layer 1
10
60.867286
20
113.190616
70
0
0
VERTEX
8
Layer 1
10
60.299529
20
113.566355
70
0
0
VERTEX
8
Layer 1
10
59.632377
20
113.430572
70
0
0
VERTEX
8
Layer 1
10
59.256637
20
112.862814
70
0
0
VERTEX
8
Layer 1
10
59.392420
20
112.195662
70
0
0
VERTEX
8
Layer 1
10
61.557914
20
108.985198
70
0
0
VERTEX
8
Layer 1
10
58.347286
20
106.819649
70
0
0
VERTEX
8
Layer 1
10
57.971545
20
106.251892
70
0
0
VERTEX
8
Layer 1
10
58.107328
20
105.584740
70
0
0
VERTEX
8
Layer 1
10
58.675086
20
105.208999
70
0
0
VERTEX
8
Layer 1
10
59.342238
20
105.344783
70
0
0
VERTEX
8
Layer 1
10
59.342238
20
105.344783
70
0
0
SEQEND
8
Layer 1
0
POLYLINE
8
Layer 1
62
7
70
0
10
0.000000
20
0.000000
66
1
0
VERTEX
8
Layer 1
10
55.450008
20
106.809318
70
0
0
VERTEX
8
Layer 1
10
59.320620
20
109.420044
70
0
0
VERTEX
8
Layer 1
10
56.709731
20
113.290599
70
0
0
VERTEX
8
Layer 1
10
56.142070
20
113.666409
70
0
0
VERTEX
8
Layer 1
10
55.474929
20
113.530777
70
0
0
VERTEX
8
Layer 1
10
55.099070
20
112.963030
70
0
0
VERTEX
8
Layer 1
10
55.234808
20
112.295811
70
0
0
VERTEX
8
Layer 1
10
56.850745
20
109.900121
70
0
0
VERTEX
8
Layer 1
10
54.455055
20
108.284184
70
0
0
VERTEX
8
Layer 1
10
54.079364
20
107.716512
70
0
0
VERTEX
8
Layer 1
10
54.215041
20
107.049439
70
0
0
VERTEX
8
Layer 1
10
54.782788
20
106.673580
70
0
0
VERTEX
8
Layer 1
10
55.450008
20
106.809318
70
0
0
VERTEX
8
Layer 1
10
55.450008
20
106.809318
70
0
0
SEQEND
8
Layer 1
0
POLYLINE
8
Layer 1
62
7
70
0
10
0.000000
20
0.000000
66
1
0
VERTEX
8
Layer 1
10
51.827440
20
108.624688
70
0
0
VERTEX
8
Layer 1
10
54.419238
20
110.372829
70
0
0
VERTEX
8
Layer 1
10
52.671097
20
112.964627
70
0
0
VERTEX
8
Layer 1
10
52.103340
20
113.340367
70
0
0
VERTEX
8
Layer 1
10
51.436188
20
113.204584
70
0
0
VERTEX
8
Layer 1
10
51.060497
20
112.636912
70
0
0
VERTEX
8
Layer 1
10
51.196175
20
111.969839
70
0
0
VERTEX
8
Layer 1
10
51.949528
20
110.852964
70
0
0
VERTEX
8
Layer 1
10
50.832488
20
110.099554
70
0
0
VERTEX
8
Layer 1
10
50.456748
20
109.531797
70
0
0
VERTEX
8
Layer 1
10
50.592532
20
108.864645
70
0
0
VERTEX
8
Layer 1
10
51.160289
20
108.488905
70
0
0
VERTEX
8
Layer 1
10
51.827440
20
108.624688
70
0
0
VERTEX
8
Layer 1
10
51.827440
20
108.624688
70
0
0
SEQEND
8
Layer 1
0
POLYLINE
8
Layer 1
62
7
70
0
10
0.000000
20
0.000000
66
1
0
VERTEX
8
Layer 1
10
69.705840
20
18.448308
70
0
0
VERTEX
8
Layer 1
10
69.400195
20
18.878170
70
0
0
VERTEX
8
Layer 1
10
68.968424
20
19.148091
70
0
0
VERTEX
8
Layer 1
10
68.466945
20
19.236412
70
0
0
VERTEX
8
Layer 1
10
67.952172
20
19.121480
70
0
0
VERTEX
8
Layer 1
10
43.683772
20
8.316520
70
0
0
VERTEX
8
Layer 1
10
43.253910
20
8.010875
70
0
0
VERTEX
8
Layer 1
10
42.983989
20
7.579104
70
0
0
VERTEX
8
Layer 1
10
42.895668
20
7.077625
70
0
0
VERTEX
8
Layer 1
10
43.010600
20
6.562852
70
0
0
VERTEX
8
Layer 1
10
43.316245
20
6.132990
70
0
0
VERTEX
8
Layer 1
10
43.748016
20
5.863069
70
0
0
VERTEX
8
Layer 1
10
44.249495
20
5.774748
70
0
0
VERTEX
8
Layer 1
10
44.764268
20
5.889680
70
0
0
VERTEX
8
Layer 1
10
69.032668
20
16.694640
70
0
0
VERTEX
8
Layer 1
10
69.455900
20
16.993750
70
0
0
VERTEX
8
Layer 1
10
69.732451
20
17.432056
70
0
0
VERTEX
8
Layer 1
10
69.820218
20
17.942828
70
0
0
VERTEX
8
Layer 1
10
69.705840
20
18.448308
70
0
0
VERTEX
8
Layer 1
10
69.705840
20
18.448308
70
0
0
SEQEND
8
Layer 1
0
POLYLINE
8
Layer 1
62
7
70
0
10
0.000000
20
0.000000
66
1
0
VERTEX
8
Layer 1
10
66.677504
20
17.100009
70
0
0
VERTEX
8
Layer 1
10
58.106688
20
20.390243
70
0
0
VERTEX
8
Layer 1
10
57.595897
20
20.478026
70
0
0
VERTEX
8
Layer 1
10
57.090397
20
20.363647
70
0
0
VERTEX
8
Layer 1
10
56.667151
20
20.064522
70
0
0
VERTEX
8
Layer 1
10
56.390599
20
19.626193
70
0
0
VERTEX
8
Layer 1
10
56.302817
20
19.115402
70
0
0
VERTEX
8
Layer 1
10
56.417195
20
18.609901
70
0
0
VERTEX
8
Layer 1
10
56.716320
20
18.186655
70
0
0
VERTEX
8
Layer 1
10
57.154649
20
17.910104
70
0
0
VERTEX
8
Layer 1
10
63.245564
20
15.572015
70
0
0
VERTEX
8
Layer 1
10
60.907474
20
9.481101
70
0
0
VERTEX
8
Layer 1
10
60.819691
20
8.970310
70
0
0
VERTEX
8
Layer 1
10
60.934069
20
8.464810
70
0
0
VERTEX
8
Layer 1
10
61.233194
20
8.041564
70
0
0
VERTEX
8
Layer 1
10
61.671524
20
7.765012
70
0
0
VERTEX
8
Layer 1
10
62.182315
20
7.677230
70
0
0
VERTEX
8
Layer 1
10
62.687815
20
7.791608
70
0
0
VERTEX
8
Layer 1
10
63.111061
20
8.090733
70
0
0
VERTEX
8
Layer 1
10
63.387613
20
8.529062
70
0
0
VERTEX
8
Layer 1
10
66.677504
20
17.100009
70
0
0
SEQEND
8
Layer 1
0
POLYLINE
8
Layer 1
62
7
70
0
10
0.000000
20
0.000000
66
1
0
VERTEX
8
Layer 1
10
60.371986
20
14.292619
70
0
0
VERTEX
8
Layer 1
10
52.490519
20
17.317844
70
0
0
VERTEX
8
Layer 1
10
51.970501
20
17.405625
70
0
0
VERTEX
8
Layer 1
10
51.474398
20
17.291183
70
0
0
VERTEX
8
Layer 1
10
51.057392
20
16.999084
70
0
0
VERTEX
8
Layer 1
10
50.774666
20
16.553899
70
0
0
VERTEX
8
Layer 1
10
50.686885
20
16.033881
70
0
0
VERTEX
8
Layer 1
10
50.801327
20
15.537779
70
0
0
VERTEX
8
Layer 1
10
51.093426
20
15.120773
70
0
0
VERTEX
8
Layer 1
10
51.538611
20
14.838047
70
0
0
VERTEX
8
Layer 1
10
56.940045
20
12.764625
70
0
0
VERTEX
8
Layer 1
10
54.866623
20
7.363190
70
0
0
VERTEX
8
Layer 1
10
54.778841
20
6.843173
70
0
0
VERTEX
8
Layer 1
10
54.893284
20
6.347070
70
0
0
VERTEX
8
Layer 1
10
55.185382
20
5.930064
70
0
0
VERTEX
8
Layer 1
10
55.630568
20
5.647338
70
0
0
VERTEX
8
Layer 1
10
56.150585
20
5.559557
70
0
0
VERTEX
8
Layer 1
10
56.646688
20
5.673999
70
0
0
VERTEX
8
Layer 1
10
57.063694
20
5.966098
70
0
0
VERTEX
8
Layer 1
10
57.346420
20
6.411283
70
0
0
VERTEX
8
Layer 1
10
60.371986
20
14.292619
70
0
0
SEQEND
8
Layer 1
0
POLYLINE
8
Layer 1
62
7
70
0
10
0.000000
20
0.000000
66
1
0
VERTEX
8
Layer 1
10
53.102842
20
11.056196
70
0
0
VERTEX
8
Layer 1
10
48.695724
20
12.747935
70
0
0
VERTEX
8
Layer 1
10
48.184933
20
12.835718
70
0
0
VERTEX
8
Layer 1
10
47.679432
20
12.721340
70
0
0
VERTEX
8
Layer 1
10
47.256186
20
12.422215
70
0
0
VERTEX
8
Layer 1
10
46.979635
20
11.983885
70
0
0
VERTEX
8
Layer 1
10
46.891853
20
11.463868
70
0
0
VERTEX
8
Layer 1
10
47.006296
20
10.967765
70
0
0
VERTEX
8
Layer 1
10
47.298394
20
10.550759
70
0
0
VERTEX
8
Layer 1
10
47.743580
20
10.268033
70
0
0
VERTEX
8
Layer 1
10
49.670901
20
9.528201
70
0
0
VERTEX
8
Layer 1
10
48.931069
20
7.600880
70
0
0
VERTEX
8
Layer 1
10
48.843288
20
7.080862
70
0
0
VERTEX
8
Layer 1
10
48.957731
20
6.584759
70
0
0
VERTEX
8
Layer 1
10
49.249829
20
6.167754
70
0
0
VERTEX
8
Layer 1
10
49.695014
20
5.885028
70
0
0
VERTEX
8
Layer 1
10
50.205805
20
5.797245
70
0
0
VERTEX
8
Layer 1
10
50.711306
20
5.911623
70
0
0
VERTEX
8
Layer 1
10
51.134552
20
6.210748
70
0
0
VERTEX
8
Layer 1
10
51.411103
20
6.649078
70
0
0
VERTEX
8
Layer 1
10
53.102842
20
11.056196
70
0
0
SEQEND
8
Layer 1
0
POLYLINE
8
Layer 1
62
7
70
0
10
0.000000
20
0.000000
66
1
0
VERTEX
8
Layer 1
10
69.804413
20
18.115928
70
0
0
VERTEX
8
Layer 1
10
69.624972
20
18.602118
70
0
0
VERTEX
8
Layer 1
10
69.273137
20
18.982633
70
0
0
VERTEX
8
Layer 1
10
47.781567
20
34.597204
70
0
0
VERTEX
8
Layer 1
10
47.301942
20
34.816645
70
0
0
VERTEX
8
Layer 1
10
46.793063
20
34.834514
70
0
0
VERTEX
8
Layer 1
10
46.314614
20
34.660263
70
0
0
VERTEX
8
Layer 1
10
45.926277
20
34.303347
70
0
0
VERTEX
8
Layer 1
10
45.706836
20
33.823722
70
0
0
VERTEX
8
Layer 1
10
45.688967
20
33.314843
70
0
0
VERTEX
8
Layer 1
10
45.863217
20
32.836394
70
0
0
VERTEX
8
Layer 1
10
46.220133
20
32.448057
70
0
0
VERTEX
8
Layer 1
10
67.711703
20
16.833487
70
0
0
VERTEX
8
Layer 1
10
68.191328
20
16.614045
70
0
0
VERTEX
8
Layer 1
10
68.700207
20
16.596176
70
0
0
VERTEX
8
Layer 1
10
69.178657
20
16.770426
70
0
0
VERTEX
8
Layer 1
10
69.566993
20
17.127343
70
0
0
VERTEX
8
Layer 1
10
69.784034
20
17.598020
70
0
0
VERTEX
8
Layer 1
10
69.804413
20
18.115928
70
0
0
VERTEX
8
Layer 1
10
69.804413
20
18.115928
70
0
0
SEQEND
8
Layer 1
0
POLYLINE
8
Layer 1
62
7
70
0
10
0.000000
20
0.000000
66
1
0
VERTEX
8
Layer 1
10
65.449162
20
28.143568
70
0
0
VERTEX
8
Layer 1
10
65.265122
20
28.637836
70
0
0
VERTEX
8
Layer 1
10
64.917893
20
29.010245
70
0
0
VERTEX
8
Layer 1
10
64.456360
20
29.225288
70
0
0
VERTEX
8
Layer 1
10
63.929406
20
29.247455
70
0
0
VERTEX
8
Layer 1
10
63.443161
20
29.068112
70
0
0
VERTEX
8
Layer 1
10
63.062563
20
28.716340
70
0
0
VERTEX
8
Layer 1
10
62.845555
20
28.245696
70
0
0
VERTEX
8
Layer 1
10
62.825177
20
27.727832
70
0
0
VERTEX
8
Layer 1
10
63.845792
20
21.283912
70
0
0
VERTEX
8
Layer 1
10
57.402109
20
20.263401
70
0
0
VERTEX
8
Layer 1
10
56.915863
20
20.084057
70
0
0
VERTEX
8
Layer 1
10
56.535264
20
19.732285
70
0
0
VERTEX
8
Layer 1
10
56.318257
20
19.261640
70
0
0
VERTEX
8
Layer 1
10
56.297879
20
18.743776
70
0
0
VERTEX
8
Layer 1
10
56.477222
20
18.257531
70
0
0
VERTEX
8
Layer 1
10
56.828994
20
17.876933
70
0
0
VERTEX
8
Layer 1
10
57.299638
20
17.659925
70
0
0
VERTEX
8
Layer 1
10
57.817502
20
17.639546
70
0
0
VERTEX
8
Layer 1
10
66.885171
20
19.075793
70
0
0
VERTEX
8
Layer 1
10
65.449162
20
28.143568
70
0
0
SEQEND
8
Layer 1
0
POLYLINE
8
Layer 1
62
7
70
0
10
0.000000
20
0.000000
66
1
0
VERTEX
8
Layer 1
10
59.980450
20
31.470889
70
0
0
VERTEX
8
Layer 1
10
59.801107
20
31.957134
70
0
0
VERTEX
8
Layer 1
10
59.449335
20
32.337732
70
0
0
VERTEX
8
Layer 1
10
58.978691
20
32.554740
70
0
0
VERTEX
8
Layer 1
10
58.460827
20
32.575119
70
0
0
VERTEX
8
Layer 1
10
57.974581
20
32.395775
70
0
0
VERTEX
8
Layer 1
10
57.593983
20
32.044004
70
0
0
VERTEX
8
Layer 1
10
57.376975
20
31.573359
70
0
0
VERTEX
8
Layer 1
10
57.356596
20
31.055495
70
0
0
VERTEX
8
Layer 1
10
58.261706
20
25.341079
70
0
0
VERTEX
8
Layer 1
10
52.547292
20
24.435970
70
0
0
VERTEX
8
Layer 1
10
52.053055
20
24.251981
70
0
0
VERTEX
8
Layer 1
10
51.680641
20
23.904820
70
0
0
VERTEX
8
Layer 1
10
51.465553
20
23.443354
70
0
0
VERTEX
8
Layer 1
10
51.443297
20
22.916452
70
0
0
VERTEX
8
Layer 1
10
51.622641
20
22.430206
70
0
0
VERTEX
8
Layer 1
10
51.974412
20
22.049607
70
0
0
VERTEX
8
Layer 1
10
52.445057
20
21.832599
70
0
0
VERTEX
8
Layer 1
10
52.962921
20
21.812221
70
0
0
VERTEX
8
Layer 1
10
61.301086
20
23.132961
70
0
0
VERTEX
8
Layer 1
10
59.980450
20
31.470889
70
0
0
SEQEND
8
Layer 1
0
POLYLINE
8
Layer 1
62
7
70
0
10
0.000000
20
0.000000
66
1
0
VERTEX
8
Layer 1
10
54.125342
20
32.472507
70
0
0
VERTEX
8
Layer 1
10
53.945999
20
32.958752
70
0
0
VERTEX
8
Layer 1
10
53.594227
20
33.339351
70
0
0
VERTEX
8
Layer 1
10
53.123582
20
33.556358
70
0
0
VERTEX
8
Layer 1
10
52.605718
20
33.576736
70
0
0
VERTEX
8
Layer 1
10
52.119473
20
33.397393
70
0
0
VERTEX
8
Layer 1
10
51.738874
20
33.045621
70
0
0
VERTEX
8
Layer 1
10
51.521867
20
32.574977
70
0
0
VERTEX
8
Layer 1
10
51.501488
20
32.057113
70
0
0
VERTEX
8
Layer 1
10
51.824386
20
30.017959
70
0
0
VERTEX
8
Layer 1
10
49.785469
20
29.695166
70
0
0
VERTEX
8
Layer 1
10
49.291201
20
29.511126
70
0
0
VERTEX
8
Layer 1
10
48.918792
20
29.163897
70
0
0
VERTEX
8
Layer 1
10
48.703749
20
28.702363
70
0
0
VERTEX
8
Layer 1
10
48.681582
20
28.175410
70
0
0
VERTEX
8
Layer 1
10
48.865571
20
27.681173
70
0
0
VERTEX
8
Layer 1
10
49.212732
20
27.308760
70
0
0
VERTEX
8
Layer 1
10
49.674197
20
27.093673
70
0
0
VERTEX
8
Layer 1
10
50.201100
20
27.071417
70
0
0
VERTEX
8
Layer 1
10
54.863766
20
27.809841
70
0
0
VERTEX
8
Layer 1
10
54.125342
20
32.472507
70
0
0
SEQEND
8
Layer 1
0
POLYLINE
8
Layer 1
62
7
70
0
10
0.000000
20
0.000000
66
1
0
VERTEX
8
Layer 1
10
72.301623
20
45.163499
70
0
0
VERTEX
8
Layer 1
10
71.903107
20
45.494902
70
0
0
VERTEX
8
Layer 1
10
71.408097
20
45.648555
70
0
0
VERTEX
8
Layer 1
10
70.883008
20
45.598789
70
0
0
VERTEX
8
Layer 1
10
70.433370
20
45.359830
70
0
0
VERTEX
8
Layer 1
10
70.106141
20
44.969703
70
0
0
VERTEX
8
Layer 1
10
69.948285
20
44.466437
70
0
0
VERTEX
8
Layer 1
10
67.171455
20
18.046907
70
0
0
VERTEX
8
Layer 1
10
67.221221
20
17.521818
70
0
0
VERTEX
8
Layer 1
10
67.460181
20
17.072179
70
0
0
VERTEX
8
Layer 1
10
67.850308
20
16.744951
70
0
0
VERTEX
8
Layer 1
10
68.353573
20
16.587095
70
0
0
VERTEX
8
Layer 1
10
68.878662
20
16.636861
70
0
0
VERTEX
8
Layer 1
10
69.328301
20
16.875821
70
0
0
VERTEX
8
Layer 1
10
69.655529
20
17.265948
70
0
0
VERTEX
8
Layer 1
10
69.813385
20
17.769213
70
0
0
VERTEX
8
Layer 1
10
72.590215
20
44.188744
70
0
0
VERTEX
8
Layer 1
10
72.542862
20
44.704823
70
0
0
VERTEX
8
Layer 1
10
72.301623
20
45.163499
70
0
0
VERTEX
8
Layer 1
10
72.301623
20
45.163499
70
0
0
SEQEND
8
Layer 1
0
POLYLINE
8
Layer 1
62
7
70
0
10
0.000000
20
0.000000
66
1
0
VERTEX
8
Layer 1
10
76.031121
20
27.529559
70
0
0
VERTEX
8
Layer 1
10
75.632638
20
27.860935
70
0
0
VERTEX
8
Layer 1
10
75.137674
20
28.014591
70
0
0
VERTEX
8
Layer 1
10
74.621586
20
27.967133
70
0
0
VERTEX
8
Layer 1
10
74.162946
20
27.725787
70
0
0
VERTEX
8
Layer 1
10
69.092885
20
23.620062
70
0
0
VERTEX
8
Layer 1
10
64.987054
20
28.690359
70
0
0
VERTEX
8
Layer 1
10
64.588571
20
29.021734
70
0
0
VERTEX
8
Layer 1
10
64.093608
20
29.175390
70
0
0
VERTEX
8
Layer 1
10
63.577521
20
29.127932
70
0
0
VERTEX
8
Layer 1
10
63.118880
20
28.886587
70
0
0
VERTEX
8
Layer 1
10
62.782753
20
28.480152
70
0
0
VERTEX
8
Layer 1
10
62.633733
20
27.993274
70
0
0
VERTEX
8
Layer 1
10
62.678144
20
27.486042
70
0
0
VERTEX
8
Layer 1
10
62.922310
20
27.018544
70
0
0
VERTEX
8
Layer 1
10
68.700088
20
19.883844
70
0
0
VERTEX
8
Layer 1
10
75.834894
20
25.661385
70
0
0
VERTEX
8
Layer 1
10
76.166269
20
26.059868
70
0
0
VERTEX
8
Layer 1
10
76.319924
20
26.554831
70
0
0
VERTEX
8
Layer 1
10
76.272467
20
27.070919
70
0
0
VERTEX
8
Layer 1
10
76.031121
20
27.529559
70
0
0
VERTEX
8
Layer 1
10
76.031121
20
27.529559
70
0
0
SEQEND
8
Layer 1
0
POLYLINE
8
Layer 1
62
7
70
0
10
0.000000
20
0.000000
66
1
0
VERTEX
8
Layer 1
10
76.178580
20
33.929281
70
0
0
VERTEX
8
Layer 1
10
75.772124
20
34.265309
70
0
0
VERTEX
8
Layer 1
10
75.285266
20
34.414250
70
0
0
VERTEX
8
Layer 1
10
74.778082
20
34.369789
70
0
0
VERTEX
8
Layer 1
10
74.310642
20
34.125613
70
0
0
VERTEX
8
Layer 1
10
69.814318
20
30.484621
70
0
0
VERTEX
8
Layer 1
10
66.173325
20
34.980945
70
0
0
VERTEX
8
Layer 1
10
65.774842
20
35.312321
70
0
0
VERTEX
8
Layer 1
10
65.279878
20
35.465976
70
0
0
VERTEX
8
Layer 1
10
64.763791
20
35.418518
70
0
0
VERTEX
8
Layer 1
10
64.305150
20
35.177172
70
0
0
VERTEX
8
Layer 1
10
63.973775
20
34.778689
70
0
0
VERTEX
8
Layer 1
10
63.820120
20
34.283726
70
0
0
VERTEX
8
Layer 1
10
63.867577
20
33.767639
70
0
0
VERTEX
8
Layer 1
10
64.108923
20
33.308999
70
0
0
VERTEX
8
Layer 1
10
69.421520
20
26.748403
70
0
0
VERTEX
8
Layer 1
10
75.982353
20
32.061106
70
0
0
VERTEX
8
Layer 1
10
76.313728
20
32.459589
70
0
0
VERTEX
8
Layer 1
10
76.467384
20
32.954553
70
0
0
VERTEX
8
Layer 1
10
76.419926
20
33.470640
70
0
0
VERTEX
8
Layer 1
10
76.178580
20
33.929281
70
0
0
VERTEX
8
Layer 1
10
76.178580
20
33.929281
70
0
0
SEQEND
8
Layer 1
0
POLYLINE
8
Layer 1
62
7
70
0
10
0.000000
20
0.000000
66
1
0
VERTEX
8
Layer 1
10
74.118372
20
39.500569
70
0
0
VERTEX
8
Layer 1
10
73.711937
20
39.836697
70
0
0
VERTEX
8
Layer 1
10
73.225059
20
39.985717
70
0
0
VERTEX
8
Layer 1
10
72.717827
20
39.941305
70
0
0
VERTEX
8
Layer 1
10
72.250329
20
39.697140
70
0
0
VERTEX
8
Layer 1
10
70.646142
20
38.397923
70
0
0
VERTEX
8
Layer 1
10
69.346819
20
40.002346
70
0
0
VERTEX
8
Layer 1
10
68.948336
20
40.333721
70
0
0
VERTEX
8
Layer 1
10
68.453373
20
40.487376
70
0
0
VERTEX
8
Layer 1
10
67.937286
20
40.439919
70
0
0
VERTEX
8
Layer 1
10
67.478646
20
40.198573
70
0
0
VERTEX
8
Layer 1
10
67.147270
20
39.800090
70
0
0
VERTEX
8
Layer 1
10
66.993614
20
39.305127
70
0
0
VERTEX
8
Layer 1
10
67.041072
20
38.789040
70
0
0
VERTEX
8
Layer 1
10
67.282417
20
38.330399
70
0
0
VERTEX
8
Layer 1
10
70.253344
20
34.661705
70
0
0
VERTEX
8
Layer 1
10
73.922039
20
37.632632
70
0
0
VERTEX
8
Layer 1
10
74.258067
20
38.039088
70
0
0
VERTEX
8
Layer 1
10
74.407007
20
38.525945
70
0
0
VERTEX
8
Layer 1
10
74.362547
20
39.033130
70
0
0
VERTEX
8
Layer 1
10
74.118372
20
39.500569
70
0
0
VERTEX
8
Layer 1
10
74.118372
20
39.500569
70
0
0
SEQEND
8
Layer 1
0
POLYLINE
8
Layer 1
62
7
70
1
10
0.000000
20
0.000000
66
1
0
VERTEX
8
Layer 1
10
93.974240
20
29.253268
70
0
0
VERTEX
8
Layer 1
10
93.668595
20
29.683130
70
0
0
VERTEX
8
Layer 1
10
93.236824
20
29.953051
70
0
0
VERTEX
8
Layer 1
10
92.735345
20
30.041372
70
0
0
VERTEX
8
Layer 1
10
92.220572
20
29.926440
70
0
0
VERTEX
8
Layer 1
10
67.952172
20
19.121480
70
0
0
VERTEX
8
Layer 1
10
67.528940
20
18.822370
70
0
0
VERTEX
8
Layer 1
10
67.252389
20
18.384064
70
0
0
VERTEX
8
Layer 1
10
67.164622
20
17.873292
70
0
0
VERTEX
8
Layer 1
10
67.279000
20
17.367812
70
0
0
VERTEX
8
Layer 1
10
67.578110
20
16.944580
70
0
0
VERTEX
8
Layer 1
10
68.016416
20
16.668029
70
0
0
VERTEX
8
Layer 1
10
68.527188
20
16.580262
70
0
0
VERTEX
8
Layer 1
10
69.032668
20
16.694640
70
0
0
VERTEX
8
Layer 1
10
93.301068
20
27.499600
70
0
0
VERTEX
8
Layer 1
10
93.730930
20
27.805245
70
0
0
VERTEX
8
Layer 1
10
94.000851
20
28.237016
70
0
0
VERTEX
8
Layer 1
10
94.089172
20
28.738495
70
0
0
VERTEX
8
Layer 1
10
93.974240
20
29.253268
70
0
0
VERTEX
8
Layer 1
10
93.974240
20
29.253268
70
0
0
SEQEND
8
Layer 1
0
POLYLINE
8
Layer 1
62
7
70
0
10
0.000000
20
0.000000
66
1
0
VERTEX
8
Layer 1
10
76.050888
20
27.351220
70
0
0
VERTEX
8
Layer 1
10
75.751724
20
27.774534
70
0
0
VERTEX
8
Layer 1
10
75.313316
20
28.051108
70
0
0
VERTEX
8
Layer 1
10
74.802525
20
28.138890
70
0
0
VERTEX
8
Layer 1
10
74.297025
20
28.024512
70
0
0
VERTEX
8
Layer 1
10
73.873779
20
27.725387
70
0
0
VERTEX
8
Layer 1
10
73.597227
20
27.287058
70
0
0
VERTEX
8
Layer 1
10
70.307336
20
18.716111
70
0
0
VERTEX
8
Layer 1
10
78.878152
20
15.425877
70
0
0
VERTEX
8
Layer 1
10
79.388943
20
15.338094
70
0
0
VERTEX
8
Layer 1
10
79.894443
20
15.452473
70
0
0
VERTEX
8
Layer 1
10
80.317689
20
15.751598
70
0
0
VERTEX
8
Layer 1
10
80.594241
20
16.189927
70
0
0
VERTEX
8
Layer 1
10
80.682023
20
16.700718
70
0
0
VERTEX
8
Layer 1
10
80.567645
20
17.206219
70
0
0
VERTEX
8
Layer 1
10
80.268520
20
17.629465
70
0
0
VERTEX
8
Layer 1
10
79.830191
20
17.906016
70
0
0
VERTEX
8
Layer 1
10
73.739276
20
20.244105
70
0
0
VERTEX
8
Layer 1
10
76.077366
20
26.335019
70
0
0
VERTEX
8
Layer 1
10
76.165189
20
26.845752
70
0
0
VERTEX
8
Layer 1
10
76.050888
20
27.351220
70
0
0
VERTEX
8
Layer 1
10
76.050888
20
27.351220
70
0
0
SEQEND
8
Layer 1
0
POLYLINE
8
Layer 1
62
7
70
0
10
0.000000
20
0.000000
66
1
0
VERTEX
8
Layer 1
10
82.091739
20
29.469131
70
0
0
VERTEX
8
Layer 1
10
81.792587
20
29.892298
70
0
0
VERTEX
8
Layer 1
10
81.354272
20
30.168782
70
0
0
VERTEX
8
Layer 1
10
80.834255
20
30.256563
70
0
0
VERTEX
8
Layer 1
10
80.338152
20
30.142121
70
0
0
VERTEX
8
Layer 1
10
79.921146
20
29.850022
70
0
0
VERTEX
8
Layer 1
10
79.638420
20
29.404837
70
0
0
VERTEX
8
Layer 1
10
76.612855
20
21.523501
70
0
0
VERTEX
8
Layer 1
10
84.494321
20
18.498276
70
0
0
VERTEX
8
Layer 1
10
85.014339
20
18.410495
70
0
0
VERTEX
8
Layer 1
10
85.510442
20
18.524937
70
0
0
VERTEX
8
Layer 1
10
85.927448
20
18.817036
70
0
0
VERTEX
8
Layer 1
10
86.210174
20
19.262221
70
0
0
VERTEX
8
Layer 1
10
86.297955
20
19.782239
70
0
0
VERTEX
8
Layer 1
10
86.183513
20
20.278341
70
0
0
VERTEX
8
Layer 1
10
85.891414
20
20.695347
70
0
0
VERTEX
8
Layer 1
10
85.446229
20
20.978073
70
0
0
VERTEX
8
Layer 1
10
80.044795
20
23.051495
70
0
0
VERTEX
8
Layer 1
10
82.118217
20
28.452930
70
0
0
VERTEX
8
Layer 1
10
82.206040
20
28.963664
70
0
0
VERTEX
8
Layer 1
10
82.091739
20
29.469131
70
0
0
VERTEX
8
Layer 1
10
82.091739
20
29.469131
70
0
0
SEQEND
8
Layer 1
0
POLYLINE
8
Layer 1
62
7
70
0
10
0.000000
20
0.000000
66
1
0
VERTEX
8
Layer 1
10
88.027292
20
29.231443
70
0
0
VERTEX
8
Layer 1
10
87.728140
20
29.654609
70
0
0
VERTEX
8
Layer 1
10
87.289826
20
29.931092
70
0
0
VERTEX
8
Layer 1
10
86.779035
20
30.018875
70
0
0
VERTEX
8
Layer 1
10
86.273534
20
29.904497
70
0
0
VERTEX
8
Layer 1
10
85.850288
20
29.605372
70
0
0
VERTEX
8
Layer 1
10
85.573737
20
29.167042
70
0
0
VERTEX
8
Layer 1
10
83.881999
20
24.759924
70
0
0
VERTEX
8
Layer 1
10
88.289116
20
23.068185
70
0
0
VERTEX
8
Layer 1
10
88.799907
20
22.980402
70
0
0
VERTEX
8
Layer 1
10
89.305408
20
23.094780
70
0
0
VERTEX
8
Layer 1
10
89.728654
20
23.393905
70
0
0
VERTEX
8
Layer 1
10
90.005205
20
23.832235
70
0
0
VERTEX
8
Layer 1
10
90.092987
20
24.352252
70
0
0
VERTEX
8
Layer 1
10
89.978544
20
24.848355
70
0
0
VERTEX
8
Layer 1
10
89.686446
20
25.265361
70
0
0
VERTEX
8
Layer 1
10
89.241260
20
25.548087
70
0
0
VERTEX
8
Layer 1
10
87.313939
20
26.287919
70
0
0
VERTEX
8
Layer 1
10
88.053771
20
28.215240
70
0
0
VERTEX
8
Layer 1
10
88.141593
20
28.725975
70
0
0
VERTEX
8
Layer 1
10
88.027292
20
29.231443
70
0
0
VERTEX
8
Layer 1
10
88.027292
20
29.231443
70
0
0
SEQEND
8
Layer 1
0
POLYLINE
8
Layer 1
62
7
70
0
10
0.000000
20
0.000000
66
1
0
VERTEX
8
Layer 1
10
91.295983
20
2.501358
70
0
0
VERTEX
8
Layer 1
10
91.116542
20
2.987548
70
0
0
VERTEX
8
Layer 1
10
90.764707
20
3.368063
70
0
0
VERTEX
8
Layer 1
10
69.273137
20
18.982633
70
0
0
VERTEX
8
Layer 1
10
68.793512
20
19.202075
70
0
0
VERTEX
8
Layer 1
10
68.284633
20
19.219944
70
0
0
VERTEX
8
Layer 1
10
67.806183
20
19.045694
70
0
0
VERTEX
8
Layer 1
10
67.417847
20
18.688777
70
0
0
VERTEX
8
Layer 1
10
67.198405
20
18.209152
70
0
0
VERTEX
8
Layer 1
10
67.180536
20
17.700273
70
0
0
VERTEX
8
Layer 1
10
67.354786
20
17.221823
70
0
0
VERTEX
8
Layer 1
10
67.711703
20
16.833487
70
0
0
VERTEX
8
Layer 1
10
89.203273
20
1.218916
70
0
0
VERTEX
8
Layer 1
10
89.682898
20
0.999475
70
0
0
VERTEX
8
Layer 1
10
90.191777
20
0.981606
70
0
0
VERTEX
8
Layer 1
10
90.670226
20
1.155857
70
0
0
VERTEX
8
Layer 1
10
91.058563
20
1.512773
70
0
0
VERTEX
8
Layer 1
10
91.275604
20
1.983450
70
0
0
VERTEX
8
Layer 1
10
91.295983
20
2.501358
70
0
0
VERTEX
8
Layer 1
10
91.295983
20
2.501358
70
0
0
SEQEND
8
Layer 1
0
POLYLINE
8
Layer 1
62
7
70
0
10
0.000000
20
0.000000
66
1
0
VERTEX
8
Layer 1
10
80.686961
20
17.072344
70
0
0
VERTEX
8
Layer 1
10
80.507618
20
17.558589
70
0
0
VERTEX
8
Layer 1
10
80.155846
20
17.939187
70
0
0
VERTEX
8
Layer 1
10
79.685202
20
18.156195
70
0
0
VERTEX
8
Layer 1
10
79.167338
20
18.176574
70
0
0
VERTEX
8
Layer 1
10
70.099668
20
16.740328
70
0
0
VERTEX
8
Layer 1
10
71.535678
20
7.672552
70
0
0
VERTEX
8
Layer 1
10
71.719718
20
7.178284
70
0
0
VERTEX
8
Layer 1
10
72.066947
20
6.805875
70
0
0
VERTEX
8
Layer 1
10
72.528480
20
6.590832
70
0
0
VERTEX
8
Layer 1
10
73.055434
20
6.568665
70
0
0
VERTEX
8
Layer 1
10
73.541679
20
6.748008
70
0
0
VERTEX
8
Layer 1
10
73.922277
20
7.099780
70
0
0
VERTEX
8
Layer 1
10
74.139285
20
7.570424
70
0
0
VERTEX
8
Layer 1
10
74.159663
20
8.088288
70
0
0
VERTEX
8
Layer 1
10
73.139048
20
14.532208
70
0
0
VERTEX
8
Layer 1
10
79.582731
20
15.552719
70
0
0
VERTEX
8
Layer 1
10
80.068977
20
15.732063
70
0
0
VERTEX
8
Layer 1
10
80.449576
20
16.083835
70
0
0
VERTEX
8
Layer 1
10
80.666583
20
16.554480
70
0
0
VERTEX
8
Layer 1
10
80.686961
20
17.072344
70
0
0
VERTEX
8
Layer 1
10
80.686961
20
17.072344
70
0
0
SEQEND
8
Layer 1
0
POLYLINE
8
Layer 1
62
7
70
0
10
0.000000
20
0.000000
66
1
0
VERTEX
8
Layer 1
10
85.541543
20
12.899668
70
0
0
VERTEX
8
Layer 1
10
85.362199
20
13.385914
70
0
0
VERTEX
8
Layer 1
10
85.010428
20
13.766513
70
0
0
VERTEX
8
Layer 1
10
84.539783
20
13.983521
70
0
0
VERTEX
8
Layer 1
10
84.021919
20
14.003899
70
0
0
VERTEX
8
Layer 1
10
75.683754
20
12.683159
70
0
0
VERTEX
8
Layer 1
10
77.004390
20
4.345231
70
0
0
VERTEX
8
Layer 1
10
77.183733
20
3.858986
70
0
0
VERTEX
8
Layer 1
10
77.535505
20
3.478388
70
0
0
VERTEX
8
Layer 1
10
78.006149
20
3.261380
70
0
0
VERTEX
8
Layer 1
10
78.524013
20
3.241001
70
0
0
VERTEX
8
Layer 1
10
79.010259
20
3.420345
70
0
0
VERTEX
8
Layer 1
10
79.390857
20
3.772116
70
0
0
VERTEX
8
Layer 1
10
79.607865
20
4.242761
70
0
0
VERTEX
8
Layer 1
10
79.628244
20
4.760625
70
0
0
VERTEX
8
Layer 1
10
78.723134
20
10.475041
70
0
0
VERTEX
8
Layer 1
10
84.437548
20
11.380150
70
0
0
VERTEX
8
Layer 1
10
84.931785
20
11.564139
70
0
0
VERTEX
8
Layer 1
10
85.304199
20
11.911300
70
0
0
VERTEX
8
Layer 1
10
85.519287
20
12.372766
70
0
0
VERTEX
8
Layer 1
10
85.541543
20
12.899668
70
0
0
VERTEX
8
Layer 1
10
85.541543
20
12.899668
70
0
0
SEQEND
8
Layer 1
0
POLYLINE
8
Layer 1
62
7
70
0
10
0.000000
20
0.000000
66
1
0
VERTEX
8
Layer 1
10
88.303258
20
7.640710
70
0
0
VERTEX
8
Layer 1
10
88.119269
20
8.134947
70
0
0
VERTEX
8
Layer 1
10
87.772108
20
8.507360
70
0
0
VERTEX
8
Layer 1
10
87.310643
20
8.722447
70
0
0
VERTEX
8
Layer 1
10
86.783740
20
8.744703
70
0
0
VERTEX
8
Layer 1
10
82.121074
20
8.006279
70
0
0
VERTEX
8
Layer 1
10
82.859498
20
3.343613
70
0
0
VERTEX
8
Layer 1
10
83.038841
20
2.857368
70
0
0
VERTEX
8
Layer 1
10
83.390613
20
2.476769
70
0
0
VERTEX
8
Layer 1
10
83.861258
20
2.259762
70
0
0
VERTEX
8
Layer 1
10
84.379122
20
2.239384
70
0
0
VERTEX
8
Layer 1
10
84.865367
20
2.418727
70
0
0
VERTEX
8
Layer 1
10
85.245966
20
2.770499
70
0
0
VERTEX
8
Layer 1
10
85.462973
20
3.241143
70
0
0
VERTEX
8
Layer 1
10
85.483352
20
3.759007
70
0
0
VERTEX
8
Layer 1
10
85.160454
20
5.798161
70
0
0
VERTEX
8
Layer 1
10
87.199371
20
6.120954
70
0
0
VERTEX
8
Layer 1
10
87.693639
20
6.304994
70
0
0
VERTEX
8
Layer 1
10
88.066048
20
6.652223
70
0
0
VERTEX
8
Layer 1
10
88.281091
20
7.113757
70
0
0
VERTEX
8
Layer 1
10
88.303258
20
7.640710
70
0
0
VERTEX
8
Layer 1
10
88.303258
20
7.640710
70
0
0
SEQEND
8
Layer 1
0
POLYLINE
8
Layer 1
62
7
70
0
10
0.000000
20
0.000000
66
1
0
VERTEX
8
Layer 1
10
69.524793
20
18.743968
70
0
0
VERTEX
8
Layer 1
10
69.126277
20
19.075372
70
0
0
VERTEX
8
Layer 1
10
68.631267
20
19.229025
70
0
0
VERTEX
8
Layer 1
10
68.106178
20
19.179259
70
0
0
VERTEX
8
Layer 1
10
67.656539
20
18.940299
70
0
0
VERTEX
8
Layer 1
10
67.329311
20
18.550172
70
0
0
VERTEX
8
Layer 1
10
67.171455
20
18.046907
70
0
0
VERTEX
8
Layer 1
10
64.394625
20
-8.372624
70
0
0
VERTEX
8
Layer 1
10
64.444391
20
-8.897713
70
0
0
VERTEX
8
Layer 1
10
64.683351
20
-9.347351
70
0
0
VERTEX
8
Layer 1
10
65.073477
20
-9.674579
70
0
0
VERTEX
8
Layer 1
10
65.576743
20
-9.832435
70
0
0
VERTEX
8
Layer 1
10
66.101832
20
-9.782669
70
0
0
VERTEX
8
Layer 1
10
66.551470
20
-9.543710
70
0
0
VERTEX
8
Layer 1
10
66.878699
20
-9.153583
70
0
0
VERTEX
8
Layer 1
10
67.036555
20
-8.650317
70
0
0
VERTEX
8
Layer 1
10
69.813385
20
17.769213
70
0
0
VERTEX
8
Layer 1
10
69.766032
20
18.285292
70
0
0
VERTEX
8
Layer 1
10
69.524793
20
18.743968
70
0
0
VERTEX
8
Layer 1
10
69.524793
20
18.743968
70
0
0
SEQEND
8
Layer 1
0
POLYLINE
8
Layer 1
62
7
70
0
10
0.000000
20
0.000000
66
1
0
VERTEX
8
Layer 1
10
74.062530
20
8.797576
70
0
0
VERTEX
8
Layer 1
10
68.284751
20
15.932277
70
0
0
VERTEX
8
Layer 1
10
61.149946
20
10.154735
70
0
0
VERTEX
8
Layer 1
10
60.818571
20
9.756252
70
0
0
VERTEX
8
Layer 1
10
60.664916
20
9.261289
70
0
0
VERTEX
8
Layer 1
10
60.712373
20
8.745201
70
0
0
VERTEX
8
Layer 1
10
60.953719
20
8.286561
70
0
0
VERTEX
8
Layer 1
10
61.352202
20
7.955185
70
0
0
VERTEX
8
Layer 1
10
61.847166
20
7.801529
70
0
0
VERTEX
8
Layer 1
10
62.363254
20
7.848987
70
0
0
VERTEX
8
Layer 1
10
62.821894
20
8.090333
70
0
0
VERTEX
8
Layer 1
10
67.891955
20
12.196058
70
0
0
VERTEX
8
Layer 1
10
71.997786
20
7.125761
70
0
0
VERTEX
8
Layer 1
10
72.396269
20
6.794386
70
0
0
VERTEX
8
Layer 1
10
72.891232
20
6.640730
70
0
0
VERTEX
8
Layer 1
10
73.407319
20
6.688188
70
0
0
VERTEX
8
Layer 1
10
73.865960
20
6.929533
70
0
0
VERTEX
8
Layer 1
10
74.202087
20
7.335968
70
0
0
VERTEX
8
Layer 1
10
74.351107
20
7.822846
70
0
0
VERTEX
8
Layer 1
10
74.306696
20
8.330078
70
0
0
VERTEX
8
Layer 1
10
74.062530
20
8.797576
70
0
0
VERTEX
8
Layer 1
10
74.062530
20
8.797576
70
0
0
SEQEND
8
Layer 1
0
POLYLINE
8
Layer 1
62
7
70
0
10
0.000000
20
0.000000
66
1
0
VERTEX
8
Layer 1
10
72.875917
20
2.507121
70
0
0
VERTEX
8
Layer 1
10
67.563320
20
9.067717
70
0
0
VERTEX
8
Layer 1
10
61.002487
20
3.755014
70
0
0
VERTEX
8
Layer 1
10
60.671112
20
3.356531
70
0
0
VERTEX
8
Layer 1
10
60.517456
20
2.861567
70
0
0
VERTEX
8
Layer 1
10
60.564914
20
2.345480
70
0
0
VERTEX
8
Layer 1
10
60.806260
20
1.886839
70
0
0
VERTEX
8
Layer 1
10
61.212716
20
1.550811
70
0
0
VERTEX
8
Layer 1
10
61.699574
20
1.401870
70
0
0
VERTEX
8
Layer 1
10
62.206758
20
1.446331
70
0
0
VERTEX
8
Layer 1
10
62.674198
20
1.690507
70
0
0
VERTEX
8
Layer 1
10
67.170522
20
5.331499
70
0
0
VERTEX
8
Layer 1
10
70.811515
20
0.835175
70
0
0
VERTEX
8
Layer 1
10
71.209998
20
0.503799
70
0
0
VERTEX
8
Layer 1
10
71.704962
20
0.350144
70
0
0
VERTEX
8
Layer 1
10
72.221049
20
0.397602
70
0
0
VERTEX
8
Layer 1
10
72.679690
20
0.638948
70
0
0
VERTEX
8
Layer 1
10
73.011065
20
1.037431
70
0
0
VERTEX
8
Layer 1
10
73.164720
20
1.532394
70
0
0
VERTEX
8
Layer 1
10
73.117263
20
2.048481
70
0
0
VERTEX
8
Layer 1
10
72.875917
20
2.507121
70
0
0
VERTEX
8
Layer 1
10
72.875917
20
2.507121
70
0
0
SEQEND
8
Layer 1
0
POLYLINE
8
Layer 1
62
7
70
0
10
0.000000
20
0.000000
66
1
0
VERTEX
8
Layer 1
10
69.702423
20
-2.514279
70
0
0
VERTEX
8
Layer 1
10
66.731496
20
1.154415
70
0
0
VERTEX
8
Layer 1
10
63.062801
20
-1.816512
70
0
0
VERTEX
8
Layer 1
10
62.726773
20
-2.222968
70
0
0
VERTEX
8
Layer 1
10
62.577833
20
-2.709825
70
0
0
VERTEX
8
Layer 1
10
62.622293
20
-3.217010
70
0
0
VERTEX
8
Layer 1
10
62.866468
20
-3.684449
70
0
0
VERTEX
8
Layer 1
10
63.272903
20
-4.020577
70
0
0
VERTEX
8
Layer 1
10
63.759781
20
-4.169597
70
0
0
VERTEX
8
Layer 1
10
64.267013
20
-4.125185
70
0
0
VERTEX
8
Layer 1
10
64.734511
20
-3.881020
70
0
0
VERTEX
8
Layer 1
10
66.338698
20
-2.581803
70
0
0
VERTEX
8
Layer 1
10
67.638021
20
-4.186226
70
0
0
VERTEX
8
Layer 1
10
68.036504
20
-4.517601
70
0
0
VERTEX
8
Layer 1
10
68.531467
20
-4.671256
70
0
0
VERTEX
8
Layer 1
10
69.047554
20
-4.623799
70
0
0
VERTEX
8
Layer 1
10
69.506194
20
-4.382453
70
0
0
VERTEX
8
Layer 1
10
69.837570
20
-3.983970
70
0
0
VERTEX
8
Layer 1
10
69.991226
20
-3.489007
70
0
0
VERTEX
8
Layer 1
10
69.943768
20
-2.972920
70
0
0
VERTEX
8
Layer 1
10
69.702423
20
-2.514279
70
0
0
VERTEX
8
Layer 1
10
69.702423
20
-2.514279
70
0
0
SEQEND
8
Layer 1
0
POLYLINE
8
Layer 1
62
7
70
0
10
0.000000
20
0.000000
66
1
0
VERTEX
8
Layer 1
10
39.112764
20
78.227814
70
0
0
VERTEX
8
Layer 1
10
39.528961
20
78.001838
70
0
0
VERTEX
8
Layer 1
10
39.983046
20
78.136344
70
0
0
VERTEX
8
Layer 1
10
49.600566
20
85.924464
70
0
0
VERTEX
8
Layer 1
10
49.826542
20
86.340661
70
0
0
VERTEX
8
Layer 1
10
49.692036
20
86.794746
70
0
0
VERTEX
8
Layer 1
10
49.275839
20
87.020722
70
0
0
VERTEX
8
Layer 1
10
48.821754
20
86.886216
70
0
0
VERTEX
8
Layer 1
10
39.204234
20
79.098096
70
0
0
VERTEX
8
Layer 1
10
38.978258
20
78.681899
70
0
0
VERTEX
8
Layer 1
10
39.112764
20
78.227814
70
0
0
VERTEX
8
Layer 1
10
39.112764
20
78.227814
70
0
0
SEQEND
8
Layer 1
0
POLYLINE
8
Layer 1
62
7
70
0
10
0.000000
20
0.000000
66
1
0
VERTEX
8
Layer 1
10
40.917082
20
79.688923
70
0
0
VERTEX
8
Layer 1
10
42.983492
20
79.471735
70
0
0
VERTEX
8
Layer 1
10
43.437596
20
79.606240
70
0
0
VERTEX
8
Layer 1
10
43.663574
20
80.022456
70
0
0
VERTEX
8
Layer 1
10
43.529061
20
80.476475
70
0
0
VERTEX
8
Layer 1
10
43.112930
20
80.702444
70
0
0
VERTEX
8
Layer 1
10
42.277154
20
80.790288
70
0
0
VERTEX
8
Layer 1
10
42.364997
20
81.626065
70
0
0
VERTEX
8
Layer 1
10
42.230483
20
82.080084
70
0
0
VERTEX
8
Layer 1
10
41.814352
20
82.306053
70
0
0
VERTEX
8
Layer 1
10
41.360248
20
82.171549
70
0
0
VERTEX
8
Layer 1
10
41.134270
20
81.755333
70
0
0
VERTEX
8
Layer 1
10
40.917082
20
79.688923
70
0
0
SEQEND
8
Layer 1
0
POLYLINE
8
Layer 1
62
7
70
0
10
0.000000
20
0.000000
66
1
0
VERTEX
8
Layer 1
10
42.745256
20
81.169350
70
0
0
VERTEX
8
Layer 1
10
46.897207
20
80.733050
70
0
0
VERTEX
8
Layer 1
10
47.351226
20
80.867564
70
0
0
VERTEX
8
Layer 1
10
47.577196
20
81.283695
70
0
0
VERTEX
8
Layer 1
10
47.442692
20
81.737799
70
0
0
VERTEX
8
Layer 1
10
47.026475
20
81.963777
70
0
0
VERTEX
8
Layer 1
10
44.105328
20
82.270715
70
0
0
VERTEX
8
Layer 1
10
44.412436
20
85.191845
70
0
0
VERTEX
8
Layer 1
10
44.277931
20
85.645949
70
0
0
VERTEX
8
Layer 1
10
43.861715
20
85.871928
70
0
0
VERTEX
8
Layer 1
10
43.407696
20
85.737415
70
0
0
VERTEX
8
Layer 1
10
43.181727
20
85.321284
70
0
0
VERTEX
8
Layer 1
10
42.745256
20
81.169350
70
0
0
SEQEND
8
Layer 1
0
POLYLINE
8
Layer 1
62
7
70
0
10
0.000000
20
0.000000
66
1
0
VERTEX
8
Layer 1
10
44.890696
20
82.906695
70
0
0
VERTEX
8
Layer 1
10
49.979806
20
82.371809
70
0
0
VERTEX
8
Layer 1
10
50.433910
20
82.506314
70
0
0
VERTEX
8
Layer 1
10
50.659888
20
82.922530
70
0
0
VERTEX
8
Layer 1
10
50.525384
20
83.376634
70
0
0
VERTEX
8
Layer 1
10
50.109168
20
83.602613
70
0
0
VERTEX
8
Layer 1
10
46.250861
20
84.008135
70
0
0
VERTEX
8
Layer 1
10
46.656384
20
87.866442
70
0
0
VERTEX
8
Layer 1
10
46.521880
20
88.320547
70
0
0
VERTEX
8
Layer 1
10
46.105664
20
88.546525
70
0
0
VERTEX
8
Layer 1
10
45.651559
20
88.412021
70
0
0
VERTEX
8
Layer 1
10
45.425581
20
87.995804
70
0
0
VERTEX
8
Layer 1
10
44.890696
20
82.906695
70
0
0
SEQEND
8
Layer 1
0
POLYLINE
8
Layer 1
62
7
70
0
10
0.000000
20
0.000000
66
1
0
VERTEX
8
Layer 1
10
39.028332
20
78.365493
70
0
0
VERTEX
8
Layer 1
10
39.371897
20
78.039550
70
0
0
VERTEX
8
Layer 1
10
50.925366
20
73.604594
70
0
0
VERTEX
8
Layer 1
10
51.398787
20
73.616995
70
0
0
VERTEX
8
Layer 1
10
51.724779
20
73.960521
70
0
0
VERTEX
8
Layer 1
10
51.712378
20
74.433941
70
0
0
VERTEX
8
Layer 1
10
51.368853
20
74.759933
70
0
0
VERTEX
8
Layer 1
10
39.815383
20
79.194890
70
0
0
VERTEX
8
Layer 1
10
39.341963
20
79.182489
70
0
0
VERTEX
8
Layer 1
10
39.015970
20
78.838963
70
0
0
VERTEX
8
Layer 1
10
39.028332
20
78.365493
70
0
0
VERTEX
8
Layer 1
10
39.028332
20
78.365493
70
0
0
SEQEND
8
Layer 1
0
POLYLINE
8
Layer 1
62
7
70
0
10
0.000000
20
0.000000
66
1
0
VERTEX
8
Layer 1
10
42.028535
20
76.108718
70
0
0
VERTEX
8
Layer 1
10
42.372100
20
75.782695
70
0
0
VERTEX
8
Layer 1
10
42.845569
20
75.795137
70
0
0
VERTEX
8
Layer 1
10
43.171594
20
76.138646
70
0
0
VERTEX
8
Layer 1
10
43.159226
20
76.612078
70
0
0
VERTEX
8
Layer 1
10
42.817323
20
77.379770
70
0
0
VERTEX
8
Layer 1
10
43.584997
20
77.721504
70
0
0
VERTEX
8
Layer 1
10
43.911022
20
78.065012
70
0
0
VERTEX
8
Layer 1
10
43.898655
20
78.538444
70
0
0
VERTEX
8
Layer 1
10
43.555146
20
78.864469
70
0
0
VERTEX
8
Layer 1
10
43.081714
20
78.852101
70
0
0
VERTEX
8
Layer 1
10
41.183424
20
78.006915
70
0
0
VERTEX
8
Layer 1
10
42.028535
20
76.108718
70
0
0
SEQEND
8
Layer 1
0
POLYLINE
8
Layer 1
62
7
70
0
10
0.000000
20
0.000000
66
1
0
VERTEX
8
Layer 1
10
45.077732
20
73.350134
70
0
0
VERTEX
8
Layer 1
10
45.421241
20
73.024109
70
0
0
VERTEX
8
Layer 1
10
45.894673
20
73.036477
70
0
0
VERTEX
8
Layer 1
10
46.220698
20
73.379986
70
0
0
VERTEX
8
Layer 1
10
46.208330
20
73.853417
70
0
0
VERTEX
8
Layer 1
10
45.013607
20
76.536700
70
0
0
VERTEX
8
Layer 1
10
47.696889
20
77.731424
70
0
0
VERTEX
8
Layer 1
10
48.022823
20
78.074925
70
0
0
VERTEX
8
Layer 1
10
48.010453
20
78.548289
70
0
0
VERTEX
8
Layer 1
10
47.666944
20
78.874314
70
0
0
VERTEX
8
Layer 1
10
47.193512
20
78.861946
70
0
0
VERTEX
8
Layer 1
10
43.379708
20
77.163844
70
0
0
VERTEX
8
Layer 1
10
45.077732
20
73.350134
70
0
0
SEQEND
8
Layer 1
0
POLYLINE
8
Layer 1
62
7
70
0
10
0.000000
20
0.000000
66
1
0
VERTEX
8
Layer 1
10
48.038338
20
71.499833
70
0
0
VERTEX
8
Layer 1
10
48.381847
20
71.173808
70
0
0
VERTEX
8
Layer 1
10
48.855279
20
71.186175
70
0
0
VERTEX
8
Layer 1
10
49.181304
20
71.529684
70
0
0
VERTEX
8
Layer 1
10
49.168936
20
72.003116
70
0
0
VERTEX
8
Layer 1
10
47.590986
20
75.547369
70
0
0
VERTEX
8
Layer 1
10
51.135070
20
77.125337
70
0
0
VERTEX
8
Layer 1
10
51.461095
20
77.468846
70
0
0
VERTEX
8
Layer 1
10
51.448727
20
77.942278
70
0
0
VERTEX
8
Layer 1
10
51.105218
20
78.268303
70
0
0
VERTEX
8
Layer 1
10
50.631786
20
78.255934
70
0
0
VERTEX
8
Layer 1
10
45.957011
20
76.174607
70
0
0
VERTEX
8
Layer 1
10
48.038338
20
71.499833
70
0
0
SEQEND
8
Layer 1
0
POLYLINE
8
Layer 1
62
7
70
0
10
0.000000
20
0.000000
66
1
0
VERTEX
8
Layer 1
10
41.165830
20
65.893526
70
0
0
VERTEX
8
Layer 1
10
41.626383
20
65.782995
70
0
0
VERTEX
8
Layer 1
10
42.030179
20
66.030441
70
0
0
VERTEX
8
Layer 1
10
42.140739
20
66.490937
70
0
0
VERTEX
8
Layer 1
10
40.204789
20
78.714014
70
0
0
VERTEX
8
Layer 1
10
39.957343
20
79.117810
70
0
0
VERTEX
8
Layer 1
10
39.496846
20
79.228369
70
0
0
VERTEX
8
Layer 1
10
39.093050
20
78.980923
70
0
0
VERTEX
8
Layer 1
10
38.982491
20
78.520426
70
0
0
VERTEX
8
Layer 1
10
40.918440
20
66.297350
70
0
0
VERTEX
8
Layer 1
10
41.165830
20
65.893526
70
0
0
VERTEX
8
Layer 1
10
41.165830
20
65.893526
70
0
0
SEQEND
8
Layer 1
0
POLYLINE
8
Layer 1
62
7
70
0
10
0.000000
20
0.000000
66
1
0
VERTEX
8
Layer 1
10
38.775635
20
74.389901
70
0
0
VERTEX
8
Layer 1
10
39.236149
20
74.279372
70
0
0
VERTEX
8
Layer 1
10
39.639936
20
74.526853
70
0
0
VERTEX
8
Layer 1
10
40.133810
20
75.206702
70
0
0
VERTEX
8
Layer 1
10
40.813641
20
74.712659
70
0
0
VERTEX
8
Layer 1
10
41.274155
20
74.602130
70
0
0
VERTEX
8
Layer 1
10
41.677942
20
74.849611
70
0
0
VERTEX
8
Layer 1
10
41.788552
20
75.310147
70
0
0
VERTEX
8
Layer 1
10
41.541084
20
75.713988
70
0
0
VERTEX
8
Layer 1
10
39.860075
20
76.935287
70
0
0
VERTEX
8
Layer 1
10
38.638682
20
75.254203
70
0
0
VERTEX
8
Layer 1
10
38.528153
20
74.793688
70
0
0
VERTEX
8
Layer 1
10
38.775635
20
74.389901
70
0
0
VERTEX
8
Layer 1
10
38.775635
20
74.389901
70
0
0
SEQEND
8
Layer 1
0
POLYLINE
8
Layer 1
62
7
70
0
10
0.000000
20
0.000000
66
1
0
VERTEX
8
Layer 1
10
37.911117
20
70.370002
70
0
0
VERTEX
8
Layer 1
10
38.371565
20
70.259484
70
0
0
VERTEX
8
Layer 1
10
38.775325
20
70.506878
70
0
0
VERTEX
8
Layer 1
10
40.501825
20
72.883129
70
0
0
VERTEX
8
Layer 1
10
42.878076
20
71.156629
70
0
0
VERTEX
8
Layer 1
10
43.338591
20
71.046100
70
0
0
VERTEX
8
Layer 1
10
43.742377
20
71.293581
70
0
0
VERTEX
8
Layer 1
10
43.852907
20
71.754096
70
0
0
VERTEX
8
Layer 1
10
43.605426
20
72.157882
70
0
0
VERTEX
8
Layer 1
10
40.228091
20
74.611714
70
0
0
VERTEX
8
Layer 1
10
37.774165
20
71.234304
70
0
0
VERTEX
8
Layer 1
10
37.663636
20
70.773789
70
0
0
VERTEX
8
Layer 1
10
37.911117
20
70.370002
70
0
0
VERTEX
8
Layer 1
10
37.911117
20
70.370002
70
0
0
SEQEND
8
Layer 1
0
POLYLINE
8
Layer 1
62
7
70
0
10
0.000000
20
0.000000
66
1
0
VERTEX
8
Layer 1
10
37.789031
20
66.880865
70
0
0
VERTEX
8
Layer 1
10
38.249546
20
66.770336
70
0
0
VERTEX
8
Layer 1
10
38.653332
20
67.017817
70
0
0
VERTEX
8
Layer 1
10
40.933672
20
70.156378
70
0
0
VERTEX
8
Layer 1
10
44.072402
20
67.876021
70
0
0
VERTEX
8
Layer 1
10
44.532917
20
67.765491
70
0
0
VERTEX
8
Layer 1
10
44.936703
20
68.012973
70
0
0
VERTEX
8
Layer 1
10
45.047232
20
68.473488
70
0
0
VERTEX
8
Layer 1
10
44.799751
20
68.877274
70
0
0
VERTEX
8
Layer 1
10
40.659861
20
71.885057
70
0
0
VERTEX
8
Layer 1
10
37.652079
20
67.745167
70
0
0
VERTEX
8
Layer 1
10
37.541549
20
67.284652
70
0
0
VERTEX
8
Layer 1
10
37.789031
20
66.880865
70
0
0
VERTEX
8
Layer 1
10
37.789031
20
66.880865
70
0
0
SEQEND
8
Layer 1
0
POLYLINE
8
Layer 1
62
7
70
1
10
0.000000
20
0.000000
66
1
0
VERTEX
8
Layer 1
10
29.495244
20
70.439694
70
0
0
VERTEX
8
Layer 1
10
29.911441
20
70.213718
70
0
0
VERTEX
8
Layer 1
10
30.365526
20
70.348224
70
0
0
VERTEX
8
Layer 1
10
39.983046
20
78.136344
70
0
0
VERTEX
8
Layer 1
10
40.209022
20
78.552541
70
0
0
VERTEX
8
Layer 1
10
40.074516
20
79.006626
70
0
0
VERTEX
8
Layer 1
10
39.658319
20
79.232602
70
0
0
VERTEX
8
Layer 1
10
39.204234
20
79.098096
70
0
0
VERTEX
8
Layer 1
10
29.586714
20
71.309976
70
0
0
VERTEX
8
Layer 1
10
29.360738
20
70.893779
70
0
0
VERTEX
8
Layer 1
10
29.495244
20
70.439694
70
0
0
VERTEX
8
Layer 1
10
29.495244
20
70.439694
70
0
0
SEQEND
8
Layer 1
0
POLYLINE
8
Layer 1
62
7
70
0
10
0.000000
20
0.000000
66
1
0
VERTEX
8
Layer 1
10
36.956818
20
75.154373
70
0
0
VERTEX
8
Layer 1
10
37.372928
20
74.928387
70
0
0
VERTEX
8
Layer 1
10
37.827032
20
75.062891
70
0
0
VERTEX
8
Layer 1
10
38.053010
20
75.479107
70
0
0
VERTEX
8
Layer 1
10
38.270198
20
77.545517
70
0
0
VERTEX
8
Layer 1
10
36.203788
20
77.762704
70
0
0
VERTEX
8
Layer 1
10
35.749684
20
77.628200
70
0
0
VERTEX
8
Layer 1
10
35.523706
20
77.211984
70
0
0
VERTEX
8
Layer 1
10
35.658219
20
76.757965
70
0
0
VERTEX
8
Layer 1
10
36.074350
20
76.531996
70
0
0
VERTEX
8
Layer 1
10
36.910126
20
76.444152
70
0
0
VERTEX
8
Layer 1
10
36.822283
20
75.608375
70
0
0
VERTEX
8
Layer 1
10
36.956818
20
75.154373
70
0
0
VERTEX
8
Layer 1
10
36.956818
20
75.154373
70
0
0
SEQEND
8
Layer 1
0
POLYLINE
8
Layer 1
62
7
70
0
10
0.000000
20
0.000000
66
1
0
VERTEX
8
Layer 1
10
34.909361
20
71.588423
70
0
0
VERTEX
8
Layer 1
10
35.325565
20
71.362512
70
0
0
VERTEX
8
Layer 1
10
35.779584
20
71.497025
70
0
0
VERTEX
8
Layer 1
10
36.005553
20
71.913156
70
0
0
VERTEX
8
Layer 1
10
36.442024
20
76.065090
70
0
0
VERTEX
8
Layer 1
10
32.290073
20
76.501390
70
0
0
VERTEX
8
Layer 1
10
31.836054
20
76.366876
70
0
0
VERTEX
8
Layer 1
10
31.610084
20
75.950745
70
0
0
VERTEX
8
Layer 1
10
31.744588
20
75.496641
70
0
0
VERTEX
8
Layer 1
10
32.160805
20
75.270663
70
0
0
VERTEX
8
Layer 1
10
35.081952
20
74.963725
70
0
0
VERTEX
8
Layer 1
10
34.774844
20
72.042595
70
0
0
VERTEX
8
Layer 1
10
34.909361
20
71.588423
70
0
0
VERTEX
8
Layer 1
10
34.909361
20
71.588423
70
0
0
SEQEND
8
Layer 1
0
POLYLINE
8
Layer 1
62
7
70
0
10
0.000000
20
0.000000
66
1
0
VERTEX
8
Layer 1
10
32.665413
20
68.913826
70
0
0
VERTEX
8
Layer 1
10
33.081616
20
68.687915
70
0
0
VERTEX
8
Layer 1
10
33.535721
20
68.822419
70
0
0
VERTEX
8
Layer 1
10
33.761699
20
69.238636
70
0
0
VERTEX
8
Layer 1
10
34.296584
20
74.327745
70
0
0
VERTEX
8
Layer 1
10
29.207474
20
74.862631
70
0
0
VERTEX
8
Layer 1
10
28.753370
20
74.728126
70
0
0
VERTEX
8
Layer 1
10
28.527392
20
74.311910
70
0
0
VERTEX
8
Layer 1
10
28.661896
20
73.857806
70
0
0
VERTEX
8
Layer 1
10
29.078112
20
73.631827
70
0
0
VERTEX
8
Layer 1
10
32.936419
20
73.226305
70
0
0
VERTEX
8
Layer 1
10
32.530896
20
69.367998
70
0
0
VERTEX
8
Layer 1
10
32.665413
20
68.913826
70
0
0
VERTEX
8
Layer 1
10
32.665413
20
68.913826
70
0
0
SEQEND
8
Layer 1
0
POLYLINE
8
Layer 1
62
7
70
0
10
0.000000
20
0.000000
66
1
0
VERTEX
8
Layer 1
10
27.474862
20
82.800450
70
0
0
VERTEX
8
Layer 1
10
27.818427
20
82.474507
70
0
0
VERTEX
8
Layer 1
10
39.371897
20
78.039550
70
0
0
VERTEX
8
Layer 1
10
39.845317
20
78.051951
70
0
0
VERTEX
8
Layer 1
10
40.171310
20
78.395477
70
0
0
VERTEX
8
Layer 1
10
40.158909
20
78.868897
70
0
0
VERTEX
8
Layer 1
10
39.815383
20
79.194890
70
0
0
VERTEX
8
Layer 1
10
28.261914
20
83.629846
70
0
0
VERTEX
8
Layer 1
10
27.788493
20
83.617445
70
0
0
VERTEX
8
Layer 1
10
27.462501
20
83.273919
70
0
0
VERTEX
8
Layer 1
10
27.474862
20
82.800450
70
0
0
VERTEX
8
Layer 1
10
27.474862
20
82.800450
70
0
0
SEQEND
8
Layer 1
0
POLYLINE
8
Layer 1
62
7
70
0
10
0.000000
20
0.000000
66
1
0
VERTEX
8
Layer 1
10
35.288625
20
78.695996
70
0
0
VERTEX
8
Layer 1
10
35.632134
20
78.369971
70
0
0
VERTEX
8
Layer 1
10
36.105566
20
78.382339
70
0
0
VERTEX
8
Layer 1
10
38.003856
20
79.227525
70
0
0
VERTEX
8
Layer 1
10
37.158745
20
81.125722
70
0
0
VERTEX
8
Layer 1
10
36.815180
20
81.451745
70
0
0
VERTEX
8
Layer 1
10
36.341711
20
81.439303
70
0
0
VERTEX
8
Layer 1
10
36.015686
20
81.095794
70
0
0
VERTEX
8
Layer 1
10
36.028054
20
80.622362
70
0
0
VERTEX
8
Layer 1
10
36.369957
20
79.854669
70
0
0
VERTEX
8
Layer 1
10
35.602283
20
79.512936
70
0
0
VERTEX
8
Layer 1
10
35.276258
20
79.169428
70
0
0
VERTEX
8
Layer 1
10
35.288625
20
78.695996
70
0
0
VERTEX
8
Layer 1
10
35.288625
20
78.695996
70
0
0
SEQEND
8
Layer 1
0
POLYLINE
8
Layer 1
62
7
70
0
10
0.000000
20
0.000000
66
1
0
VERTEX
8
Layer 1
10
31.176827
20
78.686151
70
0
0
VERTEX
8
Layer 1
10
31.520336
20
78.360126
70
0
0
VERTEX
8
Layer 1
10
31.993768
20
78.372494
70
0
0
VERTEX
8
Layer 1
10
35.807572
20
80.070596
70
0
0
VERTEX
8
Layer 1
10
34.109548
20
83.884306
70
0
0
VERTEX
8
Layer 1
10
33.766039
20
84.210331
70
0
0
VERTEX
8
Layer 1
10
33.292607
20
84.197963
70
0
0
VERTEX
8
Layer 1
10
32.966582
20
83.854454
70
0
0
VERTEX
8
Layer 1
10
32.978950
20
83.381023
70
0
0
VERTEX
8
Layer 1
10
34.173673
20
80.697740
70
0
0
VERTEX
8
Layer 1
10
31.490391
20
79.503016
70
0
0
VERTEX
8
Layer 1
10
31.164457
20
79.159515
70
0
0
VERTEX
8
Layer 1
10
31.176827
20
78.686151
70
0
0
VERTEX
8
Layer 1
10
31.176827
20
78.686151
70
0
0
SEQEND
8
Layer 1
0
POLYLINE
8
Layer 1
62
7
70
0
10
0.000000
20
0.000000
66
1
0
VERTEX
8
Layer 1
10
27.738553
20
79.292162
70
0
0
VERTEX
8
Layer 1
10
28.082062
20
78.966137
70
0
0
VERTEX
8
Layer 1
10
28.555494
20
78.978506
70
0
0
VERTEX
8
Layer 1
10
33.230269
20
81.059832
70
0
0
VERTEX
8
Layer 1
10
31.148942
20
85.734607
70
0
0
VERTEX
8
Layer 1
10
30.805433
20
86.060632
70
0
0
VERTEX
8
Layer 1
10
30.332001
20
86.048265
70
0
0
VERTEX
8
Layer 1
10
30.005976
20
85.704756
70
0
0
VERTEX
8
Layer 1
10
30.018344
20
85.231324
70
0
0
VERTEX
8
Layer 1
10
31.596294
20
81.687071
70
0
0
VERTEX
8
Layer 1
10
28.052210
20
80.109103
70
0
0
VERTEX
8
Layer 1
10
27.726185
20
79.765594
70
0
0
VERTEX
8
Layer 1
10
27.738553
20
79.292162
70
0
0
VERTEX
8
Layer 1
10
27.738553
20
79.292162
70
0
0
SEQEND
8
Layer 1
0
POLYLINE
8
Layer 1
62
7
70
0
10
0.000000
20
0.000000
66
1
0
VERTEX
8
Layer 1
10
39.229880
20
78.116602
70
0
0
VERTEX
8
Layer 1
10
39.690434
20
78.006071
70
0
0
VERTEX
8
Layer 1
10
40.094230
20
78.253517
70
0
0
VERTEX
8
Layer 1
10
40.204789
20
78.714014
70
0
0
VERTEX
8
Layer 1
10
38.268840
20
90.937090
70
0
0
VERTEX
8
Layer 1
10
38.021393
20
91.340886
70
0
0
VERTEX
8
Layer 1
10
37.560897
20
91.451445
70
0
0
VERTEX
8
Layer 1
10
37.157101
20
91.203999
70
0
0
VERTEX
8
Layer 1
10
37.046541
20
90.743503
70
0
0
VERTEX
8
Layer 1
10
38.982491
20
78.520426
70
0
0
VERTEX
8
Layer 1
10
39.229880
20
78.116602
70
0
0
VERTEX
8
Layer 1
10
39.229880
20
78.116602
70
0
0
SEQEND
8
Layer 1
0
POLYLINE
8
Layer 1
62
7
70
0
10
0.000000
20
0.000000
66
1
0
VERTEX
8
Layer 1
10
37.646196
20
81.520452
70
0
0
VERTEX
8
Layer 1
10
39.327205
20
80.299153
70
0
0
VERTEX
8
Layer 1
10
40.548598
20
81.980237
70
0
0
VERTEX
8
Layer 1
10
40.659127
20
82.440752
70
0
0
VERTEX
8
Layer 1
10
40.411645
20
82.844539
70
0
0
VERTEX
8
Layer 1
10
39.951131
20
82.955068
70
0
0
VERTEX
8
Layer 1
10
39.547344
20
82.707587
70
0
0
VERTEX
8
Layer 1
10
39.053471
20
82.027737
70
0
0
VERTEX
8
Layer 1
10
38.373639
20
82.521781
70
0
0
VERTEX
8
Layer 1
10
37.913124
20
82.632310
70
0
0
VERTEX
8
Layer 1
10
37.509338
20
82.384829
70
0
0
VERTEX
8
Layer 1
10
37.398728
20
81.924293
70
0
0
VERTEX
8
Layer 1
10
37.646196
20
81.520452
70
0
0
VERTEX
8
Layer 1
10
37.646196
20
81.520452
70
0
0
SEQEND
8
Layer 1
0
POLYLINE
8
Layer 1
62
7
70
0
10
0.000000
20
0.000000
66
1
0
VERTEX
8
Layer 1
10
35.581854
20
85.076558
70
0
0
VERTEX
8
Layer 1
10
38.959189
20
82.622726
70
0
0
VERTEX
8
Layer 1
10
41.413115
20
86.000136
70
0
0
VERTEX
8
Layer 1
10
41.523644
20
86.460651
70
0
0
VERTEX
8
Layer 1
10
41.276163
20
86.864438
70
0
0
VERTEX
8
Layer 1
10
40.815715
20
86.974956
70
0
0
VERTEX
8
Layer 1
10
40.411955
20
86.727562
70
0
0
VERTEX
8
Layer 1
10
38.685455
20
84.351311
70
0
0
VERTEX
8
Layer 1
10
36.309204
20
86.077811
70
0
0
VERTEX
8
Layer 1
10
35.848689
20
86.188340
70
0
0
VERTEX
8
Layer 1
10
35.444903
20
85.940859
70
0
0
VERTEX
8
Layer 1
10
35.334373
20
85.480344
70
0
0
VERTEX
8
Layer 1
10
35.581854
20
85.076558
70
0
0
VERTEX
8
Layer 1
10
35.581854
20
85.076558
70
0
0
SEQEND
8
Layer 1
0
POLYLINE
8
Layer 1
62
7
70
0
10
0.000000
20
0.000000
66
1
0
VERTEX
8
Layer 1
10
34.387529
20
88.357166
70
0
0
VERTEX
8
Layer 1
10
38.527418
20
85.349383
70
0
0
VERTEX
8
Layer 1
10
41.535201
20
89.489273
70
0
0
VERTEX
8
Layer 1
10
41.645731
20
89.949788
70
0
0
VERTEX
8
Layer 1
10
41.398249
20
90.353575
70
0
0
VERTEX
8
Layer 1
10
40.937734
20
90.464104
70
0
0
VERTEX
8
Layer 1
10
40.533948
20
90.216623
70
0
0
VERTEX
8
Layer 1
10
38.253608
20
87.078062
70
0
0
VERTEX
8
Layer 1
10
35.114878
20
89.358419
70
0
0
VERTEX
8
Layer 1
10
34.654363
20
89.468949
70
0
0
VERTEX
8
Layer 1
10
34.250577
20
89.221467
70
0
0
VERTEX
8
Layer 1
10
34.140048
20
88.760952
70
0
0
VERTEX
8
Layer 1
10
34.387529
20
88.357166
70
0
0
VERTEX
8
Layer 1
10
34.387529
20
88.357166
70
0
0
SEQEND
8
Layer 1
0
POLYLINE
8
Layer 1
62
7
70
0
10
0.000000
20
0.000000
66
1
0
VERTEX
8
Layer 1
10
71.085897
20
65.065964
70
0
0
VERTEX
8
Layer 1
10
70.591227
20
64.643476
70
0
0
VERTEX
8
Layer 1
10
70.540186
20
63.994947
70
0
0
VERTEX
8
Layer 1
10
75.793246
20
47.827667
70
0
0
VERTEX
8
Layer 1
10
76.215734
20
47.332997
70
0
0
VERTEX
8
Layer 1
10
76.864263
20
47.281956
70
0
0
VERTEX
8
Layer 1
10
77.358933
20
47.704444
70
0
0
VERTEX
8
Layer 1
10
77.409974
20
48.352973
70
0
0
VERTEX
8
Layer 1
10
72.156914
20
64.520253
70
0
0
VERTEX
8
Layer 1
10
71.734426
20
65.014923
70
0
0
VERTEX
8
Layer 1
10
71.085897
20
65.065964
70
0
0
VERTEX
8
Layer 1
10
71.085897
20
65.065964
70
0
0
SEQEND
8
Layer 1
0
POLYLINE
8
Layer 1
62
7
70
0
10
0.000000
20
0.000000
66
1
0
VERTEX
8
Layer 1
10
71.497523
20
63.799106
70
0
0
VERTEX
8
Layer 1
10
67.817223
20
56.575859
70
0
0
VERTEX
8
Layer 1
10
67.766223
20
55.927411
70
0
0
VERTEX
8
Layer 1
10
68.188631
20
55.432782
70
0
0
VERTEX
8
Layer 1
10
68.837183
20
55.381729
70
0
0
VERTEX
8
Layer 1
10
69.331866
20
55.804241
70
0
0
VERTEX
8
Layer 1
10
72.240442
20
61.512636
70
0
0
VERTEX
8
Layer 1
10
77.948837
20
58.604060
70
0
0
VERTEX
8
Layer 1
10
78.597390
20
58.553007
70
0
0
VERTEX
8
Layer 1
10
79.092072
20
58.975519
70
0
0
VERTEX
8
Layer 1
10
79.143072
20
59.623968
70
0
0
VERTEX
8
Layer 1
10
78.720664
20
60.118597
70
0
0
VERTEX
8
Layer 1
10
71.497523
20
63.799106
70
0
0
SEQEND
8
Layer 1
0
POLYLINE
8
Layer 1
62
7
70
0
10
0.000000
20
0.000000
66
1
0
VERTEX
8
Layer 1
10
73.265609
20
58.357490
70
0
0
VERTEX
8
Layer 1
10
71.475260
20
54.843476
70
0
0
VERTEX
8
Layer 1
10
71.424260
20
54.195028
70
0
0
VERTEX
8
Layer 1
10
71.846667
20
53.700399
70
0
0
VERTEX
8
Layer 1
10
72.495115
20
53.649400
70
0
0
VERTEX
8
Layer 1
10
72.989744
20
54.071807
70
0
0
VERTEX
8
Layer 1
10
74.008527
20
56.071020
70
0
0
VERTEX
8
Layer 1
10
76.007847
20
55.052446
70
0
0
VERTEX
8
Layer 1
10
76.656295
20
55.001447
70
0
0
VERTEX
8
Layer 1
10
77.150924
20
55.423854
70
0
0
VERTEX
8
Layer 1
10
77.201923
20
56.072302
70
0
0
VERTEX
8
Layer 1
10
76.779516
20
56.566931
70
0
0
VERTEX
8
Layer 1
10
73.265609
20
58.357490
70
0
0
SEQEND
8
Layer 1
0
POLYLINE
8
Layer 1
62
7
70
0
10
0.000000
20
0.000000
66
1
0
VERTEX
8
Layer 1
10
74.433902
20
54.761849
70
0
0
VERTEX
8
Layer 1
10
72.040981
20
50.065481
70
0
0
VERTEX
8
Layer 1
10
71.989928
20
49.416929
70
0
0
VERTEX
8
Layer 1
10
72.412440
20
48.922246
70
0
0
VERTEX
8
Layer 1
10
73.060992
20
48.871193
70
0
0
VERTEX
8
Layer 1
10
73.555675
20
49.293705
70
0
0
VERTEX
8
Layer 1
10
75.176769
20
52.475537
70
0
0
VERTEX
8
Layer 1
10
78.358494
20
50.854233
70
0
0
VERTEX
8
Layer 1
10
79.007046
20
50.803181
70
0
0
VERTEX
8
Layer 1
10
79.501729
20
51.225692
70
0
0
VERTEX
8
Layer 1
10
79.552782
20
51.874245
70
0
0
VERTEX
8
Layer 1
10
79.130270
20
52.368928
70
0
0
VERTEX
8
Layer 1
10
74.433902
20
54.761849
70
0
0
SEQEND
8
Layer 1
0
POLYLINE
8
Layer 1
62
7
70
0
10
0.000000
20
0.000000
66
1
0
VERTEX
8
Layer 1
10
71.304019
20
65.106464
70
0
0
VERTEX
8
Layer 1
10
70.716906
20
64.826330
70
0
0
VERTEX
8
Layer 1
10
59.342161
20
52.193406
70
0
0
VERTEX
8
Layer 1
10
59.125016
20
51.580190
70
0
0
VERTEX
8
Layer 1
10
59.405076
20
50.993033
70
0
0
VERTEX
8
Layer 1
10
60.018292
20
50.775888
70
0
0
VERTEX
8
Layer 1
10
60.605449
20
51.055947
70
0
0
VERTEX
8
Layer 1
10
71.980194
20
63.688870
70
0
0
VERTEX
8
Layer 1
10
72.197339
20
64.302087
70
0
0
VERTEX
8
Layer 1
10
71.917280
20
64.889244
70
0
0
VERTEX
8
Layer 1
10
71.304019
20
65.106464
70
0
0
VERTEX
8
Layer 1
10
71.304019
20
65.106464
70
0
0
SEQEND
8
Layer 1
0
POLYLINE
8
Layer 1
62
7
70
0
10
0.000000
20
0.000000
66
1
0
VERTEX
8
Layer 1
10
62.930375
20
63.475084
70
0
0
VERTEX
8
Layer 1
10
62.343160
20
63.194988
70
0
0
VERTEX
8
Layer 1
10
62.126042
20
62.581688
70
0
0
VERTEX
8
Layer 1
10
62.406100
20
61.994619
70
0
0
VERTEX
8
Layer 1
10
63.019228
20
61.777462
70
0
0
VERTEX
8
Layer 1
10
69.417401
20
62.112754
70
0
0
VERTEX
8
Layer 1
10
69.752640
20
55.714739
70
0
0
VERTEX
8
Layer 1
10
70.032664
20
55.127549
70
0
0
VERTEX
8
Layer 1
10
70.645878
20
54.910355
70
0
0
VERTEX
8
Layer 1
10
71.233093
20
55.190452
70
0
0
VERTEX
8
Layer 1
10
71.450211
20
55.803750
70
0
0
VERTEX
8
Layer 1
10
71.025960
20
63.899335
70
0
0
VERTEX
8
Layer 1
10
62.930375
20
63.475084
70
0
0
SEQEND
8
Layer 1
0
POLYLINE
8
Layer 1
62
7
70
0
10
0.000000
20
0.000000
66
1
0
VERTEX
8
Layer 1
10
63.258940
20
59.440950
70
0
0
VERTEX
8
Layer 1
10
62.671845
20
59.160818
70
0
0
VERTEX
8
Layer 1
10
62.454765
20
58.547606
70
0
0
VERTEX
8
Layer 1
10
62.734788
20
57.960415
70
0
0
VERTEX
8
Layer 1
10
63.348002
20
57.743221
70
0
0
VERTEX
8
Layer 1
10
65.588776
20
57.860710
70
0
0
VERTEX
8
Layer 1
10
65.706264
20
55.619936
70
0
0
VERTEX
8
Layer 1
10
65.986287
20
55.032746
70
0
0
VERTEX
8
Layer 1
10
66.599501
20
54.815552
70
0
0
VERTEX
8
Layer 1
10
67.186717
20
55.095648
70
0
0
VERTEX
8
Layer 1
10
67.403834
20
55.708947
70
0
0
VERTEX
8
Layer 1
10
67.197335
20
59.647291
70
0
0
VERTEX
8
Layer 1
10
63.258940
20
59.440950
70
0
0
SEQEND
8
Layer 1
0
POLYLINE
8
Layer 1
62
7
70
0
10
0.000000
20
0.000000
66
1
0
VERTEX
8
Layer 1
10
59.404042
20
56.561771
70
0
0
VERTEX
8
Layer 1
10
58.816973
20
56.281713
70
0
0
VERTEX
8
Layer 1
10
58.599816
20
55.668585
70
0
0
VERTEX
8
Layer 1
10
58.879839
20
55.081395
70
0
0
VERTEX
8
Layer 1
10
59.493053
20
54.864201
70
0
0
VERTEX
8
Layer 1
10
63.058984
20
55.051111
70
0
0
VERTEX
8
Layer 1
10
63.245894
20
51.485180
70
0
0
VERTEX
8
Layer 1
10
63.525917
20
50.897989
70
0
0
VERTEX
8
Layer 1
10
64.139131
20
50.680795
70
0
0
VERTEX
8
Layer 1
10
64.726347
20
50.960892
70
0
0
VERTEX
8
Layer 1
10
64.943464
20
51.574191
70
0
0
VERTEX
8
Layer 1
10
64.667701
20
56.837744
70
0
0
VERTEX
8
Layer 1
10
59.404042
20
56.561771
70
0
0
SEQEND
8
Layer 1
0
POLYLINE
8
Layer 1
62
7
70
0
10
0.000000
20
0.000000
66
1
0
VERTEX
8
Layer 1
10
54.257822
20
68.504877
70
0
0
VERTEX
8
Layer 1
10
53.889363
20
67.968677
70
0
0
VERTEX
8
Layer 1
10
54.007911
20
67.329042
70
0
0
VERTEX
8
Layer 1
10
54.544025
20
66.960574
70
0
0
VERTEX
8
Layer 1
10
71.171830
20
63.426217
70
0
0
VERTEX
8
Layer 1
10
71.811465
20
63.544766
70
0
0
VERTEX
8
Layer 1
10
72.179933
20
64.080880
70
0
0
VERTEX
8
Layer 1
10
72.061384
20
64.720515
70
0
0
VERTEX
8
Layer 1
10
71.525270
20
65.088983
70
0
0
VERTEX
8
Layer 1
10
54.897465
20
68.623339
70
0
0
VERTEX
8
Layer 1
10
54.257822
20
68.504877
70
0
0
VERTEX
8
Layer 1
10
54.257822
20
68.504877
70
0
0
SEQEND
8
Layer 1
0
POLYLINE
8
Layer 1
62
7
70
0
10
0.000000
20
0.000000
66
1
0
VERTEX
8
Layer 1
10
65.285910
20
71.406665
70
0
0
VERTEX
8
Layer 1
10
64.917472
20
70.870513
70
0
0
VERTEX
8
Layer 1
10
65.036070
20
70.230873
70
0
0
VERTEX
8
Layer 1
10
68.525509
20
64.857718
70
0
0
VERTEX
8
Layer 1
10
63.152196
20
61.368228
70
0
0
VERTEX
8
Layer 1
10
62.783806
20
60.832157
70
0
0
VERTEX
8
Layer 1
10
62.902305
20
60.192594
70
0
0
VERTEX
8
Layer 1
10
63.438444
20
59.824043
70
0
0
VERTEX
8
Layer 1
10
64.078148
20
59.942596
70
0
0
VERTEX
8
Layer 1
10
70.876986
20
64.357829
70
0
0
VERTEX
8
Layer 1
10
66.461753
20
71.156667
70
0
0
VERTEX
8
Layer 1
10
65.925614
20
71.525218
70
0
0
VERTEX
8
Layer 1
10
65.285910
20
71.406665
70
0
0
VERTEX
8
Layer 1
10
65.285910
20
71.406665
70
0
0
SEQEND
8
Layer 1
0
POLYLINE
8
Layer 1
62
7
70
0
10
0.000000
20
0.000000
66
1
0
VERTEX
8
Layer 1
10
61.956596
20
69.104965
70
0
0
VERTEX
8
Layer 1
10
61.588158
20
68.568813
70
0
0
VERTEX
8
Layer 1
10
61.706757
20
67.929173
70
0
0
VERTEX
8
Layer 1
10
62.928798
20
66.047290
70
0
0
VERTEX
8
Layer 1
10
61.046916
20
64.825248
70
0
0
VERTEX
8
Layer 1
10
60.678478
20
64.289096
70
0
0
VERTEX
8
Layer 1
10
60.797076
20
63.649456
70
0
0
VERTEX
8
Layer 1
10
61.333134
20
63.280953
70
0
0
VERTEX
8
Layer 1
10
61.972761
20
63.399407
70
0
0
VERTEX
8
Layer 1
10
65.280276
20
65.547401
70
0
0
VERTEX
8
Layer 1
10
63.132440
20
68.854967
70
0
0
VERTEX
8
Layer 1
10
62.596300
20
69.223518
70
0
0
VERTEX
8
Layer 1
10
61.956596
20
69.104965
70
0
0
VERTEX
8
Layer 1
10
61.956596
20
69.104965
70
0
0
SEQEND
8
Layer 1
0
POLYLINE
8
Layer 1
62
7
70
0
10
0.000000
20
0.000000
66
1
0
VERTEX
8
Layer 1
10
57.535768
20
71.003888
70
0
0
VERTEX
8
Layer 1
10
57.167330
20
70.467736
70
0
0
VERTEX
8
Layer 1
10
57.285928
20
69.828095
70
0
0
VERTEX
8
Layer 1
10
59.230714
20
66.833332
70
0
0
VERTEX
8
Layer 1
10
56.235950
20
64.888546
70
0
0
VERTEX
8
Layer 1
10
55.867513
20
64.352395
70
0
0
VERTEX
8
Layer 1
10
55.986111
20
63.712754
70
0
0
VERTEX
8
Layer 1
10
56.522181
20
63.344365
70
0
0
VERTEX
8
Layer 1
10
57.161744
20
63.462863
70
0
0
VERTEX
8
Layer 1
10
61.582349
20
66.333495
70
0
0
VERTEX
8
Layer 1
10
58.711611
20
70.753889
70
0
0
VERTEX
8
Layer 1
10
58.175472
20
71.122441
70
0
0
VERTEX
8
Layer 1
10
57.535768
20
71.003888
70
0
0
VERTEX
8
Layer 1
10
57.535768
20
71.003888
70
0
0
SEQEND
8
Layer 1
0
POLYLINE
8
Layer 1
62
7
70
1
10
0.000000
20
0.000000
66
1
0
VERTEX
8
Layer 1
10
65.832837
20
81.233244
70
0
0
VERTEX
8
Layer 1
10
65.338167
20
80.810756
70
0
0
VERTEX
8
Layer 1
10
65.287126
20
80.162227
70
0
0
VERTEX
8
Layer 1
10
70.540186
20
63.994947
70
0
0
VERTEX
8
Layer 1
10
70.962674
20
63.500277
70
0
0
VERTEX
8
Layer 1
10
71.611203
20
63.449236
70
0
0
VERTEX
8
Layer 1
10
72.105873
20
63.871724
70
0
0
VERTEX
8
Layer 1
10
72.156914
20
64.520253
70
0
0
VERTEX
8
Layer 1
10
66.903854
20
80.687533
70
0
0
VERTEX
8
Layer 1
10
66.481366
20
81.182203
70
0
0
VERTEX
8
Layer 1
10
65.832837
20
81.233244
70
0
0
VERTEX
8
Layer 1
10
65.832837
20
81.233244
70
0
0
SEQEND
8
Layer 1
0
POLYLINE
8
Layer 1
62
7
70
0
10
0.000000
20
0.000000
66
1
0
VERTEX
8
Layer 1
10
64.099618
20
69.962210
70
0
0
VERTEX
8
Layer 1
10
63.605028
20
69.539681
70
0
0
VERTEX
8
Layer 1
10
63.554028
20
68.891232
70
0
0
VERTEX
8
Layer 1
10
63.976436
20
68.396603
70
0
0
VERTEX
8
Layer 1
10
71.199576
20
64.716094
70
0
0
VERTEX
8
Layer 1
10
74.879877
20
71.939341
70
0
0
VERTEX
8
Layer 1
10
74.930877
20
72.587789
70
0
0
VERTEX
8
Layer 1
10
74.508469
20
73.082418
70
0
0
VERTEX
8
Layer 1
10
73.859917
20
73.133471
70
0
0
VERTEX
8
Layer 1
10
73.365234
20
72.710959
70
0
0
VERTEX
8
Layer 1
10
70.456658
20
67.002564
70
0
0
VERTEX
8
Layer 1
10
64.748263
20
69.911140
70
0
0
VERTEX
8
Layer 1
10
64.099618
20
69.962210
70
0
0
VERTEX
8
Layer 1
10
64.099618
20
69.962210
70
0
0
SEQEND
8
Layer 1
0
POLYLINE
8
Layer 1
62
7
70
0
10
0.000000
20
0.000000
66
1
0
VERTEX
8
Layer 1
10
66.040765
20
73.513875
70
0
0
VERTEX
8
Layer 1
10
65.546176
20
73.091346
70
0
0
VERTEX
8
Layer 1
10
65.495177
20
72.442898
70
0
0
VERTEX
8
Layer 1
10
65.917584
20
71.948269
70
0
0
VERTEX
8
Layer 1
10
69.431491
20
70.157710
70
0
0
VERTEX
8
Layer 1
10
71.221840
20
73.671724
70
0
0
VERTEX
8
Layer 1
10
71.272840
20
74.320172
70
0
0
VERTEX
8
Layer 1
10
70.850433
20
74.814801
70
0
0
VERTEX
8
Layer 1
10
70.201985
20
74.865800
70
0
0
VERTEX
8
Layer 1
10
69.707356
20
74.443393
70
0
0
VERTEX
8
Layer 1
10
68.688624
20
72.444022
70
0
0
VERTEX
8
Layer 1
10
66.689253
20
73.462754
70
0
0
VERTEX
8
Layer 1
10
66.040765
20
73.513875
70
0
0
VERTEX
8
Layer 1
10
66.040765
20
73.513875
70
0
0
SEQEND
8
Layer 1
0
POLYLINE
8
Layer 1
62
7
70
0
10
0.000000
20
0.000000
66
1
0
VERTEX
8
Layer 1
10
63.690170
20
77.711930
70
0
0
VERTEX
8
Layer 1
10
63.195371
20
77.289508
70
0
0
VERTEX
8
Layer 1
10
63.144318
20
76.640955
70
0
0
VERTEX
8
Layer 1
10
63.566830
20
76.146272
70
0
0
VERTEX
8
Layer 1
10
68.263198
20
73.753351
70
0
0
VERTEX
8
Layer 1
10
70.656119
20
78.449719
70
0
0
VERTEX
8
Layer 1
10
70.707172
20
79.098271
70
0
0
VERTEX
8
Layer 1
10
70.284660
20
79.592954
70
0
0
VERTEX
8
Layer 1
10
69.636108
20
79.644007
70
0
0
VERTEX
8
Layer 1
10
69.141425
20
79.221495
70
0
0
VERTEX
8
Layer 1
10
67.520331
20
76.039663
70
0
0
VERTEX
8
Layer 1
10
64.338606
20
77.660967
70
0
0
VERTEX
8
Layer 1
10
63.690170
20
77.711930
70
0
0
VERTEX
8
Layer 1
10
63.690170
20
77.711930
70
0
0
SEQEND
8
Layer 1
0
POLYLINE
8
Layer 1
62
7
70
0
10
0.000000
20
0.000000
66
1
0
VERTEX
8
Layer 1
10
82.678764
20
77.739388
70
0
0
VERTEX
8
Layer 1
10
82.091651
20
77.459253
70
0
0
VERTEX
8
Layer 1
10
70.716906
20
64.826330
70
0
0
VERTEX
8
Layer 1
10
70.499761
20
64.213113
70
0
0
VERTEX
8
Layer 1
10
70.779820
20
63.625956
70
0
0
VERTEX
8
Layer 1
10
71.393037
20
63.408811
70
0
0
VERTEX
8
Layer 1
10
71.980194
20
63.688870
70
0
0
VERTEX
8
Layer 1
10
83.354939
20
76.321794
70
0
0
VERTEX
8
Layer 1
10
83.572084
20
76.935010
70
0
0
VERTEX
8
Layer 1
10
83.292024
20
77.522167
70
0
0
VERTEX
8
Layer 1
10
82.678764
20
77.739388
70
0
0
VERTEX
8
Layer 1
10
82.678764
20
77.739388
70
0
0
SEQEND
8
Layer 1
0
POLYLINE
8
Layer 1
62
7
70
0
10
0.000000
20
0.000000
66
1
0
VERTEX
8
Layer 1
10
72.051222
20
73.604845
70
0
0
VERTEX
8
Layer 1
10
71.464007
20
73.324748
70
0
0
VERTEX
8
Layer 1
10
71.246889
20
72.711450
70
0
0
VERTEX
8
Layer 1
10
71.671140
20
64.615865
70
0
0
VERTEX
8
Layer 1
10
79.766725
20
65.040116
70
0
0
VERTEX
8
Layer 1
10
80.353940
20
65.320212
70
0
0
VERTEX
8
Layer 1
10
80.571058
20
65.933512
70
0
0
VERTEX
8
Layer 1
10
80.291000
20
66.520581
70
0
0
VERTEX
8
Layer 1
10
79.677872
20
66.737738
70
0
0
VERTEX
8
Layer 1
10
73.279699
20
66.402446
70
0
0
VERTEX
8
Layer 1
10
72.944460
20
72.800461
70
0
0
VERTEX
8
Layer 1
10
72.664436
20
73.387651
70
0
0
VERTEX
8
Layer 1
10
72.051222
20
73.604845
70
0
0
VERTEX
8
Layer 1
10
72.051222
20
73.604845
70
0
0
SEQEND
8
Layer 1
0
POLYLINE
8
Layer 1
62
7
70
0
10
0.000000
20
0.000000
66
1
0
VERTEX
8
Layer 1
10
76.097599
20
73.699648
70
0
0
VERTEX
8
Layer 1
10
75.510383
20
73.419552
70
0
0
VERTEX
8
Layer 1
10
75.293266
20
72.806253
70
0
0
VERTEX
8
Layer 1
10
75.499765
20
68.867909
70
0
0
VERTEX
8
Layer 1
10
79.438160
20
69.074251
70
0
0
VERTEX
8
Layer 1
10
80.025254
20
69.354382
70
0
0
VERTEX
8
Layer 1
10
80.242335
20
69.967594
70
0
0
VERTEX
8
Layer 1
10
79.962312
20
70.554785
70
0
0
VERTEX
8
Layer 1
10
79.349098
20
70.771979
70
0
0
VERTEX
8
Layer 1
10
77.108324
20
70.654490
70
0
0
VERTEX
8
Layer 1
10
76.990836
20
72.895264
70
0
0
VERTEX
8
Layer 1
10
76.710813
20
73.482454
70
0
0
VERTEX
8
Layer 1
10
76.097599
20
73.699648
70
0
0
VERTEX
8
Layer 1
10
76.097599
20
73.699648
70
0
0
SEQEND
8
Layer 1
0
POLYLINE
8
Layer 1
62
7
70
0
10
0.000000
20
0.000000
66
1
0
VERTEX
8
Layer 1
10
78.557969
20
77.834405
70
0
0
VERTEX
8
Layer 1
10
77.970753
20
77.554308
70
0
0
VERTEX
8
Layer 1
10
77.753636
20
76.941009
70
0
0
VERTEX
8
Layer 1
10
78.029399
20
71.677457
70
0
0
VERTEX
8
Layer 1
10
83.293058
20
71.953429
70
0
0
VERTEX
8
Layer 1
10
83.880127
20
72.233487
70
0
0
VERTEX
8
Layer 1
10
84.097284
20
72.846615
70
0
0
VERTEX
8
Layer 1
10
83.817261
20
73.433805
70
0
0
VERTEX
8
Layer 1
10
83.204047
20
73.650999
70
0
0
VERTEX
8
Layer 1
10
79.638116
20
73.464089
70
0
0
VERTEX
8
Layer 1
10
79.451206
20
77.030020
70
0
0
VERTEX
8
Layer 1
10
79.171183
20
77.617211
70
0
0
VERTEX
8
Layer 1
10
78.557969
20
77.834405
70
0
0
VERTEX
8
Layer 1
10
78.557969
20
77.834405
70
0
0
SEQEND
8
Layer 1
0
POLYLINE
8
Layer 1
62
7
70
0
10
0.000000
20
0.000000
66
1
0
VERTEX
8
Layer 1
10
70.885627
20
64.970521
70
0
0
VERTEX
8
Layer 1
10
70.517167
20
64.434320
70
0
0
VERTEX
8
Layer 1
10
70.635716
20
63.794685
70
0
0
VERTEX
8
Layer 1
10
71.171830
20
63.426217
70
0
0
VERTEX
8
Layer 1
10
87.799635
20
59.891861
70
0
0
VERTEX
8
Layer 1
10
88.439269
20
60.010410
70
0
0
VERTEX
8
Layer 1
10
88.807737
20
60.546523
70
0
0
VERTEX
8
Layer 1
10
88.689189
20
61.186158
70
0
0
VERTEX
8
Layer 1
10
88.153075
20
61.554626
70
0
0
VERTEX
8
Layer 1
10
71.525270
20
65.088983
70
0
0
VERTEX
8
Layer 1
10
70.885627
20
64.970521
70
0
0
VERTEX
8
Layer 1
10
70.885627
20
64.970521
70
0
0
SEQEND
8
Layer 1
0
POLYLINE
8
Layer 1
62
7
70
0
10
0.000000
20
0.000000
66
1
0
VERTEX
8
Layer 1
10
78.618952
20
68.572604
70
0
0
VERTEX
8
Layer 1
10
71.820114
20
64.157371
70
0
0
VERTEX
8
Layer 1
10
76.235347
20
57.358533
70
0
0
VERTEX
8
Layer 1
10
76.771486
20
56.989982
70
0
0
VERTEX
8
Layer 1
10
77.411190
20
57.108535
70
0
0
VERTEX
8
Layer 1
10
77.779628
20
57.644687
70
0
0
VERTEX
8
Layer 1
10
77.661030
20
58.284327
70
0
0
VERTEX
8
Layer 1
10
74.171591
20
63.657482
70
0
0
VERTEX
8
Layer 1
10
79.544904
20
67.146972
70
0
0
VERTEX
8
Layer 1
10
79.913294
20
67.683043
70
0
0
VERTEX
8
Layer 1
10
79.794795
20
68.322606
70
0
0
VERTEX
8
Layer 1
10
79.258656
20
68.691157
70
0
0
VERTEX
8
Layer 1
10
78.618952
20
68.572604
70
0
0
VERTEX
8
Layer 1
10
78.618952
20
68.572604
70
0
0
SEQEND
8
Layer 1
0
POLYLINE
8
Layer 1
62
7
70
0
10
0.000000
20
0.000000
66
1
0
VERTEX
8
Layer 1
10
80.724339
20
65.115794
70
0
0
VERTEX
8
Layer 1
10
77.416824
20
62.967799
70
0
0
VERTEX
8
Layer 1
10
79.564660
20
59.660233
70
0
0
VERTEX
8
Layer 1
10
80.100800
20
59.291682
70
0
0
VERTEX
8
Layer 1
10
80.740504
20
59.410235
70
0
0
VERTEX
8
Layer 1
10
81.108942
20
59.946387
70
0
0
VERTEX
8
Layer 1
10
80.990343
20
60.586027
70
0
0
VERTEX
8
Layer 1
10
79.768302
20
62.467910
70
0
0
VERTEX
8
Layer 1
10
81.650184
20
63.689952
70
0
0
VERTEX
8
Layer 1
10
82.018622
20
64.226104
70
0
0
VERTEX
8
Layer 1
10
81.900024
20
64.865744
70
0
0
VERTEX
8
Layer 1
10
81.363966
20
65.234247
70
0
0
VERTEX
8
Layer 1
10
80.724339
20
65.115794
70
0
0
VERTEX
8
Layer 1
10
80.724339
20
65.115794
70
0
0
SEQEND
8
Layer 1
0
POLYLINE
8
Layer 1
62
7
70
0
10
0.000000
20
0.000000
66
1
0
VERTEX
8
Layer 1
10
85.535356
20
65.052337
70
0
0
VERTEX
8
Layer 1
10
81.114751
20
62.181706
70
0
0
VERTEX
8
Layer 1
10
83.985489
20
57.761311
70
0
0
VERTEX
8
Layer 1
10
84.521628
20
57.392759
70
0
0
VERTEX
8
Layer 1
10
85.161332
20
57.511312
70
0
0
VERTEX
8
Layer 1
10
85.529770
20
58.047464
70
0
0
VERTEX
8
Layer 1
10
85.411172
20
58.687105
70
0
0
VERTEX
8
Layer 1
10
83.466386
20
61.681868
70
0
0
VERTEX
8
Layer 1
10
86.461150
20
63.626654
70
0
0
VERTEX
8
Layer 1
10
86.829587
20
64.162805
70
0
0
VERTEX
8
Layer 1
10
86.710989
20
64.802446
70
0
0
VERTEX
8
Layer 1
10
86.174919
20
65.170835
70
0
0
VERTEX
8
Layer 1
10
85.535356
20
65.052337
70
0
0
VERTEX
8
Layer 1
10
85.535356
20
65.052337
70
0
0
SEQEND
8
Layer 1
0
POLYLINE
8
Layer 1
62
7
70
0
10
0.000000
20
0.000000
66
1
0
VERTEX
8
Layer 1
10
15.139683
20
25.521683
70
0
0
VERTEX
8
Layer 1
10
14.450711
20
25.563823
70
0
0
VERTEX
8
Layer 1
10
13.933737
20
25.106443
70
0
0
VERTEX
8
Layer 1
10
6.026677
20
8.894583
70
0
0
VERTEX
8
Layer 1
10
5.984537
20
8.205611
70
0
0
VERTEX
8
Layer 1
10
6.441917
20
7.688637
70
0
0
VERTEX
8
Layer 1
10
7.130889
20
7.646497
70
0
0
VERTEX
8
Layer 1
10
7.647863
20
8.103877
70
0
0
VERTEX
8
Layer 1
10
15.554923
20
24.315737
70
0
0
VERTEX
8
Layer 1
10
15.597063
20
25.004709
70
0
0
VERTEX
8
Layer 1
10
15.139683
20
25.521683
70
0
0
VERTEX
8
Layer 1
10
15.139683
20
25.521683
70
0
0
SEQEND
8
Layer 1
0
POLYLINE
8
Layer 1
62
7
70
0
10
0.000000
20
0.000000
66
1
0
VERTEX
8
Layer 1
10
14.038563
20
23.264055
70
0
0
VERTEX
8
Layer 1
10
8.842867
20
21.475035
70
0
0
VERTEX
8
Layer 1
10
8.325867
20
21.017646
70
0
0
VERTEX
8
Layer 1
10
8.283737
20
20.328648
70
0
0
VERTEX
8
Layer 1
10
8.741125
20
19.811648
70
0
0
VERTEX
8
Layer 1
10
9.430124
20
19.769517
70
0
0
VERTEX
8
Layer 1
10
12.920301
20
20.971280
70
0
0
VERTEX
8
Layer 1
10
14.122064
20
17.481103
70
0
0
VERTEX
8
Layer 1
10
14.579453
20
16.964103
70
0
0
VERTEX
8
Layer 1
10
15.268451
20
16.921972
70
0
0
VERTEX
8
Layer 1
10
15.785451
20
17.379361
70
0
0
VERTEX
8
Layer 1
10
15.827582
20
18.068359
70
0
0
VERTEX
8
Layer 1
10
14.038563
20
23.264055
70
0
0
SEQEND
8
Layer 1
0
POLYLINE
8
Layer 1
62
7
70
0
10
0.000000
20
0.000000
66
1
0
VERTEX
8
Layer 1
10
12.070369
20
19.228663
70
0
0
VERTEX
8
Layer 1
10
6.822384
20
17.421640
70
0
0
VERTEX
8
Layer 1
10
6.305384
20
16.964251
70
0
0
VERTEX
8
Layer 1
10
6.263253
20
16.275252
70
0
0
VERTEX
8
Layer 1
10
6.720642
20
15.758251
70
0
0
VERTEX
8
Layer 1
10
7.409641
20
15.716121
70
0
0
VERTEX
8
Layer 1
10
10.952107
20
16.935888
70
0
0
VERTEX
8
Layer 1
10
12.171875
20
13.393422
70
0
0
VERTEX
8
Layer 1
10
12.629264
20
12.876421
70
0
0
VERTEX
8
Layer 1
10
13.318262
20
12.834291
70
0
0
VERTEX
8
Layer 1
10
13.835263
20
13.291680
70
0
0
VERTEX
8
Layer 1
10
13.877393
20
13.980679
70
0
0
VERTEX
8
Layer 1
10
12.070369
20
19.228663
70
0
0
SEQEND
8
Layer 1
0
POLYLINE
8
Layer 1
62
7
70
0
10
0.000000
20
0.000000
66
1
0
VERTEX
8
Layer 1
10
9.933378
20
14.847186
70
0
0
VERTEX
8
Layer 1
10
5.662711
20
13.376811
70
0
0
VERTEX
8
Layer 1
10
5.145710
20
12.919422
70
0
0
VERTEX
8
Layer 1
10
5.103580
20
12.230423
70
0
0
VERTEX
8
Layer 1
10
5.560969
20
11.713423
70
0
0
VERTEX
8
Layer 1
10
6.249967
20
11.671292
70
0
0
VERTEX
8
Layer 1
10
8.815193
20
12.554570
70
0
0
VERTEX
8
Layer 1
10
9.698470
20
9.989344
70
0
0
VERTEX
8
Layer 1
10
10.155859
20
9.472343
70
0
0
VERTEX
8
Layer 1
10
10.844858
20
9.430212
70
0
0
VERTEX
8
Layer 1
10
11.361858
20
9.887601
70
0
0
VERTEX
8
Layer 1
10
11.403989
20
10.576600
70
0
0
VERTEX
8
Layer 1
10
9.933378
20
14.847186
70
0
0
SEQEND
8
Layer 1
0
POLYLINE
8
Layer 1
62
7
70
0
10
0.000000
20
0.000000
66
1
0
VERTEX
8
Layer 1
10
15.336020
20
25.391823
70
0
0
VERTEX
8
Layer 1
10
14.681416
20
25.610753
70
0
0
VERTEX
8
Layer 1
10
-3.311997
20
24.352538
70
0
0
VERTEX
8
Layer 1
10
-3.929725
20
24.044543
70
0
0
VERTEX
8
Layer 1
10
-4.148745
20
23.389960
70
0
0
VERTEX
8
Layer 1
10
-3.840750
20
22.772232
70
0
0
VERTEX
8
Layer 1
10
-3.186168
20
22.553212
70
0
0
VERTEX
8
Layer 1
10
14.807244
20
23.811427
70
0
0
VERTEX
8
Layer 1
10
15.424973
20
24.119421
70
0
0
VERTEX
8
Layer 1
10
15.643993
20
24.774004
70
0
0
VERTEX
8
Layer 1
10
15.336020
20
25.391823
70
0
0
VERTEX
8
Layer 1
10
15.336020
20
25.391823
70
0
0
SEQEND
8
Layer 1
0
POLYLINE
8
Layer 1
62
7
70
0
10
0.000000
20
0.000000
66
1
0
VERTEX
8
Layer 1
10
8.991180
20
28.203807
70
0
0
VERTEX
8
Layer 1
10
8.336599
20
28.422880
70
0
0
VERTEX
8
Layer 1
10
7.718835
20
28.114923
70
0
0
VERTEX
8
Layer 1
10
7.499762
20
27.460341
70
0
0
VERTEX
8
Layer 1
10
7.807720
20
26.842577
70
0
0
VERTEX
8
Layer 1
10
10.593585
20
24.420821
70
0
0
VERTEX
8
Layer 1
10
8.171828
20
21.634956
70
0
0
VERTEX
8
Layer 1
10
7.952909
20
20.980367
70
0
0
VERTEX
8
Layer 1
10
8.260949
20
20.362692
70
0
0
VERTEX
8
Layer 1
10
8.915464
20
20.143735
70
0
0
VERTEX
8
Layer 1
10
9.533135
20
20.451653
70
0
0
VERTEX
8
Layer 1
10
13.138353
20
24.598748
70
0
0
VERTEX
8
Layer 1
10
8.991180
20
28.203807
70
0
0
SEQEND
8
Layer 1
0
POLYLINE
8
Layer 1
62
7
70
0
10
0.000000
20
0.000000
66
1
0
VERTEX
8
Layer 1
10
4.470516
20
27.926984
70
0
0
VERTEX
8
Layer 1
10
3.815927
20
28.145904
70
0
0
VERTEX
8
Layer 1
10
3.198251
20
27.837864
70
0
0
VERTEX
8
Layer 1
10
2.979294
20
27.183349
70
0
0
VERTEX
8
Layer 1
10
3.287213
20
26.565678
70
0
0
VERTEX
8
Layer 1
10
6.114794
20
24.107701
70
0
0
VERTEX
8
Layer 1
10
3.656817
20
21.280119
70
0
0
VERTEX
8
Layer 1
10
3.437745
20
20.625538
70
0
0
VERTEX
8
Layer 1
10
3.745702
20
20.007775
70
0
0
VERTEX
8
Layer 1
10
4.400283
20
19.788702
70
0
0
VERTEX
8
Layer 1
10
5.018047
20
20.096659
70
0
0
VERTEX
8
Layer 1
10
8.659326
20
24.285547
70
0
0
VERTEX
8
Layer 1
10
4.470516
20
27.926984
70
0
0
SEQEND
8
Layer 1
0
POLYLINE
8
Layer 1
62
7
70
0
10
0.000000
20
0.000000
66
1
0
VERTEX
8
Layer 1
10
0.387687
20
26.908840
70
0
0
VERTEX
8
Layer 1
10
-0.266894
20
27.127912
70
0
0
VERTEX
8
Layer 1
10
-0.884658
20
26.819955
70
0
0
VERTEX
8
Layer 1
10
-1.103694
20
26.165301
70
0
0
VERTEX
8
Layer 1
10
-0.795616
20
25.547533
70
0
0
VERTEX
8
Layer 1
10
1.251829
20
23.767552
70
0
0
VERTEX
8
Layer 1
10
-0.527992
20
21.720030
70
0
0
VERTEX
8
Layer 1
10
-0.747065
20
21.065448
70
0
0
VERTEX
8
Layer 1
10
-0.439108
20
20.447684
70
0
0
VERTEX
8
Layer 1
10
0.215546
20
20.228649
70
0
0
VERTEX
8
Layer 1
10
0.833314
20
20.536727
70
0
0
VERTEX
8
Layer 1
10
3.796597
20
23.945479
70
0
0
VERTEX
8
Layer 1
10
0.387687
20
26.908840
70
0
0
SEQEND
8
Layer 1
0
POLYLINE
8
Layer 1
62
7
70
0
10
0.000000
20
0.000000
66
1
0
VERTEX
8
Layer 1
10
4.830122
20
40.550094
70
0
0
VERTEX
8
Layer 1
10
4.153668
20
40.412413
70
0
0
VERTEX
8
Layer 1
10
3.772691
20
39.836822
70
0
0
VERTEX
8
Layer 1
10
3.910299
20
39.160425
70
0
0
VERTEX
8
Layer 1
10
13.996651
20
24.206780
70
0
0
VERTEX
8
Layer 1
10
14.572243
20
23.825803
70
0
0
VERTEX
8
Layer 1
10
15.248640
20
23.963411
70
0
0
VERTEX
8
Layer 1
10
15.629617
20
24.539003
70
0
0
VERTEX
8
Layer 1
10
15.492009
20
25.215400
70
0
0
VERTEX
8
Layer 1
10
5.405656
20
40.169045
70
0
0
VERTEX
8
Layer 1
10
4.830122
20
40.550094
70
0
0
VERTEX
8
Layer 1
10
4.830122
20
40.550094
70
0
0
SEQEND
8
Layer 1
0
POLYLINE
8
Layer 1
62
7
70
0
10
0.000000
20
0.000000
66
1
0
VERTEX
8
Layer 1
10
14.179352
20
32.497206
70
0
0
VERTEX
8
Layer 1
10
13.502969
20
32.359666
70
0
0
VERTEX
8
Layer 1
10
13.121926
20
31.784151
70
0
0
VERTEX
8
Layer 1
10
12.417614
20
28.160631
70
0
0
VERTEX
8
Layer 1
10
8.794095
20
28.864943
70
0
0
VERTEX
8
Layer 1
10
8.117693
20
28.727284
70
0
0
VERTEX
8
Layer 1
10
7.736750
20
28.151652
70
0
0
VERTEX
8
Layer 1
10
7.874409
20
27.475250
70
0
0
VERTEX
8
Layer 1
10
8.450041
20
27.094307
70
0
0
VERTEX
8
Layer 1
10
13.844119
20
26.045783
70
0
0
VERTEX
8
Layer 1
10
14.892485
20
31.439939
70
0
0
VERTEX
8
Layer 1
10
14.754852
20
32.116244
70
0
0
VERTEX
8
Layer 1
10
14.179352
20
32.497206
70
0
0
VERTEX
8
Layer 1
10
14.179352
20
32.497206
70
0
0
SEQEND
8
Layer 1
0
POLYLINE
8
Layer 1
62
7
70
1
10
0.000000
20
0.000000
66
1
0
VERTEX
8
Layer 1
10
11.679170
20
36.273779
70
0
0
VERTEX
8
Layer 1
10
11.002768
20
36.136120
70
0
0
VERTEX
8
Layer 1
10
10.621825
20
35.560489
70
0
0
VERTEX
8
Layer 1
10
9.906940
20
31.882744
70
0
0
VERTEX
8
Layer 1
10
6.229196
20
32.597629
70
0
0
VERTEX
8
Layer 1
10
5.552890
20
32.459997
70
0
0
VERTEX
8
Layer 1
10
5.171927
20
31.884497
70
0
0
VERTEX
8
Layer 1
10
5.309468
20
31.208113
70
0
0
VERTEX
8
Layer 1
10
5.884983
20
30.827071
70
0
0
VERTEX
8
Layer 1
10
11.333364
20
29.768132
70
0
0
VERTEX
8
Layer 1
10
12.392461
20
35.216435
70
0
0
VERTEX
8
Layer 1
10
12.254802
20
35.892837
70
0
0
VERTEX
8
Layer 1
10
11.679170
20
36.273779
70
0
0
VERTEX
8
Layer 1
10
11.679170
20
36.273779
70
0
0
SEQEND
8
Layer 1
0
POLYLINE
8
Layer 1
62
7
70
0
10
0.000000
20
0.000000
66
1
0
VERTEX
8
Layer 1
10
8.756092
20
39.300622
70
0
0
VERTEX
8
Layer 1
10
8.079690
20
39.162962
70
0
0
VERTEX
8
Layer 1
10
7.698748
20
38.587330
70
0
0
VERTEX
8
Layer 1
10
7.181044
20
35.924231
70
0
0
VERTEX
8
Layer 1
10
4.517867
20
36.441776
70
0
0
VERTEX
8
Layer 1
10
3.841387
20
36.304210
70
0
0
VERTEX
8
Layer 1
10
3.460364
20
35.728562
70
0
0
VERTEX
8
Layer 1
10
3.598023
20
35.052160
70
0
0
VERTEX
8
Layer 1
10
4.173655
20
34.671218
70
0
0
VERTEX
8
Layer 1
10
8.607549
20
33.809383
70
0
0
VERTEX
8
Layer 1
10
9.469306
20
38.243118
70
0
0
VERTEX
8
Layer 1
10
9.331740
20
38.919598
70
0
0
VERTEX
8
Layer 1
10
8.756092
20
39.300622
70
0
0
VERTEX
8
Layer 1
10
8.756092
20
39.300622
70
0
0
SEQEND
8
Layer 1
0
POLYLINE
8
Layer 1
62
7
70
1
10
0.000000
20
0.000000
66
1
0
VERTEX
8
Layer 1
10
23.046743
20
41.733543
70
0
0
VERTEX
8
Layer 1
10
22.357771
20
41.775683
70
0
0
VERTEX
8
Layer 1
10
21.840797
20
41.318303
70
0
0
VERTEX
8
Layer 1
10
13.933737
20
25.106443
70
0
0
VERTEX
8
Layer 1
10
13.891597
20
24.417471
70
0
0
VERTEX
8
Layer 1
10
14.348977
20
23.900497
70
0
0
VERTEX
8
Layer 1
10
15.037949
20
23.858357
70
0
0
VERTEX
8
Layer 1
10
15.554923
20
24.315737
70
0
0
VERTEX
8
Layer 1
10
23.461983
20
40.527597
70
0
0
VERTEX
8
Layer 1
10
23.504123
20
41.216569
70
0
0
VERTEX
8
Layer 1
10
23.046743
20
41.733543
70
0
0
VERTEX
8
Layer 1
10
23.046743
20
41.733543
70
0
0
SEQEND
8
Layer 1
0
POLYLINE
8
Layer 1
62
7
70
0
10
0.000000
20
0.000000
66
1
0
VERTEX
8
Layer 1
10
14.909230
20
32.457925
70
0
0
VERTEX
8
Layer 1
10
14.220209
20
32.500209
70
0
0
VERTEX
8
Layer 1
10
13.703208
20
32.042820
70
0
0
VERTEX
8
Layer 1
10
13.661078
20
31.353821
70
0
0
VERTEX
8
Layer 1
10
15.450097
20
26.158125
70
0
0
VERTEX
8
Layer 1
10
20.645793
20
27.947145
70
0
0
VERTEX
8
Layer 1
10
21.162793
20
28.404534
70
0
0
VERTEX
8
Layer 1
10
21.204924
20
29.093533
70
0
0
VERTEX
8
Layer 1
10
20.747535
20
29.610533
70
0
0
VERTEX
8
Layer 1
10
20.058537
20
29.652663
70
0
0
VERTEX
8
Layer 1
10
16.568359
20
28.450900
70
0
0
VERTEX
8
Layer 1
10
15.366596
20
31.941078
70
0
0
VERTEX
8
Layer 1
10
14.909230
20
32.457925
70
0
0
VERTEX
8
Layer 1
10
14.909230
20
32.457925
70
0
0
SEQEND
8
Layer 1
0
POLYLINE
8
Layer 1
62
7
70
0
10
0.000000
20
0.000000
66
1
0
VERTEX
8
Layer 1
10
16.859420
20
36.545605
70
0
0
VERTEX
8
Layer 1
10
16.170398
20
36.587889
70
0
0
VERTEX
8
Layer 1
10
15.653397
20
36.130500
70
0
0
VERTEX
8
Layer 1
10
15.611267
20
35.441501
70
0
0
VERTEX
8
Layer 1
10
17.418291
20
30.193517
70
0
0
VERTEX
8
Layer 1
10
22.666276
20
32.000540
70
0
0
VERTEX
8
Layer 1
10
23.183276
20
32.457929
70
0
0
VERTEX
8
Layer 1
10
23.225407
20
33.146928
70
0
0
VERTEX
8
Layer 1
10
22.768018
20
33.663929
70
0
0
VERTEX
8
Layer 1
10
22.079019
20
33.706059
70
0
0
VERTEX
8
Layer 1
10
18.536553
20
32.486292
70
0
0
VERTEX
8
Layer 1
10
17.316785
20
36.028758
70
0
0
VERTEX
8
Layer 1
10
16.859420
20
36.545605
70
0
0
VERTEX
8
Layer 1
10
16.859420
20
36.545605
70
0
0
SEQEND
8
Layer 1
0
POLYLINE
8
Layer 1
62
7
70
0
10
0.000000
20
0.000000
66
1
0
VERTEX
8
Layer 1
10
19.332901
20
39.949841
70
0
0
VERTEX
8
Layer 1
10
18.643802
20
39.991968
70
0
0
VERTEX
8
Layer 1
10
18.126802
20
39.534579
70
0
0
VERTEX
8
Layer 1
10
18.084671
20
38.845580
70
0
0
VERTEX
8
Layer 1
10
19.555282
20
34.574994
70
0
0
VERTEX
8
Layer 1
10
23.825949
20
36.045369
70
0
0
VERTEX
8
Layer 1
10
24.342950
20
36.502758
70
0
0
VERTEX
8
Layer 1
10
24.385080
20
37.191757
70
0
0
VERTEX
8
Layer 1
10
23.927691
20
37.708757
70
0
0
VERTEX
8
Layer 1
10
23.238693
20
37.750888
70
0
0
VERTEX
8
Layer 1
10
20.673467
20
36.867610
70
0
0
VERTEX
8
Layer 1
10
19.790190
20
39.432836
70
0
0
VERTEX
8
Layer 1
10
19.332901
20
39.949841
70
0
0
VERTEX
8
Layer 1
10
19.332901
20
39.949841
70
0
0
SEQEND
8
Layer 1
0
POLYLINE
8
Layer 1
62
7
70
0
10
0.000000
20
0.000000
66
1
0
VERTEX
8
Layer 1
10
33.329432
20
26.650038
70
0
0
VERTEX
8
Layer 1
10
32.674828
20
26.868968
70
0
0
VERTEX
8
Layer 1
10
14.681416
20
25.610753
70
0
0
VERTEX
8
Layer 1
10
14.063687
20
25.302759
70
0
0
VERTEX
8
Layer 1
10
13.844667
20
24.648176
70
0
0
VERTEX
8
Layer 1
10
14.152661
20
24.030447
70
0
0
VERTEX
8
Layer 1
10
14.807244
20
23.811427
70
0
0
VERTEX
8
Layer 1
10
32.800657
20
25.069642
70
0
0
VERTEX
8
Layer 1
10
33.418385
20
25.377637
70
0
0
VERTEX
8
Layer 1
10
33.637405
20
26.032220
70
0
0
VERTEX
8
Layer 1
10
33.329432
20
26.650038
70
0
0
VERTEX
8
Layer 1
10
33.329432
20
26.650038
70
0
0
SEQEND
8
Layer 1
0
POLYLINE
8
Layer 1
62
7
70
0
10
0.000000
20
0.000000
66
1
0
VERTEX
8
Layer 1
10
21.227711
20
29.059488
70
0
0
VERTEX
8
Layer 1
10
20.573196
20
29.278445
70
0
0
VERTEX
8
Layer 1
10
19.955525
20
28.970527
70
0
0
VERTEX
8
Layer 1
10
16.350307
20
24.823432
70
0
0
VERTEX
8
Layer 1
10
20.497480
20
21.218373
70
0
0
VERTEX
8
Layer 1
10
21.152061
20
20.999300
70
0
0
VERTEX
8
Layer 1
10
21.769825
20
21.307257
70
0
0
VERTEX
8
Layer 1
10
21.988898
20
21.961839
70
0
0
VERTEX
8
Layer 1
10
21.680940
20
22.579603
70
0
0
VERTEX
8
Layer 1
10
18.895075
20
25.001359
70
0
0
VERTEX
8
Layer 1
10
21.316832
20
27.787224
70
0
0
VERTEX
8
Layer 1
10
21.535751
20
28.441813
70
0
0
VERTEX
8
Layer 1
10
21.227711
20
29.059488
70
0
0
VERTEX
8
Layer 1
10
21.227711
20
29.059488
70
0
0
SEQEND
8
Layer 1
0
POLYLINE
8
Layer 1
62
7
70
1
10
0.000000
20
0.000000
66
1
0
VERTEX
8
Layer 1
10
25.742958
20
29.414405
70
0
0
VERTEX
8
Layer 1
10
25.088377
20
29.633478
70
0
0
VERTEX
8
Layer 1
10
24.470613
20
29.325521
70
0
0
VERTEX
8
Layer 1
10
20.829334
20
25.136633
70
0
0
VERTEX
8
Layer 1
10
25.018144
20
21.495196
70
0
0
VERTEX
8
Layer 1
10
25.672733
20
21.276276
70
0
0
VERTEX
8
Layer 1
10
26.290408
20
21.584316
70
0
0
VERTEX
8
Layer 1
10
26.509365
20
22.238831
70
0
0
VERTEX
8
Layer 1
10
26.201447
20
22.856502
70
0
0
VERTEX
8
Layer 1
10
23.373866
20
25.314479
70
0
0
VERTEX
8
Layer 1
10
25.831843
20
28.142061
70
0
0
VERTEX
8
Layer 1
10
26.050915
20
28.796642
70
0
0
VERTEX
8
Layer 1
10
25.742958
20
29.414405
70
0
0
VERTEX
8
Layer 1
10
25.742958
20
29.414405
70
0
0
SEQEND
8
Layer 1
0
POLYLINE
8
Layer 1
62
7
70
0
10
0.000000
20
0.000000
66
1
0
VERTEX
8
Layer 1
10
29.927768
20
28.974496
70
0
0
VERTEX
8
Layer 1
10
29.273114
20
29.193531
70
0
0
VERTEX
8
Layer 1
10
28.655346
20
28.885453
70
0
0
VERTEX
8
Layer 1
10
25.692063
20
25.476701
70
0
0
VERTEX
8
Layer 1
10
29.100973
20
22.513340
70
0
0
VERTEX
8
Layer 1
10
29.755554
20
22.294268
70
0
0
VERTEX
8
Layer 1
10
30.373318
20
22.602225
70
0
0
VERTEX
8
Layer 1
10
30.592354
20
23.256879
70
0
0
VERTEX
8
Layer 1
10
30.284276
20
23.874647
70
0
0
VERTEX
8
Layer 1
10
28.236831
20
25.654628
70
0
0
VERTEX
8
Layer 1
10
30.016652
20
27.702150
70
0
0
VERTEX
8
Layer 1
10
30.235725
20
28.356732
70
0
0
VERTEX
8
Layer 1
10
29.927768
20
28.974496
70
0
0
VERTEX
8
Layer 1
10
29.927768
20
28.974496
70
0
0
SEQEND
8
Layer 1
0
POLYLINE
8
Layer 1
62
7
70
0
10
0.000000
20
0.000000
66
1
0
VERTEX
8
Layer 1
10
14.916475
20
25.596449
70
0
0
VERTEX
8
Layer 1
10
14.240020
20
25.458769
70
0
0
VERTEX
8
Layer 1
10
13.859043
20
24.883177
70
0
0
VERTEX
8
Layer 1
10
13.996651
20
24.206780
70
0
0
VERTEX
8
Layer 1
10
24.083004
20
9.253135
70
0
0
VERTEX
8
Layer 1
10
24.658595
20
8.872159
70
0
0
VERTEX
8
Layer 1
10
25.334992
20
9.009767
70
0
0
VERTEX
8
Layer 1
10
25.715969
20
9.585358
70
0
0
VERTEX
8
Layer 1
10
25.578361
20
10.261755
70
0
0
VERTEX
8
Layer 1
10
15.492009
20
25.215400
70
0
0
VERTEX
8
Layer 1
10
14.916475
20
25.596449
70
0
0
VERTEX
8
Layer 1
10
14.916475
20
25.596449
70
0
0
SEQEND
8
Layer 1
0
POLYLINE
8
Layer 1
62
7
70
0
10
0.000000
20
0.000000
66
1
0
VERTEX
8
Layer 1
10
21.038619
20
22.327873
70
0
0
VERTEX
8
Layer 1
10
15.644541
20
23.376397
70
0
0
VERTEX
8
Layer 1
10
14.596175
20
17.982241
70
0
0
VERTEX
8
Layer 1
10
14.733808
20
17.305936
70
0
0
VERTEX
8
Layer 1
10
15.309308
20
16.924974
70
0
0
VERTEX
8
Layer 1
10
15.985691
20
17.062514
70
0
0
VERTEX
8
Layer 1
10
16.366734
20
17.638029
70
0
0
VERTEX
8
Layer 1
10
17.071046
20
21.261549
70
0
0
VERTEX
8
Layer 1
10
20.694565
20
20.557237
70
0
0
VERTEX
8
Layer 1
10
21.370967
20
20.694896
70
0
0
VERTEX
8
Layer 1
10
21.751910
20
21.270528
70
0
0
VERTEX
8
Layer 1
10
21.614251
20
21.946930
70
0
0
VERTEX
8
Layer 1
10
21.038619
20
22.327873
70
0
0
VERTEX
8
Layer 1
10
21.038619
20
22.327873
70
0
0
SEQEND
8
Layer 1
0
POLYLINE
8
Layer 1
62
7
70
0
10
0.000000
20
0.000000
66
1
0
VERTEX
8
Layer 1
10
23.603677
20
18.595109
70
0
0
VERTEX
8
Layer 1
10
18.155296
20
19.654048
70
0
0
VERTEX
8
Layer 1
10
17.096199
20
14.205745
70
0
0
VERTEX
8
Layer 1
10
17.233858
20
13.529343
70
0
0
VERTEX
8
Layer 1
10
17.809490
20
13.148401
70
0
0
VERTEX
8
Layer 1
10
18.485892
20
13.286060
70
0
0
VERTEX
8
Layer 1
10
18.866835
20
13.861691
70
0
0
VERTEX
8
Layer 1
10
19.581720
20
17.539436
70
0
0
VERTEX
8
Layer 1
10
23.259464
20
16.824551
70
0
0
VERTEX
8
Layer 1
10
23.935770
20
16.962184
70
0
0
VERTEX
8
Layer 1
10
24.316732
20
17.537683
70
0
0
VERTEX
8
Layer 1
10
24.179192
20
18.214066
70
0
0
VERTEX
8
Layer 1
10
23.603677
20
18.595109
70
0
0
VERTEX
8
Layer 1
10
23.603677
20
18.595109
70
0
0
SEQEND
8
Layer 1
0
POLYLINE
8
Layer 1
62
7
70
0
10
0.000000
20
0.000000
66
1
0
VERTEX
8
Layer 1
10
25.315005
20
14.750962
70
0
0
VERTEX
8
Layer 1
10
20.881111
20
15.612797
70
0
0
VERTEX
8
Layer 1
10
20.019354
20
11.179062
70
0
0
VERTEX
8
Layer 1
10
20.156920
20
10.502582
70
0
0
VERTEX
8
Layer 1
10
20.732568
20
10.121558
70
0
0
VERTEX
8
Layer 1
10
21.408970
20
10.259218
70
0
0
VERTEX
8
Layer 1
10
21.789912
20
10.834850
70
0
0
VERTEX
8
Layer 1
10
22.307616
20
13.497949
70
0
0
VERTEX
8
Layer 1
10
24.970793
20
12.980404
70
0
0
VERTEX
8
Layer 1
10
25.647273
20
13.117970
70
0
0
VERTEX
8
Layer 1
10
26.028296
20
13.693618
70
0
0
VERTEX
8
Layer 1
10
25.890637
20
14.370020
70
0
0
VERTEX
8
Layer 1
10
25.315005
20
14.750962
70
0
0
VERTEX
8
Layer 1
10
25.315005
20
14.750962
70
0
0
SEQEND
8
Layer 1
0
POLYLINE
8
Layer 1
62
7
70
0
10
0.000000
20
0.000000
66
1
0
VERTEX
8
Layer 1
10
18.848769
20
56.418869
70
0
0
VERTEX
8
Layer 1
10
18.744262
20
56.854172
70
0
0
VERTEX
8
Layer 1
10
18.362558
20
57.088080
70
0
0
VERTEX
8
Layer 1
10
6.808338
20
58.918086
70
0
0
VERTEX
8
Layer 1
10
6.373035
20
58.813579
70
0
0
VERTEX
8
Layer 1
10
6.139127
20
58.431875
70
0
0
VERTEX
8
Layer 1
10
6.243634
20
57.996572
70
0
0
VERTEX
8
Layer 1
10
6.625338
20
57.762664
70
0
0
VERTEX
8
Layer 1
10
18.179558
20
55.932658
70
0
0
VERTEX
8
Layer 1
10
18.614861
20
56.037165
70
0
0
VERTEX
8
Layer 1
10
18.848769
20
56.418869
70
0
0
VERTEX
8
Layer 1
10
18.848769
20
56.418869
70
0
0
SEQEND
8
Layer 1
0
POLYLINE
8
Layer 1
62
7
70
0
10
0.000000
20
0.000000
66
1
0
VERTEX
8
Layer 1
10
16.219394
20
56.835320
70
0
0
VERTEX
8
Layer 1
10
15.842201
20
57.354482
70
0
0
VERTEX
8
Layer 1
10
15.460487
20
57.588405
70
0
0
VERTEX
8
Layer 1
10
15.025169
20
57.483887
70
0
0
VERTEX
8
Layer 1
10
14.801407
20
57.059907
70
0
0
VERTEX
8
Layer 1
10
14.883200
20
56.587532
70
0
0
VERTEX
8
Layer 1
10
15.264915
20
56.353609
70
0
0
VERTEX
8
Layer 1
10
15.700233
20
56.458127
70
0
0
VERTEX
8
Layer 1
10
16.219394
20
56.835320
70
0
0
SEQEND
8
Layer 1
0
POLYLINE
8
Layer 1
62
7
70
0
10
0.000000
20
0.000000
66
1
0
VERTEX
8
Layer 1
10
14.975623
20
57.032314
70
0
0
VERTEX
8
Layer 1
10
11.829783
20
61.362189
70
0
0
VERTEX
8
Layer 1
10
11.448068
20
61.596112
70
0
0
VERTEX
8
Layer 1
10
11.012750
20
61.491594
70
0
0
VERTEX
8
Layer 1
10
10.778827
20
61.109880
70
0
0
VERTEX
8
Layer 1
10
10.883345
20
60.674562
70
0
0
VERTEX
8
Layer 1
10
13.341671
20
57.291106
70
0
0
VERTEX
8
Layer 1
10
9.958120
20
54.832911
70
0
0
VERTEX
8
Layer 1
10
9.724197
20
54.451197
70
0
0
VERTEX
8
Layer 1
10
9.828715
20
54.015879
70
0
0
VERTEX
8
Layer 1
10
10.210429
20
53.781956
70
0
0
VERTEX
8
Layer 1
10
10.645747
20
53.886474
70
0
0
VERTEX
8
Layer 1
10
14.975623
20
57.032314
70
0
0
SEQEND
8
Layer 1
0
POLYLINE
8
Layer 1
62
7
70
0
10
0.000000
20
0.000000
66
1
0
VERTEX
8
Layer 1
10
11.008712
20
57.660610
70
0
0
VERTEX
8
Layer 1
10
9.677995
20
59.492184
70
0
0
VERTEX
8
Layer 1
10
9.296281
20
59.726107
70
0
0
VERTEX
8
Layer 1
10
8.860963
20
59.621589
70
0
0
VERTEX
8
Layer 1
10
8.627040
20
59.239874
70
0
0
VERTEX
8
Layer 1
10
8.731558
20
58.804556
70
0
0
VERTEX
8
Layer 1
10
9.374760
20
57.919402
70
0
0
VERTEX
8
Layer 1
10
8.489511
20
57.276331
70
0
0
VERTEX
8
Layer 1
10
8.255588
20
56.894616
70
0
0
VERTEX
8
Layer 1
10
8.360106
20
56.459298
70
0
0
VERTEX
8
Layer 1
10
8.741820
20
56.225375
70
0
0
VERTEX
8
Layer 1
10
9.177138
20
56.329893
70
0
0
VERTEX
8
Layer 1
10
11.008712
20
57.660610
70
0
0
SEQEND
8
Layer 1
0
POLYLINE
8
Layer 1
62
7
70
0
10
0.000000
20
0.000000
66
1
0
VERTEX
8
Layer 1
10
18.805457
20
56.272473
70
0
0
VERTEX
8
Layer 1
10
18.817115
20
56.719984
70
0
0
VERTEX
8
Layer 1
10
14.624837
20
67.641235
70
0
0
VERTEX
8
Layer 1
10
14.316679
20
67.965959
70
0
0
VERTEX
8
Layer 1
10
13.869165
20
67.977677
70
0
0
VERTEX
8
Layer 1
10
13.544441
20
67.669519
70
0
0
VERTEX
8
Layer 1
10
13.532723
20
67.222005
70
0
0
VERTEX
8
Layer 1
10
17.725001
20
56.300754
70
0
0
VERTEX
8
Layer 1
10
18.033158
20
55.976030
70
0
0
VERTEX
8
Layer 1
10
18.480673
20
55.964312
70
0
0
VERTEX
8
Layer 1
10
18.805457
20
56.272473
70
0
0
VERTEX
8
Layer 1
10
18.805457
20
56.272473
70
0
0
SEQEND
8
Layer 1
0
POLYLINE
8
Layer 1
62
7
70
0
10
0.000000
20
0.000000
66
1
0
VERTEX
8
Layer 1
10
17.787616
20
59.035907
70
0
0
VERTEX
8
Layer 1
10
17.799367
20
59.483430
70
0
0
VERTEX
8
Layer 1
10
17.491227
20
59.808184
70
0
0
VERTEX
8
Layer 1
10
17.012272
20
59.790007
70
0
0
VERTEX
8
Layer 1
10
16.643943
20
59.482960
70
0
0
VERTEX
8
Layer 1
10
16.632229
20
59.035398
70
0
0
VERTEX
8
Layer 1
10
16.940446
20
58.710665
70
0
0
VERTEX
8
Layer 1
10
17.526587
20
58.449653
70
0
0
VERTEX
8
Layer 1
10
17.787616
20
59.035907
70
0
0
SEQEND
8
Layer 1
0
POLYLINE
8
Layer 1
62
7
70
0
10
0.000000
20
0.000000
66
1
0
VERTEX
8
Layer 1
10
19.252176
20
64.514541
70
0
0
VERTEX
8
Layer 1
10
19.263927
20
64.962064
70
0
0
VERTEX
8
Layer 1
10
18.955785
20
65.286818
70
0
0
VERTEX
8
Layer 1
10
18.508262
20
65.298569
70
0
0
VERTEX
8
Layer 1
10
18.183509
20
64.990428
70
0
0
VERTEX
8
Layer 1
10
16.482445
20
61.169715
70
0
0
VERTEX
8
Layer 1
10
12.661845
20
62.870760
70
0
0
VERTEX
8
Layer 1
10
12.214322
20
62.882511
70
0
0
VERTEX
8
Layer 1
10
11.889569
20
62.574371
70
0
0
VERTEX
8
Layer 1
10
11.877854
20
62.126809
70
0
0
VERTEX
8
Layer 1
10
12.186071
20
61.802076
70
0
0
VERTEX
8
Layer 1
10
17.075356
20
59.625256
70
0
0
VERTEX
8
Layer 1
10
19.252176
20
64.514541
70
0
0
SEQEND
8
Layer 1
0
POLYLINE
8
Layer 1
62
7
70
0
10
0.000000
20
0.000000
66
1
0
VERTEX
8
Layer 1
10
16.556895
20
65.443069
70
0
0
VERTEX
8
Layer 1
10
16.568609
20
65.890630
70
0
0
VERTEX
8
Layer 1
10
16.260393
20
66.215363
70
0
0
VERTEX
8
Layer 1
10
15.812831
20
66.227077
70
0
0
VERTEX
8
Layer 1
10
15.488098
20
65.918861
70
0
0
VERTEX
8
Layer 1
10
15.043169
20
64.919316
70
0
0
VERTEX
8
Layer 1
10
14.043643
20
65.364358
70
0
0
VERTEX
8
Layer 1
10
13.596119
20
65.376109
70
0
0
VERTEX
8
Layer 1
10
13.271366
20
65.067968
70
0
0
VERTEX
8
Layer 1
10
13.259652
20
64.620407
70
0
0
VERTEX
8
Layer 1
10
13.567869
20
64.295674
70
0
0
VERTEX
8
Layer 1
10
15.635966
20
63.374876
70
0
0
VERTEX
8
Layer 1
10
16.556895
20
65.443069
70
0
0
SEQEND
8
Layer 1
0
POLYLINE
8
Layer 1
62
7
70
0
10
0.000000
20
0.000000
66
1
0
VERTEX
8
Layer 1
10
26.214757
20
65.662728
70
0
0
VERTEX
8
Layer 1
10
26.001096
20
66.056170
70
0
0
VERTEX
8
Layer 1
10
25.571863
20
66.183315
70
0
0
VERTEX
8
Layer 1
10
25.178443
20
65.969710
70
0
0
VERTEX
8
Layer 1
10
17.816501
20
56.878465
70
0
0
VERTEX
8
Layer 1
10
17.689356
20
56.449232
70
0
0
VERTEX
8
Layer 1
10
17.902962
20
56.055812
70
0
0
VERTEX
8
Layer 1
10
18.332195
20
55.928667
70
0
0
VERTEX
8
Layer 1
10
18.725615
20
56.142273
70
0
0
VERTEX
8
Layer 1
10
26.087556
20
65.233518
70
0
0
VERTEX
8
Layer 1
10
26.214757
20
65.662728
70
0
0
VERTEX
8
Layer 1
10
26.214757
20
65.662728
70
0
0
SEQEND
8
Layer 1
0
POLYLINE
8
Layer 1
62
7
70
0
10
0.000000
20
0.000000
66
1
0
VERTEX
8
Layer 1
10
20.737116
20
58.834666
70
0
0
VERTEX
8
Layer 1
10
20.481697
20
59.240505
70
0
0
VERTEX
8
Layer 1
10
20.031801
20
59.405797
70
0
0
VERTEX
8
Layer 1
10
19.638388
20
59.192159
70
0
0
VERTEX
8
Layer 1
10
19.511271
20
58.762907
70
0
0
VERTEX
8
Layer 1
10
19.578363
20
58.124684
70
0
0
VERTEX
8
Layer 1
10
20.216474
20
58.191794
70
0
0
VERTEX
8
Layer 1
10
20.609953
20
58.405389
70
0
0
VERTEX
8
Layer 1
10
20.737116
20
58.834666
70
0
0
VERTEX
8
Layer 1
10
20.737116
20
58.834666
70
0
0
SEQEND
8
Layer 1
0
POLYLINE
8
Layer 1
62
7
70
0
10
0.000000
20
0.000000
66
1
0
VERTEX
8
Layer 1
10
26.214093
20
60.305592
70
0
0
VERTEX
8
Layer 1
10
26.000455
20
60.699006
70
0
0
VERTEX
8
Layer 1
10
25.571204
20
60.826122
70
0
0
VERTEX
8
Layer 1
10
21.411945
20
60.388960
70
0
0
VERTEX
8
Layer 1
10
20.974801
20
64.548332
70
0
0
VERTEX
8
Layer 1
10
20.761163
20
64.941745
70
0
0
VERTEX
8
Layer 1
10
20.331911
20
65.068861
70
0
0
VERTEX
8
Layer 1
10
19.938498
20
64.855223
70
0
0
VERTEX
8
Layer 1
10
19.811381
20
64.425971
70
0
0
VERTEX
8
Layer 1
10
20.370790
20
59.103311
70
0
0
VERTEX
8
Layer 1
10
25.693451
20
59.662720
70
0
0
VERTEX
8
Layer 1
10
26.086930
20
59.876316
70
0
0
VERTEX
8
Layer 1
10
26.214093
20
60.305592
70
0
0
VERTEX
8
Layer 1
10
26.214093
20
60.305592
70
0
0
SEQEND
8
Layer 1
0
POLYLINE
8
Layer 1
62
7
70
0
10
0.000000
20
0.000000
66
1
0
VERTEX
8
Layer 1
10
25.670488
20
63.104143
70
0
0
VERTEX
8
Layer 1
10
25.456850
20
63.497557
70
0
0
VERTEX
8
Layer 1
10
25.027599
20
63.624673
70
0
0
VERTEX
8
Layer 1
10
23.939467
20
63.510283
70
0
0
VERTEX
8
Layer 1
10
23.825190
20
64.598397
70
0
0
VERTEX
8
Layer 1
10
23.611595
20
64.991876
70
0
0
VERTEX
8
Layer 1
10
23.182318
20
65.119039
70
0
0
VERTEX
8
Layer 1
10
22.788839
20
64.905444
70
0
0
VERTEX
8
Layer 1
10
22.661676
20
64.476168
70
0
0
VERTEX
8
Layer 1
10
22.898426
20
62.224617
70
0
0
VERTEX
8
Layer 1
10
25.149846
20
62.461272
70
0
0
VERTEX
8
Layer 1
10
25.543325
20
62.674867
70
0
0
VERTEX
8
Layer 1
10
25.670488
20
63.104143
70
0
0
VERTEX
8
Layer 1
10
25.670488
20
63.104143
70
0
0
SEQEND
8
Layer 1
0
POLYLINE
8
Layer 1
62
7
70
1
10
0.000000
20
0.000000
66
1
0
VERTEX
8
Layer 1
10
30.402989
20
54.588863
70
0
0
VERTEX
8
Layer 1
10
30.298482
20
55.024166
70
0
0
VERTEX
8
Layer 1
10
29.916778
20
55.258074
70
0
0
VERTEX
8
Layer 1
10
18.362558
20
57.088080
70
0
0
VERTEX
8
Layer 1
10
17.927255
20
56.983573
70
0
0
VERTEX
8
Layer 1
10
17.693347
20
56.601869
70
0
0
VERTEX
8
Layer 1
10
17.797854
20
56.166566
70
0
0
VERTEX
8
Layer 1
10
18.179558
20
55.932658
70
0
0
VERTEX
8
Layer 1
10
29.733778
20
54.102652
70
0
0
VERTEX
8
Layer 1
10
30.169081
20
54.207159
70
0
0
VERTEX
8
Layer 1
10
30.402989
20
54.588863
70
0
0
VERTEX
8
Layer 1
10
30.402989
20
54.588863
70
0
0
SEQEND
8
Layer 1
0
POLYLINE
8
Layer 1
62
7
70
0
10
0.000000
20
0.000000
66
1
0
VERTEX
8
Layer 1
10
21.763473
20
55.997940
70
0
0
VERTEX
8
Layer 1
10
21.658916
20
56.433206
70
0
0
VERTEX
8
Layer 1
10
21.277201
20
56.667129
70
0
0
VERTEX
8
Layer 1
10
20.841883
20
56.562611
70
0
0
VERTEX
8
Layer 1
10
20.322722
20
56.185418
70
0
0
VERTEX
8
Layer 1
10
20.699915
20
55.666256
70
0
0
VERTEX
8
Layer 1
10
21.081629
20
55.432333
70
0
0
VERTEX
8
Layer 1
10
21.516947
20
55.536851
70
0
0
VERTEX
8
Layer 1
10
21.740709
20
55.960831
70
0
0
VERTEX
8
Layer 1
10
21.763473
20
55.997940
70
0
0
VERTEX
8
Layer 1
10
21.763473
20
55.997940
70
0
0
SEQEND
8
Layer 1
0
POLYLINE
8
Layer 1
62
7
70
0
10
0.000000
20
0.000000
66
1
0
VERTEX
8
Layer 1
10
26.817846
20
58.569611
70
0
0
VERTEX
8
Layer 1
10
26.713401
20
59.004859
70
0
0
VERTEX
8
Layer 1
10
26.331687
20
59.238782
70
0
0
VERTEX
8
Layer 1
10
25.896369
20
59.134264
70
0
0
VERTEX
8
Layer 1
10
21.566493
20
55.988424
70
0
0
VERTEX
8
Layer 1
10
24.712333
20
51.658549
70
0
0
VERTEX
8
Layer 1
10
25.094048
20
51.424626
70
0
0
VERTEX
8
Layer 1
10
25.529366
20
51.529144
70
0
0
VERTEX
8
Layer 1
10
25.763289
20
51.910858
70
0
0
VERTEX
8
Layer 1
10
25.658771
20
52.346176
70
0
0
VERTEX
8
Layer 1
10
23.200445
20
55.729632
70
0
0
VERTEX
8
Layer 1
10
26.583996
20
58.187827
70
0
0
VERTEX
8
Layer 1
10
26.817846
20
58.569611
70
0
0
VERTEX
8
Layer 1
10
26.817846
20
58.569611
70
0
0
SEQEND
8
Layer 1
0
POLYLINE
8
Layer 1
62
7
70
0
10
0.000000
20
0.000000
66
1
0
VERTEX
8
Layer 1
10
28.286438
20
56.126079
70
0
0
VERTEX
8
Layer 1
10
28.182010
20
56.561440
70
0
0
VERTEX
8
Layer 1
10
27.800296
20
56.795363
70
0
0
VERTEX
8
Layer 1
10
27.364978
20
56.690845
70
0
0
VERTEX
8
Layer 1
10
25.533404
20
55.360128
70
0
0
VERTEX
8
Layer 1
10
26.864122
20
53.528554
70
0
0
VERTEX
8
Layer 1
10
27.245836
20
53.294632
70
0
0
VERTEX
8
Layer 1
10
27.681153
20
53.399149
70
0
0
VERTEX
8
Layer 1
10
27.915076
20
53.780864
70
0
0
VERTEX
8
Layer 1
10
27.810558
20
54.216182
70
0
0
VERTEX
8
Layer 1
10
27.167356
20
55.101336
70
0
0
VERTEX
8
Layer 1
10
28.052605
20
55.744407
70
0
0
VERTEX
8
Layer 1
10
28.286438
20
56.126079
70
0
0
VERTEX
8
Layer 1
10
28.286438
20
56.126079
70
0
0
SEQEND
8
Layer 1
0
POLYLINE
8
Layer 1
62
7
70
0
10
0.000000
20
0.000000
66
1
0
VERTEX
8
Layer 1
10
22.997735
20
45.351222
70
0
0
VERTEX
8
Layer 1
10
23.009393
20
45.798733
70
0
0
VERTEX
8
Layer 1
10
18.817115
20
56.719984
70
0
0
VERTEX
8
Layer 1
10
18.508958
20
57.044708
70
0
0
VERTEX
8
Layer 1
10
18.061443
20
57.056426
70
0
0
VERTEX
8
Layer 1
10
17.736719
20
56.748269
70
0
0
VERTEX
8
Layer 1
10
17.725001
20
56.300754
70
0
0
VERTEX
8
Layer 1
10
21.917279
20
45.379503
70
0
0
VERTEX
8
Layer 1
10
22.225437
20
45.054779
70
0
0
VERTEX
8
Layer 1
10
22.672951
20
45.043061
70
0
0
VERTEX
8
Layer 1
10
22.997735
20
45.351222
70
0
0
VERTEX
8
Layer 1
10
22.997735
20
45.351222
70
0
0
SEQEND
8
Layer 1
0
POLYLINE
8
Layer 1
62
7
70
0
10
0.000000
20
0.000000
66
1
0
VERTEX
8
Layer 1
10
19.898173
20
53.537778
70
0
0
VERTEX
8
Layer 1
10
19.909887
20
53.985340
70
0
0
VERTEX
8
Layer 1
10
19.601670
20
54.310073
70
0
0
VERTEX
8
Layer 1
10
19.015529
20
54.571085
70
0
0
VERTEX
8
Layer 1
10
18.754500
20
53.984831
70
0
0
VERTEX
8
Layer 1
10
18.742749
20
53.537308
70
0
0
VERTEX
8
Layer 1
10
19.050889
20
53.212554
70
0
0
VERTEX
8
Layer 1
10
19.529844
20
53.230731
70
0
0
VERTEX
8
Layer 1
10
19.898173
20
53.537778
70
0
0
VERTEX
8
Layer 1
10
19.898173
20
53.537778
70
0
0
SEQEND
8
Layer 1
0
POLYLINE
8
Layer 1
62
7
70
0
10
0.000000
20
0.000000
66
1
0
VERTEX
8
Layer 1
10
24.652547
20
50.446367
70
0
0
VERTEX
8
Layer 1
10
24.664262
20
50.893929
70
0
0
VERTEX
8
Layer 1
10
24.356045
20
51.218662
70
0
0
VERTEX
8
Layer 1
10
19.466760
20
53.395482
70
0
0
VERTEX
8
Layer 1
10
17.289940
20
48.506197
70
0
0
VERTEX
8
Layer 1
10
17.278189
20
48.058674
70
0
0
VERTEX
8
Layer 1
10
17.586331
20
47.733920
70
0
0
VERTEX
8
Layer 1
10
18.033854
20
47.722169
70
0
0
VERTEX
8
Layer 1
10
18.358607
20
48.030310
70
0
0
VERTEX
8
Layer 1
10
20.059671
20
51.851023
70
0
0
VERTEX
8
Layer 1
10
23.880271
20
50.149978
70
0
0
VERTEX
8
Layer 1
10
24.327794
20
50.138227
70
0
0
VERTEX
8
Layer 1
10
24.652547
20
50.446367
70
0
0
VERTEX
8
Layer 1
10
24.652547
20
50.446367
70
0
0
SEQEND
8
Layer 1
0
POLYLINE
8
Layer 1
62
7
70
0
10
0.000000
20
0.000000
66
1
0
VERTEX
8
Layer 1
10
23.270750
20
47.952770
70
0
0
VERTEX
8
Layer 1
10
23.282464
20
48.400331
70
0
0
VERTEX
8
Layer 1
10
22.974247
20
48.725064
70
0
0
VERTEX
8
Layer 1
10
20.906150
20
49.645862
70
0
0
VERTEX
8
Layer 1
10
19.985221
20
47.577669
70
0
0
VERTEX
8
Layer 1
10
19.973507
20
47.130108
70
0
0
VERTEX
8
Layer 1
10
20.281723
20
46.805375
70
0
0
VERTEX
8
Layer 1
10
20.729285
20
46.793661
70
0
0
VERTEX
8
Layer 1
10
21.054018
20
47.101877
70
0
0
VERTEX
8
Layer 1
10
21.498947
20
48.101422
70
0
0
VERTEX
8
Layer 1
10
22.498473
20
47.656380
70
0
0
VERTEX
8
Layer 1
10
22.945997
20
47.644629
70
0
0
VERTEX
8
Layer 1
10
23.270750
20
47.952770
70
0
0
VERTEX
8
Layer 1
10
23.270750
20
47.952770
70
0
0
SEQEND
8
Layer 1
0
POLYLINE
8
Layer 1
62
7
70
0
10
0.000000
20
0.000000
66
1
0
VERTEX
8
Layer 1
10
18.852815
20
56.571483
70
0
0
VERTEX
8
Layer 1
10
18.639154
20
56.964926
70
0
0
VERTEX
8
Layer 1
10
18.209921
20
57.092071
70
0
0
VERTEX
8
Layer 1
10
17.816501
20
56.878465
70
0
0
VERTEX
8
Layer 1
10
10.454560
20
47.787220
70
0
0
VERTEX
8
Layer 1
10
10.327415
20
47.357988
70
0
0
VERTEX
8
Layer 1
10
10.541020
20
46.964568
70
0
0
VERTEX
8
Layer 1
10
10.970253
20
46.837423
70
0
0
VERTEX
8
Layer 1
10
11.363673
20
47.051028
70
0
0
VERTEX
8
Layer 1
10
18.725615
20
56.142273
70
0
0
VERTEX
8
Layer 1
10
18.852815
20
56.571483
70
0
0
VERTEX
8
Layer 1
10
18.852815
20
56.571483
70
0
0
SEQEND
8
Layer 1
0
POLYLINE
8
Layer 1
62
7
70
0
10
0.000000
20
0.000000
66
1
0
VERTEX
8
Layer 1
10
17.030845
20
54.257831
70
0
0
VERTEX
8
Layer 1
10
16.963753
20
54.896054
70
0
0
VERTEX
8
Layer 1
10
16.325642
20
54.828944
70
0
0
VERTEX
8
Layer 1
10
15.932163
20
54.615349
70
0
0
VERTEX
8
Layer 1
10
15.805000
20
54.186072
70
0
0
VERTEX
8
Layer 1
10
16.060419
20
53.780233
70
0
0
VERTEX
8
Layer 1
10
16.510315
20
53.614941
70
0
0
VERTEX
8
Layer 1
10
16.903728
20
53.828579
70
0
0
VERTEX
8
Layer 1
10
17.030845
20
54.257831
70
0
0
VERTEX
8
Layer 1
10
17.030845
20
54.257831
70
0
0
SEQEND
8
Layer 1
0
POLYLINE
8
Layer 1
62
7
70
0
10
0.000000
20
0.000000
66
1
0
VERTEX
8
Layer 1
10
16.730735
20
48.594767
70
0
0
VERTEX
8
Layer 1
10
16.171326
20
53.917427
70
0
0
VERTEX
8
Layer 1
10
10.848665
20
53.358018
70
0
0
VERTEX
8
Layer 1
10
10.455186
20
53.144422
70
0
0
VERTEX
8
Layer 1
10
10.328023
20
52.715146
70
0
0
VERTEX
8
Layer 1
10
10.541661
20
52.321732
70
0
0
VERTEX
8
Layer 1
10
10.970912
20
52.194616
70
0
0
VERTEX
8
Layer 1
10
15.130171
20
52.631778
70
0
0
VERTEX
8
Layer 1
10
15.567315
20
48.472406
70
0
0
VERTEX
8
Layer 1
10
15.780953
20
48.078993
70
0
0
VERTEX
8
Layer 1
10
16.210205
20
47.951877
70
0
0
VERTEX
8
Layer 1
10
16.603618
20
48.165515
70
0
0
VERTEX
8
Layer 1
10
16.730735
20
48.594767
70
0
0
VERTEX
8
Layer 1
10
16.730735
20
48.594767
70
0
0
SEQEND
8
Layer 1
0
POLYLINE
8
Layer 1
62
7
70
0
10
0.000000
20
0.000000
66
1
0
VERTEX
8
Layer 1
10
13.880440
20
48.544570
70
0
0
VERTEX
8
Layer 1
10
13.643690
20
50.796121
70
0
0
VERTEX
8
Layer 1
10
11.392270
20
50.559466
70
0
0
VERTEX
8
Layer 1
10
10.998791
20
50.345871
70
0
0
VERTEX
8
Layer 1
10
10.871628
20
49.916595
70
0
0
VERTEX
8
Layer 1
10
11.085266
20
49.523181
70
0
0
VERTEX
8
Layer 1
10
11.514517
20
49.396065
70
0
0
VERTEX
8
Layer 1
10
12.602649
20
49.510455
70
0
0
VERTEX
8
Layer 1
10
12.716926
20
48.422341
70
0
0
VERTEX
8
Layer 1
10
12.930521
20
48.028862
70
0
0
VERTEX
8
Layer 1
10
13.359798
20
47.901699
70
0
0
VERTEX
8
Layer 1
10
13.753277
20
48.115294
70
0
0
VERTEX
8
Layer 1
10
13.880440
20
48.544570
70
0
0
VERTEX
8
Layer 1
10
13.880440
20
48.544570
70
0
0
SEQEND
8
Layer 1
0
POLYLINE
8
Layer 1
62
7
70
0
10
0.000000
20
0.000000
66
1
0
VERTEX
8
Layer 1
10
17.305009
20
109.270079
70
0
0
VERTEX
8
Layer 1
10
16.595270
20
109.018747
70
0
0
VERTEX
8
Layer 1
10
16.271127
20
108.339167
70
0
0
VERTEX
8
Layer 1
10
15.241423
20
88.691227
70
0
0
VERTEX
8
Layer 1
10
15.298584
20
88.304788
70
0
0
VERTEX
8
Layer 1
10
15.492755
20
87.981488
70
0
0
VERTEX
8
Layer 1
10
15.793988
20
87.754587
70
0
0
VERTEX
8
Layer 1
10
16.172335
20
87.657345
70
0
0
VERTEX
8
Layer 1
10
16.882074
20
87.908677
70
0
0
VERTEX
8
Layer 1
10
17.206217
20
88.588257
70
0
0
VERTEX
8
Layer 1
10
18.235921
20
108.236197
70
0
0
VERTEX
8
Layer 1
10
18.178760
20
108.622636
70
0
0
VERTEX
8
Layer 1
10
17.984589
20
108.945936
70
0
0
VERTEX
8
Layer 1
10
17.683356
20
109.172837
70
0
0
VERTEX
8
Layer 1
10
17.305009
20
109.270079
70
0
0
VERTEX
8
Layer 1
10
17.305009
20
109.270079
70
0
0
SEQEND
8
Layer 1
0
POLYLINE
8
Layer 1
62
7
70
0
10
0.000000
20
0.000000
66
1
0
VERTEX
8
Layer 1
10
17.128662
20
105.905178
70
0
0
VERTEX
8
Layer 1
10
13.997928
20
103.086068
70
0
0
VERTEX
8
Layer 1
10
13.765150
20
102.772420
70
0
0
VERTEX
8
Layer 1
10
13.673863
20
102.406558
70
0
0
VERTEX
8
Layer 1
10
13.726407
20
102.033159
70
0
0
VERTEX
8
Layer 1
10
13.925124
20
101.696898
70
0
0
VERTEX
8
Layer 1
10
14.604725
20
101.372732
70
0
0
VERTEX
8
Layer 1
10
15.314487
20
101.624084
70
0
0
VERTEX
8
Layer 1
10
16.983046
20
103.126644
70
0
0
VERTEX
8
Layer 1
10
18.485403
20
101.457904
70
0
0
VERTEX
8
Layer 1
10
19.165004
20
101.133738
70
0
0
VERTEX
8
Layer 1
10
19.874766
20
101.385090
70
0
0
VERTEX
8
Layer 1
10
20.107544
20
101.698738
70
0
0
VERTEX
8
Layer 1
10
20.198831
20
102.064600
70
0
0
VERTEX
8
Layer 1
10
20.146287
20
102.437999
70
0
0
VERTEX
8
Layer 1
10
19.947570
20
102.774261
70
0
0
VERTEX
8
Layer 1
10
17.128662
20
105.905178
70
0
0
SEQEND
8
Layer 1
0
POLYLINE
8
Layer 1
62
7
70
0
10
0.000000
20
0.000000
66
1
0
VERTEX
8
Layer 1
10
16.946192
20
102.423424
70
0
0
VERTEX
8
Layer 1
10
10.804891
20
96.893772
70
0
0
VERTEX
8
Layer 1
10
10.480725
20
96.214171
70
0
0
VERTEX
8
Layer 1
10
10.732078
20
95.504409
70
0
0
VERTEX
8
Layer 1
10
11.411678
20
95.180243
70
0
0
VERTEX
8
Layer 1
10
12.121440
20
95.431596
70
0
0
VERTEX
8
Layer 1
10
16.800575
20
99.644891
70
0
0
VERTEX
8
Layer 1
10
21.013668
20
94.965574
70
0
0
VERTEX
8
Layer 1
10
21.693268
20
94.641408
70
0
0
VERTEX
8
Layer 1
10
22.403031
20
94.892761
70
0
0
VERTEX
8
Layer 1
10
22.727197
20
95.572361
70
0
0
VERTEX
8
Layer 1
10
22.475844
20
96.282124
70
0
0
VERTEX
8
Layer 1
10
16.946192
20
102.423424
70
0
0
SEQEND
8
Layer 1
0
POLYLINE
8
Layer 1
62
7
70
0
10
0.000000
20
0.000000
66
1
0
VERTEX
8
Layer 1
10
16.656326
20
96.892452
70
0
0
VERTEX
8
Layer 1
10
11.817687
20
92.535904
70
0
0
VERTEX
8
Layer 1
10
11.493521
20
91.856304
70
0
0
VERTEX
8
Layer 1
10
11.744873
20
91.146541
70
0
0
VERTEX
8
Layer 1
10
12.424474
20
90.822375
70
0
0
VERTEX
8
Layer 1
10
13.134236
20
91.073728
70
0
0
VERTEX
8
Layer 1
10
16.510709
20
94.113919
70
0
0
VERTEX
8
Layer 1
10
19.550900
20
90.737445
70
0
0
VERTEX
8
Layer 1
10
20.230500
20
90.413279
70
0
0
VERTEX
8
Layer 1
10
20.940262
20
90.664632
70
0
0
VERTEX
8
Layer 1
10
21.264428
20
91.344232
70
0
0
VERTEX
8
Layer 1
10
21.013076
20
92.053995
70
0
0
VERTEX
8
Layer 1
10
16.656326
20
96.892452
70
0
0
SEQEND
8
Layer 1
0
POLYLINE
8
Layer 1
62
7
70
0
10
0.000000
20
0.000000
66
1
0
VERTEX
8
Layer 1
10
17.557493
20
109.223369
70
0
0
VERTEX
8
Layer 1
10
16.806913
20
109.164196
70
0
0
VERTEX
8
Layer 1
10
-0.723555
20
100.231976
70
0
0
VERTEX
8
Layer 1
10
-1.029634
20
99.989252
70
0
0
VERTEX
8
Layer 1
10
-1.212530
20
99.659448
70
0
0
VERTEX
8
Layer 1
10
-1.258414
20
99.285126
70
0
0
VERTEX
8
Layer 1
10
-1.153456
20
98.908850
70
0
0
VERTEX
8
Layer 1
10
-0.910733
20
98.602771
70
0
0
VERTEX
8
Layer 1
10
-0.580929
20
98.419874
70
0
0
VERTEX
8
Layer 1
10
-0.206607
20
98.373990
70
0
0
VERTEX
8
Layer 1
10
0.169668
20
98.478948
70
0
0
VERTEX
8
Layer 1
10
17.700135
20
107.411168
70
0
0
VERTEX
8
Layer 1
10
18.006215
20
107.653891
70
0
0
VERTEX
8
Layer 1
10
18.189112
20
107.983696
70
0
0
VERTEX
8
Layer 1
10
18.234996
20
108.358018
70
0
0
VERTEX
8
Layer 1
10
18.130038
20
108.734293
70
0
0
VERTEX
8
Layer 1
10
17.557493
20
109.223369
70
0
0
VERTEX
8
Layer 1
10
17.557493
20
109.223369
70
0
0
SEQEND
8
Layer 1
0
POLYLINE
8
Layer 1
62
7
70
0
10
0.000000
20
0.000000
66
1
0
VERTEX
8
Layer 1
10
11.121029
20
108.506330
70
0
0
VERTEX
8
Layer 1
10
10.370410
20
108.447310
70
0
0
VERTEX
8
Layer 1
10
9.881382
20
107.874804
70
0
0
VERTEX
8
Layer 1
10
9.940471
20
107.124128
70
0
0
VERTEX
8
Layer 1
10
10.513101
20
106.635147
70
0
0
VERTEX
8
Layer 1
10
12.648560
20
105.941219
70
0
0
VERTEX
8
Layer 1
10
11.954642
20
103.805951
70
0
0
VERTEX
8
Layer 1
10
12.013731
20
103.055275
70
0
0
VERTEX
8
Layer 1
10
12.586360
20
102.566295
70
0
0
VERTEX
8
Layer 1
10
12.974374
20
102.521529
70
0
0
VERTEX
8
Layer 1
10
13.336862
20
102.625403
70
0
0
VERTEX
8
Layer 1
10
13.633962
20
102.857607
70
0
0
VERTEX
8
Layer 1
10
13.825814
20
103.197830
70
0
0
VERTEX
8
Layer 1
10
15.127670
20
107.204473
70
0
0
VERTEX
8
Layer 1
10
11.121029
20
108.506330
70
0
0
SEQEND
8
Layer 1
0
POLYLINE
8
Layer 1
62
7
70
0
10
0.000000
20
0.000000
66
1
0
VERTEX
8
Layer 1
10
4.161848
20
108.175513
70
0
0
VERTEX
8
Layer 1
10
3.411173
20
108.116424
70
0
0
VERTEX
8
Layer 1
10
2.922192
20
107.543796
70
0
0
VERTEX
8
Layer 1
10
2.877426
20
107.155781
70
0
0
VERTEX
8
Layer 1
10
2.981301
20
106.793294
70
0
0
VERTEX
8
Layer 1
10
3.213504
20
106.496194
70
0
0
VERTEX
8
Layer 1
10
3.553728
20
106.304342
70
0
0
VERTEX
8
Layer 1
10
9.542221
20
104.358549
70
0
0
VERTEX
8
Layer 1
10
7.596438
20
98.370249
70
0
0
VERTEX
8
Layer 1
10
7.655458
20
97.619631
70
0
0
VERTEX
8
Layer 1
10
8.227964
20
97.130603
70
0
0
VERTEX
8
Layer 1
10
8.978583
20
97.189623
70
0
0
VERTEX
8
Layer 1
10
9.467611
20
97.762130
70
0
0
VERTEX
8
Layer 1
10
12.021331
20
105.621804
70
0
0
VERTEX
8
Layer 1
10
4.161848
20
108.175513
70
0
0
SEQEND
8
Layer 1
0
POLYLINE
8
Layer 1
62
7
70
0
10
0.000000
20
0.000000
66
1
0
VERTEX
8
Layer 1
10
0.894201
20
105.119230
70
0
0
VERTEX
8
Layer 1
10
0.143582
20
105.060210
70
0
0
VERTEX
8
Layer 1
10
-0.345446
20
104.487704
70
0
0
VERTEX
8
Layer 1
10
-0.286426
20
103.737086
70
0
0
VERTEX
8
Layer 1
10
0.286080
20
103.248058
70
0
0
VERTEX
8
Layer 1
10
4.607334
20
101.844094
70
0
0
VERTEX
8
Layer 1
10
3.203189
20
97.523041
70
0
0
VERTEX
8
Layer 1
10
3.262278
20
96.772366
70
0
0
VERTEX
8
Layer 1
10
3.834907
20
96.283385
70
0
0
VERTEX
8
Layer 1
10
4.222922
20
96.238619
70
0
0
VERTEX
8
Layer 1
10
4.585410
20
96.342494
70
0
0
VERTEX
8
Layer 1
10
4.882510
20
96.574698
70
0
0
VERTEX
8
Layer 1
10
5.074362
20
96.914922
70
0
0
VERTEX
8
Layer 1
10
7.086445
20
103.107348
70
0
0
VERTEX
8
Layer 1
10
0.894201
20
105.119230
70
0
0
SEQEND
8
Layer 1
0
POLYLINE
8
Layer 1
62
7
70
0
10
0.000000
20
0.000000
66
1
0
VERTEX
8
Layer 1
10
0.548263
20
119.965737
70
0
0
VERTEX
8
Layer 1
10
-0.072267
20
119.539187
70
0
0
VERTEX
8
Layer 1
10
-0.215982
20
119.175944
70
0
0
VERTEX
8
Layer 1
10
-0.209476
20
118.798877
70
0
0
VERTEX
8
Layer 1
10
-0.062056
20
118.451761
70
0
0
VERTEX
8
Layer 1
10
0.216975
20
118.178373
70
0
0
VERTEX
8
Layer 1
10
16.717738
20
107.462653
70
0
0
VERTEX
8
Layer 1
10
17.080982
20
107.318939
70
0
0
VERTEX
8
Layer 1
10
17.458049
20
107.325444
70
0
0
VERTEX
8
Layer 1
10
17.805165
20
107.472865
70
0
0
VERTEX
8
Layer 1
10
18.078553
20
107.751896
70
0
0
VERTEX
8
Layer 1
10
18.222267
20
108.115140
70
0
0
VERTEX
8
Layer 1
10
18.215762
20
108.492207
70
0
0
VERTEX
8
Layer 1
10
18.068341
20
108.839323
70
0
0
VERTEX
8
Layer 1
10
17.789310
20
109.112711
70
0
0
VERTEX
8
Layer 1
10
1.288546
20
119.828431
70
0
0
VERTEX
8
Layer 1
10
0.548263
20
119.965737
70
0
0
VERTEX
8
Layer 1
10
0.548263
20
119.965737
70
0
0
SEQEND
8
Layer 1
0
POLYLINE
8
Layer 1
62
7
70
0
10
0.000000
20
0.000000
66
1
0
VERTEX
8
Layer 1
10
13.209974
20
114.465578
70
0
0
VERTEX
8
Layer 1
10
12.589370
20
114.039132
70
0
0
VERTEX
8
Layer 1
10
12.452137
20
113.298745
70
0
0
VERTEX
8
Layer 1
10
12.919058
20
111.102640
70
0
0
VERTEX
8
Layer 1
10
10.722762
20
110.635729
70
0
0
VERTEX
8
Layer 1
10
10.102157
20
110.209284
70
0
0
VERTEX
8
Layer 1
10
9.964925
20
109.468896
70
0
0
VERTEX
8
Layer 1
10
10.391431
20
108.848410
70
0
0
VERTEX
8
Layer 1
10
11.131768
20
108.711252
70
0
0
VERTEX
8
Layer 1
10
15.252542
20
109.587169
70
0
0
VERTEX
8
Layer 1
10
14.376625
20
113.707944
70
0
0
VERTEX
8
Layer 1
10
14.221387
20
114.066357
70
0
0
VERTEX
8
Layer 1
10
13.950186
20
114.328345
70
0
0
VERTEX
8
Layer 1
10
13.600542
20
114.469540
70
0
0
VERTEX
8
Layer 1
10
13.209974
20
114.465578
70
0
0
VERTEX
8
Layer 1
10
13.209974
20
114.465578
70
0
0
SEQEND
8
Layer 1
0
POLYLINE
8
Layer 1
62
7
70
0
10
0.000000
20
0.000000
66
1
0
VERTEX
8
Layer 1
10
9.443638
20
120.327069
70
0
0
VERTEX
8
Layer 1
10
8.823152
20
119.900563
70
0
0
VERTEX
8
Layer 1
10
8.685994
20
119.160226
70
0
0
VERTEX
8
Layer 1
10
9.995170
20
113.001340
70
0
0
VERTEX
8
Layer 1
10
3.836092
20
111.692175
70
0
0
VERTEX
8
Layer 1
10
3.477678
20
111.536938
70
0
0
VERTEX
8
Layer 1
10
3.215691
20
111.265737
70
0
0
VERTEX
8
Layer 1
10
3.074495
20
110.916092
70
0
0
VERTEX
8
Layer 1
10
3.078458
20
110.525524
70
0
0
VERTEX
8
Layer 1
10
3.504904
20
109.904920
70
0
0
VERTEX
8
Layer 1
10
4.245291
20
109.767688
70
0
0
VERTEX
8
Layer 1
10
12.328653
20
111.485869
70
0
0
VERTEX
8
Layer 1
10
10.610481
20
119.569423
70
0
0
VERTEX
8
Layer 1
10
10.183976
20
120.189911
70
0
0
VERTEX
8
Layer 1
10
9.443638
20
120.327069
70
0
0
VERTEX
8
Layer 1
10
9.443638
20
120.327069
70
0
0
SEQEND
8
Layer 1
0
POLYLINE
8
Layer 1
62
7
70
0
10
0.000000
20
0.000000
66
1
0
VERTEX
8
Layer 1
10
5.163205
20
121.628844
70
0
0
VERTEX
8
Layer 1
10
4.542601
20
121.202398
70
0
0
VERTEX
8
Layer 1
10
4.405369
20
120.462011
70
0
0
VERTEX
8
Layer 1
10
5.350149
20
116.017857
70
0
0
VERTEX
8
Layer 1
10
0.905813
20
115.073278
70
0
0
VERTEX
8
Layer 1
10
0.285326
20
114.646772
70
0
0
VERTEX
8
Layer 1
10
0.148168
20
113.906435
70
0
0
VERTEX
8
Layer 1
10
0.574675
20
113.285948
70
0
0
VERTEX
8
Layer 1
10
1.315012
20
113.148791
70
0
0
VERTEX
8
Layer 1
10
7.683633
20
114.502385
70
0
0
VERTEX
8
Layer 1
10
6.329856
20
120.871209
70
0
0
VERTEX
8
Layer 1
10
6.174619
20
121.229623
70
0
0
VERTEX
8
Layer 1
10
5.903418
20
121.491611
70
0
0
VERTEX
8
Layer 1
10
5.553773
20
121.632807
70
0
0
VERTEX
8
Layer 1
10
5.163205
20
121.628844
70
0
0
VERTEX
8
Layer 1
10
5.163205
20
121.628844
70
0
0
SEQEND
8
Layer 1
0
POLYLINE
8
Layer 1
62
7
70
1
10
0.000000
20
0.000000
66
1
0
VERTEX
8
Layer 1
10
18.334713
20
128.918019
70
0
0
VERTEX
8
Layer 1
10
17.948274
20
128.860858
70
0
0
VERTEX
8
Layer 1
10
17.624974
20
128.666687
70
0
0
VERTEX
8
Layer 1
10
17.398073
20
128.365454
70
0
0
VERTEX
8
Layer 1
10
17.300831
20
127.987107
70
0
0
VERTEX
8
Layer 1
10
16.271127
20
108.339167
70
0
0
VERTEX
8
Layer 1
10
16.328288
20
107.952728
70
0
0
VERTEX
8
Layer 1
10
16.522459
20
107.629428
70
0
0
VERTEX
8
Layer 1
10
16.823692
20
107.402527
70
0
0
VERTEX
8
Layer 1
10
17.202039
20
107.305285
70
0
0
VERTEX
8
Layer 1
10
17.588478
20
107.362446
70
0
0
VERTEX
8
Layer 1
10
17.911778
20
107.556617
70
0
0
VERTEX
8
Layer 1
10
18.138679
20
107.857850
70
0
0
VERTEX
8
Layer 1
10
18.235921
20
108.236197
70
0
0
VERTEX
8
Layer 1
10
19.265625
20
127.884137
70
0
0
VERTEX
8
Layer 1
10
19.014293
20
128.593876
70
0
0
VERTEX
8
Layer 1
10
18.334713
20
128.918019
70
0
0
VERTEX
8
Layer 1
10
18.334713
20
128.918019
70
0
0
SEQEND
8
Layer 1
0
POLYLINE
8
Layer 1
62
7
70
0
10
0.000000
20
0.000000
66
1
0
VERTEX
8
Layer 1
10
15.341950
20
115.441684
70
0
0
VERTEX
8
Layer 1
10
14.632282
20
115.190274
70
0
0
VERTEX
8
Layer 1
10
14.399504
20
114.876626
70
0
0
VERTEX
8
Layer 1
10
14.308217
20
114.510764
70
0
0
VERTEX
8
Layer 1
10
14.360761
20
114.137365
70
0
0
VERTEX
8
Layer 1
10
14.559478
20
113.801103
70
0
0
VERTEX
8
Layer 1
10
17.378386
20
110.670186
70
0
0
VERTEX
8
Layer 1
10
20.509120
20
113.489296
70
0
0
VERTEX
8
Layer 1
10
20.741898
20
113.802944
70
0
0
VERTEX
8
Layer 1
10
20.833185
20
114.168806
70
0
0
VERTEX
8
Layer 1
10
20.780641
20
114.542205
70
0
0
VERTEX
8
Layer 1
10
20.581924
20
114.878466
70
0
0
VERTEX
8
Layer 1
10
19.902323
20
115.202632
70
0
0
VERTEX
8
Layer 1
10
19.192561
20
114.951280
70
0
0
VERTEX
8
Layer 1
10
17.524002
20
113.448720
70
0
0
VERTEX
8
Layer 1
10
16.021645
20
115.117460
70
0
0
VERTEX
8
Layer 1
10
15.341950
20
115.441684
70
0
0
VERTEX
8
Layer 1
10
15.341950
20
115.441684
70
0
0
SEQEND
8
Layer 1
0
POLYLINE
8
Layer 1
62
7
70
0
10
0.000000
20
0.000000
66
1
0
VERTEX
8
Layer 1
10
12.813676
20
121.933821
70
0
0
VERTEX
8
Layer 1
10
12.104017
20
121.682603
70
0
0
VERTEX
8
Layer 1
10
11.779851
20
121.003003
70
0
0
VERTEX
8
Layer 1
10
12.031204
20
120.293240
70
0
0
VERTEX
8
Layer 1
10
17.560856
20
114.151940
70
0
0
VERTEX
8
Layer 1
10
23.702157
20
119.681592
70
0
0
VERTEX
8
Layer 1
10
24.026323
20
120.361193
70
0
0
VERTEX
8
Layer 1
10
23.774970
20
121.070955
70
0
0
VERTEX
8
Layer 1
10
23.095370
20
121.395121
70
0
0
VERTEX
8
Layer 1
10
22.385608
20
121.143768
70
0
0
VERTEX
8
Layer 1
10
17.706473
20
116.930473
70
0
0
VERTEX
8
Layer 1
10
13.493380
20
121.609790
70
0
0
VERTEX
8
Layer 1
10
12.813676
20
121.933821
70
0
0
VERTEX
8
Layer 1
10
12.813676
20
121.933821
70
0
0
SEQEND
8
Layer 1
0
POLYLINE
8
Layer 1
62
7
70
0
10
0.000000
20
0.000000
66
1
0
VERTEX
8
Layer 1
10
14.276646
20
126.162131
70
0
0
VERTEX
8
Layer 1
10
13.566786
20
125.910732
70
0
0
VERTEX
8
Layer 1
10
13.242620
20
125.231132
70
0
0
VERTEX
8
Layer 1
10
13.493972
20
124.521369
70
0
0
VERTEX
8
Layer 1
10
17.850722
20
119.682912
70
0
0
VERTEX
8
Layer 1
10
22.689361
20
124.039460
70
0
0
VERTEX
8
Layer 1
10
23.013527
20
124.719060
70
0
0
VERTEX
8
Layer 1
10
22.762175
20
125.428823
70
0
0
VERTEX
8
Layer 1
10
22.082574
20
125.752989
70
0
0
VERTEX
8
Layer 1
10
21.372812
20
125.501636
70
0
0
VERTEX
8
Layer 1
10
17.996339
20
122.461445
70
0
0
VERTEX
8
Layer 1
10
14.956148
20
125.837919
70
0
0
VERTEX
8
Layer 1
10
14.276646
20
126.162131
70
0
0
VERTEX
8
Layer 1
10
14.276646
20
126.162131
70
0
0
SEQEND
8
Layer 1
0
POLYLINE
8
Layer 1
62
7
70
0
10
0.000000
20
0.000000
66
1
0
VERTEX
8
Layer 1
10
35.087960
20
118.155590
70
0
0
VERTEX
8
Layer 1
10
34.337380
20
118.096416
70
0
0
VERTEX
8
Layer 1
10
16.806913
20
109.164196
70
0
0
VERTEX
8
Layer 1
10
16.500833
20
108.921473
70
0
0
VERTEX
8
Layer 1
10
16.317936
20
108.591668
70
0
0
VERTEX
8
Layer 1
10
16.272052
20
108.217346
70
0
0
VERTEX
8
Layer 1
10
16.377010
20
107.841071
70
0
0
VERTEX
8
Layer 1
10
16.619733
20
107.534991
70
0
0
VERTEX
8
Layer 1
10
16.949538
20
107.352094
70
0
0
VERTEX
8
Layer 1
10
17.323860
20
107.306210
70
0
0
VERTEX
8
Layer 1
10
17.700135
20
107.411168
70
0
0
VERTEX
8
Layer 1
10
35.230603
20
116.343388
70
0
0
VERTEX
8
Layer 1
10
35.536682
20
116.586112
70
0
0
VERTEX
8
Layer 1
10
35.719578
20
116.915916
70
0
0
VERTEX
8
Layer 1
10
35.765462
20
117.290238
70
0
0
VERTEX
8
Layer 1
10
35.660504
20
117.666514
70
0
0
VERTEX
8
Layer 1
10
35.087960
20
118.155590
70
0
0
VERTEX
8
Layer 1
10
35.087960
20
118.155590
70
0
0
SEQEND
8
Layer 1
0
POLYLINE
8
Layer 1
62
7
70
0
10
0.000000
20
0.000000
66
1
0
VERTEX
8
Layer 1
10
21.920688
20
114.009069
70
0
0
VERTEX
8
Layer 1
10
21.532674
20
114.053835
70
0
0
VERTEX
8
Layer 1
10
21.170186
20
113.949961
70
0
0
VERTEX
8
Layer 1
10
20.873086
20
113.717757
70
0
0
VERTEX
8
Layer 1
10
20.681234
20
113.377534
70
0
0
VERTEX
8
Layer 1
10
19.379378
20
109.370891
70
0
0
VERTEX
8
Layer 1
10
23.386019
20
108.069034
70
0
0
VERTEX
8
Layer 1
10
24.136638
20
108.128054
70
0
0
VERTEX
8
Layer 1
10
24.625666
20
108.700560
70
0
0
VERTEX
8
Layer 1
10
24.566577
20
109.451236
70
0
0
VERTEX
8
Layer 1
10
23.993947
20
109.940217
70
0
0
VERTEX
8
Layer 1
10
21.858488
20
110.634145
70
0
0
VERTEX
8
Layer 1
10
22.552406
20
112.769413
70
0
0
VERTEX
8
Layer 1
10
22.493317
20
113.520089
70
0
0
VERTEX
8
Layer 1
10
21.920688
20
114.009069
70
0
0
VERTEX
8
Layer 1
10
21.920688
20
114.009069
70
0
0
SEQEND
8
Layer 1
0
POLYLINE
8
Layer 1
62
7
70
0
10
0.000000
20
0.000000
66
1
0
VERTEX
8
Layer 1
10
26.279084
20
119.444761
70
0
0
VERTEX
8
Layer 1
10
25.528465
20
119.385741
70
0
0
VERTEX
8
Layer 1
10
25.039437
20
118.813234
70
0
0
VERTEX
8
Layer 1
10
22.485717
20
110.953560
70
0
0
VERTEX
8
Layer 1
10
30.345200
20
108.399851
70
0
0
VERTEX
8
Layer 1
10
31.095875
20
108.458940
70
0
0
VERTEX
8
Layer 1
10
31.584856
20
109.031568
70
0
0
VERTEX
8
Layer 1
10
31.629622
20
109.419583
70
0
0
VERTEX
8
Layer 1
10
31.525748
20
109.782071
70
0
0
VERTEX
8
Layer 1
10
31.293543
20
110.079171
70
0
0
VERTEX
8
Layer 1
10
30.953319
20
110.271023
70
0
0
VERTEX
8
Layer 1
10
24.964827
20
112.216815
70
0
0
VERTEX
8
Layer 1
10
26.910610
20
118.205115
70
0
0
VERTEX
8
Layer 1
10
26.851590
20
118.955733
70
0
0
VERTEX
8
Layer 1
10
26.279084
20
119.444761
70
0
0
VERTEX
8
Layer 1
10
26.279084
20
119.444761
70
0
0
SEQEND
8
Layer 1
0
POLYLINE
8
Layer 1
62
7
70
0
10
0.000000
20
0.000000
66
1
0
VERTEX
8
Layer 1
10
30.672141
20
120.291979
70
0
0
VERTEX
8
Layer 1
10
30.284126
20
120.336745
70
0
0
VERTEX
8
Layer 1
10
29.921638
20
120.232870
70
0
0
VERTEX
8
Layer 1
10
29.624538
20
120.000666
70
0
0
VERTEX
8
Layer 1
10
29.432686
20
119.660442
70
0
0
VERTEX
8
Layer 1
10
27.420602
20
113.468016
70
0
0
VERTEX
8
Layer 1
10
33.612847
20
111.456134
70
0
0
VERTEX
8
Layer 1
10
34.363466
20
111.515154
70
0
0
VERTEX
8
Layer 1
10
34.852494
20
112.087660
70
0
0
VERTEX
8
Layer 1
10
34.793474
20
112.838278
70
0
0
VERTEX
8
Layer 1
10
34.220968
20
113.327306
70
0
0
VERTEX
8
Layer 1
10
29.899714
20
114.731270
70
0
0
VERTEX
8
Layer 1
10
31.303859
20
119.052323
70
0
0
VERTEX
8
Layer 1
10
31.244770
20
119.802998
70
0
0
VERTEX
8
Layer 1
10
30.672141
20
120.291979
70
0
0
VERTEX
8
Layer 1
10
30.672141
20
120.291979
70
0
0
SEQEND
8
Layer 1
0
POLYLINE
8
Layer 1
62
7
70
0
10
0.000000
20
0.000000
66
1
0
VERTEX
8
Layer 1
10
17.049026
20
109.250017
70
0
0
VERTEX
8
Layer 1
10
16.428495
20
108.823468
70
0
0
VERTEX
8
Layer 1
10
16.284781
20
108.460224
70
0
0
VERTEX
8
Layer 1
10
16.291286
20
108.083157
70
0
0
VERTEX
8
Layer 1
10
16.438707
20
107.736041
70
0
0
VERTEX
8
Layer 1
10
16.717738
20
107.462653
70
0
0
VERTEX
8
Layer 1
10
33.218502
20
96.746933
70
0
0
VERTEX
8
Layer 1
10
33.581745
20
96.603219
70
0
0
VERTEX
8
Layer 1
10
33.958812
20
96.609725
70
0
0
VERTEX
8
Layer 1
10
34.305927
20
96.757146
70
0
0
VERTEX
8
Layer 1
10
34.579315
20
97.036177
70
0
0
VERTEX
8
Layer 1
10
34.723030
20
97.399420
70
0
0
VERTEX
8
Layer 1
10
34.716524
20
97.776487
70
0
0
VERTEX
8
Layer 1
10
34.569104
20
98.123603
70
0
0
VERTEX
8
Layer 1
10
34.290073
20
98.396991
70
0
0
VERTEX
8
Layer 1
10
17.789310
20
109.112711
70
0
0
VERTEX
8
Layer 1
10
17.049026
20
109.250017
70
0
0
VERTEX
8
Layer 1
10
17.049026
20
109.250017
70
0
0
SEQEND
8
Layer 1
0
POLYLINE
8
Layer 1
62
7
70
0
10
0.000000
20
0.000000
66
1
0
VERTEX
8
Layer 1
10
23.375280
20
107.864112
70
0
0
VERTEX
8
Layer 1
10
19.254506
20
106.988195
70
0
0
VERTEX
8
Layer 1
10
20.130423
20
102.867420
70
0
0
VERTEX
8
Layer 1
10
20.285661
20
102.509007
70
0
0
VERTEX
8
Layer 1
10
20.556862
20
102.247019
70
0
0
VERTEX
8
Layer 1
10
20.906506
20
102.105824
70
0
0
VERTEX
8
Layer 1
10
21.297074
20
102.109786
70
0
0
VERTEX
8
Layer 1
10
21.917678
20
102.536232
70
0
0
VERTEX
8
Layer 1
10
22.054911
20
103.276619
70
0
0
VERTEX
8
Layer 1
10
21.587990
20
105.472724
70
0
0
VERTEX
8
Layer 1
10
23.784286
20
105.939635
70
0
0
VERTEX
8
Layer 1
10
24.404891
20
106.366080
70
0
0
VERTEX
8
Layer 1
10
24.542123
20
107.106468
70
0
0
VERTEX
8
Layer 1
10
24.115617
20
107.726954
70
0
0
VERTEX
8
Layer 1
10
23.375280
20
107.864112
70
0
0
VERTEX
8
Layer 1
10
23.375280
20
107.864112
70
0
0
SEQEND
8
Layer 1
0
POLYLINE
8
Layer 1
62
7
70
0
10
0.000000
20
0.000000
66
1
0
VERTEX
8
Layer 1
10
30.261757
20
106.807676
70
0
0
VERTEX
8
Layer 1
10
22.178395
20
105.089495
70
0
0
VERTEX
8
Layer 1
10
23.896567
20
97.005941
70
0
0
VERTEX
8
Layer 1
10
24.323072
20
96.385453
70
0
0
VERTEX
8
Layer 1
10
25.063410
20
96.248295
70
0
0
VERTEX
8
Layer 1
10
25.683896
20
96.674801
70
0
0
VERTEX
8
Layer 1
10
25.821054
20
97.415138
70
0
0
VERTEX
8
Layer 1
10
24.511878
20
103.574024
70
0
0
VERTEX
8
Layer 1
10
30.670955
20
104.883190
70
0
0
VERTEX
8
Layer 1
10
31.029369
20
105.038427
70
0
0
VERTEX
8
Layer 1
10
31.291357
20
105.309628
70
0
0
VERTEX
8
Layer 1
10
31.432552
20
105.659272
70
0
0
VERTEX
8
Layer 1
10
31.428590
20
106.049840
70
0
0
VERTEX
8
Layer 1
10
31.002144
20
106.670444
70
0
0
VERTEX
8
Layer 1
10
30.261757
20
106.807676
70
0
0
VERTEX
8
Layer 1
10
30.261757
20
106.807676
70
0
0
SEQEND
8
Layer 1
0
POLYLINE
8
Layer 1
62
7
70
0
10
0.000000
20
0.000000
66
1
0
VERTEX
8
Layer 1
10
33.192036
20
103.426573
70
0
0
VERTEX
8
Layer 1
10
26.823414
20
102.072979
70
0
0
VERTEX
8
Layer 1
10
28.177192
20
95.704155
70
0
0
VERTEX
8
Layer 1
10
28.332429
20
95.345741
70
0
0
VERTEX
8
Layer 1
10
28.603630
20
95.083753
70
0
0
VERTEX
8
Layer 1
10
28.953275
20
94.942557
70
0
0
VERTEX
8
Layer 1
10
29.343843
20
94.946520
70
0
0
VERTEX
8
Layer 1
10
29.964447
20
95.372966
70
0
0
VERTEX
8
Layer 1
10
30.101679
20
96.113353
70
0
0
VERTEX
8
Layer 1
10
29.156899
20
100.557507
70
0
0
VERTEX
8
Layer 1
10
33.601235
20
101.502086
70
0
0
VERTEX
8
Layer 1
10
34.221722
20
101.928592
70
0
0
VERTEX
8
Layer 1
10
34.358880
20
102.668929
70
0
0
VERTEX
8
Layer 1
10
33.932373
20
103.289416
70
0
0
VERTEX
8
Layer 1
10
33.192036
20
103.426573
70
0
0
VERTEX
8
Layer 1
10
33.192036
20
103.426573
70
0
0
SEQEND
8
Layer 1
 0 
ENDSEC
 0 
EOF