999
"DXF R12 Output" (www.mydxf.blogspot.com)
 0 
SECTION
 2 
HEADER
 9 
$ACADVER
 1 
AC1009
 9 
$EXTMIN
 10 
 0 
 20 
 0 
 9 
$EXTMAX
 10 
 8.5 
 20 
 11 
 0 
ENDSEC
 0 
SECTION
 2 
ENTITIES
0
POLYLINE
8
Layer 1
62
7
70
0
10
0.000000
20
0.000000
66
1
0
VERTEX
8
Layer 1
10
83.262736
20
92.319860
70
0
0
VERTEX
8
Layer 1
10
83.653583
20
92.664609
70
0
0
VERTEX
8
Layer 1
10
83.874232
20
93.116777
70
0
0
VERTEX
8
Layer 1
10
83.909229
20
93.618691
70
0
0
VERTEX
8
Layer 1
10
83.743120
20
94.112676
70
0
0
VERTEX
8
Layer 1
10
70.618800
20
116.844676
70
0
0
VERTEX
8
Layer 1
10
70.274051
20
117.235523
70
0
0
VERTEX
8
Layer 1
10
69.821883
20
117.456172
70
0
0
VERTEX
8
Layer 1
10
69.319969
20
117.491169
70
0
0
VERTEX
8
Layer 1
10
68.825984
20
117.325060
70
0
0
VERTEX
8
Layer 1
10
68.440977
20
116.987418
70
0
0
VERTEX
8
Layer 1
10
68.214488
20
116.528143
70
0
0
VERTEX
8
Layer 1
10
68.180996
20
116.017153
70
0
0
VERTEX
8
Layer 1
10
68.345600
20
115.532244
70
0
0
VERTEX
8
Layer 1
10
81.469920
20
92.800244
70
0
0
VERTEX
8
Layer 1
10
81.807562
20
92.415237
70
0
0
VERTEX
8
Layer 1
10
82.266837
20
92.188748
70
0
0
VERTEX
8
Layer 1
10
82.777827
20
92.155256
70
0
0
VERTEX
8
Layer 1
10
83.262736
20
92.319860
70
0
0
VERTEX
8
Layer 1
10
83.262736
20
92.319860
70
0
0
SEQEND
8
Layer 1
0
POLYLINE
8
Layer 1
62
7
70
0
10
0.000000
20
0.000000
66
1
0
VERTEX
8
Layer 1
10
80.489839
20
97.122661
70
0
0
VERTEX
8
Layer 1
10
81.175827
20
99.682104
70
0
0
VERTEX
8
Layer 1
10
81.209333
20
100.193112
70
0
0
VERTEX
8
Layer 1
10
81.044726
20
100.678042
70
0
0
VERTEX
8
Layer 1
10
80.707068
20
101.063061
70
0
0
VERTEX
8
Layer 1
10
80.247769
20
101.289549
70
0
0
VERTEX
8
Layer 1
10
79.736760
20
101.323055
70
0
0
VERTEX
8
Layer 1
10
79.251831
20
101.158447
70
0
0
VERTEX
8
Layer 1
10
78.866812
20
100.820790
70
0
0
VERTEX
8
Layer 1
10
78.640324
20
100.361491
70
0
0
VERTEX
8
Layer 1
10
78.633850
20
100.337330
70
0
0
VERTEX
8
Layer 1
10
78.609688
20
100.343804
70
0
0
VERTEX
8
Layer 1
10
78.098680
20
100.377309
70
0
0
VERTEX
8
Layer 1
10
77.613751
20
100.212702
70
0
0
VERTEX
8
Layer 1
10
77.228732
20
99.875044
70
0
0
VERTEX
8
Layer 1
10
77.002244
20
99.415746
70
0
0
VERTEX
8
Layer 1
10
76.968738
20
98.904737
70
0
0
VERTEX
8
Layer 1
10
77.133345
20
98.419807
70
0
0
VERTEX
8
Layer 1
10
77.471003
20
98.034788
70
0
0
VERTEX
8
Layer 1
10
77.930302
20
97.808300
70
0
0
VERTEX
8
Layer 1
10
80.489839
20
97.122661
70
0
0
SEQEND
8
Layer 1
0
POLYLINE
8
Layer 1
62
7
70
0
10
0.000000
20
0.000000
66
1
0
VERTEX
8
Layer 1
10
77.570190
20
102.179643
70
0
0
VERTEX
8
Layer 1
10
78.785131
20
106.713857
70
0
0
VERTEX
8
Layer 1
10
78.818636
20
107.224865
70
0
0
VERTEX
8
Layer 1
10
78.654029
20
107.709795
70
0
0
VERTEX
8
Layer 1
10
78.316371
20
108.094814
70
0
0
VERTEX
8
Layer 1
10
77.857072
20
108.321302
70
0
0
VERTEX
8
Layer 1
10
77.346064
20
108.354808
70
0
0
VERTEX
8
Layer 1
10
76.861134
20
108.190201
70
0
0
VERTEX
8
Layer 1
10
76.476115
20
107.852543
70
0
0
VERTEX
8
Layer 1
10
76.249627
20
107.393244
70
0
0
VERTEX
8
Layer 1
10
75.714201
20
105.394312
70
0
0
VERTEX
8
Layer 1
10
73.715363
20
105.930087
70
0
0
VERTEX
8
Layer 1
10
73.204354
20
105.963592
70
0
0
VERTEX
8
Layer 1
10
72.719425
20
105.798985
70
0
0
VERTEX
8
Layer 1
10
72.334406
20
105.461327
70
0
0
VERTEX
8
Layer 1
10
72.107918
20
105.002028
70
0
0
VERTEX
8
Layer 1
10
72.074412
20
104.491019
70
0
0
VERTEX
8
Layer 1
10
72.239019
20
104.006089
70
0
0
VERTEX
8
Layer 1
10
72.576677
20
103.621070
70
0
0
VERTEX
8
Layer 1
10
73.035976
20
103.394582
70
0
0
VERTEX
8
Layer 1
10
77.570190
20
102.179643
70
0
0
SEQEND
8
Layer 1
0
POLYLINE
8
Layer 1
62
7
70
0
10
0.000000
20
0.000000
66
1
0
VERTEX
8
Layer 1
10
75.690234
20
105.435824
70
0
0
VERTEX
8
Layer 1
10
78.956470
20
117.625573
70
0
0
VERTEX
8
Layer 1
10
78.989976
20
118.136581
70
0
0
VERTEX
8
Layer 1
10
78.825369
20
118.621511
70
0
0
VERTEX
8
Layer 1
10
78.487711
20
119.006530
70
0
0
VERTEX
8
Layer 1
10
78.028412
20
119.233018
70
0
0
VERTEX
8
Layer 1
10
77.517403
20
119.266524
70
0
0
VERTEX
8
Layer 1
10
77.032473
20
119.101916
70
0
0
VERTEX
8
Layer 1
10
76.647454
20
118.764259
70
0
0
VERTEX
8
Layer 1
10
76.420966
20
118.304959
70
0
0
VERTEX
8
Layer 1
10
73.834117
20
108.650715
70
0
0
VERTEX
8
Layer 1
10
64.179873
20
111.237564
70
0
0
VERTEX
8
Layer 1
10
63.668864
20
111.271070
70
0
0
VERTEX
8
Layer 1
10
63.183934
20
111.106463
70
0
0
VERTEX
8
Layer 1
10
62.798915
20
110.768805
70
0
0
VERTEX
8
Layer 1
10
62.572427
20
110.309506
70
0
0
VERTEX
8
Layer 1
10
62.538922
20
109.798497
70
0
0
VERTEX
8
Layer 1
10
62.703529
20
109.313567
70
0
0
VERTEX
8
Layer 1
10
63.041187
20
108.928548
70
0
0
VERTEX
8
Layer 1
10
63.500486
20
108.702060
70
0
0
VERTEX
8
Layer 1
10
75.690234
20
105.435824
70
0
0
SEQEND
8
Layer 1
0
POLYLINE
8
Layer 1
62
7
70
0
10
0.000000
20
0.000000
66
1
0
VERTEX
8
Layer 1
10
82.946296
20
92.188665
70
0
0
VERTEX
8
Layer 1
10
83.405529
20
92.415213
70
0
0
VERTEX
8
Layer 1
10
83.743114
20
92.800254
70
0
0
VERTEX
8
Layer 1
10
96.867443
20
115.532249
70
0
0
VERTEX
8
Layer 1
10
97.033545
20
116.026230
70
0
0
VERTEX
8
Layer 1
10
96.998545
20
116.528139
70
0
0
VERTEX
8
Layer 1
10
96.777897
20
116.980302
70
0
0
VERTEX
8
Layer 1
10
96.387054
20
117.325047
70
0
0
VERTEX
8
Layer 1
10
95.893073
20
117.491149
70
0
0
VERTEX
8
Layer 1
10
95.391165
20
117.456150
70
0
0
VERTEX
8
Layer 1
10
94.939001
20
117.235502
70
0
0
VERTEX
8
Layer 1
10
94.594256
20
116.844660
70
0
0
VERTEX
8
Layer 1
10
81.469926
20
94.112666
70
0
0
VERTEX
8
Layer 1
10
81.303824
20
93.618685
70
0
0
VERTEX
8
Layer 1
10
81.338824
20
93.116776
70
0
0
VERTEX
8
Layer 1
10
81.559472
20
92.664612
70
0
0
VERTEX
8
Layer 1
10
81.950314
20
92.319866
70
0
0
VERTEX
8
Layer 1
10
82.435255
20
92.155199
70
0
0
VERTEX
8
Layer 1
10
82.946296
20
92.188665
70
0
0
VERTEX
8
Layer 1
10
82.946296
20
92.188665
70
0
0
SEQEND
8
Layer 1
0
POLYLINE
8
Layer 1
62
7
70
0
10
0.000000
20
0.000000
66
1
0
VERTEX
8
Layer 1
10
87.282616
20
97.808417
70
0
0
VERTEX
8
Layer 1
10
87.741914
20
98.034875
70
0
0
VERTEX
8
Layer 1
10
88.079586
20
98.419863
70
0
0
VERTEX
8
Layer 1
10
88.244224
20
98.904768
70
0
0
VERTEX
8
Layer 1
10
88.210762
20
99.415765
70
0
0
VERTEX
8
Layer 1
10
87.984304
20
99.875063
70
0
0
VERTEX
8
Layer 1
10
87.599317
20
100.212736
70
0
0
VERTEX
8
Layer 1
10
87.114412
20
100.377374
70
0
0
VERTEX
8
Layer 1
10
86.603415
20
100.343912
70
0
0
VERTEX
8
Layer 1
10
86.579346
20
100.337412
70
0
0
VERTEX
8
Layer 1
10
86.572845
20
100.361481
70
0
0
VERTEX
8
Layer 1
10
86.346336
20
100.820804
70
0
0
VERTEX
8
Layer 1
10
85.961280
20
101.158467
70
0
0
VERTEX
8
Layer 1
10
85.476310
20
101.323053
70
0
0
VERTEX
8
Layer 1
10
84.965274
20
101.289500
70
0
0
VERTEX
8
Layer 1
10
84.498603
20
101.057652
70
0
0
VERTEX
8
Layer 1
10
84.168497
20
100.678040
70
0
0
VERTEX
8
Layer 1
10
84.004798
20
100.202354
70
0
0
VERTEX
8
Layer 1
10
84.037348
20
99.682281
70
0
0
VERTEX
8
Layer 1
10
84.723174
20
97.122491
70
0
0
VERTEX
8
Layer 1
10
87.282616
20
97.808417
70
0
0
SEQEND
8
Layer 1
0
POLYLINE
8
Layer 1
62
7
70
0
10
0.000000
20
0.000000
66
1
0
VERTEX
8
Layer 1
10
92.177017
20
103.394598
70
0
0
VERTEX
8
Layer 1
10
92.636316
20
103.621056
70
0
0
VERTEX
8
Layer 1
10
92.973989
20
104.006044
70
0
0
VERTEX
8
Layer 1
10
93.138627
20
104.490949
70
0
0
VERTEX
8
Layer 1
10
93.105165
20
105.001947
70
0
0
VERTEX
8
Layer 1
10
92.878657
20
105.461270
70
0
0
VERTEX
8
Layer 1
10
92.493601
20
105.798933
70
0
0
VERTEX
8
Layer 1
10
92.008631
20
105.963519
70
0
0
VERTEX
8
Layer 1
10
91.497595
20
105.929966
70
0
0
VERTEX
8
Layer 1
10
89.498981
20
105.394388
70
0
0
VERTEX
8
Layer 1
10
88.963276
20
107.393224
70
0
0
VERTEX
8
Layer 1
10
88.736817
20
107.852523
70
0
0
VERTEX
8
Layer 1
10
88.351829
20
108.190196
70
0
0
VERTEX
8
Layer 1
10
87.866924
20
108.354834
70
0
0
VERTEX
8
Layer 1
10
87.355926
20
108.321372
70
0
0
VERTEX
8
Layer 1
10
86.896604
20
108.094863
70
0
0
VERTEX
8
Layer 1
10
86.558941
20
107.709807
70
0
0
VERTEX
8
Layer 1
10
86.394355
20
107.224838
70
0
0
VERTEX
8
Layer 1
10
86.427908
20
106.713802
70
0
0
VERTEX
8
Layer 1
10
87.642813
20
102.179470
70
0
0
VERTEX
8
Layer 1
10
92.177017
20
103.394598
70
0
0
SEQEND
8
Layer 1
0
POLYLINE
8
Layer 1
62
7
70
0
10
0.000000
20
0.000000
66
1
0
VERTEX
8
Layer 1
10
101.712619
20
108.702257
70
0
0
VERTEX
8
Layer 1
10
102.179290
20
108.934105
70
0
0
VERTEX
8
Layer 1
10
102.509396
20
109.313716
70
0
0
VERTEX
8
Layer 1
10
102.673094
20
109.789403
70
0
0
VERTEX
8
Layer 1
10
102.640544
20
110.309476
70
0
0
VERTEX
8
Layer 1
10
102.414086
20
110.768775
70
0
0
VERTEX
8
Layer 1
10
102.029099
20
111.106448
70
0
0
VERTEX
8
Layer 1
10
101.544194
20
111.271086
70
0
0
VERTEX
8
Layer 1
10
101.033196
20
111.237624
70
0
0
VERTEX
8
Layer 1
10
91.378841
20
108.650809
70
0
0
VERTEX
8
Layer 1
10
88.792154
20
118.304941
70
0
0
VERTEX
8
Layer 1
10
88.565645
20
118.764265
70
0
0
VERTEX
8
Layer 1
10
88.180590
20
119.101927
70
0
0
VERTEX
8
Layer 1
10
87.695620
20
119.266514
70
0
0
VERTEX
8
Layer 1
10
87.184584
20
119.232962
70
0
0
VERTEX
8
Layer 1
10
86.717912
20
119.001113
70
0
0
VERTEX
8
Layer 1
10
86.387806
20
118.621501
70
0
0
VERTEX
8
Layer 1
10
86.224107
20
118.145814
70
0
0
VERTEX
8
Layer 1
10
86.256658
20
117.625741
70
0
0
VERTEX
8
Layer 1
10
89.522895
20
105.436018
70
0
0
VERTEX
8
Layer 1
10
101.712619
20
108.702257
70
0
0
SEQEND
8
Layer 1
0
POLYLINE
8
Layer 1
62
7
70
0
10
0.000000
20
0.000000
66
1
0
VERTEX
8
Layer 1
10
109.783224
20
92.528302
70
0
0
VERTEX
8
Layer 1
10
110.067726
20
92.954143
70
0
0
VERTEX
8
Layer 1
10
110.167590
20
93.456447
70
0
0
VERTEX
8
Layer 1
10
110.064453
20
93.967300
70
0
0
VERTEX
8
Layer 1
10
109.783193
20
94.384469
70
0
0
VERTEX
8
Layer 1
10
109.366027
20
94.665734
70
0
0
VERTEX
8
Layer 1
10
108.855176
20
94.768876
70
0
0
VERTEX
8
Layer 1
10
82.606526
20
94.768882
70
0
0
VERTEX
8
Layer 1
10
82.095674
20
94.665745
70
0
0
VERTEX
8
Layer 1
10
81.678505
20
94.384484
70
0
0
VERTEX
8
Layer 1
10
81.397240
20
93.967318
70
0
0
VERTEX
8
Layer 1
10
81.294098
20
93.456466
70
0
0
VERTEX
8
Layer 1
10
81.397235
20
92.945614
70
0
0
VERTEX
8
Layer 1
10
81.678496
20
92.528445
70
0
0
VERTEX
8
Layer 1
10
82.095662
20
92.247180
70
0
0
VERTEX
8
Layer 1
10
82.606514
20
92.144038
70
0
0
VERTEX
8
Layer 1
10
108.855163
20
92.144033
70
0
0
VERTEX
8
Layer 1
10
109.357411
20
92.243868
70
0
0
VERTEX
8
Layer 1
10
109.783224
20
92.528302
70
0
0
VERTEX
8
Layer 1
10
109.783224
20
92.528302
70
0
0
SEQEND
8
Layer 1
0
POLYLINE
8
Layer 1
62
7
70
0
10
0.000000
20
0.000000
66
1
0
VERTEX
8
Layer 1
10
90.569513
20
91.582676
70
0
0
VERTEX
8
Layer 1
10
90.854089
20
92.008470
70
0
0
VERTEX
8
Layer 1
10
90.954038
20
92.510758
70
0
0
VERTEX
8
Layer 1
10
90.854142
20
93.013058
70
0
0
VERTEX
8
Layer 1
10
90.569612
20
93.438882
70
0
0
VERTEX
8
Layer 1
10
90.552017
20
93.456547
70
0
0
VERTEX
8
Layer 1
10
90.569681
20
93.474141
70
0
0
VERTEX
8
Layer 1
10
90.854159
20
93.899947
70
0
0
VERTEX
8
Layer 1
10
90.954031
20
94.402206
70
0
0
VERTEX
8
Layer 1
10
90.854091
20
94.904451
70
0
0
VERTEX
8
Layer 1
10
90.569557
20
95.330219
70
0
0
VERTEX
8
Layer 1
10
90.143751
20
95.614697
70
0
0
VERTEX
8
Layer 1
10
89.641492
20
95.714569
70
0
0
VERTEX
8
Layer 1
10
89.139247
20
95.614630
70
0
0
VERTEX
8
Layer 1
10
88.713479
20
95.330095
70
0
0
VERTEX
8
Layer 1
10
86.839733
20
93.456516
70
0
0
VERTEX
8
Layer 1
10
88.713663
20
91.582678
70
0
0
VERTEX
8
Layer 1
10
89.147785
20
91.294452
70
0
0
VERTEX
8
Layer 1
10
89.641590
20
91.198376
70
0
0
VERTEX
8
Layer 1
10
90.135396
20
91.294450
70
0
0
VERTEX
8
Layer 1
10
90.569519
20
91.582674
70
0
0
VERTEX
8
Layer 1
10
90.569513
20
91.582676
70
0
0
SEQEND
8
Layer 1
0
POLYLINE
8
Layer 1
62
7
70
0
10
0.000000
20
0.000000
66
1
0
VERTEX
8
Layer 1
10
97.854613
20
90.137104
70
0
0
VERTEX
8
Layer 1
10
98.139091
20
90.562910
70
0
0
VERTEX
8
Layer 1
10
98.238963
20
91.065169
70
0
0
VERTEX
8
Layer 1
10
98.139024
20
91.567415
70
0
0
VERTEX
8
Layer 1
10
97.854489
20
91.993183
70
0
0
VERTEX
8
Layer 1
10
96.391300
20
93.456536
70
0
0
VERTEX
8
Layer 1
10
97.854431
20
94.919597
70
0
0
VERTEX
8
Layer 1
10
98.139007
20
95.345391
70
0
0
VERTEX
8
Layer 1
10
98.238956
20
95.847680
70
0
0
VERTEX
8
Layer 1
10
98.139060
20
96.349980
70
0
0
VERTEX
8
Layer 1
10
97.854529
20
96.775804
70
0
0
VERTEX
8
Layer 1
10
97.428723
20
97.060282
70
0
0
VERTEX
8
Layer 1
10
96.926464
20
97.160153
70
0
0
VERTEX
8
Layer 1
10
96.424218
20
97.060214
70
0
0
VERTEX
8
Layer 1
10
95.998450
20
96.775679
70
0
0
VERTEX
8
Layer 1
10
92.679015
20
93.456508
70
0
0
VERTEX
8
Layer 1
10
95.998408
20
90.137201
70
0
0
VERTEX
8
Layer 1
10
96.424202
20
89.852626
70
0
0
VERTEX
8
Layer 1
10
96.926490
20
89.752677
70
0
0
VERTEX
8
Layer 1
10
97.428789
20
89.852574
70
0
0
VERTEX
8
Layer 1
10
97.854613
20
90.137104
70
0
0
VERTEX
8
Layer 1
10
97.854613
20
90.137104
70
0
0
SEQEND
8
Layer 1
0
POLYLINE
8
Layer 1
62
7
70
0
10
0.000000
20
0.000000
66
1
0
VERTEX
8
Layer 1
10
107.218654
20
84.532918
70
0
0
VERTEX
8
Layer 1
10
107.503229
20
84.958713
70
0
0
VERTEX
8
Layer 1
10
107.603178
20
85.461002
70
0
0
VERTEX
8
Layer 1
10
107.503281
20
85.963301
70
0
0
VERTEX
8
Layer 1
10
107.218750
20
86.389125
70
0
0
VERTEX
8
Layer 1
10
100.151372
20
93.456331
70
0
0
VERTEX
8
Layer 1
10
107.218801
20
100.523837
70
0
0
VERTEX
8
Layer 1
10
107.503279
20
100.949643
70
0
0
VERTEX
8
Layer 1
10
107.603150
20
101.451902
70
0
0
VERTEX
8
Layer 1
10
107.503211
20
101.954148
70
0
0
VERTEX
8
Layer 1
10
107.218676
20
102.379916
70
0
0
VERTEX
8
Layer 1
10
106.784554
20
102.668142
70
0
0
VERTEX
8
Layer 1
10
106.290749
20
102.764218
70
0
0
VERTEX
8
Layer 1
10
105.796942
20
102.668144
70
0
0
VERTEX
8
Layer 1
10
105.362820
20
102.379919
70
0
0
VERTEX
8
Layer 1
10
96.439310
20
93.456432
70
0
0
VERTEX
8
Layer 1
10
105.362797
20
84.532921
70
0
0
VERTEX
8
Layer 1
10
105.796918
20
84.244695
70
0
0
VERTEX
8
Layer 1
10
106.290725
20
84.148619
70
0
0
VERTEX
8
Layer 1
10
106.784531
20
84.244693
70
0
0
VERTEX
8
Layer 1
10
107.218654
20
84.532918
70
0
0
VERTEX
8
Layer 1
10
107.218654
20
84.532918
70
0
0
SEQEND
8
Layer 1
0
POLYLINE
8
Layer 1
62
7
70
1
10
0.000000
20
0.000000
66
1
0
VERTEX
8
Layer 1
10
96.387056
20
69.587860
70
0
0
VERTEX
8
Layer 1
10
96.777903
20
69.932609
70
0
0
VERTEX
8
Layer 1
10
96.998552
20
70.384777
70
0
0
VERTEX
8
Layer 1
10
97.033549
20
70.886691
70
0
0
VERTEX
8
Layer 1
10
96.867440
20
71.380676
70
0
0
VERTEX
8
Layer 1
10
83.743120
20
94.112676
70
0
0
VERTEX
8
Layer 1
10
83.398371
20
94.503523
70
0
0
VERTEX
8
Layer 1
10
82.946203
20
94.724172
70
0
0
VERTEX
8
Layer 1
10
82.444289
20
94.759169
70
0
0
VERTEX
8
Layer 1
10
81.950304
20
94.593060
70
0
0
VERTEX
8
Layer 1
10
81.565297
20
94.255418
70
0
0
VERTEX
8
Layer 1
10
81.338808
20
93.796143
70
0
0
VERTEX
8
Layer 1
10
81.305316
20
93.285153
70
0
0
VERTEX
8
Layer 1
10
81.469920
20
92.800244
70
0
0
VERTEX
8
Layer 1
10
94.594240
20
70.068244
70
0
0
VERTEX
8
Layer 1
10
94.938989
20
69.677397
70
0
0
VERTEX
8
Layer 1
10
95.391157
20
69.456748
70
0
0
VERTEX
8
Layer 1
10
95.893071
20
69.421751
70
0
0
VERTEX
8
Layer 1
10
96.387056
20
69.587860
70
0
0
VERTEX
8
Layer 1
10
96.387056
20
69.587860
70
0
0
SEQEND
8
Layer 1
0
POLYLINE
8
Layer 1
62
7
70
0
10
0.000000
20
0.000000
66
1
0
VERTEX
8
Layer 1
10
87.599214
20
86.700093
70
0
0
VERTEX
8
Layer 1
10
87.984295
20
87.037796
70
0
0
VERTEX
8
Layer 1
10
88.210796
20
87.497174
70
0
0
VERTEX
8
Layer 1
10
88.244302
20
88.008183
70
0
0
VERTEX
8
Layer 1
10
88.079695
20
88.493113
70
0
0
VERTEX
8
Layer 1
10
87.742037
20
88.878132
70
0
0
VERTEX
8
Layer 1
10
87.282738
20
89.104620
70
0
0
VERTEX
8
Layer 1
10
84.723201
20
89.790259
70
0
0
VERTEX
8
Layer 1
10
84.037213
20
87.230816
70
0
0
VERTEX
8
Layer 1
10
84.003707
20
86.719808
70
0
0
VERTEX
8
Layer 1
10
84.168314
20
86.234878
70
0
0
VERTEX
8
Layer 1
10
84.505972
20
85.849859
70
0
0
VERTEX
8
Layer 1
10
84.965271
20
85.623371
70
0
0
VERTEX
8
Layer 1
10
85.476280
20
85.589865
70
0
0
VERTEX
8
Layer 1
10
85.961209
20
85.754473
70
0
0
VERTEX
8
Layer 1
10
86.346228
20
86.092130
70
0
0
VERTEX
8
Layer 1
10
86.572716
20
86.551429
70
0
0
VERTEX
8
Layer 1
10
86.579190
20
86.575590
70
0
0
VERTEX
8
Layer 1
10
86.603352
20
86.569116
70
0
0
VERTEX
8
Layer 1
10
87.114309
20
86.535566
70
0
0
VERTEX
8
Layer 1
10
87.599214
20
86.700093
70
0
0
VERTEX
8
Layer 1
10
87.599214
20
86.700093
70
0
0
SEQEND
8
Layer 1
0
POLYLINE
8
Layer 1
62
7
70
0
10
0.000000
20
0.000000
66
1
0
VERTEX
8
Layer 1
10
92.493633
20
81.114159
70
0
0
VERTEX
8
Layer 1
10
92.878605
20
81.451719
70
0
0
VERTEX
8
Layer 1
10
93.105122
20
81.910892
70
0
0
VERTEX
8
Layer 1
10
93.138628
20
82.421901
70
0
0
VERTEX
8
Layer 1
10
92.974021
20
82.906831
70
0
0
VERTEX
8
Layer 1
10
92.636363
20
83.291850
70
0
0
VERTEX
8
Layer 1
10
92.177064
20
83.518338
70
0
0
VERTEX
8
Layer 1
10
87.642850
20
84.733277
70
0
0
VERTEX
8
Layer 1
10
86.427909
20
80.199063
70
0
0
VERTEX
8
Layer 1
10
86.394404
20
79.688055
70
0
0
VERTEX
8
Layer 1
10
86.559011
20
79.203125
70
0
0
VERTEX
8
Layer 1
10
86.896669
20
78.818106
70
0
0
VERTEX
8
Layer 1
10
87.355968
20
78.591618
70
0
0
VERTEX
8
Layer 1
10
87.866976
20
78.558112
70
0
0
VERTEX
8
Layer 1
10
88.351906
20
78.722719
70
0
0
VERTEX
8
Layer 1
10
88.736925
20
79.060377
70
0
0
VERTEX
8
Layer 1
10
88.963413
20
79.519676
70
0
0
VERTEX
8
Layer 1
10
89.498839
20
81.518608
70
0
0
VERTEX
8
Layer 1
10
91.497677
20
80.982833
70
0
0
VERTEX
8
Layer 1
10
92.008717
20
80.949433
70
0
0
VERTEX
8
Layer 1
10
92.493633
20
81.114159
70
0
0
VERTEX
8
Layer 1
10
92.493633
20
81.114159
70
0
0
SEQEND
8
Layer 1
0
POLYLINE
8
Layer 1
62
7
70
0
10
0.000000
20
0.000000
66
1
0
VERTEX
8
Layer 1
10
102.029253
20
75.806461
70
0
0
VERTEX
8
Layer 1
10
102.414190
20
76.144138
70
0
0
VERTEX
8
Layer 1
10
102.640613
20
76.603414
70
0
0
VERTEX
8
Layer 1
10
102.674118
20
77.114423
70
0
0
VERTEX
8
Layer 1
10
102.509511
20
77.599353
70
0
0
VERTEX
8
Layer 1
10
102.171853
20
77.984372
70
0
0
VERTEX
8
Layer 1
10
101.712554
20
78.210860
70
0
0
VERTEX
8
Layer 1
10
89.522806
20
81.477096
70
0
0
VERTEX
8
Layer 1
10
86.256570
20
69.287347
70
0
0
VERTEX
8
Layer 1
10
86.223064
20
68.776339
70
0
0
VERTEX
8
Layer 1
10
86.387671
20
68.291409
70
0
0
VERTEX
8
Layer 1
10
86.725329
20
67.906390
70
0
0
VERTEX
8
Layer 1
10
87.184628
20
67.679902
70
0
0
VERTEX
8
Layer 1
10
87.695637
20
67.646396
70
0
0
VERTEX
8
Layer 1
10
88.180567
20
67.811004
70
0
0
VERTEX
8
Layer 1
10
88.565586
20
68.148661
70
0
0
VERTEX
8
Layer 1
10
88.792074
20
68.607961
70
0
0
VERTEX
8
Layer 1
10
91.378923
20
78.262205
70
0
0
VERTEX
8
Layer 1
10
101.033167
20
75.675356
70
0
0
VERTEX
8
Layer 1
10
101.544252
20
75.641822
70
0
0
VERTEX
8
Layer 1
10
102.029253
20
75.806461
70
0
0
VERTEX
8
Layer 1
10
102.029253
20
75.806461
70
0
0
SEQEND
8
Layer 1
0
POLYLINE
8
Layer 1
62
7
70
0
10
0.000000
20
0.000000
66
1
0
VERTEX
8
Layer 1
10
69.821966
20
69.456670
70
0
0
VERTEX
8
Layer 1
10
70.281200
20
69.683218
70
0
0
VERTEX
8
Layer 1
10
70.618784
20
70.068260
70
0
0
VERTEX
8
Layer 1
10
83.743114
20
92.800254
70
0
0
VERTEX
8
Layer 1
10
83.909216
20
93.294235
70
0
0
VERTEX
8
Layer 1
10
83.874216
20
93.796144
70
0
0
VERTEX
8
Layer 1
10
83.653568
20
94.248308
70
0
0
VERTEX
8
Layer 1
10
83.262726
20
94.593054
70
0
0
VERTEX
8
Layer 1
10
82.768745
20
94.759156
70
0
0
VERTEX
8
Layer 1
10
82.266836
20
94.724156
70
0
0
VERTEX
8
Layer 1
10
81.814672
20
94.503508
70
0
0
VERTEX
8
Layer 1
10
81.469926
20
94.112666
70
0
0
VERTEX
8
Layer 1
10
68.345597
20
71.380671
70
0
0
VERTEX
8
Layer 1
10
68.179495
20
70.886690
70
0
0
VERTEX
8
Layer 1
10
68.214495
20
70.384781
70
0
0
VERTEX
8
Layer 1
10
68.435143
20
69.932618
70
0
0
VERTEX
8
Layer 1
10
68.825986
20
69.587873
70
0
0
VERTEX
8
Layer 1
10
69.310926
20
69.423205
70
0
0
VERTEX
8
Layer 1
10
69.821966
20
69.456670
70
0
0
VERTEX
8
Layer 1
10
69.821966
20
69.456670
70
0
0
SEQEND
8
Layer 1
0
POLYLINE
8
Layer 1
62
7
70
0
10
0.000000
20
0.000000
66
1
0
VERTEX
8
Layer 1
10
80.247765
20
85.623414
70
0
0
VERTEX
8
Layer 1
10
80.714436
20
85.855263
70
0
0
VERTEX
8
Layer 1
10
81.044542
20
86.234874
70
0
0
VERTEX
8
Layer 1
10
81.208241
20
86.710561
70
0
0
VERTEX
8
Layer 1
10
81.175690
20
87.230634
70
0
0
VERTEX
8
Layer 1
10
80.489864
20
89.790424
70
0
0
VERTEX
8
Layer 1
10
77.930424
20
89.104503
70
0
0
VERTEX
8
Layer 1
10
77.471126
20
88.878045
70
0
0
VERTEX
8
Layer 1
10
77.133454
20
88.493057
70
0
0
VERTEX
8
Layer 1
10
76.968816
20
88.008152
70
0
0
VERTEX
8
Layer 1
10
77.002278
20
87.497155
70
0
0
VERTEX
8
Layer 1
10
77.228736
20
87.037857
70
0
0
VERTEX
8
Layer 1
10
77.613723
20
86.700184
70
0
0
VERTEX
8
Layer 1
10
78.098628
20
86.535546
70
0
0
VERTEX
8
Layer 1
10
78.609625
20
86.569008
70
0
0
VERTEX
8
Layer 1
10
78.633694
20
86.575508
70
0
0
VERTEX
8
Layer 1
10
78.640196
20
86.551438
70
0
0
VERTEX
8
Layer 1
10
78.866705
20
86.092116
70
0
0
VERTEX
8
Layer 1
10
79.251761
20
85.754453
70
0
0
VERTEX
8
Layer 1
10
79.736730
20
85.589867
70
0
0
VERTEX
8
Layer 1
10
80.247766
20
85.623420
70
0
0
VERTEX
8
Layer 1
10
80.247765
20
85.623414
70
0
0
SEQEND
8
Layer 1
0
POLYLINE
8
Layer 1
62
7
70
0
10
0.000000
20
0.000000
66
1
0
VERTEX
8
Layer 1
10
77.857114
20
78.591548
70
0
0
VERTEX
8
Layer 1
10
78.316436
20
78.818057
70
0
0
VERTEX
8
Layer 1
10
78.654099
20
79.203112
70
0
0
VERTEX
8
Layer 1
10
78.818685
20
79.688081
70
0
0
VERTEX
8
Layer 1
10
78.785133
20
80.199117
70
0
0
VERTEX
8
Layer 1
10
77.570227
20
84.733450
70
0
0
VERTEX
8
Layer 1
10
73.036023
20
83.518322
70
0
0
VERTEX
8
Layer 1
10
72.576724
20
83.291864
70
0
0
VERTEX
8
Layer 1
10
72.239051
20
82.906876
70
0
0
VERTEX
8
Layer 1
10
72.074413
20
82.421971
70
0
0
VERTEX
8
Layer 1
10
72.107875
20
81.910973
70
0
0
VERTEX
8
Layer 1
10
72.334383
20
81.451650
70
0
0
VERTEX
8
Layer 1
10
72.719439
20
81.113987
70
0
0
VERTEX
8
Layer 1
10
73.204409
20
80.949401
70
0
0
VERTEX
8
Layer 1
10
73.715445
20
80.982954
70
0
0
VERTEX
8
Layer 1
10
75.714059
20
81.518531
70
0
0
VERTEX
8
Layer 1
10
76.249764
20
79.519696
70
0
0
VERTEX
8
Layer 1
10
76.476223
20
79.060397
70
0
0
VERTEX
8
Layer 1
10
76.861211
20
78.722724
70
0
0
VERTEX
8
Layer 1
10
77.346116
20
78.558086
70
0
0
VERTEX
8
Layer 1
10
77.857114
20
78.591548
70
0
0
VERTEX
8
Layer 1
10
77.857114
20
78.591548
70
0
0
SEQEND
8
Layer 1
0
POLYLINE
8
Layer 1
62
7
70
0
10
0.000000
20
0.000000
66
1
0
VERTEX
8
Layer 1
10
78.028456
20
67.679958
70
0
0
VERTEX
8
Layer 1
10
78.495128
20
67.911806
70
0
0
VERTEX
8
Layer 1
10
78.825234
20
68.291418
70
0
0
VERTEX
8
Layer 1
10
78.988933
20
68.767105
70
0
0
VERTEX
8
Layer 1
10
78.956383
20
69.287178
70
0
0
VERTEX
8
Layer 1
10
75.690145
20
81.476902
70
0
0
VERTEX
8
Layer 1
10
63.500421
20
78.210663
70
0
0
VERTEX
8
Layer 1
10
63.033750
20
77.978815
70
0
0
VERTEX
8
Layer 1
10
62.703644
20
77.599204
70
0
0
VERTEX
8
Layer 1
10
62.539946
20
77.123517
70
0
0
VERTEX
8
Layer 1
10
62.572496
20
76.603444
70
0
0
VERTEX
8
Layer 1
10
62.798954
20
76.144145
70
0
0
VERTEX
8
Layer 1
10
63.183941
20
75.806472
70
0
0
VERTEX
8
Layer 1
10
63.668846
20
75.641834
70
0
0
VERTEX
8
Layer 1
10
64.179844
20
75.675296
70
0
0
VERTEX
8
Layer 1
10
73.834199
20
78.262111
70
0
0
VERTEX
8
Layer 1
10
76.420886
20
68.607979
70
0
0
VERTEX
8
Layer 1
10
76.647395
20
68.148655
70
0
0
VERTEX
8
Layer 1
10
77.032450
20
67.810993
70
0
0
VERTEX
8
Layer 1
10
77.517420
20
67.646406
70
0
0
VERTEX
8
Layer 1
10
78.028456
20
67.679958
70
0
0
VERTEX
8
Layer 1
10
78.028456
20
67.679958
70
0
0
SEQEND
8
Layer 1
0
POLYLINE
8
Layer 1
62
7
70
0
10
0.000000
20
0.000000
66
1
0
VERTEX
8
Layer 1
10
83.534575
20
92.528308
70
0
0
VERTEX
8
Layer 1
10
83.819077
20
92.954149
70
0
0
VERTEX
8
Layer 1
10
83.918942
20
93.456454
70
0
0
VERTEX
8
Layer 1
10
83.815805
20
93.967306
70
0
0
VERTEX
8
Layer 1
10
83.534544
20
94.384475
70
0
0
VERTEX
8
Layer 1
10
83.117378
20
94.665740
70
0
0
VERTEX
8
Layer 1
10
82.606526
20
94.768882
70
0
0
VERTEX
8
Layer 1
10
56.357877
20
94.768887
70
0
0
VERTEX
8
Layer 1
10
55.847025
20
94.665750
70
0
0
VERTEX
8
Layer 1
10
55.429857
20
94.384489
70
0
0
VERTEX
8
Layer 1
10
55.148592
20
93.967324
70
0
0
VERTEX
8
Layer 1
10
55.045450
20
93.456473
70
0
0
VERTEX
8
Layer 1
10
55.148587
20
92.945620
70
0
0
VERTEX
8
Layer 1
10
55.429847
20
92.528451
70
0
0
VERTEX
8
Layer 1
10
55.847013
20
92.247186
70
0
0
VERTEX
8
Layer 1
10
56.357864
20
92.144044
70
0
0
VERTEX
8
Layer 1
10
82.606514
20
92.144038
70
0
0
VERTEX
8
Layer 1
10
83.108761
20
92.243874
70
0
0
VERTEX
8
Layer 1
10
83.534575
20
92.528308
70
0
0
VERTEX
8
Layer 1
10
83.534575
20
92.528308
70
0
0
SEQEND
8
Layer 1
0
POLYLINE
8
Layer 1
62
7
70
0
10
0.000000
20
0.000000
66
1
0
VERTEX
8
Layer 1
10
76.499566
20
91.582823
70
0
0
VERTEX
8
Layer 1
10
78.373312
20
93.456402
70
0
0
VERTEX
8
Layer 1
10
76.499382
20
95.330241
70
0
0
VERTEX
8
Layer 1
10
76.065261
20
95.618467
70
0
0
VERTEX
8
Layer 1
10
75.571455
20
95.714543
70
0
0
VERTEX
8
Layer 1
10
75.077649
20
95.618469
70
0
0
VERTEX
8
Layer 1
10
74.643527
20
95.330244
70
0
0
VERTEX
8
Layer 1
10
74.358951
20
94.904450
70
0
0
VERTEX
8
Layer 1
10
74.259002
20
94.402161
70
0
0
VERTEX
8
Layer 1
10
74.358898
20
93.899861
70
0
0
VERTEX
8
Layer 1
10
74.643429
20
93.474037
70
0
0
VERTEX
8
Layer 1
10
74.661023
20
93.456373
70
0
0
VERTEX
8
Layer 1
10
74.643359
20
93.438779
70
0
0
VERTEX
8
Layer 1
10
74.358881
20
93.012973
70
0
0
VERTEX
8
Layer 1
10
74.259009
20
92.510714
70
0
0
VERTEX
8
Layer 1
10
74.358949
20
92.008469
70
0
0
VERTEX
8
Layer 1
10
74.643483
20
91.582701
70
0
0
VERTEX
8
Layer 1
10
75.069289
20
91.298223
70
0
0
VERTEX
8
Layer 1
10
75.571548
20
91.198351
70
0
0
VERTEX
8
Layer 1
10
76.073793
20
91.298290
70
0
0
VERTEX
8
Layer 1
10
76.499561
20
91.582825
70
0
0
VERTEX
8
Layer 1
10
76.499566
20
91.582823
70
0
0
SEQEND
8
Layer 1
0
POLYLINE
8
Layer 1
62
7
70
0
10
0.000000
20
0.000000
66
1
0
VERTEX
8
Layer 1
10
69.214590
20
90.137241
70
0
0
VERTEX
8
Layer 1
10
72.534025
20
93.456412
70
0
0
VERTEX
8
Layer 1
10
69.214633
20
96.775718
70
0
0
VERTEX
8
Layer 1
10
68.788839
20
97.060293
70
0
0
VERTEX
8
Layer 1
10
68.286550
20
97.160242
70
0
0
VERTEX
8
Layer 1
10
67.784251
20
97.060346
70
0
0
VERTEX
8
Layer 1
10
67.358427
20
96.775816
70
0
0
VERTEX
8
Layer 1
10
67.073949
20
96.350010
70
0
0
VERTEX
8
Layer 1
10
66.974077
20
95.847751
70
0
0
VERTEX
8
Layer 1
10
67.074016
20
95.345505
70
0
0
VERTEX
8
Layer 1
10
67.358551
20
94.919737
70
0
0
VERTEX
8
Layer 1
10
68.821741
20
93.456383
70
0
0
VERTEX
8
Layer 1
10
67.358609
20
91.993323
70
0
0
VERTEX
8
Layer 1
10
67.074033
20
91.567529
70
0
0
VERTEX
8
Layer 1
10
66.974084
20
91.065240
70
0
0
VERTEX
8
Layer 1
10
67.073980
20
90.562940
70
0
0
VERTEX
8
Layer 1
10
67.358511
20
90.137116
70
0
0
VERTEX
8
Layer 1
10
67.784317
20
89.852638
70
0
0
VERTEX
8
Layer 1
10
68.286576
20
89.752767
70
0
0
VERTEX
8
Layer 1
10
68.788822
20
89.852706
70
0
0
VERTEX
8
Layer 1
10
69.214590
20
90.137241
70
0
0
VERTEX
8
Layer 1
10
69.214590
20
90.137241
70
0
0
SEQEND
8
Layer 1
0
POLYLINE
8
Layer 1
62
7
70
0
10
0.000000
20
0.000000
66
1
0
VERTEX
8
Layer 1
10
59.850220
20
84.533001
70
0
0
VERTEX
8
Layer 1
10
68.773730
20
93.456488
70
0
0
VERTEX
8
Layer 1
10
59.850244
20
102.379998
70
0
0
VERTEX
8
Layer 1
10
59.416122
20
102.668225
70
0
0
VERTEX
8
Layer 1
10
58.922316
20
102.764301
70
0
0
VERTEX
8
Layer 1
10
58.428509
20
102.668227
70
0
0
VERTEX
8
Layer 1
10
57.994386
20
102.380002
70
0
0
VERTEX
8
Layer 1
10
57.709811
20
101.954207
70
0
0
VERTEX
8
Layer 1
10
57.609862
20
101.451918
70
0
0
VERTEX
8
Layer 1
10
57.709759
20
100.949619
70
0
0
VERTEX
8
Layer 1
10
57.994290
20
100.523795
70
0
0
VERTEX
8
Layer 1
10
65.061668
20
93.456589
70
0
0
VERTEX
8
Layer 1
10
57.994239
20
86.389083
70
0
0
VERTEX
8
Layer 1
10
57.709761
20
85.963277
70
0
0
VERTEX
8
Layer 1
10
57.609890
20
85.461018
70
0
0
VERTEX
8
Layer 1
10
57.709829
20
84.958772
70
0
0
VERTEX
8
Layer 1
10
57.994364
20
84.533004
70
0
0
VERTEX
8
Layer 1
10
58.428486
20
84.244778
70
0
0
VERTEX
8
Layer 1
10
58.922291
20
84.148702
70
0
0
VERTEX
8
Layer 1
10
59.416098
20
84.244776
70
0
0
VERTEX
8
Layer 1
10
59.850220
20
84.533001
70
0
0
VERTEX
8
Layer 1
10
59.850220
20
84.533001
70
0
0
SEQEND
8
Layer 1
0
POLYLINE
8
Layer 1
62
7
70
0
10
0.000000
20
0.000000
66
1
0
VERTEX
8
Layer 1
10
63.536449
20
21.045492
70
0
0
VERTEX
8
Layer 1
10
63.928263
20
21.152313
70
0
0
VERTEX
8
Layer 1
10
64.249373
20
21.400943
70
0
0
VERTEX
8
Layer 1
10
64.450893
20
21.753530
70
0
0
VERTEX
8
Layer 1
10
64.502144
20
22.156397
70
0
0
VERTEX
8
Layer 1
10
63.050040
20
42.922397
70
0
0
VERTEX
8
Layer 1
10
62.943219
20
43.314211
70
0
0
VERTEX
8
Layer 1
10
62.694589
20
43.635321
70
0
0
VERTEX
8
Layer 1
10
62.342002
20
43.836841
70
0
0
VERTEX
8
Layer 1
10
61.939135
20
43.888092
70
0
0
VERTEX
8
Layer 1
10
61.540687
20
43.778236
70
0
0
VERTEX
8
Layer 1
10
61.226211
20
43.532641
70
0
0
VERTEX
8
Layer 1
10
61.026774
20
43.187046
70
0
0
VERTEX
8
Layer 1
10
60.973440
20
42.777187
70
0
0
VERTEX
8
Layer 1
10
62.425544
20
22.011187
70
0
0
VERTEX
8
Layer 1
10
62.535400
20
21.612739
70
0
0
VERTEX
8
Layer 1
10
62.780995
20
21.298263
70
0
0
VERTEX
8
Layer 1
10
63.126590
20
21.098826
70
0
0
VERTEX
8
Layer 1
10
63.536449
20
21.045492
70
0
0
VERTEX
8
Layer 1
10
63.536449
20
21.045492
70
0
0
SEQEND
8
Layer 1
0
POLYLINE
8
Layer 1
62
7
70
0
10
0.000000
20
0.000000
66
1
0
VERTEX
8
Layer 1
10
63.266080
20
24.911943
70
0
0
VERTEX
8
Layer 1
10
65.613737
20
27.612614
70
0
0
VERTEX
8
Layer 1
10
65.815274
20
27.965211
70
0
0
VERTEX
8
Layer 1
10
65.866530
20
28.368093
70
0
0
VERTEX
8
Layer 1
10
65.759702
20
28.759922
70
0
0
VERTEX
8
Layer 1
10
65.511055
20
29.081038
70
0
0
VERTEX
8
Layer 1
10
65.151663
20
29.285047
70
0
0
VERTEX
8
Layer 1
10
64.755684
20
29.333737
70
0
0
VERTEX
8
Layer 1
10
64.370334
20
29.230411
70
0
0
VERTEX
8
Layer 1
10
64.042833
20
28.978370
70
0
0
VERTEX
8
Layer 1
10
63.060729
20
27.848587
70
0
0
VERTEX
8
Layer 1
10
61.930947
20
28.830692
70
0
0
VERTEX
8
Layer 1
10
61.571556
20
29.034701
70
0
0
VERTEX
8
Layer 1
10
61.175576
20
29.083391
70
0
0
VERTEX
8
Layer 1
10
60.790227
20
28.980065
70
0
0
VERTEX
8
Layer 1
10
60.462726
20
28.728024
70
0
0
VERTEX
8
Layer 1
10
60.261189
20
28.375427
70
0
0
VERTEX
8
Layer 1
10
60.209933
20
27.972545
70
0
0
VERTEX
8
Layer 1
10
60.316761
20
27.580717
70
0
0
VERTEX
8
Layer 1
10
60.565408
20
27.259600
70
0
0
VERTEX
8
Layer 1
10
63.266080
20
24.911943
70
0
0
SEQEND
8
Layer 1
0
POLYLINE
8
Layer 1
62
7
70
0
10
0.000000
20
0.000000
66
1
0
VERTEX
8
Layer 1
10
63.013990
20
28.516993
70
0
0
VERTEX
8
Layer 1
10
68.312674
20
34.612434
70
0
0
VERTEX
8
Layer 1
10
68.514210
20
34.965031
70
0
0
VERTEX
8
Layer 1
10
68.565467
20
35.367913
70
0
0
VERTEX
8
Layer 1
10
68.458639
20
35.759742
70
0
0
VERTEX
8
Layer 1
10
68.209991
20
36.080858
70
0
0
VERTEX
8
Layer 1
10
67.857395
20
36.282395
70
0
0
VERTEX
8
Layer 1
10
67.454512
20
36.333651
70
0
0
VERTEX
8
Layer 1
10
67.062684
20
36.226823
70
0
0
VERTEX
8
Layer 1
10
66.741567
20
35.978176
70
0
0
VERTEX
8
Layer 1
10
62.808639
20
31.453639
70
0
0
VERTEX
8
Layer 1
10
58.284290
20
35.386784
70
0
0
VERTEX
8
Layer 1
10
57.931693
20
35.588320
70
0
0
VERTEX
8
Layer 1
10
57.528811
20
35.639577
70
0
0
VERTEX
8
Layer 1
10
57.136983
20
35.532749
70
0
0
VERTEX
8
Layer 1
10
56.815866
20
35.284101
70
0
0
VERTEX
8
Layer 1
10
56.614329
20
34.931505
70
0
0
VERTEX
8
Layer 1
10
56.563073
20
34.528622
70
0
0
VERTEX
8
Layer 1
10
56.669901
20
34.136794
70
0
0
VERTEX
8
Layer 1
10
56.918548
20
33.815677
70
0
0
VERTEX
8
Layer 1
10
63.013990
20
28.516993
70
0
0
SEQEND
8
Layer 1
0
POLYLINE
8
Layer 1
62
7
70
0
10
0.000000
20
0.000000
66
1
0
VERTEX
8
Layer 1
10
62.702567
20
32.970529
70
0
0
VERTEX
8
Layer 1
10
69.373971
20
40.645106
70
0
0
VERTEX
8
Layer 1
10
69.575507
20
40.997702
70
0
0
VERTEX
8
Layer 1
10
69.626763
20
41.400584
70
0
0
VERTEX
8
Layer 1
10
69.519936
20
41.792412
70
0
0
VERTEX
8
Layer 1
10
69.271289
20
42.113529
70
0
0
VERTEX
8
Layer 1
10
68.918692
20
42.315065
70
0
0
VERTEX
8
Layer 1
10
68.515810
20
42.366321
70
0
0
VERTEX
8
Layer 1
10
68.123982
20
42.259493
70
0
0
VERTEX
8
Layer 1
10
67.802866
20
42.010846
70
0
0
VERTEX
8
Layer 1
10
62.497216
20
35.907175
70
0
0
VERTEX
8
Layer 1
10
56.393732
20
41.213040
70
0
0
VERTEX
8
Layer 1
10
56.041136
20
41.414576
70
0
0
VERTEX
8
Layer 1
10
55.638254
20
41.465832
70
0
0
VERTEX
8
Layer 1
10
55.246426
20
41.359005
70
0
0
VERTEX
8
Layer 1
10
54.925309
20
41.110358
70
0
0
VERTEX
8
Layer 1
10
54.723773
20
40.757761
70
0
0
VERTEX
8
Layer 1
10
54.672517
20
40.354879
70
0
0
VERTEX
8
Layer 1
10
54.779345
20
39.963051
70
0
0
VERTEX
8
Layer 1
10
55.027992
20
39.641935
70
0
0
VERTEX
8
Layer 1
10
62.702567
20
32.970529
70
0
0
SEQEND
8
Layer 1
0
POLYLINE
8
Layer 1
62
7
70
0
10
0.000000
20
0.000000
66
1
0
VERTEX
8
Layer 1
10
63.265281
20
21.061988
70
0
0
VERTEX
8
Layer 1
10
63.671382
20
21.063817
70
0
0
VERTEX
8
Layer 1
10
64.045871
20
21.220910
70
0
0
VERTEX
8
Layer 1
10
81.303703
20
32.861469
70
0
0
VERTEX
8
Layer 1
10
81.593834
20
33.155831
70
0
0
VERTEX
8
Layer 1
10
81.743376
20
33.525758
70
0
0
VERTEX
8
Layer 1
10
81.743295
20
33.924767
70
0
0
VERTEX
8
Layer 1
10
81.584556
20
34.306378
70
0
0
VERTEX
8
Layer 1
10
81.290195
20
34.596509
70
0
0
VERTEX
8
Layer 1
10
80.920268
20
34.746052
70
0
0
VERTEX
8
Layer 1
10
80.521259
20
34.745971
70
0
0
VERTEX
8
Layer 1
10
80.139648
20
34.587233
70
0
0
VERTEX
8
Layer 1
10
62.881817
20
22.946674
70
0
0
VERTEX
8
Layer 1
10
62.591685
20
22.652312
70
0
0
VERTEX
8
Layer 1
10
62.442142
20
22.282385
70
0
0
VERTEX
8
Layer 1
10
62.442223
20
21.883376
70
0
0
VERTEX
8
Layer 1
10
62.600962
20
21.501765
70
0
0
VERTEX
8
Layer 1
10
62.889379
20
21.215799
70
0
0
VERTEX
8
Layer 1
10
63.265281
20
21.061988
70
0
0
VERTEX
8
Layer 1
10
63.265281
20
21.061988
70
0
0
SEQEND
8
Layer 1
0
POLYLINE
8
Layer 1
62
7
70
0
10
0.000000
20
0.000000
66
1
0
VERTEX
8
Layer 1
10
69.326992
20
22.986331
70
0
0
VERTEX
8
Layer 1
10
69.740236
20
22.989352
70
0
0
VERTEX
8
Layer 1
10
70.107508
20
23.145176
70
0
0
VERTEX
8
Layer 1
10
70.389566
20
23.427333
70
0
0
VERTEX
8
Layer 1
10
70.547169
20
23.809356
70
0
0
VERTEX
8
Layer 1
10
70.545427
20
24.215471
70
0
0
VERTEX
8
Layer 1
10
70.388403
20
24.590004
70
0
0
VERTEX
8
Layer 1
10
70.100002
20
24.875937
70
0
0
VERTEX
8
Layer 1
10
69.724132
20
25.029735
70
0
0
VERTEX
8
Layer 1
10
68.254839
20
25.315406
70
0
0
VERTEX
8
Layer 1
10
68.540307
20
26.784683
70
0
0
VERTEX
8
Layer 1
10
68.538566
20
27.190799
70
0
0
VERTEX
8
Layer 1
10
68.381541
20
27.565333
70
0
0
VERTEX
8
Layer 1
10
68.093140
20
27.851265
70
0
0
VERTEX
8
Layer 1
10
67.717270
20
28.005064
70
0
0
VERTEX
8
Layer 1
10
67.311119
20
28.003295
70
0
0
VERTEX
8
Layer 1
10
66.936569
20
27.846218
70
0
0
VERTEX
8
Layer 1
10
66.650651
20
27.557753
70
0
0
VERTEX
8
Layer 1
10
66.496903
20
27.181823
70
0
0
VERTEX
8
Layer 1
10
65.814093
20
23.669128
70
0
0
VERTEX
8
Layer 1
10
69.326992
20
22.986331
70
0
0
SEQEND
8
Layer 1
0
POLYLINE
8
Layer 1
62
7
70
0
10
0.000000
20
0.000000
66
1
0
VERTEX
8
Layer 1
10
76.738444
20
24.148959
70
0
0
VERTEX
8
Layer 1
10
77.151689
20
24.151980
70
0
0
VERTEX
8
Layer 1
10
77.518960
20
24.307803
70
0
0
VERTEX
8
Layer 1
10
77.801018
20
24.589960
70
0
0
VERTEX
8
Layer 1
10
77.958622
20
24.971983
70
0
0
VERTEX
8
Layer 1
10
77.956880
20
25.378098
70
0
0
VERTEX
8
Layer 1
10
77.799855
20
25.752632
70
0
0
VERTEX
8
Layer 1
10
77.511454
20
26.038564
70
0
0
VERTEX
8
Layer 1
10
77.135584
20
26.192363
70
0
0
VERTEX
8
Layer 1
10
71.250799
20
27.336141
70
0
0
VERTEX
8
Layer 1
10
72.394781
20
33.220941
70
0
0
VERTEX
8
Layer 1
10
72.393012
20
33.627091
70
0
0
VERTEX
8
Layer 1
10
72.235935
20
34.001642
70
0
0
VERTEX
8
Layer 1
10
71.947469
20
34.287560
70
0
0
VERTEX
8
Layer 1
10
71.571540
20
34.441308
70
0
0
VERTEX
8
Layer 1
10
71.158259
20
34.438258
70
0
0
VERTEX
8
Layer 1
10
70.790972
20
34.282384
70
0
0
VERTEX
8
Layer 1
10
70.508929
20
34.000165
70
0
0
VERTEX
8
Layer 1
10
70.351377
20
33.618081
70
0
0
VERTEX
8
Layer 1
10
68.810255
20
25.689878
70
0
0
VERTEX
8
Layer 1
10
76.738444
20
24.148959
70
0
0
SEQEND
8
Layer 1
0
POLYLINE
8
Layer 1
62
7
70
0
10
0.000000
20
0.000000
66
1
0
VERTEX
8
Layer 1
10
82.493604
20
26.246073
70
0
0
VERTEX
8
Layer 1
10
82.906849
20
26.249093
70
0
0
VERTEX
8
Layer 1
10
83.274121
20
26.404916
70
0
0
VERTEX
8
Layer 1
10
83.556179
20
26.687073
70
0
0
VERTEX
8
Layer 1
10
83.713783
20
27.069096
70
0
0
VERTEX
8
Layer 1
10
83.712041
20
27.475211
70
0
0
VERTEX
8
Layer 1
10
83.555016
20
27.849746
70
0
0
VERTEX
8
Layer 1
10
83.266615
20
28.135678
70
0
0
VERTEX
8
Layer 1
10
82.890744
20
28.289477
70
0
0
VERTEX
8
Layer 1
10
74.952001
20
29.832714
70
0
0
VERTEX
8
Layer 1
10
76.495035
20
37.771444
70
0
0
VERTEX
8
Layer 1
10
76.492014
20
38.184688
70
0
0
VERTEX
8
Layer 1
10
76.336191
20
38.551960
70
0
0
VERTEX
8
Layer 1
10
76.054034
20
38.834019
70
0
0
VERTEX
8
Layer 1
10
75.672011
20
38.991622
70
0
0
VERTEX
8
Layer 1
10
75.265896
20
38.989880
70
0
0
VERTEX
8
Layer 1
10
74.891362
20
38.832856
70
0
0
VERTEX
8
Layer 1
10
74.605429
20
38.544454
70
0
0
VERTEX
8
Layer 1
10
74.451630
20
38.168584
70
0
0
VERTEX
8
Layer 1
10
72.511457
20
28.186450
70
0
0
VERTEX
8
Layer 1
10
82.493604
20
26.246073
70
0
0
SEQEND
8
Layer 1
0
POLYLINE
8
Layer 1
62
7
70
0
10
0.000000
20
0.000000
66
1
0
VERTEX
8
Layer 1
10
82.512618
20
11.974126
70
0
0
VERTEX
8
Layer 1
10
82.863455
20
12.178756
70
0
0
VERTEX
8
Layer 1
10
83.109265
20
12.502078
70
0
0
VERTEX
8
Layer 1
10
83.213350
20
12.902068
70
0
0
VERTEX
8
Layer 1
10
83.157898
20
13.297205
70
0
0
VERTEX
8
Layer 1
10
82.958327
20
13.642719
70
0
0
VERTEX
8
Layer 1
10
82.630052
20
13.893838
70
0
0
VERTEX
8
Layer 1
10
63.920117
20
23.019279
70
0
0
VERTEX
8
Layer 1
10
63.520127
20
23.123363
70
0
0
VERTEX
8
Layer 1
10
63.124989
20
23.067911
70
0
0
VERTEX
8
Layer 1
10
62.779476
20
22.868340
70
0
0
VERTEX
8
Layer 1
10
62.528357
20
22.540065
70
0
0
VERTEX
8
Layer 1
10
62.424273
20
22.140075
70
0
0
VERTEX
8
Layer 1
10
62.479725
20
21.744937
70
0
0
VERTEX
8
Layer 1
10
62.679296
20
21.399424
70
0
0
VERTEX
8
Layer 1
10
63.007571
20
21.148305
70
0
0
VERTEX
8
Layer 1
10
81.717507
20
12.022864
70
0
0
VERTEX
8
Layer 1
10
82.110215
20
11.919418
70
0
0
VERTEX
8
Layer 1
10
82.512618
20
11.974126
70
0
0
VERTEX
8
Layer 1
10
82.512618
20
11.974126
70
0
0
SEQEND
8
Layer 1
0
POLYLINE
8
Layer 1
62
7
70
0
10
0.000000
20
0.000000
66
1
0
VERTEX
8
Layer 1
10
68.499960
20
16.812109
70
0
0
VERTEX
8
Layer 1
10
68.850767
20
17.016723
70
0
0
VERTEX
8
Layer 1
10
69.096567
20
17.340010
70
0
0
VERTEX
8
Layer 1
10
69.199938
20
17.732753
70
0
0
VERTEX
8
Layer 1
10
69.145143
20
18.135159
70
0
0
VERTEX
8
Layer 1
10
68.657968
20
19.550407
70
0
0
VERTEX
8
Layer 1
10
70.073204
20
20.037784
70
0
0
VERTEX
8
Layer 1
10
70.424011
20
20.242398
70
0
0
VERTEX
8
Layer 1
10
70.669811
20
20.565685
70
0
0
VERTEX
8
Layer 1
10
70.773182
20
20.958427
70
0
0
VERTEX
8
Layer 1
10
70.718387
20
21.360832
70
0
0
VERTEX
8
Layer 1
10
70.509150
20
21.717203
70
0
0
VERTEX
8
Layer 1
10
70.190568
20
21.957359
70
0
0
VERTEX
8
Layer 1
10
69.805185
20
22.060552
70
0
0
VERTEX
8
Layer 1
10
69.395541
20
22.006031
70
0
0
VERTEX
8
Layer 1
10
66.011857
20
20.840977
70
0
0
VERTEX
8
Layer 1
10
67.176896
20
17.457495
70
0
0
VERTEX
8
Layer 1
10
67.381467
20
17.106622
70
0
0
VERTEX
8
Layer 1
10
67.704749
20
16.860756
70
0
0
VERTEX
8
Layer 1
10
68.097516
20
16.757336
70
0
0
VERTEX
8
Layer 1
10
68.499960
20
16.812109
70
0
0
VERTEX
8
Layer 1
10
68.499960
20
16.812109
70
0
0
SEQEND
8
Layer 1
0
POLYLINE
8
Layer 1
62
7
70
0
10
0.000000
20
0.000000
66
1
0
VERTEX
8
Layer 1
10
73.212474
20
10.974916
70
0
0
VERTEX
8
Layer 1
10
73.563348
20
11.179486
70
0
0
VERTEX
8
Layer 1
10
73.809214
20
11.502768
70
0
0
VERTEX
8
Layer 1
10
73.912634
20
11.895535
70
0
0
VERTEX
8
Layer 1
10
73.857861
20
12.297979
70
0
0
VERTEX
8
Layer 1
10
71.906004
20
17.966296
70
0
0
VERTEX
8
Layer 1
10
77.574335
20
19.917949
70
0
0
VERTEX
8
Layer 1
10
77.925142
20
20.122562
70
0
0
VERTEX
8
Layer 1
10
78.170943
20
20.445850
70
0
0
VERTEX
8
Layer 1
10
78.274314
20
20.838592
70
0
0
VERTEX
8
Layer 1
10
78.219518
20
21.240997
70
0
0
VERTEX
8
Layer 1
10
78.010281
20
21.597368
70
0
0
VERTEX
8
Layer 1
10
77.691700
20
21.837524
70
0
0
VERTEX
8
Layer 1
10
77.306316
20
21.940717
70
0
0
VERTEX
8
Layer 1
10
76.896673
20
21.886196
70
0
0
VERTEX
8
Layer 1
10
69.260095
20
19.256879
70
0
0
VERTEX
8
Layer 1
10
71.889614
20
11.620316
70
0
0
VERTEX
8
Layer 1
10
72.098809
20
11.263878
70
0
0
VERTEX
8
Layer 1
10
72.417385
20
11.023659
70
0
0
VERTEX
8
Layer 1
10
72.802791
20
10.920418
70
0
0
VERTEX
8
Layer 1
10
73.212474
20
10.974916
70
0
0
VERTEX
8
Layer 1
10
73.212474
20
10.974916
70
0
0
SEQEND
8
Layer 1
0
POLYLINE
8
Layer 1
62
7
70
0
10
0.000000
20
0.000000
66
1
0
VERTEX
8
Layer 1
10
77.906323
20
7.039561
70
0
0
VERTEX
8
Layer 1
10
78.262694
20
7.248799
70
0
0
VERTEX
8
Layer 1
10
78.502850
20
7.567381
70
0
0
VERTEX
8
Layer 1
10
78.606042
20
7.952765
70
0
0
VERTEX
8
Layer 1
10
78.551520
20
8.362408
70
0
0
VERTEX
8
Layer 1
10
75.918642
20
16.009129
70
0
0
VERTEX
8
Layer 1
10
83.565349
20
18.642210
70
0
0
VERTEX
8
Layer 1
10
83.916157
20
18.846823
70
0
0
VERTEX
8
Layer 1
10
84.161957
20
19.170111
70
0
0
VERTEX
8
Layer 1
10
84.265329
20
19.562854
70
0
0
VERTEX
8
Layer 1
10
84.210533
20
19.965259
70
0
0
VERTEX
8
Layer 1
10
84.001296
20
20.321630
70
0
0
VERTEX
8
Layer 1
10
83.682713
20
20.561786
70
0
0
VERTEX
8
Layer 1
10
83.297329
20
20.664978
70
0
0
VERTEX
8
Layer 1
10
82.887686
20
20.610456
70
0
0
VERTEX
8
Layer 1
10
73.272733
20
17.299713
70
0
0
VERTEX
8
Layer 1
10
76.583274
20
7.684745
70
0
0
VERTEX
8
Layer 1
10
76.787887
20
7.333937
70
0
0
VERTEX
8
Layer 1
10
77.111175
20
7.088137
70
0
0
VERTEX
8
Layer 1
10
77.503918
20
6.984766
70
0
0
VERTEX
8
Layer 1
10
77.906323
20
7.039561
70
0
0
VERTEX
8
Layer 1
10
77.906323
20
7.039561
70
0
0
SEQEND
8
Layer 1
0
POLYLINE
8
Layer 1
62
7
70
1
10
0.000000
20
0.000000
66
1
0
VERTEX
8
Layer 1
10
64.988553
20
0.279492
70
0
0
VERTEX
8
Layer 1
10
65.387001
20
0.389348
70
0
0
VERTEX
8
Layer 1
10
65.701477
20
0.634943
70
0
0
VERTEX
8
Layer 1
10
65.900914
20
0.980538
70
0
0
VERTEX
8
Layer 1
10
65.954248
20
1.390397
70
0
0
VERTEX
8
Layer 1
10
64.502144
20
22.156397
70
0
0
VERTEX
8
Layer 1
10
64.395323
20
22.548211
70
0
0
VERTEX
8
Layer 1
10
64.146693
20
22.869321
70
0
0
VERTEX
8
Layer 1
10
63.794106
20
23.070841
70
0
0
VERTEX
8
Layer 1
10
63.391239
20
23.122092
70
0
0
VERTEX
8
Layer 1
10
62.992791
20
23.012236
70
0
0
VERTEX
8
Layer 1
10
62.678315
20
22.766641
70
0
0
VERTEX
8
Layer 1
10
62.478878
20
22.421046
70
0
0
VERTEX
8
Layer 1
10
62.425544
20
22.011187
70
0
0
VERTEX
8
Layer 1
10
63.877648
20
1.245187
70
0
0
VERTEX
8
Layer 1
10
63.984469
20
0.853373
70
0
0
VERTEX
8
Layer 1
10
64.233099
20
0.532263
70
0
0
VERTEX
8
Layer 1
10
64.585686
20
0.330743
70
0
0
VERTEX
8
Layer 1
10
64.988553
20
0.279492
70
0
0
VERTEX
8
Layer 1
10
64.988553
20
0.279492
70
0
0
SEQEND
8
Layer 1
0
POLYLINE
8
Layer 1
62
7
70
0
10
0.000000
20
0.000000
66
1
0
VERTEX
8
Layer 1
10
65.752122
20
15.084037
70
0
0
VERTEX
8
Layer 1
10
66.143899
20
15.190906
70
0
0
VERTEX
8
Layer 1
10
66.464962
20
15.439560
70
0
0
VERTEX
8
Layer 1
10
66.666499
20
15.792157
70
0
0
VERTEX
8
Layer 1
10
66.717755
20
16.195039
70
0
0
VERTEX
8
Layer 1
10
66.610927
20
16.586867
70
0
0
VERTEX
8
Layer 1
10
66.362280
20
16.907984
70
0
0
VERTEX
8
Layer 1
10
63.661608
20
19.255641
70
0
0
VERTEX
8
Layer 1
10
61.313951
20
16.554970
70
0
0
VERTEX
8
Layer 1
10
61.112414
20
16.202373
70
0
0
VERTEX
8
Layer 1
10
61.061158
20
15.799491
70
0
0
VERTEX
8
Layer 1
10
61.167986
20
15.407662
70
0
0
VERTEX
8
Layer 1
10
61.416633
20
15.086546
70
0
0
VERTEX
8
Layer 1
10
61.776025
20
14.882537
70
0
0
VERTEX
8
Layer 1
10
62.172004
20
14.833847
70
0
0
VERTEX
8
Layer 1
10
62.557354
20
14.937173
70
0
0
VERTEX
8
Layer 1
10
62.884855
20
15.189214
70
0
0
VERTEX
8
Layer 1
10
63.866959
20
16.318997
70
0
0
VERTEX
8
Layer 1
10
64.996741
20
15.336892
70
0
0
VERTEX
8
Layer 1
10
65.349285
20
15.135342
70
0
0
VERTEX
8
Layer 1
10
65.752122
20
15.084037
70
0
0
VERTEX
8
Layer 1
10
65.752122
20
15.084037
70
0
0
SEQEND
8
Layer 1
0
POLYLINE
8
Layer 1
62
7
70
0
10
0.000000
20
0.000000
66
1
0
VERTEX
8
Layer 1
10
69.398969
20
8.528161
70
0
0
VERTEX
8
Layer 1
10
69.790729
20
8.634936
70
0
0
VERTEX
8
Layer 1
10
70.111822
20
8.883483
70
0
0
VERTEX
8
Layer 1
10
70.313358
20
9.236079
70
0
0
VERTEX
8
Layer 1
10
70.364615
20
9.638961
70
0
0
VERTEX
8
Layer 1
10
70.257787
20
10.030789
70
0
0
VERTEX
8
Layer 1
10
70.009140
20
10.351906
70
0
0
VERTEX
8
Layer 1
10
63.913698
20
15.650591
70
0
0
VERTEX
8
Layer 1
10
58.615014
20
9.555149
70
0
0
VERTEX
8
Layer 1
10
58.413478
20
9.202552
70
0
0
VERTEX
8
Layer 1
10
58.362222
20
8.799670
70
0
0
VERTEX
8
Layer 1
10
58.469050
20
8.407842
70
0
0
VERTEX
8
Layer 1
10
58.717697
20
8.086726
70
0
0
VERTEX
8
Layer 1
10
59.070293
20
7.885189
70
0
0
VERTEX
8
Layer 1
10
59.473176
20
7.833933
70
0
0
VERTEX
8
Layer 1
10
59.865004
20
7.940761
70
0
0
VERTEX
8
Layer 1
10
60.186121
20
8.189408
70
0
0
VERTEX
8
Layer 1
10
64.119049
20
12.713945
70
0
0
VERTEX
8
Layer 1
10
68.643398
20
8.780800
70
0
0
VERTEX
8
Layer 1
10
68.996055
20
8.579328
70
0
0
VERTEX
8
Layer 1
10
69.398969
20
8.528161
70
0
0
VERTEX
8
Layer 1
10
69.398969
20
8.528161
70
0
0
SEQEND
8
Layer 1
0
POLYLINE
8
Layer 1
62
7
70
0
10
0.000000
20
0.000000
66
1
0
VERTEX
8
Layer 1
10
71.289525
20
2.701905
70
0
0
VERTEX
8
Layer 1
10
71.681285
20
2.808680
70
0
0
VERTEX
8
Layer 1
10
72.002379
20
3.057226
70
0
0
VERTEX
8
Layer 1
10
72.203915
20
3.409823
70
0
0
VERTEX
8
Layer 1
10
72.255171
20
3.812705
70
0
0
VERTEX
8
Layer 1
10
72.148343
20
4.204533
70
0
0
VERTEX
8
Layer 1
10
71.899696
20
4.525649
70
0
0
VERTEX
8
Layer 1
10
64.225121
20
11.197055
70
0
0
VERTEX
8
Layer 1
10
57.553717
20
3.522478
70
0
0
VERTEX
8
Layer 1
10
57.352181
20
3.169882
70
0
0
VERTEX
8
Layer 1
10
57.300925
20
2.767000
70
0
0
VERTEX
8
Layer 1
10
57.407752
20
2.375172
70
0
0
VERTEX
8
Layer 1
10
57.656399
20
2.054055
70
0
0
VERTEX
8
Layer 1
10
58.008996
20
1.852519
70
0
0
VERTEX
8
Layer 1
10
58.411878
20
1.801263
70
0
0
VERTEX
8
Layer 1
10
58.803706
20
1.908091
70
0
0
VERTEX
8
Layer 1
10
59.124822
20
2.156738
70
0
0
VERTEX
8
Layer 1
10
64.430472
20
8.260409
70
0
0
VERTEX
8
Layer 1
10
70.533956
20
2.954544
70
0
0
VERTEX
8
Layer 1
10
70.886612
20
2.753072
70
0
0
VERTEX
8
Layer 1
10
71.289525
20
2.701905
70
0
0
VERTEX
8
Layer 1
10
71.289525
20
2.701905
70
0
0
SEQEND
8
Layer 1
0
POLYLINE
8
Layer 1
62
7
70
0
10
0.000000
20
0.000000
66
1
0
VERTEX
8
Layer 1
10
46.007450
20
9.421429
70
0
0
VERTEX
8
Layer 1
10
46.413550
20
9.423258
70
0
0
VERTEX
8
Layer 1
10
46.788040
20
9.580351
70
0
0
VERTEX
8
Layer 1
10
64.045871
20
21.220910
70
0
0
VERTEX
8
Layer 1
10
64.336003
20
21.515272
70
0
0
VERTEX
8
Layer 1
10
64.485546
20
21.885199
70
0
0
VERTEX
8
Layer 1
10
64.485465
20
22.284208
70
0
0
VERTEX
8
Layer 1
10
64.326726
20
22.665819
70
0
0
VERTEX
8
Layer 1
10
64.032364
20
22.955951
70
0
0
VERTEX
8
Layer 1
10
63.662437
20
23.105494
70
0
0
VERTEX
8
Layer 1
10
63.263428
20
23.105413
70
0
0
VERTEX
8
Layer 1
10
62.881817
20
22.946674
70
0
0
VERTEX
8
Layer 1
10
45.623985
20
11.306115
70
0
0
VERTEX
8
Layer 1
10
45.333854
20
11.011753
70
0
0
VERTEX
8
Layer 1
10
45.184312
20
10.641826
70
0
0
VERTEX
8
Layer 1
10
45.184393
20
10.242817
70
0
0
VERTEX
8
Layer 1
10
45.343132
20
9.861206
70
0
0
VERTEX
8
Layer 1
10
45.631548
20
9.575240
70
0
0
VERTEX
8
Layer 1
10
46.007450
20
9.421429
70
0
0
VERTEX
8
Layer 1
10
46.007450
20
9.421429
70
0
0
SEQEND
8
Layer 1
0
POLYLINE
8
Layer 1
62
7
70
0
10
0.000000
20
0.000000
66
1
0
VERTEX
8
Layer 1
10
59.210419
20
16.162520
70
0
0
VERTEX
8
Layer 1
10
59.616569
20
16.164289
70
0
0
VERTEX
8
Layer 1
10
59.991120
20
16.321366
70
0
0
VERTEX
8
Layer 1
10
60.277037
20
16.609831
70
0
0
VERTEX
8
Layer 1
10
60.430785
20
16.985760
70
0
0
VERTEX
8
Layer 1
10
61.113595
20
20.498456
70
0
0
VERTEX
8
Layer 1
10
57.600696
20
21.181253
70
0
0
VERTEX
8
Layer 1
10
57.187452
20
21.178232
70
0
0
VERTEX
8
Layer 1
10
56.820180
20
21.022408
70
0
0
VERTEX
8
Layer 1
10
56.538122
20
20.740251
70
0
0
VERTEX
8
Layer 1
10
56.380519
20
20.358228
70
0
0
VERTEX
8
Layer 1
10
56.382261
20
19.952113
70
0
0
VERTEX
8
Layer 1
10
56.539285
20
19.577580
70
0
0
VERTEX
8
Layer 1
10
56.827686
20
19.291647
70
0
0
VERTEX
8
Layer 1
10
57.203556
20
19.137849
70
0
0
VERTEX
8
Layer 1
10
58.672849
20
18.852178
70
0
0
VERTEX
8
Layer 1
10
58.387381
20
17.382901
70
0
0
VERTEX
8
Layer 1
10
58.389122
20
16.976785
70
0
0
VERTEX
8
Layer 1
10
58.546147
20
16.602251
70
0
0
VERTEX
8
Layer 1
10
58.834549
20
16.316318
70
0
0
VERTEX
8
Layer 1
10
59.210419
20
16.162520
70
0
0
VERTEX
8
Layer 1
10
59.210419
20
16.162520
70
0
0
SEQEND
8
Layer 1
0
POLYLINE
8
Layer 1
62
7
70
0
10
0.000000
20
0.000000
66
1
0
VERTEX
8
Layer 1
10
55.356148
20
9.726276
70
0
0
VERTEX
8
Layer 1
10
55.769429
20
9.729326
70
0
0
VERTEX
8
Layer 1
10
56.136716
20
9.885200
70
0
0
VERTEX
8
Layer 1
10
56.418759
20
10.167419
70
0
0
VERTEX
8
Layer 1
10
56.576311
20
10.549503
70
0
0
VERTEX
8
Layer 1
10
58.117433
20
18.477706
70
0
0
VERTEX
8
Layer 1
10
50.189244
20
20.018625
70
0
0
VERTEX
8
Layer 1
10
49.775999
20
20.015604
70
0
0
VERTEX
8
Layer 1
10
49.408728
20
19.859781
70
0
0
VERTEX
8
Layer 1
10
49.126670
20
19.577624
70
0
0
VERTEX
8
Layer 1
10
48.969066
20
19.195601
70
0
0
VERTEX
8
Layer 1
10
48.970808
20
18.789486
70
0
0
VERTEX
8
Layer 1
10
49.127833
20
18.414952
70
0
0
VERTEX
8
Layer 1
10
49.416234
20
18.129020
70
0
0
VERTEX
8
Layer 1
10
49.792104
20
17.975221
70
0
0
VERTEX
8
Layer 1
10
55.676889
20
16.831443
70
0
0
VERTEX
8
Layer 1
10
54.532907
20
10.946643
70
0
0
VERTEX
8
Layer 1
10
54.534676
20
10.540493
70
0
0
VERTEX
8
Layer 1
10
54.691753
20
10.165942
70
0
0
VERTEX
8
Layer 1
10
54.980219
20
9.880024
70
0
0
VERTEX
8
Layer 1
10
55.356148
20
9.726276
70
0
0
VERTEX
8
Layer 1
10
55.356148
20
9.726276
70
0
0
SEQEND
8
Layer 1
0
POLYLINE
8
Layer 1
62
7
70
0
10
0.000000
20
0.000000
66
1
0
VERTEX
8
Layer 1
10
51.255677
20
5.175962
70
0
0
VERTEX
8
Layer 1
10
51.661792
20
5.177703
70
0
0
VERTEX
8
Layer 1
10
52.036326
20
5.334728
70
0
0
VERTEX
8
Layer 1
10
52.322259
20
5.623129
70
0
0
VERTEX
8
Layer 1
10
52.476058
20
5.998999
70
0
0
VERTEX
8
Layer 1
10
54.416231
20
15.981134
70
0
0
VERTEX
8
Layer 1
10
44.434084
20
17.921511
70
0
0
VERTEX
8
Layer 1
10
44.020839
20
17.918491
70
0
0
VERTEX
8
Layer 1
10
43.653568
20
17.762668
70
0
0
VERTEX
8
Layer 1
10
43.371510
20
17.480511
70
0
0
VERTEX
8
Layer 1
10
43.213906
20
17.098488
70
0
0
VERTEX
8
Layer 1
10
43.215648
20
16.692373
70
0
0
VERTEX
8
Layer 1
10
43.372672
20
16.317839
70
0
0
VERTEX
8
Layer 1
10
43.661073
20
16.031906
70
0
0
VERTEX
8
Layer 1
10
44.036944
20
15.878107
70
0
0
VERTEX
8
Layer 1
10
51.975687
20
14.334870
70
0
0
VERTEX
8
Layer 1
10
50.432653
20
6.396140
70
0
0
VERTEX
8
Layer 1
10
50.435674
20
5.982896
70
0
0
VERTEX
8
Layer 1
10
50.591497
20
5.615624
70
0
0
VERTEX
8
Layer 1
10
50.873654
20
5.333565
70
0
0
VERTEX
8
Layer 1
10
51.255677
20
5.175962
70
0
0
VERTEX
8
Layer 1
10
51.255677
20
5.175962
70
0
0
SEQEND
8
Layer 1
0
POLYLINE
8
Layer 1
62
7
70
0
10
0.000000
20
0.000000
66
1
0
VERTEX
8
Layer 1
10
63.802682
20
21.099567
70
0
0
VERTEX
8
Layer 1
10
64.153520
20
21.304197
70
0
0
VERTEX
8
Layer 1
10
64.399331
20
21.627519
70
0
0
VERTEX
8
Layer 1
10
64.503415
20
22.027509
70
0
0
VERTEX
8
Layer 1
10
64.447963
20
22.422647
70
0
0
VERTEX
8
Layer 1
10
64.248392
20
22.768160
70
0
0
VERTEX
8
Layer 1
10
63.920117
20
23.019279
70
0
0
VERTEX
8
Layer 1
10
45.210181
20
32.144720
70
0
0
VERTEX
8
Layer 1
10
44.810192
20
32.248804
70
0
0
VERTEX
8
Layer 1
10
44.415055
20
32.193352
70
0
0
VERTEX
8
Layer 1
10
44.069541
20
31.993781
70
0
0
VERTEX
8
Layer 1
10
43.818423
20
31.665506
70
0
0
VERTEX
8
Layer 1
10
43.714338
20
31.265516
70
0
0
VERTEX
8
Layer 1
10
43.769790
20
30.870379
70
0
0
VERTEX
8
Layer 1
10
43.969361
20
30.524865
70
0
0
VERTEX
8
Layer 1
10
44.297636
20
30.273746
70
0
0
VERTEX
8
Layer 1
10
63.007571
20
21.148305
70
0
0
VERTEX
8
Layer 1
10
63.400280
20
21.044859
70
0
0
VERTEX
8
Layer 1
10
63.802682
20
21.099567
70
0
0
VERTEX
8
Layer 1
10
63.802682
20
21.099567
70
0
0
SEQEND
8
Layer 1
0
POLYLINE
8
Layer 1
62
7
70
0
10
0.000000
20
0.000000
66
1
0
VERTEX
8
Layer 1
10
57.532147
20
22.161553
70
0
0
VERTEX
8
Layer 1
10
60.915831
20
23.326607
70
0
0
VERTEX
8
Layer 1
10
59.750792
20
26.710088
70
0
0
VERTEX
8
Layer 1
10
59.546221
20
27.060961
70
0
0
VERTEX
8
Layer 1
10
59.222940
20
27.306827
70
0
0
VERTEX
8
Layer 1
10
58.830173
20
27.410248
70
0
0
VERTEX
8
Layer 1
10
58.427730
20
27.355475
70
0
0
VERTEX
8
Layer 1
10
58.076922
20
27.150862
70
0
0
VERTEX
8
Layer 1
10
57.831121
20
26.827574
70
0
0
VERTEX
8
Layer 1
10
57.727750
20
26.434831
70
0
0
VERTEX
8
Layer 1
10
57.782545
20
26.032425
70
0
0
VERTEX
8
Layer 1
10
58.269720
20
24.617177
70
0
0
VERTEX
8
Layer 1
10
56.854484
20
24.129800
70
0
0
VERTEX
8
Layer 1
10
56.503677
20
23.925186
70
0
0
VERTEX
8
Layer 1
10
56.257877
20
23.601899
70
0
0
VERTEX
8
Layer 1
10
56.154506
20
23.209157
70
0
0
VERTEX
8
Layer 1
10
56.209301
20
22.806752
70
0
0
VERTEX
8
Layer 1
10
56.418538
20
22.450381
70
0
0
VERTEX
8
Layer 1
10
56.737120
20
22.210225
70
0
0
VERTEX
8
Layer 1
10
57.122503
20
22.107032
70
0
0
VERTEX
8
Layer 1
10
57.532147
20
22.161553
70
0
0
VERTEX
8
Layer 1
10
57.532147
20
22.161553
70
0
0
SEQEND
8
Layer 1
0
POLYLINE
8
Layer 1
62
7
70
0
10
0.000000
20
0.000000
66
1
0
VERTEX
8
Layer 1
10
50.031015
20
22.281388
70
0
0
VERTEX
8
Layer 1
10
57.667593
20
24.910705
70
0
0
VERTEX
8
Layer 1
10
55.038074
20
32.547268
70
0
0
VERTEX
8
Layer 1
10
54.828879
20
32.903706
70
0
0
VERTEX
8
Layer 1
10
54.510303
20
33.143925
70
0
0
VERTEX
8
Layer 1
10
54.124897
20
33.247166
70
0
0
VERTEX
8
Layer 1
10
53.715214
20
33.192668
70
0
0
VERTEX
8
Layer 1
10
53.364340
20
32.988098
70
0
0
VERTEX
8
Layer 1
10
53.118474
20
32.664816
70
0
0
VERTEX
8
Layer 1
10
53.015054
20
32.272049
70
0
0
VERTEX
8
Layer 1
10
53.069827
20
31.869605
70
0
0
VERTEX
8
Layer 1
10
55.021684
20
26.201288
70
0
0
VERTEX
8
Layer 1
10
49.353353
20
24.249635
70
0
0
VERTEX
8
Layer 1
10
49.002546
20
24.045022
70
0
0
VERTEX
8
Layer 1
10
48.756745
20
23.721734
70
0
0
VERTEX
8
Layer 1
10
48.653374
20
23.328992
70
0
0
VERTEX
8
Layer 1
10
48.708170
20
22.926587
70
0
0
VERTEX
8
Layer 1
10
48.917407
20
22.570216
70
0
0
VERTEX
8
Layer 1
10
49.235988
20
22.330060
70
0
0
VERTEX
8
Layer 1
10
49.621372
20
22.226867
70
0
0
VERTEX
8
Layer 1
10
50.031015
20
22.281388
70
0
0
VERTEX
8
Layer 1
10
50.031015
20
22.281388
70
0
0
SEQEND
8
Layer 1
0
POLYLINE
8
Layer 1
62
7
70
0
10
0.000000
20
0.000000
66
1
0
VERTEX
8
Layer 1
10
44.040002
20
23.557128
70
0
0
VERTEX
8
Layer 1
10
53.654955
20
26.867871
70
0
0
VERTEX
8
Layer 1
10
50.344414
20
36.482838
70
0
0
VERTEX
8
Layer 1
10
50.139801
20
36.833646
70
0
0
VERTEX
8
Layer 1
10
49.816514
20
37.079447
70
0
0
VERTEX
8
Layer 1
10
49.423771
20
37.182818
70
0
0
VERTEX
8
Layer 1
10
49.021365
20
37.128023
70
0
0
VERTEX
8
Layer 1
10
48.664994
20
36.918785
70
0
0
VERTEX
8
Layer 1
10
48.424838
20
36.600203
70
0
0
VERTEX
8
Layer 1
10
48.321646
20
36.214819
70
0
0
VERTEX
8
Layer 1
10
48.376168
20
35.805176
70
0
0
VERTEX
8
Layer 1
10
51.009046
20
28.158455
70
0
0
VERTEX
8
Layer 1
10
43.362339
20
25.525374
70
0
0
VERTEX
8
Layer 1
10
43.011532
20
25.320761
70
0
0
VERTEX
8
Layer 1
10
42.765731
20
24.997473
70
0
0
VERTEX
8
Layer 1
10
42.662360
20
24.604730
70
0
0
VERTEX
8
Layer 1
10
42.717156
20
24.202325
70
0
0
VERTEX
8
Layer 1
10
42.926393
20
23.845955
70
0
0
VERTEX
8
Layer 1
10
43.244975
20
23.605799
70
0
0
VERTEX
8
Layer 1
10
43.630359
20
23.502606
70
0
0
VERTEX
8
Layer 1
10
44.040002
20
23.557128
70
0
0
VERTEX
8
Layer 1
10
44.040002
20
23.557128
70
0
0
SEQEND
8
Layer 1
0
POLYLINE
8
Layer 1
62
7
70
0
10
0.000000
20
0.000000
66
1
0
VERTEX
8
Layer 1
10
20.527960
20
19.077755
70
0
0
VERTEX
8
Layer 1
10
21.169470
20
18.970403
70
0
0
VERTEX
8
Layer 1
10
21.698995
20
19.348110
70
0
0
VERTEX
8
Layer 1
10
30.705795
20
33.762010
70
0
0
VERTEX
8
Layer 1
10
30.813147
20
34.403520
70
0
0
VERTEX
8
Layer 1
10
30.435440
20
34.933045
70
0
0
VERTEX
8
Layer 1
10
29.793930
20
35.040397
70
0
0
VERTEX
8
Layer 1
10
29.264405
20
34.662690
70
0
0
VERTEX
8
Layer 1
10
20.257605
20
20.248790
70
0
0
VERTEX
8
Layer 1
10
20.150253
20
19.607280
70
0
0
VERTEX
8
Layer 1
10
20.527960
20
19.077755
70
0
0
VERTEX
8
Layer 1
10
20.527960
20
19.077755
70
0
0
SEQEND
8
Layer 1
0
POLYLINE
8
Layer 1
62
7
70
0
10
0.000000
20
0.000000
66
1
0
VERTEX
8
Layer 1
10
21.568907
20
20.743940
70
0
0
VERTEX
8
Layer 1
10
27.722559
20
22.164624
70
0
0
VERTEX
8
Layer 1
10
28.252110
20
22.542337
70
0
0
VERTEX
8
Layer 1
10
28.359456
20
23.183872
70
0
0
VERTEX
8
Layer 1
10
27.981770
20
23.713309
70
0
0
VERTEX
8
Layer 1
10
27.340348
20
23.820682
70
0
0
VERTEX
8
Layer 1
10
22.842613
20
22.782296
70
0
0
VERTEX
8
Layer 1
10
21.804229
20
27.280031
70
0
0
VERTEX
8
Layer 1
10
21.426542
20
27.809468
70
0
0
VERTEX
8
Layer 1
10
20.785120
20
27.916840
70
0
0
VERTEX
8
Layer 1
10
20.255569
20
27.539128
70
0
0
VERTEX
8
Layer 1
10
20.148223
20
26.897592
70
0
0
VERTEX
8
Layer 1
10
21.568907
20
20.743940
70
0
0
SEQEND
8
Layer 1
0
POLYLINE
8
Layer 1
62
7
70
0
10
0.000000
20
0.000000
66
1
0
VERTEX
8
Layer 1
10
24.007252
20
24.646109
70
0
0
VERTEX
8
Layer 1
10
29.189997
20
25.842641
70
0
0
VERTEX
8
Layer 1
10
29.719548
20
26.220354
70
0
0
VERTEX
8
Layer 1
10
29.826894
20
26.861890
70
0
0
VERTEX
8
Layer 1
10
29.449181
20
27.391441
70
0
0
VERTEX
8
Layer 1
10
28.807645
20
27.498787
70
0
0
VERTEX
8
Layer 1
10
25.281046
20
26.684606
70
0
0
VERTEX
8
Layer 1
10
24.466866
20
30.211205
70
0
0
VERTEX
8
Layer 1
10
24.089153
20
30.740756
70
0
0
VERTEX
8
Layer 1
10
23.447617
20
30.848102
70
0
0
VERTEX
8
Layer 1
10
22.918066
20
30.470389
70
0
0
VERTEX
8
Layer 1
10
22.810720
20
29.828854
70
0
0
VERTEX
8
Layer 1
10
24.007252
20
24.646109
70
0
0
SEQEND
8
Layer 1
0
POLYLINE
8
Layer 1
62
7
70
0
10
0.000000
20
0.000000
66
1
0
VERTEX
8
Layer 1
10
26.703047
20
28.960285
70
0
0
VERTEX
8
Layer 1
10
29.576429
20
29.623658
70
0
0
VERTEX
8
Layer 1
10
30.105980
20
30.001371
70
0
0
VERTEX
8
Layer 1
10
30.213326
20
30.642907
70
0
0
VERTEX
8
Layer 1
10
29.835613
20
31.172458
70
0
0
VERTEX
8
Layer 1
10
29.194077
20
31.279804
70
0
0
VERTEX
8
Layer 1
10
27.976753
20
30.998641
70
0
0
VERTEX
8
Layer 1
10
27.695820
20
32.216018
70
0
0
VERTEX
8
Layer 1
10
27.318107
20
32.745570
70
0
0
VERTEX
8
Layer 1
10
26.676571
20
32.852915
70
0
0
VERTEX
8
Layer 1
10
26.147020
20
32.475203
70
0
0
VERTEX
8
Layer 1
10
26.039674
20
31.833667
70
0
0
VERTEX
8
Layer 1
10
26.703047
20
28.960285
70
0
0
SEQEND
8
Layer 1
0
POLYLINE
8
Layer 1
62
7
70
0
10
0.000000
20
0.000000
66
1
0
VERTEX
8
Layer 1
10
20.356556
20
19.218790
70
0
0
VERTEX
8
Layer 1
10
20.948446
20
18.949147
70
0
0
VERTEX
8
Layer 1
10
37.934649
20
18.355979
70
0
0
VERTEX
8
Layer 1
10
38.543881
20
18.583768
70
0
0
VERTEX
8
Layer 1
10
38.813606
20
19.175629
70
0
0
VERTEX
8
Layer 1
10
38.585818
20
19.784860
70
0
0
VERTEX
8
Layer 1
10
37.993958
20
20.054586
70
0
0
VERTEX
8
Layer 1
10
21.007754
20
20.647753
70
0
0
VERTEX
8
Layer 1
10
20.398522
20
20.419965
70
0
0
VERTEX
8
Layer 1
10
20.128797
20
19.828104
70
0
0
VERTEX
8
Layer 1
10
20.356556
20
19.218790
70
0
0
VERTEX
8
Layer 1
10
20.356556
20
19.218790
70
0
0
SEQEND
8
Layer 1
0
POLYLINE
8
Layer 1
62
7
70
0
10
0.000000
20
0.000000
66
1
0
VERTEX
8
Layer 1
10
26.399444
20
15.140582
70
0
0
VERTEX
8
Layer 1
10
26.991370
20
14.870835
70
0
0
VERTEX
8
Layer 1
10
27.600647
20
15.098698
70
0
0
VERTEX
8
Layer 1
10
27.870307
20
15.690501
70
0
0
VERTEX
8
Layer 1
10
27.642584
20
16.299672
70
0
0
VERTEX
8
Layer 1
10
24.494442
20
19.675658
70
0
0
VERTEX
8
Layer 1
10
27.870428
20
22.823799
70
0
0
VERTEX
8
Layer 1
10
28.140087
20
23.415602
70
0
0
VERTEX
8
Layer 1
10
27.912364
20
24.024773
70
0
0
VERTEX
8
Layer 1
10
27.320511
20
24.294548
70
0
0
VERTEX
8
Layer 1
10
26.711249
20
24.066798
70
0
0
VERTEX
8
Layer 1
10
22.092265
20
19.759478
70
0
0
VERTEX
8
Layer 1
10
26.399444
20
15.140582
70
0
0
SEQEND
8
Layer 1
0
POLYLINE
8
Layer 1
62
7
70
0
10
0.000000
20
0.000000
66
1
0
VERTEX
8
Layer 1
10
30.318501
20
15.708940
70
0
0
VERTEX
8
Layer 1
10
30.910355
20
15.439165
70
0
0
VERTEX
8
Layer 1
10
31.519617
20
15.666916
70
0
0
VERTEX
8
Layer 1
10
31.789391
20
16.258769
70
0
0
VERTEX
8
Layer 1
10
31.561641
20
16.868030
70
0
0
VERTEX
8
Layer 1
10
29.093228
20
19.515123
70
0
0
VERTEX
8
Layer 1
10
31.740232
20
21.983396
70
0
0
VERTEX
8
Layer 1
10
32.009979
20
22.575322
70
0
0
VERTEX
8
Layer 1
10
31.782116
20
23.184599
70
0
0
VERTEX
8
Layer 1
10
31.190313
20
23.454259
70
0
0
VERTEX
8
Layer 1
10
30.581142
20
23.226535
70
0
0
VERTEX
8
Layer 1
10
26.690909
20
19.599031
70
0
0
VERTEX
8
Layer 1
10
30.318501
20
15.708940
70
0
0
SEQEND
8
Layer 1
0
POLYLINE
8
Layer 1
62
7
70
0
10
0.000000
20
0.000000
66
1
0
VERTEX
8
Layer 1
10
33.786144
20
17.264757
70
0
0
VERTEX
8
Layer 1
10
34.377998
20
16.994982
70
0
0
VERTEX
8
Layer 1
10
34.987259
20
17.222732
70
0
0
VERTEX
8
Layer 1
10
35.257034
20
17.814586
70
0
0
VERTEX
8
Layer 1
10
35.029283
20
18.423848
70
0
0
VERTEX
8
Layer 1
10
34.177153
20
19.337585
70
0
0
VERTEX
8
Layer 1
10
35.090802
20
20.189576
70
0
0
VERTEX
8
Layer 1
10
35.360577
20
20.781429
70
0
0
VERTEX
8
Layer 1
10
35.132827
20
21.390690
70
0
0
VERTEX
8
Layer 1
10
34.540901
20
21.660437
70
0
0
VERTEX
8
Layer 1
10
33.931624
20
21.432574
70
0
0
VERTEX
8
Layer 1
10
31.774975
20
19.421406
70
0
0
VERTEX
8
Layer 1
10
33.786144
20
17.264757
70
0
0
SEQEND
8
Layer 1
0
POLYLINE
8
Layer 1
62
7
70
0
10
0.000000
20
0.000000
66
1
0
VERTEX
8
Layer 1
10
28.708976
20
3.978636
70
0
0
VERTEX
8
Layer 1
10
29.356466
20
4.041034
70
0
0
VERTEX
8
Layer 1
10
29.770187
20
4.542916
70
0
0
VERTEX
8
Layer 1
10
29.707853
20
5.190346
70
0
0
VERTEX
8
Layer 1
10
21.728449
20
20.197413
70
0
0
VERTEX
8
Layer 1
10
21.226566
20
20.611134
70
0
0
VERTEX
8
Layer 1
10
20.579137
20
20.548799
70
0
0
VERTEX
8
Layer 1
10
20.165416
20
20.046916
70
0
0
VERTEX
8
Layer 1
10
20.227751
20
19.399487
70
0
0
VERTEX
8
Layer 1
10
28.207154
20
4.392419
70
0
0
VERTEX
8
Layer 1
10
28.708976
20
3.978636
70
0
0
VERTEX
8
Layer 1
10
28.708976
20
3.978636
70
0
0
SEQEND
8
Layer 1
0
POLYLINE
8
Layer 1
62
7
70
0
10
0.000000
20
0.000000
66
1
0
VERTEX
8
Layer 1
10
20.219291
20
11.713276
70
0
0
VERTEX
8
Layer 1
10
20.866637
20
11.775643
70
0
0
VERTEX
8
Layer 1
10
21.280335
20
12.277441
70
0
0
VERTEX
8
Layer 1
10
22.629929
20
16.691812
70
0
0
VERTEX
8
Layer 1
10
27.044300
20
15.342217
70
0
0
VERTEX
8
Layer 1
10
27.691647
20
15.404585
70
0
0
VERTEX
8
Layer 1
10
28.105344
20
15.906383
70
0
0
VERTEX
8
Layer 1
10
28.043056
20
16.553886
70
0
0
VERTEX
8
Layer 1
10
27.541126
20
16.967656
70
0
0
VERTEX
8
Layer 1
10
21.501546
20
18.814130
70
0
0
VERTEX
8
Layer 1
10
19.654984
20
12.774408
70
0
0
VERTEX
8
Layer 1
10
19.717367
20
12.126969
70
0
0
VERTEX
8
Layer 1
10
20.219291
20
11.713276
70
0
0
VERTEX
8
Layer 1
10
20.219291
20
11.713276
70
0
0
SEQEND
8
Layer 1
0
POLYLINE
8
Layer 1
62
7
70
0
10
0.000000
20
0.000000
66
1
0
VERTEX
8
Layer 1
10
22.670823
20
8.603475
70
0
0
VERTEX
8
Layer 1
10
23.318326
20
8.665763
70
0
0
VERTEX
8
Layer 1
10
23.732096
20
9.167694
70
0
0
VERTEX
8
Layer 1
10
24.790194
20
12.628826
70
0
0
VERTEX
8
Layer 1
10
28.251467
20
11.570641
70
0
0
VERTEX
8
Layer 1
10
28.898906
20
11.633023
70
0
0
VERTEX
8
Layer 1
10
29.312599
20
12.134947
70
0
0
VERTEX
8
Layer 1
10
29.250217
20
12.782386
70
0
0
VERTEX
8
Layer 1
10
28.748293
20
13.196080
70
0
0
VERTEX
8
Layer 1
10
23.661669
20
14.751232
70
0
0
VERTEX
8
Layer 1
10
22.106658
20
9.664520
70
0
0
VERTEX
8
Layer 1
10
22.169025
20
9.017173
70
0
0
VERTEX
8
Layer 1
10
22.670823
20
8.603475
70
0
0
VERTEX
8
Layer 1
10
22.670823
20
8.603475
70
0
0
SEQEND
8
Layer 1
0
POLYLINE
8
Layer 1
62
7
70
0
10
0.000000
20
0.000000
66
1
0
VERTEX
8
Layer 1
10
25.752034
20
6.378276
70
0
0
VERTEX
8
Layer 1
10
26.399473
20
6.440658
70
0
0
VERTEX
8
Layer 1
10
26.813166
20
6.942582
70
0
0
VERTEX
8
Layer 1
10
27.178411
20
8.137253
70
0
0
VERTEX
8
Layer 1
10
28.373223
20
7.771919
70
0
0
VERTEX
8
Layer 1
10
29.020663
20
7.834301
70
0
0
VERTEX
8
Layer 1
10
29.434356
20
8.336225
70
0
0
VERTEX
8
Layer 1
10
29.371974
20
8.983665
70
0
0
VERTEX
8
Layer 1
10
28.870050
20
9.397358
70
0
0
VERTEX
8
Layer 1
10
26.050028
20
10.259570
70
0
0
VERTEX
8
Layer 1
10
25.187815
20
7.439549
70
0
0
VERTEX
8
Layer 1
10
25.250103
20
6.792046
70
0
0
VERTEX
8
Layer 1
10
25.752034
20
6.378276
70
0
0
VERTEX
8
Layer 1
10
25.752034
20
6.378276
70
0
0
SEQEND
8
Layer 1
0
POLYLINE
8
Layer 1
62
7
70
1
10
0.000000
20
0.000000
66
1
0
VERTEX
8
Layer 1
10
11.520960
20
4.663855
70
0
0
VERTEX
8
Layer 1
10
12.162470
20
4.556503
70
0
0
VERTEX
8
Layer 1
10
12.691995
20
4.934210
70
0
0
VERTEX
8
Layer 1
10
21.698795
20
19.348110
70
0
0
VERTEX
8
Layer 1
10
21.806147
20
19.989620
70
0
0
VERTEX
8
Layer 1
10
21.428440
20
20.519145
70
0
0
VERTEX
8
Layer 1
10
20.786930
20
20.626497
70
0
0
VERTEX
8
Layer 1
10
20.257405
20
20.248790
70
0
0
VERTEX
8
Layer 1
10
11.250605
20
5.834890
70
0
0
VERTEX
8
Layer 1
10
11.143253
20
5.193380
70
0
0
VERTEX
8
Layer 1
10
11.520960
20
4.663855
70
0
0
VERTEX
8
Layer 1
10
11.520960
20
4.663855
70
0
0
SEQEND
8
Layer 1
0
POLYLINE
8
Layer 1
62
7
70
0
10
0.000000
20
0.000000
66
1
0
VERTEX
8
Layer 1
10
20.529591
20
11.787323
70
0
0
VERTEX
8
Layer 1
10
21.171080
20
11.680060
70
0
0
VERTEX
8
Layer 1
10
21.700631
20
12.057772
70
0
0
VERTEX
8
Layer 1
10
21.807977
20
12.699308
70
0
0
VERTEX
8
Layer 1
10
20.387293
20
18.852960
70
0
0
VERTEX
8
Layer 1
10
14.233641
20
17.432276
70
0
0
VERTEX
8
Layer 1
10
13.704090
20
17.054563
70
0
0
VERTEX
8
Layer 1
10
13.596744
20
16.413028
70
0
0
VERTEX
8
Layer 1
10
13.974430
20
15.883591
70
0
0
VERTEX
8
Layer 1
10
14.615852
20
15.776218
70
0
0
VERTEX
8
Layer 1
10
19.113587
20
16.814604
70
0
0
VERTEX
8
Layer 1
10
20.151971
20
12.316869
70
0
0
VERTEX
8
Layer 1
10
20.529591
20
11.787323
70
0
0
VERTEX
8
Layer 1
10
20.529591
20
11.787323
70
0
0
SEQEND
8
Layer 1
0
POLYLINE
8
Layer 1
62
7
70
0
10
0.000000
20
0.000000
66
1
0
VERTEX
8
Layer 1
10
17.866953
20
8.856149
70
0
0
VERTEX
8
Layer 1
10
18.508583
20
8.748798
70
0
0
VERTEX
8
Layer 1
10
19.038134
20
9.126511
70
0
0
VERTEX
8
Layer 1
10
19.145480
20
9.768046
70
0
0
VERTEX
8
Layer 1
10
17.948948
20
14.950791
70
0
0
VERTEX
8
Layer 1
10
12.766203
20
13.754259
70
0
0
VERTEX
8
Layer 1
10
12.236652
20
13.376546
70
0
0
VERTEX
8
Layer 1
10
12.129306
20
12.735010
70
0
0
VERTEX
8
Layer 1
10
12.507019
20
12.205459
70
0
0
VERTEX
8
Layer 1
10
13.148555
20
12.098113
70
0
0
VERTEX
8
Layer 1
10
16.675154
20
12.912294
70
0
0
VERTEX
8
Layer 1
10
17.489334
20
9.385695
70
0
0
VERTEX
8
Layer 1
10
17.866953
20
8.856149
70
0
0
VERTEX
8
Layer 1
10
17.866953
20
8.856149
70
0
0
SEQEND
8
Layer 1
0
POLYLINE
8
Layer 1
62
7
70
0
10
0.000000
20
0.000000
66
1
0
VERTEX
8
Layer 1
10
14.638228
20
6.851389
70
0
0
VERTEX
8
Layer 1
10
15.279629
20
6.743985
70
0
0
VERTEX
8
Layer 1
10
15.809180
20
7.121697
70
0
0
VERTEX
8
Layer 1
10
15.916526
20
7.763233
70
0
0
VERTEX
8
Layer 1
10
15.253153
20
10.636615
70
0
0
VERTEX
8
Layer 1
10
12.379771
20
9.973242
70
0
0
VERTEX
8
Layer 1
10
11.850220
20
9.595529
70
0
0
VERTEX
8
Layer 1
10
11.742874
20
8.953993
70
0
0
VERTEX
8
Layer 1
10
12.120587
20
8.424442
70
0
0
VERTEX
8
Layer 1
10
12.762123
20
8.317096
70
0
0
VERTEX
8
Layer 1
10
13.979447
20
8.598259
70
0
0
VERTEX
8
Layer 1
10
14.260380
20
7.380882
70
0
0
VERTEX
8
Layer 1
10
14.638228
20
6.851389
70
0
0
VERTEX
8
Layer 1
10
14.638228
20
6.851389
70
0
0
SEQEND
8
Layer 1
0
POLYLINE
8
Layer 1
62
7
70
0
10
0.000000
20
0.000000
66
1
0
VERTEX
8
Layer 1
10
3.370353
20
19.811958
70
0
0
VERTEX
8
Layer 1
10
3.962242
20
19.542314
70
0
0
VERTEX
8
Layer 1
10
20.948446
20
18.949147
70
0
0
VERTEX
8
Layer 1
10
21.557678
20
19.176935
70
0
0
VERTEX
8
Layer 1
10
21.827403
20
19.768796
70
0
0
VERTEX
8
Layer 1
10
21.599615
20
20.378028
70
0
0
VERTEX
8
Layer 1
10
21.007754
20
20.647753
70
0
0
VERTEX
8
Layer 1
10
4.021551
20
21.240921
70
0
0
VERTEX
8
Layer 1
10
3.412319
20
21.013132
70
0
0
VERTEX
8
Layer 1
10
3.142594
20
20.421271
70
0
0
VERTEX
8
Layer 1
10
3.370353
20
19.811958
70
0
0
VERTEX
8
Layer 1
10
3.370353
20
19.811958
70
0
0
SEQEND
8
Layer 1
0
POLYLINE
8
Layer 1
62
7
70
0
10
0.000000
20
0.000000
66
1
0
VERTEX
8
Layer 1
10
14.043836
20
15.572127
70
0
0
VERTEX
8
Layer 1
10
14.635689
20
15.302352
70
0
0
VERTEX
8
Layer 1
10
15.244951
20
15.530102
70
0
0
VERTEX
8
Layer 1
10
19.863935
20
19.837422
70
0
0
VERTEX
8
Layer 1
10
15.556756
20
24.456318
70
0
0
VERTEX
8
Layer 1
10
14.964830
20
24.726065
70
0
0
VERTEX
8
Layer 1
10
14.355553
20
24.498202
70
0
0
VERTEX
8
Layer 1
10
14.085893
20
23.906399
70
0
0
VERTEX
8
Layer 1
10
14.313616
20
23.297228
70
0
0
VERTEX
8
Layer 1
10
17.461758
20
19.921242
70
0
0
VERTEX
8
Layer 1
10
14.085772
20
16.773101
70
0
0
VERTEX
8
Layer 1
10
13.816113
20
16.181298
70
0
0
VERTEX
8
Layer 1
10
14.043836
20
15.572127
70
0
0
VERTEX
8
Layer 1
10
14.043836
20
15.572127
70
0
0
SEQEND
8
Layer 1
0
POLYLINE
8
Layer 1
62
7
70
0
10
0.000000
20
0.000000
66
1
0
VERTEX
8
Layer 1
10
10.174084
20
16.412301
70
0
0
VERTEX
8
Layer 1
10
10.765887
20
16.142641
70
0
0
VERTEX
8
Layer 1
10
11.375059
20
16.370364
70
0
0
VERTEX
8
Layer 1
10
15.265291
20
19.997869
70
0
0
VERTEX
8
Layer 1
10
11.637699
20
23.887960
70
0
0
VERTEX
8
Layer 1
10
11.045845
20
24.157735
70
0
0
VERTEX
8
Layer 1
10
10.436583
20
23.929984
70
0
0
VERTEX
8
Layer 1
10
10.166809
20
23.338131
70
0
0
VERTEX
8
Layer 1
10
10.394559
20
22.728870
70
0
0
VERTEX
8
Layer 1
10
12.862972
20
20.081777
70
0
0
VERTEX
8
Layer 1
10
10.215968
20
17.613504
70
0
0
VERTEX
8
Layer 1
10
9.946221
20
17.021578
70
0
0
VERTEX
8
Layer 1
10
10.174084
20
16.412301
70
0
0
VERTEX
8
Layer 1
10
10.174084
20
16.412301
70
0
0
SEQEND
8
Layer 1
0
POLYLINE
8
Layer 1
62
7
70
0
10
0.000000
20
0.000000
66
1
0
VERTEX
8
Layer 1
10
6.823373
20
18.206210
70
0
0
VERTEX
8
Layer 1
10
7.415299
20
17.936463
70
0
0
VERTEX
8
Layer 1
10
8.024576
20
18.164326
70
0
0
VERTEX
8
Layer 1
10
10.181225
20
20.175494
70
0
0
VERTEX
8
Layer 1
10
8.170056
20
22.332143
70
0
0
VERTEX
8
Layer 1
10
7.578203
20
22.601918
70
0
0
VERTEX
8
Layer 1
10
6.968942
20
22.374168
70
0
0
VERTEX
8
Layer 1
10
6.699167
20
21.782314
70
0
0
VERTEX
8
Layer 1
10
6.926917
20
21.173052
70
0
0
VERTEX
8
Layer 1
10
7.779047
20
20.259315
70
0
0
VERTEX
8
Layer 1
10
6.865398
20
19.407324
70
0
0
VERTEX
8
Layer 1
10
6.595623
20
18.815471
70
0
0
VERTEX
8
Layer 1
10
6.823373
20
18.206210
70
0
0
VERTEX
8
Layer 1
10
6.823373
20
18.206210
70
0
0
SEQEND
8
Layer 1
0
POLYLINE
8
Layer 1
62
7
70
0
10
0.000000
20
0.000000
66
1
0
VERTEX
8
Layer 1
10
20.729572
20
18.985704
70
0
0
VERTEX
8
Layer 1
10
21.377063
20
19.048101
70
0
0
VERTEX
8
Layer 1
10
21.790784
20
19.549984
70
0
0
VERTEX
8
Layer 1
10
21.728449
20
20.197413
70
0
0
VERTEX
8
Layer 1
10
13.749046
20
35.204481
70
0
0
VERTEX
8
Layer 1
10
13.247163
20
35.618201
70
0
0
VERTEX
8
Layer 1
10
12.599734
20
35.555866
70
0
0
VERTEX
8
Layer 1
10
12.186013
20
35.053984
70
0
0
VERTEX
8
Layer 1
10
12.248347
20
34.406554
70
0
0
VERTEX
8
Layer 1
10
20.227751
20
19.399487
70
0
0
VERTEX
8
Layer 1
10
20.729572
20
18.985704
70
0
0
VERTEX
8
Layer 1
10
20.729572
20
18.985704
70
0
0
SEQEND
8
Layer 1
0
POLYLINE
8
Layer 1
62
7
70
0
10
0.000000
20
0.000000
66
1
0
VERTEX
8
Layer 1
10
14.415074
20
22.629244
70
0
0
VERTEX
8
Layer 1
10
20.454654
20
20.782770
70
0
0
VERTEX
8
Layer 1
10
22.301216
20
26.822492
70
0
0
VERTEX
8
Layer 1
10
22.238833
20
27.469931
70
0
0
VERTEX
8
Layer 1
10
21.736909
20
27.883624
70
0
0
VERTEX
8
Layer 1
10
21.089563
20
27.821257
70
0
0
VERTEX
8
Layer 1
10
20.675865
20
27.319459
70
0
0
VERTEX
8
Layer 1
10
19.326271
20
22.905088
70
0
0
VERTEX
8
Layer 1
10
14.911900
20
24.254683
70
0
0
VERTEX
8
Layer 1
10
14.264553
20
24.192315
70
0
0
VERTEX
8
Layer 1
10
13.850856
20
23.690517
70
0
0
VERTEX
8
Layer 1
10
13.913144
20
23.043014
70
0
0
VERTEX
8
Layer 1
10
14.415074
20
22.629244
70
0
0
VERTEX
8
Layer 1
10
14.415074
20
22.629244
70
0
0
SEQEND
8
Layer 1
0
POLYLINE
8
Layer 1
62
7
70
0
10
0.000000
20
0.000000
66
1
0
VERTEX
8
Layer 1
10
13.207907
20
26.400820
70
0
0
VERTEX
8
Layer 1
10
18.294531
20
24.845668
70
0
0
VERTEX
8
Layer 1
10
19.849543
20
29.932380
70
0
0
VERTEX
8
Layer 1
10
19.787176
20
30.579727
70
0
0
VERTEX
8
Layer 1
10
19.285377
20
30.993425
70
0
0
VERTEX
8
Layer 1
10
18.637874
20
30.931137
70
0
0
VERTEX
8
Layer 1
10
18.224104
20
30.429206
70
0
0
VERTEX
8
Layer 1
10
17.166006
20
26.968074
70
0
0
VERTEX
8
Layer 1
10
13.704733
20
28.026259
70
0
0
VERTEX
8
Layer 1
10
13.057294
20
27.963877
70
0
0
VERTEX
8
Layer 1
10
12.643601
20
27.461953
70
0
0
VERTEX
8
Layer 1
10
12.705983
20
26.814514
70
0
0
VERTEX
8
Layer 1
10
13.207907
20
26.400820
70
0
0
VERTEX
8
Layer 1
10
13.207907
20
26.400820
70
0
0
SEQEND
8
Layer 1
0
POLYLINE
8
Layer 1
62
7
70
0
10
0.000000
20
0.000000
66
1
0
VERTEX
8
Layer 1
10
13.086150
20
30.199542
70
0
0
VERTEX
8
Layer 1
10
15.906172
20
29.337330
70
0
0
VERTEX
8
Layer 1
10
16.768385
20
32.157351
70
0
0
VERTEX
8
Layer 1
10
16.706097
20
32.804854
70
0
0
VERTEX
8
Layer 1
10
16.204166
20
33.218624
70
0
0
VERTEX
8
Layer 1
10
15.556727
20
33.156242
70
0
0
VERTEX
8
Layer 1
10
15.143034
20
32.654318
70
0
0
VERTEX
8
Layer 1
10
14.777789
20
31.459647
70
0
0
VERTEX
8
Layer 1
10
13.582977
20
31.824981
70
0
0
VERTEX
8
Layer 1
10
12.935537
20
31.762598
70
0
0
VERTEX
8
Layer 1
10
12.521845
20
31.260674
70
0
0
VERTEX
8
Layer 1
10
12.584227
20
30.613235
70
0
0
VERTEX
8
Layer 1
10
13.086150
20
30.199542
70
0
0
VERTEX
8
Layer 1
10
13.086150
20
30.199542
70
0
0
SEQEND
8
Layer 1
0
POLYLINE
8
Layer 1
62
7
70
0
10
0.000000
20
0.000000
66
1
0
VERTEX
8
Layer 1
10
34.045362
20
52.877417
70
0
0
VERTEX
8
Layer 1
10
33.516305
20
52.565779
70
0
0
VERTEX
8
Layer 1
10
33.362567
20
51.971318
70
0
0
VERTEX
8
Layer 1
10
35.595607
20
36.082378
70
0
0
VERTEX
8
Layer 1
10
35.907245
20
35.553321
70
0
0
VERTEX
8
Layer 1
10
36.501706
20
35.399583
70
0
0
VERTEX
8
Layer 1
10
37.030763
20
35.711221
70
0
0
VERTEX
8
Layer 1
10
37.184501
20
36.305682
70
0
0
VERTEX
8
Layer 1
10
34.951461
20
52.194622
70
0
0
VERTEX
8
Layer 1
10
34.639823
20
52.723679
70
0
0
VERTEX
8
Layer 1
10
34.045362
20
52.877417
70
0
0
VERTEX
8
Layer 1
10
34.045362
20
52.877417
70
0
0
SEQEND
8
Layer 1
0
POLYLINE
8
Layer 1
62
7
70
0
10
0.000000
20
0.000000
66
1
0
VERTEX
8
Layer 1
10
34.524288
20
49.469674
70
0
0
VERTEX
8
Layer 1
10
33.636788
20
48.291922
70
0
0
VERTEX
8
Layer 1
10
33.483034
20
47.697441
70
0
0
VERTEX
8
Layer 1
10
33.794692
20
47.168369
70
0
0
VERTEX
8
Layer 1
10
34.333523
20
47.030363
70
0
0
VERTEX
8
Layer 1
10
34.832596
20
47.275945
70
0
0
VERTEX
8
Layer 1
10
35.380027
20
47.177439
70
0
0
VERTEX
8
Layer 1
10
35.859945
20
47.458621
70
0
0
VERTEX
8
Layer 1
10
36.013698
20
48.053102
70
0
0
VERTEX
8
Layer 1
10
35.702040
20
48.582174
70
0
0
VERTEX
8
Layer 1
10
34.524288
20
49.469674
70
0
0
SEQEND
8
Layer 1
0
POLYLINE
8
Layer 1
62
7
70
0
10
0.000000
20
0.000000
66
1
0
VERTEX
8
Layer 1
10
35.037473
20
45.818166
70
0
0
VERTEX
8
Layer 1
10
33.598825
20
43.908832
70
0
0
VERTEX
8
Layer 1
10
33.445138
20
43.314439
70
0
0
VERTEX
8
Layer 1
10
33.756707
20
42.785434
70
0
0
VERTEX
8
Layer 1
10
34.351100
20
42.631748
70
0
0
VERTEX
8
Layer 1
10
34.880105
20
42.943317
70
0
0
VERTEX
8
Layer 1
10
35.353282
20
43.571060
70
0
0
VERTEX
8
Layer 1
10
35.981159
20
43.098060
70
0
0
VERTEX
8
Layer 1
10
36.575551
20
42.944373
70
0
0
VERTEX
8
Layer 1
10
37.104556
20
43.255943
70
0
0
VERTEX
8
Layer 1
10
37.258243
20
43.850335
70
0
0
VERTEX
8
Layer 1
10
36.946673
20
44.379340
70
0
0
VERTEX
8
Layer 1
10
35.037473
20
45.818166
70
0
0
SEQEND
8
Layer 1
0
POLYLINE
8
Layer 1
62
7
70
0
10
0.000000
20
0.000000
66
1
0
VERTEX
8
Layer 1
10
35.501025
20
42.519814
70
0
0
VERTEX
8
Layer 1
10
32.904025
20
39.073297
70
0
0
VERTEX
8
Layer 1
10
32.750338
20
38.478905
70
0
0
VERTEX
8
Layer 1
10
33.061908
20
37.949900
70
0
0
VERTEX
8
Layer 1
10
33.656301
20
37.796213
70
0
0
VERTEX
8
Layer 1
10
34.185306
20
38.107783
70
0
0
VERTEX
8
Layer 1
10
35.816813
20
40.272864
70
0
0
VERTEX
8
Layer 1
10
37.981894
20
38.641357
70
0
0
VERTEX
8
Layer 1
10
38.576286
20
38.487670
70
0
0
VERTEX
8
Layer 1
10
39.105292
20
38.799240
70
0
0
VERTEX
8
Layer 1
10
39.258978
20
39.393633
70
0
0
VERTEX
8
Layer 1
10
38.947409
20
39.922638
70
0
0
VERTEX
8
Layer 1
10
35.501025
20
42.519814
70
0
0
SEQEND
8
Layer 1
0
POLYLINE
8
Layer 1
62
7
70
0
10
0.000000
20
0.000000
66
1
0
VERTEX
8
Layer 1
10
34.254751
20
52.879313
70
0
0
VERTEX
8
Layer 1
10
33.663098
20
52.715148
70
0
0
VERTEX
8
Layer 1
10
21.019392
20
42.836808
70
0
0
VERTEX
8
Layer 1
10
20.717043
20
42.302396
70
0
0
VERTEX
8
Layer 1
10
20.881131
20
41.710715
70
0
0
VERTEX
8
Layer 1
10
21.415543
20
41.408365
70
0
0
VERTEX
8
Layer 1
10
22.007224
20
41.572453
70
0
0
VERTEX
8
Layer 1
10
34.650930
20
51.450792
70
0
0
VERTEX
8
Layer 1
10
34.953280
20
51.985204
70
0
0
VERTEX
8
Layer 1
10
34.789192
20
52.576886
70
0
0
VERTEX
8
Layer 1
10
34.254751
20
52.879313
70
0
0
VERTEX
8
Layer 1
10
34.254751
20
52.879313
70
0
0
SEQEND
8
Layer 1
0
POLYLINE
8
Layer 1
62
7
70
0
10
0.000000
20
0.000000
66
1
0
VERTEX
8
Layer 1
10
30.613677
20
50.637980
70
0
0
VERTEX
8
Layer 1
10
30.022077
20
50.473879
70
0
0
VERTEX
8
Layer 1
10
29.719732
20
49.939551
70
0
0
VERTEX
8
Layer 1
10
29.869608
20
49.403843
70
0
0
VERTEX
8
Layer 1
10
30.331872
20
49.094396
70
0
0
VERTEX
8
Layer 1
10
30.520248
20
48.570995
70
0
0
VERTEX
8
Layer 1
10
31.003749
20
48.295930
70
0
0
VERTEX
8
Layer 1
10
31.595491
20
48.460042
70
0
0
VERTEX
8
Layer 1
10
31.897828
20
48.994536
70
0
0
VERTEX
8
Layer 1
10
32.077563
20
50.458266
70
0
0
VERTEX
8
Layer 1
10
30.613677
20
50.637980
70
0
0
SEQEND
8
Layer 1
0
POLYLINE
8
Layer 1
62
7
70
0
10
0.000000
20
0.000000
66
1
0
VERTEX
8
Layer 1
10
26.798951
20
48.479363
70
0
0
VERTEX
8
Layer 1
10
26.207245
20
48.315315
70
0
0
VERTEX
8
Layer 1
10
25.904850
20
47.780913
70
0
0
VERTEX
8
Layer 1
10
26.068962
20
47.189171
70
0
0
VERTEX
8
Layer 1
10
26.603456
20
46.886834
70
0
0
VERTEX
8
Layer 1
10
27.383693
20
46.791106
70
0
0
VERTEX
8
Layer 1
10
27.287810
20
46.010847
70
0
0
VERTEX
8
Layer 1
10
27.451923
20
45.419105
70
0
0
VERTEX
8
Layer 1
10
27.986416
20
45.116768
70
0
0
VERTEX
8
Layer 1
10
28.578016
20
45.280869
70
0
0
VERTEX
8
Layer 1
10
28.880362
20
45.815197
70
0
0
VERTEX
8
Layer 1
10
29.171740
20
48.187985
70
0
0
VERTEX
8
Layer 1
10
26.798951
20
48.479363
70
0
0
SEQEND
8
Layer 1
0
POLYLINE
8
Layer 1
62
7
70
0
10
0.000000
20
0.000000
66
1
0
VERTEX
8
Layer 1
10
22.263758
20
46.663329
70
0
0
VERTEX
8
Layer 1
10
21.672158
20
46.499228
70
0
0
VERTEX
8
Layer 1
10
21.369812
20
45.964899
70
0
0
VERTEX
8
Layer 1
10
21.533861
20
45.373193
70
0
0
VERTEX
8
Layer 1
10
22.068263
20
45.070799
70
0
0
VERTEX
8
Layer 1
10
24.759040
20
44.740407
70
0
0
VERTEX
8
Layer 1
10
24.428626
20
42.049786
70
0
0
VERTEX
8
Layer 1
10
24.592675
20
41.458079
70
0
0
VERTEX
8
Layer 1
10
25.127077
20
41.155684
70
0
0
VERTEX
8
Layer 1
10
25.718784
20
41.319733
70
0
0
VERTEX
8
Layer 1
10
26.021178
20
41.854136
70
0
0
VERTEX
8
Layer 1
10
26.547064
20
46.137442
70
0
0
VERTEX
8
Layer 1
10
22.263758
20
46.663329
70
0
0
SEQEND
8
Layer 1
0
POLYLINE
8
Layer 1
62
7
70
0
10
0.000000
20
0.000000
66
1
0
VERTEX
8
Layer 1
10
18.966817
20
58.832125
70
0
0
VERTEX
8
Layer 1
10
18.536439
20
58.394102
70
0
0
VERTEX
8
Layer 1
10
18.541797
20
57.780112
70
0
0
VERTEX
8
Layer 1
10
18.979737
20
57.349741
70
0
0
VERTEX
8
Layer 1
10
33.856483
20
51.339140
70
0
0
VERTEX
8
Layer 1
10
34.470472
20
51.344498
70
0
0
VERTEX
8
Layer 1
10
34.900844
20
51.782439
70
0
0
VERTEX
8
Layer 1
10
34.895486
20
52.396428
70
0
0
VERTEX
8
Layer 1
10
34.457545
20
52.826800
70
0
0
VERTEX
8
Layer 1
10
19.580799
20
58.837400
70
0
0
VERTEX
8
Layer 1
10
18.966817
20
58.832125
70
0
0
VERTEX
8
Layer 1
10
18.966817
20
58.832125
70
0
0
SEQEND
8
Layer 1
0
POLYLINE
8
Layer 1
62
7
70
0
10
0.000000
20
0.000000
66
1
0
VERTEX
8
Layer 1
10
30.082053
20
54.854152
70
0
0
VERTEX
8
Layer 1
10
29.693100
20
54.456471
70
0
0
VERTEX
8
Layer 1
10
29.656290
20
53.901422
70
0
0
VERTEX
8
Layer 1
10
29.297228
20
53.476545
70
0
0
VERTEX
8
Layer 1
10
29.300819
20
52.920279
70
0
0
VERTEX
8
Layer 1
10
29.738732
20
52.489987
70
0
0
VERTEX
8
Layer 1
10
30.352647
20
52.495310
70
0
0
VERTEX
8
Layer 1
10
31.710289
20
53.071563
70
0
0
VERTEX
8
Layer 1
10
31.134058
20
54.429050
70
0
0
VERTEX
8
Layer 1
10
30.696107
20
54.859503
70
0
0
VERTEX
8
Layer 1
10
30.082053
20
54.854152
70
0
0
VERTEX
8
Layer 1
10
30.082053
20
54.854152
70
0
0
SEQEND
8
Layer 1
0
POLYLINE
8
Layer 1
62
7
70
0
10
0.000000
20
0.000000
66
1
0
VERTEX
8
Layer 1
10
26.305312
20
57.078471
70
0
0
VERTEX
8
Layer 1
10
25.874859
20
56.640519
70
0
0
VERTEX
8
Layer 1
10
25.880210
20
56.026465
70
0
0
VERTEX
8
Layer 1
10
26.187447
20
55.302861
70
0
0
VERTEX
8
Layer 1
10
25.463821
20
54.995780
70
0
0
VERTEX
8
Layer 1
10
25.033368
20
54.557828
70
0
0
VERTEX
8
Layer 1
10
25.038718
20
53.943774
70
0
0
VERTEX
8
Layer 1
10
25.476700
20
53.513424
70
0
0
VERTEX
8
Layer 1
10
26.090702
20
53.518827
70
0
0
VERTEX
8
Layer 1
10
28.291259
20
54.452945
70
0
0
VERTEX
8
Layer 1
10
27.357141
20
56.653502
70
0
0
VERTEX
8
Layer 1
10
26.919227
20
57.083793
70
0
0
VERTEX
8
Layer 1
10
26.305312
20
57.078471
70
0
0
VERTEX
8
Layer 1
10
26.305312
20
57.078471
70
0
0
SEQEND
8
Layer 1
0
POLYLINE
8
Layer 1
62
7
70
0
10
0.000000
20
0.000000
66
1
0
VERTEX
8
Layer 1
10
22.464918
20
60.097970
70
0
0
VERTEX
8
Layer 1
10
22.034569
20
59.659989
70
0
0
VERTEX
8
Layer 1
10
22.039971
20
59.045986
70
0
0
VERTEX
8
Layer 1
10
23.099219
20
56.550669
70
0
0
VERTEX
8
Layer 1
10
20.603747
20
55.491398
70
0
0
VERTEX
8
Layer 1
10
20.173397
20
55.053417
70
0
0
VERTEX
8
Layer 1
10
20.178799
20
54.439415
70
0
0
VERTEX
8
Layer 1
10
20.616714
20
54.009123
70
0
0
VERTEX
8
Layer 1
10
21.230628
20
54.014446
70
0
0
VERTEX
8
Layer 1
10
25.203053
20
55.700598
70
0
0
VERTEX
8
Layer 1
10
23.516902
20
59.673023
70
0
0
VERTEX
8
Layer 1
10
23.078921
20
60.103373
70
0
0
VERTEX
8
Layer 1
10
22.464918
20
60.097970
70
0
0
VERTEX
8
Layer 1
10
22.464918
20
60.097970
70
0
0
SEQEND
8
Layer 1
0
POLYLINE
8
Layer 1
62
7
70
1
10
0.000000
20
0.000000
66
1
0
VERTEX
8
Layer 1
10
31.812322
20
68.766357
70
0
0
VERTEX
8
Layer 1
10
31.283265
20
68.454719
70
0
0
VERTEX
8
Layer 1
10
31.129527
20
67.860258
70
0
0
VERTEX
8
Layer 1
10
33.362567
20
51.971318
70
0
0
VERTEX
8
Layer 1
10
33.674205
20
51.442261
70
0
0
VERTEX
8
Layer 1
10
34.268666
20
51.288523
70
0
0
VERTEX
8
Layer 1
10
34.797723
20
51.600161
70
0
0
VERTEX
8
Layer 1
10
34.951461
20
52.194622
70
0
0
VERTEX
8
Layer 1
10
32.718421
20
68.083562
70
0
0
VERTEX
8
Layer 1
10
32.406783
20
68.612619
70
0
0
VERTEX
8
Layer 1
10
31.812322
20
68.766357
70
0
0
VERTEX
8
Layer 1
10
31.812322
20
68.766357
70
0
0
SEQEND
8
Layer 1
0
POLYLINE
8
Layer 1
62
7
70
0
10
0.000000
20
0.000000
66
1
0
VERTEX
8
Layer 1
10
32.983072
20
57.019009
70
0
0
VERTEX
8
Layer 1
10
32.454083
20
56.707319
70
0
0
VERTEX
8
Layer 1
10
32.300330
20
56.112838
70
0
0
VERTEX
8
Layer 1
10
32.611988
20
55.583766
70
0
0
VERTEX
8
Layer 1
10
33.789740
20
54.696266
70
0
0
VERTEX
8
Layer 1
10
34.677240
20
55.874018
70
0
0
VERTEX
8
Layer 1
10
34.830994
20
56.468499
70
0
0
VERTEX
8
Layer 1
10
34.519336
20
56.997571
70
0
0
VERTEX
8
Layer 1
10
33.980505
20
57.135577
70
0
0
VERTEX
8
Layer 1
10
33.481432
20
56.889995
70
0
0
VERTEX
8
Layer 1
10
32.983072
20
57.019009
70
0
0
VERTEX
8
Layer 1
10
32.983072
20
57.019009
70
0
0
SEQEND
8
Layer 1
0
POLYLINE
8
Layer 1
62
7
70
1
10
0.000000
20
0.000000
66
1
0
VERTEX
8
Layer 1
10
31.738460
20
61.221687
70
0
0
VERTEX
8
Layer 1
10
31.209472
20
60.909997
70
0
0
VERTEX
8
Layer 1
10
31.055785
20
60.315605
70
0
0
VERTEX
8
Layer 1
10
31.367355
20
59.786600
70
0
0
VERTEX
8
Layer 1
10
33.276555
20
58.347774
70
0
0
VERTEX
8
Layer 1
10
34.715203
20
60.257108
70
0
0
VERTEX
8
Layer 1
10
34.868890
20
60.851501
70
0
0
VERTEX
8
Layer 1
10
34.557321
20
61.380506
70
0
0
VERTEX
8
Layer 1
10
33.962928
20
61.534192
70
0
0
VERTEX
8
Layer 1
10
33.433923
20
61.222623
70
0
0
VERTEX
8
Layer 1
10
32.960746
20
60.594880
70
0
0
VERTEX
8
Layer 1
10
32.332869
20
61.067880
70
0
0
VERTEX
8
Layer 1
10
31.738460
20
61.221687
70
0
0
VERTEX
8
Layer 1
10
31.738460
20
61.221687
70
0
0
SEQEND
8
Layer 1
0
POLYLINE
8
Layer 1
62
7
70
0
10
0.000000
20
0.000000
66
1
0
VERTEX
8
Layer 1
10
29.737725
20
65.678390
70
0
0
VERTEX
8
Layer 1
10
29.208736
20
65.366700
70
0
0
VERTEX
8
Layer 1
10
29.055050
20
64.772307
70
0
0
VERTEX
8
Layer 1
10
29.366619
20
64.243302
70
0
0
VERTEX
8
Layer 1
10
32.813003
20
61.646126
70
0
0
VERTEX
8
Layer 1
10
35.410003
20
65.092643
70
0
0
VERTEX
8
Layer 1
10
35.563690
20
65.687035
70
0
0
VERTEX
8
Layer 1
10
35.252120
20
66.216040
70
0
0
VERTEX
8
Layer 1
10
34.657727
20
66.369727
70
0
0
VERTEX
8
Layer 1
10
34.128722
20
66.058157
70
0
0
VERTEX
8
Layer 1
10
32.497215
20
63.893076
70
0
0
VERTEX
8
Layer 1
10
30.332134
20
65.524583
70
0
0
VERTEX
8
Layer 1
10
29.737725
20
65.678390
70
0
0
VERTEX
8
Layer 1
10
29.737725
20
65.678390
70
0
0
SEQEND
8
Layer 1
0
POLYLINE
8
Layer 1
62
7
70
0
10
0.000000
20
0.000000
66
1
0
VERTEX
8
Layer 1
10
46.898456
20
62.757652
70
0
0
VERTEX
8
Layer 1
10
46.306804
20
62.593487
70
0
0
VERTEX
8
Layer 1
10
33.663098
20
52.715148
70
0
0
VERTEX
8
Layer 1
10
33.360748
20
52.180736
70
0
0
VERTEX
8
Layer 1
10
33.524836
20
51.589054
70
0
0
VERTEX
8
Layer 1
10
34.059248
20
51.286704
70
0
0
VERTEX
8
Layer 1
10
34.650930
20
51.450792
70
0
0
VERTEX
8
Layer 1
10
47.294636
20
61.329132
70
0
0
VERTEX
8
Layer 1
10
47.596985
20
61.863544
70
0
0
VERTEX
8
Layer 1
10
47.432897
20
62.455225
70
0
0
VERTEX
8
Layer 1
10
46.898456
20
62.757652
70
0
0
VERTEX
8
Layer 1
10
46.898456
20
62.757652
70
0
0
SEQEND
8
Layer 1
0
POLYLINE
8
Layer 1
62
7
70
0
10
0.000000
20
0.000000
66
1
0
VERTEX
8
Layer 1
10
37.310279
20
55.870010
70
0
0
VERTEX
8
Layer 1
10
36.718538
20
55.705898
70
0
0
VERTEX
8
Layer 1
10
36.416200
20
55.171405
70
0
0
VERTEX
8
Layer 1
10
36.236465
20
53.707674
70
0
0
VERTEX
8
Layer 1
10
37.700351
20
53.527960
70
0
0
VERTEX
8
Layer 1
10
38.291951
20
53.692061
70
0
0
VERTEX
8
Layer 1
10
38.594296
20
54.226389
70
0
0
VERTEX
8
Layer 1
10
38.444420
20
54.762097
70
0
0
VERTEX
8
Layer 1
10
37.982156
20
55.071544
70
0
0
VERTEX
8
Layer 1
10
37.793780
20
55.594945
70
0
0
VERTEX
8
Layer 1
10
37.310279
20
55.870010
70
0
0
VERTEX
8
Layer 1
10
37.310279
20
55.870010
70
0
0
SEQEND
8
Layer 1
0
POLYLINE
8
Layer 1
62
7
70
0
10
0.000000
20
0.000000
66
1
0
VERTEX
8
Layer 1
10
40.327612
20
59.049172
70
0
0
VERTEX
8
Layer 1
10
39.736012
20
58.885071
70
0
0
VERTEX
8
Layer 1
10
39.433666
20
58.350743
70
0
0
VERTEX
8
Layer 1
10
39.142288
20
55.977955
70
0
0
VERTEX
8
Layer 1
10
41.515077
20
55.686577
70
0
0
VERTEX
8
Layer 1
10
42.106783
20
55.850625
70
0
0
VERTEX
8
Layer 1
10
42.409178
20
56.385027
70
0
0
VERTEX
8
Layer 1
10
42.245066
20
56.976769
70
0
0
VERTEX
8
Layer 1
10
41.710572
20
57.279106
70
0
0
VERTEX
8
Layer 1
10
40.930335
20
57.374834
70
0
0
VERTEX
8
Layer 1
10
41.026218
20
58.155093
70
0
0
VERTEX
8
Layer 1
10
40.862105
20
58.746835
70
0
0
VERTEX
8
Layer 1
10
40.327612
20
59.049172
70
0
0
VERTEX
8
Layer 1
10
40.327612
20
59.049172
70
0
0
SEQEND
8
Layer 1
0
POLYLINE
8
Layer 1
62
7
70
0
10
0.000000
20
0.000000
66
1
0
VERTEX
8
Layer 1
10
43.186951
20
63.010256
70
0
0
VERTEX
8
Layer 1
10
42.595244
20
62.846207
70
0
0
VERTEX
8
Layer 1
10
42.292850
20
62.311804
70
0
0
VERTEX
8
Layer 1
10
41.766964
20
58.028498
70
0
0
VERTEX
8
Layer 1
10
46.050270
20
57.502612
70
0
0
VERTEX
8
Layer 1
10
46.641869
20
57.666713
70
0
0
VERTEX
8
Layer 1
10
46.944215
20
58.201041
70
0
0
VERTEX
8
Layer 1
10
46.780167
20
58.792747
70
0
0
VERTEX
8
Layer 1
10
46.245765
20
59.095141
70
0
0
VERTEX
8
Layer 1
10
43.554988
20
59.425533
70
0
0
VERTEX
8
Layer 1
10
43.885402
20
62.116154
70
0
0
VERTEX
8
Layer 1
10
43.721353
20
62.707861
70
0
0
VERTEX
8
Layer 1
10
43.186951
20
63.010256
70
0
0
VERTEX
8
Layer 1
10
43.186951
20
63.010256
70
0
0
SEQEND
8
Layer 1
0
POLYLINE
8
Layer 1
62
7
70
0
10
0.000000
20
0.000000
66
1
0
VERTEX
8
Layer 1
10
33.843562
20
52.821524
70
0
0
VERTEX
8
Layer 1
10
33.413184
20
52.383501
70
0
0
VERTEX
8
Layer 1
10
33.418542
20
51.769512
70
0
0
VERTEX
8
Layer 1
10
33.856483
20
51.339140
70
0
0
VERTEX
8
Layer 1
10
48.733229
20
45.328540
70
0
0
VERTEX
8
Layer 1
10
49.347218
20
45.333897
70
0
0
VERTEX
8
Layer 1
10
49.777589
20
45.771838
70
0
0
VERTEX
8
Layer 1
10
49.772231
20
46.385828
70
0
0
VERTEX
8
Layer 1
10
49.334291
20
46.816199
70
0
0
VERTEX
8
Layer 1
10
34.457545
20
52.826800
70
0
0
VERTEX
8
Layer 1
10
33.843562
20
52.821524
70
0
0
VERTEX
8
Layer 1
10
33.843562
20
52.821524
70
0
0
SEQEND
8
Layer 1
0
POLYLINE
8
Layer 1
62
7
70
0
10
0.000000
20
0.000000
66
1
0
VERTEX
8
Layer 1
10
37.961381
20
51.670630
70
0
0
VERTEX
8
Layer 1
10
36.603739
20
51.094377
70
0
0
VERTEX
8
Layer 1
10
37.179969
20
49.736891
70
0
0
VERTEX
8
Layer 1
10
37.617921
20
49.306438
70
0
0
VERTEX
8
Layer 1
10
38.231975
20
49.311788
70
0
0
VERTEX
8
Layer 1
10
38.620928
20
49.709469
70
0
0
VERTEX
8
Layer 1
10
38.657738
20
50.264518
70
0
0
VERTEX
8
Layer 1
10
39.016800
20
50.689395
70
0
0
VERTEX
8
Layer 1
10
39.013209
20
51.245661
70
0
0
VERTEX
8
Layer 1
10
38.575296
20
51.675953
70
0
0
VERTEX
8
Layer 1
10
37.961381
20
51.670630
70
0
0
VERTEX
8
Layer 1
10
37.961381
20
51.670630
70
0
0
SEQEND
8
Layer 1
0
POLYLINE
8
Layer 1
62
7
70
0
10
0.000000
20
0.000000
66
1
0
VERTEX
8
Layer 1
10
42.223326
20
50.647113
70
0
0
VERTEX
8
Layer 1
10
40.022769
20
49.712995
70
0
0
VERTEX
8
Layer 1
10
40.956887
20
47.512438
70
0
0
VERTEX
8
Layer 1
10
41.394801
20
47.082147
70
0
0
VERTEX
8
Layer 1
10
42.008716
20
47.087469
70
0
0
VERTEX
8
Layer 1
10
42.439169
20
47.525421
70
0
0
VERTEX
8
Layer 1
10
42.433818
20
48.139475
70
0
0
VERTEX
8
Layer 1
10
42.126581
20
48.863079
70
0
0
VERTEX
8
Layer 1
10
42.850207
20
49.170160
70
0
0
VERTEX
8
Layer 1
10
43.280660
20
49.608112
70
0
0
VERTEX
8
Layer 1
10
43.275310
20
50.222166
70
0
0
VERTEX
8
Layer 1
10
42.837328
20
50.652516
70
0
0
VERTEX
8
Layer 1
10
42.223326
20
50.647113
70
0
0
VERTEX
8
Layer 1
10
42.223326
20
50.647113
70
0
0
SEQEND
8
Layer 1
0
POLYLINE
8
Layer 1
62
7
70
0
10
0.000000
20
0.000000
66
1
0
VERTEX
8
Layer 1
10
47.083400
20
50.151494
70
0
0
VERTEX
8
Layer 1
10
43.110975
20
48.465342
70
0
0
VERTEX
8
Layer 1
10
44.797126
20
44.492917
70
0
0
VERTEX
8
Layer 1
10
45.235107
20
44.062567
70
0
0
VERTEX
8
Layer 1
10
45.849110
20
44.067970
70
0
0
VERTEX
8
Layer 1
10
46.279459
20
44.505951
70
0
0
VERTEX
8
Layer 1
10
46.274057
20
45.119954
70
0
0
VERTEX
8
Layer 1
10
45.214809
20
47.615271
70
0
0
VERTEX
8
Layer 1
10
47.710281
20
48.674542
70
0
0
VERTEX
8
Layer 1
10
48.140630
20
49.112523
70
0
0
VERTEX
8
Layer 1
10
48.135228
20
49.726525
70
0
0
VERTEX
8
Layer 1
10
47.697314
20
50.156817
70
0
0
VERTEX
8
Layer 1
10
47.083400
20
50.151494
70
0
0
VERTEX
8
Layer 1
10
47.083400
20
50.151494
70
0
0
SEQEND
8
Layer 1
0
POLYLINE
8
Layer 1
62
7
70
0
10
0.000000
20
0.000000
66
1
0
VERTEX
8
Layer 1
10
24.994410
20
99.222497
70
0
0
VERTEX
8
Layer 1
10
24.669451
20
98.829492
70
0
0
VERTEX
8
Layer 1
10
24.525420
20
98.358725
70
0
0
VERTEX
8
Layer 1
10
24.568425
20
97.868299
70
0
0
VERTEX
8
Layer 1
10
24.804573
20
97.416320
70
0
0
VERTEX
8
Layer 1
10
40.967973
20
77.456180
70
0
0
VERTEX
8
Layer 1
10
41.353215
20
77.135778
70
0
0
VERTEX
8
Layer 1
10
41.831745
20
76.987190
70
0
0
VERTEX
8
Layer 1
10
42.330711
20
77.033038
70
0
0
VERTEX
8
Layer 1
10
42.774150
20
77.266343
70
0
0
VERTEX
8
Layer 1
10
43.099109
20
77.659348
70
0
0
VERTEX
8
Layer 1
10
43.243140
20
78.130115
70
0
0
VERTEX
8
Layer 1
10
43.200135
20
78.620541
70
0
0
VERTEX
8
Layer 1
10
42.963987
20
79.072520
70
0
0
VERTEX
8
Layer 1
10
26.800587
20
99.032660
70
0
0
VERTEX
8
Layer 1
10
26.407582
20
99.357619
70
0
0
VERTEX
8
Layer 1
10
25.936815
20
99.501650
70
0
0
VERTEX
8
Layer 1
10
25.446389
20
99.458645
70
0
0
VERTEX
8
Layer 1
10
24.994410
20
99.222497
70
0
0
VERTEX
8
Layer 1
10
24.994410
20
99.222497
70
0
0
SEQEND
8
Layer 1
0
POLYLINE
8
Layer 1
62
7
70
0
10
0.000000
20
0.000000
66
1
0
VERTEX
8
Layer 1
10
28.604973
20
94.763823
70
0
0
VERTEX
8
Layer 1
10
28.425656
20
93.059438
70
0
0
VERTEX
8
Layer 1
10
28.471565
20
92.560458
70
0
0
VERTEX
8
Layer 1
10
28.704938
20
92.117032
70
0
0
VERTEX
8
Layer 1
10
29.090243
20
91.796675
70
0
0
VERTEX
8
Layer 1
10
29.568817
20
91.648160
70
0
0
VERTEX
8
Layer 1
10
30.191338
20
91.791061
70
0
0
VERTEX
8
Layer 1
10
30.668021
20
92.216181
70
0
0
VERTEX
8
Layer 1
10
31.182958
20
92.594060
70
0
0
VERTEX
8
Layer 1
10
31.452166
20
93.173266
70
0
0
VERTEX
8
Layer 1
10
31.406398
20
93.672259
70
0
0
VERTEX
8
Layer 1
10
31.173150
20
94.115751
70
0
0
VERTEX
8
Layer 1
10
30.787936
20
94.436217
70
0
0
VERTEX
8
Layer 1
10
30.309404
20
94.584867
70
0
0
VERTEX
8
Layer 1
10
28.604973
20
94.763823
70
0
0
SEQEND
8
Layer 1
0
POLYLINE
8
Layer 1
62
7
70
0
10
0.000000
20
0.000000
66
1
0
VERTEX
8
Layer 1
10
30.135602
20
92.873653
70
0
0
VERTEX
8
Layer 1
10
28.777229
20
79.949609
70
0
0
VERTEX
8
Layer 1
10
28.823068
20
79.450622
70
0
0
VERTEX
8
Layer 1
10
29.056378
20
79.007164
70
0
0
VERTEX
8
Layer 1
10
29.441638
20
78.686752
70
0
0
VERTEX
8
Layer 1
10
29.920190
20
78.538170
70
0
0
VERTEX
8
Layer 1
10
30.419177
20
78.584008
70
0
0
VERTEX
8
Layer 1
10
30.862635
20
78.817318
70
0
0
VERTEX
8
Layer 1
10
31.183047
20
79.202578
70
0
0
VERTEX
8
Layer 1
10
31.331630
20
79.681130
70
0
0
VERTEX
8
Layer 1
10
32.421524
20
90.050774
70
0
0
VERTEX
8
Layer 1
10
42.791167
20
88.960879
70
0
0
VERTEX
8
Layer 1
10
43.290154
20
89.006718
70
0
0
VERTEX
8
Layer 1
10
43.733612
20
89.240028
70
0
0
VERTEX
8
Layer 1
10
44.054024
20
89.625288
70
0
0
VERTEX
8
Layer 1
10
44.202606
20
90.103840
70
0
0
VERTEX
8
Layer 1
10
44.156768
20
90.602827
70
0
0
VERTEX
8
Layer 1
10
43.923458
20
91.046286
70
0
0
VERTEX
8
Layer 1
10
43.538198
20
91.366698
70
0
0
VERTEX
8
Layer 1
10
43.059646
20
91.515280
70
0
0
VERTEX
8
Layer 1
10
30.135602
20
92.873653
70
0
0
SEQEND
8
Layer 1
0
POLYLINE
8
Layer 1
62
7
70
0
10
0.000000
20
0.000000
66
1
0
VERTEX
8
Layer 1
10
34.444317
20
87.552832
70
0
0
VERTEX
8
Layer 1
10
33.211748
20
75.825735
70
0
0
VERTEX
8
Layer 1
10
33.259897
20
75.318132
70
0
0
VERTEX
8
Layer 1
10
33.490915
20
74.883466
70
0
0
VERTEX
8
Layer 1
10
33.868051
20
74.567123
70
0
0
VERTEX
8
Layer 1
10
34.354552
20
74.414490
70
0
0
VERTEX
8
Layer 1
10
34.853538
20
74.460329
70
0
0
VERTEX
8
Layer 1
10
35.296996
20
74.693639
70
0
0
VERTEX
8
Layer 1
10
35.617408
20
75.078898
70
0
0
VERTEX
8
Layer 1
10
35.765990
20
75.557450
70
0
0
VERTEX
8
Layer 1
10
36.730238
20
84.729954
70
0
0
VERTEX
8
Layer 1
10
45.902779
20
83.766059
70
0
0
VERTEX
8
Layer 1
10
46.401765
20
83.811897
70
0
0
VERTEX
8
Layer 1
10
46.845223
20
84.045208
70
0
0
VERTEX
8
Layer 1
10
47.165635
20
84.430467
70
0
0
VERTEX
8
Layer 1
10
47.314217
20
84.909019
70
0
0
VERTEX
8
Layer 1
10
47.266069
20
85.416622
70
0
0
VERTEX
8
Layer 1
10
47.035050
20
85.851288
70
0
0
VERTEX
8
Layer 1
10
46.657914
20
86.167630
70
0
0
VERTEX
8
Layer 1
10
46.171414
20
86.320264
70
0
0
VERTEX
8
Layer 1
10
34.444317
20
87.552832
70
0
0
SEQEND
8
Layer 1
0
POLYLINE
8
Layer 1
62
7
70
0
10
0.000000
20
0.000000
66
1
0
VERTEX
8
Layer 1
10
25.280148
20
99.397726
70
0
0
VERTEX
8
Layer 1
10
24.871005
20
99.108487
70
0
0
VERTEX
8
Layer 1
10
24.603688
20
98.684695
70
0
0
VERTEX
8
Layer 1
10
15.399400
20
74.706710
70
0
0
VERTEX
8
Layer 1
10
15.314486
20
74.203883
70
0
0
VERTEX
8
Layer 1
10
15.425138
20
73.724177
70
0
0
VERTEX
8
Layer 1
10
15.707593
20
73.320963
70
0
0
VERTEX
8
Layer 1
10
16.138088
20
73.047614
70
0
0
VERTEX
8
Layer 1
10
16.640915
20
72.962700
70
0
0
VERTEX
8
Layer 1
10
17.120621
20
73.073351
70
0
0
VERTEX
8
Layer 1
10
17.523834
20
73.355806
70
0
0
VERTEX
8
Layer 1
10
17.797183
20
73.786300
70
0
0
VERTEX
8
Layer 1
10
27.001472
20
97.764285
70
0
0
VERTEX
8
Layer 1
10
27.086386
20
98.267112
70
0
0
VERTEX
8
Layer 1
10
26.975735
20
98.746819
70
0
0
VERTEX
8
Layer 1
10
26.693280
20
99.150032
70
0
0
VERTEX
8
Layer 1
10
26.262785
20
99.423382
70
0
0
VERTEX
8
Layer 1
10
25.768915
20
99.508293
70
0
0
VERTEX
8
Layer 1
10
25.280148
20
99.397726
70
0
0
VERTEX
8
Layer 1
10
25.280148
20
99.397726
70
0
0
SEQEND
8
Layer 1
0
POLYLINE
8
Layer 1
62
7
70
0
10
0.000000
20
0.000000
66
1
0
VERTEX
8
Layer 1
10
22.641109
20
93.370317
70
0
0
VERTEX
8
Layer 1
10
22.231873
20
93.081102
70
0
0
VERTEX
8
Layer 1
10
21.964483
20
92.657284
70
0
0
VERTEX
8
Layer 1
10
21.879655
20
92.163398
70
0
0
VERTEX
8
Layer 1
10
21.990305
20
91.674649
70
0
0
VERTEX
8
Layer 1
10
22.305383
20
91.256969
70
0
0
VERTEX
8
Layer 1
10
22.760911
20
90.999627
70
0
0
VERTEX
8
Layer 1
10
22.557359
20
91.457046
70
0
0
VERTEX
8
Layer 1
10
23.032017
20
91.006800
70
0
0
VERTEX
8
Layer 1
10
23.685814
20
91.024040
70
0
0
VERTEX
8
Layer 1
10
23.228554
20
90.820293
70
0
0
VERTEX
8
Layer 1
10
23.739328
20
90.706673
70
0
0
VERTEX
8
Layer 1
10
24.253027
20
90.806241
70
0
0
VERTEX
8
Layer 1
10
24.668546
20
91.101741
70
0
0
VERTEX
8
Layer 1
10
24.929467
20
91.519141
70
0
0
VERTEX
8
Layer 1
10
25.014859
20
92.003919
70
0
0
VERTEX
8
Layer 1
10
24.903794
20
92.501555
70
0
0
VERTEX
8
Layer 1
10
24.206831
20
94.067279
70
0
0
VERTEX
8
Layer 1
10
22.641109
20
93.370317
70
0
0
SEQEND
8
Layer 1
0
POLYLINE
8
Layer 1
62
7
70
0
10
0.000000
20
0.000000
66
1
0
VERTEX
8
Layer 1
10
11.463421
20
86.510882
70
0
0
VERTEX
8
Layer 1
10
11.054201
20
86.221721
70
0
0
VERTEX
8
Layer 1
10
10.786791
20
85.797967
70
0
0
VERTEX
8
Layer 1
10
10.701902
20
85.304136
70
0
0
VERTEX
8
Layer 1
10
10.812458
20
84.815410
70
0
0
VERTEX
8
Layer 1
10
11.101620
20
84.406190
70
0
0
VERTEX
8
Layer 1
10
11.525374
20
84.138780
70
0
0
VERTEX
8
Layer 1
10
12.019205
20
84.053891
70
0
0
VERTEX
8
Layer 1
10
12.507931
20
84.164447
70
0
0
VERTEX
8
Layer 1
10
22.033494
20
88.405368
70
0
0
VERTEX
8
Layer 1
10
26.274450
20
78.880158
70
0
0
VERTEX
8
Layer 1
10
26.563612
20
78.470938
70
0
0
VERTEX
8
Layer 1
10
26.987366
20
78.203528
70
0
0
VERTEX
8
Layer 1
10
27.481198
20
78.118639
70
0
0
VERTEX
8
Layer 1
10
27.969923
20
78.229196
70
0
0
VERTEX
8
Layer 1
10
28.379159
20
78.518411
70
0
0
VERTEX
8
Layer 1
10
28.646548
20
78.942229
70
0
0
VERTEX
8
Layer 1
10
28.731377
20
79.436114
70
0
0
VERTEX
8
Layer 1
10
28.620727
20
79.924863
70
0
0
VERTEX
8
Layer 1
10
23.335065
20
91.796351
70
0
0
VERTEX
8
Layer 1
10
11.463421
20
86.510882
70
0
0
SEQEND
8
Layer 1
0
POLYLINE
8
Layer 1
62
7
70
0
10
0.000000
20
0.000000
66
1
0
VERTEX
8
Layer 1
10
10.109422
20
80.608776
70
0
0
VERTEX
8
Layer 1
10
9.700186
20
80.319561
70
0
0
VERTEX
8
Layer 1
10
9.432796
20
79.895743
70
0
0
VERTEX
8
Layer 1
10
9.347967
20
79.401857
70
0
0
VERTEX
8
Layer 1
10
9.458617
20
78.913108
70
0
0
VERTEX
8
Layer 1
10
9.747779
20
78.503888
70
0
0
VERTEX
8
Layer 1
10
10.171532
20
78.236478
70
0
0
VERTEX
8
Layer 1
10
10.665364
20
78.151589
70
0
0
VERTEX
8
Layer 1
10
11.154089
20
78.262146
70
0
0
VERTEX
8
Layer 1
10
19.579786
20
82.013583
70
0
0
VERTEX
8
Layer 1
10
23.331223
20
73.587887
70
0
0
VERTEX
8
Layer 1
10
23.620385
20
73.178667
70
0
0
VERTEX
8
Layer 1
10
24.044139
20
72.911256
70
0
0
VERTEX
8
Layer 1
10
24.537970
20
72.826367
70
0
0
VERTEX
8
Layer 1
10
25.026696
20
72.936924
70
0
0
VERTEX
8
Layer 1
10
25.435932
20
73.226139
70
0
0
VERTEX
8
Layer 1
10
25.703322
20
73.649957
70
0
0
VERTEX
8
Layer 1
10
25.788150
20
74.143843
70
0
0
VERTEX
8
Layer 1
10
25.677500
20
74.632592
70
0
0
VERTEX
8
Layer 1
10
20.881552
20
85.404723
70
0
0
VERTEX
8
Layer 1
10
10.109422
20
80.608776
70
0
0
SEQEND
8
Layer 1
0
POLYLINE
8
Layer 1
62
7
70
0
10
0.000000
20
0.000000
66
1
0
VERTEX
8
Layer 1
10
-0.604087
20
94.961590
70
0
0
VERTEX
8
Layer 1
10
-0.813857
20
94.506493
70
0
0
VERTEX
8
Layer 1
10
-0.833482
20
94.005761
70
0
0
VERTEX
8
Layer 1
10
-0.655612
20
93.527841
70
0
0
VERTEX
8
Layer 1
10
-0.319935
20
93.167726
70
0
0
VERTEX
8
Layer 1
10
0.126283
20
92.959755
70
0
0
VERTEX
8
Layer 1
10
0.635776
20
92.938270
70
0
0
VERTEX
8
Layer 1
10
26.003465
20
96.956115
70
0
0
VERTEX
8
Layer 1
10
26.481385
20
97.133986
70
0
0
VERTEX
8
Layer 1
10
26.841500
20
97.469663
70
0
0
VERTEX
8
Layer 1
10
27.049470
20
97.915881
70
0
0
VERTEX
8
Layer 1
10
27.070955
20
98.425375
70
0
0
VERTEX
8
Layer 1
10
26.893084
20
98.903295
70
0
0
VERTEX
8
Layer 1
10
26.557407
20
99.263410
70
0
0
VERTEX
8
Layer 1
10
26.111189
20
99.471380
70
0
0
VERTEX
8
Layer 1
10
25.601695
20
99.492865
70
0
0
VERTEX
8
Layer 1
10
0.234007
20
95.475020
70
0
0
VERTEX
8
Layer 1
10
-0.236102
20
95.301657
70
0
0
VERTEX
8
Layer 1
10
-0.604087
20
94.961590
70
0
0
VERTEX
8
Layer 1
10
-0.604087
20
94.961590
70
0
0
SEQEND
8
Layer 1
0
POLYLINE
8
Layer 1
62
7
70
0
10
0.000000
20
0.000000
66
1
0
VERTEX
8
Layer 1
10
18.224268
20
98.251140
70
0
0
VERTEX
8
Layer 1
10
18.020072
20
97.769368
70
0
0
VERTEX
8
Layer 1
10
18.025012
20
97.246133
70
0
0
VERTEX
8
Layer 1
10
18.319377
20
97.651040
70
0
0
VERTEX
8
Layer 1
10
18.166581
20
97.015113
70
0
0
VERTEX
8
Layer 1
10
18.508302
20
96.457217
70
0
0
VERTEX
8
Layer 1
10
18.103199
20
96.751423
70
0
0
VERTEX
8
Layer 1
10
18.260208
20
96.252345
70
0
0
VERTEX
8
Layer 1
10
18.603251
20
95.857312
70
0
0
VERTEX
8
Layer 1
10
19.058315
20
95.647463
70
0
0
VERTEX
8
Layer 1
10
19.559045
20
95.627753
70
0
0
VERTEX
8
Layer 1
10
20.029195
20
95.801183
70
0
0
VERTEX
8
Layer 1
10
20.397175
20
96.141345
70
0
0
VERTEX
8
Layer 1
10
21.404439
20
97.527946
70
0
0
VERTEX
8
Layer 1
10
20.017837
20
98.535210
70
0
0
VERTEX
8
Layer 1
10
19.554167
20
98.747313
70
0
0
VERTEX
8
Layer 1
10
19.062229
20
98.764578
70
0
0
VERTEX
8
Layer 1
10
18.599702
20
98.596142
70
0
0
VERTEX
8
Layer 1
10
18.224268
20
98.251140
70
0
0
VERTEX
8
Layer 1
10
18.224268
20
98.251140
70
0
0
SEQEND
8
Layer 1
0
POLYLINE
8
Layer 1
62
7
70
1
10
0.000000
20
0.000000
66
1
0
VERTEX
8
Layer 1
10
6.694848
20
104.501730
70
0
0
VERTEX
8
Layer 1
10
6.485095
20
104.046670
70
0
0
VERTEX
8
Layer 1
10
6.465456
20
103.545981
70
0
0
VERTEX
8
Layer 1
10
6.638919
20
103.075889
70
0
0
VERTEX
8
Layer 1
10
6.979076
20
102.707964
70
0
0
VERTEX
8
Layer 1
10
15.414392
20
96.579279
70
0
0
VERTEX
8
Layer 1
10
9.285668
20
88.143611
70
0
0
VERTEX
8
Layer 1
10
9.075916
20
87.688551
70
0
0
VERTEX
8
Layer 1
10
9.056276
20
87.187862
70
0
0
VERTEX
8
Layer 1
10
9.229740
20
86.717770
70
0
0
VERTEX
8
Layer 1
10
9.569897
20
86.349846
70
0
0
VERTEX
8
Layer 1
10
10.024957
20
86.140093
70
0
0
VERTEX
8
Layer 1
10
10.525646
20
86.120454
70
0
0
VERTEX
8
Layer 1
10
10.995738
20
86.293917
70
0
0
VERTEX
8
Layer 1
10
11.363662
20
86.634074
70
0
0
VERTEX
8
Layer 1
10
19.001885
20
97.147383
70
0
0
VERTEX
8
Layer 1
10
8.488771
20
104.785763
70
0
0
VERTEX
8
Layer 1
10
8.033708
20
104.995611
70
0
0
VERTEX
8
Layer 1
10
7.532978
20
105.015321
70
0
0
VERTEX
8
Layer 1
10
7.062828
20
104.841892
70
0
0
VERTEX
8
Layer 1
10
6.694848
20
104.501730
70
0
0
VERTEX
8
Layer 1
10
6.694848
20
104.501730
70
0
0
SEQEND
8
Layer 1
0
POLYLINE
8
Layer 1
62
7
70
0
10
0.000000
20
0.000000
66
1
0
VERTEX
8
Layer 1
10
0.906293
20
102.723145
70
0
0
VERTEX
8
Layer 1
10
0.696541
20
102.268085
70
0
0
VERTEX
8
Layer 1
10
0.676901
20
101.767396
70
0
0
VERTEX
8
Layer 1
10
0.850365
20
101.297305
70
0
0
VERTEX
8
Layer 1
10
1.190522
20
100.929380
70
0
0
VERTEX
8
Layer 1
10
8.652128
20
95.508119
70
0
0
VERTEX
8
Layer 1
10
3.230867
20
88.046512
70
0
0
VERTEX
8
Layer 1
10
3.021114
20
87.591453
70
0
0
VERTEX
8
Layer 1
10
3.001475
20
87.090763
70
0
0
VERTEX
8
Layer 1
10
3.174938
20
86.620672
70
0
0
VERTEX
8
Layer 1
10
3.515095
20
86.252747
70
0
0
VERTEX
8
Layer 1
10
3.970159
20
86.042899
70
0
0
VERTEX
8
Layer 1
10
4.470889
20
86.023189
70
0
0
VERTEX
8
Layer 1
10
4.941039
20
86.196620
70
0
0
VERTEX
8
Layer 1
10
5.309018
20
86.536781
70
0
0
VERTEX
8
Layer 1
10
12.239816
20
96.076380
70
0
0
VERTEX
8
Layer 1
10
2.700217
20
103.007178
70
0
0
VERTEX
8
Layer 1
10
2.245153
20
103.217027
70
0
0
VERTEX
8
Layer 1
10
1.744423
20
103.236737
70
0
0
VERTEX
8
Layer 1
10
1.274273
20
103.063307
70
0
0
VERTEX
8
Layer 1
10
0.906293
20
102.723145
70
0
0
VERTEX
8
Layer 1
10
0.906293
20
102.723145
70
0
0
SEQEND
8
Layer 1
0
POLYLINE
8
Layer 1
62
7
70
1
10
0.000000
20
0.000000
66
1
0
VERTEX
8
Layer 1
10
8.831010
20
119.182637
70
0
0
VERTEX
8
Layer 1
10
8.506051
20
118.789632
70
0
0
VERTEX
8
Layer 1
10
8.362020
20
118.318865
70
0
0
VERTEX
8
Layer 1
10
8.405025
20
117.828439
70
0
0
VERTEX
8
Layer 1
10
8.641173
20
117.376460
70
0
0
VERTEX
8
Layer 1
10
24.804573
20
97.416320
70
0
0
VERTEX
8
Layer 1
10
25.197578
20
97.091361
70
0
0
VERTEX
8
Layer 1
10
25.668345
20
96.947330
70
0
0
VERTEX
8
Layer 1
10
26.158771
20
96.990335
70
0
0
VERTEX
8
Layer 1
10
26.610750
20
97.226483
70
0
0
VERTEX
8
Layer 1
10
26.931152
20
97.611725
70
0
0
VERTEX
8
Layer 1
10
27.079740
20
98.090255
70
0
0
VERTEX
8
Layer 1
10
27.033892
20
98.589221
70
0
0
VERTEX
8
Layer 1
10
26.800587
20
99.032660
70
0
0
VERTEX
8
Layer 1
10
10.637187
20
118.992800
70
0
0
VERTEX
8
Layer 1
10
10.244182
20
119.317759
70
0
0
VERTEX
8
Layer 1
10
9.773415
20
119.461790
70
0
0
VERTEX
8
Layer 1
10
9.282989
20
119.418785
70
0
0
VERTEX
8
Layer 1
10
8.831010
20
119.182637
70
0
0
VERTEX
8
Layer 1
10
8.831010
20
119.182637
70
0
0
SEQEND
8
Layer 1
0
POLYLINE
8
Layer 1
62
7
70
0
10
0.000000
20
0.000000
66
1
0
VERTEX
8
Layer 1
10
20.621854
20
104.139504
70
0
0
VERTEX
8
Layer 1
10
20.301523
20
103.754239
70
0
0
VERTEX
8
Layer 1
10
20.152999
20
103.275718
70
0
0
VERTEX
8
Layer 1
10
20.198767
20
102.776725
70
0
0
VERTEX
8
Layer 1
10
20.432015
20
102.333234
70
0
0
VERTEX
8
Layer 1
10
20.817229
20
102.012767
70
0
0
VERTEX
8
Layer 1
10
21.295761
20
101.864117
70
0
0
VERTEX
8
Layer 1
10
23.000182
20
101.685153
70
0
0
VERTEX
8
Layer 1
10
23.179499
20
103.389538
70
0
0
VERTEX
8
Layer 1
10
23.133590
20
103.888518
70
0
0
VERTEX
8
Layer 1
10
22.900217
20
104.331944
70
0
0
VERTEX
8
Layer 1
10
22.514912
20
104.652301
70
0
0
VERTEX
8
Layer 1
10
22.036338
20
104.800816
70
0
0
VERTEX
8
Layer 1
10
21.413817
20
104.657915
70
0
0
VERTEX
8
Layer 1
10
20.937134
20
104.232796
70
0
0
VERTEX
8
Layer 1
10
20.621844
20
104.139496
70
0
0
VERTEX
8
Layer 1
10
20.621854
20
104.139504
70
0
0
SEQEND
8
Layer 1
0
POLYLINE
8
Layer 1
62
7
70
0
10
0.000000
20
0.000000
66
1
0
VERTEX
8
Layer 1
10
7.871407
20
107.208926
70
0
0
VERTEX
8
Layer 1
10
7.551076
20
106.823660
70
0
0
VERTEX
8
Layer 1
10
7.402554
20
106.345140
70
0
0
VERTEX
8
Layer 1
10
7.448392
20
105.846153
70
0
0
VERTEX
8
Layer 1
10
7.681702
20
105.402694
70
0
0
VERTEX
8
Layer 1
10
8.066962
20
105.082282
70
0
0
VERTEX
8
Layer 1
10
8.545514
20
104.933700
70
0
0
VERTEX
8
Layer 1
10
21.469558
20
103.575327
70
0
0
VERTEX
8
Layer 1
10
22.827931
20
116.499371
70
0
0
VERTEX
8
Layer 1
10
22.782092
20
116.998358
70
0
0
VERTEX
8
Layer 1
10
22.548782
20
117.441816
70
0
0
VERTEX
8
Layer 1
10
22.163522
20
117.762228
70
0
0
VERTEX
8
Layer 1
10
21.684970
20
117.910810
70
0
0
VERTEX
8
Layer 1
10
21.185983
20
117.864972
70
0
0
VERTEX
8
Layer 1
10
20.742525
20
117.631662
70
0
0
VERTEX
8
Layer 1
10
20.422113
20
117.246402
70
0
0
VERTEX
8
Layer 1
10
20.273530
20
116.767850
70
0
0
VERTEX
8
Layer 1
10
19.183636
20
106.398206
70
0
0
VERTEX
8
Layer 1
10
8.813993
20
107.488101
70
0
0
VERTEX
8
Layer 1
10
8.314929
20
107.442278
70
0
0
VERTEX
8
Layer 1
10
7.871407
20
107.208926
70
0
0
VERTEX
8
Layer 1
10
7.871407
20
107.208926
70
0
0
SEQEND
8
Layer 1
0
POLYLINE
8
Layer 1
62
7
70
0
10
0.000000
20
0.000000
66
1
0
VERTEX
8
Layer 1
10
4.759991
20
112.403904
70
0
0
VERTEX
8
Layer 1
10
4.439526
20
112.018592
70
0
0
VERTEX
8
Layer 1
10
4.290943
20
111.539961
70
0
0
VERTEX
8
Layer 1
10
4.339091
20
111.032358
70
0
0
VERTEX
8
Layer 1
10
4.570110
20
110.597692
70
0
0
VERTEX
8
Layer 1
10
4.947246
20
110.281350
70
0
0
VERTEX
8
Layer 1
10
5.433746
20
110.128716
70
0
0
VERTEX
8
Layer 1
10
17.160843
20
108.896148
70
0
0
VERTEX
8
Layer 1
10
18.393412
20
120.623245
70
0
0
VERTEX
8
Layer 1
10
18.345263
20
121.130848
70
0
0
VERTEX
8
Layer 1
10
18.114245
20
121.565514
70
0
0
VERTEX
8
Layer 1
10
17.737109
20
121.881857
70
0
0
VERTEX
8
Layer 1
10
17.250608
20
122.034490
70
0
0
VERTEX
8
Layer 1
10
16.751622
20
121.988651
70
0
0
VERTEX
8
Layer 1
10
16.308164
20
121.755341
70
0
0
VERTEX
8
Layer 1
10
15.987752
20
121.370082
70
0
0
VERTEX
8
Layer 1
10
15.839170
20
120.891530
70
0
0
VERTEX
8
Layer 1
10
14.874922
20
111.719026
70
0
0
VERTEX
8
Layer 1
10
5.702381
20
112.682921
70
0
0
VERTEX
8
Layer 1
10
5.203438
20
112.637134
70
0
0
VERTEX
8
Layer 1
10
4.759991
20
112.403904
70
0
0
VERTEX
8
Layer 1
10
4.759991
20
112.403904
70
0
0
SEQEND
8
Layer 1
0
POLYLINE
8
Layer 1
62
7
70
0
10
0.000000
20
0.000000
66
1
0
VERTEX
8
Layer 1
10
34.484436
20
123.375711
70
0
0
VERTEX
8
Layer 1
10
34.075293
20
123.086472
70
0
0
VERTEX
8
Layer 1
10
33.807977
20
122.662680
70
0
0
VERTEX
8
Layer 1
10
24.603688
20
98.684695
70
0
0
VERTEX
8
Layer 1
10
24.518774
20
98.181868
70
0
0
VERTEX
8
Layer 1
10
24.629425
20
97.702161
70
0
0
VERTEX
8
Layer 1
10
24.911880
20
97.298948
70
0
0
VERTEX
8
Layer 1
10
25.342375
20
97.025598
70
0
0
VERTEX
8
Layer 1
10
25.845202
20
96.940684
70
0
0
VERTEX
8
Layer 1
10
26.324909
20
97.051335
70
0
0
VERTEX
8
Layer 1
10
26.728122
20
97.333790
70
0
0
VERTEX
8
Layer 1
10
27.001472
20
97.764285
70
0
0
VERTEX
8
Layer 1
10
36.205760
20
121.742270
70
0
0
VERTEX
8
Layer 1
10
36.290674
20
122.245097
70
0
0
VERTEX
8
Layer 1
10
36.180022
20
122.724803
70
0
0
VERTEX
8
Layer 1
10
35.897567
20
123.128017
70
0
0
VERTEX
8
Layer 1
10
35.467072
20
123.401366
70
0
0
VERTEX
8
Layer 1
10
34.973203
20
123.486277
70
0
0
VERTEX
8
Layer 1
10
34.484436
20
123.375711
70
0
0
VERTEX
8
Layer 1
10
34.484436
20
123.375711
70
0
0
SEQEND
8
Layer 1
0
POLYLINE
8
Layer 1
62
7
70
0
10
0.000000
20
0.000000
66
1
0
VERTEX
8
Layer 1
10
27.352133
20
105.642739
70
0
0
VERTEX
8
Layer 1
10
26.936613
20
105.347239
70
0
0
VERTEX
8
Layer 1
10
26.675692
20
104.929839
70
0
0
VERTEX
8
Layer 1
10
26.590300
20
104.445060
70
0
0
VERTEX
8
Layer 1
10
26.701365
20
103.947424
70
0
0
VERTEX
8
Layer 1
10
27.398329
20
102.381701
70
0
0
VERTEX
8
Layer 1
10
28.964051
20
103.078663
70
0
0
VERTEX
8
Layer 1
10
29.373287
20
103.367878
70
0
0
VERTEX
8
Layer 1
10
29.640677
20
103.791696
70
0
0
VERTEX
8
Layer 1
10
29.725505
20
104.285582
70
0
0
VERTEX
8
Layer 1
10
29.614855
20
104.774331
70
0
0
VERTEX
8
Layer 1
10
29.299777
20
105.192011
70
0
0
VERTEX
8
Layer 1
10
28.844249
20
105.449353
70
0
0
VERTEX
8
Layer 1
10
29.047801
20
104.991934
70
0
0
VERTEX
8
Layer 1
10
28.573143
20
105.442180
70
0
0
VERTEX
8
Layer 1
10
27.919346
20
105.424940
70
0
0
VERTEX
8
Layer 1
10
28.376606
20
105.628687
70
0
0
VERTEX
8
Layer 1
10
27.865832
20
105.742307
70
0
0
VERTEX
8
Layer 1
10
27.352133
20
105.642739
70
0
0
VERTEX
8
Layer 1
10
27.352133
20
105.642739
70
0
0
SEQEND
8
Layer 1
0
POLYLINE
8
Layer 1
62
7
70
1
10
0.000000
20
0.000000
66
1
0
VERTEX
8
Layer 1
10
23.635237
20
118.219784
70
0
0
VERTEX
8
Layer 1
10
23.226001
20
117.930569
70
0
0
VERTEX
8
Layer 1
10
22.958612
20
117.506751
70
0
0
VERTEX
8
Layer 1
10
22.873783
20
117.012866
70
0
0
VERTEX
8
Layer 1
10
22.984433
20
116.524117
70
0
0
VERTEX
8
Layer 1
10
28.270095
20
104.652629
70
0
0
VERTEX
8
Layer 1
10
40.141739
20
109.938098
70
0
0
VERTEX
8
Layer 1
10
40.550959
20
110.227259
70
0
0
VERTEX
8
Layer 1
10
40.818369
20
110.651013
70
0
0
VERTEX
8
Layer 1
10
40.903258
20
111.144844
70
0
0
VERTEX
8
Layer 1
10
40.792702
20
111.633570
70
0
0
VERTEX
8
Layer 1
10
40.503540
20
112.042790
70
0
0
VERTEX
8
Layer 1
10
40.079786
20
112.310200
70
0
0
VERTEX
8
Layer 1
10
39.585955
20
112.395089
70
0
0
VERTEX
8
Layer 1
10
39.097229
20
112.284533
70
0
0
VERTEX
8
Layer 1
10
29.571666
20
108.043612
70
0
0
VERTEX
8
Layer 1
10
25.330710
20
117.568822
70
0
0
VERTEX
8
Layer 1
10
25.041548
20
117.978042
70
0
0
VERTEX
8
Layer 1
10
24.617794
20
118.245452
70
0
0
VERTEX
8
Layer 1
10
24.123962
20
118.330341
70
0
0
VERTEX
8
Layer 1
10
23.635237
20
118.219784
70
0
0
VERTEX
8
Layer 1
10
23.635237
20
118.219784
70
0
0
SEQEND
8
Layer 1
0
POLYLINE
8
Layer 1
62
7
70
0
10
0.000000
20
0.000000
66
1
0
VERTEX
8
Layer 1
10
26.578464
20
123.512056
70
0
0
VERTEX
8
Layer 1
10
26.169228
20
123.222841
70
0
0
VERTEX
8
Layer 1
10
25.901838
20
122.799023
70
0
0
VERTEX
8
Layer 1
10
25.817010
20
122.305137
70
0
0
VERTEX
8
Layer 1
10
25.927660
20
121.816388
70
0
0
VERTEX
8
Layer 1
10
30.723608
20
111.044257
70
0
0
VERTEX
8
Layer 1
10
41.495738
20
115.840204
70
0
0
VERTEX
8
Layer 1
10
41.904974
20
116.129419
70
0
0
VERTEX
8
Layer 1
10
42.172364
20
116.553237
70
0
0
VERTEX
8
Layer 1
10
42.257193
20
117.047123
70
0
0
VERTEX
8
Layer 1
10
42.146543
20
117.535872
70
0
0
VERTEX
8
Layer 1
10
41.857381
20
117.945092
70
0
0
VERTEX
8
Layer 1
10
41.433628
20
118.212502
70
0
0
VERTEX
8
Layer 1
10
40.939796
20
118.297391
70
0
0
VERTEX
8
Layer 1
10
40.451071
20
118.186834
70
0
0
VERTEX
8
Layer 1
10
32.025374
20
114.435397
70
0
0
VERTEX
8
Layer 1
10
28.273937
20
122.861093
70
0
0
VERTEX
8
Layer 1
10
27.984775
20
123.270313
70
0
0
VERTEX
8
Layer 1
10
27.561021
20
123.537724
70
0
0
VERTEX
8
Layer 1
10
27.067190
20
123.622613
70
0
0
VERTEX
8
Layer 1
10
26.578464
20
123.512056
70
0
0
VERTEX
8
Layer 1
10
26.578464
20
123.512056
70
0
0
SEQEND
8
Layer 1
0
POLYLINE
8
Layer 1
62
7
70
0
10
0.000000
20
0.000000
66
1
0
VERTEX
8
Layer 1
10
24.763602
20
98.979435
70
0
0
VERTEX
8
Layer 1
10
24.553831
20
98.524338
70
0
0
VERTEX
8
Layer 1
10
24.534205
20
98.023605
70
0
0
VERTEX
8
Layer 1
10
24.712076
20
97.545685
70
0
0
VERTEX
8
Layer 1
10
25.047753
20
97.185570
70
0
0
VERTEX
8
Layer 1
10
25.493971
20
96.977600
70
0
0
VERTEX
8
Layer 1
10
26.003465
20
96.956115
70
0
0
VERTEX
8
Layer 1
10
51.371153
20
100.973960
70
0
0
VERTEX
8
Layer 1
10
51.849072
20
101.151831
70
0
0
VERTEX
8
Layer 1
10
52.209187
20
101.487508
70
0
0
VERTEX
8
Layer 1
10
52.417157
20
101.933725
70
0
0
VERTEX
8
Layer 1
10
52.438642
20
102.443219
70
0
0
VERTEX
8
Layer 1
10
52.260772
20
102.921139
70
0
0
VERTEX
8
Layer 1
10
51.925095
20
103.281254
70
0
0
VERTEX
8
Layer 1
10
51.478877
20
103.489225
70
0
0
VERTEX
8
Layer 1
10
50.969384
20
103.510710
70
0
0
VERTEX
8
Layer 1
10
25.601695
20
99.492865
70
0
0
VERTEX
8
Layer 1
10
25.131586
20
99.319502
70
0
0
VERTEX
8
Layer 1
10
24.763602
20
98.979435
70
0
0
VERTEX
8
Layer 1
10
24.763602
20
98.979435
70
0
0
SEQEND
8
Layer 1
0
POLYLINE
8
Layer 1
62
7
70
0
10
0.000000
20
0.000000
66
1
0
VERTEX
8
Layer 1
10
31.207985
20
100.307635
70
0
0
VERTEX
8
Layer 1
10
30.200721
20
98.921034
70
0
0
VERTEX
8
Layer 1
10
31.587322
20
97.913769
70
0
0
VERTEX
8
Layer 1
10
32.050992
20
97.701666
70
0
0
VERTEX
8
Layer 1
10
32.542931
20
97.684401
70
0
0
VERTEX
8
Layer 1
10
33.005458
20
97.852838
70
0
0
VERTEX
8
Layer 1
10
33.380892
20
98.197840
70
0
0
VERTEX
8
Layer 1
10
33.585088
20
98.679612
70
0
0
VERTEX
8
Layer 1
10
33.580148
20
99.202847
70
0
0
VERTEX
8
Layer 1
10
33.285783
20
98.797940
70
0
0
VERTEX
8
Layer 1
10
33.438579
20
99.433867
70
0
0
VERTEX
8
Layer 1
10
33.096858
20
99.991763
70
0
0
VERTEX
8
Layer 1
10
33.501961
20
99.697557
70
0
0
VERTEX
8
Layer 1
10
33.344952
20
100.196635
70
0
0
VERTEX
8
Layer 1
10
33.001909
20
100.591668
70
0
0
VERTEX
8
Layer 1
10
32.546845
20
100.801517
70
0
0
VERTEX
8
Layer 1
10
32.046115
20
100.821227
70
0
0
VERTEX
8
Layer 1
10
31.575965
20
100.647797
70
0
0
VERTEX
8
Layer 1
10
31.207985
20
100.307635
70
0
0
VERTEX
8
Layer 1
10
31.207985
20
100.307635
70
0
0
SEQEND
8
Layer 1
0
POLYLINE
8
Layer 1
62
7
70
0
10
0.000000
20
0.000000
66
1
0
VERTEX
8
Layer 1
10
40.241498
20
109.814906
70
0
0
VERTEX
8
Layer 1
10
32.603275
20
99.301597
70
0
0
VERTEX
8
Layer 1
10
43.116389
20
91.663217
70
0
0
VERTEX
8
Layer 1
10
43.571452
20
91.453369
70
0
0
VERTEX
8
Layer 1
10
44.072182
20
91.433659
70
0
0
VERTEX
8
Layer 1
10
44.542332
20
91.607088
70
0
0
VERTEX
8
Layer 1
10
44.910312
20
91.947250
70
0
0
VERTEX
8
Layer 1
10
45.120065
20
92.402310
70
0
0
VERTEX
8
Layer 1
10
45.139704
20
92.902999
70
0
0
VERTEX
8
Layer 1
10
44.966241
20
93.373091
70
0
0
VERTEX
8
Layer 1
10
44.626084
20
93.741016
70
0
0
VERTEX
8
Layer 1
10
36.190768
20
99.869701
70
0
0
VERTEX
8
Layer 1
10
42.319492
20
108.305369
70
0
0
VERTEX
8
Layer 1
10
42.529244
20
108.760429
70
0
0
VERTEX
8
Layer 1
10
42.548884
20
109.261118
70
0
0
VERTEX
8
Layer 1
10
42.375420
20
109.731210
70
0
0
VERTEX
8
Layer 1
10
42.035263
20
110.099134
70
0
0
VERTEX
8
Layer 1
10
41.580203
20
110.308887
70
0
0
VERTEX
8
Layer 1
10
41.079514
20
110.328526
70
0
0
VERTEX
8
Layer 1
10
40.609422
20
110.155063
70
0
0
VERTEX
8
Layer 1
10
40.241498
20
109.814906
70
0
0
VERTEX
8
Layer 1
10
40.241498
20
109.814906
70
0
0
SEQEND
8
Layer 1
0
POLYLINE
8
Layer 1
62
7
70
0
10
0.000000
20
0.000000
66
1
0
VERTEX
8
Layer 1
10
46.296142
20
109.912199
70
0
0
VERTEX
8
Layer 1
10
39.365344
20
100.372600
70
0
0
VERTEX
8
Layer 1
10
48.904943
20
93.441802
70
0
0
VERTEX
8
Layer 1
10
49.360007
20
93.231953
70
0
0
VERTEX
8
Layer 1
10
49.860737
20
93.212243
70
0
0
VERTEX
8
Layer 1
10
50.330887
20
93.385673
70
0
0
VERTEX
8
Layer 1
10
50.698867
20
93.725835
70
0
0
VERTEX
8
Layer 1
10
50.908619
20
94.180895
70
0
0
VERTEX
8
Layer 1
10
50.928259
20
94.681584
70
0
0
VERTEX
8
Layer 1
10
50.754795
20
95.151675
70
0
0
VERTEX
8
Layer 1
10
50.414638
20
95.519600
70
0
0
VERTEX
8
Layer 1
10
42.953032
20
100.940861
70
0
0
VERTEX
8
Layer 1
10
48.374293
20
108.402468
70
0
0
VERTEX
8
Layer 1
10
48.584046
20
108.857527
70
0
0
VERTEX
8
Layer 1
10
48.603685
20
109.358217
70
0
0
VERTEX
8
Layer 1
10
48.430222
20
109.828308
70
0
0
VERTEX
8
Layer 1
10
48.090065
20
110.196233
70
0
0
VERTEX
8
Layer 1
10
47.635001
20
110.406081
70
0
0
VERTEX
8
Layer 1
10
47.134271
20
110.425791
70
0
0
VERTEX
8
Layer 1
10
46.664121
20
110.252360
70
0
0
VERTEX
8
Layer 1
10
46.296142
20
109.912199
70
0
0
VERTEX
8
Layer 1
10
46.296142
20
109.912199
70
0
0
SEQEND
8
Layer 1
 0 
ENDSEC
 0 
EOF