999
"DXF R12 Output" (www.mydxf.blogspot.com)
 0 
SECTION
 2 
HEADER
 9 
$ACADVER
 1 
AC1009
 9 
$EXTMIN
 10 
 0 
 20 
 0 
 9 
$EXTMAX
 10 
 8.5 
 20 
 11 
 0 
ENDSEC
 0 
SECTION
 2 
ENTITIES
0
POLYLINE
8
Layer 1
62
7
70
0
10
0.000000
20
0.000000
66
1
0
VERTEX
8
Layer 1
10
20.956624
20
50.584237
70
0
0
VERTEX
8
Layer 1
10
21.463573
20
50.544339
70
0
0
VERTEX
8
Layer 1
10
21.850253
20
50.874594
70
0
0
VERTEX
8
Layer 1
10
27.882973
20
62.714454
70
0
0
VERTEX
8
Layer 1
10
27.922871
20
63.221403
70
0
0
VERTEX
8
Layer 1
10
27.592616
20
63.608083
70
0
0
VERTEX
8
Layer 1
10
27.085667
20
63.647981
70
0
0
VERTEX
8
Layer 1
10
26.698987
20
63.317726
70
0
0
VERTEX
8
Layer 1
10
20.666267
20
51.477866
70
0
0
VERTEX
8
Layer 1
10
20.626369
20
50.970917
70
0
0
VERTEX
8
Layer 1
10
20.956624
20
50.584237
70
0
0
VERTEX
8
Layer 1
10
20.956624
20
50.584237
70
0
0
SEQEND
8
Layer 1
0
POLYLINE
8
Layer 1
62
7
70
0
10
0.000000
20
0.000000
66
1
0
VERTEX
8
Layer 1
10
21.557245
20
51.763020
70
0
0
VERTEX
8
Layer 1
10
26.826340
20
53.475049
70
0
0
VERTEX
8
Layer 1
10
27.213039
20
53.805310
70
0
0
VERTEX
8
Layer 1
10
27.252931
20
54.312280
70
0
0
VERTEX
8
Layer 1
10
26.922669
20
54.698979
70
0
0
VERTEX
8
Layer 1
10
26.415700
20
54.738871
70
0
0
VERTEX
8
Layer 1
10
22.410368
20
53.437366
70
0
0
VERTEX
8
Layer 1
10
21.109038
20
57.442755
70
0
0
VERTEX
8
Layer 1
10
20.778777
20
57.829454
70
0
0
VERTEX
8
Layer 1
10
20.271807
20
57.869346
70
0
0
VERTEX
8
Layer 1
10
19.885108
20
57.539084
70
0
0
VERTEX
8
Layer 1
10
19.845216
20
57.032115
70
0
0
VERTEX
8
Layer 1
10
21.557245
20
51.763020
70
0
0
SEQEND
8
Layer 1
0
POLYLINE
8
Layer 1
62
7
70
0
10
0.000000
20
0.000000
66
1
0
VERTEX
8
Layer 1
10
23.239278
20
55.064190
70
0
0
VERTEX
8
Layer 1
10
27.478372
20
56.441456
70
0
0
VERTEX
8
Layer 1
10
27.865071
20
56.771717
70
0
0
VERTEX
8
Layer 1
10
27.904963
20
57.278687
70
0
0
VERTEX
8
Layer 1
10
27.574701
20
57.665386
70
0
0
VERTEX
8
Layer 1
10
27.067732
20
57.705278
70
0
0
VERTEX
8
Layer 1
10
24.092401
20
56.738536
70
0
0
VERTEX
8
Layer 1
10
23.125660
20
59.713867
70
0
0
VERTEX
8
Layer 1
10
22.795399
20
60.100566
70
0
0
VERTEX
8
Layer 1
10
22.288429
20
60.140458
70
0
0
VERTEX
8
Layer 1
10
21.901730
20
59.810197
70
0
0
VERTEX
8
Layer 1
10
21.861838
20
59.303227
70
0
0
VERTEX
8
Layer 1
10
23.239278
20
55.064190
70
0
0
SEQEND
8
Layer 1
0
POLYLINE
8
Layer 1
62
7
70
0
10
0.000000
20
0.000000
66
1
0
VERTEX
8
Layer 1
10
24.585859
20
57.707000
70
0
0
VERTEX
8
Layer 1
10
29.782172
20
59.395380
70
0
0
VERTEX
8
Layer 1
10
30.168871
20
59.725642
70
0
0
VERTEX
8
Layer 1
10
30.208763
20
60.232611
70
0
0
VERTEX
8
Layer 1
10
29.878501
20
60.619310
70
0
0
VERTEX
8
Layer 1
10
29.371532
20
60.659202
70
0
0
VERTEX
8
Layer 1
10
25.439041
20
59.381461
70
0
0
VERTEX
8
Layer 1
10
24.161300
20
63.313952
70
0
0
VERTEX
8
Layer 1
10
23.831038
20
63.700651
70
0
0
VERTEX
8
Layer 1
10
23.324069
20
63.740543
70
0
0
VERTEX
8
Layer 1
10
22.937370
20
63.410282
70
0
0
VERTEX
8
Layer 1
10
22.897478
20
62.903313
70
0
0
VERTEX
8
Layer 1
10
24.585859
20
57.707000
70
0
0
SEQEND
8
Layer 1
0
POLYLINE
8
Layer 1
62
7
70
0
10
0.000000
20
0.000000
66
1
0
VERTEX
8
Layer 1
10
20.813674
20
50.682415
70
0
0
VERTEX
8
Layer 1
10
21.293035
20
50.512737
70
0
0
VERTEX
8
Layer 1
10
34.563014
20
51.208178
70
0
0
VERTEX
8
Layer 1
10
35.021988
20
51.427102
70
0
0
VERTEX
8
Layer 1
10
35.191732
20
51.906446
70
0
0
VERTEX
8
Layer 1
10
34.972809
20
52.365420
70
0
0
VERTEX
8
Layer 1
10
34.493465
20
52.535165
70
0
0
VERTEX
8
Layer 1
10
21.223485
20
51.839723
70
0
0
VERTEX
8
Layer 1
10
20.764511
20
51.620800
70
0
0
VERTEX
8
Layer 1
10
20.594767
20
51.141455
70
0
0
VERTEX
8
Layer 1
10
20.813674
20
50.682415
70
0
0
VERTEX
8
Layer 1
10
20.813674
20
50.682415
70
0
0
SEQEND
8
Layer 1
0
POLYLINE
8
Layer 1
62
7
70
0
10
0.000000
20
0.000000
66
1
0
VERTEX
8
Layer 1
10
26.033159
20
47.503593
70
0
0
VERTEX
8
Layer 1
10
26.512454
20
47.333896
70
0
0
VERTEX
8
Layer 1
10
26.971385
20
47.552764
70
0
0
VERTEX
8
Layer 1
10
27.141169
20
48.032107
70
0
0
VERTEX
8
Layer 1
10
26.922273
20
48.491106
70
0
0
VERTEX
8
Layer 1
10
23.792516
20
51.309043
70
0
0
VERTEX
8
Layer 1
10
26.610568
20
54.438741
70
0
0
VERTEX
8
Layer 1
10
26.780265
20
54.918036
70
0
0
VERTEX
8
Layer 1
10
26.561396
20
55.376967
70
0
0
VERTEX
8
Layer 1
10
26.082054
20
55.546750
70
0
0
VERTEX
8
Layer 1
10
25.623055
20
55.327854
70
0
0
VERTEX
8
Layer 1
10
21.915947
20
51.210759
70
0
0
VERTEX
8
Layer 1
10
26.033159
20
47.503593
70
0
0
SEQEND
8
Layer 1
0
POLYLINE
8
Layer 1
62
7
70
0
10
0.000000
20
0.000000
66
1
0
VERTEX
8
Layer 1
10
28.928151
20
48.422137
70
0
0
VERTEX
8
Layer 1
10
29.407494
20
48.252353
70
0
0
VERTEX
8
Layer 1
10
29.866493
20
48.471249
70
0
0
VERTEX
8
Layer 1
10
30.036277
20
48.950591
70
0
0
VERTEX
8
Layer 1
10
29.817381
20
49.409591
70
0
0
VERTEX
8
Layer 1
10
27.492472
20
51.502996
70
0
0
VERTEX
8
Layer 1
10
29.585818
20
53.827789
70
0
0
VERTEX
8
Layer 1
10
29.755575
20
54.307186
70
0
0
VERTEX
8
Layer 1
10
29.536590
20
54.766189
70
0
0
VERTEX
8
Layer 1
10
29.057240
20
54.935860
70
0
0
VERTEX
8
Layer 1
10
28.598305
20
54.716903
70
0
0
VERTEX
8
Layer 1
10
25.615845
20
51.404597
70
0
0
VERTEX
8
Layer 1
10
28.928151
20
48.422137
70
0
0
SEQEND
8
Layer 1
0
POLYLINE
8
Layer 1
62
7
70
0
10
0.000000
20
0.000000
66
1
0
VERTEX
8
Layer 1
10
32.638195
20
47.903860
70
0
0
VERTEX
8
Layer 1
10
33.117592
20
47.734103
70
0
0
VERTEX
8
Layer 1
10
33.576596
20
47.953088
70
0
0
VERTEX
8
Layer 1
10
33.746379
20
48.432431
70
0
0
VERTEX
8
Layer 1
10
33.527484
20
48.891430
70
0
0
VERTEX
8
Layer 1
10
30.454561
20
51.658270
70
0
0
VERTEX
8
Layer 1
10
33.221343
20
54.731076
70
0
0
VERTEX
8
Layer 1
10
33.391040
20
55.210372
70
0
0
VERTEX
8
Layer 1
10
33.172171
20
55.669303
70
0
0
VERTEX
8
Layer 1
10
32.692829
20
55.839086
70
0
0
VERTEX
8
Layer 1
10
32.233830
20
55.620190
70
0
0
VERTEX
8
Layer 1
10
28.577934
20
51.559871
70
0
0
VERTEX
8
Layer 1
10
32.638195
20
47.903860
70
0
0
SEQEND
8
Layer 1
0
POLYLINE
8
Layer 1
62
7
70
0
10
0.000000
20
0.000000
66
1
0
VERTEX
8
Layer 1
10
28.357336
20
39.381876
70
0
0
VERTEX
8
Layer 1
10
28.857376
20
39.474593
70
0
0
VERTEX
8
Layer 1
10
29.145401
20
39.893671
70
0
0
VERTEX
8
Layer 1
10
29.052738
20
40.393669
70
0
0
VERTEX
8
Layer 1
10
21.815478
20
51.538087
70
0
0
VERTEX
8
Layer 1
10
21.396400
20
51.826112
70
0
0
VERTEX
8
Layer 1
10
20.896403
20
51.733448
70
0
0
VERTEX
8
Layer 1
10
20.608378
20
51.314370
70
0
0
VERTEX
8
Layer 1
10
20.701042
20
50.814373
70
0
0
VERTEX
8
Layer 1
10
27.938301
20
39.669954
70
0
0
VERTEX
8
Layer 1
10
28.357336
20
39.381876
70
0
0
VERTEX
8
Layer 1
10
28.357336
20
39.381876
70
0
0
SEQEND
8
Layer 1
0
POLYLINE
8
Layer 1
62
7
70
0
10
0.000000
20
0.000000
66
1
0
VERTEX
8
Layer 1
10
20.976889
20
44.416772
70
0
0
VERTEX
8
Layer 1
10
21.476820
20
44.509455
70
0
0
VERTEX
8
Layer 1
10
21.764833
20
44.928465
70
0
0
VERTEX
8
Layer 1
10
22.640408
20
49.047906
70
0
0
VERTEX
8
Layer 1
10
26.759790
20
48.172216
70
0
0
VERTEX
8
Layer 1
10
27.259792
20
48.264918
70
0
0
VERTEX
8
Layer 1
10
27.547793
20
48.684026
70
0
0
VERTEX
8
Layer 1
10
27.455109
20
49.183957
70
0
0
VERTEX
8
Layer 1
10
27.036099
20
49.471970
70
0
0
VERTEX
8
Layer 1
10
21.616904
20
50.623854
70
0
0
VERTEX
8
Layer 1
10
20.465079
20
45.204774
70
0
0
VERTEX
8
Layer 1
10
20.557781
20
44.704772
70
0
0
VERTEX
8
Layer 1
10
20.976889
20
44.416772
70
0
0
VERTEX
8
Layer 1
10
20.976889
20
44.416772
70
0
0
SEQEND
8
Layer 1
0
POLYLINE
8
Layer 1
62
7
70
0
10
0.000000
20
0.000000
66
1
0
VERTEX
8
Layer 1
10
23.219790
20
42.368793
70
0
0
VERTEX
8
Layer 1
10
23.719848
20
42.461425
70
0
0
VERTEX
8
Layer 1
10
24.007908
20
42.880543
70
0
0
VERTEX
8
Layer 1
10
24.658271
20
45.940574
70
0
0
VERTEX
8
Layer 1
10
27.718418
20
45.290152
70
0
0
VERTEX
8
Layer 1
10
28.218421
20
45.382854
70
0
0
VERTEX
8
Layer 1
10
28.506421
20
45.801962
70
0
0
VERTEX
8
Layer 1
10
28.413719
20
46.301964
70
0
0
VERTEX
8
Layer 1
10
27.994611
20
46.589964
70
0
0
VERTEX
8
Layer 1
10
23.634827
20
47.516636
70
0
0
VERTEX
8
Layer 1
10
22.708155
20
43.156852
70
0
0
VERTEX
8
Layer 1
10
22.800769
20
42.656865
70
0
0
VERTEX
8
Layer 1
10
23.219790
20
42.368793
70
0
0
VERTEX
8
Layer 1
10
23.219790
20
42.368793
70
0
0
SEQEND
8
Layer 1
0
POLYLINE
8
Layer 1
62
7
70
0
10
0.000000
20
0.000000
66
1
0
VERTEX
8
Layer 1
10
24.626093
20
38.896707
70
0
0
VERTEX
8
Layer 1
10
25.126024
20
38.989391
70
0
0
VERTEX
8
Layer 1
10
25.414037
20
39.408401
70
0
0
VERTEX
8
Layer 1
10
26.273722
20
43.452923
70
0
0
VERTEX
8
Layer 1
10
30.318359
20
42.593179
70
0
0
VERTEX
8
Layer 1
10
30.818361
20
42.685881
70
0
0
VERTEX
8
Layer 1
10
31.106362
20
43.104989
70
0
0
VERTEX
8
Layer 1
10
31.013729
20
43.605047
70
0
0
VERTEX
8
Layer 1
10
30.594611
20
43.893108
70
0
0
VERTEX
8
Layer 1
10
25.250276
20
45.028985
70
0
0
VERTEX
8
Layer 1
10
24.114283
20
39.684709
70
0
0
VERTEX
8
Layer 1
10
24.206985
20
39.184708
70
0
0
VERTEX
8
Layer 1
10
24.626093
20
38.896707
70
0
0
VERTEX
8
Layer 1
10
24.626093
20
38.896707
70
0
0
SEQEND
8
Layer 1
0
POLYLINE
8
Layer 1
62
7
70
1
10
0.000000
20
0.000000
66
1
0
VERTEX
8
Layer 1
10
14.923904
20
38.744377
70
0
0
VERTEX
8
Layer 1
10
15.430853
20
38.704479
70
0
0
VERTEX
8
Layer 1
10
15.817533
20
39.034734
70
0
0
VERTEX
8
Layer 1
10
21.850253
20
50.874594
70
0
0
VERTEX
8
Layer 1
10
21.890151
20
51.381543
70
0
0
VERTEX
8
Layer 1
10
21.559896
20
51.768223
70
0
0
VERTEX
8
Layer 1
10
21.052947
20
51.808121
70
0
0
VERTEX
8
Layer 1
10
20.666267
20
51.477866
70
0
0
VERTEX
8
Layer 1
10
14.633547
20
39.638006
70
0
0
VERTEX
8
Layer 1
10
14.593649
20
39.131057
70
0
0
VERTEX
8
Layer 1
10
14.923904
20
38.744377
70
0
0
VERTEX
8
Layer 1
10
14.923904
20
38.744377
70
0
0
SEQEND
8
Layer 1
0
POLYLINE
8
Layer 1
62
7
70
0
10
0.000000
20
0.000000
66
1
0
VERTEX
8
Layer 1
10
21.737729
20
44.523120
70
0
0
VERTEX
8
Layer 1
10
22.244713
20
44.483114
70
0
0
VERTEX
8
Layer 1
10
22.631412
20
44.813376
70
0
0
VERTEX
8
Layer 1
10
22.671304
20
45.320345
70
0
0
VERTEX
8
Layer 1
10
20.959275
20
50.589440
70
0
0
VERTEX
8
Layer 1
10
15.690180
20
48.877411
70
0
0
VERTEX
8
Layer 1
10
15.303481
20
48.547150
70
0
0
VERTEX
8
Layer 1
10
15.263589
20
48.040180
70
0
0
VERTEX
8
Layer 1
10
15.593851
20
47.653481
70
0
0
VERTEX
8
Layer 1
10
16.100820
20
47.613589
70
0
0
VERTEX
8
Layer 1
10
20.106152
20
48.915094
70
0
0
VERTEX
8
Layer 1
10
21.407482
20
44.909705
70
0
0
VERTEX
8
Layer 1
10
21.737729
20
44.523120
70
0
0
VERTEX
8
Layer 1
10
21.737729
20
44.523120
70
0
0
SEQEND
8
Layer 1
0
POLYLINE
8
Layer 1
62
7
70
0
10
0.000000
20
0.000000
66
1
0
VERTEX
8
Layer 1
10
19.721048
20
42.251892
70
0
0
VERTEX
8
Layer 1
10
20.228091
20
42.212002
70
0
0
VERTEX
8
Layer 1
10
20.614790
20
42.542263
70
0
0
VERTEX
8
Layer 1
10
20.654682
20
43.049233
70
0
0
VERTEX
8
Layer 1
10
19.277242
20
47.288270
70
0
0
VERTEX
8
Layer 1
10
15.038148
20
45.911004
70
0
0
VERTEX
8
Layer 1
10
14.651449
20
45.580743
70
0
0
VERTEX
8
Layer 1
10
14.611557
20
45.073773
70
0
0
VERTEX
8
Layer 1
10
14.941819
20
44.687074
70
0
0
VERTEX
8
Layer 1
10
15.448788
20
44.647182
70
0
0
VERTEX
8
Layer 1
10
18.424119
20
45.613924
70
0
0
VERTEX
8
Layer 1
10
19.390860
20
42.638593
70
0
0
VERTEX
8
Layer 1
10
19.721048
20
42.251892
70
0
0
VERTEX
8
Layer 1
10
19.721048
20
42.251892
70
0
0
SEQEND
8
Layer 1
0
POLYLINE
8
Layer 1
62
7
70
0
10
0.000000
20
0.000000
66
1
0
VERTEX
8
Layer 1
10
18.685524
20
38.651747
70
0
0
VERTEX
8
Layer 1
10
19.192451
20
38.611917
70
0
0
VERTEX
8
Layer 1
10
19.579150
20
38.942178
70
0
0
VERTEX
8
Layer 1
10
19.619042
20
39.449147
70
0
0
VERTEX
8
Layer 1
10
17.930661
20
44.645460
70
0
0
VERTEX
8
Layer 1
10
12.734348
20
42.957080
70
0
0
VERTEX
8
Layer 1
10
12.347649
20
42.626818
70
0
0
VERTEX
8
Layer 1
10
12.307757
20
42.119849
70
0
0
VERTEX
8
Layer 1
10
12.638019
20
41.733150
70
0
0
VERTEX
8
Layer 1
10
13.144988
20
41.693258
70
0
0
VERTEX
8
Layer 1
10
17.077479
20
42.970999
70
0
0
VERTEX
8
Layer 1
10
18.355220
20
39.038508
70
0
0
VERTEX
8
Layer 1
10
18.685524
20
38.651747
70
0
0
VERTEX
8
Layer 1
10
18.685524
20
38.651747
70
0
0
SEQEND
8
Layer 1
0
POLYLINE
8
Layer 1
62
7
70
0
10
0.000000
20
0.000000
66
1
0
VERTEX
8
Layer 1
10
7.543694
20
49.986974
70
0
0
VERTEX
8
Layer 1
10
8.023055
20
49.817295
70
0
0
VERTEX
8
Layer 1
10
21.293035
20
50.512737
70
0
0
VERTEX
8
Layer 1
10
21.752009
20
50.731660
70
0
0
VERTEX
8
Layer 1
10
21.921753
20
51.211005
70
0
0
VERTEX
8
Layer 1
10
21.702830
20
51.669979
70
0
0
VERTEX
8
Layer 1
10
21.223485
20
51.839723
70
0
0
VERTEX
8
Layer 1
10
7.953506
20
51.144282
70
0
0
VERTEX
8
Layer 1
10
7.494532
20
50.925358
70
0
0
VERTEX
8
Layer 1
10
7.324788
20
50.446014
70
0
0
VERTEX
8
Layer 1
10
7.543694
20
49.986974
70
0
0
VERTEX
8
Layer 1
10
7.543694
20
49.986974
70
0
0
SEQEND
8
Layer 1
0
POLYLINE
8
Layer 1
62
7
70
0
10
0.000000
20
0.000000
66
1
0
VERTEX
8
Layer 1
10
15.955124
20
46.975493
70
0
0
VERTEX
8
Layer 1
10
16.434466
20
46.805710
70
0
0
VERTEX
8
Layer 1
10
16.893465
20
47.024606
70
0
0
VERTEX
8
Layer 1
10
20.600573
20
51.141701
70
0
0
VERTEX
8
Layer 1
10
16.483361
20
54.848867
70
0
0
VERTEX
8
Layer 1
10
16.004066
20
55.018564
70
0
0
VERTEX
8
Layer 1
10
15.545135
20
54.799696
70
0
0
VERTEX
8
Layer 1
10
15.375351
20
54.320353
70
0
0
VERTEX
8
Layer 1
10
15.594247
20
53.861354
70
0
0
VERTEX
8
Layer 1
10
18.724004
20
51.043417
70
0
0
VERTEX
8
Layer 1
10
15.905952
20
47.913719
70
0
0
VERTEX
8
Layer 1
10
15.736255
20
47.434424
70
0
0
VERTEX
8
Layer 1
10
15.955124
20
46.975493
70
0
0
VERTEX
8
Layer 1
10
15.955124
20
46.975493
70
0
0
SEQEND
8
Layer 1
0
POLYLINE
8
Layer 1
62
7
70
0
10
0.000000
20
0.000000
66
1
0
VERTEX
8
Layer 1
10
12.979930
20
47.586271
70
0
0
VERTEX
8
Layer 1
10
13.459280
20
47.416600
70
0
0
VERTEX
8
Layer 1
10
13.918215
20
47.635557
70
0
0
VERTEX
8
Layer 1
10
16.900675
20
50.947863
70
0
0
VERTEX
8
Layer 1
10
13.588369
20
53.930323
70
0
0
VERTEX
8
Layer 1
10
13.109026
20
54.100107
70
0
0
VERTEX
8
Layer 1
10
12.650027
20
53.881211
70
0
0
VERTEX
8
Layer 1
10
12.480243
20
53.401869
70
0
0
VERTEX
8
Layer 1
10
12.699139
20
52.942869
70
0
0
VERTEX
8
Layer 1
10
15.024048
20
50.849464
70
0
0
VERTEX
8
Layer 1
10
12.930702
20
48.524671
70
0
0
VERTEX
8
Layer 1
10
12.760945
20
48.045274
70
0
0
VERTEX
8
Layer 1
10
12.979930
20
47.586271
70
0
0
VERTEX
8
Layer 1
10
12.979930
20
47.586271
70
0
0
SEQEND
8
Layer 1
0
POLYLINE
8
Layer 1
62
7
70
0
10
0.000000
20
0.000000
66
1
0
VERTEX
8
Layer 1
10
9.344349
20
46.683157
70
0
0
VERTEX
8
Layer 1
10
9.823691
20
46.513374
70
0
0
VERTEX
8
Layer 1
10
10.282690
20
46.732270
70
0
0
VERTEX
8
Layer 1
10
13.938586
20
50.792589
70
0
0
VERTEX
8
Layer 1
10
9.878325
20
54.448600
70
0
0
VERTEX
8
Layer 1
10
9.398928
20
54.618357
70
0
0
VERTEX
8
Layer 1
10
8.939924
20
54.399372
70
0
0
VERTEX
8
Layer 1
10
8.770141
20
53.920029
70
0
0
VERTEX
8
Layer 1
10
8.989036
20
53.461030
70
0
0
VERTEX
8
Layer 1
10
12.061959
20
50.694190
70
0
0
VERTEX
8
Layer 1
10
9.295178
20
47.621383
70
0
0
VERTEX
8
Layer 1
10
9.125480
20
47.142088
70
0
0
VERTEX
8
Layer 1
10
9.344349
20
46.683157
70
0
0
VERTEX
8
Layer 1
10
9.344349
20
46.683157
70
0
0
SEQEND
8
Layer 1
0
POLYLINE
8
Layer 1
62
7
70
0
10
0.000000
20
0.000000
66
1
0
VERTEX
8
Layer 1
10
21.120076
20
50.526295
70
0
0
VERTEX
8
Layer 1
10
21.620117
20
50.619012
70
0
0
VERTEX
8
Layer 1
10
21.908142
20
51.038090
70
0
0
VERTEX
8
Layer 1
10
21.815478
20
51.538087
70
0
0
VERTEX
8
Layer 1
10
14.578219
20
62.682506
70
0
0
VERTEX
8
Layer 1
10
14.159141
20
62.970531
70
0
0
VERTEX
8
Layer 1
10
13.659144
20
62.877867
70
0
0
VERTEX
8
Layer 1
10
13.371119
20
62.458789
70
0
0
VERTEX
8
Layer 1
10
13.463782
20
61.958791
70
0
0
VERTEX
8
Layer 1
10
20.701042
20
50.814373
70
0
0
VERTEX
8
Layer 1
10
21.120076
20
50.526295
70
0
0
VERTEX
8
Layer 1
10
21.120076
20
50.526295
70
0
0
SEQEND
8
Layer 1
0
POLYLINE
8
Layer 1
62
7
70
1
10
0.000000
20
0.000000
66
1
0
VERTEX
8
Layer 1
10
15.480421
20
52.880490
70
0
0
VERTEX
8
Layer 1
10
20.899616
20
51.728606
70
0
0
VERTEX
8
Layer 1
10
22.051441
20
57.147686
70
0
0
VERTEX
8
Layer 1
10
21.958739
20
57.647688
70
0
0
VERTEX
8
Layer 1
10
21.539631
20
57.935688
70
0
0
VERTEX
8
Layer 1
10
21.039701
20
57.843004
70
0
0
VERTEX
8
Layer 1
10
20.751688
20
57.423994
70
0
0
VERTEX
8
Layer 1
10
19.876113
20
53.304553
70
0
0
VERTEX
8
Layer 1
10
15.756730
20
54.180244
70
0
0
VERTEX
8
Layer 1
10
15.256728
20
54.087542
70
0
0
VERTEX
8
Layer 1
10
14.968727
20
53.668434
70
0
0
VERTEX
8
Layer 1
10
15.061411
20
53.168503
70
0
0
VERTEX
8
Layer 1
10
15.480421
20
52.880490
70
0
0
VERTEX
8
Layer 1
10
15.480421
20
52.880490
70
0
0
SEQEND
8
Layer 1
0
POLYLINE
8
Layer 1
62
7
70
0
10
0.000000
20
0.000000
66
1
0
VERTEX
8
Layer 1
10
14.521909
20
55.762496
70
0
0
VERTEX
8
Layer 1
10
18.881693
20
54.835824
70
0
0
VERTEX
8
Layer 1
10
19.808365
20
59.195608
70
0
0
VERTEX
8
Layer 1
10
19.715751
20
59.695595
70
0
0
VERTEX
8
Layer 1
10
19.296730
20
59.983667
70
0
0
VERTEX
8
Layer 1
10
18.796672
20
59.891035
70
0
0
VERTEX
8
Layer 1
10
18.508612
20
59.471917
70
0
0
VERTEX
8
Layer 1
10
17.858249
20
56.411886
70
0
0
VERTEX
8
Layer 1
10
14.798102
20
57.062308
70
0
0
VERTEX
8
Layer 1
10
14.298099
20
56.969606
70
0
0
VERTEX
8
Layer 1
10
14.010099
20
56.550498
70
0
0
VERTEX
8
Layer 1
10
14.102801
20
56.050496
70
0
0
VERTEX
8
Layer 1
10
14.521909
20
55.762496
70
0
0
VERTEX
8
Layer 1
10
14.521909
20
55.762496
70
0
0
SEQEND
8
Layer 1
0
POLYLINE
8
Layer 1
62
7
70
0
10
0.000000
20
0.000000
66
1
0
VERTEX
8
Layer 1
10
11.921909
20
58.459352
70
0
0
VERTEX
8
Layer 1
10
17.266244
20
57.323475
70
0
0
VERTEX
8
Layer 1
10
18.402237
20
62.667751
70
0
0
VERTEX
8
Layer 1
10
18.309535
20
63.167752
70
0
0
VERTEX
8
Layer 1
10
17.890427
20
63.455753
70
0
0
VERTEX
8
Layer 1
10
17.390497
20
63.363069
70
0
0
VERTEX
8
Layer 1
10
17.102484
20
62.944059
70
0
0
VERTEX
8
Layer 1
10
16.242798
20
58.899537
70
0
0
VERTEX
8
Layer 1
10
12.198161
20
59.759281
70
0
0
VERTEX
8
Layer 1
10
11.698159
20
59.666579
70
0
0
VERTEX
8
Layer 1
10
11.410158
20
59.247471
70
0
0
VERTEX
8
Layer 1
10
11.502791
20
58.747413
70
0
0
VERTEX
8
Layer 1
10
11.921909
20
58.459352
70
0
0
VERTEX
8
Layer 1
10
11.921909
20
58.459352
70
0
0
SEQEND
8
Layer 1
0
POLYLINE
8
Layer 1
62
7
70
0
10
0.000000
20
0.000000
66
1
0
VERTEX
8
Layer 1
10
56.154242
20
102.640059
70
0
0
VERTEX
8
Layer 1
10
55.784857
20
102.511064
70
0
0
VERTEX
8
Layer 1
10
55.492954
20
102.250531
70
0
0
VERTEX
8
Layer 1
10
55.322973
20
101.898123
70
0
0
VERTEX
8
Layer 1
10
55.300791
20
101.507492
70
0
0
VERTEX
8
Layer 1
10
58.091951
20
81.647312
70
0
0
VERTEX
8
Layer 1
10
58.220946
20
81.277927
70
0
0
VERTEX
8
Layer 1
10
58.481479
20
80.986024
70
0
0
VERTEX
8
Layer 1
10
58.833887
20
80.816043
70
0
0
VERTEX
8
Layer 1
10
59.224518
20
80.793861
70
0
0
VERTEX
8
Layer 1
10
59.600075
20
80.926219
70
0
0
VERTEX
8
Layer 1
10
59.885806
20
81.183389
70
0
0
VERTEX
8
Layer 1
10
60.054256
20
81.528937
70
0
0
VERTEX
8
Layer 1
10
60.077969
20
81.926428
70
0
0
VERTEX
8
Layer 1
10
57.286809
20
101.786608
70
0
0
VERTEX
8
Layer 1
10
57.157814
20
102.155993
70
0
0
VERTEX
8
Layer 1
10
56.897281
20
102.447896
70
0
0
VERTEX
8
Layer 1
10
56.544873
20
102.617877
70
0
0
VERTEX
8
Layer 1
10
56.154242
20
102.640059
70
0
0
VERTEX
8
Layer 1
10
56.154242
20
102.640059
70
0
0
SEQEND
8
Layer 1
0
POLYLINE
8
Layer 1
62
7
70
0
10
0.000000
20
0.000000
66
1
0
VERTEX
8
Layer 1
10
56.476888
20
100.344308
70
0
0
VERTEX
8
Layer 1
10
51.992103
20
94.392801
70
0
0
VERTEX
8
Layer 1
10
51.822107
20
94.040383
70
0
0
VERTEX
8
Layer 1
10
51.799921
20
93.649736
70
0
0
VERTEX
8
Layer 1
10
51.928924
20
93.280338
70
0
0
VERTEX
8
Layer 1
10
52.189474
20
92.988430
70
0
0
VERTEX
8
Layer 1
10
52.548588
20
92.816514
70
0
0
VERTEX
8
Layer 1
10
52.932428
20
92.796331
70
0
0
VERTEX
8
Layer 1
10
53.295835
20
92.921533
70
0
0
VERTEX
8
Layer 1
10
53.593651
20
93.185773
70
0
0
VERTEX
8
Layer 1
10
56.871603
20
97.535760
70
0
0
VERTEX
8
Layer 1
10
61.221589
20
94.257808
70
0
0
VERTEX
8
Layer 1
10
61.580703
20
94.085892
70
0
0
VERTEX
8
Layer 1
10
61.964543
20
94.065709
70
0
0
VERTEX
8
Layer 1
10
62.327950
20
94.190911
70
0
0
VERTEX
8
Layer 1
10
62.625766
20
94.455152
70
0
0
VERTEX
8
Layer 1
10
62.795763
20
94.807569
70
0
0
VERTEX
8
Layer 1
10
62.817948
20
95.198216
70
0
0
VERTEX
8
Layer 1
10
62.688946
20
95.567614
70
0
0
VERTEX
8
Layer 1
10
62.428395
20
95.859522
70
0
0
VERTEX
8
Layer 1
10
56.476888
20
100.344308
70
0
0
SEQEND
8
Layer 1
0
POLYLINE
8
Layer 1
62
7
70
0
10
0.000000
20
0.000000
66
1
0
VERTEX
8
Layer 1
10
57.232518
20
94.967707
70
0
0
VERTEX
8
Layer 1
10
53.455331
20
89.955214
70
0
0
VERTEX
8
Layer 1
10
53.285335
20
89.602796
70
0
0
VERTEX
8
Layer 1
10
53.263149
20
89.212149
70
0
0
VERTEX
8
Layer 1
10
53.392152
20
88.842751
70
0
0
VERTEX
8
Layer 1
10
53.652702
20
88.550843
70
0
0
VERTEX
8
Layer 1
10
54.005120
20
88.380846
70
0
0
VERTEX
8
Layer 1
10
54.395766
20
88.358660
70
0
0
VERTEX
8
Layer 1
10
54.765165
20
88.487663
70
0
0
VERTEX
8
Layer 1
10
55.057073
20
88.748214
70
0
0
VERTEX
8
Layer 1
10
57.627260
20
92.158965
70
0
0
VERTEX
8
Layer 1
10
61.038012
20
89.588778
70
0
0
VERTEX
8
Layer 1
10
61.390430
20
89.418781
70
0
0
VERTEX
8
Layer 1
10
61.781076
20
89.396596
70
0
0
VERTEX
8
Layer 1
10
62.150475
20
89.525599
70
0
0
VERTEX
8
Layer 1
10
62.442383
20
89.786149
70
0
0
VERTEX
8
Layer 1
10
62.612379
20
90.138566
70
0
0
VERTEX
8
Layer 1
10
62.634565
20
90.529213
70
0
0
VERTEX
8
Layer 1
10
62.505562
20
90.898611
70
0
0
VERTEX
8
Layer 1
10
62.245012
20
91.190520
70
0
0
VERTEX
8
Layer 1
10
57.232518
20
94.967707
70
0
0
SEQEND
8
Layer 1
0
POLYLINE
8
Layer 1
62
7
70
0
10
0.000000
20
0.000000
66
1
0
VERTEX
8
Layer 1
10
58.067931
20
89.023423
70
0
0
VERTEX
8
Layer 1
10
55.973809
20
86.244431
70
0
0
VERTEX
8
Layer 1
10
55.803813
20
85.892013
70
0
0
VERTEX
8
Layer 1
10
55.781627
20
85.501367
70
0
0
VERTEX
8
Layer 1
10
55.910630
20
85.131968
70
0
0
VERTEX
8
Layer 1
10
56.171180
20
84.840060
70
0
0
VERTEX
8
Layer 1
10
56.523598
20
84.670064
70
0
0
VERTEX
8
Layer 1
10
56.914244
20
84.647878
70
0
0
VERTEX
8
Layer 1
10
57.283643
20
84.776881
70
0
0
VERTEX
8
Layer 1
10
57.575551
20
85.037431
70
0
0
VERTEX
8
Layer 1
10
58.462646
20
86.214876
70
0
0
VERTEX
8
Layer 1
10
59.639923
20
85.327559
70
0
0
VERTEX
8
Layer 1
10
59.992341
20
85.157563
70
0
0
VERTEX
8
Layer 1
10
60.382987
20
85.135377
70
0
0
VERTEX
8
Layer 1
10
60.752386
20
85.264380
70
0
0
VERTEX
8
Layer 1
10
61.044294
20
85.524930
70
0
0
VERTEX
8
Layer 1
10
61.214291
20
85.877348
70
0
0
VERTEX
8
Layer 1
10
61.236476
20
86.267994
70
0
0
VERTEX
8
Layer 1
10
61.107474
20
86.637393
70
0
0
VERTEX
8
Layer 1
10
60.846923
20
86.929301
70
0
0
VERTEX
8
Layer 1
10
58.067931
20
89.023423
70
0
0
SEQEND
8
Layer 1
0
POLYLINE
8
Layer 1
62
7
70
0
10
0.000000
20
0.000000
66
1
0
VERTEX
8
Layer 1
10
56.415965
20
102.642429
70
0
0
VERTEX
8
Layer 1
10
56.025793
20
102.613380
70
0
0
VERTEX
8
Layer 1
10
55.676436
20
102.437233
70
0
0
VERTEX
8
Layer 1
10
39.872596
20
90.089927
70
0
0
VERTEX
8
Layer 1
10
39.613539
20
89.787524
70
0
0
VERTEX
8
Layer 1
10
39.494678
20
89.421945
70
0
0
VERTEX
8
Layer 1
10
39.521571
20
89.038471
70
0
0
VERTEX
8
Layer 1
10
39.699778
20
88.682381
70
0
0
VERTEX
8
Layer 1
10
40.002181
20
88.423324
70
0
0
VERTEX
8
Layer 1
10
40.367759
20
88.304463
70
0
0
VERTEX
8
Layer 1
10
40.751233
20
88.331355
70
0
0
VERTEX
8
Layer 1
10
41.107324
20
88.509562
70
0
0
VERTEX
8
Layer 1
10
56.911164
20
100.856867
70
0
0
VERTEX
8
Layer 1
10
57.170221
20
101.159271
70
0
0
VERTEX
8
Layer 1
10
57.289082
20
101.524849
70
0
0
VERTEX
8
Layer 1
10
57.262190
20
101.908323
70
0
0
VERTEX
8
Layer 1
10
57.083983
20
102.264414
70
0
0
VERTEX
8
Layer 1
10
56.787573
20
102.519867
70
0
0
VERTEX
8
Layer 1
10
56.415965
20
102.642429
70
0
0
VERTEX
8
Layer 1
10
56.415965
20
102.642429
70
0
0
SEQEND
8
Layer 1
0
POLYLINE
8
Layer 1
62
7
70
0
10
0.000000
20
0.000000
66
1
0
VERTEX
8
Layer 1
10
47.860573
20
101.745418
70
0
0
VERTEX
8
Layer 1
10
47.470349
20
101.716422
70
0
0
VERTEX
8
Layer 1
10
47.120932
20
101.540288
70
0
0
VERTEX
8
Layer 1
10
46.865529
20
101.243835
70
0
0
VERTEX
8
Layer 1
10
46.743029
20
100.872205
70
0
0
VERTEX
8
Layer 1
10
46.773704
20
100.475247
70
0
0
VERTEX
8
Layer 1
10
46.948145
20
100.132742
70
0
0
VERTEX
8
Layer 1
10
47.238276
20
99.880624
70
0
0
VERTEX
8
Layer 1
10
47.616022
20
99.754828
70
0
0
VERTEX
8
Layer 1
10
53.022221
20
99.091013
70
0
0
VERTEX
8
Layer 1
10
52.358406
20
93.684814
70
0
0
VERTEX
8
Layer 1
10
52.389082
20
93.287857
70
0
0
VERTEX
8
Layer 1
10
52.563522
20
92.945352
70
0
0
VERTEX
8
Layer 1
10
52.853653
20
92.693234
70
0
0
VERTEX
8
Layer 1
10
53.231399
20
92.567438
70
0
0
VERTEX
8
Layer 1
10
53.621590
20
92.596405
70
0
0
VERTEX
8
Layer 1
10
53.970995
20
92.772488
70
0
0
VERTEX
8
Layer 1
10
54.226416
20
93.068881
70
0
0
VERTEX
8
Layer 1
10
54.348969
20
93.440458
70
0
0
VERTEX
8
Layer 1
10
55.257140
20
100.837220
70
0
0
VERTEX
8
Layer 1
10
47.860573
20
101.745418
70
0
0
SEQEND
8
Layer 1
0
POLYLINE
8
Layer 1
62
7
70
0
10
0.000000
20
0.000000
66
1
0
VERTEX
8
Layer 1
10
44.749191
20
98.259200
70
0
0
VERTEX
8
Layer 1
10
44.358999
20
98.230233
70
0
0
VERTEX
8
Layer 1
10
44.009595
20
98.054150
70
0
0
VERTEX
8
Layer 1
10
43.754173
20
97.757757
70
0
0
VERTEX
8
Layer 1
10
43.631621
20
97.386180
70
0
0
VERTEX
8
Layer 1
10
43.660588
20
96.995988
70
0
0
VERTEX
8
Layer 1
10
43.836671
20
96.646584
70
0
0
VERTEX
8
Layer 1
10
44.133063
20
96.391163
70
0
0
VERTEX
8
Layer 1
10
44.504640
20
96.268610
70
0
0
VERTEX
8
Layer 1
10
48.743588
20
95.748096
70
0
0
VERTEX
8
Layer 1
10
48.223047
20
91.509341
70
0
0
VERTEX
8
Layer 1
10
48.252043
20
91.119118
70
0
0
VERTEX
8
Layer 1
10
48.428177
20
90.769701
70
0
0
VERTEX
8
Layer 1
10
48.724630
20
90.514298
70
0
0
VERTEX
8
Layer 1
10
49.096260
20
90.391798
70
0
0
VERTEX
8
Layer 1
10
49.493218
20
90.422474
70
0
0
VERTEX
8
Layer 1
10
49.835723
20
90.596914
70
0
0
VERTEX
8
Layer 1
10
50.087841
20
90.887045
70
0
0
VERTEX
8
Layer 1
10
50.213636
20
91.264791
70
0
0
VERTEX
8
Layer 1
10
50.978702
20
97.494329
70
0
0
VERTEX
8
Layer 1
10
44.749191
20
98.259200
70
0
0
SEQEND
8
Layer 1
0
POLYLINE
8
Layer 1
62
7
70
0
10
0.000000
20
0.000000
66
1
0
VERTEX
8
Layer 1
10
42.794802
20
94.222794
70
0
0
VERTEX
8
Layer 1
10
42.404610
20
94.193828
70
0
0
VERTEX
8
Layer 1
10
42.055205
20
94.017744
70
0
0
VERTEX
8
Layer 1
10
41.799784
20
93.721352
70
0
0
VERTEX
8
Layer 1
10
41.677231
20
93.349775
70
0
0
VERTEX
8
Layer 1
10
41.706198
20
92.959583
70
0
0
VERTEX
8
Layer 1
10
41.882281
20
92.610178
70
0
0
VERTEX
8
Layer 1
10
42.178674
20
92.354757
70
0
0
VERTEX
8
Layer 1
10
42.550251
20
92.232204
70
0
0
VERTEX
8
Layer 1
10
44.013538
20
92.052584
70
0
0
VERTEX
8
Layer 1
10
43.833890
20
90.589491
70
0
0
VERTEX
8
Layer 1
10
43.862857
20
90.199300
70
0
0
VERTEX
8
Layer 1
10
44.038941
20
89.849896
70
0
0
VERTEX
8
Layer 1
10
44.335333
20
89.594474
70
0
0
VERTEX
8
Layer 1
10
44.706910
20
89.471922
70
0
0
VERTEX
8
Layer 1
10
45.097133
20
89.500917
70
0
0
VERTEX
8
Layer 1
10
45.446550
20
89.677051
70
0
0
VERTEX
8
Layer 1
10
45.701953
20
89.973504
70
0
0
VERTEX
8
Layer 1
10
45.824453
20
90.345135
70
0
0
VERTEX
8
Layer 1
10
46.248457
20
93.798790
70
0
0
VERTEX
8
Layer 1
10
42.794802
20
94.222794
70
0
0
SEQEND
8
Layer 1
0
POLYLINE
8
Layer 1
62
7
70
0
10
0.000000
20
0.000000
66
1
0
VERTEX
8
Layer 1
10
37.307005
20
110.083071
70
0
0
VERTEX
8
Layer 1
10
36.983574
20
109.862828
70
0
0
VERTEX
8
Layer 1
10
36.769060
20
109.535570
70
0
0
VERTEX
8
Layer 1
10
36.695908
20
109.144153
70
0
0
VERTEX
8
Layer 1
10
36.775756
20
108.768121
70
0
0
VERTEX
8
Layer 1
10
36.990780
20
108.449467
70
0
0
VERTEX
8
Layer 1
10
37.323155
20
108.230184
70
0
0
VERTEX
8
Layer 1
10
55.918155
20
100.717309
70
0
0
VERTEX
8
Layer 1
10
56.309572
20
100.644157
70
0
0
VERTEX
8
Layer 1
10
56.685603
20
100.724006
70
0
0
VERTEX
8
Layer 1
10
57.004258
20
100.939030
70
0
0
VERTEX
8
Layer 1
10
57.223541
20
101.271405
70
0
0
VERTEX
8
Layer 1
10
57.296693
20
101.662822
70
0
0
VERTEX
8
Layer 1
10
57.216844
20
102.038853
70
0
0
VERTEX
8
Layer 1
10
57.001820
20
102.357508
70
0
0
VERTEX
8
Layer 1
10
56.669445
20
102.576791
70
0
0
VERTEX
8
Layer 1
10
38.074445
20
110.089665
70
0
0
VERTEX
8
Layer 1
10
37.690069
20
110.162693
70
0
0
VERTEX
8
Layer 1
10
37.307005
20
110.083071
70
0
0
VERTEX
8
Layer 1
10
37.307005
20
110.083071
70
0
0
SEQEND
8
Layer 1
0
POLYLINE
8
Layer 1
62
7
70
0
10
0.000000
20
0.000000
66
1
0
VERTEX
8
Layer 1
10
50.847356
20
109.530824
70
0
0
VERTEX
8
Layer 1
10
50.518917
20
109.305781
70
0
0
VERTEX
8
Layer 1
10
50.309518
20
108.983459
70
0
0
VERTEX
8
Layer 1
10
50.236242
20
108.606140
70
0
0
VERTEX
8
Layer 1
10
50.316171
20
108.216105
70
0
0
VERTEX
8
Layer 1
10
52.444418
20
103.202303
70
0
0
VERTEX
8
Layer 1
10
47.430617
20
101.074056
70
0
0
VERTEX
8
Layer 1
10
47.102178
20
100.849013
70
0
0
VERTEX
8
Layer 1
10
46.892779
20
100.526691
70
0
0
VERTEX
8
Layer 1
10
46.819503
20
100.149371
70
0
0
VERTEX
8
Layer 1
10
46.899433
20
99.759336
70
0
0
VERTEX
8
Layer 1
10
47.119622
20
99.435867
70
0
0
VERTEX
8
Layer 1
10
47.446845
20
99.221297
70
0
0
VERTEX
8
Layer 1
10
47.831275
20
99.148298
70
0
0
VERTEX
8
Layer 1
10
48.214374
20
99.227985
70
0
0
VERTEX
8
Layer 1
10
55.074079
20
102.139767
70
0
0
VERTEX
8
Layer 1
10
52.162270
20
108.999667
70
0
0
VERTEX
8
Layer 1
10
51.942044
20
109.323070
70
0
0
VERTEX
8
Layer 1
10
51.614820
20
109.537577
70
0
0
VERTEX
8
Layer 1
10
51.230416
20
109.610531
70
0
0
VERTEX
8
Layer 1
10
50.847356
20
109.530824
70
0
0
VERTEX
8
Layer 1
10
50.847356
20
109.530824
70
0
0
SEQEND
8
Layer 1
0
POLYLINE
8
Layer 1
62
7
70
0
10
0.000000
20
0.000000
66
1
0
VERTEX
8
Layer 1
10
46.272718
20
110.482388
70
0
0
VERTEX
8
Layer 1
10
45.949250
20
110.262199
70
0
0
VERTEX
8
Layer 1
10
45.734680
20
109.934976
70
0
0
VERTEX
8
Layer 1
10
45.661680
20
109.550546
70
0
0
VERTEX
8
Layer 1
10
45.741368
20
109.167447
70
0
0
VERTEX
8
Layer 1
10
47.410100
20
105.236374
70
0
0
VERTEX
8
Layer 1
10
43.478834
20
103.567613
70
0
0
VERTEX
8
Layer 1
10
43.155432
20
103.347388
70
0
0
VERTEX
8
Layer 1
10
42.940925
20
103.020164
70
0
0
VERTEX
8
Layer 1
10
42.867971
20
102.635761
70
0
0
VERTEX
8
Layer 1
10
42.947677
20
102.252700
70
0
0
VERTEX
8
Layer 1
10
43.167903
20
101.929297
70
0
0
VERTEX
8
Layer 1
10
43.495127
20
101.714790
70
0
0
VERTEX
8
Layer 1
10
43.879531
20
101.641836
70
0
0
VERTEX
8
Layer 1
10
44.262592
20
101.721542
70
0
0
VERTEX
8
Layer 1
10
50.039956
20
104.173866
70
0
0
VERTEX
8
Layer 1
10
47.587438
20
109.951203
70
0
0
VERTEX
8
Layer 1
10
47.362395
20
110.279642
70
0
0
VERTEX
8
Layer 1
10
47.040073
20
110.489041
70
0
0
VERTEX
8
Layer 1
10
46.662754
20
110.562317
70
0
0
VERTEX
8
Layer 1
10
46.272718
20
110.482388
70
0
0
VERTEX
8
Layer 1
10
46.272718
20
110.482388
70
0
0
SEQEND
8
Layer 1
0
POLYLINE
8
Layer 1
62
7
70
0
10
0.000000
20
0.000000
66
1
0
VERTEX
8
Layer 1
10
41.799851
20
110.156764
70
0
0
VERTEX
8
Layer 1
10
41.476449
20
109.936538
70
0
0
VERTEX
8
Layer 1
10
41.261942
20
109.609315
70
0
0
VERTEX
8
Layer 1
10
41.188988
20
109.224911
70
0
0
VERTEX
8
Layer 1
10
41.268694
20
108.841851
70
0
0
VERTEX
8
Layer 1
10
41.844665
20
107.484953
70
0
0
VERTEX
8
Layer 1
10
40.487573
20
106.908955
70
0
0
VERTEX
8
Layer 1
10
40.164170
20
106.688730
70
0
0
VERTEX
8
Layer 1
10
39.949663
20
106.361506
70
0
0
VERTEX
8
Layer 1
10
39.876709
20
105.977101
70
0
0
VERTEX
8
Layer 1
10
39.956416
20
105.594041
70
0
0
VERTEX
8
Layer 1
10
40.176641
20
105.270638
70
0
0
VERTEX
8
Layer 1
10
40.503865
20
105.056131
70
0
0
VERTEX
8
Layer 1
10
40.888269
20
104.983177
70
0
0
VERTEX
8
Layer 1
10
41.271330
20
105.062884
70
0
0
VERTEX
8
Layer 1
10
44.474326
20
106.422417
70
0
0
VERTEX
8
Layer 1
10
43.114793
20
109.625413
70
0
0
VERTEX
8
Layer 1
10
42.894603
20
109.948882
70
0
0
VERTEX
8
Layer 1
10
42.567380
20
110.163452
70
0
0
VERTEX
8
Layer 1
10
42.182951
20
110.236451
70
0
0
VERTEX
8
Layer 1
10
41.799851
20
110.156764
70
0
0
VERTEX
8
Layer 1
10
41.799851
20
110.156764
70
0
0
SEQEND
8
Layer 1
0
POLYLINE
8
Layer 1
62
7
70
1
10
0.000000
20
0.000000
66
1
0
VERTEX
8
Layer 1
10
53.363082
20
122.500239
70
0
0
VERTEX
8
Layer 1
10
52.993697
20
122.371244
70
0
0
VERTEX
8
Layer 1
10
52.701794
20
122.110711
70
0
0
VERTEX
8
Layer 1
10
52.531813
20
121.758303
70
0
0
VERTEX
8
Layer 1
10
52.509631
20
121.367672
70
0
0
VERTEX
8
Layer 1
10
55.300791
20
101.507492
70
0
0
VERTEX
8
Layer 1
10
55.429786
20
101.138107
70
0
0
VERTEX
8
Layer 1
10
55.690319
20
100.846204
70
0
0
VERTEX
8
Layer 1
10
56.042727
20
100.676223
70
0
0
VERTEX
8
Layer 1
10
56.433358
20
100.654041
70
0
0
VERTEX
8
Layer 1
10
56.808915
20
100.786399
70
0
0
VERTEX
8
Layer 1
10
57.094646
20
101.043569
70
0
0
VERTEX
8
Layer 1
10
57.263096
20
101.389117
70
0
0
VERTEX
8
Layer 1
10
57.286809
20
101.786608
70
0
0
VERTEX
8
Layer 1
10
54.495649
20
121.646788
70
0
0
VERTEX
8
Layer 1
10
54.363291
20
122.022345
70
0
0
VERTEX
8
Layer 1
10
54.106121
20
122.308076
70
0
0
VERTEX
8
Layer 1
10
53.760573
20
122.476526
70
0
0
VERTEX
8
Layer 1
10
53.363082
20
122.500239
70
0
0
VERTEX
8
Layer 1
10
53.363082
20
122.500239
70
0
0
SEQEND
8
Layer 1
0
POLYLINE
8
Layer 1
62
7
70
0
10
0.000000
20
0.000000
66
1
0
VERTEX
8
Layer 1
10
50.623036
20
109.228540
70
0
0
VERTEX
8
Layer 1
10
50.253690
20
109.099501
70
0
0
VERTEX
8
Layer 1
10
49.961834
20
108.838948
70
0
0
VERTEX
8
Layer 1
10
49.791837
20
108.486531
70
0
0
VERTEX
8
Layer 1
10
49.769652
20
108.095884
70
0
0
VERTEX
8
Layer 1
10
49.898654
20
107.726486
70
0
0
VERTEX
8
Layer 1
10
50.159205
20
107.434578
70
0
0
VERTEX
8
Layer 1
10
56.110712
20
102.949792
70
0
0
VERTEX
8
Layer 1
10
60.595497
20
108.901299
70
0
0
VERTEX
8
Layer 1
10
60.765493
20
109.253717
70
0
0
VERTEX
8
Layer 1
10
60.787679
20
109.644364
70
0
0
VERTEX
8
Layer 1
10
60.658676
20
110.013762
70
0
0
VERTEX
8
Layer 1
10
60.398126
20
110.305670
70
0
0
VERTEX
8
Layer 1
10
60.039012
20
110.477586
70
0
0
VERTEX
8
Layer 1
10
59.655172
20
110.497769
70
0
0
VERTEX
8
Layer 1
10
59.291765
20
110.372567
70
0
0
VERTEX
8
Layer 1
10
58.993949
20
110.108327
70
0
0
VERTEX
8
Layer 1
10
55.715997
20
105.758340
70
0
0
VERTEX
8
Layer 1
10
51.366011
20
109.036292
70
0
0
VERTEX
8
Layer 1
10
51.013643
20
109.206305
70
0
0
VERTEX
8
Layer 1
10
50.623036
20
109.228540
70
0
0
VERTEX
8
Layer 1
10
50.623036
20
109.228540
70
0
0
SEQEND
8
Layer 1
0
POLYLINE
8
Layer 1
62
7
70
0
10
0.000000
20
0.000000
66
1
0
VERTEX
8
Layer 1
10
50.806613
20
113.897571
70
0
0
VERTEX
8
Layer 1
10
50.437157
20
113.768554
70
0
0
VERTEX
8
Layer 1
10
50.145217
20
113.507951
70
0
0
VERTEX
8
Layer 1
10
49.975221
20
113.155534
70
0
0
VERTEX
8
Layer 1
10
49.953035
20
112.764887
70
0
0
VERTEX
8
Layer 1
10
50.082038
20
112.395489
70
0
0
VERTEX
8
Layer 1
10
50.342588
20
112.103580
70
0
0
VERTEX
8
Layer 1
10
55.355082
20
108.326393
70
0
0
VERTEX
8
Layer 1
10
59.132269
20
113.338886
70
0
0
VERTEX
8
Layer 1
10
59.302265
20
113.691304
70
0
0
VERTEX
8
Layer 1
10
59.324451
20
114.081951
70
0
0
VERTEX
8
Layer 1
10
59.195448
20
114.451349
70
0
0
VERTEX
8
Layer 1
10
58.934898
20
114.743257
70
0
0
VERTEX
8
Layer 1
10
58.582480
20
114.913254
70
0
0
VERTEX
8
Layer 1
10
58.191834
20
114.935440
70
0
0
VERTEX
8
Layer 1
10
57.822435
20
114.806437
70
0
0
VERTEX
8
Layer 1
10
57.530527
20
114.545886
70
0
0
VERTEX
8
Layer 1
10
54.960340
20
111.135135
70
0
0
VERTEX
8
Layer 1
10
51.549588
20
113.705322
70
0
0
VERTEX
8
Layer 1
10
51.197220
20
113.875336
70
0
0
VERTEX
8
Layer 1
10
50.806613
20
113.897571
70
0
0
VERTEX
8
Layer 1
10
50.806613
20
113.897571
70
0
0
SEQEND
8
Layer 1
0
POLYLINE
8
Layer 1
62
7
70
0
10
0.000000
20
0.000000
66
1
0
VERTEX
8
Layer 1
10
52.204535
20
118.158568
70
0
0
VERTEX
8
Layer 1
10
51.835199
20
118.029622
70
0
0
VERTEX
8
Layer 1
10
51.543306
20
117.769170
70
0
0
VERTEX
8
Layer 1
10
51.373309
20
117.416752
70
0
0
VERTEX
8
Layer 1
10
51.351124
20
117.026106
70
0
0
VERTEX
8
Layer 1
10
51.480126
20
116.656707
70
0
0
VERTEX
8
Layer 1
10
51.740677
20
116.364799
70
0
0
VERTEX
8
Layer 1
10
54.519669
20
114.270677
70
0
0
VERTEX
8
Layer 1
10
56.613791
20
117.049669
70
0
0
VERTEX
8
Layer 1
10
56.783787
20
117.402087
70
0
0
VERTEX
8
Layer 1
10
56.805973
20
117.792733
70
0
0
VERTEX
8
Layer 1
10
56.676970
20
118.162132
70
0
0
VERTEX
8
Layer 1
10
56.416420
20
118.454040
70
0
0
VERTEX
8
Layer 1
10
56.064002
20
118.624036
70
0
0
VERTEX
8
Layer 1
10
55.673356
20
118.646222
70
0
0
VERTEX
8
Layer 1
10
55.303957
20
118.517219
70
0
0
VERTEX
8
Layer 1
10
55.012049
20
118.256669
70
0
0
VERTEX
8
Layer 1
10
54.124954
20
117.079224
70
0
0
VERTEX
8
Layer 1
10
52.947677
20
117.966541
70
0
0
VERTEX
8
Layer 1
10
52.595206
20
118.136471
70
0
0
VERTEX
8
Layer 1
10
52.204535
20
118.158568
70
0
0
VERTEX
8
Layer 1
10
52.204535
20
118.158568
70
0
0
SEQEND
8
Layer 1
0
POLYLINE
8
Layer 1
62
7
70
0
10
0.000000
20
0.000000
66
1
0
VERTEX
8
Layer 1
10
72.219805
20
114.989734
70
0
0
VERTEX
8
Layer 1
10
71.829633
20
114.960685
70
0
0
VERTEX
8
Layer 1
10
71.480276
20
114.784538
70
0
0
VERTEX
8
Layer 1
10
55.676436
20
102.437233
70
0
0
VERTEX
8
Layer 1
10
55.417379
20
102.134829
70
0
0
VERTEX
8
Layer 1
10
55.298518
20
101.769251
70
0
0
VERTEX
8
Layer 1
10
55.325410
20
101.385777
70
0
0
VERTEX
8
Layer 1
10
55.503617
20
101.029686
70
0
0
VERTEX
8
Layer 1
10
55.806021
20
100.770629
70
0
0
VERTEX
8
Layer 1
10
56.171599
20
100.651768
70
0
0
VERTEX
8
Layer 1
10
56.555073
20
100.678660
70
0
0
VERTEX
8
Layer 1
10
56.911164
20
100.856867
70
0
0
VERTEX
8
Layer 1
10
72.715004
20
113.204173
70
0
0
VERTEX
8
Layer 1
10
72.974061
20
113.506576
70
0
0
VERTEX
8
Layer 1
10
73.092922
20
113.872155
70
0
0
VERTEX
8
Layer 1
10
73.066029
20
114.255629
70
0
0
VERTEX
8
Layer 1
10
72.887822
20
114.611719
70
0
0
VERTEX
8
Layer 1
10
72.591413
20
114.867172
70
0
0
VERTEX
8
Layer 1
10
72.219805
20
114.989734
70
0
0
VERTEX
8
Layer 1
10
72.219805
20
114.989734
70
0
0
SEQEND
8
Layer 1
0
POLYLINE
8
Layer 1
62
7
70
0
10
0.000000
20
0.000000
66
1
0
VERTEX
8
Layer 1
10
59.356201
20
110.726662
70
0
0
VERTEX
8
Layer 1
10
58.966010
20
110.697695
70
0
0
VERTEX
8
Layer 1
10
58.616605
20
110.521612
70
0
0
VERTEX
8
Layer 1
10
58.361184
20
110.225219
70
0
0
VERTEX
8
Layer 1
10
58.238631
20
109.853642
70
0
0
VERTEX
8
Layer 1
10
57.330460
20
102.456880
70
0
0
VERTEX
8
Layer 1
10
64.727027
20
101.548682
70
0
0
VERTEX
8
Layer 1
10
65.117251
20
101.577678
70
0
0
VERTEX
8
Layer 1
10
65.466668
20
101.753812
70
0
0
VERTEX
8
Layer 1
10
65.722071
20
102.050265
70
0
0
VERTEX
8
Layer 1
10
65.844571
20
102.421895
70
0
0
VERTEX
8
Layer 1
10
65.813896
20
102.818853
70
0
0
VERTEX
8
Layer 1
10
65.639455
20
103.161358
70
0
0
VERTEX
8
Layer 1
10
65.349324
20
103.413476
70
0
0
VERTEX
8
Layer 1
10
64.971578
20
103.539272
70
0
0
VERTEX
8
Layer 1
10
59.565379
20
104.203087
70
0
0
VERTEX
8
Layer 1
10
60.229194
20
109.609286
70
0
0
VERTEX
8
Layer 1
10
60.198518
20
110.006243
70
0
0
VERTEX
8
Layer 1
10
60.024078
20
110.348748
70
0
0
VERTEX
8
Layer 1
10
59.733947
20
110.600866
70
0
0
VERTEX
8
Layer 1
10
59.356201
20
110.726662
70
0
0
VERTEX
8
Layer 1
10
59.356201
20
110.726662
70
0
0
SEQEND
8
Layer 1
0
POLYLINE
8
Layer 1
62
7
70
0
10
0.000000
20
0.000000
66
1
0
VERTEX
8
Layer 1
10
63.491340
20
112.902302
70
0
0
VERTEX
8
Layer 1
10
63.094382
20
112.871627
70
0
0
VERTEX
8
Layer 1
10
62.751876
20
112.697186
70
0
0
VERTEX
8
Layer 1
10
62.499758
20
112.407055
70
0
0
VERTEX
8
Layer 1
10
62.373963
20
112.029309
70
0
0
VERTEX
8
Layer 1
10
61.608898
20
105.799771
70
0
0
VERTEX
8
Layer 1
10
67.838409
20
105.034900
70
0
0
VERTEX
8
Layer 1
10
68.228601
20
105.063867
70
0
0
VERTEX
8
Layer 1
10
68.578005
20
105.239950
70
0
0
VERTEX
8
Layer 1
10
68.833427
20
105.536343
70
0
0
VERTEX
8
Layer 1
10
68.955979
20
105.907920
70
0
0
VERTEX
8
Layer 1
10
68.927012
20
106.298112
70
0
0
VERTEX
8
Layer 1
10
68.750929
20
106.647516
70
0
0
VERTEX
8
Layer 1
10
68.454537
20
106.902937
70
0
0
VERTEX
8
Layer 1
10
68.082960
20
107.025490
70
0
0
VERTEX
8
Layer 1
10
63.844012
20
107.546004
70
0
0
VERTEX
8
Layer 1
10
64.364553
20
111.784759
70
0
0
VERTEX
8
Layer 1
10
64.335557
20
112.174982
70
0
0
VERTEX
8
Layer 1
10
64.159423
20
112.524399
70
0
0
VERTEX
8
Layer 1
10
63.862970
20
112.779802
70
0
0
VERTEX
8
Layer 1
10
63.491340
20
112.902302
70
0
0
VERTEX
8
Layer 1
10
63.491340
20
112.902302
70
0
0
SEQEND
8
Layer 1
0
POLYLINE
8
Layer 1
62
7
70
0
10
0.000000
20
0.000000
66
1
0
VERTEX
8
Layer 1
10
67.880690
20
113.822178
70
0
0
VERTEX
8
Layer 1
10
67.490467
20
113.793183
70
0
0
VERTEX
8
Layer 1
10
67.141050
20
113.617049
70
0
0
VERTEX
8
Layer 1
10
66.885647
20
113.320596
70
0
0
VERTEX
8
Layer 1
10
66.763147
20
112.948965
70
0
0
VERTEX
8
Layer 1
10
66.339143
20
109.495310
70
0
0
VERTEX
8
Layer 1
10
69.792798
20
109.071306
70
0
0
VERTEX
8
Layer 1
10
70.182990
20
109.100273
70
0
0
VERTEX
8
Layer 1
10
70.532394
20
109.276356
70
0
0
VERTEX
8
Layer 1
10
70.787815
20
109.572748
70
0
0
VERTEX
8
Layer 1
10
70.910368
20
109.944325
70
0
0
VERTEX
8
Layer 1
10
70.881401
20
110.334517
70
0
0
VERTEX
8
Layer 1
10
70.705318
20
110.683921
70
0
0
VERTEX
8
Layer 1
10
70.408926
20
110.939343
70
0
0
VERTEX
8
Layer 1
10
70.037349
20
111.061896
70
0
0
VERTEX
8
Layer 1
10
68.574062
20
111.241516
70
0
0
VERTEX
8
Layer 1
10
68.753710
20
112.704609
70
0
0
VERTEX
8
Layer 1
10
68.724743
20
113.094800
70
0
0
VERTEX
8
Layer 1
10
68.548659
20
113.444204
70
0
0
VERTEX
8
Layer 1
10
68.252267
20
113.699626
70
0
0
VERTEX
8
Layer 1
10
67.880690
20
113.822178
70
0
0
VERTEX
8
Layer 1
10
67.880690
20
113.822178
70
0
0
SEQEND
8
Layer 1
0
POLYLINE
8
Layer 1
62
7
70
0
10
0.000000
20
0.000000
66
1
0
VERTEX
8
Layer 1
10
55.902005
20
102.570197
70
0
0
VERTEX
8
Layer 1
10
55.578574
20
102.349953
70
0
0
VERTEX
8
Layer 1
10
55.364059
20
102.022695
70
0
0
VERTEX
8
Layer 1
10
55.290907
20
101.631278
70
0
0
VERTEX
8
Layer 1
10
55.370756
20
101.255247
70
0
0
VERTEX
8
Layer 1
10
55.585780
20
100.936592
70
0
0
VERTEX
8
Layer 1
10
55.918155
20
100.717309
70
0
0
VERTEX
8
Layer 1
10
74.513155
20
93.204435
70
0
0
VERTEX
8
Layer 1
10
74.904572
20
93.131283
70
0
0
VERTEX
8
Layer 1
10
75.280603
20
93.211132
70
0
0
VERTEX
8
Layer 1
10
75.599257
20
93.426156
70
0
0
VERTEX
8
Layer 1
10
75.818540
20
93.758530
70
0
0
VERTEX
8
Layer 1
10
75.891692
20
94.149947
70
0
0
VERTEX
8
Layer 1
10
75.811844
20
94.525979
70
0
0
VERTEX
8
Layer 1
10
75.596820
20
94.844633
70
0
0
VERTEX
8
Layer 1
10
75.264445
20
95.063916
70
0
0
VERTEX
8
Layer 1
10
56.669445
20
102.576791
70
0
0
VERTEX
8
Layer 1
10
56.285069
20
102.649818
70
0
0
VERTEX
8
Layer 1
10
55.902005
20
102.570197
70
0
0
VERTEX
8
Layer 1
10
55.902005
20
102.570197
70
0
0
SEQEND
8
Layer 1
0
POLYLINE
8
Layer 1
62
7
70
0
10
0.000000
20
0.000000
66
1
0
VERTEX
8
Layer 1
10
64.373226
20
104.066115
70
0
0
VERTEX
8
Layer 1
10
57.513521
20
101.154333
70
0
0
VERTEX
8
Layer 1
10
60.425330
20
94.294433
70
0
0
VERTEX
8
Layer 1
10
60.645556
20
93.971030
70
0
0
VERTEX
8
Layer 1
10
60.972780
20
93.756523
70
0
0
VERTEX
8
Layer 1
10
61.357184
20
93.683569
70
0
0
VERTEX
8
Layer 1
10
61.740244
20
93.763276
70
0
0
VERTEX
8
Layer 1
10
62.068683
20
93.988319
70
0
0
VERTEX
8
Layer 1
10
62.278082
20
94.310641
70
0
0
VERTEX
8
Layer 1
10
62.351358
20
94.687960
70
0
0
VERTEX
8
Layer 1
10
62.271429
20
95.077995
70
0
0
VERTEX
8
Layer 1
10
60.143182
20
100.091797
70
0
0
VERTEX
8
Layer 1
10
65.156983
20
102.220044
70
0
0
VERTEX
8
Layer 1
10
65.485422
20
102.445087
70
0
0
VERTEX
8
Layer 1
10
65.694821
20
102.767409
70
0
0
VERTEX
8
Layer 1
10
65.768097
20
103.144729
70
0
0
VERTEX
8
Layer 1
10
65.688167
20
103.534764
70
0
0
VERTEX
8
Layer 1
10
65.467978
20
103.858233
70
0
0
VERTEX
8
Layer 1
10
65.140755
20
104.072803
70
0
0
VERTEX
8
Layer 1
10
64.756325
20
104.145802
70
0
0
VERTEX
8
Layer 1
10
64.373226
20
104.066115
70
0
0
VERTEX
8
Layer 1
10
64.373226
20
104.066115
70
0
0
SEQEND
8
Layer 1
0
POLYLINE
8
Layer 1
62
7
70
0
10
0.000000
20
0.000000
66
1
0
VERTEX
8
Layer 1
10
68.325008
20
101.572558
70
0
0
VERTEX
8
Layer 1
10
62.547644
20
99.120234
70
0
0
VERTEX
8
Layer 1
10
65.000161
20
93.342897
70
0
0
VERTEX
8
Layer 1
10
65.225204
20
93.014458
70
0
0
VERTEX
8
Layer 1
10
65.547526
20
92.805059
70
0
0
VERTEX
8
Layer 1
10
65.924846
20
92.731783
70
0
0
VERTEX
8
Layer 1
10
66.314882
20
92.811712
70
0
0
VERTEX
8
Layer 1
10
66.638350
20
93.031901
70
0
0
VERTEX
8
Layer 1
10
66.852920
20
93.359124
70
0
0
VERTEX
8
Layer 1
10
66.925920
20
93.743554
70
0
0
VERTEX
8
Layer 1
10
66.846232
20
94.126653
70
0
0
VERTEX
8
Layer 1
10
65.177500
20
98.057726
70
0
0
VERTEX
8
Layer 1
10
69.108766
20
99.726487
70
0
0
VERTEX
8
Layer 1
10
69.432168
20
99.946712
70
0
0
VERTEX
8
Layer 1
10
69.646675
20
100.273936
70
0
0
VERTEX
8
Layer 1
10
69.719629
20
100.658339
70
0
0
VERTEX
8
Layer 1
10
69.639923
20
101.041400
70
0
0
VERTEX
8
Layer 1
10
69.419697
20
101.364803
70
0
0
VERTEX
8
Layer 1
10
69.092473
20
101.579310
70
0
0
VERTEX
8
Layer 1
10
68.708069
20
101.652264
70
0
0
VERTEX
8
Layer 1
10
68.325008
20
101.572558
70
0
0
VERTEX
8
Layer 1
10
68.325008
20
101.572558
70
0
0
SEQEND
8
Layer 1
0
POLYLINE
8
Layer 1
62
7
70
0
10
0.000000
20
0.000000
66
1
0
VERTEX
8
Layer 1
10
71.316270
20
98.231216
70
0
0
VERTEX
8
Layer 1
10
68.113274
20
96.871683
70
0
0
VERTEX
8
Layer 1
10
69.472807
20
93.668687
70
0
0
VERTEX
8
Layer 1
10
69.692997
20
93.345218
70
0
0
VERTEX
8
Layer 1
10
70.020220
20
93.130648
70
0
0
VERTEX
8
Layer 1
10
70.404649
20
93.057649
70
0
0
VERTEX
8
Layer 1
10
70.787749
20
93.137336
70
0
0
VERTEX
8
Layer 1
10
71.111151
20
93.357562
70
0
0
VERTEX
8
Layer 1
10
71.325658
20
93.684785
70
0
0
VERTEX
8
Layer 1
10
71.398612
20
94.069189
70
0
0
VERTEX
8
Layer 1
10
71.318906
20
94.452249
70
0
0
VERTEX
8
Layer 1
10
70.742935
20
95.809147
70
0
0
VERTEX
8
Layer 1
10
72.100027
20
96.385145
70
0
0
VERTEX
8
Layer 1
10
72.423430
20
96.605371
70
0
0
VERTEX
8
Layer 1
10
72.637937
20
96.932594
70
0
0
VERTEX
8
Layer 1
10
72.710890
20
97.316999
70
0
0
VERTEX
8
Layer 1
10
72.631183
20
97.700059
70
0
0
VERTEX
8
Layer 1
10
72.410958
20
98.023462
70
0
0
VERTEX
8
Layer 1
10
72.083734
20
98.237969
70
0
0
VERTEX
8
Layer 1
10
71.699331
20
98.310923
70
0
0
VERTEX
8
Layer 1
10
71.316270
20
98.231216
70
0
0
VERTEX
8
Layer 1
10
71.316270
20
98.231216
70
0
0
SEQEND
8
Layer 1
0
POLYLINE
8
Layer 1
62
7
70
0
10
0.000000
20
0.000000
66
1
0
VERTEX
8
Layer 1
10
20.450833
20
94.988393
70
0
0
VERTEX
8
Layer 1
10
20.829180
20
94.917683
70
0
0
VERTEX
8
Layer 1
10
21.192656
20
94.994867
70
0
0
VERTEX
8
Layer 1
10
21.500669
20
95.202714
70
0
0
VERTEX
8
Layer 1
10
21.712627
20
95.523993
70
0
0
VERTEX
8
Layer 1
10
28.974567
20
113.497933
70
0
0
VERTEX
8
Layer 1
10
28.968093
20
114.239756
70
0
0
VERTEX
8
Layer 1
10
28.438967
20
114.759727
70
0
0
VERTEX
8
Layer 1
10
28.060620
20
114.830437
70
0
0
VERTEX
8
Layer 1
10
27.697144
20
114.753253
70
0
0
VERTEX
8
Layer 1
10
27.389131
20
114.545406
70
0
0
VERTEX
8
Layer 1
10
27.177173
20
114.224127
70
0
0
VERTEX
8
Layer 1
10
19.915233
20
96.250187
70
0
0
VERTEX
8
Layer 1
10
19.844523
20
95.871840
70
0
0
VERTEX
8
Layer 1
10
19.921707
20
95.508364
70
0
0
VERTEX
8
Layer 1
10
20.129554
20
95.200351
70
0
0
VERTEX
8
Layer 1
10
20.450833
20
94.988393
70
0
0
VERTEX
8
Layer 1
10
20.450833
20
94.988393
70
0
0
SEQEND
8
Layer 1
0
POLYLINE
8
Layer 1
62
7
70
0
10
0.000000
20
0.000000
66
1
0
VERTEX
8
Layer 1
10
22.008321
20
98.843312
70
0
0
VERTEX
8
Layer 1
10
23.648407
20
99.539487
70
0
0
VERTEX
8
Layer 1
10
24.168405
20
100.068625
70
0
0
VERTEX
8
Layer 1
10
24.161920
20
100.810477
70
0
0
VERTEX
8
Layer 1
10
23.681497
20
101.280380
70
0
0
VERTEX
8
Layer 1
10
23.010950
20
101.324909
70
0
0
VERTEX
8
Layer 1
10
22.497667
20
101.758678
70
0
0
VERTEX
8
Layer 1
10
21.825658
20
101.754387
70
0
0
VERTEX
8
Layer 1
10
21.305659
20
101.225249
70
0
0
VERTEX
8
Layer 1
10
21.312145
20
100.483398
70
0
0
VERTEX
8
Layer 1
10
22.008321
20
98.843312
70
0
0
SEQEND
8
Layer 1
0
POLYLINE
8
Layer 1
62
7
70
0
10
0.000000
20
0.000000
66
1
0
VERTEX
8
Layer 1
10
23.677219
20
102.973983
70
0
0
VERTEX
8
Layer 1
10
26.335930
20
104.102685
70
0
0
VERTEX
8
Layer 1
10
26.653399
20
104.320212
70
0
0
VERTEX
8
Layer 1
10
26.855804
20
104.631770
70
0
0
VERTEX
8
Layer 1
10
26.926633
20
104.996489
70
0
0
VERTEX
8
Layer 1
10
26.849371
20
105.373498
70
0
0
VERTEX
8
Layer 1
10
26.631843
20
105.690968
70
0
0
VERTEX
8
Layer 1
10
26.320286
20
105.893373
70
0
0
VERTEX
8
Layer 1
10
25.955567
20
105.964201
70
0
0
VERTEX
8
Layer 1
10
25.578558
20
105.886940
70
0
0
VERTEX
8
Layer 1
10
24.704245
20
105.515962
70
0
0
VERTEX
8
Layer 1
10
24.333020
20
106.390170
70
0
0
VERTEX
8
Layer 1
10
24.115492
20
106.707639
70
0
0
VERTEX
8
Layer 1
10
23.803934
20
106.910044
70
0
0
VERTEX
8
Layer 1
10
23.439216
20
106.980873
70
0
0
VERTEX
8
Layer 1
10
23.062206
20
106.903611
70
0
0
VERTEX
8
Layer 1
10
22.744736
20
106.686083
70
0
0
VERTEX
8
Layer 1
10
22.542331
20
106.374526
70
0
0
VERTEX
8
Layer 1
10
22.471503
20
106.009807
70
0
0
VERTEX
8
Layer 1
10
22.548765
20
105.632798
70
0
0
VERTEX
8
Layer 1
10
23.677219
20
102.973983
70
0
0
SEQEND
8
Layer 1
0
POLYLINE
8
Layer 1
62
7
70
0
10
0.000000
20
0.000000
66
1
0
VERTEX
8
Layer 1
10
25.184710
20
106.705155
70
0
0
VERTEX
8
Layer 1
10
29.984035
20
108.742494
70
0
0
VERTEX
8
Layer 1
10
30.301504
20
108.960021
70
0
0
VERTEX
8
Layer 1
10
30.503910
20
109.271579
70
0
0
VERTEX
8
Layer 1
10
30.574738
20
109.636297
70
0
0
VERTEX
8
Layer 1
10
30.497476
20
110.013307
70
0
0
VERTEX
8
Layer 1
10
30.279949
20
110.330777
70
0
0
VERTEX
8
Layer 1
10
29.968391
20
110.533182
70
0
0
VERTEX
8
Layer 1
10
29.603672
20
110.604011
70
0
0
VERTEX
8
Layer 1
10
29.226662
20
110.526749
70
0
0
VERTEX
8
Layer 1
10
26.211665
20
109.246958
70
0
0
VERTEX
8
Layer 1
10
24.931874
20
112.261955
70
0
0
VERTEX
8
Layer 1
10
24.714346
20
112.579426
70
0
0
VERTEX
8
Layer 1
10
24.402788
20
112.781831
70
0
0
VERTEX
8
Layer 1
10
24.038069
20
112.852659
70
0
0
VERTEX
8
Layer 1
10
23.661059
20
112.775397
70
0
0
VERTEX
8
Layer 1
10
23.343590
20
112.557870
70
0
0
VERTEX
8
Layer 1
10
23.141184
20
112.246312
70
0
0
VERTEX
8
Layer 1
10
23.070356
20
111.881593
70
0
0
VERTEX
8
Layer 1
10
23.147618
20
111.504584
70
0
0
VERTEX
8
Layer 1
10
25.184710
20
106.705155
70
0
0
SEQEND
8
Layer 1
0
POLYLINE
8
Layer 1
62
7
70
0
10
0.000000
20
0.000000
66
1
0
VERTEX
8
Layer 1
10
20.230600
20
95.112900
70
0
0
VERTEX
8
Layer 1
10
20.948831
20
94.927256
70
0
0
VERTEX
8
Layer 1
10
40.145689
20
97.625201
70
0
0
VERTEX
8
Layer 1
10
40.508697
20
97.753141
70
0
0
VERTEX
8
Layer 1
10
40.784880
20
98.001722
70
0
0
VERTEX
8
Layer 1
10
40.947701
20
98.335726
70
0
0
VERTEX
8
Layer 1
10
40.970622
20
98.719937
70
0
0
VERTEX
8
Layer 1
10
40.842682
20
99.082944
70
0
0
VERTEX
8
Layer 1
10
40.594102
20
99.359127
70
0
0
VERTEX
8
Layer 1
10
40.260099
20
99.521948
70
0
0
VERTEX
8
Layer 1
10
39.875888
20
99.544870
70
0
0
VERTEX
8
Layer 1
10
20.679029
20
96.846924
70
0
0
VERTEX
8
Layer 1
10
20.316021
20
96.718985
70
0
0
VERTEX
8
Layer 1
10
20.039838
20
96.470404
70
0
0
VERTEX
8
Layer 1
10
19.877017
20
96.136400
70
0
0
VERTEX
8
Layer 1
10
19.854096
20
95.752189
70
0
0
VERTEX
8
Layer 1
10
20.230600
20
95.112900
70
0
0
VERTEX
8
Layer 1
10
20.230600
20
95.112900
70
0
0
SEQEND
8
Layer 1
0
POLYLINE
8
Layer 1
62
7
70
0
10
0.000000
20
0.000000
66
1
0
VERTEX
8
Layer 1
10
25.394317
20
95.258507
70
0
0
VERTEX
8
Layer 1
10
25.741436
20
95.092335
70
0
0
VERTEX
8
Layer 1
10
26.112455
20
95.072827
70
0
0
VERTEX
8
Layer 1
10
26.463723
20
95.193848
70
0
0
VERTEX
8
Layer 1
10
26.751591
20
95.449262
70
0
0
VERTEX
8
Layer 1
10
26.918390
20
96.100325
70
0
0
VERTEX
8
Layer 1
10
26.621648
20
96.703357
70
0
0
VERTEX
8
Layer 1
10
26.740729
20
97.364801
70
0
0
VERTEX
8
Layer 1
10
26.400996
20
97.944689
70
0
0
VERTEX
8
Layer 1
10
25.682703
20
98.130443
70
0
0
VERTEX
8
Layer 1
10
25.043476
20
97.753829
70
0
0
VERTEX
8
Layer 1
10
23.971183
20
96.330871
70
0
0
VERTEX
8
Layer 1
10
25.394317
20
95.258507
70
0
0
SEQEND
8
Layer 1
0
POLYLINE
8
Layer 1
62
7
70
0
10
0.000000
20
0.000000
66
1
0
VERTEX
8
Layer 1
10
30.689764
20
95.212663
70
0
0
VERTEX
8
Layer 1
10
31.407981
20
95.026864
70
0
0
VERTEX
8
Layer 1
10
32.047213
20
95.403346
70
0
0
VERTEX
8
Layer 1
10
32.232967
20
96.121639
70
0
0
VERTEX
8
Layer 1
10
31.856353
20
96.760867
70
0
0
VERTEX
8
Layer 1
10
31.097802
20
97.332366
70
0
0
VERTEX
8
Layer 1
10
31.669477
20
98.090847
70
0
0
VERTEX
8
Layer 1
10
31.855230
20
98.809140
70
0
0
VERTEX
8
Layer 1
10
31.478617
20
99.448367
70
0
0
VERTEX
8
Layer 1
10
31.131498
20
99.614538
70
0
0
VERTEX
8
Layer 1
10
30.760480
20
99.634046
70
0
0
VERTEX
8
Layer 1
10
30.409211
20
99.513026
70
0
0
VERTEX
8
Layer 1
10
30.121343
20
99.257612
70
0
0
VERTEX
8
Layer 1
10
28.383079
20
96.950927
70
0
0
VERTEX
8
Layer 1
10
30.689764
20
95.212663
70
0
0
SEQEND
8
Layer 1
0
POLYLINE
8
Layer 1
62
7
70
0
10
0.000000
20
0.000000
66
1
0
VERTEX
8
Layer 1
10
36.532100
20
94.373137
70
0
0
VERTEX
8
Layer 1
10
36.879219
20
94.206965
70
0
0
VERTEX
8
Layer 1
10
37.250238
20
94.187457
70
0
0
VERTEX
8
Layer 1
10
37.601506
20
94.308478
70
0
0
VERTEX
8
Layer 1
10
37.889374
20
94.563892
70
0
0
VERTEX
8
Layer 1
10
38.075173
20
95.282109
70
0
0
VERTEX
8
Layer 1
10
37.698689
20
95.921341
70
0
0
VERTEX
8
Layer 1
10
35.082855
20
97.892522
70
0
0
VERTEX
8
Layer 1
10
37.053964
20
100.508181
70
0
0
VERTEX
8
Layer 1
10
37.239763
20
101.226398
70
0
0
VERTEX
8
Layer 1
10
36.863280
20
101.865631
70
0
0
VERTEX
8
Layer 1
10
36.145063
20
102.051430
70
0
0
VERTEX
8
Layer 1
10
35.505830
20
101.674946
70
0
0
VERTEX
8
Layer 1
10
32.368061
20
97.510907
70
0
0
VERTEX
8
Layer 1
10
36.532100
20
94.373137
70
0
0
SEQEND
8
Layer 1
0
POLYLINE
8
Layer 1
62
7
70
0
10
0.000000
20
0.000000
66
1
0
VERTEX
8
Layer 1
10
32.630664
20
79.648974
70
0
0
VERTEX
8
Layer 1
10
33.345585
20
79.847300
70
0
0
VERTEX
8
Layer 1
10
33.595992
20
80.139600
70
0
0
VERTEX
8
Layer 1
10
33.710887
20
80.492967
70
0
0
VERTEX
8
Layer 1
10
33.684896
20
80.863634
70
0
0
VERTEX
8
Layer 1
10
33.512645
20
81.207833
70
0
0
VERTEX
8
Layer 1
10
21.577726
20
96.483827
70
0
0
VERTEX
8
Layer 1
10
21.285425
20
96.734235
70
0
0
VERTEX
8
Layer 1
10
20.932058
20
96.849129
70
0
0
VERTEX
8
Layer 1
10
20.561391
20
96.823138
70
0
0
VERTEX
8
Layer 1
10
20.217193
20
96.650886
70
0
0
VERTEX
8
Layer 1
10
19.966785
20
96.358585
70
0
0
VERTEX
8
Layer 1
10
19.851891
20
96.005218
70
0
0
VERTEX
8
Layer 1
10
19.877882
20
95.634551
70
0
0
VERTEX
8
Layer 1
10
20.050134
20
95.290353
70
0
0
VERTEX
8
Layer 1
10
31.985052
20
80.014358
70
0
0
VERTEX
8
Layer 1
10
32.630664
20
79.648974
70
0
0
VERTEX
8
Layer 1
10
32.630664
20
79.648974
70
0
0
SEQEND
8
Layer 1
0
POLYLINE
8
Layer 1
62
7
70
0
10
0.000000
20
0.000000
66
1
0
VERTEX
8
Layer 1
10
23.403602
20
90.525875
70
0
0
VERTEX
8
Layer 1
10
24.050810
20
90.707014
70
0
0
VERTEX
8
Layer 1
10
24.424627
20
91.265538
70
0
0
VERTEX
8
Layer 1
10
25.056987
20
91.493189
70
0
0
VERTEX
8
Layer 1
10
25.389268
20
92.077392
70
0
0
VERTEX
8
Layer 1
10
25.359618
20
92.461092
70
0
0
VERTEX
8
Layer 1
10
25.191005
20
92.792158
70
0
0
VERTEX
8
Layer 1
10
24.910565
20
93.035856
70
0
0
VERTEX
8
Layer 1
10
24.545437
20
93.157452
70
0
0
VERTEX
8
Layer 1
10
22.776792
20
93.374649
70
0
0
VERTEX
8
Layer 1
10
22.559665
20
91.606180
70
0
0
VERTEX
8
Layer 1
10
22.757871
20
90.891223
70
0
0
VERTEX
8
Layer 1
10
23.403602
20
90.525875
70
0
0
VERTEX
8
Layer 1
10
23.403602
20
90.525875
70
0
0
SEQEND
8
Layer 1
0
POLYLINE
8
Layer 1
62
7
70
0
10
0.000000
20
0.000000
66
1
0
VERTEX
8
Layer 1
10
26.011596
20
85.917010
70
0
0
VERTEX
8
Layer 1
10
26.726553
20
86.115214
70
0
0
VERTEX
8
Layer 1
10
27.091901
20
86.760945
70
0
0
VERTEX
8
Layer 1
10
27.207558
20
87.703670
70
0
0
VERTEX
8
Layer 1
10
28.150211
20
87.587838
70
0
0
VERTEX
8
Layer 1
10
28.865168
20
87.786042
70
0
0
VERTEX
8
Layer 1
10
29.230517
20
88.431774
70
0
0
VERTEX
8
Layer 1
10
29.032218
20
89.146641
70
0
0
VERTEX
8
Layer 1
10
28.386509
20
89.511904
70
0
0
VERTEX
8
Layer 1
10
25.519719
20
89.863858
70
0
0
VERTEX
8
Layer 1
10
25.167764
20
86.997068
70
0
0
VERTEX
8
Layer 1
10
25.197414
20
86.613369
70
0
0
VERTEX
8
Layer 1
10
25.366027
20
86.282303
70
0
0
VERTEX
8
Layer 1
10
25.646467
20
86.038605
70
0
0
VERTEX
8
Layer 1
10
26.011596
20
85.917010
70
0
0
VERTEX
8
Layer 1
10
26.011596
20
85.917010
70
0
0
SEQEND
8
Layer 1
0
POLYLINE
8
Layer 1
62
7
70
0
10
0.000000
20
0.000000
66
1
0
VERTEX
8
Layer 1
10
28.205828
20
80.437675
70
0
0
VERTEX
8
Layer 1
10
28.920695
20
80.635973
70
0
0
VERTEX
8
Layer 1
10
29.285957
20
81.281682
70
0
0
VERTEX
8
Layer 1
10
29.685049
20
84.532478
70
0
0
VERTEX
8
Layer 1
10
32.936020
20
84.133316
70
0
0
VERTEX
8
Layer 1
10
33.650887
20
84.331614
70
0
0
VERTEX
8
Layer 1
10
34.016150
20
84.977322
70
0
0
VERTEX
8
Layer 1
10
33.986501
20
85.361022
70
0
0
VERTEX
8
Layer 1
10
33.817887
20
85.692088
70
0
0
VERTEX
8
Layer 1
10
33.537447
20
85.935786
70
0
0
VERTEX
8
Layer 1
10
33.172318
20
86.057381
70
0
0
VERTEX
8
Layer 1
10
27.997281
20
86.692842
70
0
0
VERTEX
8
Layer 1
10
27.361820
20
81.517805
70
0
0
VERTEX
8
Layer 1
10
27.560118
20
80.802938
70
0
0
VERTEX
8
Layer 1
10
28.205828
20
80.437675
70
0
0
VERTEX
8
Layer 1
10
28.205828
20
80.437675
70
0
0
SEQEND
8
Layer 1
0
POLYLINE
8
Layer 1
62
7
70
1
10
0.000000
20
0.000000
66
1
0
VERTEX
8
Layer 1
10
13.188893
20
77.014453
70
0
0
VERTEX
8
Layer 1
10
13.567240
20
76.943743
70
0
0
VERTEX
8
Layer 1
10
13.930716
20
77.020927
70
0
0
VERTEX
8
Layer 1
10
14.238729
20
77.228774
70
0
0
VERTEX
8
Layer 1
10
14.450687
20
77.550053
70
0
0
VERTEX
8
Layer 1
10
21.712627
20
95.523993
70
0
0
VERTEX
8
Layer 1
10
21.706153
20
96.265816
70
0
0
VERTEX
8
Layer 1
10
21.177027
20
96.785787
70
0
0
VERTEX
8
Layer 1
10
20.798680
20
96.856497
70
0
0
VERTEX
8
Layer 1
10
20.435204
20
96.779313
70
0
0
VERTEX
8
Layer 1
10
20.127191
20
96.571466
70
0
0
VERTEX
8
Layer 1
10
19.915233
20
96.250187
70
0
0
VERTEX
8
Layer 1
10
12.653293
20
78.276247
70
0
0
VERTEX
8
Layer 1
10
12.582583
20
77.897900
70
0
0
VERTEX
8
Layer 1
10
12.659767
20
77.534424
70
0
0
VERTEX
8
Layer 1
10
12.867614
20
77.226411
70
0
0
VERTEX
8
Layer 1
10
13.188893
20
77.014453
70
0
0
VERTEX
8
Layer 1
10
13.188893
20
77.014453
70
0
0
SEQEND
8
Layer 1
0
POLYLINE
8
Layer 1
62
7
70
0
10
0.000000
20
0.000000
66
1
0
VERTEX
8
Layer 1
10
19.060419
20
90.013225
70
0
0
VERTEX
8
Layer 1
10
19.802202
20
90.019793
70
0
0
VERTEX
8
Layer 1
10
20.322201
20
90.548931
70
0
0
VERTEX
8
Layer 1
10
20.315715
20
91.290782
70
0
0
VERTEX
8
Layer 1
10
19.619539
20
92.930868
70
0
0
VERTEX
8
Layer 1
10
17.979453
20
92.234693
70
0
0
VERTEX
8
Layer 1
10
17.459455
20
91.705555
70
0
0
VERTEX
8
Layer 1
10
17.465940
20
90.963703
70
0
0
VERTEX
8
Layer 1
10
17.946363
20
90.493800
70
0
0
VERTEX
8
Layer 1
10
18.616910
20
90.449271
70
0
0
VERTEX
8
Layer 1
10
19.060419
20
90.013225
70
0
0
VERTEX
8
Layer 1
10
19.060419
20
90.013225
70
0
0
SEQEND
8
Layer 1
0
POLYLINE
8
Layer 1
62
7
70
1
10
0.000000
20
0.000000
66
1
0
VERTEX
8
Layer 1
10
17.823871
20
84.863999
70
0
0
VERTEX
8
Layer 1
10
18.565654
20
84.870569
70
0
0
VERTEX
8
Layer 1
10
18.883124
20
85.088097
70
0
0
VERTEX
8
Layer 1
10
19.085529
20
85.399654
70
0
0
VERTEX
8
Layer 1
10
19.156357
20
85.764373
70
0
0
VERTEX
8
Layer 1
10
19.079095
20
86.141382
70
0
0
VERTEX
8
Layer 1
10
17.950641
20
88.800197
70
0
0
VERTEX
8
Layer 1
10
15.291930
20
87.671495
70
0
0
VERTEX
8
Layer 1
10
14.974461
20
87.453968
70
0
0
VERTEX
8
Layer 1
10
14.772056
20
87.142410
70
0
0
VERTEX
8
Layer 1
10
14.701227
20
86.777691
70
0
0
VERTEX
8
Layer 1
10
14.778489
20
86.400682
70
0
0
VERTEX
8
Layer 1
10
14.996017
20
86.083212
70
0
0
VERTEX
8
Layer 1
10
15.307574
20
85.880807
70
0
0
VERTEX
8
Layer 1
10
15.672293
20
85.809979
70
0
0
VERTEX
8
Layer 1
10
16.049302
20
85.887240
70
0
0
VERTEX
8
Layer 1
10
16.923615
20
86.258218
70
0
0
VERTEX
8
Layer 1
10
17.294840
20
85.384010
70
0
0
VERTEX
8
Layer 1
10
17.823871
20
84.863999
70
0
0
VERTEX
8
Layer 1
10
17.823871
20
84.863999
70
0
0
SEQEND
8
Layer 1
0
POLYLINE
8
Layer 1
62
7
70
0
10
0.000000
20
0.000000
66
1
0
VERTEX
8
Layer 1
10
17.225017
20
78.992214
70
0
0
VERTEX
8
Layer 1
10
17.966801
20
78.998783
70
0
0
VERTEX
8
Layer 1
10
18.284270
20
79.216310
70
0
0
VERTEX
8
Layer 1
10
18.486676
20
79.527868
70
0
0
VERTEX
8
Layer 1
10
18.557504
20
79.892587
70
0
0
VERTEX
8
Layer 1
10
18.480242
20
80.269596
70
0
0
VERTEX
8
Layer 1
10
16.443150
20
85.069025
70
0
0
VERTEX
8
Layer 1
10
11.643825
20
83.031686
70
0
0
VERTEX
8
Layer 1
10
11.326356
20
82.814159
70
0
0
VERTEX
8
Layer 1
10
11.123950
20
82.502601
70
0
0
VERTEX
8
Layer 1
10
11.053122
20
82.137883
70
0
0
VERTEX
8
Layer 1
10
11.130384
20
81.760873
70
0
0
VERTEX
8
Layer 1
10
11.347911
20
81.443403
70
0
0
VERTEX
8
Layer 1
10
11.659469
20
81.240998
70
0
0
VERTEX
8
Layer 1
10
12.024188
20
81.170169
70
0
0
VERTEX
8
Layer 1
10
12.401198
20
81.247431
70
0
0
VERTEX
8
Layer 1
10
15.416195
20
82.527222
70
0
0
VERTEX
8
Layer 1
10
16.695986
20
79.512225
70
0
0
VERTEX
8
Layer 1
10
17.225017
20
78.992214
70
0
0
VERTEX
8
Layer 1
10
17.225017
20
78.992214
70
0
0
SEQEND
8
Layer 1
0
POLYLINE
8
Layer 1
62
7
70
0
10
0.000000
20
0.000000
66
1
0
VERTEX
8
Layer 1
10
1.033741
20
92.414954
70
0
0
VERTEX
8
Layer 1
10
1.751972
20
92.229310
70
0
0
VERTEX
8
Layer 1
10
20.948831
20
94.927256
70
0
0
VERTEX
8
Layer 1
10
21.311839
20
95.055195
70
0
0
VERTEX
8
Layer 1
10
21.588022
20
95.303776
70
0
0
VERTEX
8
Layer 1
10
21.750843
20
95.637780
70
0
0
VERTEX
8
Layer 1
10
21.773764
20
96.021991
70
0
0
VERTEX
8
Layer 1
10
21.645825
20
96.384999
70
0
0
VERTEX
8
Layer 1
10
21.397244
20
96.661182
70
0
0
VERTEX
8
Layer 1
10
21.063240
20
96.824003
70
0
0
VERTEX
8
Layer 1
10
20.679029
20
96.846924
70
0
0
VERTEX
8
Layer 1
10
1.482171
20
94.148979
70
0
0
VERTEX
8
Layer 1
10
1.119163
20
94.021039
70
0
0
VERTEX
8
Layer 1
10
0.842980
20
93.772458
70
0
0
VERTEX
8
Layer 1
10
0.680159
20
93.438454
70
0
0
VERTEX
8
Layer 1
10
0.657238
20
93.054243
70
0
0
VERTEX
8
Layer 1
10
1.033741
20
92.414954
70
0
0
VERTEX
8
Layer 1
10
1.033741
20
92.414954
70
0
0
SEQEND
8
Layer 1
0
POLYLINE
8
Layer 1
62
7
70
0
10
0.000000
20
0.000000
66
1
0
VERTEX
8
Layer 1
10
15.226864
20
93.829491
70
0
0
VERTEX
8
Layer 1
10
15.945156
20
93.643737
70
0
0
VERTEX
8
Layer 1
10
16.584384
20
94.020350
70
0
0
VERTEX
8
Layer 1
10
17.656677
20
95.443309
70
0
0
VERTEX
8
Layer 1
10
16.233543
20
96.515673
70
0
0
VERTEX
8
Layer 1
10
15.886424
20
96.681845
70
0
0
VERTEX
8
Layer 1
10
15.515405
20
96.701353
70
0
0
VERTEX
8
Layer 1
10
15.164137
20
96.580332
70
0
0
VERTEX
8
Layer 1
10
14.876269
20
96.324918
70
0
0
VERTEX
8
Layer 1
10
14.709470
20
95.673855
70
0
0
VERTEX
8
Layer 1
10
15.006212
20
95.070823
70
0
0
VERTEX
8
Layer 1
10
14.887131
20
94.409379
70
0
0
VERTEX
8
Layer 1
10
15.226864
20
93.829491
70
0
0
VERTEX
8
Layer 1
10
15.226864
20
93.829491
70
0
0
SEQEND
8
Layer 1
0
POLYLINE
8
Layer 1
62
7
70
0
10
0.000000
20
0.000000
66
1
0
VERTEX
8
Layer 1
10
10.149243
20
92.325813
70
0
0
VERTEX
8
Layer 1
10
10.496362
20
92.159642
70
0
0
VERTEX
8
Layer 1
10
10.867380
20
92.140134
70
0
0
VERTEX
8
Layer 1
10
11.218649
20
92.261154
70
0
0
VERTEX
8
Layer 1
10
11.506517
20
92.516568
70
0
0
VERTEX
8
Layer 1
10
13.244781
20
94.823253
70
0
0
VERTEX
8
Layer 1
10
10.938096
20
96.561517
70
0
0
VERTEX
8
Layer 1
10
10.219879
20
96.747316
70
0
0
VERTEX
8
Layer 1
10
9.580647
20
96.370834
70
0
0
VERTEX
8
Layer 1
10
9.394893
20
95.652541
70
0
0
VERTEX
8
Layer 1
10
9.771507
20
95.013313
70
0
0
VERTEX
8
Layer 1
10
10.530058
20
94.441814
70
0
0
VERTEX
8
Layer 1
10
9.958383
20
93.683333
70
0
0
VERTEX
8
Layer 1
10
9.772630
20
92.965040
70
0
0
VERTEX
8
Layer 1
10
10.149243
20
92.325813
70
0
0
VERTEX
8
Layer 1
10
10.149243
20
92.325813
70
0
0
SEQEND
8
Layer 1
0
POLYLINE
8
Layer 1
62
7
70
0
10
0.000000
20
0.000000
66
1
0
VERTEX
8
Layer 1
10
4.764580
20
89.908549
70
0
0
VERTEX
8
Layer 1
10
5.482797
20
89.722750
70
0
0
VERTEX
8
Layer 1
10
6.122030
20
90.099234
70
0
0
VERTEX
8
Layer 1
10
9.259799
20
94.263273
70
0
0
VERTEX
8
Layer 1
10
5.095760
20
97.401042
70
0
0
VERTEX
8
Layer 1
10
4.748641
20
97.567213
70
0
0
VERTEX
8
Layer 1
10
4.377623
20
97.586721
70
0
0
VERTEX
8
Layer 1
10
4.026355
20
97.465701
70
0
0
VERTEX
8
Layer 1
10
3.738487
20
97.210287
70
0
0
VERTEX
8
Layer 1
10
3.552688
20
96.492071
70
0
0
VERTEX
8
Layer 1
10
3.929171
20
95.852839
70
0
0
VERTEX
8
Layer 1
10
6.545005
20
93.881658
70
0
0
VERTEX
8
Layer 1
10
4.573896
20
91.265999
70
0
0
VERTEX
8
Layer 1
10
4.388097
20
90.547782
70
0
0
VERTEX
8
Layer 1
10
4.764580
20
89.908549
70
0
0
VERTEX
8
Layer 1
10
4.764580
20
89.908549
70
0
0
SEQEND
8
Layer 1
0
POLYLINE
8
Layer 1
62
7
70
0
10
0.000000
20
0.000000
66
1
0
VERTEX
8
Layer 1
10
20.695745
20
94.924969
70
0
0
VERTEX
8
Layer 1
10
21.410667
20
95.123294
70
0
0
VERTEX
8
Layer 1
10
21.661075
20
95.415595
70
0
0
VERTEX
8
Layer 1
10
21.775969
20
95.768962
70
0
0
VERTEX
8
Layer 1
10
21.749978
20
96.139629
70
0
0
VERTEX
8
Layer 1
10
21.577726
20
96.483827
70
0
0
VERTEX
8
Layer 1
10
9.642808
20
111.759822
70
0
0
VERTEX
8
Layer 1
10
9.350507
20
112.010229
70
0
0
VERTEX
8
Layer 1
10
8.997140
20
112.125123
70
0
0
VERTEX
8
Layer 1
10
8.626473
20
112.099132
70
0
0
VERTEX
8
Layer 1
10
8.282275
20
111.926880
70
0
0
VERTEX
8
Layer 1
10
8.031868
20
111.634580
70
0
0
VERTEX
8
Layer 1
10
7.916973
20
111.281213
70
0
0
VERTEX
8
Layer 1
10
7.942964
20
110.910546
70
0
0
VERTEX
8
Layer 1
10
8.115215
20
110.566347
70
0
0
VERTEX
8
Layer 1
10
20.050134
20
95.290353
70
0
0
VERTEX
8
Layer 1
10
20.695745
20
94.924969
70
0
0
VERTEX
8
Layer 1
10
20.695745
20
94.924969
70
0
0
SEQEND
8
Layer 1
0
POLYLINE
8
Layer 1
62
7
70
0
10
0.000000
20
0.000000
66
1
0
VERTEX
8
Layer 1
10
17.082423
20
98.616728
70
0
0
VERTEX
8
Layer 1
10
18.851068
20
98.399531
70
0
0
VERTEX
8
Layer 1
10
19.068194
20
100.167999
70
0
0
VERTEX
8
Layer 1
10
18.869990
20
100.882956
70
0
0
VERTEX
8
Layer 1
10
18.224258
20
101.248305
70
0
0
VERTEX
8
Layer 1
10
17.577050
20
101.067166
70
0
0
VERTEX
8
Layer 1
10
17.203233
20
100.508642
70
0
0
VERTEX
8
Layer 1
10
16.570873
20
100.280991
70
0
0
VERTEX
8
Layer 1
10
16.238592
20
99.696788
70
0
0
VERTEX
8
Layer 1
10
16.268242
20
99.313088
70
0
0
VERTEX
8
Layer 1
10
16.436855
20
98.982022
70
0
0
VERTEX
8
Layer 1
10
16.717295
20
98.738324
70
0
0
VERTEX
8
Layer 1
10
17.082423
20
98.616728
70
0
0
VERTEX
8
Layer 1
10
17.082423
20
98.616728
70
0
0
SEQEND
8
Layer 1
0
POLYLINE
8
Layer 1
62
7
70
0
10
0.000000
20
0.000000
66
1
0
VERTEX
8
Layer 1
10
13.241351
20
102.262276
70
0
0
VERTEX
8
Layer 1
10
16.108141
20
101.910322
70
0
0
VERTEX
8
Layer 1
10
16.460096
20
104.777112
70
0
0
VERTEX
8
Layer 1
10
16.430446
20
105.160811
70
0
0
VERTEX
8
Layer 1
10
16.261833
20
105.491877
70
0
0
VERTEX
8
Layer 1
10
15.981393
20
105.735575
70
0
0
VERTEX
8
Layer 1
10
15.616264
20
105.857170
70
0
0
VERTEX
8
Layer 1
10
14.901307
20
105.658966
70
0
0
VERTEX
8
Layer 1
10
14.535959
20
105.013235
70
0
0
VERTEX
8
Layer 1
10
14.420302
20
104.070510
70
0
0
VERTEX
8
Layer 1
10
13.477649
20
104.186342
70
0
0
VERTEX
8
Layer 1
10
12.762692
20
103.988138
70
0
0
VERTEX
8
Layer 1
10
12.397343
20
103.342406
70
0
0
VERTEX
8
Layer 1
10
12.595642
20
102.627539
70
0
0
VERTEX
8
Layer 1
10
13.241351
20
102.262276
70
0
0
VERTEX
8
Layer 1
10
13.241351
20
102.262276
70
0
0
SEQEND
8
Layer 1
0
POLYLINE
8
Layer 1
62
7
70
0
10
0.000000
20
0.000000
66
1
0
VERTEX
8
Layer 1
10
8.455542
20
105.716798
70
0
0
VERTEX
8
Layer 1
10
13.630579
20
105.081338
70
0
0
VERTEX
8
Layer 1
10
14.266040
20
110.256375
70
0
0
VERTEX
8
Layer 1
10
14.067742
20
110.971242
70
0
0
VERTEX
8
Layer 1
10
13.422032
20
111.336505
70
0
0
VERTEX
8
Layer 1
10
12.707165
20
111.138207
70
0
0
VERTEX
8
Layer 1
10
12.341903
20
110.492498
70
0
0
VERTEX
8
Layer 1
10
11.942811
20
107.241702
70
0
0
VERTEX
8
Layer 1
10
8.691840
20
107.640864
70
0
0
VERTEX
8
Layer 1
10
7.976973
20
107.442566
70
0
0
VERTEX
8
Layer 1
10
7.611711
20
106.796857
70
0
0
VERTEX
8
Layer 1
10
7.641360
20
106.413158
70
0
0
VERTEX
8
Layer 1
10
7.809973
20
106.082091
70
0
0
VERTEX
8
Layer 1
10
8.090413
20
105.838393
70
0
0
VERTEX
8
Layer 1
10
8.455542
20
105.716798
70
0
0
VERTEX
8
Layer 1
10
8.455542
20
105.716798
70
0
0
SEQEND
8
Layer 1
0
POLYLINE
8
Layer 1
62
7
70
0
10
0.000000
20
0.000000
66
1
0
VERTEX
8
Layer 1
10
38.984439
20
70.789711
70
0
0
VERTEX
8
Layer 1
10
39.305911
20
70.560407
70
0
0
VERTEX
8
Layer 1
10
39.695369
20
70.625579
70
0
0
VERTEX
8
Layer 1
10
48.445989
20
76.093559
70
0
0
VERTEX
8
Layer 1
10
48.675293
20
76.415031
70
0
0
VERTEX
8
Layer 1
10
48.610121
20
76.804489
70
0
0
VERTEX
8
Layer 1
10
48.288649
20
77.033793
70
0
0
VERTEX
8
Layer 1
10
47.899191
20
76.968621
70
0
0
VERTEX
8
Layer 1
10
39.148571
20
71.500641
70
0
0
VERTEX
8
Layer 1
10
38.919267
20
71.179169
70
0
0
VERTEX
8
Layer 1
10
38.984439
20
70.789711
70
0
0
VERTEX
8
Layer 1
10
38.984439
20
70.789711
70
0
0
SEQEND
8
Layer 1
0
POLYLINE
8
Layer 1
62
7
70
0
10
0.000000
20
0.000000
66
1
0
VERTEX
8
Layer 1
10
40.740460
20
71.887092
70
0
0
VERTEX
8
Layer 1
10
42.056929
20
71.583159
70
0
0
VERTEX
8
Layer 1
10
42.446403
20
71.648327
70
0
0
VERTEX
8
Layer 1
10
42.675711
20
71.969815
70
0
0
VERTEX
8
Layer 1
10
42.610542
20
72.359289
70
0
0
VERTEX
8
Layer 1
10
42.289054
20
72.588597
70
0
0
VERTEX
8
Layer 1
10
41.977937
20
72.660351
70
0
0
VERTEX
8
Layer 1
10
42.049830
20
72.971437
70
0
0
VERTEX
8
Layer 1
10
41.984662
20
73.360910
70
0
0
VERTEX
8
Layer 1
10
41.663174
20
73.590218
70
0
0
VERTEX
8
Layer 1
10
41.273700
20
73.525050
70
0
0
VERTEX
8
Layer 1
10
41.044392
20
73.203562
70
0
0
VERTEX
8
Layer 1
10
40.740460
20
71.887092
70
0
0
SEQEND
8
Layer 1
0
POLYLINE
8
Layer 1
62
7
70
0
10
0.000000
20
0.000000
66
1
0
VERTEX
8
Layer 1
10
42.874961
20
73.220873
70
0
0
VERTEX
8
Layer 1
10
44.364165
20
72.877061
70
0
0
VERTEX
8
Layer 1
10
44.753639
20
72.942230
70
0
0
VERTEX
8
Layer 1
10
44.982947
20
73.263718
70
0
0
VERTEX
8
Layer 1
10
44.917778
20
73.653191
70
0
0
VERTEX
8
Layer 1
10
44.596290
20
73.882499
70
0
0
VERTEX
8
Layer 1
10
44.112525
20
73.994186
70
0
0
VERTEX
8
Layer 1
10
44.224211
20
74.477952
70
0
0
VERTEX
8
Layer 1
10
44.159043
20
74.867426
70
0
0
VERTEX
8
Layer 1
10
43.837555
20
75.096734
70
0
0
VERTEX
8
Layer 1
10
43.448081
20
75.031565
70
0
0
VERTEX
8
Layer 1
10
43.218773
20
74.710077
70
0
0
VERTEX
8
Layer 1
10
42.874961
20
73.220873
70
0
0
SEQEND
8
Layer 1
0
POLYLINE
8
Layer 1
62
7
70
0
10
0.000000
20
0.000000
66
1
0
VERTEX
8
Layer 1
10
44.719599
20
74.373527
70
0
0
VERTEX
8
Layer 1
10
47.323380
20
73.772394
70
0
0
VERTEX
8
Layer 1
10
47.712854
20
73.837563
70
0
0
VERTEX
8
Layer 1
10
47.942162
20
74.159051
70
0
0
VERTEX
8
Layer 1
10
47.876993
20
74.548524
70
0
0
VERTEX
8
Layer 1
10
47.555505
20
74.777832
70
0
0
VERTEX
8
Layer 1
10
45.957162
20
75.146840
70
0
0
VERTEX
8
Layer 1
10
46.326171
20
76.745183
70
0
0
VERTEX
8
Layer 1
10
46.261002
20
77.134657
70
0
0
VERTEX
8
Layer 1
10
45.939514
20
77.363965
70
0
0
VERTEX
8
Layer 1
10
45.550040
20
77.298796
70
0
0
VERTEX
8
Layer 1
10
45.320732
20
76.977308
70
0
0
VERTEX
8
Layer 1
10
44.719599
20
74.373527
70
0
0
SEQEND
8
Layer 1
0
POLYLINE
8
Layer 1
62
7
70
0
10
0.000000
20
0.000000
66
1
0
VERTEX
8
Layer 1
10
38.928555
20
70.912330
70
0
0
VERTEX
8
Layer 1
10
39.179761
20
70.607677
70
0
0
VERTEX
8
Layer 1
10
48.290480
20
65.763407
70
0
0
VERTEX
8
Layer 1
10
48.683532
20
65.725564
70
0
0
VERTEX
8
Layer 1
10
48.988223
20
65.976732
70
0
0
VERTEX
8
Layer 1
10
49.026066
20
66.369783
70
0
0
VERTEX
8
Layer 1
10
48.774899
20
66.674474
70
0
0
VERTEX
8
Layer 1
10
39.664179
20
71.518743
70
0
0
VERTEX
8
Layer 1
10
39.271128
20
71.556587
70
0
0
VERTEX
8
Layer 1
10
38.966437
20
71.305419
70
0
0
VERTEX
8
Layer 1
10
38.928555
20
70.912330
70
0
0
VERTEX
8
Layer 1
10
38.928555
20
70.912330
70
0
0
SEQEND
8
Layer 1
0
POLYLINE
8
Layer 1
62
7
70
0
10
0.000000
20
0.000000
66
1
0
VERTEX
8
Layer 1
10
41.189710
20
69.041247
70
0
0
VERTEX
8
Layer 1
10
41.440908
20
68.736527
70
0
0
VERTEX
8
Layer 1
10
41.834004
20
68.698712
70
0
0
VERTEX
8
Layer 1
10
42.138648
20
68.949913
70
0
0
VERTEX
8
Layer 1
10
42.176454
20
69.342953
70
0
0
VERTEX
8
Layer 1
10
42.083128
20
69.648233
70
0
0
VERTEX
8
Layer 1
10
42.388408
20
69.741558
70
0
0
VERTEX
8
Layer 1
10
42.693124
20
69.992709
70
0
0
VERTEX
8
Layer 1
10
42.730996
20
70.385766
70
0
0
VERTEX
8
Layer 1
10
42.479845
20
70.690482
70
0
0
VERTEX
8
Layer 1
10
42.086788
20
70.728355
70
0
0
VERTEX
8
Layer 1
10
40.794680
20
70.333271
70
0
0
VERTEX
8
Layer 1
10
41.189710
20
69.041247
70
0
0
SEQEND
8
Layer 1
0
POLYLINE
8
Layer 1
62
7
70
0
10
0.000000
20
0.000000
66
1
0
VERTEX
8
Layer 1
10
43.463913
20
67.690085
70
0
0
VERTEX
8
Layer 1
10
43.715064
20
67.385369
70
0
0
VERTEX
8
Layer 1
10
44.108122
20
67.347497
70
0
0
VERTEX
8
Layer 1
10
44.412838
20
67.598648
70
0
0
VERTEX
8
Layer 1
10
44.450710
20
67.991705
70
0
0
VERTEX
8
Layer 1
10
44.305490
20
68.466555
70
0
0
VERTEX
8
Layer 1
10
44.780340
20
68.611775
70
0
0
VERTEX
8
Layer 1
10
45.085056
20
68.862926
70
0
0
VERTEX
8
Layer 1
10
45.122928
20
69.255983
70
0
0
VERTEX
8
Layer 1
10
44.871730
20
69.560704
70
0
0
VERTEX
8
Layer 1
10
44.478634
20
69.598519
70
0
0
VERTEX
8
Layer 1
10
43.016987
20
69.151678
70
0
0
VERTEX
8
Layer 1
10
43.463913
20
67.690085
70
0
0
SEQEND
8
Layer 1
0
POLYLINE
8
Layer 1
62
7
70
0
10
0.000000
20
0.000000
66
1
0
VERTEX
8
Layer 1
10
45.718957
20
65.574925
70
0
0
VERTEX
8
Layer 1
10
45.970110
20
65.270285
70
0
0
VERTEX
8
Layer 1
10
46.363111
20
65.232422
70
0
0
VERTEX
8
Layer 1
10
46.667827
20
65.483573
70
0
0
VERTEX
8
Layer 1
10
46.705700
20
65.876630
70
0
0
VERTEX
8
Layer 1
10
46.226036
20
67.445381
70
0
0
VERTEX
8
Layer 1
10
47.794840
20
67.924960
70
0
0
VERTEX
8
Layer 1
10
48.099560
20
68.176158
70
0
0
VERTEX
8
Layer 1
10
48.137375
20
68.569254
70
0
0
VERTEX
8
Layer 1
10
47.886221
20
68.873894
70
0
0
VERTEX
8
Layer 1
10
47.493220
20
68.911757
70
0
0
VERTEX
8
Layer 1
10
44.937672
20
68.130472
70
0
0
VERTEX
8
Layer 1
10
45.718957
20
65.574925
70
0
0
SEQEND
8
Layer 1
0
POLYLINE
8
Layer 1
62
7
70
0
10
0.000000
20
0.000000
66
1
0
VERTEX
8
Layer 1
10
39.430160
20
60.373625
70
0
0
VERTEX
8
Layer 1
10
39.800072
20
60.235353
70
0
0
VERTEX
8
Layer 1
10
40.159388
20
60.399102
70
0
0
VERTEX
8
Layer 1
10
40.297678
20
60.768963
70
0
0
VERTEX
8
Layer 1
10
39.937578
20
71.081212
70
0
0
VERTEX
8
Layer 1
10
39.773829
20
71.440529
70
0
0
VERTEX
8
Layer 1
10
39.403968
20
71.578818
70
0
0
VERTEX
8
Layer 1
10
39.044651
20
71.415069
70
0
0
VERTEX
8
Layer 1
10
38.906362
20
71.045208
70
0
0
VERTEX
8
Layer 1
10
39.266461
20
60.732958
70
0
0
VERTEX
8
Layer 1
10
39.430160
20
60.373625
70
0
0
VERTEX
8
Layer 1
10
39.430160
20
60.373625
70
0
0
SEQEND
8
Layer 1
0
POLYLINE
8
Layer 1
62
7
70
0
10
0.000000
20
0.000000
66
1
0
VERTEX
8
Layer 1
10
38.580263
20
67.792107
70
0
0
VERTEX
8
Layer 1
10
38.950143
20
67.653841
70
0
0
VERTEX
8
Layer 1
10
39.309454
20
67.817619
70
0
0
VERTEX
8
Layer 1
10
39.527161
20
68.051091
70
0
0
VERTEX
8
Layer 1
10
39.760633
20
67.833385
70
0
0
VERTEX
8
Layer 1
10
40.130468
20
67.695066
70
0
0
VERTEX
8
Layer 1
10
40.489793
20
67.858758
70
0
0
VERTEX
8
Layer 1
10
40.628128
20
68.228647
70
0
0
VERTEX
8
Layer 1
10
40.464366
20
68.588003
70
0
0
VERTEX
8
Layer 1
10
39.476275
20
69.509442
70
0
0
VERTEX
8
Layer 1
10
38.554751
20
68.521299
70
0
0
VERTEX
8
Layer 1
10
38.416484
20
68.151419
70
0
0
VERTEX
8
Layer 1
10
38.580263
20
67.792107
70
0
0
VERTEX
8
Layer 1
10
38.580263
20
67.792107
70
0
0
SEQEND
8
Layer 1
0
POLYLINE
8
Layer 1
62
7
70
0
10
0.000000
20
0.000000
66
1
0
VERTEX
8
Layer 1
10
38.547145
20
65.146989
70
0
0
VERTEX
8
Layer 1
10
38.917025
20
65.008723
70
0
0
VERTEX
8
Layer 1
10
39.276336
20
65.172501
70
0
0
VERTEX
8
Layer 1
10
39.615021
20
65.535632
70
0
0
VERTEX
8
Layer 1
10
39.978152
20
65.196948
70
0
0
VERTEX
8
Layer 1
10
40.348032
20
65.058681
70
0
0
VERTEX
8
Layer 1
10
40.707344
20
65.222460
70
0
0
VERTEX
8
Layer 1
10
40.845610
20
65.592340
70
0
0
VERTEX
8
Layer 1
10
40.681831
20
65.951652
70
0
0
VERTEX
8
Layer 1
10
39.564082
20
66.994069
70
0
0
VERTEX
8
Layer 1
10
38.521718
20
65.876234
70
0
0
VERTEX
8
Layer 1
10
38.383383
20
65.506345
70
0
0
VERTEX
8
Layer 1
10
38.547145
20
65.146989
70
0
0
VERTEX
8
Layer 1
10
38.547145
20
65.146989
70
0
0
SEQEND
8
Layer 1
0
POLYLINE
8
Layer 1
62
7
70
0
10
0.000000
20
0.000000
66
1
0
VERTEX
8
Layer 1
10
37.842920
20
62.136581
70
0
0
VERTEX
8
Layer 1
10
38.212809
20
61.998246
70
0
0
VERTEX
8
Layer 1
10
38.572165
20
62.162008
70
0
0
VERTEX
8
Layer 1
10
39.690929
20
63.361804
70
0
0
VERTEX
8
Layer 1
10
40.890639
20
62.242986
70
0
0
VERTEX
8
Layer 1
10
41.260519
20
62.104720
70
0
0
VERTEX
8
Layer 1
10
41.619831
20
62.268499
70
0
0
VERTEX
8
Layer 1
10
41.758081
20
62.638324
70
0
0
VERTEX
8
Layer 1
10
41.594372
20
62.997605
70
0
0
VERTEX
8
Layer 1
10
39.639958
20
64.820102
70
0
0
VERTEX
8
Layer 1
10
37.817461
20
62.865687
70
0
0
VERTEX
8
Layer 1
10
37.679211
20
62.495862
70
0
0
VERTEX
8
Layer 1
10
37.842920
20
62.136581
70
0
0
VERTEX
8
Layer 1
10
37.842920
20
62.136581
70
0
0
SEQEND
8
Layer 1
0
POLYLINE
8
Layer 1
62
7
70
1
10
0.000000
20
0.000000
66
1
0
VERTEX
8
Layer 1
10
30.233819
20
65.321831
70
0
0
VERTEX
8
Layer 1
10
30.555291
20
65.092527
70
0
0
VERTEX
8
Layer 1
10
30.944749
20
65.157699
70
0
0
VERTEX
8
Layer 1
10
39.695369
20
70.625679
70
0
0
VERTEX
8
Layer 1
10
39.924673
20
70.947151
70
0
0
VERTEX
8
Layer 1
10
39.859501
20
71.336609
70
0
0
VERTEX
8
Layer 1
10
39.538029
20
71.565913
70
0
0
VERTEX
8
Layer 1
10
39.148571
20
71.500741
70
0
0
VERTEX
8
Layer 1
10
30.397951
20
66.032761
70
0
0
VERTEX
8
Layer 1
10
30.168647
20
65.711289
70
0
0
VERTEX
8
Layer 1
10
30.233819
20
65.321831
70
0
0
VERTEX
8
Layer 1
10
30.233819
20
65.321831
70
0
0
SEQEND
8
Layer 1
0
POLYLINE
8
Layer 1
62
7
70
0
10
0.000000
20
0.000000
66
1
0
VERTEX
8
Layer 1
10
36.859367
20
68.765505
70
0
0
VERTEX
8
Layer 1
10
37.180766
20
68.536202
70
0
0
VERTEX
8
Layer 1
10
37.570240
20
68.601370
70
0
0
VERTEX
8
Layer 1
10
37.799548
20
68.922858
70
0
0
VERTEX
8
Layer 1
10
38.103480
20
70.239328
70
0
0
VERTEX
8
Layer 1
10
36.787011
20
70.543261
70
0
0
VERTEX
8
Layer 1
10
36.397537
20
70.478093
70
0
0
VERTEX
8
Layer 1
10
36.168229
20
70.156605
70
0
0
VERTEX
8
Layer 1
10
36.233398
20
69.767131
70
0
0
VERTEX
8
Layer 1
10
36.554886
20
69.537823
70
0
0
VERTEX
8
Layer 1
10
36.866003
20
69.466069
70
0
0
VERTEX
8
Layer 1
10
36.794110
20
69.154983
70
0
0
VERTEX
8
Layer 1
10
36.859367
20
68.765505
70
0
0
VERTEX
8
Layer 1
10
36.859367
20
68.765505
70
0
0
SEQEND
8
Layer 1
0
POLYLINE
8
Layer 1
62
7
70
0
10
0.000000
20
0.000000
66
1
0
VERTEX
8
Layer 1
10
34.684986
20
67.258991
70
0
0
VERTEX
8
Layer 1
10
35.006385
20
67.029686
70
0
0
VERTEX
8
Layer 1
10
35.395859
20
67.094855
70
0
0
VERTEX
8
Layer 1
10
35.625167
20
67.416343
70
0
0
VERTEX
8
Layer 1
10
35.968979
20
68.905547
70
0
0
VERTEX
8
Layer 1
10
34.479775
20
69.249359
70
0
0
VERTEX
8
Layer 1
10
34.090301
20
69.184190
70
0
0
VERTEX
8
Layer 1
10
33.860993
20
68.862702
70
0
0
VERTEX
8
Layer 1
10
33.926162
20
68.473229
70
0
0
VERTEX
8
Layer 1
10
34.247650
20
68.243921
70
0
0
VERTEX
8
Layer 1
10
34.731415
20
68.132234
70
0
0
VERTEX
8
Layer 1
10
34.619729
20
67.648468
70
0
0
VERTEX
8
Layer 1
10
34.684986
20
67.258991
70
0
0
VERTEX
8
Layer 1
10
34.684986
20
67.258991
70
0
0
SEQEND
8
Layer 1
0
POLYLINE
8
Layer 1
62
7
70
0
10
0.000000
20
0.000000
66
1
0
VERTEX
8
Layer 1
10
32.582942
20
64.991706
70
0
0
VERTEX
8
Layer 1
10
32.904426
20
64.762455
70
0
0
VERTEX
8
Layer 1
10
33.293900
20
64.827624
70
0
0
VERTEX
8
Layer 1
10
33.523208
20
65.149112
70
0
0
VERTEX
8
Layer 1
10
34.124341
20
67.752893
70
0
0
VERTEX
8
Layer 1
10
31.520560
20
68.354026
70
0
0
VERTEX
8
Layer 1
10
31.131086
20
68.288857
70
0
0
VERTEX
8
Layer 1
10
30.901778
20
67.967369
70
0
0
VERTEX
8
Layer 1
10
30.966947
20
67.577896
70
0
0
VERTEX
8
Layer 1
10
31.288435
20
67.348588
70
0
0
VERTEX
8
Layer 1
10
32.886778
20
66.979580
70
0
0
VERTEX
8
Layer 1
10
32.517769
20
65.381237
70
0
0
VERTEX
8
Layer 1
10
32.582942
20
64.991706
70
0
0
VERTEX
8
Layer 1
10
32.582942
20
64.991706
70
0
0
SEQEND
8
Layer 1
0
POLYLINE
8
Layer 1
62
7
70
0
10
0.000000
20
0.000000
66
1
0
VERTEX
8
Layer 1
10
29.817836
20
75.756600
70
0
0
VERTEX
8
Layer 1
10
30.069041
20
75.451946
70
0
0
VERTEX
8
Layer 1
10
39.179761
20
70.607677
70
0
0
VERTEX
8
Layer 1
10
39.572812
20
70.569833
70
0
0
VERTEX
8
Layer 1
10
39.877503
20
70.821001
70
0
0
VERTEX
8
Layer 1
10
39.915347
20
71.214052
70
0
0
VERTEX
8
Layer 1
10
39.664179
20
71.518743
70
0
0
VERTEX
8
Layer 1
10
30.553460
20
76.363013
70
0
0
VERTEX
8
Layer 1
10
30.160408
20
76.400856
70
0
0
VERTEX
8
Layer 1
10
29.855717
20
76.149688
70
0
0
VERTEX
8
Layer 1
10
29.817836
20
75.756600
70
0
0
VERTEX
8
Layer 1
10
29.817836
20
75.756600
70
0
0
SEQEND
8
Layer 1
0
POLYLINE
8
Layer 1
62
7
70
0
10
0.000000
20
0.000000
66
1
0
VERTEX
8
Layer 1
10
36.112944
20
71.740654
70
0
0
VERTEX
8
Layer 1
10
36.364095
20
71.435938
70
0
0
VERTEX
8
Layer 1
10
36.757152
20
71.398065
70
0
0
VERTEX
8
Layer 1
10
38.049260
20
71.793149
70
0
0
VERTEX
8
Layer 1
10
37.654230
20
73.085173
70
0
0
VERTEX
8
Layer 1
10
37.403032
20
73.389892
70
0
0
VERTEX
8
Layer 1
10
37.009936
20
73.427707
70
0
0
VERTEX
8
Layer 1
10
36.705292
20
73.176507
70
0
0
VERTEX
8
Layer 1
10
36.667486
20
72.783467
70
0
0
VERTEX
8
Layer 1
10
36.760812
20
72.478187
70
0
0
VERTEX
8
Layer 1
10
36.455532
20
72.384862
70
0
0
VERTEX
8
Layer 1
10
36.150816
20
72.133711
70
0
0
VERTEX
8
Layer 1
10
36.112944
20
71.740654
70
0
0
VERTEX
8
Layer 1
10
36.112944
20
71.740654
70
0
0
SEQEND
8
Layer 1
0
POLYLINE
8
Layer 1
62
7
70
0
10
0.000000
20
0.000000
66
1
0
VERTEX
8
Layer 1
10
33.721012
20
72.870437
70
0
0
VERTEX
8
Layer 1
10
33.972210
20
72.565716
70
0
0
VERTEX
8
Layer 1
10
34.365306
20
72.527901
70
0
0
VERTEX
8
Layer 1
10
35.826953
20
72.974742
70
0
0
VERTEX
8
Layer 1
10
35.380027
20
74.436335
70
0
0
VERTEX
8
Layer 1
10
35.128876
20
74.741051
70
0
0
VERTEX
8
Layer 1
10
34.735818
20
74.778923
70
0
0
VERTEX
8
Layer 1
10
34.431102
20
74.527772
70
0
0
VERTEX
8
Layer 1
10
34.393230
20
74.134715
70
0
0
VERTEX
8
Layer 1
10
34.538450
20
73.659865
70
0
0
VERTEX
8
Layer 1
10
34.063600
20
73.514645
70
0
0
VERTEX
8
Layer 1
10
33.758884
20
73.263494
70
0
0
VERTEX
8
Layer 1
10
33.721012
20
72.870437
70
0
0
VERTEX
8
Layer 1
10
33.721012
20
72.870437
70
0
0
SEQEND
8
Layer 1
0
POLYLINE
8
Layer 1
62
7
70
0
10
0.000000
20
0.000000
66
1
0
VERTEX
8
Layer 1
10
30.706565
20
73.557166
70
0
0
VERTEX
8
Layer 1
10
30.957719
20
73.252526
70
0
0
VERTEX
8
Layer 1
10
31.350720
20
73.214663
70
0
0
VERTEX
8
Layer 1
10
33.906268
20
73.995947
70
0
0
VERTEX
8
Layer 1
10
33.124984
20
76.551495
70
0
0
VERTEX
8
Layer 1
10
32.873830
20
76.856135
70
0
0
VERTEX
8
Layer 1
10
32.480829
20
76.893998
70
0
0
VERTEX
8
Layer 1
10
32.176112
20
76.642847
70
0
0
VERTEX
8
Layer 1
10
32.138240
20
76.249790
70
0
0
VERTEX
8
Layer 1
10
32.617904
20
74.681039
70
0
0
VERTEX
8
Layer 1
10
31.049100
20
74.201460
70
0
0
VERTEX
8
Layer 1
10
30.744380
20
73.950262
70
0
0
VERTEX
8
Layer 1
10
30.706565
20
73.557166
70
0
0
VERTEX
8
Layer 1
10
30.706565
20
73.557166
70
0
0
SEQEND
8
Layer 1
0
POLYLINE
8
Layer 1
62
7
70
0
10
0.000000
20
0.000000
66
1
0
VERTEX
8
Layer 1
10
39.070061
20
70.685874
70
0
0
VERTEX
8
Layer 1
10
39.439972
20
70.547602
70
0
0
VERTEX
8
Layer 1
10
39.799289
20
70.711351
70
0
0
VERTEX
8
Layer 1
10
39.937578
20
71.081212
70
0
0
VERTEX
8
Layer 1
10
39.577479
20
81.393462
70
0
0
VERTEX
8
Layer 1
10
39.413730
20
81.752777
70
0
0
VERTEX
8
Layer 1
10
39.043868
20
81.891067
70
0
0
VERTEX
8
Layer 1
10
38.684552
20
81.727318
70
0
0
VERTEX
8
Layer 1
10
38.546262
20
81.357457
70
0
0
VERTEX
8
Layer 1
10
38.906362
20
71.045208
70
0
0
VERTEX
8
Layer 1
10
39.070061
20
70.685874
70
0
0
VERTEX
8
Layer 1
10
39.070061
20
70.685874
70
0
0
SEQEND
8
Layer 1
0
POLYLINE
8
Layer 1
62
7
70
0
10
0.000000
20
0.000000
66
1
0
VERTEX
8
Layer 1
10
38.379574
20
73.538417
70
0
0
VERTEX
8
Layer 1
10
39.367665
20
72.616978
70
0
0
VERTEX
8
Layer 1
10
40.289189
20
73.605121
70
0
0
VERTEX
8
Layer 1
10
40.427456
20
73.975001
70
0
0
VERTEX
8
Layer 1
10
40.263677
20
74.334313
70
0
0
VERTEX
8
Layer 1
10
39.893797
20
74.472579
70
0
0
VERTEX
8
Layer 1
10
39.534486
20
74.308801
70
0
0
VERTEX
8
Layer 1
10
39.316779
20
74.075329
70
0
0
VERTEX
8
Layer 1
10
39.083307
20
74.293035
70
0
0
VERTEX
8
Layer 1
10
38.713473
20
74.431353
70
0
0
VERTEX
8
Layer 1
10
38.354148
20
74.267662
70
0
0
VERTEX
8
Layer 1
10
38.215812
20
73.897773
70
0
0
VERTEX
8
Layer 1
10
38.379574
20
73.538417
70
0
0
VERTEX
8
Layer 1
10
38.379574
20
73.538417
70
0
0
SEQEND
8
Layer 1
0
POLYLINE
8
Layer 1
62
7
70
0
10
0.000000
20
0.000000
66
1
0
VERTEX
8
Layer 1
10
38.162109
20
76.174768
70
0
0
VERTEX
8
Layer 1
10
39.279858
20
75.132351
70
0
0
VERTEX
8
Layer 1
10
40.322222
20
76.250186
70
0
0
VERTEX
8
Layer 1
10
40.460557
20
76.620075
70
0
0
VERTEX
8
Layer 1
10
40.296795
20
76.979431
70
0
0
VERTEX
8
Layer 1
10
39.926915
20
77.117697
70
0
0
VERTEX
8
Layer 1
10
39.567604
20
76.953919
70
0
0
VERTEX
8
Layer 1
10
39.228919
20
76.590788
70
0
0
VERTEX
8
Layer 1
10
38.865788
20
76.929472
70
0
0
VERTEX
8
Layer 1
10
38.495908
20
77.067739
70
0
0
VERTEX
8
Layer 1
10
38.136596
20
76.903960
70
0
0
VERTEX
8
Layer 1
10
37.998330
20
76.534080
70
0
0
VERTEX
8
Layer 1
10
38.162109
20
76.174768
70
0
0
VERTEX
8
Layer 1
10
38.162109
20
76.174768
70
0
0
SEQEND
8
Layer 1
0
POLYLINE
8
Layer 1
62
7
70
0
10
0.000000
20
0.000000
66
1
0
VERTEX
8
Layer 1
10
37.249568
20
79.128815
70
0
0
VERTEX
8
Layer 1
10
39.203983
20
77.306318
70
0
0
VERTEX
8
Layer 1
10
41.026479
20
79.260732
70
0
0
VERTEX
8
Layer 1
10
41.164729
20
79.630557
70
0
0
VERTEX
8
Layer 1
10
41.001020
20
79.989839
70
0
0
VERTEX
8
Layer 1
10
40.631131
20
80.128174
70
0
0
VERTEX
8
Layer 1
10
40.271775
20
79.964412
70
0
0
VERTEX
8
Layer 1
10
39.153011
20
78.764616
70
0
0
VERTEX
8
Layer 1
10
37.953300
20
79.883433
70
0
0
VERTEX
8
Layer 1
10
37.583421
20
80.021700
70
0
0
VERTEX
8
Layer 1
10
37.224109
20
79.857921
70
0
0
VERTEX
8
Layer 1
10
37.085859
20
79.488096
70
0
0
VERTEX
8
Layer 1
10
37.249568
20
79.128815
70
0
0
VERTEX
8
Layer 1
10
37.249568
20
79.128815
70
0
0
SEQEND
8
Layer 1
0
POLYLINE
8
Layer 1
62
7
70
0
10
0.000000
20
0.000000
66
1
0
VERTEX
8
Layer 1
10
19.274828
20
20.389461
70
0
0
VERTEX
8
Layer 1
10
18.957613
20
20.802863
70
0
0
VERTEX
8
Layer 1
10
18.440989
20
20.870878
70
0
0
VERTEX
8
Layer 1
10
5.288429
20
17.346658
70
0
0
VERTEX
8
Layer 1
10
4.875027
20
17.029443
70
0
0
VERTEX
8
Layer 1
10
4.807012
20
16.512819
70
0
0
VERTEX
8
Layer 1
10
5.124227
20
16.099417
70
0
0
VERTEX
8
Layer 1
10
5.640851
20
16.031402
70
0
0
VERTEX
8
Layer 1
10
18.793411
20
19.555622
70
0
0
VERTEX
8
Layer 1
10
19.206813
20
19.872837
70
0
0
VERTEX
8
Layer 1
10
19.274828
20
20.389461
70
0
0
VERTEX
8
Layer 1
10
19.274828
20
20.389461
70
0
0
SEQEND
8
Layer 1
0
POLYLINE
8
Layer 1
62
7
70
0
10
0.000000
20
0.000000
66
1
0
VERTEX
8
Layer 1
10
16.336824
20
19.602225
70
0
0
VERTEX
8
Layer 1
10
15.550016
20
20.056596
70
0
0
VERTEX
8
Layer 1
10
15.033364
20
20.124549
70
0
0
VERTEX
8
Layer 1
10
14.619996
20
19.807257
70
0
0
VERTEX
8
Layer 1
10
14.554969
20
19.474941
70
0
0
VERTEX
8
Layer 1
10
14.658075
20
19.152402
70
0
0
VERTEX
8
Layer 1
10
14.730053
20
18.821521
70
0
0
VERTEX
8
Layer 1
10
14.952525
20
18.566241
70
0
0
VERTEX
8
Layer 1
10
15.469159
20
18.498142
70
0
0
VERTEX
8
Layer 1
10
15.882616
20
18.815317
70
0
0
VERTEX
8
Layer 1
10
16.336824
20
19.602225
70
0
0
SEQEND
8
Layer 1
0
POLYLINE
8
Layer 1
62
7
70
0
10
0.000000
20
0.000000
66
1
0
VERTEX
8
Layer 1
10
15.091312
20
19.268491
70
0
0
VERTEX
8
Layer 1
10
9.124803
20
22.713255
70
0
0
VERTEX
8
Layer 1
10
8.608160
20
22.781281
70
0
0
VERTEX
8
Layer 1
10
8.194748
20
22.464047
70
0
0
VERTEX
8
Layer 1
10
8.126722
20
21.947405
70
0
0
VERTEX
8
Layer 1
10
8.443955
20
21.533992
70
0
0
VERTEX
8
Layer 1
10
13.231201
20
18.770075
70
0
0
VERTEX
8
Layer 1
10
10.467284
20
13.982829
70
0
0
VERTEX
8
Layer 1
10
10.399259
20
13.466187
70
0
0
VERTEX
8
Layer 1
10
10.716492
20
13.052774
70
0
0
VERTEX
8
Layer 1
10
11.233135
20
12.984748
70
0
0
VERTEX
8
Layer 1
10
11.646548
20
13.301982
70
0
0
VERTEX
8
Layer 1
10
15.091312
20
19.268491
70
0
0
SEQEND
8
Layer 1
0
POLYLINE
8
Layer 1
62
7
70
0
10
0.000000
20
0.000000
66
1
0
VERTEX
8
Layer 1
10
11.585204
20
18.329031
70
0
0
VERTEX
8
Layer 1
10
6.171277
20
21.454763
70
0
0
VERTEX
8
Layer 1
10
5.654715
20
21.522741
70
0
0
VERTEX
8
Layer 1
10
5.241349
20
21.205589
70
0
0
VERTEX
8
Layer 1
10
5.173324
20
20.688947
70
0
0
VERTEX
8
Layer 1
10
5.490557
20
20.275534
70
0
0
VERTEX
8
Layer 1
10
9.725094
20
17.830616
70
0
0
VERTEX
8
Layer 1
10
7.280338
20
13.595985
70
0
0
VERTEX
8
Layer 1
10
7.212313
20
13.079343
70
0
0
VERTEX
8
Layer 1
10
7.529545
20
12.665930
70
0
0
VERTEX
8
Layer 1
10
8.046107
20
12.597952
70
0
0
VERTEX
8
Layer 1
10
8.459473
20
12.915104
70
0
0
VERTEX
8
Layer 1
10
11.585204
20
18.329031
70
0
0
SEQEND
8
Layer 1
0
POLYLINE
8
Layer 1
62
7
70
0
10
0.000000
20
0.000000
66
1
0
VERTEX
8
Layer 1
10
19.298081
20
20.213286
70
0
0
VERTEX
8
Layer 1
10
19.098611
20
20.694666
70
0
0
VERTEX
8
Layer 1
10
9.470267
20
30.323007
70
0
0
VERTEX
8
Layer 1
10
8.988853
20
30.522409
70
0
0
VERTEX
8
Layer 1
10
8.507441
20
30.323001
70
0
0
VERTEX
8
Layer 1
10
8.308038
20
29.841587
70
0
0
VERTEX
8
Layer 1
10
8.507445
20
29.360175
70
0
0
VERTEX
8
Layer 1
10
18.135789
20
19.731834
70
0
0
VERTEX
8
Layer 1
10
18.617203
20
19.532431
70
0
0
VERTEX
8
Layer 1
10
19.098616
20
19.731839
70
0
0
VERTEX
8
Layer 1
10
19.298081
20
20.213286
70
0
0
VERTEX
8
Layer 1
10
19.298081
20
20.213286
70
0
0
SEQEND
8
Layer 1
0
POLYLINE
8
Layer 1
62
7
70
0
10
0.000000
20
0.000000
66
1
0
VERTEX
8
Layer 1
10
16.947931
20
22.791154
70
0
0
VERTEX
8
Layer 1
10
16.748497
20
23.272614
70
0
0
VERTEX
8
Layer 1
10
16.267015
20
23.471999
70
0
0
VERTEX
8
Layer 1
10
15.773917
20
23.244334
70
0
0
VERTEX
8
Layer 1
10
16.039348
20
23.244283
70
0
0
VERTEX
8
Layer 1
10
15.718931
20
23.111484
70
0
0
VERTEX
8
Layer 1
10
15.586299
20
22.791117
70
0
0
VERTEX
8
Layer 1
10
15.586221
20
23.056514
70
0
0
VERTEX
8
Layer 1
10
15.358503
20
22.563367
70
0
0
VERTEX
8
Layer 1
10
15.557914
20
22.082025
70
0
0
VERTEX
8
Layer 1
10
16.039256
20
21.882617
70
0
0
VERTEX
8
Layer 1
10
16.947863
20
21.882548
70
0
0
VERTEX
8
Layer 1
10
16.947931
20
22.791154
70
0
0
SEQEND
8
Layer 1
0
POLYLINE
8
Layer 1
62
7
70
0
10
0.000000
20
0.000000
66
1
0
VERTEX
8
Layer 1
10
16.036042
20
29.683906
70
0
0
VERTEX
8
Layer 1
10
15.836665
20
30.165343
70
0
0
VERTEX
8
Layer 1
10
15.355254
20
30.364785
70
0
0
VERTEX
8
Layer 1
10
14.873817
20
30.165408
70
0
0
VERTEX
8
Layer 1
10
14.674375
20
29.683998
70
0
0
VERTEX
8
Layer 1
10
14.674312
20
24.156051
70
0
0
VERTEX
8
Layer 1
10
9.146529
20
24.156021
70
0
0
VERTEX
8
Layer 1
10
8.665091
20
23.956644
70
0
0
VERTEX
8
Layer 1
10
8.465649
20
23.475233
70
0
0
VERTEX
8
Layer 1
10
8.665084
20
22.993773
70
0
0
VERTEX
8
Layer 1
10
9.146566
20
22.794389
70
0
0
VERTEX
8
Layer 1
10
16.035981
20
22.794456
70
0
0
VERTEX
8
Layer 1
10
16.036042
20
29.683906
70
0
0
SEQEND
8
Layer 1
0
POLYLINE
8
Layer 1
62
7
70
0
10
0.000000
20
0.000000
66
1
0
VERTEX
8
Layer 1
10
13.469480
20
31.612379
70
0
0
VERTEX
8
Layer 1
10
13.270046
20
32.093839
70
0
0
VERTEX
8
Layer 1
10
12.788564
20
32.293224
70
0
0
VERTEX
8
Layer 1
10
12.307127
20
32.093847
70
0
0
VERTEX
8
Layer 1
10
12.107685
20
31.612436
70
0
0
VERTEX
8
Layer 1
10
12.107723
20
26.722731
70
0
0
VERTEX
8
Layer 1
10
7.218018
20
26.722693
70
0
0
VERTEX
8
Layer 1
10
6.736580
20
26.523316
70
0
0
VERTEX
8
Layer 1
10
6.537138
20
26.041906
70
0
0
VERTEX
8
Layer 1
10
6.736573
20
25.560445
70
0
0
VERTEX
8
Layer 1
10
7.218055
20
25.361061
70
0
0
VERTEX
8
Layer 1
10
13.469427
20
25.361007
70
0
0
VERTEX
8
Layer 1
10
13.469480
20
31.612379
70
0
0
SEQEND
8
Layer 1
0
POLYLINE
8
Layer 1
62
7
70
0
10
0.000000
20
0.000000
66
1
0
VERTEX
8
Layer 1
10
22.731094
20
33.706221
70
0
0
VERTEX
8
Layer 1
10
22.317629
20
34.023432
70
0
0
VERTEX
8
Layer 1
10
21.801010
20
33.955419
70
0
0
VERTEX
8
Layer 1
10
21.483794
20
33.542023
70
0
0
VERTEX
8
Layer 1
10
17.959578
20
20.389462
70
0
0
VERTEX
8
Layer 1
10
18.027592
20
19.872843
70
0
0
VERTEX
8
Layer 1
10
18.440988
20
19.555628
70
0
0
VERTEX
8
Layer 1
10
18.957607
20
19.623642
70
0
0
VERTEX
8
Layer 1
10
19.274822
20
20.037038
70
0
0
VERTEX
8
Layer 1
10
22.799038
20
33.189599
70
0
0
VERTEX
8
Layer 1
10
22.731094
20
33.706221
70
0
0
VERTEX
8
Layer 1
10
22.731094
20
33.706221
70
0
0
SEQEND
8
Layer 1
0
POLYLINE
8
Layer 1
62
7
70
0
10
0.000000
20
0.000000
66
1
0
VERTEX
8
Layer 1
10
20.264254
20
23.877860
70
0
0
VERTEX
8
Layer 1
10
19.820472
20
24.191079
70
0
0
VERTEX
8
Layer 1
10
19.953103
20
23.961199
70
0
0
VERTEX
8
Layer 1
10
19.678057
20
24.172329
70
0
0
VERTEX
8
Layer 1
10
19.334167
20
24.127128
70
0
0
VERTEX
8
Layer 1
10
19.564012
20
24.259888
70
0
0
VERTEX
8
Layer 1
10
19.023144
20
24.210502
70
0
0
VERTEX
8
Layer 1
10
18.705861
20
23.797089
70
0
0
VERTEX
8
Layer 1
10
18.773876
20
23.280414
70
0
0
VERTEX
8
Layer 1
10
19.228239
20
22.493574
70
0
0
VERTEX
8
Layer 1
10
20.015081
20
22.947936
70
0
0
VERTEX
8
Layer 1
10
20.332231
20
23.361301
70
0
0
VERTEX
8
Layer 1
10
20.264254
20
23.877860
70
0
0
VERTEX
8
Layer 1
10
20.264254
20
23.877860
70
0
0
SEQEND
8
Layer 1
0
POLYLINE
8
Layer 1
62
7
70
1
10
0.000000
20
0.000000
66
1
0
VERTEX
8
Layer 1
10
25.777707
20
28.113988
70
0
0
VERTEX
8
Layer 1
10
25.364279
20
28.431181
70
0
0
VERTEX
8
Layer 1
10
24.847654
20
28.363128
70
0
0
VERTEX
8
Layer 1
10
20.060439
20
25.599261
70
0
0
VERTEX
8
Layer 1
10
17.296410
20
30.386570
70
0
0
VERTEX
8
Layer 1
10
16.882983
20
30.703763
70
0
0
VERTEX
8
Layer 1
10
16.366357
20
30.635709
70
0
0
VERTEX
8
Layer 1
10
16.049165
20
30.222282
70
0
0
VERTEX
8
Layer 1
10
16.117218
20
29.705657
70
0
0
VERTEX
8
Layer 1
10
19.561997
20
23.739250
70
0
0
VERTEX
8
Layer 1
10
25.528438
20
27.183901
70
0
0
VERTEX
8
Layer 1
10
25.845721
20
27.597314
70
0
0
VERTEX
8
Layer 1
10
25.777707
20
28.113988
70
0
0
VERTEX
8
Layer 1
10
25.777707
20
28.113988
70
0
0
SEQEND
8
Layer 1
0
POLYLINE
8
Layer 1
62
7
70
0
10
0.000000
20
0.000000
66
1
0
VERTEX
8
Layer 1
10
26.164509
20
31.301047
70
0
0
VERTEX
8
Layer 1
10
25.751082
20
31.618240
70
0
0
VERTEX
8
Layer 1
10
25.234456
20
31.550186
70
0
0
VERTEX
8
Layer 1
10
20.999829
20
29.105365
70
0
0
VERTEX
8
Layer 1
10
18.555008
20
33.339992
70
0
0
VERTEX
8
Layer 1
10
18.141581
20
33.657185
70
0
0
VERTEX
8
Layer 1
10
17.624955
20
33.589132
70
0
0
VERTEX
8
Layer 1
10
17.307673
20
33.175719
70
0
0
VERTEX
8
Layer 1
10
17.375688
20
32.659044
70
0
0
VERTEX
8
Layer 1
10
20.501422
20
27.245226
70
0
0
VERTEX
8
Layer 1
10
25.915241
20
30.370960
70
0
0
VERTEX
8
Layer 1
10
26.232524
20
30.784373
70
0
0
VERTEX
8
Layer 1
10
26.164509
20
31.301047
70
0
0
VERTEX
8
Layer 1
10
26.164509
20
31.301047
70
0
0
SEQEND
8
Layer 1
0
POLYLINE
8
Layer 1
62
7
70
1
10
0.000000
20
0.000000
66
1
0
VERTEX
8
Layer 1
10
32.427388
20
23.913681
70
0
0
VERTEX
8
Layer 1
10
32.110173
20
24.327083
70
0
0
VERTEX
8
Layer 1
10
31.593549
20
24.395098
70
0
0
VERTEX
8
Layer 1
10
18.440989
20
20.870878
70
0
0
VERTEX
8
Layer 1
10
18.027587
20
20.553663
70
0
0
VERTEX
8
Layer 1
10
17.959572
20
20.037039
70
0
0
VERTEX
8
Layer 1
10
18.276787
20
19.623637
70
0
0
VERTEX
8
Layer 1
10
18.793411
20
19.555622
70
0
0
VERTEX
8
Layer 1
10
31.945971
20
23.079842
70
0
0
VERTEX
8
Layer 1
10
32.359373
20
23.397057
70
0
0
VERTEX
8
Layer 1
10
32.427388
20
23.913681
70
0
0
VERTEX
8
Layer 1
10
32.427388
20
23.913681
70
0
0
SEQEND
8
Layer 1
0
POLYLINE
8
Layer 1
62
7
70
0
10
0.000000
20
0.000000
66
1
0
VERTEX
8
Layer 1
10
22.599126
20
21.446916
70
0
0
VERTEX
8
Layer 1
10
22.281875
20
21.860256
70
0
0
VERTEX
8
Layer 1
10
21.765242
20
21.928355
70
0
0
VERTEX
8
Layer 1
10
21.351785
20
21.611180
70
0
0
VERTEX
8
Layer 1
10
20.897576
20
20.824279
70
0
0
VERTEX
8
Layer 1
10
21.684383
20
20.369907
70
0
0
VERTEX
8
Layer 1
10
22.201035
20
20.301955
70
0
0
VERTEX
8
Layer 1
10
22.614403
20
20.619246
70
0
0
VERTEX
8
Layer 1
10
22.679430
20
20.951562
70
0
0
VERTEX
8
Layer 1
10
22.576325
20
21.274102
70
0
0
VERTEX
8
Layer 1
10
22.599124
20
21.446923
70
0
0
VERTEX
8
Layer 1
10
22.599126
20
21.446916
70
0
0
SEQEND
8
Layer 1
0
POLYLINE
8
Layer 1
62
7
70
0
10
0.000000
20
0.000000
66
1
0
VERTEX
8
Layer 1
10
26.835159
20
26.960387
70
0
0
VERTEX
8
Layer 1
10
26.517908
20
27.373726
70
0
0
VERTEX
8
Layer 1
10
26.001265
20
27.441752
70
0
0
VERTEX
8
Layer 1
10
25.587852
20
27.124518
70
0
0
VERTEX
8
Layer 1
10
22.143088
20
21.158009
70
0
0
VERTEX
8
Layer 1
10
28.109597
20
17.713245
70
0
0
VERTEX
8
Layer 1
10
28.626240
20
17.645219
70
0
0
VERTEX
8
Layer 1
10
29.039652
20
17.962453
70
0
0
VERTEX
8
Layer 1
10
29.107678
20
18.479095
70
0
0
VERTEX
8
Layer 1
10
28.790445
20
18.892508
70
0
0
VERTEX
8
Layer 1
10
24.003199
20
21.656425
70
0
0
VERTEX
8
Layer 1
10
26.767116
20
26.443671
70
0
0
VERTEX
8
Layer 1
10
26.835159
20
26.960387
70
0
0
VERTEX
8
Layer 1
10
26.835159
20
26.960387
70
0
0
SEQEND
8
Layer 1
0
POLYLINE
8
Layer 1
62
7
70
0
10
0.000000
20
0.000000
66
1
0
VERTEX
8
Layer 1
10
30.022140
20
27.347102
70
0
0
VERTEX
8
Layer 1
10
29.704855
20
27.760570
70
0
0
VERTEX
8
Layer 1
10
29.188293
20
27.828548
70
0
0
VERTEX
8
Layer 1
10
28.774927
20
27.511396
70
0
0
VERTEX
8
Layer 1
10
25.649196
20
22.097469
70
0
0
VERTEX
8
Layer 1
10
31.063123
20
18.971737
70
0
0
VERTEX
8
Layer 1
10
31.579685
20
18.903759
70
0
0
VERTEX
8
Layer 1
10
31.993051
20
19.220911
70
0
0
VERTEX
8
Layer 1
10
32.061076
20
19.737553
70
0
0
VERTEX
8
Layer 1
10
31.743843
20
20.150966
70
0
0
VERTEX
8
Layer 1
10
27.509306
20
22.595884
70
0
0
VERTEX
8
Layer 1
10
29.954062
20
26.830515
70
0
0
VERTEX
8
Layer 1
10
30.022140
20
27.347102
70
0
0
VERTEX
8
Layer 1
10
30.022140
20
27.347102
70
0
0
SEQEND
8
Layer 1
0
POLYLINE
8
Layer 1
62
7
70
0
10
0.000000
20
0.000000
66
1
0
VERTEX
8
Layer 1
10
28.926425
20
10.584945
70
0
0
VERTEX
8
Layer 1
10
28.726955
20
11.066325
70
0
0
VERTEX
8
Layer 1
10
19.098611
20
20.694666
70
0
0
VERTEX
8
Layer 1
10
18.617197
20
20.894069
70
0
0
VERTEX
8
Layer 1
10
18.135784
20
20.694661
70
0
0
VERTEX
8
Layer 1
10
17.936381
20
20.213247
70
0
0
VERTEX
8
Layer 1
10
18.135789
20
19.731834
70
0
0
VERTEX
8
Layer 1
10
27.764133
20
10.103493
70
0
0
VERTEX
8
Layer 1
10
28.245547
20
9.904091
70
0
0
VERTEX
8
Layer 1
10
28.726959
20
10.103499
70
0
0
VERTEX
8
Layer 1
10
28.926425
20
10.584945
70
0
0
VERTEX
8
Layer 1
10
28.926425
20
10.584945
70
0
0
SEQEND
8
Layer 1
0
POLYLINE
8
Layer 1
62
7
70
0
10
0.000000
20
0.000000
66
1
0
VERTEX
8
Layer 1
10
21.875897
20
17.863133
70
0
0
VERTEX
8
Layer 1
10
21.676486
20
18.344475
70
0
0
VERTEX
8
Layer 1
10
21.195144
20
18.543884
70
0
0
VERTEX
8
Layer 1
10
20.286537
20
18.543952
70
0
0
VERTEX
8
Layer 1
10
20.286469
20
17.635346
70
0
0
VERTEX
8
Layer 1
10
20.485903
20
17.153886
70
0
0
VERTEX
8
Layer 1
10
20.967385
20
16.954501
70
0
0
VERTEX
8
Layer 1
10
21.460483
20
17.182166
70
0
0
VERTEX
8
Layer 1
10
21.195052
20
17.182217
70
0
0
VERTEX
8
Layer 1
10
21.515469
20
17.315016
70
0
0
VERTEX
8
Layer 1
10
21.648101
20
17.635383
70
0
0
VERTEX
8
Layer 1
10
21.648179
20
17.369986
70
0
0
VERTEX
8
Layer 1
10
21.875897
20
17.863133
70
0
0
VERTEX
8
Layer 1
10
21.875897
20
17.863133
70
0
0
SEQEND
8
Layer 1
0
POLYLINE
8
Layer 1
62
7
70
1
10
0.000000
20
0.000000
66
1
0
VERTEX
8
Layer 1
10
28.768751
20
16.951267
70
0
0
VERTEX
8
Layer 1
10
28.569316
20
17.432727
70
0
0
VERTEX
8
Layer 1
10
28.087834
20
17.632111
70
0
0
VERTEX
8
Layer 1
10
21.198419
20
17.632044
70
0
0
VERTEX
8
Layer 1
10
21.198358
20
10.742594
70
0
0
VERTEX
8
Layer 1
10
21.397735
20
10.261157
70
0
0
VERTEX
8
Layer 1
10
21.879146
20
10.061715
70
0
0
VERTEX
8
Layer 1
10
22.360583
20
10.261092
70
0
0
VERTEX
8
Layer 1
10
22.560025
20
10.742502
70
0
0
VERTEX
8
Layer 1
10
22.560088
20
16.270449
70
0
0
VERTEX
8
Layer 1
10
28.087871
20
16.270479
70
0
0
VERTEX
8
Layer 1
10
28.569309
20
16.469856
70
0
0
VERTEX
8
Layer 1
10
28.768751
20
16.951267
70
0
0
VERTEX
8
Layer 1
10
28.768751
20
16.951267
70
0
0
SEQEND
8
Layer 1
0
POLYLINE
8
Layer 1
62
7
70
0
10
0.000000
20
0.000000
66
1
0
VERTEX
8
Layer 1
10
30.697262
20
14.384594
70
0
0
VERTEX
8
Layer 1
10
30.497827
20
14.866055
70
0
0
VERTEX
8
Layer 1
10
30.016345
20
15.065439
70
0
0
VERTEX
8
Layer 1
10
23.764973
20
15.065493
70
0
0
VERTEX
8
Layer 1
10
23.764920
20
8.814121
70
0
0
VERTEX
8
Layer 1
10
23.964354
20
8.332661
70
0
0
VERTEX
8
Layer 1
10
24.445836
20
8.133276
70
0
0
VERTEX
8
Layer 1
10
24.927273
20
8.332653
70
0
0
VERTEX
8
Layer 1
10
25.126715
20
8.814064
70
0
0
VERTEX
8
Layer 1
10
25.126677
20
13.703769
70
0
0
VERTEX
8
Layer 1
10
30.016382
20
13.703807
70
0
0
VERTEX
8
Layer 1
10
30.497820
20
13.903184
70
0
0
VERTEX
8
Layer 1
10
30.697262
20
14.384594
70
0
0
VERTEX
8
Layer 1
10
30.697262
20
14.384594
70
0
0
SEQEND
8
Layer 1
0
POLYLINE
8
Layer 1
62
7
70
0
10
0.000000
20
0.000000
66
1
0
VERTEX
8
Layer 1
10
19.206878
20
20.553660
70
0
0
VERTEX
8
Layer 1
10
18.793412
20
20.870872
70
0
0
VERTEX
8
Layer 1
10
18.276793
20
20.802858
70
0
0
VERTEX
8
Layer 1
10
17.959578
20
20.389462
70
0
0
VERTEX
8
Layer 1
10
14.435362
20
7.236901
70
0
0
VERTEX
8
Layer 1
10
14.503376
20
6.720283
70
0
0
VERTEX
8
Layer 1
10
14.916771
20
6.403068
70
0
0
VERTEX
8
Layer 1
10
15.433390
20
6.471081
70
0
0
VERTEX
8
Layer 1
10
15.750606
20
6.884477
70
0
0
VERTEX
8
Layer 1
10
19.274822
20
20.037038
70
0
0
VERTEX
8
Layer 1
10
19.206878
20
20.553660
70
0
0
VERTEX
8
Layer 1
10
19.206878
20
20.553660
70
0
0
SEQEND
8
Layer 1
0
POLYLINE
8
Layer 1
62
7
70
0
10
0.000000
20
0.000000
66
1
0
VERTEX
8
Layer 1
10
18.460524
20
17.146086
70
0
0
VERTEX
8
Layer 1
10
18.006161
20
17.932926
70
0
0
VERTEX
8
Layer 1
10
17.219319
20
17.478564
70
0
0
VERTEX
8
Layer 1
10
16.902169
20
17.065200
70
0
0
VERTEX
8
Layer 1
10
16.970146
20
16.548640
70
0
0
VERTEX
8
Layer 1
10
17.413928
20
16.235421
70
0
0
VERTEX
8
Layer 1
10
17.281297
20
16.465301
70
0
0
VERTEX
8
Layer 1
10
17.556343
20
16.254171
70
0
0
VERTEX
8
Layer 1
10
17.900233
20
16.299372
70
0
0
VERTEX
8
Layer 1
10
17.670388
20
16.166612
70
0
0
VERTEX
8
Layer 1
10
18.211256
20
16.215998
70
0
0
VERTEX
8
Layer 1
10
18.528539
20
16.629411
70
0
0
VERTEX
8
Layer 1
10
18.460524
20
17.146086
70
0
0
VERTEX
8
Layer 1
10
18.460524
20
17.146086
70
0
0
SEQEND
8
Layer 1
0
POLYLINE
8
Layer 1
62
7
70
0
10
0.000000
20
0.000000
66
1
0
VERTEX
8
Layer 1
10
21.117182
20
10.720843
70
0
0
VERTEX
8
Layer 1
10
17.672403
20
16.687250
70
0
0
VERTEX
8
Layer 1
10
11.705962
20
13.242599
70
0
0
VERTEX
8
Layer 1
10
11.388679
20
12.829186
70
0
0
VERTEX
8
Layer 1
10
11.456693
20
12.312512
70
0
0
VERTEX
8
Layer 1
10
11.870121
20
11.995319
70
0
0
VERTEX
8
Layer 1
10
12.386746
20
12.063372
70
0
0
VERTEX
8
Layer 1
10
17.173961
20
14.827239
70
0
0
VERTEX
8
Layer 1
10
19.937990
20
10.039930
70
0
0
VERTEX
8
Layer 1
10
20.351417
20
9.722737
70
0
0
VERTEX
8
Layer 1
10
20.868043
20
9.790791
70
0
0
VERTEX
8
Layer 1
10
21.185235
20
10.204218
70
0
0
VERTEX
8
Layer 1
10
21.117182
20
10.720843
70
0
0
VERTEX
8
Layer 1
10
21.117182
20
10.720843
70
0
0
SEQEND
8
Layer 1
0
POLYLINE
8
Layer 1
62
7
70
0
10
0.000000
20
0.000000
66
1
0
VERTEX
8
Layer 1
10
19.858712
20
7.767456
70
0
0
VERTEX
8
Layer 1
10
16.732978
20
13.181274
70
0
0
VERTEX
8
Layer 1
10
11.319159
20
10.055540
70
0
0
VERTEX
8
Layer 1
10
11.001876
20
9.642127
70
0
0
VERTEX
8
Layer 1
10
11.069891
20
9.125453
70
0
0
VERTEX
8
Layer 1
10
11.483318
20
8.808260
70
0
0
VERTEX
8
Layer 1
10
11.999944
20
8.876314
70
0
0
VERTEX
8
Layer 1
10
16.234571
20
11.321135
70
0
0
VERTEX
8
Layer 1
10
18.679392
20
7.086508
70
0
0
VERTEX
8
Layer 1
10
19.092819
20
6.769315
70
0
0
VERTEX
8
Layer 1
10
19.609445
20
6.837368
70
0
0
VERTEX
8
Layer 1
10
19.926727
20
7.250781
70
0
0
VERTEX
8
Layer 1
10
19.858712
20
7.767456
70
0
0
VERTEX
8
Layer 1
10
19.858712
20
7.767456
70
0
0
SEQEND
8
Layer 1
0
POLYLINE
8
Layer 1
62
7
70
0
10
0.000000
20
0.000000
66
1
0
VERTEX
8
Layer 1
10
65.114887
20
69.368610
70
0
0
VERTEX
8
Layer 1
10
65.140772
20
68.775738
70
0
0
VERTEX
8
Layer 1
10
65.578300
20
68.374817
70
0
0
VERTEX
8
Layer 1
10
80.150360
20
63.071017
70
0
0
VERTEX
8
Layer 1
10
80.743232
20
63.096902
70
0
0
VERTEX
8
Layer 1
10
81.144153
20
63.534430
70
0
0
VERTEX
8
Layer 1
10
81.118268
20
64.127302
70
0
0
VERTEX
8
Layer 1
10
80.680740
20
64.528223
70
0
0
VERTEX
8
Layer 1
10
66.108680
20
69.832023
70
0
0
VERTEX
8
Layer 1
10
65.515808
20
69.806138
70
0
0
VERTEX
8
Layer 1
10
65.114887
20
69.368610
70
0
0
VERTEX
8
Layer 1
10
65.114887
20
69.368610
70
0
0
SEQEND
8
Layer 1
0
POLYLINE
8
Layer 1
62
7
70
0
10
0.000000
20
0.000000
66
1
0
VERTEX
8
Layer 1
10
66.933264
20
68.706775
70
0
0
VERTEX
8
Layer 1
10
69.198053
20
63.849663
70
0
0
VERTEX
8
Layer 1
10
69.635591
20
63.448720
70
0
0
VERTEX
8
Layer 1
10
70.228485
20
63.474616
70
0
0
VERTEX
8
Layer 1
10
70.629428
20
63.912154
70
0
0
VERTEX
8
Layer 1
10
70.603532
20
64.505048
70
0
0
VERTEX
8
Layer 1
10
68.993986
20
67.956732
70
0
0
VERTEX
8
Layer 1
10
72.445670
20
69.566278
70
0
0
VERTEX
8
Layer 1
10
72.846613
20
70.003816
70
0
0
VERTEX
8
Layer 1
10
72.820718
20
70.596710
70
0
0
VERTEX
8
Layer 1
10
72.383179
20
70.997653
70
0
0
VERTEX
8
Layer 1
10
71.790285
20
70.971757
70
0
0
VERTEX
8
Layer 1
10
66.933264
20
68.706775
70
0
0
SEQEND
8
Layer 1
0
POLYLINE
8
Layer 1
62
7
70
0
10
0.000000
20
0.000000
66
1
0
VERTEX
8
Layer 1
10
70.719438
20
67.328719
70
0
0
VERTEX
8
Layer 1
10
72.802223
20
62.862421
70
0
0
VERTEX
8
Layer 1
10
73.239716
20
62.461576
70
0
0
VERTEX
8
Layer 1
10
73.832514
20
62.487426
70
0
0
VERTEX
8
Layer 1
10
74.233359
20
62.924919
70
0
0
VERTEX
8
Layer 1
10
74.207509
20
63.517717
70
0
0
VERTEX
8
Layer 1
10
72.780161
20
66.578676
70
0
0
VERTEX
8
Layer 1
10
75.841121
20
68.006025
70
0
0
VERTEX
8
Layer 1
10
76.241966
20
68.443518
70
0
0
VERTEX
8
Layer 1
10
76.216116
20
69.036315
70
0
0
VERTEX
8
Layer 1
10
75.778623
20
69.437161
70
0
0
VERTEX
8
Layer 1
10
75.185825
20
69.411311
70
0
0
VERTEX
8
Layer 1
10
70.719438
20
67.328719
70
0
0
SEQEND
8
Layer 1
0
POLYLINE
8
Layer 1
62
7
70
0
10
0.000000
20
0.000000
66
1
0
VERTEX
8
Layer 1
10
75.084225
20
65.740065
70
0
0
VERTEX
8
Layer 1
10
76.248822
20
63.242578
70
0
0
VERTEX
8
Layer 1
10
76.686360
20
62.841635
70
0
0
VERTEX
8
Layer 1
10
77.279254
20
62.867531
70
0
0
VERTEX
8
Layer 1
10
77.680100
20
63.305024
70
0
0
VERTEX
8
Layer 1
10
77.654250
20
63.897821
70
0
0
VERTEX
8
Layer 1
10
77.144948
20
64.990023
70
0
0
VERTEX
8
Layer 1
10
78.237149
20
65.499324
70
0
0
VERTEX
8
Layer 1
10
78.637995
20
65.936817
70
0
0
VERTEX
8
Layer 1
10
78.612145
20
66.529615
70
0
0
VERTEX
8
Layer 1
10
78.174607
20
66.930557
70
0
0
VERTEX
8
Layer 1
10
77.581712
20
66.904662
70
0
0
VERTEX
8
Layer 1
10
75.084225
20
65.740065
70
0
0
SEQEND
8
Layer 1
0
POLYLINE
8
Layer 1
62
7
70
0
10
0.000000
20
0.000000
66
1
0
VERTEX
8
Layer 1
10
65.208276
20
69.548152
70
0
0
VERTEX
8
Layer 1
10
65.079913
20
68.968777
70
0
0
VERTEX
8
Layer 1
10
67.772718
20
53.697103
70
0
0
VERTEX
8
Layer 1
10
68.091573
20
53.196611
70
0
0
VERTEX
8
Layer 1
10
68.670937
20
53.068170
70
0
0
VERTEX
8
Layer 1
10
69.171429
20
53.387024
70
0
0
VERTEX
8
Layer 1
10
69.299871
20
53.966389
70
0
0
VERTEX
8
Layer 1
10
66.607067
20
69.238063
70
0
0
VERTEX
8
Layer 1
10
66.288212
20
69.738555
70
0
0
VERTEX
8
Layer 1
10
65.708847
20
69.866997
70
0
0
VERTEX
8
Layer 1
10
65.208276
20
69.548152
70
0
0
VERTEX
8
Layer 1
10
65.208276
20
69.548152
70
0
0
SEQEND
8
Layer 1
0
POLYLINE
8
Layer 1
62
7
70
0
10
0.000000
20
0.000000
66
1
0
VERTEX
8
Layer 1
10
62.970851
20
63.571349
70
0
0
VERTEX
8
Layer 1
10
62.842496
20
62.991989
70
0
0
VERTEX
8
Layer 1
10
63.161384
20
62.491545
70
0
0
VERTEX
8
Layer 1
10
63.740752
20
62.363059
70
0
0
VERTEX
8
Layer 1
10
64.241278
20
62.681885
70
0
0
VERTEX
8
Layer 1
10
66.425745
20
65.801631
70
0
0
VERTEX
8
Layer 1
10
69.545349
20
63.617216
70
0
0
VERTEX
8
Layer 1
10
70.124718
20
63.488729
70
0
0
VERTEX
8
Layer 1
10
70.625244
20
63.807555
70
0
0
VERTEX
8
Layer 1
10
70.753730
20
64.386923
70
0
0
VERTEX
8
Layer 1
10
70.434905
20
64.887449
70
0
0
VERTEX
8
Layer 1
10
66.044873
20
67.961328
70
0
0
VERTEX
8
Layer 1
10
62.970851
20
63.571349
70
0
0
SEQEND
8
Layer 1
0
POLYLINE
8
Layer 1
62
7
70
0
10
0.000000
20
0.000000
66
1
0
VERTEX
8
Layer 1
10
63.917988
20
59.956580
70
0
0
VERTEX
8
Layer 1
10
63.789502
20
59.377212
70
0
0
VERTEX
8
Layer 1
10
64.108328
20
58.876686
70
0
0
VERTEX
8
Layer 1
10
64.687696
20
58.748199
70
0
0
VERTEX
8
Layer 1
10
65.188222
20
59.067025
70
0
0
VERTEX
8
Layer 1
10
67.125374
20
61.833605
70
0
0
VERTEX
8
Layer 1
10
69.891953
20
59.896453
70
0
0
VERTEX
8
Layer 1
10
70.471254
20
59.768059
70
0
0
VERTEX
8
Layer 1
10
70.971705
20
60.086844
70
0
0
VERTEX
8
Layer 1
10
71.100193
20
60.666212
70
0
0
VERTEX
8
Layer 1
10
70.781367
20
61.166738
70
0
0
VERTEX
8
Layer 1
10
66.744502
20
63.993303
70
0
0
VERTEX
8
Layer 1
10
63.917988
20
59.956580
70
0
0
SEQEND
8
Layer 1
0
POLYLINE
8
Layer 1
62
7
70
0
10
0.000000
20
0.000000
66
1
0
VERTEX
8
Layer 1
10
65.970461
20
57.161717
70
0
0
VERTEX
8
Layer 1
10
65.841974
20
56.582349
70
0
0
VERTEX
8
Layer 1
10
66.160801
20
56.081824
70
0
0
VERTEX
8
Layer 1
10
66.740168
20
55.953337
70
0
0
VERTEX
8
Layer 1
10
67.240694
20
56.272163
70
0
0
VERTEX
8
Layer 1
10
67.931991
20
57.259366
70
0
0
VERTEX
8
Layer 1
10
68.919051
20
56.568121
70
0
0
VERTEX
8
Layer 1
10
69.498412
20
56.439766
70
0
0
VERTEX
8
Layer 1
10
69.998855
20
56.758654
70
0
0
VERTEX
8
Layer 1
10
70.127248
20
57.337955
70
0
0
VERTEX
8
Layer 1
10
69.808464
20
57.838406
70
0
0
VERTEX
8
Layer 1
10
67.551118
20
59.419063
70
0
0
VERTEX
8
Layer 1
10
65.970461
20
57.161717
70
0
0
SEQEND
8
Layer 1
0
POLYLINE
8
Layer 1
62
7
70
0
10
0.000000
20
0.000000
66
1
0
VERTEX
8
Layer 1
10
53.191764
20
59.203169
70
0
0
VERTEX
8
Layer 1
10
53.370274
20
58.637160
70
0
0
VERTEX
8
Layer 1
10
53.896654
20
58.363143
70
0
0
VERTEX
8
Layer 1
10
54.462621
20
58.541586
70
0
0
VERTEX
8
Layer 1
10
66.341877
20
68.509460
70
0
0
VERTEX
8
Layer 1
10
66.615893
20
69.035840
70
0
0
VERTEX
8
Layer 1
10
66.437450
20
69.601807
70
0
0
VERTEX
8
Layer 1
10
65.911070
20
69.875823
70
0
0
VERTEX
8
Layer 1
10
65.345103
20
69.697380
70
0
0
VERTEX
8
Layer 1
10
53.465848
20
59.729506
70
0
0
VERTEX
8
Layer 1
10
53.191764
20
59.203169
70
0
0
VERTEX
8
Layer 1
10
53.191764
20
59.203169
70
0
0
SEQEND
8
Layer 1
0
POLYLINE
8
Layer 1
62
7
70
0
10
0.000000
20
0.000000
66
1
0
VERTEX
8
Layer 1
10
58.776337
20
68.120208
70
0
0
VERTEX
8
Layer 1
10
58.954825
20
67.554240
70
0
0
VERTEX
8
Layer 1
10
59.481236
20
67.280256
70
0
0
VERTEX
8
Layer 1
10
63.275107
20
66.948370
70
0
0
VERTEX
8
Layer 1
10
62.943170
20
63.154358
70
0
0
VERTEX
8
Layer 1
10
63.121657
20
62.588391
70
0
0
VERTEX
8
Layer 1
10
63.648068
20
62.314407
70
0
0
VERTEX
8
Layer 1
10
64.214029
20
62.492791
70
0
0
VERTEX
8
Layer 1
10
64.488110
20
63.019111
70
0
0
VERTEX
8
Layer 1
10
64.955099
20
68.357974
70
0
0
VERTEX
8
Layer 1
10
59.616288
20
68.825106
70
0
0
VERTEX
8
Layer 1
10
59.050322
20
68.646618
70
0
0
VERTEX
8
Layer 1
10
58.776337
20
68.120208
70
0
0
VERTEX
8
Layer 1
10
58.776337
20
68.120208
70
0
0
SEQEND
8
Layer 1
0
POLYLINE
8
Layer 1
62
7
70
0
10
0.000000
20
0.000000
66
1
0
VERTEX
8
Layer 1
10
56.119304
20
65.492680
70
0
0
VERTEX
8
Layer 1
10
56.297760
20
64.926793
70
0
0
VERTEX
8
Layer 1
10
56.824061
20
64.652781
70
0
0
VERTEX
8
Layer 1
10
60.188561
20
64.358401
70
0
0
VERTEX
8
Layer 1
10
59.894181
20
60.993900
70
0
0
VERTEX
8
Layer 1
10
60.072668
20
60.427933
70
0
0
VERTEX
8
Layer 1
10
60.599080
20
60.153949
70
0
0
VERTEX
8
Layer 1
10
61.165046
20
60.332437
70
0
0
VERTEX
8
Layer 1
10
61.439030
20
60.858847
70
0
0
VERTEX
8
Layer 1
10
61.868553
20
65.768004
70
0
0
VERTEX
8
Layer 1
10
56.959255
20
66.197579
70
0
0
VERTEX
8
Layer 1
10
56.393288
20
66.019091
70
0
0
VERTEX
8
Layer 1
10
56.119304
20
65.492680
70
0
0
VERTEX
8
Layer 1
10
56.119304
20
65.492680
70
0
0
SEQEND
8
Layer 1
0
POLYLINE
8
Layer 1
62
7
70
0
10
0.000000
20
0.000000
66
1
0
VERTEX
8
Layer 1
10
54.725230
20
62.317803
70
0
0
VERTEX
8
Layer 1
10
54.903614
20
61.751842
70
0
0
VERTEX
8
Layer 1
10
55.429935
20
61.477761
70
0
0
VERTEX
8
Layer 1
10
56.630391
20
61.372815
70
0
0
VERTEX
8
Layer 1
10
56.525392
20
60.172217
70
0
0
VERTEX
8
Layer 1
10
56.703879
20
59.606250
70
0
0
VERTEX
8
Layer 1
10
57.230290
20
59.332266
70
0
0
VERTEX
8
Layer 1
10
57.796257
20
59.510753
70
0
0
VERTEX
8
Layer 1
10
58.070242
20
60.037164
70
0
0
VERTEX
8
Layer 1
10
58.310383
20
62.782418
70
0
0
VERTEX
8
Layer 1
10
55.565129
20
63.022559
70
0
0
VERTEX
8
Layer 1
10
54.999243
20
62.844103
70
0
0
VERTEX
8
Layer 1
10
54.725230
20
62.317803
70
0
0
VERTEX
8
Layer 1
10
54.725230
20
62.317803
70
0
0
SEQEND
8
Layer 1
0
POLYLINE
8
Layer 1
62
7
70
1
10
0.000000
20
0.000000
66
1
0
VERTEX
8
Layer 1
10
50.542827
20
74.672410
70
0
0
VERTEX
8
Layer 1
10
50.568712
20
74.079538
70
0
0
VERTEX
8
Layer 1
10
51.006240
20
73.678617
70
0
0
VERTEX
8
Layer 1
10
65.578300
20
68.374817
70
0
0
VERTEX
8
Layer 1
10
66.171172
20
68.400702
70
0
0
VERTEX
8
Layer 1
10
66.572093
20
68.838230
70
0
0
VERTEX
8
Layer 1
10
66.546208
20
69.431102
70
0
0
VERTEX
8
Layer 1
10
66.108680
20
69.832023
70
0
0
VERTEX
8
Layer 1
10
51.536620
20
75.135823
70
0
0
VERTEX
8
Layer 1
10
50.943748
20
75.109938
70
0
0
VERTEX
8
Layer 1
10
50.542827
20
74.672410
70
0
0
VERTEX
8
Layer 1
10
50.542827
20
74.672410
70
0
0
SEQEND
8
Layer 1
0
POLYLINE
8
Layer 1
62
7
70
0
10
0.000000
20
0.000000
66
1
0
VERTEX
8
Layer 1
10
58.840355
20
68.203110
70
0
0
VERTEX
8
Layer 1
10
58.866262
20
67.610130
70
0
0
VERTEX
8
Layer 1
10
59.303801
20
67.209187
70
0
0
VERTEX
8
Layer 1
10
59.896695
20
67.235083
70
0
0
VERTEX
8
Layer 1
10
64.753716
20
69.500065
70
0
0
VERTEX
8
Layer 1
10
62.488927
20
74.357177
70
0
0
VERTEX
8
Layer 1
10
62.051389
20
74.758120
70
0
0
VERTEX
8
Layer 1
10
61.458495
20
74.732224
70
0
0
VERTEX
8
Layer 1
10
61.057552
20
74.294686
70
0
0
VERTEX
8
Layer 1
10
61.083448
20
73.701792
70
0
0
VERTEX
8
Layer 1
10
62.692994
20
70.250108
70
0
0
VERTEX
8
Layer 1
10
59.241310
20
68.640562
70
0
0
VERTEX
8
Layer 1
10
58.840355
20
68.203110
70
0
0
VERTEX
8
Layer 1
10
58.840355
20
68.203110
70
0
0
SEQEND
8
Layer 1
0
POLYLINE
8
Layer 1
62
7
70
0
10
0.000000
20
0.000000
66
1
0
VERTEX
8
Layer 1
10
55.444904
20
69.763363
70
0
0
VERTEX
8
Layer 1
10
55.470864
20
69.170525
70
0
0
VERTEX
8
Layer 1
10
55.908357
20
68.769679
70
0
0
VERTEX
8
Layer 1
10
56.501155
20
68.795529
70
0
0
VERTEX
8
Layer 1
10
60.967542
20
70.878121
70
0
0
VERTEX
8
Layer 1
10
58.884757
20
75.344419
70
0
0
VERTEX
8
Layer 1
10
58.447264
20
75.745264
70
0
0
VERTEX
8
Layer 1
10
57.854466
20
75.719414
70
0
0
VERTEX
8
Layer 1
10
57.453621
20
75.281921
70
0
0
VERTEX
8
Layer 1
10
57.479471
20
74.689123
70
0
0
VERTEX
8
Layer 1
10
58.906819
20
71.628164
70
0
0
VERTEX
8
Layer 1
10
55.845859
20
70.200815
70
0
0
VERTEX
8
Layer 1
10
55.444904
20
69.763363
70
0
0
VERTEX
8
Layer 1
10
55.444904
20
69.763363
70
0
0
SEQEND
8
Layer 1
0
POLYLINE
8
Layer 1
62
7
70
0
10
0.000000
20
0.000000
66
1
0
VERTEX
8
Layer 1
10
53.048875
20
72.270063
70
0
0
VERTEX
8
Layer 1
10
53.074835
20
71.677225
70
0
0
VERTEX
8
Layer 1
10
53.512373
20
71.276283
70
0
0
VERTEX
8
Layer 1
10
54.105268
20
71.302178
70
0
0
VERTEX
8
Layer 1
10
56.602754
20
72.466775
70
0
0
VERTEX
8
Layer 1
10
55.438158
20
74.964262
70
0
0
VERTEX
8
Layer 1
10
55.000620
20
75.365205
70
0
0
VERTEX
8
Layer 1
10
54.407726
20
75.339309
70
0
0
VERTEX
8
Layer 1
10
54.006880
20
74.901816
70
0
0
VERTEX
8
Layer 1
10
54.032730
20
74.309019
70
0
0
VERTEX
8
Layer 1
10
54.542032
20
73.216817
70
0
0
VERTEX
8
Layer 1
10
53.449831
20
72.707516
70
0
0
VERTEX
8
Layer 1
10
53.048875
20
72.270063
70
0
0
VERTEX
8
Layer 1
10
53.048875
20
72.270063
70
0
0
SEQEND
8
Layer 1
0
POLYLINE
8
Layer 1
62
7
70
0
10
0.000000
20
0.000000
66
1
0
VERTEX
8
Layer 1
10
62.515472
20
84.819826
70
0
0
VERTEX
8
Layer 1
10
62.387109
20
84.240451
70
0
0
VERTEX
8
Layer 1
10
65.079913
20
68.968777
70
0
0
VERTEX
8
Layer 1
10
65.398768
20
68.468285
70
0
0
VERTEX
8
Layer 1
10
65.978133
20
68.339843
70
0
0
VERTEX
8
Layer 1
10
66.478625
20
68.658698
70
0
0
VERTEX
8
Layer 1
10
66.607067
20
69.238063
70
0
0
VERTEX
8
Layer 1
10
63.914262
20
84.509737
70
0
0
VERTEX
8
Layer 1
10
63.595407
20
85.010229
70
0
0
VERTEX
8
Layer 1
10
63.016043
20
85.138670
70
0
0
VERTEX
8
Layer 1
10
62.515472
20
84.819826
70
0
0
VERTEX
8
Layer 1
10
62.515472
20
84.819826
70
0
0
SEQEND
8
Layer 1
0
POLYLINE
8
Layer 1
62
7
70
0
10
0.000000
20
0.000000
66
1
0
VERTEX
8
Layer 1
10
61.061736
20
74.399285
70
0
0
VERTEX
8
Layer 1
10
60.933250
20
73.819917
70
0
0
VERTEX
8
Layer 1
10
61.252075
20
73.319391
70
0
0
VERTEX
8
Layer 1
10
65.642107
20
70.245511
70
0
0
VERTEX
8
Layer 1
10
68.716129
20
74.635491
70
0
0
VERTEX
8
Layer 1
10
68.844484
20
75.214851
70
0
0
VERTEX
8
Layer 1
10
68.525596
20
75.715295
70
0
0
VERTEX
8
Layer 1
10
67.946228
20
75.843781
70
0
0
VERTEX
8
Layer 1
10
67.445702
20
75.524955
70
0
0
VERTEX
8
Layer 1
10
65.261235
20
72.405209
70
0
0
VERTEX
8
Layer 1
10
62.141631
20
74.589624
70
0
0
VERTEX
8
Layer 1
10
61.562262
20
74.718111
70
0
0
VERTEX
8
Layer 1
10
61.061736
20
74.399285
70
0
0
VERTEX
8
Layer 1
10
61.061736
20
74.399285
70
0
0
SEQEND
8
Layer 1
0
POLYLINE
8
Layer 1
62
7
70
0
10
0.000000
20
0.000000
66
1
0
VERTEX
8
Layer 1
10
60.715275
20
78.119996
70
0
0
VERTEX
8
Layer 1
10
60.586787
20
77.540628
70
0
0
VERTEX
8
Layer 1
10
60.905613
20
77.040102
70
0
0
VERTEX
8
Layer 1
10
64.942478
20
74.213537
70
0
0
VERTEX
8
Layer 1
10
67.768992
20
78.250260
70
0
0
VERTEX
8
Layer 1
10
67.897478
20
78.829628
70
0
0
VERTEX
8
Layer 1
10
67.578652
20
79.330154
70
0
0
VERTEX
8
Layer 1
10
66.999284
20
79.458641
70
0
0
VERTEX
8
Layer 1
10
66.498758
20
79.139815
70
0
0
VERTEX
8
Layer 1
10
64.561606
20
76.373235
70
0
0
VERTEX
8
Layer 1
10
61.795027
20
78.310387
70
0
0
VERTEX
8
Layer 1
10
61.215726
20
78.438781
70
0
0
VERTEX
8
Layer 1
10
60.715275
20
78.119996
70
0
0
VERTEX
8
Layer 1
10
60.715275
20
78.119996
70
0
0
SEQEND
8
Layer 1
0
POLYLINE
8
Layer 1
62
7
70
0
10
0.000000
20
0.000000
66
1
0
VERTEX
8
Layer 1
10
61.688125
20
81.448186
70
0
0
VERTEX
8
Layer 1
10
61.559732
20
80.868885
70
0
0
VERTEX
8
Layer 1
10
61.878516
20
80.368434
70
0
0
VERTEX
8
Layer 1
10
64.135862
20
78.787777
70
0
0
VERTEX
8
Layer 1
10
65.716519
20
81.045123
70
0
0
VERTEX
8
Layer 1
10
65.845006
20
81.624491
70
0
0
VERTEX
8
Layer 1
10
65.526179
20
82.125016
70
0
0
VERTEX
8
Layer 1
10
64.946812
20
82.253503
70
0
0
VERTEX
8
Layer 1
10
64.446286
20
81.934677
70
0
0
VERTEX
8
Layer 1
10
63.754989
20
80.947474
70
0
0
VERTEX
8
Layer 1
10
62.767929
20
81.638719
70
0
0
VERTEX
8
Layer 1
10
62.188568
20
81.767074
70
0
0
VERTEX
8
Layer 1
10
61.688125
20
81.448186
70
0
0
VERTEX
8
Layer 1
10
61.688125
20
81.448186
70
0
0
SEQEND
8
Layer 1
0
POLYLINE
8
Layer 1
62
7
70
0
10
0.000000
20
0.000000
66
1
0
VERTEX
8
Layer 1
10
65.071020
20
69.171043
70
0
0
VERTEX
8
Layer 1
10
65.249530
20
68.605033
70
0
0
VERTEX
8
Layer 1
10
65.775910
20
68.331017
70
0
0
VERTEX
8
Layer 1
10
66.341877
20
68.509460
70
0
0
VERTEX
8
Layer 1
10
78.221132
20
78.477334
70
0
0
VERTEX
8
Layer 1
10
78.495148
20
79.003713
70
0
0
VERTEX
8
Layer 1
10
78.316706
20
79.569680
70
0
0
VERTEX
8
Layer 1
10
77.790326
20
79.843697
70
0
0
VERTEX
8
Layer 1
10
77.224359
20
79.665254
70
0
0
VERTEX
8
Layer 1
10
65.345103
20
69.697380
70
0
0
VERTEX
8
Layer 1
10
65.071020
20
69.171043
70
0
0
VERTEX
8
Layer 1
10
65.071020
20
69.171043
70
0
0
SEQEND
8
Layer 1
0
POLYLINE
8
Layer 1
62
7
70
0
10
0.000000
20
0.000000
66
1
0
VERTEX
8
Layer 1
10
67.198870
20
75.187729
70
0
0
VERTEX
8
Layer 1
10
66.731881
20
69.848865
70
0
0
VERTEX
8
Layer 1
10
72.070692
20
69.381734
70
0
0
VERTEX
8
Layer 1
10
72.636658
20
69.560222
70
0
0
VERTEX
8
Layer 1
10
72.910643
20
70.086632
70
0
0
VERTEX
8
Layer 1
10
72.732155
20
70.652600
70
0
0
VERTEX
8
Layer 1
10
72.205744
20
70.926584
70
0
0
VERTEX
8
Layer 1
10
68.411873
20
71.258470
70
0
0
VERTEX
8
Layer 1
10
68.743810
20
75.052482
70
0
0
VERTEX
8
Layer 1
10
68.565323
20
75.618449
70
0
0
VERTEX
8
Layer 1
10
68.038912
20
75.892433
70
0
0
VERTEX
8
Layer 1
10
67.472951
20
75.714049
70
0
0
VERTEX
8
Layer 1
10
67.198870
20
75.187729
70
0
0
VERTEX
8
Layer 1
10
67.198870
20
75.187729
70
0
0
SEQEND
8
Layer 1
0
POLYLINE
8
Layer 1
62
7
70
0
10
0.000000
20
0.000000
66
1
0
VERTEX
8
Layer 1
10
70.247950
20
77.347993
70
0
0
VERTEX
8
Layer 1
10
69.818427
20
72.438836
70
0
0
VERTEX
8
Layer 1
10
74.727725
20
72.009261
70
0
0
VERTEX
8
Layer 1
10
75.293692
20
72.187749
70
0
0
VERTEX
8
Layer 1
10
75.567676
20
72.714160
70
0
0
VERTEX
8
Layer 1
10
75.389220
20
73.280047
70
0
0
VERTEX
8
Layer 1
10
74.862919
20
73.554059
70
0
0
VERTEX
8
Layer 1
10
71.498419
20
73.848439
70
0
0
VERTEX
8
Layer 1
10
71.792799
20
77.212940
70
0
0
VERTEX
8
Layer 1
10
71.614312
20
77.778907
70
0
0
VERTEX
8
Layer 1
10
71.087900
20
78.052891
70
0
0
VERTEX
8
Layer 1
10
70.521934
20
77.874403
70
0
0
VERTEX
8
Layer 1
10
70.247950
20
77.347993
70
0
0
VERTEX
8
Layer 1
10
70.247950
20
77.347993
70
0
0
SEQEND
8
Layer 1
0
POLYLINE
8
Layer 1
62
7
70
0
10
0.000000
20
0.000000
66
1
0
VERTEX
8
Layer 1
10
73.616738
20
78.169676
70
0
0
VERTEX
8
Layer 1
10
73.376597
20
75.424422
70
0
0
VERTEX
8
Layer 1
10
76.121851
20
75.184281
70
0
0
VERTEX
8
Layer 1
10
76.687737
20
75.362737
70
0
0
VERTEX
8
Layer 1
10
76.961750
20
75.889037
70
0
0
VERTEX
8
Layer 1
10
76.783366
20
76.454998
70
0
0
VERTEX
8
Layer 1
10
76.257045
20
76.729079
70
0
0
VERTEX
8
Layer 1
10
75.056589
20
76.834025
70
0
0
VERTEX
8
Layer 1
10
75.161588
20
78.034623
70
0
0
VERTEX
8
Layer 1
10
74.983101
20
78.600590
70
0
0
VERTEX
8
Layer 1
10
74.456690
20
78.874574
70
0
0
VERTEX
8
Layer 1
10
73.890723
20
78.696087
70
0
0
VERTEX
8
Layer 1
10
73.616738
20
78.169676
70
0
0
VERTEX
8
Layer 1
10
73.616738
20
78.169676
70
0
0
SEQEND
8
Layer 1
0
POLYLINE
8
Layer 1
62
7
70
0
10
0.000000
20
0.000000
66
1
0
VERTEX
8
Layer 1
10
59.644080
20
25.810370
70
0
0
VERTEX
8
Layer 1
10
59.698322
20
26.280182
70
0
0
VERTEX
8
Layer 1
10
59.572562
20
26.719089
70
0
0
VERTEX
8
Layer 1
10
59.291399
20
27.078815
70
0
0
VERTEX
8
Layer 1
10
58.879430
20
27.311080
70
0
0
VERTEX
8
Layer 1
10
36.225830
20
34.671680
70
0
0
VERTEX
8
Layer 1
10
35.756018
20
34.725922
70
0
0
VERTEX
8
Layer 1
10
35.317111
20
34.600162
70
0
0
VERTEX
8
Layer 1
10
34.957385
20
34.318999
70
0
0
VERTEX
8
Layer 1
10
34.725120
20
33.907030
70
0
0
VERTEX
8
Layer 1
10
34.670878
20
33.437218
70
0
0
VERTEX
8
Layer 1
10
34.796638
20
32.998311
70
0
0
VERTEX
8
Layer 1
10
35.077801
20
32.638585
70
0
0
VERTEX
8
Layer 1
10
35.489770
20
32.406320
70
0
0
VERTEX
8
Layer 1
10
58.143370
20
25.045720
70
0
0
VERTEX
8
Layer 1
10
58.613182
20
24.991478
70
0
0
VERTEX
8
Layer 1
10
59.052089
20
25.117238
70
0
0
VERTEX
8
Layer 1
10
59.411815
20
25.398401
70
0
0
VERTEX
8
Layer 1
10
59.644080
20
25.810370
70
0
0
VERTEX
8
Layer 1
10
59.644080
20
25.810370
70
0
0
SEQEND
8
Layer 1
0
POLYLINE
8
Layer 1
62
7
70
0
10
0.000000
20
0.000000
66
1
0
VERTEX
8
Layer 1
10
54.488838
20
27.485410
70
0
0
VERTEX
8
Layer 1
10
53.895637
20
28.649632
70
0
0
VERTEX
8
Layer 1
10
53.607945
20
29.014585
70
0
0
VERTEX
8
Layer 1
10
53.202487
20
29.241656
70
0
0
VERTEX
8
Layer 1
10
52.740996
20
29.296273
70
0
0
VERTEX
8
Layer 1
10
52.293735
20
29.170121
70
0
0
VERTEX
8
Layer 1
10
51.917478
20
28.842122
70
0
0
VERTEX
8
Layer 1
10
51.708684
20
28.388736
70
0
0
VERTEX
8
Layer 1
10
51.611108
20
27.899214
70
0
0
VERTEX
8
Layer 1
10
51.722714
20
27.412698
70
0
0
VERTEX
8
Layer 1
10
52.010405
20
27.047745
70
0
0
VERTEX
8
Layer 1
10
52.415863
20
26.820674
70
0
0
VERTEX
8
Layer 1
10
52.877354
20
26.766056
70
0
0
VERTEX
8
Layer 1
10
53.324615
20
26.892209
70
0
0
VERTEX
8
Layer 1
10
54.488838
20
27.485410
70
0
0
SEQEND
8
Layer 1
0
POLYLINE
8
Layer 1
62
7
70
0
10
0.000000
20
0.000000
66
1
0
VERTEX
8
Layer 1
10
52.050257
20
28.277752
70
0
0
VERTEX
8
Layer 1
10
47.102882
20
37.987522
70
0
0
VERTEX
8
Layer 1
10
46.815190
20
38.352475
70
0
0
VERTEX
8
Layer 1
10
46.409733
20
38.579546
70
0
0
VERTEX
8
Layer 1
10
45.948242
20
38.634163
70
0
0
VERTEX
8
Layer 1
10
45.500980
20
38.508011
70
0
0
VERTEX
8
Layer 1
10
45.136027
20
38.220319
70
0
0
VERTEX
8
Layer 1
10
44.908956
20
37.814862
70
0
0
VERTEX
8
Layer 1
10
44.854339
20
37.353371
70
0
0
VERTEX
8
Layer 1
10
44.980491
20
36.906109
70
0
0
VERTEX
8
Layer 1
10
48.846675
20
29.318659
70
0
0
VERTEX
8
Layer 1
10
41.259075
20
25.452769
70
0
0
VERTEX
8
Layer 1
10
40.894122
20
25.165077
70
0
0
VERTEX
8
Layer 1
10
40.667051
20
24.759619
70
0
0
VERTEX
8
Layer 1
10
40.612434
20
24.298128
70
0
0
VERTEX
8
Layer 1
10
40.738586
20
23.850867
70
0
0
VERTEX
8
Layer 1
10
41.026278
20
23.485914
70
0
0
VERTEX
8
Layer 1
10
41.431735
20
23.258843
70
0
0
VERTEX
8
Layer 1
10
41.893226
20
23.204225
70
0
0
VERTEX
8
Layer 1
10
42.340488
20
23.330377
70
0
0
VERTEX
8
Layer 1
10
52.050257
20
28.277752
70
0
0
SEQEND
8
Layer 1
0
POLYLINE
8
Layer 1
62
7
70
0
10
0.000000
20
0.000000
66
1
0
VERTEX
8
Layer 1
10
44.272595
20
30.804868
70
0
0
VERTEX
8
Layer 1
10
42.179814
20
34.912182
70
0
0
VERTEX
8
Layer 1
10
41.892122
20
35.277135
70
0
0
VERTEX
8
Layer 1
10
41.486665
20
35.504206
70
0
0
VERTEX
8
Layer 1
10
41.025174
20
35.558823
70
0
0
VERTEX
8
Layer 1
10
40.577912
20
35.432671
70
0
0
VERTEX
8
Layer 1
10
40.212959
20
35.144979
70
0
0
VERTEX
8
Layer 1
10
39.985888
20
34.739522
70
0
0
VERTEX
8
Layer 1
10
39.931271
20
34.278031
70
0
0
VERTEX
8
Layer 1
10
40.057423
20
33.830769
70
0
0
VERTEX
8
Layer 1
10
41.069013
20
31.845775
70
0
0
VERTEX
8
Layer 1
10
39.083869
20
30.834477
70
0
0
VERTEX
8
Layer 1
10
38.718916
20
30.546786
70
0
0
VERTEX
8
Layer 1
10
38.491845
20
30.141328
70
0
0
VERTEX
8
Layer 1
10
38.437227
20
29.679837
70
0
0
VERTEX
8
Layer 1
10
38.563379
20
29.232576
70
0
0
VERTEX
8
Layer 1
10
38.851071
20
28.867623
70
0
0
VERTEX
8
Layer 1
10
39.256528
20
28.640552
70
0
0
VERTEX
8
Layer 1
10
39.718020
20
28.585934
70
0
0
VERTEX
8
Layer 1
10
40.165281
20
28.712086
70
0
0
VERTEX
8
Layer 1
10
44.272595
20
30.804868
70
0
0
SEQEND
8
Layer 1
0
POLYLINE
8
Layer 1
62
7
70
0
10
0.000000
20
0.000000
66
1
0
VERTEX
8
Layer 1
10
59.510345
20
25.529752
70
0
0
VERTEX
8
Layer 1
10
59.682477
20
25.961378
70
0
0
VERTEX
8
Layer 1
10
59.676334
20
26.426020
70
0
0
VERTEX
8
Layer 1
10
54.724001
20
49.724913
70
0
0
VERTEX
8
Layer 1
10
54.536067
20
50.158896
70
0
0
VERTEX
8
Layer 1
10
54.207703
20
50.476116
70
0
0
VERTEX
8
Layer 1
10
53.784349
20
50.647062
70
0
0
VERTEX
8
Layer 1
10
53.311446
20
50.642226
70
0
0
VERTEX
8
Layer 1
10
52.877463
20
50.454293
70
0
0
VERTEX
8
Layer 1
10
52.560244
20
50.125929
70
0
0
VERTEX
8
Layer 1
10
52.389297
20
49.702575
70
0
0
VERTEX
8
Layer 1
10
52.394133
20
49.229673
70
0
0
VERTEX
8
Layer 1
10
57.346466
20
25.930780
70
0
0
VERTEX
8
Layer 1
10
57.534399
20
25.496796
70
0
0
VERTEX
8
Layer 1
10
57.862763
20
25.179577
70
0
0
VERTEX
8
Layer 1
10
58.286117
20
25.008630
70
0
0
VERTEX
8
Layer 1
10
58.759020
20
25.013466
70
0
0
VERTEX
8
Layer 1
10
59.186036
20
25.196878
70
0
0
VERTEX
8
Layer 1
10
59.510345
20
25.529752
70
0
0
VERTEX
8
Layer 1
10
59.510345
20
25.529752
70
0
0
SEQEND
8
Layer 1
0
POLYLINE
8
Layer 1
62
7
70
0
10
0.000000
20
0.000000
66
1
0
VERTEX
8
Layer 1
10
58.343605
20
31.411457
70
0
0
VERTEX
8
Layer 1
10
58.515835
20
31.843061
70
0
0
VERTEX
8
Layer 1
10
58.509784
20
32.307720
70
0
0
VERTEX
8
Layer 1
10
58.326375
20
32.734694
70
0
0
VERTEX
8
Layer 1
10
57.993530
20
33.058976
70
0
0
VERTEX
8
Layer 1
10
57.521454
20
33.220790
70
0
0
VERTEX
8
Layer 1
10
57.024522
20
33.174981
70
0
0
VERTEX
8
Layer 1
10
56.551639
20
33.014774
70
0
0
VERTEX
8
Layer 1
10
56.185980
20
32.674805
70
0
0
VERTEX
8
Layer 1
10
56.013764
20
32.243152
70
0
0
VERTEX
8
Layer 1
10
56.019862
20
31.778452
70
0
0
VERTEX
8
Layer 1
10
56.203346
20
31.351466
70
0
0
VERTEX
8
Layer 1
10
56.536276
20
31.027212
70
0
0
VERTEX
8
Layer 1
10
57.631916
20
30.315595
70
0
0
VERTEX
8
Layer 1
10
58.343605
20
31.411457
70
0
0
SEQEND
8
Layer 1
0
POLYLINE
8
Layer 1
62
7
70
0
10
0.000000
20
0.000000
66
1
0
VERTEX
8
Layer 1
10
63.034036
20
41.962948
70
0
0
VERTEX
8
Layer 1
10
63.206266
20
42.394553
70
0
0
VERTEX
8
Layer 1
10
63.200216
20
42.859213
70
0
0
VERTEX
8
Layer 1
10
63.016806
20
43.286187
70
0
0
VERTEX
8
Layer 1
10
62.683960
20
43.610469
70
0
0
VERTEX
8
Layer 1
10
62.252356
20
43.782699
70
0
0
VERTEX
8
Layer 1
10
61.787696
20
43.776649
70
0
0
VERTEX
8
Layer 1
10
61.360723
20
43.593239
70
0
0
VERTEX
8
Layer 1
10
61.036440
20
43.260394
70
0
0
VERTEX
8
Layer 1
10
56.398468
20
36.118451
70
0
0
VERTEX
8
Layer 1
10
49.256746
20
40.756352
70
0
0
VERTEX
8
Layer 1
10
48.825141
20
40.928582
70
0
0
VERTEX
8
Layer 1
10
48.360482
20
40.922531
70
0
0
VERTEX
8
Layer 1
10
47.933509
20
40.739122
70
0
0
VERTEX
8
Layer 1
10
47.609226
20
40.406277
70
0
0
VERTEX
8
Layer 1
10
47.437010
20
39.974623
70
0
0
VERTEX
8
Layer 1
10
47.443108
20
39.509924
70
0
0
VERTEX
8
Layer 1
10
47.626592
20
39.082938
70
0
0
VERTEX
8
Layer 1
10
47.959522
20
38.758684
70
0
0
VERTEX
8
Layer 1
10
57.098912
20
32.823559
70
0
0
VERTEX
8
Layer 1
10
63.034036
20
41.962948
70
0
0
SEQEND
8
Layer 1
0
POLYLINE
8
Layer 1
62
7
70
0
10
0.000000
20
0.000000
66
1
0
VERTEX
8
Layer 1
10
57.909361
20
44.688809
70
0
0
VERTEX
8
Layer 1
10
58.081577
20
45.120462
70
0
0
VERTEX
8
Layer 1
10
58.075478
20
45.585161
70
0
0
VERTEX
8
Layer 1
10
57.891995
20
46.012147
70
0
0
VERTEX
8
Layer 1
10
57.559065
20
46.336400
70
0
0
VERTEX
8
Layer 1
10
57.127412
20
46.508616
70
0
0
VERTEX
8
Layer 1
10
56.662712
20
46.502518
70
0
0
VERTEX
8
Layer 1
10
56.235727
20
46.319035
70
0
0
VERTEX
8
Layer 1
10
55.911473
20
45.986105
70
0
0
VERTEX
8
Layer 1
10
54.698304
20
44.117658
70
0
0
VERTEX
8
Layer 1
10
52.829930
20
45.331049
70
0
0
VERTEX
8
Layer 1
10
52.398325
20
45.503279
70
0
0
VERTEX
8
Layer 1
10
51.933665
20
45.497229
70
0
0
VERTEX
8
Layer 1
10
51.506691
20
45.313819
70
0
0
VERTEX
8
Layer 1
10
51.182409
20
44.980973
70
0
0
VERTEX
8
Layer 1
10
51.010193
20
44.549320
70
0
0
VERTEX
8
Layer 1
10
51.016292
20
44.084620
70
0
0
VERTEX
8
Layer 1
10
51.199776
20
43.657635
70
0
0
VERTEX
8
Layer 1
10
51.532706
20
43.333381
70
0
0
VERTEX
8
Layer 1
10
55.398526
20
40.822839
70
0
0
VERTEX
8
Layer 1
10
57.909361
20
44.688809
70
0
0
SEQEND
8
Layer 1
0
POLYLINE
8
Layer 1
62
7
70
0
10
0.000000
20
0.000000
66
1
0
VERTEX
8
Layer 1
10
77.402096
20
42.054295
70
0
0
VERTEX
8
Layer 1
10
77.335382
20
42.514220
70
0
0
VERTEX
8
Layer 1
10
77.097726
20
42.913596
70
0
0
VERTEX
8
Layer 1
10
76.717982
20
43.195474
70
0
0
VERTEX
8
Layer 1
10
76.275002
20
43.306016
70
0
0
VERTEX
8
Layer 1
10
75.822893
20
43.242388
70
0
0
VERTEX
8
Layer 1
10
75.415763
20
43.001753
70
0
0
VERTEX
8
Layer 1
10
57.714496
20
27.063460
70
0
0
VERTEX
8
Layer 1
10
57.432618
20
26.683716
70
0
0
VERTEX
8
Layer 1
10
57.322076
20
26.240735
70
0
0
VERTEX
8
Layer 1
10
57.385705
20
25.788626
70
0
0
VERTEX
8
Layer 1
10
57.626340
20
25.381496
70
0
0
VERTEX
8
Layer 1
10
58.006084
20
25.099618
70
0
0
VERTEX
8
Layer 1
10
58.449065
20
24.989076
70
0
0
VERTEX
8
Layer 1
10
58.901174
20
25.052705
70
0
0
VERTEX
8
Layer 1
10
59.308304
20
25.293340
70
0
0
VERTEX
8
Layer 1
10
77.009571
20
41.231633
70
0
0
VERTEX
8
Layer 1
10
77.287650
20
41.603926
70
0
0
VERTEX
8
Layer 1
10
77.402096
20
42.054295
70
0
0
VERTEX
8
Layer 1
10
77.402096
20
42.054295
70
0
0
SEQEND
8
Layer 1
0
POLYLINE
8
Layer 1
62
7
70
0
10
0.000000
20
0.000000
66
1
0
VERTEX
8
Layer 1
10
64.211195
20
30.067255
70
0
0
VERTEX
8
Layer 1
10
64.115200
20
30.557224
70
0
0
VERTEX
8
Layer 1
10
63.826796
20
30.964788
70
0
0
VERTEX
8
Layer 1
10
63.451696
20
31.293938
70
0
0
VERTEX
8
Layer 1
10
62.974667
20
31.440507
70
0
0
VERTEX
8
Layer 1
10
62.514781
20
31.373798
70
0
0
VERTEX
8
Layer 1
10
62.115431
20
31.136175
70
0
0
VERTEX
8
Layer 1
10
61.837416
20
30.763814
70
0
0
VERTEX
8
Layer 1
10
61.723062
20
30.313404
70
0
0
VERTEX
8
Layer 1
10
61.654700
20
29.008514
70
0
0
VERTEX
8
Layer 1
10
62.959369
20
28.940223
70
0
0
VERTEX
8
Layer 1
10
63.419307
20
29.006859
70
0
0
VERTEX
8
Layer 1
10
63.818724
20
29.244448
70
0
0
VERTEX
8
Layer 1
10
64.096801
20
29.616814
70
0
0
VERTEX
8
Layer 1
10
64.211195
20
30.067255
70
0
0
VERTEX
8
Layer 1
10
64.211195
20
30.067255
70
0
0
SEQEND
8
Layer 1
0
POLYLINE
8
Layer 1
62
7
70
0
10
0.000000
20
0.000000
66
1
0
VERTEX
8
Layer 1
10
75.694380
20
31.280858
70
0
0
VERTEX
8
Layer 1
10
75.627671
20
31.740744
70
0
0
VERTEX
8
Layer 1
10
75.390048
20
32.140094
70
0
0
VERTEX
8
Layer 1
10
75.017687
20
32.418109
70
0
0
VERTEX
8
Layer 1
10
74.567278
20
32.532463
70
0
0
VERTEX
8
Layer 1
10
66.063413
20
32.978120
70
0
0
VERTEX
8
Layer 1
10
66.509142
20
41.482206
70
0
0
VERTEX
8
Layer 1
10
66.442434
20
41.942092
70
0
0
VERTEX
8
Layer 1
10
66.204811
20
42.341441
70
0
0
VERTEX
8
Layer 1
10
65.832449
20
42.619456
70
0
0
VERTEX
8
Layer 1
10
65.382040
20
42.733810
70
0
0
VERTEX
8
Layer 1
10
64.922153
20
42.667102
70
0
0
VERTEX
8
Layer 1
10
64.522803
20
42.429478
70
0
0
VERTEX
8
Layer 1
10
64.244788
20
42.057117
70
0
0
VERTEX
8
Layer 1
10
64.130434
20
41.606707
70
0
0
VERTEX
8
Layer 1
10
63.560054
20
30.724207
70
0
0
VERTEX
8
Layer 1
10
74.442554
20
30.153826
70
0
0
VERTEX
8
Layer 1
10
74.902492
20
30.220462
70
0
0
VERTEX
8
Layer 1
10
75.301909
20
30.458052
70
0
0
VERTEX
8
Layer 1
10
75.579986
20
30.830417
70
0
0
VERTEX
8
Layer 1
10
75.694380
20
31.280858
70
0
0
VERTEX
8
Layer 1
10
75.694380
20
31.280858
70
0
0
SEQEND
8
Layer 1
0
POLYLINE
8
Layer 1
62
7
70
0
10
0.000000
20
0.000000
66
1
0
VERTEX
8
Layer 1
10
75.492553
20
37.082129
70
0
0
VERTEX
8
Layer 1
10
75.425845
20
37.542016
70
0
0
VERTEX
8
Layer 1
10
75.188221
20
37.941366
70
0
0
VERTEX
8
Layer 1
10
74.815860
20
38.219382
70
0
0
VERTEX
8
Layer 1
10
74.365450
20
38.333735
70
0
0
VERTEX
8
Layer 1
10
72.140690
20
38.450284
70
0
0
VERTEX
8
Layer 1
10
72.257461
20
40.674972
70
0
0
VERTEX
8
Layer 1
10
72.190825
20
41.134909
70
0
0
VERTEX
8
Layer 1
10
71.953236
20
41.534327
70
0
0
VERTEX
8
Layer 1
10
71.580870
20
41.812404
70
0
0
VERTEX
8
Layer 1
10
71.130429
20
41.926797
70
0
0
VERTEX
8
Layer 1
10
70.670492
20
41.860162
70
0
0
VERTEX
8
Layer 1
10
70.271075
20
41.622572
70
0
0
VERTEX
8
Layer 1
10
69.992998
20
41.250207
70
0
0
VERTEX
8
Layer 1
10
69.878604
20
40.799767
70
0
0
VERTEX
8
Layer 1
10
69.637553
20
36.196299
70
0
0
VERTEX
8
Layer 1
10
74.240727
20
35.955099
70
0
0
VERTEX
8
Layer 1
10
74.700664
20
36.021734
70
0
0
VERTEX
8
Layer 1
10
75.100081
20
36.259323
70
0
0
VERTEX
8
Layer 1
10
75.378159
20
36.631689
70
0
0
VERTEX
8
Layer 1
10
75.492553
20
37.082129
70
0
0
VERTEX
8
Layer 1
10
75.492553
20
37.082129
70
0
0
SEQEND
8
Layer 1
0
POLYLINE
8
Layer 1
62
7
70
1
10
0.000000
20
0.000000
66
1
0
VERTEX
8
Layer 1
10
82.297680
20
18.449770
70
0
0
VERTEX
8
Layer 1
10
82.351922
20
18.919582
70
0
0
VERTEX
8
Layer 1
10
82.226162
20
19.358489
70
0
0
VERTEX
8
Layer 1
10
81.944999
20
19.718215
70
0
0
VERTEX
8
Layer 1
10
81.533030
20
19.950480
70
0
0
VERTEX
8
Layer 1
10
58.879430
20
27.311080
70
0
0
VERTEX
8
Layer 1
10
58.417958
20
27.365699
70
0
0
VERTEX
8
Layer 1
10
57.970711
20
27.239562
70
0
0
VERTEX
8
Layer 1
10
57.605779
20
26.951873
70
0
0
VERTEX
8
Layer 1
10
57.378720
20
26.546430
70
0
0
VERTEX
8
Layer 1
10
57.324101
20
26.084958
70
0
0
VERTEX
8
Layer 1
10
57.450238
20
25.637711
70
0
0
VERTEX
8
Layer 1
10
57.737927
20
25.272779
70
0
0
VERTEX
8
Layer 1
10
58.143370
20
25.045720
70
0
0
VERTEX
8
Layer 1
10
80.796970
20
17.685120
70
0
0
VERTEX
8
Layer 1
10
81.258442
20
17.630501
70
0
0
VERTEX
8
Layer 1
10
81.705689
20
17.756638
70
0
0
VERTEX
8
Layer 1
10
82.070621
20
18.044327
70
0
0
VERTEX
8
Layer 1
10
82.297680
20
18.449770
70
0
0
VERTEX
8
Layer 1
10
82.297680
20
18.449770
70
0
0
SEQEND
8
Layer 1
0
POLYLINE
8
Layer 1
62
7
70
0
10
0.000000
20
0.000000
66
1
0
VERTEX
8
Layer 1
10
65.371718
20
24.035441
70
0
0
VERTEX
8
Layer 1
10
65.426269
20
24.496895
70
0
0
VERTEX
8
Layer 1
10
65.300086
20
24.944102
70
0
0
VERTEX
8
Layer 1
10
65.012395
20
25.309055
70
0
0
VERTEX
8
Layer 1
10
64.606937
20
25.536126
70
0
0
VERTEX
8
Layer 1
10
64.145446
20
25.590744
70
0
0
VERTEX
8
Layer 1
10
63.698185
20
25.464591
70
0
0
VERTEX
8
Layer 1
10
62.533962
20
24.871390
70
0
0
VERTEX
8
Layer 1
10
63.127163
20
23.707168
70
0
0
VERTEX
8
Layer 1
10
63.414855
20
23.342215
70
0
0
VERTEX
8
Layer 1
10
63.820313
20
23.115144
70
0
0
VERTEX
8
Layer 1
10
64.281804
20
23.060527
70
0
0
VERTEX
8
Layer 1
10
64.729065
20
23.186679
70
0
0
VERTEX
8
Layer 1
10
65.105322
20
23.514678
70
0
0
VERTEX
8
Layer 1
10
65.314116
20
23.968064
70
0
0
VERTEX
8
Layer 1
10
65.371718
20
24.035441
70
0
0
VERTEX
8
Layer 1
10
65.371718
20
24.035441
70
0
0
SEQEND
8
Layer 1
0
POLYLINE
8
Layer 1
62
7
70
0
10
0.000000
20
0.000000
66
1
0
VERTEX
8
Layer 1
10
76.355624
20
27.597344
70
0
0
VERTEX
8
Layer 1
10
76.410269
20
28.058740
70
0
0
VERTEX
8
Layer 1
10
76.284214
20
28.505933
70
0
0
VERTEX
8
Layer 1
10
75.996522
20
28.870886
70
0
0
VERTEX
8
Layer 1
10
75.591065
20
29.097957
70
0
0
VERTEX
8
Layer 1
10
75.129574
20
29.152575
70
0
0
VERTEX
8
Layer 1
10
74.682312
20
29.026423
70
0
0
VERTEX
8
Layer 1
10
64.972543
20
24.079048
70
0
0
VERTEX
8
Layer 1
10
69.919918
20
14.369278
70
0
0
VERTEX
8
Layer 1
10
70.207610
20
14.004325
70
0
0
VERTEX
8
Layer 1
10
70.613067
20
13.777254
70
0
0
VERTEX
8
Layer 1
10
71.074558
20
13.722637
70
0
0
VERTEX
8
Layer 1
10
71.521820
20
13.848789
70
0
0
VERTEX
8
Layer 1
10
71.886773
20
14.136481
70
0
0
VERTEX
8
Layer 1
10
72.113844
20
14.541938
70
0
0
VERTEX
8
Layer 1
10
72.168461
20
15.003429
70
0
0
VERTEX
8
Layer 1
10
72.042309
20
15.450691
70
0
0
VERTEX
8
Layer 1
10
68.176125
20
23.038141
70
0
0
VERTEX
8
Layer 1
10
75.763725
20
26.904031
70
0
0
VERTEX
8
Layer 1
10
76.128635
20
27.191814
70
0
0
VERTEX
8
Layer 1
10
76.355624
20
27.597344
70
0
0
VERTEX
8
Layer 1
10
76.355624
20
27.597344
70
0
0
SEQEND
8
Layer 1
0
POLYLINE
8
Layer 1
62
7
70
0
10
0.000000
20
0.000000
66
1
0
VERTEX
8
Layer 1
10
78.530760
20
22.215414
70
0
0
VERTEX
8
Layer 1
10
78.585485
20
22.676915
70
0
0
VERTEX
8
Layer 1
10
78.459421
20
23.124224
70
0
0
VERTEX
8
Layer 1
10
78.171729
20
23.489177
70
0
0
VERTEX
8
Layer 1
10
77.766272
20
23.716248
70
0
0
VERTEX
8
Layer 1
10
77.304781
20
23.770865
70
0
0
VERTEX
8
Layer 1
10
76.857520
20
23.644713
70
0
0
VERTEX
8
Layer 1
10
72.750205
20
21.551932
70
0
0
VERTEX
8
Layer 1
10
74.842987
20
17.444618
70
0
0
VERTEX
8
Layer 1
10
75.130679
20
17.079665
70
0
0
VERTEX
8
Layer 1
10
75.536136
20
16.852594
70
0
0
VERTEX
8
Layer 1
10
75.997627
20
16.797977
70
0
0
VERTEX
8
Layer 1
10
76.444888
20
16.924129
70
0
0
VERTEX
8
Layer 1
10
76.809841
20
17.211821
70
0
0
VERTEX
8
Layer 1
10
77.036912
20
17.617278
70
0
0
VERTEX
8
Layer 1
10
77.091529
20
18.078769
70
0
0
VERTEX
8
Layer 1
10
76.965377
20
18.526031
70
0
0
VERTEX
8
Layer 1
10
75.953787
20
20.511025
70
0
0
VERTEX
8
Layer 1
10
77.938931
20
21.522323
70
0
0
VERTEX
8
Layer 1
10
78.303766
20
21.810017
70
0
0
VERTEX
8
Layer 1
10
78.530760
20
22.215414
70
0
0
VERTEX
8
Layer 1
10
78.530760
20
22.215414
70
0
0
SEQEND
8
Layer 1
0
POLYLINE
8
Layer 1
62
7
70
0
10
0.000000
20
0.000000
66
1
0
VERTEX
8
Layer 1
10
64.462678
20
2.230859
70
0
0
VERTEX
8
Layer 1
10
64.634810
20
2.662485
70
0
0
VERTEX
8
Layer 1
10
64.628667
20
3.127127
70
0
0
VERTEX
8
Layer 1
10
59.676334
20
26.426020
70
0
0
VERTEX
8
Layer 1
10
59.488401
20
26.860004
70
0
0
VERTEX
8
Layer 1
10
59.160037
20
27.177223
70
0
0
VERTEX
8
Layer 1
10
58.736683
20
27.348170
70
0
0
VERTEX
8
Layer 1
10
58.263780
20
27.343334
70
0
0
VERTEX
8
Layer 1
10
57.829796
20
27.155401
70
0
0
VERTEX
8
Layer 1
10
57.512577
20
26.827037
70
0
0
VERTEX
8
Layer 1
10
57.341630
20
26.403683
70
0
0
VERTEX
8
Layer 1
10
57.346466
20
25.930780
70
0
0
VERTEX
8
Layer 1
10
62.298799
20
2.631887
70
0
0
VERTEX
8
Layer 1
10
62.486733
20
2.197904
70
0
0
VERTEX
8
Layer 1
10
62.815097
20
1.880684
70
0
0
VERTEX
8
Layer 1
10
63.238451
20
1.709738
70
0
0
VERTEX
8
Layer 1
10
63.711354
20
1.714574
70
0
0
VERTEX
8
Layer 1
10
64.138369
20
1.897985
70
0
0
VERTEX
8
Layer 1
10
64.462678
20
2.230859
70
0
0
VERTEX
8
Layer 1
10
64.462678
20
2.230859
70
0
0
SEQEND
8
Layer 1
0
POLYLINE
8
Layer 1
62
7
70
0
10
0.000000
20
0.000000
66
1
0
VERTEX
8
Layer 1
10
60.836820
20
19.681995
70
0
0
VERTEX
8
Layer 1
10
61.009036
20
20.113648
70
0
0
VERTEX
8
Layer 1
10
61.002938
20
20.578348
70
0
0
VERTEX
8
Layer 1
10
60.819454
20
21.005334
70
0
0
VERTEX
8
Layer 1
10
60.486524
20
21.329588
70
0
0
VERTEX
8
Layer 1
10
59.390884
20
22.041205
70
0
0
VERTEX
8
Layer 1
10
58.679195
20
20.945343
70
0
0
VERTEX
8
Layer 1
10
58.506965
20
20.513739
70
0
0
VERTEX
8
Layer 1
10
58.513016
20
20.049080
70
0
0
VERTEX
8
Layer 1
10
58.696425
20
19.622106
70
0
0
VERTEX
8
Layer 1
10
59.029270
20
19.297824
70
0
0
VERTEX
8
Layer 1
10
59.501346
20
19.136010
70
0
0
VERTEX
8
Layer 1
10
59.998278
20
19.181819
70
0
0
VERTEX
8
Layer 1
10
60.471161
20
19.342026
70
0
0
VERTEX
8
Layer 1
10
60.836820
20
19.681995
70
0
0
VERTEX
8
Layer 1
10
60.836820
20
19.681995
70
0
0
SEQEND
8
Layer 1
0
POLYLINE
8
Layer 1
62
7
70
0
10
0.000000
20
0.000000
66
1
0
VERTEX
8
Layer 1
10
69.413574
20
11.950523
70
0
0
VERTEX
8
Layer 1
10
69.585790
20
12.382177
70
0
0
VERTEX
8
Layer 1
10
69.579692
20
12.846876
70
0
0
VERTEX
8
Layer 1
10
69.396208
20
13.273862
70
0
0
VERTEX
8
Layer 1
10
69.063278
20
13.598116
70
0
0
VERTEX
8
Layer 1
10
59.923888
20
19.533241
70
0
0
VERTEX
8
Layer 1
10
53.988764
20
10.393852
70
0
0
VERTEX
8
Layer 1
10
53.816534
20
9.962247
70
0
0
VERTEX
8
Layer 1
10
53.822584
20
9.497587
70
0
0
VERTEX
8
Layer 1
10
54.005994
20
9.070613
70
0
0
VERTEX
8
Layer 1
10
54.338840
20
8.746331
70
0
0
VERTEX
8
Layer 1
10
54.770444
20
8.574101
70
0
0
VERTEX
8
Layer 1
10
55.235104
20
8.580151
70
0
0
VERTEX
8
Layer 1
10
55.662077
20
8.763561
70
0
0
VERTEX
8
Layer 1
10
55.986360
20
9.096406
70
0
0
VERTEX
8
Layer 1
10
60.624332
20
16.238349
70
0
0
VERTEX
8
Layer 1
10
67.766054
20
11.600448
70
0
0
VERTEX
8
Layer 1
10
68.197659
20
11.428218
70
0
0
VERTEX
8
Layer 1
10
68.662318
20
11.434269
70
0
0
VERTEX
8
Layer 1
10
69.089291
20
11.617678
70
0
0
VERTEX
8
Layer 1
10
69.413574
20
11.950523
70
0
0
VERTEX
8
Layer 1
10
69.413574
20
11.950523
70
0
0
SEQEND
8
Layer 1
0
POLYLINE
8
Layer 1
62
7
70
0
10
0.000000
20
0.000000
66
1
0
VERTEX
8
Layer 1
10
65.840391
20
7.375827
70
0
0
VERTEX
8
Layer 1
10
66.012607
20
7.807480
70
0
0
VERTEX
8
Layer 1
10
66.006508
20
8.272180
70
0
0
VERTEX
8
Layer 1
10
65.823024
20
8.699165
70
0
0
VERTEX
8
Layer 1
10
65.490094
20
9.023419
70
0
0
VERTEX
8
Layer 1
10
61.624274
20
11.533961
70
0
0
VERTEX
8
Layer 1
10
59.113439
20
7.667991
70
0
0
VERTEX
8
Layer 1
10
58.941223
20
7.236338
70
0
0
VERTEX
8
Layer 1
10
58.947322
20
6.771639
70
0
0
VERTEX
8
Layer 1
10
59.130805
20
6.344653
70
0
0
VERTEX
8
Layer 1
10
59.463735
20
6.020400
70
0
0
VERTEX
8
Layer 1
10
59.895388
20
5.848184
70
0
0
VERTEX
8
Layer 1
10
60.360088
20
5.854282
70
0
0
VERTEX
8
Layer 1
10
60.787073
20
6.037765
70
0
0
VERTEX
8
Layer 1
10
61.111327
20
6.370695
70
0
0
VERTEX
8
Layer 1
10
62.324496
20
8.239142
70
0
0
VERTEX
8
Layer 1
10
64.192871
20
7.025752
70
0
0
VERTEX
8
Layer 1
10
64.624475
20
6.853522
70
0
0
VERTEX
8
Layer 1
10
65.089135
20
6.859572
70
0
0
VERTEX
8
Layer 1
10
65.516109
20
7.042981
70
0
0
VERTEX
8
Layer 1
10
65.840391
20
7.375827
70
0
0
VERTEX
8
Layer 1
10
65.840391
20
7.375827
70
0
0
SEQEND
8
Layer 1
0
POLYLINE
8
Layer 1
62
7
70
0
10
0.000000
20
0.000000
66
1
0
VERTEX
8
Layer 1
10
59.700829
20
26.116002
70
0
0
VERTEX
8
Layer 1
10
59.634116
20
26.575928
70
0
0
VERTEX
8
Layer 1
10
59.396460
20
26.975304
70
0
0
VERTEX
8
Layer 1
10
59.016716
20
27.257182
70
0
0
VERTEX
8
Layer 1
10
58.573735
20
27.367724
70
0
0
VERTEX
8
Layer 1
10
58.121626
20
27.304095
70
0
0
VERTEX
8
Layer 1
10
57.714496
20
27.063460
70
0
0
VERTEX
8
Layer 1
10
40.013229
20
11.125167
70
0
0
VERTEX
8
Layer 1
10
39.731352
20
10.745423
70
0
0
VERTEX
8
Layer 1
10
39.620810
20
10.302443
70
0
0
VERTEX
8
Layer 1
10
39.684439
20
9.850334
70
0
0
VERTEX
8
Layer 1
10
39.925074
20
9.443204
70
0
0
VERTEX
8
Layer 1
10
40.304818
20
9.161326
70
0
0
VERTEX
8
Layer 1
10
40.747798
20
9.050784
70
0
0
VERTEX
8
Layer 1
10
41.199907
20
9.114412
70
0
0
VERTEX
8
Layer 1
10
41.607037
20
9.355047
70
0
0
VERTEX
8
Layer 1
10
59.308304
20
25.293340
70
0
0
VERTEX
8
Layer 1
10
59.586383
20
25.665633
70
0
0
VERTEX
8
Layer 1
10
59.700829
20
26.116002
70
0
0
VERTEX
8
Layer 1
10
59.700829
20
26.116002
70
0
0
SEQEND
8
Layer 1
0
POLYLINE
8
Layer 1
62
7
70
0
10
0.000000
20
0.000000
66
1
0
VERTEX
8
Layer 1
10
55.299738
20
22.043396
70
0
0
VERTEX
8
Layer 1
10
55.368100
20
23.348286
70
0
0
VERTEX
8
Layer 1
10
54.063431
20
23.416577
70
0
0
VERTEX
8
Layer 1
10
53.603493
20
23.349941
70
0
0
VERTEX
8
Layer 1
10
53.204076
20
23.112352
70
0
0
VERTEX
8
Layer 1
10
52.925999
20
22.739986
70
0
0
VERTEX
8
Layer 1
10
52.811605
20
22.289545
70
0
0
VERTEX
8
Layer 1
10
52.907600
20
21.799576
70
0
0
VERTEX
8
Layer 1
10
53.196004
20
21.392012
70
0
0
VERTEX
8
Layer 1
10
53.571104
20
21.062862
70
0
0
VERTEX
8
Layer 1
10
54.048133
20
20.916293
70
0
0
VERTEX
8
Layer 1
10
54.508019
20
20.983002
70
0
0
VERTEX
8
Layer 1
10
54.907369
20
21.220625
70
0
0
VERTEX
8
Layer 1
10
55.185384
20
21.592986
70
0
0
VERTEX
8
Layer 1
10
55.299738
20
22.043396
70
0
0
VERTEX
8
Layer 1
10
55.299738
20
22.043396
70
0
0
SEQEND
8
Layer 1
0
POLYLINE
8
Layer 1
62
7
70
0
10
0.000000
20
0.000000
66
1
0
VERTEX
8
Layer 1
10
52.892366
20
10.750093
70
0
0
VERTEX
8
Layer 1
10
53.462746
20
21.632593
70
0
0
VERTEX
8
Layer 1
10
42.580246
20
22.202974
70
0
0
VERTEX
8
Layer 1
10
42.120308
20
22.136338
70
0
0
VERTEX
8
Layer 1
10
41.720891
20
21.898748
70
0
0
VERTEX
8
Layer 1
10
41.442814
20
21.526383
70
0
0
VERTEX
8
Layer 1
10
41.328420
20
21.075942
70
0
0
VERTEX
8
Layer 1
10
41.395129
20
20.616056
70
0
0
VERTEX
8
Layer 1
10
41.632752
20
20.216706
70
0
0
VERTEX
8
Layer 1
10
42.005113
20
19.938691
70
0
0
VERTEX
8
Layer 1
10
42.455522
20
19.824337
70
0
0
VERTEX
8
Layer 1
10
50.959387
20
19.378680
70
0
0
VERTEX
8
Layer 1
10
50.513658
20
10.874594
70
0
0
VERTEX
8
Layer 1
10
50.580366
20
10.414708
70
0
0
VERTEX
8
Layer 1
10
50.817989
20
10.015359
70
0
0
VERTEX
8
Layer 1
10
51.190351
20
9.737344
70
0
0
VERTEX
8
Layer 1
10
51.640760
20
9.622990
70
0
0
VERTEX
8
Layer 1
10
52.100647
20
9.689698
70
0
0
VERTEX
8
Layer 1
10
52.499997
20
9.927322
70
0
0
VERTEX
8
Layer 1
10
52.778012
20
10.299683
70
0
0
VERTEX
8
Layer 1
10
52.892366
20
10.750093
70
0
0
VERTEX
8
Layer 1
10
52.892366
20
10.750093
70
0
0
SEQEND
8
Layer 1
0
POLYLINE
8
Layer 1
62
7
70
0
10
0.000000
20
0.000000
66
1
0
VERTEX
8
Layer 1
10
47.144196
20
11.557033
70
0
0
VERTEX
8
Layer 1
10
47.385247
20
16.160501
70
0
0
VERTEX
8
Layer 1
10
42.782073
20
16.401701
70
0
0
VERTEX
8
Layer 1
10
42.322136
20
16.335066
70
0
0
VERTEX
8
Layer 1
10
41.922719
20
16.097477
70
0
0
VERTEX
8
Layer 1
10
41.644641
20
15.725111
70
0
0
VERTEX
8
Layer 1
10
41.530247
20
15.274671
70
0
0
VERTEX
8
Layer 1
10
41.596956
20
14.814784
70
0
0
VERTEX
8
Layer 1
10
41.834579
20
14.415434
70
0
0
VERTEX
8
Layer 1
10
42.206941
20
14.137419
70
0
0
VERTEX
8
Layer 1
10
42.657350
20
14.023066
70
0
0
VERTEX
8
Layer 1
10
44.882110
20
13.906516
70
0
0
VERTEX
8
Layer 1
10
44.765339
20
11.681828
70
0
0
VERTEX
8
Layer 1
10
44.831975
20
11.221891
70
0
0
VERTEX
8
Layer 1
10
45.069564
20
10.822473
70
0
0
VERTEX
8
Layer 1
10
45.441930
20
10.544396
70
0
0
VERTEX
8
Layer 1
10
45.892371
20
10.430003
70
0
0
VERTEX
8
Layer 1
10
46.352308
20
10.496638
70
0
0
VERTEX
8
Layer 1
10
46.751725
20
10.734228
70
0
0
VERTEX
8
Layer 1
10
47.029802
20
11.106593
70
0
0
VERTEX
8
Layer 1
10
47.144196
20
11.557033
70
0
0
VERTEX
8
Layer 1
10
47.144196
20
11.557033
70
0
0
SEQEND
8
Layer 1
 0 
ENDSEC
 0 
EOF