999
"DXF R12 Output" (www.mydxf.blogspot.com)
 0 
SECTION
 2 
HEADER
 9 
$ACADVER
 1 
AC1009
 9 
$EXTMIN
 10 
 0 
 20 
 0 
 9 
$EXTMAX
 10 
 8.5 
 20 
 11 
 0 
ENDSEC
 0 
SECTION
 2 
ENTITIES
0
POLYLINE
8
Layer 1
62
7
70
0
10
0.000000
20
0.000000
66
1
0
VERTEX
8
Layer 1
10
22.477903
20
102.645631
70
0
0
VERTEX
8
Layer 1
10
22.986229
20
103.064663
70
0
0
VERTEX
8
Layer 1
10
23.049369
20
103.720403
70
0
0
VERTEX
8
Layer 1
10
18.016309
20
120.182783
70
0
0
VERTEX
8
Layer 1
10
17.597277
20
120.691109
70
0
0
VERTEX
8
Layer 1
10
16.941537
20
120.754249
70
0
0
VERTEX
8
Layer 1
10
16.433211
20
120.335217
70
0
0
VERTEX
8
Layer 1
10
16.370071
20
119.679477
70
0
0
VERTEX
8
Layer 1
10
21.403131
20
103.217097
70
0
0
VERTEX
8
Layer 1
10
21.822163
20
102.708771
70
0
0
VERTEX
8
Layer 1
10
22.477903
20
102.645631
70
0
0
VERTEX
8
Layer 1
10
22.477903
20
102.645631
70
0
0
SEQEND
8
Layer 1
0
POLYLINE
8
Layer 1
62
7
70
0
10
0.000000
20
0.000000
66
1
0
VERTEX
8
Layer 1
10
21.414522
20
106.123791
70
0
0
VERTEX
8
Layer 1
10
22.230472
20
107.658119
70
0
0
VERTEX
8
Layer 1
10
22.293625
20
108.313884
70
0
0
VERTEX
8
Layer 1
10
21.874570
20
108.822222
70
0
0
VERTEX
8
Layer 1
10
21.218806
20
108.885375
70
0
0
VERTEX
8
Layer 1
10
20.710468
20
108.466320
70
0
0
VERTEX
8
Layer 1
10
20.702766
20
108.451835
70
0
0
VERTEX
8
Layer 1
10
20.688282
20
108.459537
70
0
0
VERTEX
8
Layer 1
10
20.032518
20
108.522690
70
0
0
VERTEX
8
Layer 1
10
19.524180
20
108.103635
70
0
0
VERTEX
8
Layer 1
10
19.461027
20
107.447870
70
0
0
VERTEX
8
Layer 1
10
19.880082
20
106.939532
70
0
0
VERTEX
8
Layer 1
10
21.414522
20
106.123791
70
0
0
SEQEND
8
Layer 1
0
POLYLINE
8
Layer 1
62
7
70
0
10
0.000000
20
0.000000
66
1
0
VERTEX
8
Layer 1
10
20.294862
20
109.786028
70
0
0
VERTEX
8
Layer 1
10
21.740158
20
112.504235
70
0
0
VERTEX
8
Layer 1
10
21.803311
20
113.159999
70
0
0
VERTEX
8
Layer 1
10
21.384256
20
113.668338
70
0
0
VERTEX
8
Layer 1
10
20.728492
20
113.731491
70
0
0
VERTEX
8
Layer 1
10
20.220153
20
113.312435
70
0
0
VERTEX
8
Layer 1
10
19.583107
20
112.114072
70
0
0
VERTEX
8
Layer 1
10
18.384855
20
112.751328
70
0
0
VERTEX
8
Layer 1
10
17.729091
20
112.814481
70
0
0
VERTEX
8
Layer 1
10
17.220752
20
112.395425
70
0
0
VERTEX
8
Layer 1
10
17.157599
20
111.739661
70
0
0
VERTEX
8
Layer 1
10
17.576655
20
111.231323
70
0
0
VERTEX
8
Layer 1
10
20.294862
20
109.786028
70
0
0
SEQEND
8
Layer 1
0
POLYLINE
8
Layer 1
62
7
70
0
10
0.000000
20
0.000000
66
1
0
VERTEX
8
Layer 1
10
19.573916
20
112.144135
70
0
0
VERTEX
8
Layer 1
10
23.459438
20
119.451745
70
0
0
VERTEX
8
Layer 1
10
23.522592
20
120.107509
70
0
0
VERTEX
8
Layer 1
10
23.103536
20
120.615847
70
0
0
VERTEX
8
Layer 1
10
22.447772
20
120.679000
70
0
0
VERTEX
8
Layer 1
10
21.939434
20
120.259945
70
0
0
VERTEX
8
Layer 1
10
18.862111
20
114.472340
70
0
0
VERTEX
8
Layer 1
10
13.074506
20
117.549662
70
0
0
VERTEX
8
Layer 1
10
12.418742
20
117.612815
70
0
0
VERTEX
8
Layer 1
10
11.910403
20
117.193760
70
0
0
VERTEX
8
Layer 1
10
11.847250
20
116.537995
70
0
0
VERTEX
8
Layer 1
10
12.266306
20
116.029657
70
0
0
VERTEX
8
Layer 1
10
19.573916
20
112.144135
70
0
0
SEQEND
8
Layer 1
0
POLYLINE
8
Layer 1
62
7
70
0
10
0.000000
20
0.000000
66
1
0
VERTEX
8
Layer 1
10
22.256337
20
102.608479
70
0
0
VERTEX
8
Layer 1
10
22.855745
20
102.881742
70
0
0
VERTEX
8
Layer 1
10
34.596054
20
115.471690
70
0
0
VERTEX
8
Layer 1
10
34.826753
20
116.088741
70
0
0
VERTEX
8
Layer 1
10
34.553566
20
116.688193
70
0
0
VERTEX
8
Layer 1
10
33.936516
20
116.918892
70
0
0
VERTEX
8
Layer 1
10
33.337064
20
116.645706
70
0
0
VERTEX
8
Layer 1
10
21.596755
20
104.055758
70
0
0
VERTEX
8
Layer 1
10
21.366056
20
103.438707
70
0
0
VERTEX
8
Layer 1
10
21.639242
20
102.839255
70
0
0
VERTEX
8
Layer 1
10
22.256337
20
102.608479
70
0
0
VERTEX
8
Layer 1
10
22.256337
20
102.608479
70
0
0
SEQEND
8
Layer 1
0
POLYLINE
8
Layer 1
62
7
70
0
10
0.000000
20
0.000000
66
1
0
VERTEX
8
Layer 1
10
25.856400
20
105.559872
70
0
0
VERTEX
8
Layer 1
10
26.455884
20
105.833022
70
0
0
VERTEX
8
Layer 1
10
26.686632
20
106.450069
70
0
0
VERTEX
8
Layer 1
10
26.413483
20
107.049554
70
0
0
VERTEX
8
Layer 1
10
25.796436
20
107.280302
70
0
0
VERTEX
8
Layer 1
10
25.780096
20
107.279699
70
0
0
VERTEX
8
Layer 1
10
25.779493
20
107.296039
70
0
0
VERTEX
8
Layer 1
10
25.506270
20
107.895551
70
0
0
VERTEX
8
Layer 1
10
24.889135
20
108.126223
70
0
0
VERTEX
8
Layer 1
10
24.289772
20
107.853036
70
0
0
VERTEX
8
Layer 1
10
24.059063
20
107.236076
70
0
0
VERTEX
8
Layer 1
10
24.119676
20
105.499144
70
0
0
VERTEX
8
Layer 1
10
25.856400
20
105.559872
70
0
0
SEQEND
8
Layer 1
0
POLYLINE
8
Layer 1
62
7
70
0
10
0.000000
20
0.000000
66
1
0
VERTEX
8
Layer 1
10
29.808134
20
108.407481
70
0
0
VERTEX
8
Layer 1
10
30.407620
20
108.680629
70
0
0
VERTEX
8
Layer 1
10
30.638368
20
109.297677
70
0
0
VERTEX
8
Layer 1
10
30.365145
20
109.897189
70
0
0
VERTEX
8
Layer 1
10
29.748010
20
110.127862
70
0
0
VERTEX
8
Layer 1
10
28.391846
20
110.080470
70
0
0
VERTEX
8
Layer 1
10
28.344406
20
111.436795
70
0
0
VERTEX
8
Layer 1
10
28.071257
20
112.036281
70
0
0
VERTEX
8
Layer 1
10
27.454209
20
112.267029
70
0
0
VERTEX
8
Layer 1
10
26.854697
20
111.993806
70
0
0
VERTEX
8
Layer 1
10
26.624025
20
111.376671
70
0
0
VERTEX
8
Layer 1
10
26.731428
20
108.299916
70
0
0
VERTEX
8
Layer 1
10
29.808134
20
108.407481
70
0
0
SEQEND
8
Layer 1
0
POLYLINE
8
Layer 1
62
7
70
0
10
0.000000
20
0.000000
66
1
0
VERTEX
8
Layer 1
10
36.684591
20
110.392397
70
0
0
VERTEX
8
Layer 1
10
37.283954
20
110.665584
70
0
0
VERTEX
8
Layer 1
10
37.514663
20
111.282544
70
0
0
VERTEX
8
Layer 1
10
37.241515
20
111.882029
70
0
0
VERTEX
8
Layer 1
10
36.624467
20
112.112778
70
0
0
VERTEX
8
Layer 1
10
30.073527
20
111.884050
70
0
0
VERTEX
8
Layer 1
10
29.844847
20
118.434829
70
0
0
VERTEX
8
Layer 1
10
29.571625
20
119.034341
70
0
0
VERTEX
8
Layer 1
10
28.954490
20
119.265013
70
0
0
VERTEX
8
Layer 1
10
28.355127
20
118.991826
70
0
0
VERTEX
8
Layer 1
10
28.124417
20
118.374865
70
0
0
VERTEX
8
Layer 1
10
28.413270
20
110.103545
70
0
0
VERTEX
8
Layer 1
10
36.684591
20
110.392397
70
0
0
SEQEND
8
Layer 1
0
POLYLINE
8
Layer 1
62
7
70
0
10
0.000000
20
0.000000
66
1
0
VERTEX
8
Layer 1
10
39.455734
20
98.866297
70
0
0
VERTEX
8
Layer 1
10
39.838279
20
99.402694
70
0
0
VERTEX
8
Layer 1
10
39.729552
20
100.052426
70
0
0
VERTEX
8
Layer 1
10
39.193243
20
100.434979
70
0
0
VERTEX
8
Layer 1
10
22.419874
20
104.307411
70
0
0
VERTEX
8
Layer 1
10
21.770142
20
104.198683
70
0
0
VERTEX
8
Layer 1
10
21.387589
20
103.662374
70
0
0
VERTEX
8
Layer 1
10
21.496317
20
103.012642
70
0
0
VERTEX
8
Layer 1
10
22.032626
20
102.630089
70
0
0
VERTEX
8
Layer 1
10
38.805995
20
98.757657
70
0
0
VERTEX
8
Layer 1
10
39.455734
20
98.866297
70
0
0
VERTEX
8
Layer 1
10
39.455734
20
98.866297
70
0
0
SEQEND
8
Layer 1
0
POLYLINE
8
Layer 1
62
7
70
0
10
0.000000
20
0.000000
66
1
0
VERTEX
8
Layer 1
10
27.038312
20
101.096597
70
0
0
VERTEX
8
Layer 1
10
27.420950
20
101.632931
70
0
0
VERTEX
8
Layer 1
10
27.312219
20
102.282733
70
0
0
VERTEX
8
Layer 1
10
27.303582
20
102.296617
70
0
0
VERTEX
8
Layer 1
10
27.317465
20
102.305254
70
0
0
VERTEX
8
Layer 1
10
27.699987
20
102.841602
70
0
0
VERTEX
8
Layer 1
10
27.591210
20
103.491340
70
0
0
VERTEX
8
Layer 1
10
27.054863
20
103.873863
70
0
0
VERTEX
8
Layer 1
10
26.405124
20
103.765086
70
0
0
VERTEX
8
Layer 1
10
24.931360
20
102.844266
70
0
0
VERTEX
8
Layer 1
10
25.852390
20
101.370390
70
0
0
VERTEX
8
Layer 1
10
26.388657
20
100.987918
70
0
0
VERTEX
8
Layer 1
10
27.038316
20
101.096596
70
0
0
VERTEX
8
Layer 1
10
27.038312
20
101.096597
70
0
0
SEQEND
8
Layer 1
0
POLYLINE
8
Layer 1
62
7
70
0
10
0.000000
20
0.000000
66
1
0
VERTEX
8
Layer 1
10
31.480362
20
99.098089
70
0
0
VERTEX
8
Layer 1
10
31.862885
20
99.634437
70
0
0
VERTEX
8
Layer 1
10
31.754108
20
100.284176
70
0
0
VERTEX
8
Layer 1
10
31.034989
20
101.435148
70
0
0
VERTEX
8
Layer 1
10
32.185801
20
102.154217
70
0
0
VERTEX
8
Layer 1
10
32.568438
20
102.690551
70
0
0
VERTEX
8
Layer 1
10
32.459707
20
103.340353
70
0
0
VERTEX
8
Layer 1
10
31.923359
20
103.722876
70
0
0
VERTEX
8
Layer 1
10
31.273620
20
103.614098
70
0
0
VERTEX
8
Layer 1
10
28.662767
20
101.982799
70
0
0
VERTEX
8
Layer 1
10
30.294227
20
99.371995
70
0
0
VERTEX
8
Layer 1
10
30.830561
20
98.989358
70
0
0
VERTEX
8
Layer 1
10
31.480362
20
99.098089
70
0
0
VERTEX
8
Layer 1
10
31.480362
20
99.098089
70
0
0
SEQEND
8
Layer 1
0
POLYLINE
8
Layer 1
62
7
70
0
10
0.000000
20
0.000000
66
1
0
VERTEX
8
Layer 1
10
36.637378
20
94.135447
70
0
0
VERTEX
8
Layer 1
10
37.020015
20
94.671781
70
0
0
VERTEX
8
Layer 1
10
36.911283
20
95.321583
70
0
0
VERTEX
8
Layer 1
10
33.437714
20
100.880298
70
0
0
VERTEX
8
Layer 1
10
38.996591
20
104.353917
70
0
0
VERTEX
8
Layer 1
10
39.379114
20
104.890265
70
0
0
VERTEX
8
Layer 1
10
39.270336
20
105.540003
70
0
0
VERTEX
8
Layer 1
10
38.734069
20
105.922475
70
0
0
VERTEX
8
Layer 1
10
38.084411
20
105.813798
70
0
0
VERTEX
8
Layer 1
10
31.065653
20
101.427999
70
0
0
VERTEX
8
Layer 1
10
35.451452
20
94.409241
70
0
0
VERTEX
8
Layer 1
10
35.987719
20
94.026769
70
0
0
VERTEX
8
Layer 1
10
36.637378
20
94.135447
70
0
0
VERTEX
8
Layer 1
10
36.637378
20
94.135447
70
0
0
SEQEND
8
Layer 1
0
POLYLINE
8
Layer 1
62
7
70
1
10
0.000000
20
0.000000
66
1
0
VERTEX
8
Layer 1
10
27.510963
20
86.183251
70
0
0
VERTEX
8
Layer 1
10
28.019289
20
86.602283
70
0
0
VERTEX
8
Layer 1
10
28.082429
20
87.258023
70
0
0
VERTEX
8
Layer 1
10
23.049369
20
103.720403
70
0
0
VERTEX
8
Layer 1
10
22.630337
20
104.228729
70
0
0
VERTEX
8
Layer 1
10
21.974597
20
104.291869
70
0
0
VERTEX
8
Layer 1
10
21.466271
20
103.872837
70
0
0
VERTEX
8
Layer 1
10
21.403131
20
103.217097
70
0
0
VERTEX
8
Layer 1
10
26.436191
20
86.754717
70
0
0
VERTEX
8
Layer 1
10
26.855223
20
86.246391
70
0
0
VERTEX
8
Layer 1
10
27.510963
20
86.183251
70
0
0
VERTEX
8
Layer 1
10
27.510963
20
86.183251
70
0
0
SEQEND
8
Layer 1
0
POLYLINE
8
Layer 1
62
7
70
0
10
0.000000
20
0.000000
66
1
0
VERTEX
8
Layer 1
10
24.419915
20
98.414741
70
0
0
VERTEX
8
Layer 1
10
24.928320
20
98.833865
70
0
0
VERTEX
8
Layer 1
10
24.991473
20
99.489630
70
0
0
VERTEX
8
Layer 1
10
24.572418
20
99.997968
70
0
0
VERTEX
8
Layer 1
10
23.037978
20
100.813709
70
0
0
VERTEX
8
Layer 1
10
22.222028
20
99.279381
70
0
0
VERTEX
8
Layer 1
10
22.158875
20
98.623616
70
0
0
VERTEX
8
Layer 1
10
22.577930
20
98.115278
70
0
0
VERTEX
8
Layer 1
10
23.233694
20
98.052125
70
0
0
VERTEX
8
Layer 1
10
23.742032
20
98.471180
70
0
0
VERTEX
8
Layer 1
10
23.749734
20
98.485665
70
0
0
VERTEX
8
Layer 1
10
23.764218
20
98.477963
70
0
0
VERTEX
8
Layer 1
10
24.419915
20
98.414741
70
0
0
VERTEX
8
Layer 1
10
24.419915
20
98.414741
70
0
0
SEQEND
8
Layer 1
0
POLYLINE
8
Layer 1
62
7
70
0
10
0.000000
20
0.000000
66
1
0
VERTEX
8
Layer 1
10
26.723454
20
94.123160
70
0
0
VERTEX
8
Layer 1
10
27.231748
20
94.542075
70
0
0
VERTEX
8
Layer 1
10
27.294901
20
95.197839
70
0
0
VERTEX
8
Layer 1
10
26.875845
20
95.706177
70
0
0
VERTEX
8
Layer 1
10
24.157638
20
97.151472
70
0
0
VERTEX
8
Layer 1
10
22.712342
20
94.433265
70
0
0
VERTEX
8
Layer 1
10
22.649189
20
93.777501
70
0
0
VERTEX
8
Layer 1
10
23.068244
20
93.269162
70
0
0
VERTEX
8
Layer 1
10
23.724008
20
93.206009
70
0
0
VERTEX
8
Layer 1
10
24.232347
20
93.625065
70
0
0
VERTEX
8
Layer 1
10
24.869393
20
94.823428
70
0
0
VERTEX
8
Layer 1
10
26.067645
20
94.186172
70
0
0
VERTEX
8
Layer 1
10
26.723454
20
94.123160
70
0
0
VERTEX
8
Layer 1
10
26.723454
20
94.123160
70
0
0
SEQEND
8
Layer 1
0
POLYLINE
8
Layer 1
62
7
70
0
10
0.000000
20
0.000000
66
1
0
VERTEX
8
Layer 1
10
32.033852
20
89.324666
70
0
0
VERTEX
8
Layer 1
10
32.542097
20
89.743740
70
0
0
VERTEX
8
Layer 1
10
32.605250
20
90.399505
70
0
0
VERTEX
8
Layer 1
10
32.186194
20
90.907843
70
0
0
VERTEX
8
Layer 1
10
24.878584
20
94.793365
70
0
0
VERTEX
8
Layer 1
10
20.993062
20
87.485755
70
0
0
VERTEX
8
Layer 1
10
20.929908
20
86.829991
70
0
0
VERTEX
8
Layer 1
10
21.348964
20
86.321653
70
0
0
VERTEX
8
Layer 1
10
22.004728
20
86.258500
70
0
0
VERTEX
8
Layer 1
10
22.513066
20
86.677555
70
0
0
VERTEX
8
Layer 1
10
25.590389
20
92.465160
70
0
0
VERTEX
8
Layer 1
10
31.377994
20
89.387838
70
0
0
VERTEX
8
Layer 1
10
32.033852
20
89.324666
70
0
0
VERTEX
8
Layer 1
10
32.033852
20
89.324666
70
0
0
SEQEND
8
Layer 1
0
POLYLINE
8
Layer 1
62
7
70
0
10
0.000000
20
0.000000
66
1
0
VERTEX
8
Layer 1
10
10.516027
20
90.018531
70
0
0
VERTEX
8
Layer 1
10
11.115436
20
90.291794
70
0
0
VERTEX
8
Layer 1
10
22.855745
20
102.881742
70
0
0
VERTEX
8
Layer 1
10
23.086444
20
103.498793
70
0
0
VERTEX
8
Layer 1
10
22.813258
20
104.098245
70
0
0
VERTEX
8
Layer 1
10
22.196207
20
104.328944
70
0
0
VERTEX
8
Layer 1
10
21.596755
20
104.055758
70
0
0
VERTEX
8
Layer 1
10
9.856446
20
91.465810
70
0
0
VERTEX
8
Layer 1
10
9.625747
20
90.848759
70
0
0
VERTEX
8
Layer 1
10
9.898934
20
90.249307
70
0
0
VERTEX
8
Layer 1
10
10.516027
20
90.018531
70
0
0
VERTEX
8
Layer 1
10
10.516027
20
90.018531
70
0
0
SEQEND
8
Layer 1
0
POLYLINE
8
Layer 1
62
7
70
0
10
0.000000
20
0.000000
66
1
0
VERTEX
8
Layer 1
10
19.563363
20
98.811274
70
0
0
VERTEX
8
Layer 1
10
20.162726
20
99.084460
70
0
0
VERTEX
8
Layer 1
10
20.393436
20
99.701421
70
0
0
VERTEX
8
Layer 1
10
20.332823
20
101.438353
70
0
0
VERTEX
8
Layer 1
10
18.596100
20
101.377628
70
0
0
VERTEX
8
Layer 1
10
17.996616
20
101.104478
70
0
0
VERTEX
8
Layer 1
10
17.765868
20
100.487431
70
0
0
VERTEX
8
Layer 1
10
18.039017
20
99.887946
70
0
0
VERTEX
8
Layer 1
10
18.656064
20
99.657198
70
0
0
VERTEX
8
Layer 1
10
18.672404
20
99.657801
70
0
0
VERTEX
8
Layer 1
10
18.673007
20
99.641461
70
0
0
VERTEX
8
Layer 1
10
18.946230
20
99.041949
70
0
0
VERTEX
8
Layer 1
10
19.563365
20
98.811277
70
0
0
VERTEX
8
Layer 1
10
19.563363
20
98.811274
70
0
0
SEQEND
8
Layer 1
0
POLYLINE
8
Layer 1
62
7
70
0
10
0.000000
20
0.000000
66
1
0
VERTEX
8
Layer 1
10
16.998291
20
94.670471
70
0
0
VERTEX
8
Layer 1
10
17.597802
20
94.943694
70
0
0
VERTEX
8
Layer 1
10
17.828475
20
95.560828
70
0
0
VERTEX
8
Layer 1
10
17.721072
20
98.637584
70
0
0
VERTEX
8
Layer 1
10
14.644366
20
98.530019
70
0
0
VERTEX
8
Layer 1
10
14.044880
20
98.256871
70
0
0
VERTEX
8
Layer 1
10
13.814132
20
97.639823
70
0
0
VERTEX
8
Layer 1
10
14.087355
20
97.040311
70
0
0
VERTEX
8
Layer 1
10
14.704490
20
96.809638
70
0
0
VERTEX
8
Layer 1
10
16.060654
20
96.857029
70
0
0
VERTEX
8
Layer 1
10
16.108094
20
95.500705
70
0
0
VERTEX
8
Layer 1
10
16.381243
20
94.901219
70
0
0
VERTEX
8
Layer 1
10
16.998291
20
94.670471
70
0
0
VERTEX
8
Layer 1
10
16.998291
20
94.670471
70
0
0
SEQEND
8
Layer 1
0
POLYLINE
8
Layer 1
62
7
70
0
10
0.000000
20
0.000000
66
1
0
VERTEX
8
Layer 1
10
15.498010
20
87.672487
70
0
0
VERTEX
8
Layer 1
10
16.097373
20
87.945673
70
0
0
VERTEX
8
Layer 1
10
16.328083
20
88.562634
70
0
0
VERTEX
8
Layer 1
10
16.039230
20
96.833955
70
0
0
VERTEX
8
Layer 1
10
7.767909
20
96.545103
70
0
0
VERTEX
8
Layer 1
10
7.168546
20
96.271916
70
0
0
VERTEX
8
Layer 1
10
6.937837
20
95.654956
70
0
0
VERTEX
8
Layer 1
10
7.210985
20
95.055471
70
0
0
VERTEX
8
Layer 1
10
7.828033
20
94.824722
70
0
0
VERTEX
8
Layer 1
10
14.378973
20
95.053450
70
0
0
VERTEX
8
Layer 1
10
14.607653
20
88.502671
70
0
0
VERTEX
8
Layer 1
10
14.880875
20
87.903159
70
0
0
VERTEX
8
Layer 1
10
15.498010
20
87.672487
70
0
0
VERTEX
8
Layer 1
10
15.498010
20
87.672487
70
0
0
SEQEND
8
Layer 1
0
POLYLINE
8
Layer 1
62
7
70
0
10
0.000000
20
0.000000
66
1
0
VERTEX
8
Layer 1
10
22.682365
20
102.738729
70
0
0
VERTEX
8
Layer 1
10
23.064911
20
103.275126
70
0
0
VERTEX
8
Layer 1
10
22.956183
20
103.924858
70
0
0
VERTEX
8
Layer 1
10
22.419874
20
104.307411
70
0
0
VERTEX
8
Layer 1
10
5.646505
20
108.179843
70
0
0
VERTEX
8
Layer 1
10
4.996773
20
108.071115
70
0
0
VERTEX
8
Layer 1
10
4.614221
20
107.534806
70
0
0
VERTEX
8
Layer 1
10
4.722948
20
106.885074
70
0
0
VERTEX
8
Layer 1
10
5.259257
20
106.502521
70
0
0
VERTEX
8
Layer 1
10
22.032626
20
102.630089
70
0
0
VERTEX
8
Layer 1
10
22.682365
20
102.738729
70
0
0
VERTEX
8
Layer 1
10
22.682365
20
102.738729
70
0
0
SEQEND
8
Layer 1
0
POLYLINE
8
Layer 1
62
7
70
0
10
0.000000
20
0.000000
66
1
0
VERTEX
8
Layer 1
10
18.047379
20
103.172412
70
0
0
VERTEX
8
Layer 1
10
19.521144
20
104.093233
70
0
0
VERTEX
8
Layer 1
10
18.600113
20
105.567108
70
0
0
VERTEX
8
Layer 1
10
18.063846
20
105.949580
70
0
0
VERTEX
8
Layer 1
10
17.414188
20
105.840903
70
0
0
VERTEX
8
Layer 1
10
17.031550
20
105.304569
70
0
0
VERTEX
8
Layer 1
10
17.140281
20
104.654766
70
0
0
VERTEX
8
Layer 1
10
17.148918
20
104.640883
70
0
0
VERTEX
8
Layer 1
10
17.135035
20
104.632246
70
0
0
VERTEX
8
Layer 1
10
16.752513
20
104.095898
70
0
0
VERTEX
8
Layer 1
10
16.861290
20
103.446160
70
0
0
VERTEX
8
Layer 1
10
17.397637
20
103.063637
70
0
0
VERTEX
8
Layer 1
10
18.047376
20
103.172414
70
0
0
VERTEX
8
Layer 1
10
18.047379
20
103.172412
70
0
0
SEQEND
8
Layer 1
0
POLYLINE
8
Layer 1
62
7
70
0
10
0.000000
20
0.000000
66
1
0
VERTEX
8
Layer 1
10
13.178880
20
103.323402
70
0
0
VERTEX
8
Layer 1
10
15.789733
20
104.954701
70
0
0
VERTEX
8
Layer 1
10
14.158273
20
107.565504
70
0
0
VERTEX
8
Layer 1
10
13.621940
20
107.948141
70
0
0
VERTEX
8
Layer 1
10
12.972138
20
107.839411
70
0
0
VERTEX
8
Layer 1
10
12.589615
20
107.303063
70
0
0
VERTEX
8
Layer 1
10
12.698392
20
106.653324
70
0
0
VERTEX
8
Layer 1
10
13.417511
20
105.502351
70
0
0
VERTEX
8
Layer 1
10
12.266699
20
104.783283
70
0
0
VERTEX
8
Layer 1
10
11.884062
20
104.246949
70
0
0
VERTEX
8
Layer 1
10
11.992793
20
103.597147
70
0
0
VERTEX
8
Layer 1
10
12.529141
20
103.214624
70
0
0
VERTEX
8
Layer 1
10
13.178880
20
103.323402
70
0
0
VERTEX
8
Layer 1
10
13.178880
20
103.323402
70
0
0
SEQEND
8
Layer 1
0
POLYLINE
8
Layer 1
62
7
70
0
10
0.000000
20
0.000000
66
1
0
VERTEX
8
Layer 1
10
6.368089
20
101.123702
70
0
0
VERTEX
8
Layer 1
10
13.386847
20
105.509501
70
0
0
VERTEX
8
Layer 1
10
9.001048
20
112.528258
70
0
0
VERTEX
8
Layer 1
10
8.464781
20
112.910731
70
0
0
VERTEX
8
Layer 1
10
7.815122
20
112.802053
70
0
0
VERTEX
8
Layer 1
10
7.432485
20
112.265719
70
0
0
VERTEX
8
Layer 1
10
7.541217
20
111.615917
70
0
0
VERTEX
8
Layer 1
10
11.014786
20
106.057202
70
0
0
VERTEX
8
Layer 1
10
5.455909
20
102.583583
70
0
0
VERTEX
8
Layer 1
10
5.073386
20
102.047235
70
0
0
VERTEX
8
Layer 1
10
5.182164
20
101.397497
70
0
0
VERTEX
8
Layer 1
10
5.718431
20
101.015025
70
0
0
VERTEX
8
Layer 1
10
6.368089
20
101.123702
70
0
0
VERTEX
8
Layer 1
10
6.368089
20
101.123702
70
0
0
SEQEND
8
Layer 1
0
POLYLINE
8
Layer 1
62
7
70
0
10
0.000000
20
0.000000
66
1
0
VERTEX
8
Layer 1
10
64.867713
20
92.850078
70
0
0
VERTEX
8
Layer 1
10
65.283933
20
92.733977
70
0
0
VERTEX
8
Layer 1
10
65.697991
20
92.784733
70
0
0
VERTEX
8
Layer 1
10
66.062805
20
92.987048
70
0
0
VERTEX
8
Layer 1
10
66.331292
20
93.325623
70
0
0
VERTEX
8
Layer 1
10
76.211632
20
112.716863
70
0
0
VERTEX
8
Layer 1
10
76.327733
20
113.133083
70
0
0
VERTEX
8
Layer 1
10
76.276977
20
113.547141
70
0
0
VERTEX
8
Layer 1
10
76.074662
20
113.911955
70
0
0
VERTEX
8
Layer 1
10
75.736087
20
114.180442
70
0
0
VERTEX
8
Layer 1
10
75.319867
20
114.296543
70
0
0
VERTEX
8
Layer 1
10
74.905809
20
114.245787
70
0
0
VERTEX
8
Layer 1
10
74.540995
20
114.043472
70
0
0
VERTEX
8
Layer 1
10
74.272508
20
113.704897
70
0
0
VERTEX
8
Layer 1
10
64.392168
20
94.313657
70
0
0
VERTEX
8
Layer 1
10
64.276919
20
93.905017
70
0
0
VERTEX
8
Layer 1
10
64.326823
20
93.483379
70
0
0
VERTEX
8
Layer 1
10
64.534282
20
93.112934
70
0
0
VERTEX
8
Layer 1
10
64.867713
20
92.850078
70
0
0
VERTEX
8
Layer 1
10
64.867713
20
92.850078
70
0
0
SEQEND
8
Layer 1
0
POLYLINE
8
Layer 1
62
7
70
0
10
0.000000
20
0.000000
66
1
0
VERTEX
8
Layer 1
10
66.707347
20
96.460560
70
0
0
VERTEX
8
Layer 1
10
70.265388
20
97.616636
70
0
0
VERTEX
8
Layer 1
10
70.635853
20
97.824095
70
0
0
VERTEX
8
Layer 1
10
70.898722
20
98.157536
70
0
0
VERTEX
8
Layer 1
10
71.013972
20
98.566194
70
0
0
VERTEX
8
Layer 1
10
70.964056
20
98.987847
70
0
0
VERTEX
8
Layer 1
10
70.751839
20
99.364186
70
0
0
VERTEX
8
Layer 1
10
70.423202
20
99.621038
70
0
0
VERTEX
8
Layer 1
10
70.022236
20
99.735937
70
0
0
VERTEX
8
Layer 1
10
69.593034
20
99.686418
70
0
0
VERTEX
8
Layer 1
10
68.104585
20
99.202792
70
0
0
VERTEX
8
Layer 1
10
67.620961
20
100.691241
70
0
0
VERTEX
8
Layer 1
10
67.408744
20
101.067579
70
0
0
VERTEX
8
Layer 1
10
67.080107
20
101.324432
70
0
0
VERTEX
8
Layer 1
10
66.679141
20
101.439331
70
0
0
VERTEX
8
Layer 1
10
66.249939
20
101.389812
70
0
0
VERTEX
8
Layer 1
10
65.879474
20
101.182353
70
0
0
VERTEX
8
Layer 1
10
65.616605
20
100.848912
70
0
0
VERTEX
8
Layer 1
10
65.501355
20
100.440255
70
0
0
VERTEX
8
Layer 1
10
65.551271
20
100.018601
70
0
0
VERTEX
8
Layer 1
10
66.707347
20
96.460560
70
0
0
SEQEND
8
Layer 1
0
POLYLINE
8
Layer 1
62
7
70
0
10
0.000000
20
0.000000
66
1
0
VERTEX
8
Layer 1
10
68.422609
20
99.826947
70
0
0
VERTEX
8
Layer 1
10
76.453141
20
102.436222
70
0
0
VERTEX
8
Layer 1
10
76.823606
20
102.643680
70
0
0
VERTEX
8
Layer 1
10
77.086474
20
102.977122
70
0
0
VERTEX
8
Layer 1
10
77.201724
20
103.385779
70
0
0
VERTEX
8
Layer 1
10
77.151809
20
103.807433
70
0
0
VERTEX
8
Layer 1
10
76.944350
20
104.177897
70
0
0
VERTEX
8
Layer 1
10
76.610908
20
104.440766
70
0
0
VERTEX
8
Layer 1
10
76.202251
20
104.556016
70
0
0
VERTEX
8
Layer 1
10
75.780598
20
104.506100
70
0
0
VERTEX
8
Layer 1
10
69.819848
20
102.569180
70
0
0
VERTEX
8
Layer 1
10
67.883213
20
108.530023
70
0
0
VERTEX
8
Layer 1
10
67.675754
20
108.900487
70
0
0
VERTEX
8
Layer 1
10
67.342313
20
109.163356
70
0
0
VERTEX
8
Layer 1
10
66.933655
20
109.278606
70
0
0
VERTEX
8
Layer 1
10
66.512002
20
109.228690
70
0
0
VERTEX
8
Layer 1
10
66.141537
20
109.021232
70
0
0
VERTEX
8
Layer 1
10
65.878668
20
108.687790
70
0
0
VERTEX
8
Layer 1
10
65.763419
20
108.279133
70
0
0
VERTEX
8
Layer 1
10
65.813334
20
107.857479
70
0
0
VERTEX
8
Layer 1
10
68.422609
20
99.826947
70
0
0
SEQEND
8
Layer 1
0
POLYLINE
8
Layer 1
62
7
70
0
10
0.000000
20
0.000000
66
1
0
VERTEX
8
Layer 1
10
70.541575
20
103.985649
70
0
0
VERTEX
8
Layer 1
10
80.652562
20
107.270904
70
0
0
VERTEX
8
Layer 1
10
81.023026
20
107.478363
70
0
0
VERTEX
8
Layer 1
10
81.285895
20
107.811804
70
0
0
VERTEX
8
Layer 1
10
81.401145
20
108.220461
70
0
0
VERTEX
8
Layer 1
10
81.351229
20
108.642114
70
0
0
VERTEX
8
Layer 1
10
81.143770
20
109.012578
70
0
0
VERTEX
8
Layer 1
10
80.810329
20
109.275446
70
0
0
VERTEX
8
Layer 1
10
80.401672
20
109.390696
70
0
0
VERTEX
8
Layer 1
10
79.980019
20
109.340781
70
0
0
VERTEX
8
Layer 1
10
71.938814
20
106.727881
70
0
0
VERTEX
8
Layer 1
10
69.326199
20
114.769179
70
0
0
VERTEX
8
Layer 1
10
69.118740
20
115.139643
70
0
0
VERTEX
8
Layer 1
10
68.785299
20
115.402512
70
0
0
VERTEX
8
Layer 1
10
68.376642
20
115.517761
70
0
0
VERTEX
8
Layer 1
10
67.954989
20
115.467846
70
0
0
VERTEX
8
Layer 1
10
67.584524
20
115.260387
70
0
0
VERTEX
8
Layer 1
10
67.321656
20
114.926946
70
0
0
VERTEX
8
Layer 1
10
67.206406
20
114.518289
70
0
0
VERTEX
8
Layer 1
10
67.256322
20
114.096636
70
0
0
VERTEX
8
Layer 1
10
70.541575
20
103.985649
70
0
0
SEQEND
8
Layer 1
0
POLYLINE
8
Layer 1
62
7
70
0
10
0.000000
20
0.000000
66
1
0
VERTEX
8
Layer 1
10
64.633590
20
93.010874
70
0
0
VERTEX
8
Layer 1
10
64.998499
20
92.793844
70
0
0
VERTEX
8
Layer 1
10
65.418684
20
92.732975
70
0
0
VERTEX
8
Layer 1
10
87.152161
20
93.871970
70
0
0
VERTEX
8
Layer 1
10
87.570662
20
93.979537
70
0
0
VERTEX
8
Layer 1
10
87.903864
20
94.230522
70
0
0
VERTEX
8
Layer 1
10
88.118642
20
94.588136
70
0
0
VERTEX
8
Layer 1
10
88.181870
20
95.015589
70
0
0
VERTEX
8
Layer 1
10
88.074303
20
95.434091
70
0
0
VERTEX
8
Layer 1
10
87.823318
20
95.767292
70
0
0
VERTEX
8
Layer 1
10
87.465705
20
95.982070
70
0
0
VERTEX
8
Layer 1
10
87.038252
20
96.045299
70
0
0
VERTEX
8
Layer 1
10
65.304776
20
94.906305
70
0
0
VERTEX
8
Layer 1
10
64.886274
20
94.798738
70
0
0
VERTEX
8
Layer 1
10
64.553072
20
94.547753
70
0
0
VERTEX
8
Layer 1
10
64.338294
20
94.190139
70
0
0
VERTEX
8
Layer 1
10
64.275065
20
93.762686
70
0
0
VERTEX
8
Layer 1
10
64.379548
20
93.351119
70
0
0
VERTEX
8
Layer 1
10
64.633590
20
93.010874
70
0
0
VERTEX
8
Layer 1
10
64.633590
20
93.010874
70
0
0
SEQEND
8
Layer 1
0
POLYLINE
8
Layer 1
62
7
70
0
10
0.000000
20
0.000000
66
1
0
VERTEX
8
Layer 1
10
71.101939
20
91.471382
70
0
0
VERTEX
8
Layer 1
10
71.473893
20
91.251574
70
0
0
VERTEX
8
Layer 1
10
71.886926
20
91.193454
70
0
0
VERTEX
8
Layer 1
10
72.291621
20
91.294431
70
0
0
VERTEX
8
Layer 1
10
72.638560
20
91.551916
70
0
0
VERTEX
8
Layer 1
10
72.855675
20
91.916792
70
0
0
VERTEX
8
Layer 1
10
72.916629
20
92.336980
70
0
0
VERTEX
8
Layer 1
10
72.812143
20
92.748508
70
0
0
VERTEX
8
Layer 1
10
72.558123
20
93.088725
70
0
0
VERTEX
8
Layer 1
10
71.395246
20
94.135881
70
0
0
VERTEX
8
Layer 1
10
72.442212
20
95.298853
70
0
0
VERTEX
8
Layer 1
10
72.659328
20
95.663729
70
0
0
VERTEX
8
Layer 1
10
72.720283
20
96.083917
70
0
0
VERTEX
8
Layer 1
10
72.615796
20
96.495446
70
0
0
VERTEX
8
Layer 1
10
72.361776
20
96.835663
70
0
0
VERTEX
8
Layer 1
10
71.996854
20
97.052772
70
0
0
VERTEX
8
Layer 1
10
71.576623
20
97.113689
70
0
0
VERTEX
8
Layer 1
10
71.165073
20
97.009137
70
0
0
VERTEX
8
Layer 1
10
70.824870
20
96.755037
70
0
0
VERTEX
8
Layer 1
10
68.321531
20
93.974818
70
0
0
VERTEX
8
Layer 1
10
71.101939
20
91.471382
70
0
0
SEQEND
8
Layer 1
0
POLYLINE
8
Layer 1
62
7
70
0
10
0.000000
20
0.000000
66
1
0
VERTEX
8
Layer 1
10
78.369700
20
88.522503
70
0
0
VERTEX
8
Layer 1
10
78.741654
20
88.302695
70
0
0
VERTEX
8
Layer 1
10
79.154687
20
88.244575
70
0
0
VERTEX
8
Layer 1
10
79.559382
20
88.345552
70
0
0
VERTEX
8
Layer 1
10
79.906321
20
88.603037
70
0
0
VERTEX
8
Layer 1
10
80.123436
20
88.967912
70
0
0
VERTEX
8
Layer 1
10
80.184390
20
89.388100
70
0
0
VERTEX
8
Layer 1
10
80.079904
20
89.799629
70
0
0
VERTEX
8
Layer 1
10
79.825884
20
90.139845
70
0
0
VERTEX
8
Layer 1
10
75.168142
20
94.333551
70
0
0
VERTEX
8
Layer 1
10
79.362038
20
98.991196
70
0
0
VERTEX
8
Layer 1
10
79.579148
20
99.356118
70
0
0
VERTEX
8
Layer 1
10
79.640065
20
99.776349
70
0
0
VERTEX
8
Layer 1
10
79.535513
20
100.187900
70
0
0
VERTEX
8
Layer 1
10
79.281412
20
100.528102
70
0
0
VERTEX
8
Layer 1
10
78.909410
20
100.747905
70
0
0
VERTEX
8
Layer 1
10
78.496337
20
100.805987
70
0
0
VERTEX
8
Layer 1
10
78.091622
20
100.704947
70
0
0
VERTEX
8
Layer 1
10
77.744696
20
100.447380
70
0
0
VERTEX
8
Layer 1
10
72.094617
20
94.172393
70
0
0
VERTEX
8
Layer 1
10
78.369700
20
88.522503
70
0
0
SEQEND
8
Layer 1
0
POLYLINE
8
Layer 1
62
7
70
0
10
0.000000
20
0.000000
66
1
0
VERTEX
8
Layer 1
10
84.656366
20
87.302904
70
0
0
VERTEX
8
Layer 1
10
85.028320
20
87.083096
70
0
0
VERTEX
8
Layer 1
10
85.441353
20
87.024975
70
0
0
VERTEX
8
Layer 1
10
85.846048
20
87.125952
70
0
0
VERTEX
8
Layer 1
10
86.192987
20
87.383436
70
0
0
VERTEX
8
Layer 1
10
86.410103
20
87.748312
70
0
0
VERTEX
8
Layer 1
10
86.471057
20
88.168501
70
0
0
VERTEX
8
Layer 1
10
86.366570
20
88.580030
70
0
0
VERTEX
8
Layer 1
10
86.112550
20
88.920246
70
0
0
VERTEX
8
Layer 1
10
79.829257
20
94.577897
70
0
0
VERTEX
8
Layer 1
10
85.486717
20
100.861287
70
0
0
VERTEX
8
Layer 1
10
85.706526
20
101.233241
70
0
0
VERTEX
8
Layer 1
10
85.764646
20
101.646274
70
0
0
VERTEX
8
Layer 1
10
85.663669
20
102.050969
70
0
0
VERTEX
8
Layer 1
10
85.406185
20
102.397908
70
0
0
VERTEX
8
Layer 1
10
85.041309
20
102.615024
70
0
0
VERTEX
8
Layer 1
10
84.621121
20
102.675978
70
0
0
VERTEX
8
Layer 1
10
84.209591
20
102.571491
70
0
0
VERTEX
8
Layer 1
10
83.869375
20
102.317471
70
0
0
VERTEX
8
Layer 1
10
76.755730
20
94.416738
70
0
0
VERTEX
8
Layer 1
10
84.656366
20
87.302904
70
0
0
SEQEND
8
Layer 1
0
POLYLINE
8
Layer 1
62
7
70
0
10
0.000000
20
0.000000
66
1
0
VERTEX
8
Layer 1
10
76.988550
20
74.502936
70
0
0
VERTEX
8
Layer 1
10
77.413136
20
74.497403
70
0
0
VERTEX
8
Layer 1
10
77.807513
20
74.654787
70
0
0
VERTEX
8
Layer 1
10
78.116166
20
74.957191
70
0
0
VERTEX
8
Layer 1
10
78.279238
20
75.341150
70
0
0
VERTEX
8
Layer 1
10
78.286439
20
75.758241
70
0
0
VERTEX
8
Layer 1
10
78.127474
20
76.160042
70
0
0
VERTEX
8
Layer 1
10
66.274338
20
94.412288
70
0
0
VERTEX
8
Layer 1
10
65.971934
20
94.720940
70
0
0
VERTEX
8
Layer 1
10
65.587975
20
94.884013
70
0
0
VERTEX
8
Layer 1
10
65.170884
20
94.891213
70
0
0
VERTEX
8
Layer 1
10
64.769082
20
94.732248
70
0
0
VERTEX
8
Layer 1
10
64.460430
20
94.429844
70
0
0
VERTEX
8
Layer 1
10
64.297357
20
94.045885
70
0
0
VERTEX
8
Layer 1
10
64.290157
20
93.628794
70
0
0
VERTEX
8
Layer 1
10
64.449122
20
93.226992
70
0
0
VERTEX
8
Layer 1
10
76.302259
20
74.974747
70
0
0
VERTEX
8
Layer 1
10
76.598481
20
74.670587
70
0
0
VERTEX
8
Layer 1
10
76.988550
20
74.502936
70
0
0
VERTEX
8
Layer 1
10
76.988550
20
74.502936
70
0
0
SEQEND
8
Layer 1
0
POLYLINE
8
Layer 1
62
7
70
0
10
0.000000
20
0.000000
66
1
0
VERTEX
8
Layer 1
10
67.036235
20
86.383709
70
0
0
VERTEX
8
Layer 1
10
67.460785
20
86.378176
70
0
0
VERTEX
8
Layer 1
10
67.855134
20
86.535535
70
0
0
VERTEX
8
Layer 1
10
68.159246
20
86.831829
70
0
0
VERTEX
8
Layer 1
10
68.326819
20
87.221948
70
0
0
VERTEX
8
Layer 1
10
68.652294
20
88.752539
70
0
0
VERTEX
8
Layer 1
10
70.182982
20
88.427253
70
0
0
VERTEX
8
Layer 1
10
70.607532
20
88.421721
70
0
0
VERTEX
8
Layer 1
10
71.001882
20
88.579080
70
0
0
VERTEX
8
Layer 1
10
71.305993
20
88.875373
70
0
0
VERTEX
8
Layer 1
10
71.473567
20
89.265491
70
0
0
VERTEX
8
Layer 1
10
71.477951
20
89.697516
70
0
0
VERTEX
8
Layer 1
10
71.321770
20
90.084274
70
0
0
VERTEX
8
Layer 1
10
71.031975
20
90.384263
70
0
0
VERTEX
8
Layer 1
10
70.635518
20
90.555980
70
0
0
VERTEX
8
Layer 1
10
66.975914
20
91.333898
70
0
0
VERTEX
8
Layer 1
10
66.198092
20
87.674483
70
0
0
VERTEX
8
Layer 1
10
66.192486
20
87.249896
70
0
0
VERTEX
8
Layer 1
10
66.349805
20
86.855491
70
0
0
VERTEX
8
Layer 1
10
66.646093
20
86.551323
70
0
0
VERTEX
8
Layer 1
10
67.036235
20
86.383709
70
0
0
VERTEX
8
Layer 1
10
67.036235
20
86.383709
70
0
0
SEQEND
8
Layer 1
0
POLYLINE
8
Layer 1
62
7
70
0
10
0.000000
20
0.000000
66
1
0
VERTEX
8
Layer 1
10
68.116242
20
78.615243
70
0
0
VERTEX
8
Layer 1
10
68.540828
20
78.609637
70
0
0
VERTEX
8
Layer 1
10
68.935233
20
78.766956
70
0
0
VERTEX
8
Layer 1
10
69.239402
20
79.063244
70
0
0
VERTEX
8
Layer 1
10
69.407017
20
79.453385
70
0
0
VERTEX
8
Layer 1
10
70.710025
20
85.584012
70
0
0
VERTEX
8
Layer 1
10
76.840555
20
84.280813
70
0
0
VERTEX
8
Layer 1
10
77.265105
20
84.275281
70
0
0
VERTEX
8
Layer 1
10
77.659455
20
84.432640
70
0
0
VERTEX
8
Layer 1
10
77.963566
20
84.728933
70
0
0
VERTEX
8
Layer 1
10
78.131140
20
85.119051
70
0
0
VERTEX
8
Layer 1
10
78.135524
20
85.551077
70
0
0
VERTEX
8
Layer 1
10
77.979343
20
85.937834
70
0
0
VERTEX
8
Layer 1
10
77.689548
20
86.237823
70
0
0
VERTEX
8
Layer 1
10
77.293091
20
86.409540
70
0
0
VERTEX
8
Layer 1
10
69.033834
20
88.165274
70
0
0
VERTEX
8
Layer 1
10
67.278289
20
79.905921
70
0
0
VERTEX
8
Layer 1
10
67.273831
20
79.473858
70
0
0
VERTEX
8
Layer 1
10
67.429973
20
79.087047
70
0
0
VERTEX
8
Layer 1
10
67.719761
20
78.787003
70
0
0
VERTEX
8
Layer 1
10
68.116242
20
78.615243
70
0
0
VERTEX
8
Layer 1
10
68.116242
20
78.615243
70
0
0
SEQEND
8
Layer 1
0
POLYLINE
8
Layer 1
62
7
70
0
10
0.000000
20
0.000000
66
1
0
VERTEX
8
Layer 1
10
70.203583
20
72.561152
70
0
0
VERTEX
8
Layer 1
10
70.635609
20
72.556768
70
0
0
VERTEX
8
Layer 1
10
71.022367
20
72.712949
70
0
0
VERTEX
8
Layer 1
10
71.322355
20
73.002745
70
0
0
VERTEX
8
Layer 1
10
71.494072
20
73.399202
70
0
0
VERTEX
8
Layer 1
10
73.252076
20
81.669467
70
0
0
VERTEX
8
Layer 1
10
81.522438
20
79.911652
70
0
0
VERTEX
8
Layer 1
10
81.946988
20
79.906120
70
0
0
VERTEX
8
Layer 1
10
82.341338
20
80.063479
70
0
0
VERTEX
8
Layer 1
10
82.645450
20
80.359772
70
0
0
VERTEX
8
Layer 1
10
82.813024
20
80.749891
70
0
0
VERTEX
8
Layer 1
10
82.817408
20
81.181916
70
0
0
VERTEX
8
Layer 1
10
82.661226
20
81.568674
70
0
0
VERTEX
8
Layer 1
10
82.371431
20
81.868662
70
0
0
VERTEX
8
Layer 1
10
81.974974
20
82.040379
70
0
0
VERTEX
8
Layer 1
10
71.575885
20
84.250730
70
0
0
VERTEX
8
Layer 1
10
69.365344
20
73.851737
70
0
0
VERTEX
8
Layer 1
10
69.359812
20
73.427187
70
0
0
VERTEX
8
Layer 1
10
69.517171
20
73.032837
70
0
0
VERTEX
8
Layer 1
10
69.813465
20
72.728726
70
0
0
VERTEX
8
Layer 1
10
70.203583
20
72.561152
70
0
0
VERTEX
8
Layer 1
10
70.203583
20
72.561152
70
0
0
SEQEND
8
Layer 1
0
POLYLINE
8
Layer 1
62
7
70
1
10
0.000000
20
0.000000
66
1
0
VERTEX
8
Layer 1
10
54.987373
20
73.458838
70
0
0
VERTEX
8
Layer 1
10
55.396013
20
73.343589
70
0
0
VERTEX
8
Layer 1
10
55.817651
20
73.393493
70
0
0
VERTEX
8
Layer 1
10
56.188096
20
73.600952
70
0
0
VERTEX
8
Layer 1
10
56.450952
20
73.934383
70
0
0
VERTEX
8
Layer 1
10
66.331292
20
93.325623
70
0
0
VERTEX
8
Layer 1
10
66.447393
20
93.741843
70
0
0
VERTEX
8
Layer 1
10
66.396637
20
94.155901
70
0
0
VERTEX
8
Layer 1
10
66.194322
20
94.520715
70
0
0
VERTEX
8
Layer 1
10
65.855747
20
94.789202
70
0
0
VERTEX
8
Layer 1
10
65.439527
20
94.905303
70
0
0
VERTEX
8
Layer 1
10
65.025469
20
94.854547
70
0
0
VERTEX
8
Layer 1
10
64.660655
20
94.652232
70
0
0
VERTEX
8
Layer 1
10
64.392168
20
94.313657
70
0
0
VERTEX
8
Layer 1
10
54.511828
20
74.922417
70
0
0
VERTEX
8
Layer 1
10
54.395727
20
74.506197
70
0
0
VERTEX
8
Layer 1
10
54.446483
20
74.092139
70
0
0
VERTEX
8
Layer 1
10
54.648798
20
73.727325
70
0
0
VERTEX
8
Layer 1
10
54.987373
20
73.458838
70
0
0
VERTEX
8
Layer 1
10
54.987373
20
73.458838
70
0
0
SEQEND
8
Layer 1
0
POLYLINE
8
Layer 1
62
7
70
0
10
0.000000
20
0.000000
66
1
0
VERTEX
8
Layer 1
10
63.643279
20
86.314703
70
0
0
VERTEX
8
Layer 1
10
64.051912
20
86.199518
70
0
0
VERTEX
8
Layer 1
10
64.473521
20
86.249468
70
0
0
VERTEX
8
Layer 1
10
64.843986
20
86.456927
70
0
0
VERTEX
8
Layer 1
10
65.106855
20
86.790368
70
0
0
VERTEX
8
Layer 1
10
65.222105
20
87.199025
70
0
0
VERTEX
8
Layer 1
10
65.172189
20
87.620679
70
0
0
VERTEX
8
Layer 1
10
64.016113
20
91.178720
70
0
0
VERTEX
8
Layer 1
10
60.458072
20
90.022644
70
0
0
VERTEX
8
Layer 1
10
60.087607
20
89.815185
70
0
0
VERTEX
8
Layer 1
10
59.824738
20
89.481744
70
0
0
VERTEX
8
Layer 1
10
59.709488
20
89.073086
70
0
0
VERTEX
8
Layer 1
10
59.759404
20
88.651433
70
0
0
VERTEX
8
Layer 1
10
59.971621
20
88.275094
70
0
0
VERTEX
8
Layer 1
10
60.300258
20
88.018242
70
0
0
VERTEX
8
Layer 1
10
60.701224
20
87.903343
70
0
0
VERTEX
8
Layer 1
10
61.130426
20
87.952862
70
0
0
VERTEX
8
Layer 1
10
62.618875
20
88.436488
70
0
0
VERTEX
8
Layer 1
10
63.102499
20
86.948039
70
0
0
VERTEX
8
Layer 1
10
63.309904
20
86.577591
70
0
0
VERTEX
8
Layer 1
10
63.643279
20
86.314703
70
0
0
VERTEX
8
Layer 1
10
63.643279
20
86.314703
70
0
0
SEQEND
8
Layer 1
0
POLYLINE
8
Layer 1
62
7
70
0
10
0.000000
20
0.000000
66
1
0
VERTEX
8
Layer 1
10
63.381312
20
78.476013
70
0
0
VERTEX
8
Layer 1
10
63.789880
20
78.360752
70
0
0
VERTEX
8
Layer 1
10
64.211458
20
78.410590
70
0
0
VERTEX
8
Layer 1
10
64.581922
20
78.618048
70
0
0
VERTEX
8
Layer 1
10
64.844791
20
78.951490
70
0
0
VERTEX
8
Layer 1
10
64.960041
20
79.360147
70
0
0
VERTEX
8
Layer 1
10
64.910125
20
79.781800
70
0
0
VERTEX
8
Layer 1
10
62.300851
20
87.812333
70
0
0
VERTEX
8
Layer 1
10
54.270318
20
85.203057
70
0
0
VERTEX
8
Layer 1
10
53.899854
20
84.995599
70
0
0
VERTEX
8
Layer 1
10
53.636986
20
84.662157
70
0
0
VERTEX
8
Layer 1
10
53.521736
20
84.253501
70
0
0
VERTEX
8
Layer 1
10
53.571651
20
83.831847
70
0
0
VERTEX
8
Layer 1
10
53.779110
20
83.461383
70
0
0
VERTEX
8
Layer 1
10
54.112552
20
83.198514
70
0
0
VERTEX
8
Layer 1
10
54.521209
20
83.083264
70
0
0
VERTEX
8
Layer 1
10
54.942862
20
83.133180
70
0
0
VERTEX
8
Layer 1
10
60.903612
20
85.070100
70
0
0
VERTEX
8
Layer 1
10
62.840247
20
79.109257
70
0
0
VERTEX
8
Layer 1
10
63.047794
20
78.738818
70
0
0
VERTEX
8
Layer 1
10
63.381312
20
78.476013
70
0
0
VERTEX
8
Layer 1
10
63.381312
20
78.476013
70
0
0
SEQEND
8
Layer 1
0
POLYLINE
8
Layer 1
62
7
70
0
10
0.000000
20
0.000000
66
1
0
VERTEX
8
Layer 1
10
61.938326
20
72.236857
70
0
0
VERTEX
8
Layer 1
10
62.346893
20
72.121596
70
0
0
VERTEX
8
Layer 1
10
62.768471
20
72.171434
70
0
0
VERTEX
8
Layer 1
10
63.138936
20
72.378893
70
0
0
VERTEX
8
Layer 1
10
63.401804
20
72.712334
70
0
0
VERTEX
8
Layer 1
10
63.517054
20
73.120991
70
0
0
VERTEX
8
Layer 1
10
63.467138
20
73.542644
70
0
0
VERTEX
8
Layer 1
10
60.181885
20
83.653631
70
0
0
VERTEX
8
Layer 1
10
50.070898
20
80.368376
70
0
0
VERTEX
8
Layer 1
10
49.700434
20
80.160917
70
0
0
VERTEX
8
Layer 1
10
49.437565
20
79.827476
70
0
0
VERTEX
8
Layer 1
10
49.322315
20
79.418819
70
0
0
VERTEX
8
Layer 1
10
49.372231
20
78.997166
70
0
0
VERTEX
8
Layer 1
10
49.579690
20
78.626702
70
0
0
VERTEX
8
Layer 1
10
49.913131
20
78.363834
70
0
0
VERTEX
8
Layer 1
10
50.321788
20
78.248584
70
0
0
VERTEX
8
Layer 1
10
50.743441
20
78.298499
70
0
0
VERTEX
8
Layer 1
10
58.784646
20
80.911399
70
0
0
VERTEX
8
Layer 1
10
61.397261
20
72.870101
70
0
0
VERTEX
8
Layer 1
10
61.604808
20
72.499662
70
0
0
VERTEX
8
Layer 1
10
61.938326
20
72.236857
70
0
0
VERTEX
8
Layer 1
10
61.938326
20
72.236857
70
0
0
SEQEND
8
Layer 1
0
POLYLINE
8
Layer 1
62
7
70
0
10
0.000000
20
0.000000
66
1
0
VERTEX
8
Layer 1
10
42.900113
20
91.871879
70
0
0
VERTEX
8
Layer 1
10
43.265023
20
91.654849
70
0
0
VERTEX
8
Layer 1
10
43.685208
20
91.593981
70
0
0
VERTEX
8
Layer 1
10
65.418684
20
92.732975
70
0
0
VERTEX
8
Layer 1
10
65.837186
20
92.840542
70
0
0
VERTEX
8
Layer 1
10
66.170388
20
93.091527
70
0
0
VERTEX
8
Layer 1
10
66.385166
20
93.449141
70
0
0
VERTEX
8
Layer 1
10
66.448395
20
93.876594
70
0
0
VERTEX
8
Layer 1
10
66.340828
20
94.295096
70
0
0
VERTEX
8
Layer 1
10
66.089843
20
94.628298
70
0
0
VERTEX
8
Layer 1
10
65.732229
20
94.843076
70
0
0
VERTEX
8
Layer 1
10
65.304776
20
94.906305
70
0
0
VERTEX
8
Layer 1
10
43.571299
20
93.767310
70
0
0
VERTEX
8
Layer 1
10
43.152798
20
93.659743
70
0
0
VERTEX
8
Layer 1
10
42.819596
20
93.408758
70
0
0
VERTEX
8
Layer 1
10
42.604818
20
93.051144
70
0
0
VERTEX
8
Layer 1
10
42.541590
20
92.623691
70
0
0
VERTEX
8
Layer 1
10
42.646072
20
92.212124
70
0
0
VERTEX
8
Layer 1
10
42.900113
20
91.871879
70
0
0
VERTEX
8
Layer 1
10
42.900113
20
91.871879
70
0
0
SEQEND
8
Layer 1
0
POLYLINE
8
Layer 1
62
7
70
0
10
0.000000
20
0.000000
66
1
0
VERTEX
8
Layer 1
10
58.361685
20
90.803617
70
0
0
VERTEX
8
Layer 1
10
58.726607
20
90.586508
70
0
0
VERTEX
8
Layer 1
10
59.146837
20
90.525591
70
0
0
VERTEX
8
Layer 1
10
59.558387
20
90.630143
70
0
0
VERTEX
8
Layer 1
10
59.898590
20
90.884242
70
0
0
VERTEX
8
Layer 1
10
62.401929
20
93.664462
70
0
0
VERTEX
8
Layer 1
10
59.621521
20
96.167898
70
0
0
VERTEX
8
Layer 1
10
59.249567
20
96.387706
70
0
0
VERTEX
8
Layer 1
10
58.836534
20
96.445826
70
0
0
VERTEX
8
Layer 1
10
58.431839
20
96.344849
70
0
0
VERTEX
8
Layer 1
10
58.084900
20
96.087364
70
0
0
VERTEX
8
Layer 1
10
57.867785
20
95.722488
70
0
0
VERTEX
8
Layer 1
10
57.806831
20
95.302300
70
0
0
VERTEX
8
Layer 1
10
57.911317
20
94.890772
70
0
0
VERTEX
8
Layer 1
10
58.165337
20
94.550555
70
0
0
VERTEX
8
Layer 1
10
59.328214
20
93.503399
70
0
0
VERTEX
8
Layer 1
10
58.281248
20
92.340427
70
0
0
VERTEX
8
Layer 1
10
58.064132
20
91.975551
70
0
0
VERTEX
8
Layer 1
10
58.003178
20
91.555363
70
0
0
VERTEX
8
Layer 1
10
58.107664
20
91.143834
70
0
0
VERTEX
8
Layer 1
10
58.361685
20
90.803617
70
0
0
VERTEX
8
Layer 1
10
58.361685
20
90.803617
70
0
0
SEQEND
8
Layer 1
0
POLYLINE
8
Layer 1
62
7
70
0
10
0.000000
20
0.000000
66
1
0
VERTEX
8
Layer 1
10
51.442048
20
87.111178
70
0
0
VERTEX
8
Layer 1
10
51.814050
20
86.891375
70
0
0
VERTEX
8
Layer 1
10
52.227123
20
86.833293
70
0
0
VERTEX
8
Layer 1
10
52.631838
20
86.934333
70
0
0
VERTEX
8
Layer 1
10
52.978764
20
87.191900
70
0
0
VERTEX
8
Layer 1
10
58.628843
20
93.466887
70
0
0
VERTEX
8
Layer 1
10
52.353760
20
99.116777
70
0
0
VERTEX
8
Layer 1
10
51.981806
20
99.336585
70
0
0
VERTEX
8
Layer 1
10
51.568773
20
99.394705
70
0
0
VERTEX
8
Layer 1
10
51.164078
20
99.293728
70
0
0
VERTEX
8
Layer 1
10
50.817139
20
99.036243
70
0
0
VERTEX
8
Layer 1
10
50.600024
20
98.671368
70
0
0
VERTEX
8
Layer 1
10
50.539070
20
98.251180
70
0
0
VERTEX
8
Layer 1
10
50.643556
20
97.839651
70
0
0
VERTEX
8
Layer 1
10
50.897576
20
97.499435
70
0
0
VERTEX
8
Layer 1
10
55.555318
20
93.305729
70
0
0
VERTEX
8
Layer 1
10
51.361422
20
88.648084
70
0
0
VERTEX
8
Layer 1
10
51.144312
20
88.283162
70
0
0
VERTEX
8
Layer 1
10
51.083395
20
87.862931
70
0
0
VERTEX
8
Layer 1
10
51.187947
20
87.451380
70
0
0
VERTEX
8
Layer 1
10
51.442048
20
87.111178
70
0
0
VERTEX
8
Layer 1
10
51.442048
20
87.111178
70
0
0
SEQEND
8
Layer 1
0
POLYLINE
8
Layer 1
62
7
70
0
10
0.000000
20
0.000000
66
1
0
VERTEX
8
Layer 1
10
45.317275
20
85.241372
70
0
0
VERTEX
8
Layer 1
10
45.682151
20
85.024256
70
0
0
VERTEX
8
Layer 1
10
46.102339
20
84.963302
70
0
0
VERTEX
8
Layer 1
10
46.513868
20
85.067788
70
0
0
VERTEX
8
Layer 1
10
46.854085
20
85.321808
70
0
0
VERTEX
8
Layer 1
10
53.967730
20
93.222542
70
0
0
VERTEX
8
Layer 1
10
46.067094
20
100.336376
70
0
0
VERTEX
8
Layer 1
10
45.695140
20
100.556184
70
0
0
VERTEX
8
Layer 1
10
45.282107
20
100.614305
70
0
0
VERTEX
8
Layer 1
10
44.877413
20
100.513328
70
0
0
VERTEX
8
Layer 1
10
44.530474
20
100.255843
70
0
0
VERTEX
8
Layer 1
10
44.313358
20
99.890968
70
0
0
VERTEX
8
Layer 1
10
44.252404
20
99.470779
70
0
0
VERTEX
8
Layer 1
10
44.356890
20
99.059250
70
0
0
VERTEX
8
Layer 1
10
44.610910
20
98.719034
70
0
0
VERTEX
8
Layer 1
10
50.894203
20
93.061383
70
0
0
VERTEX
8
Layer 1
10
45.236743
20
86.777993
70
0
0
VERTEX
8
Layer 1
10
45.016934
20
86.406039
70
0
0
VERTEX
8
Layer 1
10
44.958814
20
85.993006
70
0
0
VERTEX
8
Layer 1
10
45.059791
20
85.588311
70
0
0
VERTEX
8
Layer 1
10
45.317275
20
85.241372
70
0
0
VERTEX
8
Layer 1
10
45.317275
20
85.241372
70
0
0
SEQEND
8
Layer 1
0
POLYLINE
8
Layer 1
62
7
70
0
10
0.000000
20
0.000000
66
1
0
VERTEX
8
Layer 1
10
65.135414
20
92.755181
70
0
0
VERTEX
8
Layer 1
10
65.560000
20
92.749648
70
0
0
VERTEX
8
Layer 1
10
65.954378
20
92.907032
70
0
0
VERTEX
8
Layer 1
10
66.263030
20
93.209436
70
0
0
VERTEX
8
Layer 1
10
66.426103
20
93.593395
70
0
0
VERTEX
8
Layer 1
10
66.433303
20
94.010486
70
0
0
VERTEX
8
Layer 1
10
66.274338
20
94.412288
70
0
0
VERTEX
8
Layer 1
10
54.421201
20
112.664533
70
0
0
VERTEX
8
Layer 1
10
54.118798
20
112.973185
70
0
0
VERTEX
8
Layer 1
10
53.734839
20
113.136257
70
0
0
VERTEX
8
Layer 1
10
53.317748
20
113.143457
70
0
0
VERTEX
8
Layer 1
10
52.915947
20
112.984493
70
0
0
VERTEX
8
Layer 1
10
52.607294
20
112.682089
70
0
0
VERTEX
8
Layer 1
10
52.444222
20
112.298130
70
0
0
VERTEX
8
Layer 1
10
52.437021
20
111.881039
70
0
0
VERTEX
8
Layer 1
10
52.595986
20
111.479238
70
0
0
VERTEX
8
Layer 1
10
64.449122
20
93.226992
70
0
0
VERTEX
8
Layer 1
10
64.745345
20
92.922833
70
0
0
VERTEX
8
Layer 1
10
65.135414
20
92.755181
70
0
0
VERTEX
8
Layer 1
10
65.135414
20
92.755181
70
0
0
SEQEND
8
Layer 1
0
POLYLINE
8
Layer 1
62
7
70
0
10
0.000000
20
0.000000
66
1
0
VERTEX
8
Layer 1
10
60.087942
20
97.083300
70
0
0
VERTEX
8
Layer 1
10
63.747546
20
96.305382
70
0
0
VERTEX
8
Layer 1
10
64.525368
20
99.964796
70
0
0
VERTEX
8
Layer 1
10
64.530973
20
100.389382
70
0
0
VERTEX
8
Layer 1
10
64.373655
20
100.783788
70
0
0
VERTEX
8
Layer 1
10
64.077367
20
101.087956
70
0
0
VERTEX
8
Layer 1
10
63.687226
20
101.255571
70
0
0
VERTEX
8
Layer 1
10
63.262676
20
101.261104
70
0
0
VERTEX
8
Layer 1
10
62.868326
20
101.103745
70
0
0
VERTEX
8
Layer 1
10
62.564214
20
100.807451
70
0
0
VERTEX
8
Layer 1
10
62.396641
20
100.417332
70
0
0
VERTEX
8
Layer 1
10
62.071166
20
98.886741
70
0
0
VERTEX
8
Layer 1
10
60.540478
20
99.212027
70
0
0
VERTEX
8
Layer 1
10
60.115928
20
99.217559
70
0
0
VERTEX
8
Layer 1
10
59.721578
20
99.060200
70
0
0
VERTEX
8
Layer 1
10
59.417467
20
98.763907
70
0
0
VERTEX
8
Layer 1
10
59.249893
20
98.373789
70
0
0
VERTEX
8
Layer 1
10
59.245509
20
97.941764
70
0
0
VERTEX
8
Layer 1
10
59.401690
20
97.555006
70
0
0
VERTEX
8
Layer 1
10
59.691485
20
97.255017
70
0
0
VERTEX
8
Layer 1
10
60.087942
20
97.083300
70
0
0
VERTEX
8
Layer 1
10
60.087942
20
97.083300
70
0
0
SEQEND
8
Layer 1
0
POLYLINE
8
Layer 1
62
7
70
0
10
0.000000
20
0.000000
66
1
0
VERTEX
8
Layer 1
10
53.430369
20
101.229740
70
0
0
VERTEX
8
Layer 1
10
61.689626
20
99.474006
70
0
0
VERTEX
8
Layer 1
10
63.445171
20
107.733359
70
0
0
VERTEX
8
Layer 1
10
63.449629
20
108.165422
70
0
0
VERTEX
8
Layer 1
10
63.293487
20
108.552233
70
0
0
VERTEX
8
Layer 1
10
63.003699
20
108.852277
70
0
0
VERTEX
8
Layer 1
10
62.607218
20
109.024037
70
0
0
VERTEX
8
Layer 1
10
62.182632
20
109.029643
70
0
0
VERTEX
8
Layer 1
10
61.788227
20
108.872324
70
0
0
VERTEX
8
Layer 1
10
61.484058
20
108.576036
70
0
0
VERTEX
8
Layer 1
10
61.316443
20
108.185895
70
0
0
VERTEX
8
Layer 1
10
60.013435
20
102.055268
70
0
0
VERTEX
8
Layer 1
10
53.882905
20
103.358467
70
0
0
VERTEX
8
Layer 1
10
53.458355
20
103.363999
70
0
0
VERTEX
8
Layer 1
10
53.064005
20
103.206640
70
0
0
VERTEX
8
Layer 1
10
52.759894
20
102.910347
70
0
0
VERTEX
8
Layer 1
10
52.592320
20
102.520229
70
0
0
VERTEX
8
Layer 1
10
52.587936
20
102.088203
70
0
0
VERTEX
8
Layer 1
10
52.744117
20
101.701446
70
0
0
VERTEX
8
Layer 1
10
53.033912
20
101.401457
70
0
0
VERTEX
8
Layer 1
10
53.430369
20
101.229740
70
0
0
VERTEX
8
Layer 1
10
53.430369
20
101.229740
70
0
0
SEQEND
8
Layer 1
0
POLYLINE
8
Layer 1
62
7
70
0
10
0.000000
20
0.000000
66
1
0
VERTEX
8
Layer 1
10
48.748486
20
105.598901
70
0
0
VERTEX
8
Layer 1
10
59.147575
20
103.388550
70
0
0
VERTEX
8
Layer 1
10
61.358115
20
113.787542
70
0
0
VERTEX
8
Layer 1
10
61.363648
20
114.212093
70
0
0
VERTEX
8
Layer 1
10
61.206289
20
114.606443
70
0
0
VERTEX
8
Layer 1
10
60.909995
20
114.910554
70
0
0
VERTEX
8
Layer 1
10
60.519877
20
115.078128
70
0
0
VERTEX
8
Layer 1
10
60.087851
20
115.082512
70
0
0
VERTEX
8
Layer 1
10
59.701093
20
114.926331
70
0
0
VERTEX
8
Layer 1
10
59.401105
20
114.636535
70
0
0
VERTEX
8
Layer 1
10
59.229388
20
114.240078
70
0
0
VERTEX
8
Layer 1
10
57.471384
20
105.969813
70
0
0
VERTEX
8
Layer 1
10
49.201022
20
107.727628
70
0
0
VERTEX
8
Layer 1
10
48.776472
20
107.733160
70
0
0
VERTEX
8
Layer 1
10
48.382122
20
107.575801
70
0
0
VERTEX
8
Layer 1
10
48.078011
20
107.279507
70
0
0
VERTEX
8
Layer 1
10
47.910437
20
106.889389
70
0
0
VERTEX
8
Layer 1
10
47.906053
20
106.457364
70
0
0
VERTEX
8
Layer 1
10
48.062235
20
106.070606
70
0
0
VERTEX
8
Layer 1
10
48.352030
20
105.770618
70
0
0
VERTEX
8
Layer 1
10
48.748486
20
105.598901
70
0
0
VERTEX
8
Layer 1
10
48.748486
20
105.598901
70
0
0
SEQEND
8
Layer 1
0
POLYLINE
8
Layer 1
62
7
70
0
10
0.000000
20
0.000000
66
1
0
VERTEX
8
Layer 1
10
33.408125
20
69.018337
70
0
0
VERTEX
8
Layer 1
10
33.683858
20
68.510500
70
0
0
VERTEX
8
Layer 1
10
34.237927
20
68.346377
70
0
0
VERTEX
8
Layer 1
10
49.255547
20
69.924789
70
0
0
VERTEX
8
Layer 1
10
49.763384
20
70.200522
70
0
0
VERTEX
8
Layer 1
10
49.927507
20
70.754591
70
0
0
VERTEX
8
Layer 1
10
49.651774
20
71.262428
70
0
0
VERTEX
8
Layer 1
10
49.097705
20
71.426551
70
0
0
VERTEX
8
Layer 1
10
34.080085
20
69.848139
70
0
0
VERTEX
8
Layer 1
10
33.572248
20
69.572406
70
0
0
VERTEX
8
Layer 1
10
33.408125
20
69.018337
70
0
0
VERTEX
8
Layer 1
10
33.408125
20
69.018337
70
0
0
SEQEND
8
Layer 1
0
POLYLINE
8
Layer 1
62
7
70
0
10
0.000000
20
0.000000
66
1
0
VERTEX
8
Layer 1
10
36.628994
20
69.356864
70
0
0
VERTEX
8
Layer 1
10
37.707574
20
68.483446
70
0
0
VERTEX
8
Layer 1
10
38.261661
20
68.319309
70
0
0
VERTEX
8
Layer 1
10
38.769513
20
68.595060
70
0
0
VERTEX
8
Layer 1
10
38.917012
20
69.097322
70
0
0
VERTEX
8
Layer 1
10
38.702422
20
69.574789
70
0
0
VERTEX
8
Layer 1
10
38.813052
20
70.086438
70
0
0
VERTEX
8
Layer 1
10
38.564351
20
70.547058
70
0
0
VERTEX
8
Layer 1
10
38.010264
20
70.711196
70
0
0
VERTEX
8
Layer 1
10
37.502411
20
70.435444
70
0
0
VERTEX
8
Layer 1
10
36.628994
20
69.356864
70
0
0
SEQEND
8
Layer 1
0
POLYLINE
8
Layer 1
62
7
70
0
10
0.000000
20
0.000000
66
1
0
VERTEX
8
Layer 1
10
40.080260
20
69.719605
70
0
0
VERTEX
8
Layer 1
10
41.828825
20
68.303780
70
0
0
VERTEX
8
Layer 1
10
42.382830
20
68.139708
70
0
0
VERTEX
8
Layer 1
10
42.890617
20
68.415378
70
0
0
VERTEX
8
Layer 1
10
43.054689
20
68.969384
70
0
0
VERTEX
8
Layer 1
10
42.779018
20
69.477170
70
0
0
VERTEX
8
Layer 1
10
42.204139
20
69.942834
70
0
0
VERTEX
8
Layer 1
10
42.669639
20
70.517845
70
0
0
VERTEX
8
Layer 1
10
42.833711
20
71.071850
70
0
0
VERTEX
8
Layer 1
10
42.558041
20
71.579637
70
0
0
VERTEX
8
Layer 1
10
42.004035
20
71.743709
70
0
0
VERTEX
8
Layer 1
10
41.496248
20
71.468039
70
0
0
VERTEX
8
Layer 1
10
40.080260
20
69.719605
70
0
0
SEQEND
8
Layer 1
0
POLYLINE
8
Layer 1
62
7
70
0
10
0.000000
20
0.000000
66
1
0
VERTEX
8
Layer 1
10
43.197736
20
70.047265
70
0
0
VERTEX
8
Layer 1
10
46.354046
20
67.491468
70
0
0
VERTEX
8
Layer 1
10
46.908052
20
67.327396
70
0
0
VERTEX
8
Layer 1
10
47.415838
20
67.603067
70
0
0
VERTEX
8
Layer 1
10
47.579910
20
68.157072
70
0
0
VERTEX
8
Layer 1
10
47.304240
20
68.664860
70
0
0
VERTEX
8
Layer 1
10
45.321468
20
70.270477
70
0
0
VERTEX
8
Layer 1
10
46.927086
20
72.253249
70
0
0
VERTEX
8
Layer 1
10
47.091158
20
72.807255
70
0
0
VERTEX
8
Layer 1
10
46.815487
20
73.315042
70
0
0
VERTEX
8
Layer 1
10
46.261481
20
73.479114
70
0
0
VERTEX
8
Layer 1
10
45.753695
20
73.203444
70
0
0
VERTEX
8
Layer 1
10
43.197736
20
70.047265
70
0
0
SEQEND
8
Layer 1
0
POLYLINE
8
Layer 1
62
7
70
0
10
0.000000
20
0.000000
66
1
0
VERTEX
8
Layer 1
10
33.413219
20
69.215339
70
0
0
VERTEX
8
Layer 1
10
33.548191
20
68.653471
70
0
0
VERTEX
8
Layer 1
10
42.423946
20
56.437037
70
0
0
VERTEX
8
Layer 1
10
42.916655
20
56.135111
70
0
0
VERTEX
8
Layer 1
10
43.478548
20
56.270010
70
0
0
VERTEX
8
Layer 1
10
43.780474
20
56.762718
70
0
0
VERTEX
8
Layer 1
10
43.645576
20
57.324611
70
0
0
VERTEX
8
Layer 1
10
34.769821
20
69.541045
70
0
0
VERTEX
8
Layer 1
10
34.277112
20
69.842971
70
0
0
VERTEX
8
Layer 1
10
33.715219
20
69.708073
70
0
0
VERTEX
8
Layer 1
10
33.413219
20
69.215339
70
0
0
VERTEX
8
Layer 1
10
33.413219
20
69.215339
70
0
0
SEQEND
8
Layer 1
0
POLYLINE
8
Layer 1
62
7
70
0
10
0.000000
20
0.000000
66
1
0
VERTEX
8
Layer 1
10
35.401706
20
65.717127
70
0
0
VERTEX
8
Layer 1
10
35.536620
20
65.155311
70
0
0
VERTEX
8
Layer 1
10
36.029250
20
64.853391
70
0
0
VERTEX
8
Layer 1
10
36.538030
20
64.976762
70
0
0
VERTEX
8
Layer 1
10
36.844262
20
65.401378
70
0
0
VERTEX
8
Layer 1
10
37.342731
20
65.561363
70
0
0
VERTEX
8
Layer 1
10
37.617324
20
66.007084
70
0
0
VERTEX
8
Layer 1
10
37.482404
20
66.569034
70
0
0
VERTEX
8
Layer 1
10
36.989618
20
66.870952
70
0
0
VERTEX
8
Layer 1
10
35.618816
20
67.088076
70
0
0
VERTEX
8
Layer 1
10
35.401706
20
65.717127
70
0
0
SEQEND
8
Layer 1
0
POLYLINE
8
Layer 1
62
7
70
0
10
0.000000
20
0.000000
66
1
0
VERTEX
8
Layer 1
10
37.306691
20
62.058304
70
0
0
VERTEX
8
Layer 1
10
37.441552
20
61.496389
70
0
0
VERTEX
8
Layer 1
10
37.934250
20
61.194420
70
0
0
VERTEX
8
Layer 1
10
38.496200
20
61.329340
70
0
0
VERTEX
8
Layer 1
10
38.798118
20
61.822126
70
0
0
VERTEX
8
Layer 1
10
38.913780
20
62.552830
70
0
0
VERTEX
8
Layer 1
10
39.644501
20
62.437021
70
0
0
VERTEX
8
Layer 1
10
40.206451
20
62.571941
70
0
0
VERTEX
8
Layer 1
10
40.508368
20
63.064726
70
0
0
VERTEX
8
Layer 1
10
40.373454
20
63.626543
70
0
0
VERTEX
8
Layer 1
10
39.880825
20
63.928463
70
0
0
VERTEX
8
Layer 1
10
37.658679
20
64.280450
70
0
0
VERTEX
8
Layer 1
10
37.306691
20
62.058304
70
0
0
SEQEND
8
Layer 1
0
POLYLINE
8
Layer 1
62
7
70
0
10
0.000000
20
0.000000
66
1
0
VERTEX
8
Layer 1
10
38.865799
20
57.733100
70
0
0
VERTEX
8
Layer 1
10
39.000712
20
57.171283
70
0
0
VERTEX
8
Layer 1
10
39.493343
20
56.869363
70
0
0
VERTEX
8
Layer 1
10
40.055257
20
57.004224
70
0
0
VERTEX
8
Layer 1
10
40.357225
20
57.496922
70
0
0
VERTEX
8
Layer 1
10
40.756352
20
60.016869
70
0
0
VERTEX
8
Layer 1
10
43.276152
20
59.617728
70
0
0
VERTEX
8
Layer 1
10
43.838067
20
59.752589
70
0
0
VERTEX
8
Layer 1
10
44.140035
20
60.245287
70
0
0
VERTEX
8
Layer 1
10
44.005175
20
60.807202
70
0
0
VERTEX
8
Layer 1
10
43.512476
20
61.109170
70
0
0
VERTEX
8
Layer 1
10
39.501103
20
61.744473
70
0
0
VERTEX
8
Layer 1
10
38.865799
20
57.733100
70
0
0
SEQEND
8
Layer 1
0
POLYLINE
8
Layer 1
62
7
70
0
10
0.000000
20
0.000000
66
1
0
VERTEX
8
Layer 1
10
27.312202
20
55.031853
70
0
0
VERTEX
8
Layer 1
10
27.710047
20
54.612677
70
0
0
VERTEX
8
Layer 1
10
28.287708
20
54.597550
70
0
0
VERTEX
8
Layer 1
10
28.706876
20
54.995318
70
0
0
VERTEX
8
Layer 1
10
34.848741
20
68.790164
70
0
0
VERTEX
8
Layer 1
10
34.863868
20
69.367825
70
0
0
VERTEX
8
Layer 1
10
34.466100
20
69.786993
70
0
0
VERTEX
8
Layer 1
10
33.888439
20
69.802120
70
0
0
VERTEX
8
Layer 1
10
33.469271
20
69.404352
70
0
0
VERTEX
8
Layer 1
10
27.327406
20
55.609506
70
0
0
VERTEX
8
Layer 1
10
27.312202
20
55.031853
70
0
0
VERTEX
8
Layer 1
10
27.312202
20
55.031853
70
0
0
SEQEND
8
Layer 1
0
POLYLINE
8
Layer 1
62
7
70
0
10
0.000000
20
0.000000
66
1
0
VERTEX
8
Layer 1
10
31.418742
20
65.355588
70
0
0
VERTEX
8
Layer 1
10
31.780005
20
64.976699
70
0
0
VERTEX
8
Layer 1
10
32.300844
20
64.923847
70
0
0
VERTEX
8
Layer 1
10
32.688667
20
64.572178
70
0
0
VERTEX
8
Layer 1
10
33.211979
20
64.557285
70
0
0
VERTEX
8
Layer 1
10
33.631071
20
64.955030
70
0
0
VERTEX
8
Layer 1
10
33.646229
20
65.532620
70
0
0
VERTEX
8
Layer 1
10
33.148828
20
66.828471
70
0
0
VERTEX
8
Layer 1
10
31.853123
20
66.331086
70
0
0
VERTEX
8
Layer 1
10
31.433878
20
65.933310
70
0
0
VERTEX
8
Layer 1
10
31.418742
20
65.355588
70
0
0
VERTEX
8
Layer 1
10
31.418742
20
65.355588
70
0
0
SEQEND
8
Layer 1
0
POLYLINE
8
Layer 1
62
7
70
0
10
0.000000
20
0.000000
66
1
0
VERTEX
8
Layer 1
10
29.202623
20
61.876447
70
0
0
VERTEX
8
Layer 1
10
29.600398
20
61.457202
70
0
0
VERTEX
8
Layer 1
10
30.178120
20
61.442066
70
0
0
VERTEX
8
Layer 1
10
30.868795
20
61.707270
70
0
0
VERTEX
8
Layer 1
10
31.133851
20
61.016581
70
0
0
VERTEX
8
Layer 1
10
31.531627
20
60.597335
70
0
0
VERTEX
8
Layer 1
10
32.109349
20
60.582200
70
0
0
VERTEX
8
Layer 1
10
32.528498
20
60.980007
70
0
0
VERTEX
8
Layer 1
10
32.543583
20
61.557682
70
0
0
VERTEX
8
Layer 1
10
31.737278
20
63.658087
70
0
0
VERTEX
8
Layer 1
10
29.636873
20
62.851782
70
0
0
VERTEX
8
Layer 1
10
29.217781
20
62.454037
70
0
0
VERTEX
8
Layer 1
10
29.202623
20
61.876447
70
0
0
VERTEX
8
Layer 1
10
29.202623
20
61.876447
70
0
0
SEQEND
8
Layer 1
0
POLYLINE
8
Layer 1
62
7
70
0
10
0.000000
20
0.000000
66
1
0
VERTEX
8
Layer 1
10
26.236509
20
58.363554
70
0
0
VERTEX
8
Layer 1
10
26.634316
20
57.944406
70
0
0
VERTEX
8
Layer 1
10
27.211992
20
57.929320
70
0
0
VERTEX
8
Layer 1
10
29.593743
20
58.843634
70
0
0
VERTEX
8
Layer 1
10
30.508072
20
56.461737
70
0
0
VERTEX
8
Layer 1
10
30.905879
20
56.042588
70
0
0
VERTEX
8
Layer 1
10
31.483554
20
56.027502
70
0
0
VERTEX
8
Layer 1
10
31.902646
20
56.425248
70
0
0
VERTEX
8
Layer 1
10
31.917803
20
57.002838
70
0
0
VERTEX
8
Layer 1
10
30.462373
20
60.794467
70
0
0
VERTEX
8
Layer 1
10
26.670744
20
59.339036
70
0
0
VERTEX
8
Layer 1
10
26.251595
20
58.941230
70
0
0
VERTEX
8
Layer 1
10
26.236509
20
58.363554
70
0
0
VERTEX
8
Layer 1
10
26.236509
20
58.363554
70
0
0
SEQEND
8
Layer 1
0
POLYLINE
8
Layer 1
62
7
70
1
10
0.000000
20
0.000000
66
1
0
VERTEX
8
Layer 1
10
18.390505
20
67.439925
70
0
0
VERTEX
8
Layer 1
10
18.666238
20
66.932088
70
0
0
VERTEX
8
Layer 1
10
19.220307
20
66.767965
70
0
0
VERTEX
8
Layer 1
10
34.237927
20
68.346377
70
0
0
VERTEX
8
Layer 1
10
34.745764
20
68.622110
70
0
0
VERTEX
8
Layer 1
10
34.909887
20
69.176179
70
0
0
VERTEX
8
Layer 1
10
34.634154
20
69.684016
70
0
0
VERTEX
8
Layer 1
10
34.080085
20
69.848139
70
0
0
VERTEX
8
Layer 1
10
19.062465
20
68.269727
70
0
0
VERTEX
8
Layer 1
10
18.554628
20
67.993994
70
0
0
VERTEX
8
Layer 1
10
18.390505
20
67.439925
70
0
0
VERTEX
8
Layer 1
10
18.390505
20
67.439925
70
0
0
SEQEND
8
Layer 1
0
POLYLINE
8
Layer 1
62
7
70
0
10
0.000000
20
0.000000
66
1
0
VERTEX
8
Layer 1
10
29.477878
20
68.155234
70
0
0
VERTEX
8
Layer 1
10
29.753661
20
67.647458
70
0
0
VERTEX
8
Layer 1
10
30.307748
20
67.483320
70
0
0
VERTEX
8
Layer 1
10
30.815601
20
67.759072
70
0
0
VERTEX
8
Layer 1
10
31.689018
20
68.837652
70
0
0
VERTEX
8
Layer 1
10
30.610438
20
69.711070
70
0
0
VERTEX
8
Layer 1
10
30.056351
20
69.875207
70
0
0
VERTEX
8
Layer 1
10
29.548499
20
69.599456
70
0
0
VERTEX
8
Layer 1
10
29.401000
20
69.097194
70
0
0
VERTEX
8
Layer 1
10
29.615590
20
68.619727
70
0
0
VERTEX
8
Layer 1
10
29.477878
20
68.155234
70
0
0
VERTEX
8
Layer 1
10
29.477878
20
68.155234
70
0
0
SEQEND
8
Layer 1
0
POLYLINE
8
Layer 1
62
7
70
1
10
0.000000
20
0.000000
66
1
0
VERTEX
8
Layer 1
10
25.484187
20
67.122654
70
0
0
VERTEX
8
Layer 1
10
25.759971
20
66.614879
70
0
0
VERTEX
8
Layer 1
10
26.313977
20
66.450807
70
0
0
VERTEX
8
Layer 1
10
26.821764
20
66.726477
70
0
0
VERTEX
8
Layer 1
10
28.237752
20
68.474911
70
0
0
VERTEX
8
Layer 1
10
26.489187
20
69.890736
70
0
0
VERTEX
8
Layer 1
10
25.935182
20
70.054808
70
0
0
VERTEX
8
Layer 1
10
25.427395
20
69.779138
70
0
0
VERTEX
8
Layer 1
10
25.263323
20
69.225132
70
0
0
VERTEX
8
Layer 1
10
25.538994
20
68.717346
70
0
0
VERTEX
8
Layer 1
10
26.113873
20
68.251682
70
0
0
VERTEX
8
Layer 1
10
25.648373
20
67.676671
70
0
0
VERTEX
8
Layer 1
10
25.484187
20
67.122654
70
0
0
VERTEX
8
Layer 1
10
25.484187
20
67.122654
70
0
0
SEQEND
8
Layer 1
0
POLYLINE
8
Layer 1
62
7
70
0
10
0.000000
20
0.000000
66
1
0
VERTEX
8
Layer 1
10
21.226741
20
65.387249
70
0
0
VERTEX
8
Layer 1
10
21.502525
20
64.879474
70
0
0
VERTEX
8
Layer 1
10
22.056531
20
64.715402
70
0
0
VERTEX
8
Layer 1
10
22.564317
20
64.991072
70
0
0
VERTEX
8
Layer 1
10
25.120276
20
68.147251
70
0
0
VERTEX
8
Layer 1
10
21.963966
20
70.703048
70
0
0
VERTEX
8
Layer 1
10
21.409960
20
70.867120
70
0
0
VERTEX
8
Layer 1
10
20.902174
20
70.591449
70
0
0
VERTEX
8
Layer 1
10
20.738102
20
70.037444
70
0
0
VERTEX
8
Layer 1
10
21.013772
20
69.529656
70
0
0
VERTEX
8
Layer 1
10
22.996544
20
67.924039
70
0
0
VERTEX
8
Layer 1
10
21.390926
20
65.941267
70
0
0
VERTEX
8
Layer 1
10
21.226741
20
65.387249
70
0
0
VERTEX
8
Layer 1
10
21.226741
20
65.387249
70
0
0
SEQEND
8
Layer 1
0
POLYLINE
8
Layer 1
62
7
70
0
10
0.000000
20
0.000000
66
1
0
VERTEX
8
Layer 1
10
24.537464
20
81.431774
70
0
0
VERTEX
8
Layer 1
10
24.672436
20
80.869905
70
0
0
VERTEX
8
Layer 1
10
33.548191
20
68.653471
70
0
0
VERTEX
8
Layer 1
10
34.040900
20
68.351545
70
0
0
VERTEX
8
Layer 1
10
34.602793
20
68.486443
70
0
0
VERTEX
8
Layer 1
10
34.904719
20
68.979152
70
0
0
VERTEX
8
Layer 1
10
34.769821
20
69.541045
70
0
0
VERTEX
8
Layer 1
10
25.894066
20
81.757479
70
0
0
VERTEX
8
Layer 1
10
25.401357
20
82.059405
70
0
0
VERTEX
8
Layer 1
10
24.839464
20
81.924506
70
0
0
VERTEX
8
Layer 1
10
24.537464
20
81.431774
70
0
0
VERTEX
8
Layer 1
10
24.537464
20
81.431774
70
0
0
SEQEND
8
Layer 1
0
POLYLINE
8
Layer 1
62
7
70
0
10
0.000000
20
0.000000
66
1
0
VERTEX
8
Layer 1
10
30.700688
20
72.187432
70
0
0
VERTEX
8
Layer 1
10
30.835608
20
71.625482
70
0
0
VERTEX
8
Layer 1
10
31.328393
20
71.323564
70
0
0
VERTEX
8
Layer 1
10
32.699196
20
71.106440
70
0
0
VERTEX
8
Layer 1
10
32.916306
20
72.477389
70
0
0
VERTEX
8
Layer 1
10
32.781392
20
73.039205
70
0
0
VERTEX
8
Layer 1
10
32.288762
20
73.341125
70
0
0
VERTEX
8
Layer 1
10
31.779982
20
73.217754
70
0
0
VERTEX
8
Layer 1
10
31.473750
20
72.793138
70
0
0
VERTEX
8
Layer 1
10
30.975281
20
72.633153
70
0
0
VERTEX
8
Layer 1
10
30.700688
20
72.187432
70
0
0
VERTEX
8
Layer 1
10
30.700688
20
72.187432
70
0
0
SEQEND
8
Layer 1
0
POLYLINE
8
Layer 1
62
7
70
0
10
0.000000
20
0.000000
66
1
0
VERTEX
8
Layer 1
10
27.809644
20
75.129790
70
0
0
VERTEX
8
Layer 1
10
27.944558
20
74.567973
70
0
0
VERTEX
8
Layer 1
10
28.437187
20
74.266053
70
0
0
VERTEX
8
Layer 1
10
30.659333
20
73.914066
70
0
0
VERTEX
8
Layer 1
10
31.011321
20
76.136212
70
0
0
VERTEX
8
Layer 1
10
30.876460
20
76.698127
70
0
0
VERTEX
8
Layer 1
10
30.383762
20
77.000096
70
0
0
VERTEX
8
Layer 1
10
29.821812
20
76.865176
70
0
0
VERTEX
8
Layer 1
10
29.519894
20
76.372390
70
0
0
VERTEX
8
Layer 1
10
29.404232
20
75.641686
70
0
0
VERTEX
8
Layer 1
10
28.673511
20
75.757495
70
0
0
VERTEX
8
Layer 1
10
28.111561
20
75.622575
70
0
0
VERTEX
8
Layer 1
10
27.809644
20
75.129790
70
0
0
VERTEX
8
Layer 1
10
27.809644
20
75.129790
70
0
0
SEQEND
8
Layer 1
0
POLYLINE
8
Layer 1
62
7
70
0
10
0.000000
20
0.000000
66
1
0
VERTEX
8
Layer 1
10
24.177977
20
77.949229
70
0
0
VERTEX
8
Layer 1
10
24.312837
20
77.387314
70
0
0
VERTEX
8
Layer 1
10
24.805536
20
77.085346
70
0
0
VERTEX
8
Layer 1
10
28.816909
20
76.450043
70
0
0
VERTEX
8
Layer 1
10
29.452212
20
80.461416
70
0
0
VERTEX
8
Layer 1
10
29.317299
20
81.023232
70
0
0
VERTEX
8
Layer 1
10
28.824669
20
81.325152
70
0
0
VERTEX
8
Layer 1
10
28.262755
20
81.190291
70
0
0
VERTEX
8
Layer 1
10
27.960787
20
80.697594
70
0
0
VERTEX
8
Layer 1
10
27.561660
20
78.177647
70
0
0
VERTEX
8
Layer 1
10
25.041860
20
78.576788
70
0
0
VERTEX
8
Layer 1
10
24.479945
20
78.441927
70
0
0
VERTEX
8
Layer 1
10
24.177977
20
77.949229
70
0
0
VERTEX
8
Layer 1
10
24.177977
20
77.949229
70
0
0
SEQEND
8
Layer 1
0
POLYLINE
8
Layer 1
62
7
70
0
10
0.000000
20
0.000000
66
1
0
VERTEX
8
Layer 1
10
33.454067
20
68.826700
70
0
0
VERTEX
8
Layer 1
10
33.851912
20
68.407523
70
0
0
VERTEX
8
Layer 1
10
34.429573
20
68.392396
70
0
0
VERTEX
8
Layer 1
10
34.848741
20
68.790164
70
0
0
VERTEX
8
Layer 1
10
40.990606
20
82.585010
70
0
0
VERTEX
8
Layer 1
10
41.005733
20
83.162671
70
0
0
VERTEX
8
Layer 1
10
40.607965
20
83.581839
70
0
0
VERTEX
8
Layer 1
10
40.030304
20
83.596966
70
0
0
VERTEX
8
Layer 1
10
39.611136
20
83.199198
70
0
0
VERTEX
8
Layer 1
10
33.469271
20
69.404352
70
0
0
VERTEX
8
Layer 1
10
33.454067
20
68.826700
70
0
0
VERTEX
8
Layer 1
10
33.454067
20
68.826700
70
0
0
SEQEND
8
Layer 1
0
POLYLINE
8
Layer 1
62
7
70
0
10
0.000000
20
0.000000
66
1
0
VERTEX
8
Layer 1
10
34.671783
20
72.661896
70
0
0
VERTEX
8
Layer 1
10
35.169184
20
71.366045
70
0
0
VERTEX
8
Layer 1
10
36.464889
20
71.863430
70
0
0
VERTEX
8
Layer 1
10
36.884134
20
72.261206
70
0
0
VERTEX
8
Layer 1
10
36.899270
20
72.838928
70
0
0
VERTEX
8
Layer 1
10
36.538007
20
73.217817
70
0
0
VERTEX
8
Layer 1
10
36.017168
20
73.270669
70
0
0
VERTEX
8
Layer 1
10
35.629345
20
73.622338
70
0
0
VERTEX
8
Layer 1
10
35.106033
20
73.637231
70
0
0
VERTEX
8
Layer 1
10
34.686941
20
73.239486
70
0
0
VERTEX
8
Layer 1
10
34.671783
20
72.661896
70
0
0
VERTEX
8
Layer 1
10
34.671783
20
72.661896
70
0
0
SEQEND
8
Layer 1
0
POLYLINE
8
Layer 1
62
7
70
0
10
0.000000
20
0.000000
66
1
0
VERTEX
8
Layer 1
10
35.774429
20
76.636834
70
0
0
VERTEX
8
Layer 1
10
36.580734
20
74.536429
70
0
0
VERTEX
8
Layer 1
10
38.681139
20
75.342734
70
0
0
VERTEX
8
Layer 1
10
39.100231
20
75.740479
70
0
0
VERTEX
8
Layer 1
10
39.115389
20
76.318069
70
0
0
VERTEX
8
Layer 1
10
38.717614
20
76.737314
70
0
0
VERTEX
8
Layer 1
10
38.139892
20
76.752450
70
0
0
VERTEX
8
Layer 1
10
37.449217
20
76.487246
70
0
0
VERTEX
8
Layer 1
10
37.184161
20
77.177935
70
0
0
VERTEX
8
Layer 1
10
36.786385
20
77.597181
70
0
0
VERTEX
8
Layer 1
10
36.208663
20
77.612316
70
0
0
VERTEX
8
Layer 1
10
35.789514
20
77.214509
70
0
0
VERTEX
8
Layer 1
10
35.774429
20
76.636834
70
0
0
VERTEX
8
Layer 1
10
35.774429
20
76.636834
70
0
0
SEQEND
8
Layer 1
0
POLYLINE
8
Layer 1
62
7
70
0
10
0.000000
20
0.000000
66
1
0
VERTEX
8
Layer 1
10
36.400208
20
81.191678
70
0
0
VERTEX
8
Layer 1
10
37.855639
20
77.400049
70
0
0
VERTEX
8
Layer 1
10
41.647268
20
78.855480
70
0
0
VERTEX
8
Layer 1
10
42.066417
20
79.253286
70
0
0
VERTEX
8
Layer 1
10
42.081503
20
79.830962
70
0
0
VERTEX
8
Layer 1
10
41.683696
20
80.250110
70
0
0
VERTEX
8
Layer 1
10
41.106020
20
80.265196
70
0
0
VERTEX
8
Layer 1
10
38.724269
20
79.350882
70
0
0
VERTEX
8
Layer 1
10
37.809940
20
81.732779
70
0
0
VERTEX
8
Layer 1
10
37.412133
20
82.151928
70
0
0
VERTEX
8
Layer 1
10
36.834458
20
82.167013
70
0
0
VERTEX
8
Layer 1
10
36.415366
20
81.769268
70
0
0
VERTEX
8
Layer 1
10
36.400208
20
81.191678
70
0
0
VERTEX
8
Layer 1
10
36.400208
20
81.191678
70
0
0
SEQEND
8
Layer 1
0
POLYLINE
8
Layer 1
62
7
70
0
10
0.000000
20
0.000000
66
1
0
VERTEX
8
Layer 1
10
21.645415
20
35.249150
70
0
0
VERTEX
8
Layer 1
10
21.561504
20
35.985630
70
0
0
VERTEX
8
Layer 1
10
20.981400
20
36.447065
70
0
0
VERTEX
8
Layer 1
10
2.362100
20
41.786065
70
0
0
VERTEX
8
Layer 1
10
1.978748
20
41.816814
70
0
0
VERTEX
8
Layer 1
10
1.625620
20
41.702154
70
0
0
VERTEX
8
Layer 1
10
1.341254
20
41.463445
70
0
0
VERTEX
8
Layer 1
10
1.164185
20
41.122050
70
0
0
VERTEX
8
Layer 1
10
1.133436
20
40.738698
70
0
0
VERTEX
8
Layer 1
10
1.248096
20
40.385570
70
0
0
VERTEX
8
Layer 1
10
1.486805
20
40.101204
70
0
0
VERTEX
8
Layer 1
10
1.828200
20
39.924135
70
0
0
VERTEX
8
Layer 1
10
20.447500
20
34.585135
70
0
0
VERTEX
8
Layer 1
10
21.183980
20
34.669046
70
0
0
VERTEX
8
Layer 1
10
21.645415
20
35.249150
70
0
0
VERTEX
8
Layer 1
10
21.645415
20
35.249150
70
0
0
SEQEND
8
Layer 1
0
POLYLINE
8
Layer 1
62
7
70
0
10
0.000000
20
0.000000
66
1
0
VERTEX
8
Layer 1
10
19.322003
20
35.915378
70
0
0
VERTEX
8
Layer 1
10
16.076811
20
41.770135
70
0
0
VERTEX
8
Layer 1
10
15.496693
20
42.231598
70
0
0
VERTEX
8
Layer 1
10
14.760186
20
42.147672
70
0
0
VERTEX
8
Layer 1
10
14.298724
20
41.567553
70
0
0
VERTEX
8
Layer 1
10
14.382650
20
40.831047
70
0
0
VERTEX
8
Layer 1
10
16.688936
20
36.670398
70
0
0
VERTEX
8
Layer 1
10
12.528286
20
34.364113
70
0
0
VERTEX
8
Layer 1
10
12.066824
20
33.783995
70
0
0
VERTEX
8
Layer 1
10
12.150750
20
33.047489
70
0
0
VERTEX
8
Layer 1
10
12.730869
20
32.586027
70
0
0
VERTEX
8
Layer 1
10
13.467375
20
32.669953
70
0
0
VERTEX
8
Layer 1
10
19.322003
20
35.915378
70
0
0
SEQEND
8
Layer 1
0
POLYLINE
8
Layer 1
62
7
70
0
10
0.000000
20
0.000000
66
1
0
VERTEX
8
Layer 1
10
14.484258
20
37.302579
70
0
0
VERTEX
8
Layer 1
10
11.499900
20
42.686230
70
0
0
VERTEX
8
Layer 1
10
11.250583
20
42.978984
70
0
0
VERTEX
8
Layer 1
10
10.919846
20
43.147576
70
0
0
VERTEX
8
Layer 1
10
10.550024
20
43.179866
70
0
0
VERTEX
8
Layer 1
10
10.183456
20
43.063714
70
0
0
VERTEX
8
Layer 1
10
9.890703
20
42.814398
70
0
0
VERTEX
8
Layer 1
10
9.722111
20
42.483661
70
0
0
VERTEX
8
Layer 1
10
9.689821
20
42.113839
70
0
0
VERTEX
8
Layer 1
10
9.805972
20
41.747271
70
0
0
VERTEX
8
Layer 1
10
11.851190
20
38.057600
70
0
0
VERTEX
8
Layer 1
10
8.161519
20
36.012382
70
0
0
VERTEX
8
Layer 1
10
7.868765
20
35.763065
70
0
0
VERTEX
8
Layer 1
10
7.700173
20
35.432328
70
0
0
VERTEX
8
Layer 1
10
7.667883
20
35.062507
70
0
0
VERTEX
8
Layer 1
10
7.784035
20
34.695938
70
0
0
VERTEX
8
Layer 1
10
8.033351
20
34.403185
70
0
0
VERTEX
8
Layer 1
10
8.364088
20
34.234593
70
0
0
VERTEX
8
Layer 1
10
8.733910
20
34.202303
70
0
0
VERTEX
8
Layer 1
10
9.100478
20
34.318454
70
0
0
VERTEX
8
Layer 1
10
14.484258
20
37.302579
70
0
0
SEQEND
8
Layer 1
0
POLYLINE
8
Layer 1
62
7
70
0
10
0.000000
20
0.000000
66
1
0
VERTEX
8
Layer 1
10
8.907196
20
38.901777
70
0
0
VERTEX
8
Layer 1
10
7.238469
20
41.912240
70
0
0
VERTEX
8
Layer 1
10
6.658351
20
42.373702
70
0
0
VERTEX
8
Layer 1
10
5.921844
20
42.289776
70
0
0
VERTEX
8
Layer 1
10
5.629091
20
42.040460
70
0
0
VERTEX
8
Layer 1
10
5.460499
20
41.709722
70
0
0
VERTEX
8
Layer 1
10
5.428209
20
41.339901
70
0
0
VERTEX
8
Layer 1
10
5.544360
20
40.973333
70
0
0
VERTEX
8
Layer 1
10
6.274128
20
39.656797
70
0
0
VERTEX
8
Layer 1
10
4.957592
20
38.927029
70
0
0
VERTEX
8
Layer 1
10
4.664838
20
38.677713
70
0
0
VERTEX
8
Layer 1
10
4.496247
20
38.346975
70
0
0
VERTEX
8
Layer 1
10
4.463956
20
37.977154
70
0
0
VERTEX
8
Layer 1
10
4.580108
20
37.610586
70
0
0
VERTEX
8
Layer 1
10
5.160226
20
37.149124
70
0
0
VERTEX
8
Layer 1
10
5.896733
20
37.233050
70
0
0
VERTEX
8
Layer 1
10
8.907196
20
38.901777
70
0
0
SEQEND
8
Layer 1
0
POLYLINE
8
Layer 1
62
7
70
0
10
0.000000
20
0.000000
66
1
0
VERTEX
8
Layer 1
10
21.544693
20
35.017299
70
0
0
VERTEX
8
Layer 1
10
21.654156
20
35.750400
70
0
0
VERTEX
8
Layer 1
10
16.968215
20
54.544686
70
0
0
VERTEX
8
Layer 1
10
16.803167
20
54.892048
70
0
0
VERTEX
8
Layer 1
10
16.527305
20
55.140530
70
0
0
VERTEX
8
Layer 1
10
16.178397
20
55.267442
70
0
0
VERTEX
8
Layer 1
10
15.794210
20
55.250091
70
0
0
VERTEX
8
Layer 1
10
15.446849
20
55.085043
70
0
0
VERTEX
8
Layer 1
10
15.198366
20
54.809182
70
0
0
VERTEX
8
Layer 1
10
15.071453
20
54.460274
70
0
0
VERTEX
8
Layer 1
10
15.088804
20
54.076087
70
0
0
VERTEX
8
Layer 1
10
19.774744
20
35.281800
70
0
0
VERTEX
8
Layer 1
10
19.939793
20
34.934439
70
0
0
VERTEX
8
Layer 1
10
20.215654
20
34.685956
70
0
0
VERTEX
8
Layer 1
10
20.564562
20
34.559044
70
0
0
VERTEX
8
Layer 1
10
20.948750
20
34.576394
70
0
0
VERTEX
8
Layer 1
10
21.544693
20
35.017299
70
0
0
VERTEX
8
Layer 1
10
21.544693
20
35.017299
70
0
0
SEQEND
8
Layer 1
0
POLYLINE
8
Layer 1
62
7
70
0
10
0.000000
20
0.000000
66
1
0
VERTEX
8
Layer 1
10
23.811821
20
42.659504
70
0
0
VERTEX
8
Layer 1
10
23.940679
20
43.021835
70
0
0
VERTEX
8
Layer 1
10
23.921274
20
43.392586
70
0
0
VERTEX
8
Layer 1
10
23.764269
20
43.729011
70
0
0
VERTEX
8
Layer 1
10
23.480327
20
43.988366
70
0
0
VERTEX
8
Layer 1
10
22.747224
20
44.097983
70
0
0
VERTEX
8
Layer 1
10
22.151335
20
43.657106
70
0
0
VERTEX
8
Layer 1
10
19.701257
20
39.579485
70
0
0
VERTEX
8
Layer 1
10
15.623817
20
42.029511
70
0
0
VERTEX
8
Layer 1
10
14.890713
20
42.139128
70
0
0
VERTEX
8
Layer 1
10
14.294824
20
41.698250
70
0
0
VERTEX
8
Layer 1
10
14.185207
20
40.965148
70
0
0
VERTEX
8
Layer 1
10
14.626084
20
40.369259
70
0
0
VERTEX
8
Layer 1
10
20.364010
20
36.921630
70
0
0
VERTEX
8
Layer 1
10
23.811821
20
42.659504
70
0
0
SEQEND
8
Layer 1
0
POLYLINE
8
Layer 1
62
7
70
0
10
0.000000
20
0.000000
66
1
0
VERTEX
8
Layer 1
10
22.316704
20
47.081077
70
0
0
VERTEX
8
Layer 1
10
22.426321
20
47.814180
70
0
0
VERTEX
8
Layer 1
10
21.985445
20
48.410069
70
0
0
VERTEX
8
Layer 1
10
21.252341
20
48.519686
70
0
0
VERTEX
8
Layer 1
10
20.656452
20
48.078809
70
0
0
VERTEX
8
Layer 1
10
18.483763
20
44.462791
70
0
0
VERTEX
8
Layer 1
10
14.867746
20
46.635480
70
0
0
VERTEX
8
Layer 1
10
14.505456
20
46.764352
70
0
0
VERTEX
8
Layer 1
10
14.134734
20
46.744988
70
0
0
VERTEX
8
Layer 1
10
13.798316
20
46.588041
70
0
0
VERTEX
8
Layer 1
10
13.538935
20
46.304169
70
0
0
VERTEX
8
Layer 1
10
13.429317
20
45.571065
70
0
0
VERTEX
8
Layer 1
10
13.870194
20
44.975176
70
0
0
VERTEX
8
Layer 1
10
19.146517
20
41.804936
70
0
0
VERTEX
8
Layer 1
10
22.316704
20
47.081077
70
0
0
SEQEND
8
Layer 1
0
POLYLINE
8
Layer 1
62
7
70
0
10
0.000000
20
0.000000
66
1
0
VERTEX
8
Layer 1
10
19.515750
20
50.384717
70
0
0
VERTEX
8
Layer 1
10
19.625367
20
51.117820
70
0
0
VERTEX
8
Layer 1
10
19.184489
20
51.713709
70
0
0
VERTEX
8
Layer 1
10
18.451387
20
51.823326
70
0
0
VERTEX
8
Layer 1
10
17.855498
20
51.382449
70
0
0
VERTEX
8
Layer 1
10
17.080140
20
50.092135
70
0
0
VERTEX
8
Layer 1
10
15.790007
20
50.867441
70
0
0
VERTEX
8
Layer 1
10
15.427675
20
50.996299
70
0
0
VERTEX
8
Layer 1
10
15.056925
20
50.976894
70
0
0
VERTEX
8
Layer 1
10
14.720500
20
50.819889
70
0
0
VERTEX
8
Layer 1
10
14.461145
20
50.535947
70
0
0
VERTEX
8
Layer 1
10
14.332273
20
50.173657
70
0
0
VERTEX
8
Layer 1
10
14.351638
20
49.802935
70
0
0
VERTEX
8
Layer 1
10
14.508584
20
49.466517
70
0
0
VERTEX
8
Layer 1
10
14.792456
20
49.207137
70
0
0
VERTEX
8
Layer 1
10
17.742893
20
47.434280
70
0
0
VERTEX
8
Layer 1
10
19.515750
20
50.384717
70
0
0
SEQEND
8
Layer 1
0
POLYLINE
8
Layer 1
62
7
70
0
10
0.000000
20
0.000000
66
1
0
VERTEX
8
Layer 1
10
35.616220
20
48.954432
70
0
0
VERTEX
8
Layer 1
10
35.344475
20
49.644141
70
0
0
VERTEX
8
Layer 1
10
35.027860
20
49.862444
70
0
0
VERTEX
8
Layer 1
10
34.664716
20
49.939710
70
0
0
VERTEX
8
Layer 1
10
34.299097
20
49.875169
70
0
0
VERTEX
8
Layer 1
10
33.975054
20
49.668052
70
0
0
VERTEX
8
Layer 1
10
20.041694
20
36.212765
70
0
0
VERTEX
8
Layer 1
10
19.823392
20
35.896151
70
0
0
VERTEX
8
Layer 1
10
19.746126
20
35.533007
70
0
0
VERTEX
8
Layer 1
10
19.810668
20
35.167387
70
0
0
VERTEX
8
Layer 1
10
20.017785
20
34.843344
70
0
0
VERTEX
8
Layer 1
10
20.334399
20
34.625042
70
0
0
VERTEX
8
Layer 1
10
20.697543
20
34.547776
70
0
0
VERTEX
8
Layer 1
10
21.063163
20
34.612318
70
0
0
VERTEX
8
Layer 1
10
21.387206
20
34.819435
70
0
0
VERTEX
8
Layer 1
10
35.320565
20
48.274721
70
0
0
VERTEX
8
Layer 1
10
35.616220
20
48.954432
70
0
0
VERTEX
8
Layer 1
10
35.616220
20
48.954432
70
0
0
SEQEND
8
Layer 1
0
POLYLINE
8
Layer 1
62
7
70
0
10
0.000000
20
0.000000
66
1
0
VERTEX
8
Layer 1
10
29.434642
20
37.356976
70
0
0
VERTEX
8
Layer 1
10
29.162929
20
38.046635
70
0
0
VERTEX
8
Layer 1
10
28.483134
20
38.342160
70
0
0
VERTEX
8
Layer 1
10
23.726953
20
38.425135
70
0
0
VERTEX
8
Layer 1
10
23.809980
20
43.181498
70
0
0
VERTEX
8
Layer 1
10
23.538267
20
43.871155
70
0
0
VERTEX
8
Layer 1
10
22.858472
20
44.166680
70
0
0
VERTEX
8
Layer 1
10
22.480238
20
44.097201
70
0
0
VERTEX
8
Layer 1
10
22.168812
20
43.895097
70
0
0
VERTEX
8
Layer 1
10
21.955887
20
43.590965
70
0
0
VERTEX
8
Layer 1
10
21.873159
20
43.215406
70
0
0
VERTEX
8
Layer 1
10
21.756458
20
36.522352
70
0
0
VERTEX
8
Layer 1
10
28.449460
20
36.405468
70
0
0
VERTEX
8
Layer 1
10
29.139117
20
36.677182
70
0
0
VERTEX
8
Layer 1
10
29.434642
20
37.356976
70
0
0
VERTEX
8
Layer 1
10
29.434642
20
37.356976
70
0
0
SEQEND
8
Layer 1
0
POLYLINE
8
Layer 1
62
7
70
0
10
0.000000
20
0.000000
66
1
0
VERTEX
8
Layer 1
10
32.516438
20
40.862455
70
0
0
VERTEX
8
Layer 1
10
32.446901
20
41.240644
70
0
0
VERTEX
8
Layer 1
10
32.244771
20
41.552017
70
0
0
VERTEX
8
Layer 1
10
31.940642
20
41.764891
70
0
0
VERTEX
8
Layer 1
10
31.565111
20
41.847586
70
0
0
VERTEX
8
Layer 1
10
27.347205
20
41.921239
70
0
0
VERTEX
8
Layer 1
10
27.420859
20
46.139146
70
0
0
VERTEX
8
Layer 1
10
27.149145
20
46.828805
70
0
0
VERTEX
8
Layer 1
10
26.469350
20
47.124329
70
0
0
VERTEX
8
Layer 1
10
25.779692
20
46.852616
70
0
0
VERTEX
8
Layer 1
10
25.484167
20
46.172822
70
0
0
VERTEX
8
Layer 1
10
25.376709
20
40.018457
70
0
0
VERTEX
8
Layer 1
10
31.531256
20
39.910947
70
0
0
VERTEX
8
Layer 1
10
32.220914
20
40.182660
70
0
0
VERTEX
8
Layer 1
10
32.516438
20
40.862455
70
0
0
VERTEX
8
Layer 1
10
32.516438
20
40.862455
70
0
0
SEQEND
8
Layer 1
0
POLYLINE
8
Layer 1
62
7
70
0
10
0.000000
20
0.000000
66
1
0
VERTEX
8
Layer 1
10
33.976861
20
44.939903
70
0
0
VERTEX
8
Layer 1
10
33.907382
20
45.318137
70
0
0
VERTEX
8
Layer 1
10
33.705278
20
45.629564
70
0
0
VERTEX
8
Layer 1
10
33.401147
20
45.842488
70
0
0
VERTEX
8
Layer 1
10
33.025588
20
45.925216
70
0
0
VERTEX
8
Layer 1
10
31.520643
20
45.951386
70
0
0
VERTEX
8
Layer 1
10
31.546865
20
47.456512
70
0
0
VERTEX
8
Layer 1
10
31.275152
20
48.146169
70
0
0
VERTEX
8
Layer 1
10
30.595357
20
48.441694
70
0
0
VERTEX
8
Layer 1
10
29.905699
20
48.169981
70
0
0
VERTEX
8
Layer 1
10
29.610174
20
47.490187
70
0
0
VERTEX
8
Layer 1
10
29.550147
20
44.048603
70
0
0
VERTEX
8
Layer 1
10
32.991731
20
43.988577
70
0
0
VERTEX
8
Layer 1
10
33.369919
20
44.058115
70
0
0
VERTEX
8
Layer 1
10
33.681292
20
44.260245
70
0
0
VERTEX
8
Layer 1
10
33.894166
20
44.564372
70
0
0
VERTEX
8
Layer 1
10
33.976861
20
44.939903
70
0
0
VERTEX
8
Layer 1
10
33.976861
20
44.939903
70
0
0
SEQEND
8
Layer 1
0
POLYLINE
8
Layer 1
62
7
70
1
10
0.000000
20
0.000000
66
1
0
VERTEX
8
Layer 1
10
40.264715
20
29.910150
70
0
0
VERTEX
8
Layer 1
10
40.180804
20
30.646630
70
0
0
VERTEX
8
Layer 1
10
39.600700
20
31.108065
70
0
0
VERTEX
8
Layer 1
10
20.981400
20
36.447065
70
0
0
VERTEX
8
Layer 1
10
20.598048
20
36.477814
70
0
0
VERTEX
8
Layer 1
10
20.244920
20
36.363154
70
0
0
VERTEX
8
Layer 1
10
19.960554
20
36.124445
70
0
0
VERTEX
8
Layer 1
10
19.783485
20
35.783050
70
0
0
VERTEX
8
Layer 1
10
19.867396
20
35.046570
70
0
0
VERTEX
8
Layer 1
10
20.447500
20
34.585135
70
0
0
VERTEX
8
Layer 1
10
39.066800
20
29.246135
70
0
0
VERTEX
8
Layer 1
10
39.450152
20
29.215386
70
0
0
VERTEX
8
Layer 1
10
39.803280
20
29.330046
70
0
0
VERTEX
8
Layer 1
10
40.087646
20
29.568755
70
0
0
VERTEX
8
Layer 1
10
40.264715
20
29.910150
70
0
0
VERTEX
8
Layer 1
10
40.264715
20
29.910150
70
0
0
SEQEND
8
Layer 1
0
POLYLINE
8
Layer 1
62
7
70
0
10
0.000000
20
0.000000
66
1
0
VERTEX
8
Layer 1
10
29.362099
20
37.248100
70
0
0
VERTEX
8
Layer 1
10
29.278150
20
37.984711
70
0
0
VERTEX
8
Layer 1
10
28.698031
20
38.446173
70
0
0
VERTEX
8
Layer 1
10
27.961525
20
38.362247
70
0
0
VERTEX
8
Layer 1
10
22.106897
20
35.116822
70
0
0
VERTEX
8
Layer 1
10
25.352089
20
29.262065
70
0
0
VERTEX
8
Layer 1
10
25.932207
20
28.800602
70
0
0
VERTEX
8
Layer 1
10
26.668714
20
28.884528
70
0
0
VERTEX
8
Layer 1
10
27.130176
20
29.464647
70
0
0
VERTEX
8
Layer 1
10
27.046250
20
30.201153
70
0
0
VERTEX
8
Layer 1
10
24.739964
20
34.361802
70
0
0
VERTEX
8
Layer 1
10
28.900614
20
36.668087
70
0
0
VERTEX
8
Layer 1
10
29.362099
20
37.248100
70
0
0
VERTEX
8
Layer 1
10
29.362099
20
37.248100
70
0
0
SEQEND
8
Layer 1
0
POLYLINE
8
Layer 1
62
7
70
0
10
0.000000
20
0.000000
66
1
0
VERTEX
8
Layer 1
10
33.728867
20
35.599831
70
0
0
VERTEX
8
Layer 1
10
33.644865
20
36.336262
70
0
0
VERTEX
8
Layer 1
10
33.395549
20
36.629015
70
0
0
VERTEX
8
Layer 1
10
33.064812
20
36.797607
70
0
0
VERTEX
8
Layer 1
10
32.694990
20
36.829897
70
0
0
VERTEX
8
Layer 1
10
32.328422
20
36.713746
70
0
0
VERTEX
8
Layer 1
10
26.944643
20
33.729620
70
0
0
VERTEX
8
Layer 1
10
29.929000
20
28.345970
70
0
0
VERTEX
8
Layer 1
10
30.178317
20
28.053216
70
0
0
VERTEX
8
Layer 1
10
30.509054
20
27.884624
70
0
0
VERTEX
8
Layer 1
10
30.878876
20
27.852334
70
0
0
VERTEX
8
Layer 1
10
31.245444
20
27.968486
70
0
0
VERTEX
8
Layer 1
10
31.538197
20
28.217802
70
0
0
VERTEX
8
Layer 1
10
31.706789
20
28.548539
70
0
0
VERTEX
8
Layer 1
10
31.739079
20
28.918361
70
0
0
VERTEX
8
Layer 1
10
31.622928
20
29.284929
70
0
0
VERTEX
8
Layer 1
10
29.577710
20
32.974600
70
0
0
VERTEX
8
Layer 1
10
33.267381
20
35.019818
70
0
0
VERTEX
8
Layer 1
10
33.728867
20
35.599831
70
0
0
VERTEX
8
Layer 1
10
33.728867
20
35.599831
70
0
0
SEQEND
8
Layer 1
0
POLYLINE
8
Layer 1
62
7
70
0
10
0.000000
20
0.000000
66
1
0
VERTEX
8
Layer 1
10
36.932794
20
32.685185
70
0
0
VERTEX
8
Layer 1
10
36.848792
20
33.421614
70
0
0
VERTEX
8
Layer 1
10
36.268674
20
33.883076
70
0
0
VERTEX
8
Layer 1
10
35.532167
20
33.799150
70
0
0
VERTEX
8
Layer 1
10
32.521705
20
32.130423
70
0
0
VERTEX
8
Layer 1
10
34.190431
20
29.119960
70
0
0
VERTEX
8
Layer 1
10
34.770549
20
28.658498
70
0
0
VERTEX
8
Layer 1
10
35.507056
20
28.742424
70
0
0
VERTEX
8
Layer 1
10
35.799809
20
28.991740
70
0
0
VERTEX
8
Layer 1
10
35.968401
20
29.322478
70
0
0
VERTEX
8
Layer 1
10
36.000691
20
29.692299
70
0
0
VERTEX
8
Layer 1
10
35.884540
20
30.058867
70
0
0
VERTEX
8
Layer 1
10
35.154772
20
31.375403
70
0
0
VERTEX
8
Layer 1
10
36.471308
20
32.105171
70
0
0
VERTEX
8
Layer 1
10
36.932794
20
32.685185
70
0
0
VERTEX
8
Layer 1
10
36.932794
20
32.685185
70
0
0
SEQEND
8
Layer 1
0
POLYLINE
8
Layer 1
62
7
70
0
10
0.000000
20
0.000000
66
1
0
VERTEX
8
Layer 1
10
26.230634
20
16.223012
70
0
0
VERTEX
8
Layer 1
10
26.340096
20
16.956113
70
0
0
VERTEX
8
Layer 1
10
21.654156
20
35.750400
70
0
0
VERTEX
8
Layer 1
10
21.489107
20
36.097761
70
0
0
VERTEX
8
Layer 1
10
21.213246
20
36.346244
70
0
0
VERTEX
8
Layer 1
10
20.864338
20
36.473156
70
0
0
VERTEX
8
Layer 1
10
20.480150
20
36.455806
70
0
0
VERTEX
8
Layer 1
10
20.132789
20
36.290757
70
0
0
VERTEX
8
Layer 1
10
19.884306
20
36.014896
70
0
0
VERTEX
8
Layer 1
10
19.757394
20
35.665988
70
0
0
VERTEX
8
Layer 1
10
19.774744
20
35.281800
70
0
0
VERTEX
8
Layer 1
10
24.460685
20
16.487514
70
0
0
VERTEX
8
Layer 1
10
24.625733
20
16.140152
70
0
0
VERTEX
8
Layer 1
10
24.901595
20
15.891670
70
0
0
VERTEX
8
Layer 1
10
25.250503
20
15.764758
70
0
0
VERTEX
8
Layer 1
10
25.634690
20
15.782109
70
0
0
VERTEX
8
Layer 1
10
26.230634
20
16.223012
70
0
0
VERTEX
8
Layer 1
10
26.230634
20
16.223012
70
0
0
SEQEND
8
Layer 1
0
POLYLINE
8
Layer 1
62
7
70
0
10
0.000000
20
0.000000
66
1
0
VERTEX
8
Layer 1
10
27.134076
20
29.333950
70
0
0
VERTEX
8
Layer 1
10
27.243693
20
30.067052
70
0
0
VERTEX
8
Layer 1
10
26.802816
20
30.662941
70
0
0
VERTEX
8
Layer 1
10
21.064890
20
34.110571
70
0
0
VERTEX
8
Layer 1
10
17.617079
20
28.372696
70
0
0
VERTEX
8
Layer 1
10
17.488221
20
28.010365
70
0
0
VERTEX
8
Layer 1
10
17.507626
20
27.639614
70
0
0
VERTEX
8
Layer 1
10
17.664631
20
27.303189
70
0
0
VERTEX
8
Layer 1
10
17.948573
20
27.043834
70
0
0
VERTEX
8
Layer 1
10
18.681676
20
26.934217
70
0
0
VERTEX
8
Layer 1
10
19.277565
20
27.375094
70
0
0
VERTEX
8
Layer 1
10
21.727643
20
31.452715
70
0
0
VERTEX
8
Layer 1
10
25.805083
20
29.002689
70
0
0
VERTEX
8
Layer 1
10
26.538187
20
28.893072
70
0
0
VERTEX
8
Layer 1
10
27.134076
20
29.333950
70
0
0
VERTEX
8
Layer 1
10
27.134076
20
29.333950
70
0
0
SEQEND
8
Layer 1
0
POLYLINE
8
Layer 1
62
7
70
0
10
0.000000
20
0.000000
66
1
0
VERTEX
8
Layer 1
10
27.889965
20
24.728031
70
0
0
VERTEX
8
Layer 1
10
27.999583
20
25.461135
70
0
0
VERTEX
8
Layer 1
10
27.558706
20
26.057024
70
0
0
VERTEX
8
Layer 1
10
22.282383
20
29.227264
70
0
0
VERTEX
8
Layer 1
10
19.112196
20
23.951123
70
0
0
VERTEX
8
Layer 1
10
19.002579
20
23.218020
70
0
0
VERTEX
8
Layer 1
10
19.443455
20
22.622131
70
0
0
VERTEX
8
Layer 1
10
20.176559
20
22.512514
70
0
0
VERTEX
8
Layer 1
10
20.772448
20
22.953391
70
0
0
VERTEX
8
Layer 1
10
22.945137
20
26.569409
70
0
0
VERTEX
8
Layer 1
10
26.561154
20
24.396720
70
0
0
VERTEX
8
Layer 1
10
26.923444
20
24.267848
70
0
0
VERTEX
8
Layer 1
10
27.294166
20
24.287212
70
0
0
VERTEX
8
Layer 1
10
27.630584
20
24.444159
70
0
0
VERTEX
8
Layer 1
10
27.889965
20
24.728031
70
0
0
VERTEX
8
Layer 1
10
27.889965
20
24.728031
70
0
0
SEQEND
8
Layer 1
0
POLYLINE
8
Layer 1
62
7
70
0
10
0.000000
20
0.000000
66
1
0
VERTEX
8
Layer 1
10
26.967755
20
20.496253
70
0
0
VERTEX
8
Layer 1
10
27.096627
20
20.858543
70
0
0
VERTEX
8
Layer 1
10
27.077262
20
21.229265
70
0
0
VERTEX
8
Layer 1
10
26.920316
20
21.565683
70
0
0
VERTEX
8
Layer 1
10
26.636444
20
21.825063
70
0
0
VERTEX
8
Layer 1
10
23.686007
20
23.597920
70
0
0
VERTEX
8
Layer 1
10
21.913150
20
20.647483
70
0
0
VERTEX
8
Layer 1
10
21.803533
20
19.914380
70
0
0
VERTEX
8
Layer 1
10
22.244411
20
19.318491
70
0
0
VERTEX
8
Layer 1
10
22.977513
20
19.208874
70
0
0
VERTEX
8
Layer 1
10
23.573402
20
19.649751
70
0
0
VERTEX
8
Layer 1
10
24.348760
20
20.940065
70
0
0
VERTEX
8
Layer 1
10
25.638893
20
20.164759
70
0
0
VERTEX
8
Layer 1
10
26.001225
20
20.035901
70
0
0
VERTEX
8
Layer 1
10
26.371975
20
20.055306
70
0
0
VERTEX
8
Layer 1
10
26.708400
20
20.212311
70
0
0
VERTEX
8
Layer 1
10
26.967755
20
20.496253
70
0
0
VERTEX
8
Layer 1
10
26.967755
20
20.496253
70
0
0
SEQEND
8
Layer 1
0
POLYLINE
8
Layer 1
62
7
70
0
10
0.000000
20
0.000000
66
1
0
VERTEX
8
Layer 1
10
21.682861
20
35.499146
70
0
0
VERTEX
8
Layer 1
10
21.411115
20
36.188856
70
0
0
VERTEX
8
Layer 1
10
21.094501
20
36.407158
70
0
0
VERTEX
8
Layer 1
10
20.731357
20
36.484424
70
0
0
VERTEX
8
Layer 1
10
20.365737
20
36.419882
70
0
0
VERTEX
8
Layer 1
10
20.041694
20
36.212765
70
0
0
VERTEX
8
Layer 1
10
6.108335
20
22.757479
70
0
0
VERTEX
8
Layer 1
10
5.890032
20
22.440864
70
0
0
VERTEX
8
Layer 1
10
5.812767
20
22.077720
70
0
0
VERTEX
8
Layer 1
10
5.877309
20
21.712101
70
0
0
VERTEX
8
Layer 1
10
6.084425
20
21.388059
70
0
0
VERTEX
8
Layer 1
10
6.401040
20
21.169756
70
0
0
VERTEX
8
Layer 1
10
6.764184
20
21.092490
70
0
0
VERTEX
8
Layer 1
10
7.129803
20
21.157031
70
0
0
VERTEX
8
Layer 1
10
7.453846
20
21.364148
70
0
0
VERTEX
8
Layer 1
10
21.387206
20
34.819435
70
0
0
VERTEX
8
Layer 1
10
21.682861
20
35.499146
70
0
0
VERTEX
8
Layer 1
10
21.682861
20
35.499146
70
0
0
SEQEND
8
Layer 1
0
POLYLINE
8
Layer 1
62
7
70
0
10
0.000000
20
0.000000
66
1
0
VERTEX
8
Layer 1
10
19.555741
20
27.816794
70
0
0
VERTEX
8
Layer 1
10
19.672442
20
34.509849
70
0
0
VERTEX
8
Layer 1
10
12.979440
20
34.626732
70
0
0
VERTEX
8
Layer 1
10
12.289783
20
34.355018
70
0
0
VERTEX
8
Layer 1
10
11.994258
20
33.675224
70
0
0
VERTEX
8
Layer 1
10
12.265971
20
32.985565
70
0
0
VERTEX
8
Layer 1
10
12.945766
20
32.690040
70
0
0
VERTEX
8
Layer 1
10
17.701947
20
32.607065
70
0
0
VERTEX
8
Layer 1
10
17.618920
20
27.850702
70
0
0
VERTEX
8
Layer 1
10
17.890633
20
27.161045
70
0
0
VERTEX
8
Layer 1
10
18.570428
20
26.865520
70
0
0
VERTEX
8
Layer 1
10
18.948662
20
26.934999
70
0
0
VERTEX
8
Layer 1
10
19.260088
20
27.137103
70
0
0
VERTEX
8
Layer 1
10
19.473013
20
27.441235
70
0
0
VERTEX
8
Layer 1
10
19.555741
20
27.816794
70
0
0
VERTEX
8
Layer 1
10
19.555741
20
27.816794
70
0
0
SEQEND
8
Layer 1
0
POLYLINE
8
Layer 1
62
7
70
0
10
0.000000
20
0.000000
66
1
0
VERTEX
8
Layer 1
10
15.944733
20
24.859378
70
0
0
VERTEX
8
Layer 1
10
16.052191
20
31.013743
70
0
0
VERTEX
8
Layer 1
10
9.897644
20
31.121253
70
0
0
VERTEX
8
Layer 1
10
9.207986
20
30.849540
70
0
0
VERTEX
8
Layer 1
10
8.912462
20
30.169745
70
0
0
VERTEX
8
Layer 1
10
8.981999
20
29.791556
70
0
0
VERTEX
8
Layer 1
10
9.184129
20
29.480183
70
0
0
VERTEX
8
Layer 1
10
9.488258
20
29.267309
70
0
0
VERTEX
8
Layer 1
10
9.863789
20
29.184614
70
0
0
VERTEX
8
Layer 1
10
14.081695
20
29.110961
70
0
0
VERTEX
8
Layer 1
10
14.008041
20
24.893054
70
0
0
VERTEX
8
Layer 1
10
14.279755
20
24.203395
70
0
0
VERTEX
8
Layer 1
10
14.959550
20
23.907871
70
0
0
VERTEX
8
Layer 1
10
15.649208
20
24.179584
70
0
0
VERTEX
8
Layer 1
10
15.944733
20
24.859378
70
0
0
VERTEX
8
Layer 1
10
15.944733
20
24.859378
70
0
0
SEQEND
8
Layer 1
0
POLYLINE
8
Layer 1
62
7
70
0
10
0.000000
20
0.000000
66
1
0
VERTEX
8
Layer 1
10
11.818726
20
23.542013
70
0
0
VERTEX
8
Layer 1
10
11.878753
20
26.983597
70
0
0
VERTEX
8
Layer 1
10
8.437169
20
27.043623
70
0
0
VERTEX
8
Layer 1
10
8.058981
20
26.974085
70
0
0
VERTEX
8
Layer 1
10
7.747608
20
26.771955
70
0
0
VERTEX
8
Layer 1
10
7.534734
20
26.467828
70
0
0
VERTEX
8
Layer 1
10
7.452039
20
26.092297
70
0
0
VERTEX
8
Layer 1
10
7.521518
20
25.714063
70
0
0
VERTEX
8
Layer 1
10
7.723622
20
25.402636
70
0
0
VERTEX
8
Layer 1
10
8.027753
20
25.189712
70
0
0
VERTEX
8
Layer 1
10
8.403312
20
25.106984
70
0
0
VERTEX
8
Layer 1
10
9.908257
20
25.080814
70
0
0
VERTEX
8
Layer 1
10
9.882035
20
23.575688
70
0
0
VERTEX
8
Layer 1
10
10.153748
20
22.886031
70
0
0
VERTEX
8
Layer 1
10
10.833543
20
22.590506
70
0
0
VERTEX
8
Layer 1
10
11.523201
20
22.862219
70
0
0
VERTEX
8
Layer 1
10
11.818726
20
23.542013
70
0
0
VERTEX
8
Layer 1
10
11.818726
20
23.542013
70
0
0
SEQEND
8
Layer 1
0
POLYLINE
8
Layer 1
62
7
70
0
10
0.000000
20
0.000000
66
1
0
VERTEX
8
Layer 1
10
56.406457
20
28.726331
70
0
0
VERTEX
8
Layer 1
10
56.187698
20
28.289211
70
0
0
VERTEX
8
Layer 1
10
56.154687
20
27.818476
70
0
0
VERTEX
8
Layer 1
10
56.300599
20
27.369710
70
0
0
VERTEX
8
Layer 1
10
56.618609
20
26.998497
70
0
0
VERTEX
8
Layer 1
10
76.018469
20
11.841677
70
0
0
VERTEX
8
Layer 1
10
76.447356
20
11.625500
70
0
0
VERTEX
8
Layer 1
10
76.926324
20
11.589907
70
0
0
VERTEX
8
Layer 1
10
77.382453
20
11.740316
70
0
0
VERTEX
8
Layer 1
10
77.746303
20
12.053829
70
0
0
VERTEX
8
Layer 1
10
77.965062
20
12.490949
70
0
0
VERTEX
8
Layer 1
10
77.998073
20
12.961684
70
0
0
VERTEX
8
Layer 1
10
77.852161
20
13.410450
70
0
0
VERTEX
8
Layer 1
10
77.534151
20
13.781663
70
0
0
VERTEX
8
Layer 1
10
58.134291
20
28.938483
70
0
0
VERTEX
8
Layer 1
10
57.705404
20
29.154660
70
0
0
VERTEX
8
Layer 1
10
57.226436
20
29.190253
70
0
0
VERTEX
8
Layer 1
10
56.770307
20
29.039844
70
0
0
VERTEX
8
Layer 1
10
56.406457
20
28.726331
70
0
0
VERTEX
8
Layer 1
10
56.406457
20
28.726331
70
0
0
SEQEND
8
Layer 1
0
POLYLINE
8
Layer 1
62
7
70
0
10
0.000000
20
0.000000
66
1
0
VERTEX
8
Layer 1
10
59.107979
20
26.615626
70
0
0
VERTEX
8
Layer 1
10
60.022015
20
19.171428
70
0
0
VERTEX
8
Layer 1
10
60.172419
20
18.715278
70
0
0
VERTEX
8
Layer 1
10
60.485942
20
18.351412
70
0
0
VERTEX
8
Layer 1
10
60.914847
20
18.135230
70
0
0
VERTEX
8
Layer 1
10
61.393834
20
18.099646
70
0
0
VERTEX
8
Layer 1
10
61.849985
20
18.250051
70
0
0
VERTEX
8
Layer 1
10
62.213851
20
18.563573
70
0
0
VERTEX
8
Layer 1
10
62.430033
20
18.992479
70
0
0
VERTEX
8
Layer 1
10
62.465616
20
19.471466
70
0
0
VERTEX
8
Layer 1
10
61.851620
20
24.472060
70
0
0
VERTEX
8
Layer 1
10
66.852214
20
25.086059
70
0
0
VERTEX
8
Layer 1
10
67.308364
20
25.236463
70
0
0
VERTEX
8
Layer 1
10
67.672230
20
25.549986
70
0
0
VERTEX
8
Layer 1
10
67.888412
20
25.978891
70
0
0
VERTEX
8
Layer 1
10
67.923996
20
26.457878
70
0
0
VERTEX
8
Layer 1
10
67.773591
20
26.914029
70
0
0
VERTEX
8
Layer 1
10
67.460069
20
27.277895
70
0
0
VERTEX
8
Layer 1
10
67.031163
20
27.494076
70
0
0
VERTEX
8
Layer 1
10
66.552176
20
27.529660
70
0
0
VERTEX
8
Layer 1
10
59.107979
20
26.615626
70
0
0
SEQEND
8
Layer 1
0
POLYLINE
8
Layer 1
62
7
70
0
10
0.000000
20
0.000000
66
1
0
VERTEX
8
Layer 1
10
63.936915
20
22.842850
70
0
0
VERTEX
8
Layer 1
10
64.860149
20
15.323735
70
0
0
VERTEX
8
Layer 1
10
65.010553
20
14.867584
70
0
0
VERTEX
8
Layer 1
10
65.324075
20
14.503718
70
0
0
VERTEX
8
Layer 1
10
65.752981
20
14.287536
70
0
0
VERTEX
8
Layer 1
10
66.231969
20
14.251952
70
0
0
VERTEX
8
Layer 1
10
66.688120
20
14.402357
70
0
0
VERTEX
8
Layer 1
10
67.051986
20
14.715879
70
0
0
VERTEX
8
Layer 1
10
67.268168
20
15.144785
70
0
0
VERTEX
8
Layer 1
10
67.303752
20
15.623773
70
0
0
VERTEX
8
Layer 1
10
66.680555
20
20.699285
70
0
0
VERTEX
8
Layer 1
10
71.756067
20
21.322482
70
0
0
VERTEX
8
Layer 1
10
72.212218
20
21.472886
70
0
0
VERTEX
8
Layer 1
10
72.576085
20
21.786409
70
0
0
VERTEX
8
Layer 1
10
72.792267
20
22.215315
70
0
0
VERTEX
8
Layer 1
10
72.827850
20
22.694302
70
0
0
VERTEX
8
Layer 1
10
72.677446
20
23.150453
70
0
0
VERTEX
8
Layer 1
10
72.363923
20
23.514319
70
0
0
VERTEX
8
Layer 1
10
71.935017
20
23.730501
70
0
0
VERTEX
8
Layer 1
10
71.456030
20
23.766085
70
0
0
VERTEX
8
Layer 1
10
63.936915
20
22.842850
70
0
0
SEQEND
8
Layer 1
0
POLYLINE
8
Layer 1
62
7
70
0
10
0.000000
20
0.000000
66
1
0
VERTEX
8
Layer 1
10
69.179992
20
18.746512
70
0
0
VERTEX
8
Layer 1
10
69.931120
20
12.627698
70
0
0
VERTEX
8
Layer 1
10
70.081524
20
12.171547
70
0
0
VERTEX
8
Layer 1
10
70.395046
20
11.807681
70
0
0
VERTEX
8
Layer 1
10
70.823952
20
11.591499
70
0
0
VERTEX
8
Layer 1
10
71.302940
20
11.555916
70
0
0
VERTEX
8
Layer 1
10
71.759091
20
11.706320
70
0
0
VERTEX
8
Layer 1
10
72.122957
20
12.019843
70
0
0
VERTEX
8
Layer 1
10
72.339139
20
12.448749
70
0
0
VERTEX
8
Layer 1
10
72.374723
20
12.927736
70
0
0
VERTEX
8
Layer 1
10
71.923443
20
16.603095
70
0
0
VERTEX
8
Layer 1
10
75.598803
20
17.054373
70
0
0
VERTEX
8
Layer 1
10
76.054953
20
17.204778
70
0
0
VERTEX
8
Layer 1
10
76.418820
20
17.518300
70
0
0
VERTEX
8
Layer 1
10
76.635002
20
17.947206
70
0
0
VERTEX
8
Layer 1
10
76.670585
20
18.426194
70
0
0
VERTEX
8
Layer 1
10
76.520181
20
18.882345
70
0
0
VERTEX
8
Layer 1
10
76.206658
20
19.246211
70
0
0
VERTEX
8
Layer 1
10
75.777752
20
19.462393
70
0
0
VERTEX
8
Layer 1
10
75.298765
20
19.497976
70
0
0
VERTEX
8
Layer 1
10
69.179992
20
18.746512
70
0
0
SEQEND
8
Layer 1
0
POLYLINE
8
Layer 1
62
7
70
0
10
0.000000
20
0.000000
66
1
0
VERTEX
8
Layer 1
10
56.635482
20
28.951600
70
0
0
VERTEX
8
Layer 1
10
56.315724
20
28.593241
70
0
0
VERTEX
8
Layer 1
10
56.157440
20
28.139796
70
0
0
VERTEX
8
Layer 1
10
52.731179
20
3.760614
70
0
0
VERTEX
8
Layer 1
10
52.760293
20
3.272684
70
0
0
VERTEX
8
Layer 1
10
52.967074
20
2.848515
70
0
0
VERTEX
8
Layer 1
10
53.317818
20
2.532833
70
0
0
VERTEX
8
Layer 1
10
53.778824
20
2.370359
70
0
0
VERTEX
8
Layer 1
10
54.266754
20
2.399474
70
0
0
VERTEX
8
Layer 1
10
54.690923
20
2.606253
70
0
0
VERTEX
8
Layer 1
10
55.006605
20
2.956997
70
0
0
VERTEX
8
Layer 1
10
55.169079
20
3.418003
70
0
0
VERTEX
8
Layer 1
10
58.595340
20
27.797184
70
0
0
VERTEX
8
Layer 1
10
58.566226
20
28.285115
70
0
0
VERTEX
8
Layer 1
10
58.359446
20
28.709284
70
0
0
VERTEX
8
Layer 1
10
58.008702
20
29.024966
70
0
0
VERTEX
8
Layer 1
10
57.547696
20
29.187440
70
0
0
VERTEX
8
Layer 1
10
57.068131
20
29.160254
70
0
0
VERTEX
8
Layer 1
10
56.635482
20
28.951600
70
0
0
VERTEX
8
Layer 1
10
56.635482
20
28.951600
70
0
0
SEQEND
8
Layer 1
0
POLYLINE
8
Layer 1
62
7
70
0
10
0.000000
20
0.000000
66
1
0
VERTEX
8
Layer 1
10
51.080845
20
21.278877
70
0
0
VERTEX
8
Layer 1
10
50.760999
20
20.920574
70
0
0
VERTEX
8
Layer 1
10
50.602619
20
20.467144
70
0
0
VERTEX
8
Layer 1
10
50.629817
20
19.987620
70
0
0
VERTEX
8
Layer 1
10
50.838453
20
19.555008
70
0
0
VERTEX
8
Layer 1
10
51.196756
20
19.235162
70
0
0
VERTEX
8
Layer 1
10
51.650186
20
19.076781
70
0
0
VERTEX
8
Layer 1
10
52.129710
20
19.103980
70
0
0
VERTEX
8
Layer 1
10
52.562323
20
19.312616
70
0
0
VERTEX
8
Layer 1
10
56.586045
20
22.344660
70
0
0
VERTEX
8
Layer 1
10
59.618090
20
18.320937
70
0
0
VERTEX
8
Layer 1
10
59.983726
20
17.996570
70
0
0
VERTEX
8
Layer 1
10
60.429876
20
17.842915
70
0
0
VERTEX
8
Layer 1
10
60.901089
20
17.867757
70
0
0
VERTEX
8
Layer 1
10
61.341918
20
18.078884
70
0
0
VERTEX
8
Layer 1
10
61.666281
20
18.444465
70
0
0
VERTEX
8
Layer 1
10
61.819970
20
18.890561
70
0
0
VERTEX
8
Layer 1
10
61.795194
20
19.361738
70
0
0
VERTEX
8
Layer 1
10
61.584162
20
19.802563
70
0
0
VERTEX
8
Layer 1
10
57.070640
20
25.792548
70
0
0
VERTEX
8
Layer 1
10
51.080845
20
21.278877
70
0
0
SEQEND
8
Layer 1
0
POLYLINE
8
Layer 1
62
7
70
0
10
0.000000
20
0.000000
66
1
0
VERTEX
8
Layer 1
10
50.167575
20
15.165001
70
0
0
VERTEX
8
Layer 1
10
49.843207
20
14.799365
70
0
0
VERTEX
8
Layer 1
10
49.689551
20
14.353215
70
0
0
VERTEX
8
Layer 1
10
49.714394
20
13.882002
70
0
0
VERTEX
8
Layer 1
10
49.925520
20
13.441173
70
0
0
VERTEX
8
Layer 1
10
50.291102
20
13.116809
70
0
0
VERTEX
8
Layer 1
10
50.737198
20
12.963121
70
0
0
VERTEX
8
Layer 1
10
51.208375
20
12.987897
70
0
0
VERTEX
8
Layer 1
10
51.649200
20
13.198930
70
0
0
VERTEX
8
Layer 1
10
55.733117
20
16.276389
70
0
0
VERTEX
8
Layer 1
10
58.810577
20
12.192472
70
0
0
VERTEX
8
Layer 1
10
59.168880
20
11.872626
70
0
0
VERTEX
8
Layer 1
10
59.622309
20
11.714247
70
0
0
VERTEX
8
Layer 1
10
60.101833
20
11.741445
70
0
0
VERTEX
8
Layer 1
10
60.534445
20
11.950080
70
0
0
VERTEX
8
Layer 1
10
60.854291
20
12.308384
70
0
0
VERTEX
8
Layer 1
10
61.012671
20
12.761813
70
0
0
VERTEX
8
Layer 1
10
60.985473
20
13.241337
70
0
0
VERTEX
8
Layer 1
10
60.776837
20
13.673950
70
0
0
VERTEX
8
Layer 1
10
56.217753
20
19.723938
70
0
0
VERTEX
8
Layer 1
10
50.167575
20
15.165001
70
0
0
SEQEND
8
Layer 1
0
POLYLINE
8
Layer 1
62
7
70
0
10
0.000000
20
0.000000
66
1
0
VERTEX
8
Layer 1
10
50.368254
20
9.425292
70
0
0
VERTEX
8
Layer 1
10
50.048409
20
9.066989
70
0
0
VERTEX
8
Layer 1
10
49.890029
20
8.613559
70
0
0
VERTEX
8
Layer 1
10
49.917227
20
8.134036
70
0
0
VERTEX
8
Layer 1
10
50.125863
20
7.701424
70
0
0
VERTEX
8
Layer 1
10
50.484219
20
7.381574
70
0
0
VERTEX
8
Layer 1
10
50.937704
20
7.223227
70
0
0
VERTEX
8
Layer 1
10
51.417265
20
7.250493
70
0
0
VERTEX
8
Layer 1
10
51.849880
20
7.459220
70
0
0
VERTEX
8
Layer 1
10
54.807255
20
9.687555
70
0
0
VERTEX
8
Layer 1
10
57.035738
20
6.730370
70
0
0
VERTEX
8
Layer 1
10
57.394042
20
6.410524
70
0
0
VERTEX
8
Layer 1
10
57.847471
20
6.252143
70
0
0
VERTEX
8
Layer 1
10
58.326995
20
6.279342
70
0
0
VERTEX
8
Layer 1
10
58.759608
20
6.487977
70
0
0
VERTEX
8
Layer 1
10
59.079457
20
6.846334
70
0
0
VERTEX
8
Layer 1
10
59.237805
20
7.299819
70
0
0
VERTEX
8
Layer 1
10
59.210538
20
7.779381
70
0
0
VERTEX
8
Layer 1
10
59.001810
20
8.211995
70
0
0
VERTEX
8
Layer 1
10
55.291850
20
13.135442
70
0
0
VERTEX
8
Layer 1
10
50.368254
20
9.425292
70
0
0
SEQEND
8
Layer 1
0
POLYLINE
8
Layer 1
62
7
70
0
10
0.000000
20
0.000000
66
1
0
VERTEX
8
Layer 1
10
33.417119
20
19.227191
70
0
0
VERTEX
8
Layer 1
10
33.319331
20
18.756916
70
0
0
VERTEX
8
Layer 1
10
33.408971
20
18.285020
70
0
0
VERTEX
8
Layer 1
10
33.678146
20
17.877014
70
0
0
VERTEX
8
Layer 1
10
34.069304
20
17.613060
70
0
0
VERTEX
8
Layer 1
10
34.530897
20
17.515038
70
0
0
VERTEX
8
Layer 1
10
35.011378
20
17.604830
70
0
0
VERTEX
8
Layer 1
10
57.837499
20
26.827191
70
0
0
VERTEX
8
Layer 1
10
58.245505
20
27.096366
70
0
0
VERTEX
8
Layer 1
10
58.509460
20
27.487525
70
0
0
VERTEX
8
Layer 1
10
58.607481
20
27.949118
70
0
0
VERTEX
8
Layer 1
10
58.517689
20
28.429599
70
0
0
VERTEX
8
Layer 1
10
58.248514
20
28.837605
70
0
0
VERTEX
8
Layer 1
10
57.857355
20
29.101560
70
0
0
VERTEX
8
Layer 1
10
57.395762
20
29.199581
70
0
0
VERTEX
8
Layer 1
10
56.915281
20
29.109789
70
0
0
VERTEX
8
Layer 1
10
34.089160
20
19.887427
70
0
0
VERTEX
8
Layer 1
10
33.687477
20
19.624146
70
0
0
VERTEX
8
Layer 1
10
33.417119
20
19.227191
70
0
0
VERTEX
8
Layer 1
10
33.417119
20
19.227191
70
0
0
SEQEND
8
Layer 1
0
POLYLINE
8
Layer 1
62
7
70
0
10
0.000000
20
0.000000
66
1
0
VERTEX
8
Layer 1
10
46.821198
20
29.423704
70
0
0
VERTEX
8
Layer 1
10
46.722990
20
28.944894
70
0
0
VERTEX
8
Layer 1
10
46.812882
20
28.481668
70
0
0
VERTEX
8
Layer 1
10
47.069907
20
28.085944
70
0
0
VERTEX
8
Layer 1
10
47.473095
20
27.809640
70
0
0
VERTEX
8
Layer 1
10
52.110815
20
25.841090
70
0
0
VERTEX
8
Layer 1
10
50.142266
20
21.203370
70
0
0
VERTEX
8
Layer 1
10
50.044486
20
20.733134
70
0
0
VERTEX
8
Layer 1
10
50.134103
20
20.261274
70
0
0
VERTEX
8
Layer 1
10
50.397474
20
19.859629
70
0
0
VERTEX
8
Layer 1
10
50.794500
20
19.589347
70
0
0
VERTEX
8
Layer 1
10
51.264736
20
19.491567
70
0
0
VERTEX
8
Layer 1
10
51.736596
20
19.581185
70
0
0
VERTEX
8
Layer 1
10
52.138241
20
19.844555
70
0
0
VERTEX
8
Layer 1
10
52.408523
20
20.241582
70
0
0
VERTEX
8
Layer 1
10
55.339051
20
27.145412
70
0
0
VERTEX
8
Layer 1
10
48.435072
20
30.075750
70
0
0
VERTEX
8
Layer 1
10
47.956288
20
30.173867
70
0
0
VERTEX
8
Layer 1
10
47.493113
20
30.083919
70
0
0
VERTEX
8
Layer 1
10
47.097449
20
29.826875
70
0
0
VERTEX
8
Layer 1
10
46.821198
20
29.423704
70
0
0
VERTEX
8
Layer 1
10
46.821198
20
29.423704
70
0
0
SEQEND
8
Layer 1
0
POLYLINE
8
Layer 1
62
7
70
1
10
0.000000
20
0.000000
66
1
0
VERTEX
8
Layer 1
10
41.069793
20
27.157521
70
0
0
VERTEX
8
Layer 1
10
40.972014
20
26.687285
70
0
0
VERTEX
8
Layer 1
10
41.061631
20
26.215426
70
0
0
VERTEX
8
Layer 1
10
41.325001
20
25.813781
70
0
0
VERTEX
8
Layer 1
10
41.722028
20
25.543499
70
0
0
VERTEX
8
Layer 1
10
46.429142
20
23.545445
70
0
0
VERTEX
8
Layer 1
10
44.431088
20
18.838332
70
0
0
VERTEX
8
Layer 1
10
44.332970
20
18.359548
70
0
0
VERTEX
8
Layer 1
10
44.422918
20
17.896373
70
0
0
VERTEX
8
Layer 1
10
44.679962
20
17.500709
70
0
0
VERTEX
8
Layer 1
10
45.083133
20
17.224457
70
0
0
VERTEX
8
Layer 1
10
45.561943
20
17.126249
70
0
0
VERTEX
8
Layer 1
10
46.025170
20
17.216141
70
0
0
VERTEX
8
Layer 1
10
46.420894
20
17.473167
70
0
0
VERTEX
8
Layer 1
10
46.697198
20
17.876355
70
0
0
VERTEX
8
Layer 1
10
49.657038
20
24.849726
70
0
0
VERTEX
8
Layer 1
10
42.683816
20
27.809756
70
0
0
VERTEX
8
Layer 1
10
42.213580
20
27.907536
70
0
0
VERTEX
8
Layer 1
10
41.741721
20
27.817918
70
0
0
VERTEX
8
Layer 1
10
41.340076
20
27.554548
70
0
0
VERTEX
8
Layer 1
10
41.069793
20
27.157521
70
0
0
VERTEX
8
Layer 1
10
41.069793
20
27.157521
70
0
0
SEQEND
8
Layer 1
0
POLYLINE
8
Layer 1
62
7
70
0
10
0.000000
20
0.000000
66
1
0
VERTEX
8
Layer 1
10
36.199313
20
24.113998
70
0
0
VERTEX
8
Layer 1
10
36.101533
20
23.643762
70
0
0
VERTEX
8
Layer 1
10
36.191150
20
23.171902
70
0
0
VERTEX
8
Layer 1
10
36.454521
20
22.770257
70
0
0
VERTEX
8
Layer 1
10
36.851548
20
22.499975
70
0
0
VERTEX
8
Layer 1
10
40.260012
20
21.053098
70
0
0
VERTEX
8
Layer 1
10
38.813325
20
17.644485
70
0
0
VERTEX
8
Layer 1
10
38.715457
20
17.174225
70
0
0
VERTEX
8
Layer 1
10
38.805017
20
16.702313
70
0
0
VERTEX
8
Layer 1
10
39.068370
20
16.300606
70
0
0
VERTEX
8
Layer 1
10
39.465413
20
16.030274
70
0
0
VERTEX
8
Layer 1
10
39.935648
20
15.932494
70
0
0
VERTEX
8
Layer 1
10
40.407507
20
16.022111
70
0
0
VERTEX
8
Layer 1
10
40.809152
20
16.285481
70
0
0
VERTEX
8
Layer 1
10
41.079434
20
16.682508
70
0
0
VERTEX
8
Layer 1
10
43.488247
20
22.357420
70
0
0
VERTEX
8
Layer 1
10
37.813525
20
24.766085
70
0
0
VERTEX
8
Layer 1
10
37.343265
20
24.863954
70
0
0
VERTEX
8
Layer 1
10
36.871352
20
24.774393
70
0
0
VERTEX
8
Layer 1
10
36.469645
20
24.511041
70
0
0
VERTEX
8
Layer 1
10
36.199313
20
24.113998
70
0
0
VERTEX
8
Layer 1
10
36.199313
20
24.113998
70
0
0
SEQEND
8
Layer 1
0
POLYLINE
8
Layer 1
62
7
70
1
10
0.000000
20
0.000000
66
1
0
VERTEX
8
Layer 1
10
37.006537
20
43.883151
70
0
0
VERTEX
8
Layer 1
10
36.790360
20
43.454264
70
0
0
VERTEX
8
Layer 1
10
36.754767
20
42.975296
70
0
0
VERTEX
8
Layer 1
10
36.905176
20
42.519167
70
0
0
VERTEX
8
Layer 1
10
37.218689
20
42.155317
70
0
0
VERTEX
8
Layer 1
10
56.618549
20
26.998497
70
0
0
VERTEX
8
Layer 1
10
57.047436
20
26.782320
70
0
0
VERTEX
8
Layer 1
10
57.526404
20
26.746727
70
0
0
VERTEX
8
Layer 1
10
57.982533
20
26.897136
70
0
0
VERTEX
8
Layer 1
10
58.346383
20
27.210649
70
0
0
VERTEX
8
Layer 1
10
58.565142
20
27.647769
70
0
0
VERTEX
8
Layer 1
10
58.598153
20
28.118504
70
0
0
VERTEX
8
Layer 1
10
58.452241
20
28.567270
70
0
0
VERTEX
8
Layer 1
10
58.134231
20
28.938483
70
0
0
VERTEX
8
Layer 1
10
38.734371
20
44.095303
70
0
0
VERTEX
8
Layer 1
10
38.305484
20
44.311480
70
0
0
VERTEX
8
Layer 1
10
37.826516
20
44.347073
70
0
0
VERTEX
8
Layer 1
10
37.370387
20
44.196664
70
0
0
VERTEX
8
Layer 1
10
37.006537
20
43.883151
70
0
0
VERTEX
8
Layer 1
10
37.006537
20
43.883151
70
0
0
SEQEND
8
Layer 1
0
POLYLINE
8
Layer 1
62
7
70
0
10
0.000000
20
0.000000
66
1
0
VERTEX
8
Layer 1
10
47.080760
20
30.386982
70
0
0
VERTEX
8
Layer 1
10
46.864469
20
29.958105
70
0
0
VERTEX
8
Layer 1
10
46.828783
20
29.479103
70
0
0
VERTEX
8
Layer 1
10
46.979188
20
29.022952
70
0
0
VERTEX
8
Layer 1
10
47.292710
20
28.659085
70
0
0
VERTEX
8
Layer 1
10
47.721616
20
28.442903
70
0
0
VERTEX
8
Layer 1
10
48.200604
20
28.407320
70
0
0
VERTEX
8
Layer 1
10
55.644801
20
29.321354
70
0
0
VERTEX
8
Layer 1
10
54.730765
20
36.765552
70
0
0
VERTEX
8
Layer 1
10
54.580361
20
37.221703
70
0
0
VERTEX
8
Layer 1
10
54.266838
20
37.585569
70
0
0
VERTEX
8
Layer 1
10
53.837932
20
37.801751
70
0
0
VERTEX
8
Layer 1
10
53.358945
20
37.837334
70
0
0
VERTEX
8
Layer 1
10
52.902794
20
37.686930
70
0
0
VERTEX
8
Layer 1
10
52.538928
20
37.373408
70
0
0
VERTEX
8
Layer 1
10
52.322746
20
36.944502
70
0
0
VERTEX
8
Layer 1
10
52.287163
20
36.465515
70
0
0
VERTEX
8
Layer 1
10
52.901160
20
31.464920
70
0
0
VERTEX
8
Layer 1
10
47.900565
20
30.850922
70
0
0
VERTEX
8
Layer 1
10
47.444529
20
30.700473
70
0
0
VERTEX
8
Layer 1
10
47.080760
20
30.386982
70
0
0
VERTEX
8
Layer 1
10
47.080760
20
30.386982
70
0
0
SEQEND
8
Layer 1
0
POLYLINE
8
Layer 1
62
7
70
0
10
0.000000
20
0.000000
66
1
0
VERTEX
8
Layer 1
10
42.176907
20
34.150559
70
0
0
VERTEX
8
Layer 1
10
41.960615
20
33.721682
70
0
0
VERTEX
8
Layer 1
10
41.924930
20
33.242678
70
0
0
VERTEX
8
Layer 1
10
42.075334
20
32.786527
70
0
0
VERTEX
8
Layer 1
10
42.388857
20
32.422661
70
0
0
VERTEX
8
Layer 1
10
42.817763
20
32.206479
70
0
0
VERTEX
8
Layer 1
10
43.296750
20
32.170895
70
0
0
VERTEX
8
Layer 1
10
50.815865
20
33.094130
70
0
0
VERTEX
8
Layer 1
10
49.892631
20
40.613245
70
0
0
VERTEX
8
Layer 1
10
49.742227
20
41.069396
70
0
0
VERTEX
8
Layer 1
10
49.428705
20
41.433262
70
0
0
VERTEX
8
Layer 1
10
48.999799
20
41.649444
70
0
0
VERTEX
8
Layer 1
10
48.520811
20
41.685028
70
0
0
VERTEX
8
Layer 1
10
48.064660
20
41.534623
70
0
0
VERTEX
8
Layer 1
10
47.700794
20
41.221101
70
0
0
VERTEX
8
Layer 1
10
47.484612
20
40.792195
70
0
0
VERTEX
8
Layer 1
10
47.449028
20
40.313207
70
0
0
VERTEX
8
Layer 1
10
48.072225
20
35.237695
70
0
0
VERTEX
8
Layer 1
10
42.996713
20
34.614498
70
0
0
VERTEX
8
Layer 1
10
42.540676
20
34.464050
70
0
0
VERTEX
8
Layer 1
10
42.176907
20
34.150559
70
0
0
VERTEX
8
Layer 1
10
42.176907
20
34.150559
70
0
0
SEQEND
8
Layer 1
0
POLYLINE
8
Layer 1
62
7
70
0
10
0.000000
20
0.000000
66
1
0
VERTEX
8
Layer 1
10
38.333983
20
38.418814
70
0
0
VERTEX
8
Layer 1
10
38.117762
20
37.989847
70
0
0
VERTEX
8
Layer 1
10
38.082195
20
37.510786
70
0
0
VERTEX
8
Layer 1
10
38.232599
20
37.054635
70
0
0
VERTEX
8
Layer 1
10
38.546122
20
36.690769
70
0
0
VERTEX
8
Layer 1
10
38.975028
20
36.474587
70
0
0
VERTEX
8
Layer 1
10
39.454015
20
36.439004
70
0
0
VERTEX
8
Layer 1
10
45.572788
20
37.190468
70
0
0
VERTEX
8
Layer 1
10
44.821660
20
43.309282
70
0
0
VERTEX
8
Layer 1
10
44.671256
20
43.765433
70
0
0
VERTEX
8
Layer 1
10
44.357734
20
44.129299
70
0
0
VERTEX
8
Layer 1
10
43.928828
20
44.345481
70
0
0
VERTEX
8
Layer 1
10
43.449840
20
44.381064
70
0
0
VERTEX
8
Layer 1
10
42.993689
20
44.230660
70
0
0
VERTEX
8
Layer 1
10
42.629823
20
43.917137
70
0
0
VERTEX
8
Layer 1
10
42.413641
20
43.488231
70
0
0
VERTEX
8
Layer 1
10
42.378057
20
43.009244
70
0
0
VERTEX
8
Layer 1
10
42.829337
20
39.333885
70
0
0
VERTEX
8
Layer 1
10
39.153977
20
38.882607
70
0
0
VERTEX
8
Layer 1
10
38.697856
20
38.732259
70
0
0
VERTEX
8
Layer 1
10
38.333983
20
38.418814
70
0
0
VERTEX
8
Layer 1
10
38.333983
20
38.418814
70
0
0
SEQEND
8
Layer 1
0
POLYLINE
8
Layer 1
62
7
70
0
10
0.000000
20
0.000000
66
1
0
VERTEX
8
Layer 1
10
60.061743
20
53.330782
70
0
0
VERTEX
8
Layer 1
10
59.741985
20
52.972423
70
0
0
VERTEX
8
Layer 1
10
59.583701
20
52.518977
70
0
0
VERTEX
8
Layer 1
10
56.157440
20
28.139796
70
0
0
VERTEX
8
Layer 1
10
56.186554
20
27.651865
70
0
0
VERTEX
8
Layer 1
10
56.393334
20
27.227696
70
0
0
VERTEX
8
Layer 1
10
56.744078
20
26.912014
70
0
0
VERTEX
8
Layer 1
10
57.205084
20
26.749540
70
0
0
VERTEX
8
Layer 1
10
57.693015
20
26.778654
70
0
0
VERTEX
8
Layer 1
10
58.117184
20
26.985434
70
0
0
VERTEX
8
Layer 1
10
58.432866
20
27.336178
70
0
0
VERTEX
8
Layer 1
10
58.595340
20
27.797184
70
0
0
VERTEX
8
Layer 1
10
62.021601
20
52.176366
70
0
0
VERTEX
8
Layer 1
10
61.992487
20
52.664296
70
0
0
VERTEX
8
Layer 1
10
61.785706
20
53.088465
70
0
0
VERTEX
8
Layer 1
10
61.434962
20
53.404147
70
0
0
VERTEX
8
Layer 1
10
60.973956
20
53.566621
70
0
0
VERTEX
8
Layer 1
10
60.494392
20
53.539435
70
0
0
VERTEX
8
Layer 1
10
60.061743
20
53.330782
70
0
0
VERTEX
8
Layer 1
10
60.061743
20
53.330782
70
0
0
SEQEND
8
Layer 1
0
POLYLINE
8
Layer 1
62
7
70
0
10
0.000000
20
0.000000
66
1
0
VERTEX
8
Layer 1
10
53.410862
20
37.858096
70
0
0
VERTEX
8
Layer 1
10
53.086499
20
37.492515
70
0
0
VERTEX
8
Layer 1
10
52.932810
20
37.046419
70
0
0
VERTEX
8
Layer 1
10
52.957586
20
36.575242
70
0
0
VERTEX
8
Layer 1
10
53.168618
20
36.134417
70
0
0
VERTEX
8
Layer 1
10
57.682140
20
30.144432
70
0
0
VERTEX
8
Layer 1
10
63.671935
20
34.658103
70
0
0
VERTEX
8
Layer 1
10
63.991781
20
35.016406
70
0
0
VERTEX
8
Layer 1
10
64.150161
20
35.469836
70
0
0
VERTEX
8
Layer 1
10
64.122963
20
35.949360
70
0
0
VERTEX
8
Layer 1
10
63.914327
20
36.381972
70
0
0
VERTEX
8
Layer 1
10
63.556024
20
36.701818
70
0
0
VERTEX
8
Layer 1
10
63.102594
20
36.860199
70
0
0
VERTEX
8
Layer 1
10
62.623070
20
36.833000
70
0
0
VERTEX
8
Layer 1
10
62.190457
20
36.624364
70
0
0
VERTEX
8
Layer 1
10
58.166735
20
33.592320
70
0
0
VERTEX
8
Layer 1
10
55.134690
20
37.616043
70
0
0
VERTEX
8
Layer 1
10
54.769054
20
37.940410
70
0
0
VERTEX
8
Layer 1
10
54.322904
20
38.094065
70
0
0
VERTEX
8
Layer 1
10
53.851691
20
38.069223
70
0
0
VERTEX
8
Layer 1
10
53.410862
20
37.858096
70
0
0
VERTEX
8
Layer 1
10
53.410862
20
37.858096
70
0
0
SEQEND
8
Layer 1
0
POLYLINE
8
Layer 1
62
7
70
1
10
0.000000
20
0.000000
66
1
0
VERTEX
8
Layer 1
10
54.218335
20
43.986900
70
0
0
VERTEX
8
Layer 1
10
53.898489
20
43.628596
70
0
0
VERTEX
8
Layer 1
10
53.740109
20
43.175167
70
0
0
VERTEX
8
Layer 1
10
53.767307
20
42.695643
70
0
0
VERTEX
8
Layer 1
10
53.975943
20
42.263030
70
0
0
VERTEX
8
Layer 1
10
58.535027
20
36.213042
70
0
0
VERTEX
8
Layer 1
10
64.585205
20
40.771979
70
0
0
VERTEX
8
Layer 1
10
64.909573
20
41.137615
70
0
0
VERTEX
8
Layer 1
10
65.063228
20
41.583764
70
0
0
VERTEX
8
Layer 1
10
65.038386
20
42.054978
70
0
0
VERTEX
8
Layer 1
10
64.827259
20
42.495806
70
0
0
VERTEX
8
Layer 1
10
64.461678
20
42.820170
70
0
0
VERTEX
8
Layer 1
10
64.015582
20
42.973858
70
0
0
VERTEX
8
Layer 1
10
63.544405
20
42.949082
70
0
0
VERTEX
8
Layer 1
10
63.103580
20
42.738050
70
0
0
VERTEX
8
Layer 1
10
59.019663
20
39.660591
70
0
0
VERTEX
8
Layer 1
10
55.942203
20
43.744508
70
0
0
VERTEX
8
Layer 1
10
55.583900
20
44.064354
70
0
0
VERTEX
8
Layer 1
10
55.130471
20
44.222733
70
0
0
VERTEX
8
Layer 1
10
54.650947
20
44.195535
70
0
0
VERTEX
8
Layer 1
10
54.218335
20
43.986900
70
0
0
VERTEX
8
Layer 1
10
54.218335
20
43.986900
70
0
0
SEQEND
8
Layer 1
0
POLYLINE
8
Layer 1
62
7
70
0
10
0.000000
20
0.000000
66
1
0
VERTEX
8
Layer 1
10
55.993172
20
49.449003
70
0
0
VERTEX
8
Layer 1
10
55.673323
20
49.090646
70
0
0
VERTEX
8
Layer 1
10
55.514975
20
48.637161
70
0
0
VERTEX
8
Layer 1
10
55.542242
20
48.157599
70
0
0
VERTEX
8
Layer 1
10
55.750970
20
47.724985
70
0
0
VERTEX
8
Layer 1
10
59.460930
20
42.801538
70
0
0
VERTEX
8
Layer 1
10
64.384526
20
46.511688
70
0
0
VERTEX
8
Layer 1
10
64.704371
20
46.869991
70
0
0
VERTEX
8
Layer 1
10
64.862751
20
47.323421
70
0
0
VERTEX
8
Layer 1
10
64.835553
20
47.802944
70
0
0
VERTEX
8
Layer 1
10
64.626917
20
48.235556
70
0
0
VERTEX
8
Layer 1
10
64.268561
20
48.555406
70
0
0
VERTEX
8
Layer 1
10
63.815076
20
48.713753
70
0
0
VERTEX
8
Layer 1
10
63.335515
20
48.686487
70
0
0
VERTEX
8
Layer 1
10
62.902900
20
48.477760
70
0
0
VERTEX
8
Layer 1
10
59.945525
20
46.249425
70
0
0
VERTEX
8
Layer 1
10
57.717042
20
49.206610
70
0
0
VERTEX
8
Layer 1
10
57.358738
20
49.526456
70
0
0
VERTEX
8
Layer 1
10
56.905309
20
49.684837
70
0
0
VERTEX
8
Layer 1
10
56.425785
20
49.657638
70
0
0
VERTEX
8
Layer 1
10
55.993172
20
49.449003
70
0
0
VERTEX
8
Layer 1
10
55.993172
20
49.449003
70
0
0
SEQEND
8
Layer 1
0
POLYLINE
8
Layer 1
62
7
70
0
10
0.000000
20
0.000000
66
1
0
VERTEX
8
Layer 1
10
56.243240
20
28.449553
70
0
0
VERTEX
8
Layer 1
10
56.145451
20
27.979278
70
0
0
VERTEX
8
Layer 1
10
56.235091
20
27.507381
70
0
0
VERTEX
8
Layer 1
10
56.504266
20
27.099375
70
0
0
VERTEX
8
Layer 1
10
56.895425
20
26.835420
70
0
0
VERTEX
8
Layer 1
10
57.357018
20
26.737399
70
0
0
VERTEX
8
Layer 1
10
57.837499
20
26.827191
70
0
0
VERTEX
8
Layer 1
10
80.663620
20
36.049553
70
0
0
VERTEX
8
Layer 1
10
81.071626
20
36.318728
70
0
0
VERTEX
8
Layer 1
10
81.335580
20
36.709886
70
0
0
VERTEX
8
Layer 1
10
81.433601
20
37.171479
70
0
0
VERTEX
8
Layer 1
10
81.343809
20
37.651960
70
0
0
VERTEX
8
Layer 1
10
81.074634
20
38.059966
70
0
0
VERTEX
8
Layer 1
10
80.683476
20
38.323920
70
0
0
VERTEX
8
Layer 1
10
80.221883
20
38.421942
70
0
0
VERTEX
8
Layer 1
10
79.741402
20
38.332150
70
0
0
VERTEX
8
Layer 1
10
56.915281
20
29.109789
70
0
0
VERTEX
8
Layer 1
10
56.513598
20
28.846508
70
0
0
VERTEX
8
Layer 1
10
56.243240
20
28.449553
70
0
0
VERTEX
8
Layer 1
10
56.243240
20
28.449553
70
0
0
SEQEND
8
Layer 1
0
POLYLINE
8
Layer 1
62
7
70
0
10
0.000000
20
0.000000
66
1
0
VERTEX
8
Layer 1
10
62.344257
20
35.695398
70
0
0
VERTEX
8
Layer 1
10
59.413729
20
28.791568
70
0
0
VERTEX
8
Layer 1
10
66.317708
20
25.861230
70
0
0
VERTEX
8
Layer 1
10
66.796492
20
25.763113
70
0
0
VERTEX
8
Layer 1
10
67.259667
20
25.853061
70
0
0
VERTEX
8
Layer 1
10
67.655331
20
26.110105
70
0
0
VERTEX
8
Layer 1
10
67.931582
20
26.513276
70
0
0
VERTEX
8
Layer 1
10
68.029790
20
26.992086
70
0
0
VERTEX
8
Layer 1
10
67.939898
20
27.455312
70
0
0
VERTEX
8
Layer 1
10
67.682873
20
27.851036
70
0
0
VERTEX
8
Layer 1
10
67.279685
20
28.127340
70
0
0
VERTEX
8
Layer 1
10
62.641965
20
30.095890
70
0
0
VERTEX
8
Layer 1
10
64.610514
20
34.733610
70
0
0
VERTEX
8
Layer 1
10
64.708294
20
35.203846
70
0
0
VERTEX
8
Layer 1
10
64.618677
20
35.675706
70
0
0
VERTEX
8
Layer 1
10
64.355306
20
36.077351
70
0
0
VERTEX
8
Layer 1
10
63.958280
20
36.347633
70
0
0
VERTEX
8
Layer 1
10
63.488044
20
36.445413
70
0
0
VERTEX
8
Layer 1
10
63.016184
20
36.355795
70
0
0
VERTEX
8
Layer 1
10
62.614539
20
36.092425
70
0
0
VERTEX
8
Layer 1
10
62.344257
20
35.695398
70
0
0
VERTEX
8
Layer 1
10
62.344257
20
35.695398
70
0
0
SEQEND
8
Layer 1
0
POLYLINE
8
Layer 1
62
7
70
0
10
0.000000
20
0.000000
66
1
0
VERTEX
8
Layer 1
10
68.055582
20
38.060625
70
0
0
VERTEX
8
Layer 1
10
65.095742
20
31.087254
70
0
0
VERTEX
8
Layer 1
10
72.068964
20
28.127224
70
0
0
VERTEX
8
Layer 1
10
72.539200
20
28.029444
70
0
0
VERTEX
8
Layer 1
10
73.011059
20
28.119062
70
0
0
VERTEX
8
Layer 1
10
73.412704
20
28.382432
70
0
0
VERTEX
8
Layer 1
10
73.682987
20
28.779459
70
0
0
VERTEX
8
Layer 1
10
73.780766
20
29.249695
70
0
0
VERTEX
8
Layer 1
10
73.691149
20
29.721554
70
0
0
VERTEX
8
Layer 1
10
73.427779
20
30.123199
70
0
0
VERTEX
8
Layer 1
10
73.030752
20
30.393481
70
0
0
VERTEX
8
Layer 1
10
68.323638
20
32.391535
70
0
0
VERTEX
8
Layer 1
10
70.321692
20
37.098648
70
0
0
VERTEX
8
Layer 1
10
70.419809
20
37.577432
70
0
0
VERTEX
8
Layer 1
10
70.329861
20
38.040607
70
0
0
VERTEX
8
Layer 1
10
70.072817
20
38.436271
70
0
0
VERTEX
8
Layer 1
10
69.669646
20
38.712522
70
0
0
VERTEX
8
Layer 1
10
69.190836
20
38.810730
70
0
0
VERTEX
8
Layer 1
10
68.727610
20
38.720838
70
0
0
VERTEX
8
Layer 1
10
68.331886
20
38.463813
70
0
0
VERTEX
8
Layer 1
10
68.055582
20
38.060625
70
0
0
VERTEX
8
Layer 1
10
68.055582
20
38.060625
70
0
0
SEQEND
8
Layer 1
0
POLYLINE
8
Layer 1
62
7
70
0
10
0.000000
20
0.000000
66
1
0
VERTEX
8
Layer 1
10
73.673346
20
39.254472
70
0
0
VERTEX
8
Layer 1
10
71.264533
20
33.579560
70
0
0
VERTEX
8
Layer 1
10
76.939255
20
31.170895
70
0
0
VERTEX
8
Layer 1
10
77.409515
20
31.073026
70
0
0
VERTEX
8
Layer 1
10
77.881428
20
31.162587
70
0
0
VERTEX
8
Layer 1
10
78.283135
20
31.425939
70
0
0
VERTEX
8
Layer 1
10
78.553467
20
31.822982
70
0
0
VERTEX
8
Layer 1
10
78.651247
20
32.293218
70
0
0
VERTEX
8
Layer 1
10
78.561630
20
32.765078
70
0
0
VERTEX
8
Layer 1
10
78.298259
20
33.166723
70
0
0
VERTEX
8
Layer 1
10
77.901232
20
33.437005
70
0
0
VERTEX
8
Layer 1
10
74.492768
20
34.883882
70
0
0
VERTEX
8
Layer 1
10
75.939455
20
38.292495
70
0
0
VERTEX
8
Layer 1
10
76.037323
20
38.762755
70
0
0
VERTEX
8
Layer 1
10
75.947763
20
39.234667
70
0
0
VERTEX
8
Layer 1
10
75.684410
20
39.636374
70
0
0
VERTEX
8
Layer 1
10
75.287367
20
39.906706
70
0
0
VERTEX
8
Layer 1
10
74.817132
20
40.004486
70
0
0
VERTEX
8
Layer 1
10
74.345273
20
39.914869
70
0
0
VERTEX
8
Layer 1
10
73.943628
20
39.651499
70
0
0
VERTEX
8
Layer 1
10
73.673346
20
39.254472
70
0
0
VERTEX
8
Layer 1
10
73.673346
20
39.254472
70
0
0
SEQEND
8
Layer 1
 0 
ENDSEC
 0 
EOF