%TF.GenerationSoftware,KiCad,Pcbnew,9.0.8*%
%TF.CreationDate,2026-03-21T10:42:10-04:00*%
%TF.ProjectId,J1772 Enabler,4a313737-3220-4456-9e61-626c65722e6b,rev?*%
%TF.SameCoordinates,Original*%
%TF.FileFunction,Copper,L1,Top*%
%TF.FilePolarity,Positive*%
%FSLAX46Y46*%
G04 Gerber Fmt 4.6, Leading zero omitted, Abs format (unit mm)*
G04 Created by KiCad (PCBNEW 9.0.8) date 2026-03-21 10:42:10*
%MOMM*%
%LPD*%
G01*
G04 APERTURE LIST*
G04 Aperture macros list*
%AMRoundRect*
0 Rectangle with rounded corners*
0 $1 Rounding radius*
0 $2 $3 $4 $5 $6 $7 $8 $9 X,Y pos of 4 corners*
0 Add a 4 corners polygon primitive as box body*
4,1,4,$2,$3,$4,$5,$6,$7,$8,$9,$2,$3,0*
0 Add four circle primitives for the rounded corners*
1,1,$1+$1,$2,$3*
1,1,$1+$1,$4,$5*
1,1,$1+$1,$6,$7*
1,1,$1+$1,$8,$9*
0 Add four rect primitives between the rounded corners*
20,1,$1+$1,$2,$3,$4,$5,0*
20,1,$1+$1,$4,$5,$6,$7,0*
20,1,$1+$1,$6,$7,$8,$9,0*
20,1,$1+$1,$8,$9,$2,$3,0*%
G04 Aperture macros list end*
%TA.AperFunction,ComponentPad*%
%ADD10C,4.700000*%
%TD*%
%TA.AperFunction,ConnectorPad*%
%ADD11C,7.500000*%
%TD*%
%TA.AperFunction,SMDPad,CuDef*%
%ADD12RoundRect,0.250000X-0.625000X0.312500X-0.625000X-0.312500X0.625000X-0.312500X0.625000X0.312500X0*%
%TD*%
%TA.AperFunction,ComponentPad*%
%ADD13RoundRect,0.250000X1.050000X1.050000X-1.050000X1.050000X-1.050000X-1.050000X1.050000X-1.050000X0*%
%TD*%
%TA.AperFunction,ComponentPad*%
%ADD14C,2.600000*%
%TD*%
%TA.AperFunction,SMDPad,CuDef*%
%ADD15RoundRect,0.250000X-0.625000X0.375000X-0.625000X-0.375000X0.625000X-0.375000X0.625000X0.375000X0*%
%TD*%
%TA.AperFunction,Conductor*%
%ADD16C,1.000000*%
%TD*%
G04 APERTURE END LIST*
D10*
%TO.P,REF\u002A\u002A,1*%
%TO.N,N/C*%
X123450000Y-106750000D03*
D11*
X123450000Y-106750000D03*
%TD*%
D10*
%TO.P,REF\u002A\u002A,1*%
%TO.N,N/C*%
X163450000Y-106750000D03*
D11*
X163450000Y-106750000D03*
%TD*%
D12*
%TO.P,R2,1*%
%TO.N,Net-(D1-K)*%
X146450000Y-98787500D03*
%TO.P,R2,2*%
%TO.N,Net-(J2-Pin_2)*%
X146450000Y-101712500D03*
%TD*%
%TO.P,R1,1*%
%TO.N,Net-(D1-K)*%
X143950000Y-106287500D03*
%TO.P,R1,2*%
%TO.N,Net-(J2-Pin_1)*%
X143950000Y-109212500D03*
%TD*%
D13*
%TO.P,GND,1,Pin_1*%
%TO.N,Net-(J2-Pin_1)*%
X130950000Y-111750000D03*
%TD*%
%TO.P,SWITCH,1,Pin_1*%
%TO.N,Net-(J2-Pin_1)*%
X155750000Y-111750000D03*
D14*
%TO.P,SWITCH,2,Pin_2*%
%TO.N,Net-(J2-Pin_2)*%
X150950000Y-111750000D03*
%TD*%
D13*
%TO.P,CTRL_PILOT,1,Pin_1*%
%TO.N,Net-(D1-A)*%
X135950000Y-111750000D03*
%TD*%
D15*
%TO.P,D1,1,K*%
%TO.N,Net-(D1-K)*%
X140450000Y-98850000D03*
%TO.P,D1,2,A*%
%TO.N,Net-(D1-A)*%
X140450000Y-101650000D03*
%TD*%
D16*
%TO.N,Net-(D1-K)*%
X140450000Y-98850000D02*
X142450000Y-98850000D01*
X143950000Y-106287500D02*
X143950000Y-100350000D01*
X143950000Y-100350000D02*
X142450000Y-98850000D01*
%TO.N,Net-(J2-Pin_1)*%
X143950000Y-114250000D02*
X153250000Y-114250000D01*
X153250000Y-114250000D02*
X155750000Y-111750000D01*
X143950000Y-109212500D02*
X143950000Y-114250000D01*
X143950000Y-114250000D02*
X133450000Y-114250000D01*
X133450000Y-114250000D02*
X130950000Y-111750000D01*
%TO.N,Net-(D1-A)*%
X138950000Y-111750000D02*
X140450000Y-110250000D01*
X140450000Y-110250000D02*
X140450000Y-101650000D01*
%TO.N,Net-(J2-Pin_2)*%
X147450000Y-111250000D02*
X147950000Y-111750000D01*
X147450000Y-102712500D02*
X147450000Y-111250000D01*
X146450000Y-101712500D02*
X147450000Y-102712500D01*
X147950000Y-111750000D02*
X150950000Y-111750000D01*
%TO.N,Net-(D1-K)*%
X142450000Y-98850000D02*
X146387500Y-98850000D01*
X146387500Y-98850000D02*
X146450000Y-98787500D01*
%TO.N,Net-(D1-A)*%
X135950000Y-111750000D02*
X138950000Y-111750000D01*
%TD*%
%TA.AperFunction,NonConductor*%
G36*
X163452702Y-94750617D02*
G01*
X163836773Y-94767386D01*
X163847505Y-94768326D01*
X164225963Y-94818150D01*
X164236601Y-94820025D01*
X164609279Y-94902647D01*
X164619720Y-94905445D01*
X164983765Y-95020227D01*
X164993911Y-95023920D01*
X165346578Y-95170000D01*
X165356369Y-95174566D01*
X165694942Y-95350816D01*
X165704310Y-95356224D01*
X166026244Y-95561318D01*
X166035105Y-95567523D01*
X166337930Y-95799889D01*
X166346217Y-95806843D01*
X166627635Y-96064715D01*
X166635284Y-96072364D01*
X166893156Y-96353782D01*
X166900110Y-96362069D01*
X167132476Y-96664894D01*
X167138681Y-96673755D01*
X167343775Y-96995689D01*
X167349183Y-97005057D01*
X167525430Y-97343623D01*
X167530002Y-97353427D01*
X167676075Y-97706078D01*
X167679775Y-97716244D01*
X167794553Y-98080276D01*
X167797353Y-98090724D01*
X167879972Y-98463390D01*
X167881850Y-98474044D01*
X167931671Y-98852472D01*
X167932614Y-98863248D01*
X167949382Y-99247297D01*
X167949500Y-99252706D01*
X167949500Y-104599238D01*
X167929815Y-104666277D01*
X167877011Y-104712032D01*
X167807853Y-104721976D01*
X167744297Y-104692951D01*
X167713118Y-104651643D01*
X167667764Y-104554381D01*
X167667756Y-104554366D01*
X167654731Y-104531806D01*
X167460348Y-104195126D01*
X167460340Y-104195115D01*
X167460336Y-104195108D01*
X167222415Y-103855322D01*
X166955770Y-103537548D01*
X166662451Y-103244229D01*
X166633839Y-103220221D01*
X166574363Y-103170314D01*
X166344677Y-102977584D01*
X166004891Y-102739663D01*
X166004880Y-102739656D01*
X166004874Y-102739652D01*
X165753305Y-102594408D01*
X165645633Y-102532243D01*
X165645609Y-102532230D01*
X165269683Y-102356934D01*
X165269672Y-102356930D01*
X165269670Y-102356929D01*
X164879864Y-102215051D01*
X164879863Y-102215050D01*
X164879853Y-102215047D01*
X164479183Y-102107689D01*
X164479186Y-102107689D01*
X164479176Y-102107687D01*
X164479170Y-102107685D01*
X164479166Y-102107685D01*
X164070659Y-102035654D01*
X163657414Y-101999500D01*
X163657411Y-101999500D01*
X163242589Y-101999500D01*
X163242585Y-101999500D01*
X162829342Y-102035654D01*
X162829338Y-102035654D01*
X162420833Y-102107685D01*
X162420816Y-102107689D01*
X162020146Y-102215047D01*
X161630316Y-102356934D01*
X161254390Y-102532230D01*
X161254366Y-102532243D01*
X160895134Y-102739647D01*
X160895108Y-102739663D01*
X160555322Y-102977584D01*
X160237548Y-103244229D01*
X159944229Y-103537548D01*
X159677584Y-103855322D01*
X159439663Y-104195108D01*
X159439647Y-104195134D01*
X159232243Y-104554366D01*
X159232230Y-104554390D01*
X159056934Y-104930316D01*
X158915047Y-105320146D01*
X158807689Y-105720816D01*
X158807685Y-105720833D01*
X158735654Y-106129338D01*
X158735654Y-106129342D01*
X158699500Y-106542585D01*
X158699500Y-106957414D01*
X158735654Y-107370657D01*
X158735654Y-107370661D01*
X158806403Y-107771893D01*
X158807687Y-107779176D01*
X158819032Y-107821518D01*
X158915047Y-108179853D01*
X158915050Y-108179863D01*
X158915051Y-108179864D01*
X159003612Y-108423184D01*
X159056934Y-108569683D01*
X159232230Y-108945609D01*
X159232240Y-108945627D01*
X159439652Y-109304874D01*
X159439656Y-109304880D01*
X159439663Y-109304891D01*
X159677584Y-109644677D01*
X159835690Y-109833100D01*
X159944227Y-109962449D01*
X160237551Y-110255773D01*
X160272765Y-110285321D01*
X160555322Y-110522415D01*
X160895108Y-110760336D01*
X160895115Y-110760340D01*
X160895126Y-110760348D01*
X161231806Y-110954731D01*
X161254366Y-110967756D01*
X161254390Y-110967769D01*
X161630316Y-111143065D01*
X161630321Y-111143066D01*
X161630330Y-111143071D01*
X162020136Y-111284949D01*
X162020142Y-111284950D01*
X162020146Y-111284952D01*
X162129260Y-111314188D01*
X162420824Y-111392313D01*
X162829345Y-111464346D01*
X163242587Y-111500499D01*
X163242588Y-111500500D01*
X163242589Y-111500500D01*
X163657412Y-111500500D01*
X163657412Y-111500499D01*
X164070655Y-111464346D01*
X164479176Y-111392313D01*
X164879864Y-111284949D01*
X165269670Y-111143071D01*
X165498355Y-111036434D01*
X165645609Y-110967769D01*
X165645617Y-110967764D01*
X165645627Y-110967760D01*
X166004874Y-110760348D01*
X166344676Y-110522416D01*
X166662449Y-110255773D01*
X166955773Y-109962449D01*
X167222416Y-109644676D01*
X167460348Y-109304874D01*
X167667760Y-108945627D01*
X167713118Y-108848357D01*
X167759290Y-108795917D01*
X167826483Y-108776765D01*
X167893364Y-108796980D01*
X167938699Y-108850145D01*
X167949500Y-108900761D01*
X167949500Y-114247293D01*
X167949382Y-114252702D01*
X167932614Y-114636751D01*
X167931671Y-114647527D01*
X167881850Y-115025955D01*
X167879972Y-115036609D01*
X167797353Y-115409275D01*
X167794553Y-115419723D01*
X167679775Y-115783755D01*
X167676075Y-115793921D01*
X167530002Y-116146572D01*
X167525430Y-116156376D01*
X167349183Y-116494942D01*
X167343775Y-116504310D01*
X167138681Y-116826244D01*
X167132476Y-116835105D01*
X166900110Y-117137930D01*
X166893156Y-117146217D01*
X166635284Y-117427635D01*
X166627635Y-117435284D01*
X166346217Y-117693156D01*
X166337930Y-117700110D01*
X166035105Y-117932476D01*
X166026244Y-117938681D01*
X165704310Y-118143775D01*
X165694942Y-118149183D01*
X165356376Y-118325430D01*
X165346572Y-118330002D01*
X164993921Y-118476075D01*
X164983755Y-118479775D01*
X164619723Y-118594553D01*
X164609275Y-118597353D01*
X164236609Y-118679972D01*
X164225955Y-118681850D01*
X163847527Y-118731671D01*
X163836751Y-118732614D01*
X163452703Y-118749382D01*
X163447294Y-118749500D01*
X123452706Y-118749500D01*
X123447297Y-118749382D01*
X123063248Y-118732614D01*
X123052474Y-118731671D01*
X122990007Y-118723447D01*
X122674044Y-118681850D01*
X122663390Y-118679972D01*
X122290724Y-118597353D01*
X122280276Y-118594553D01*
X121916244Y-118479775D01*
X121906078Y-118476075D01*
X121553427Y-118330002D01*
X121543623Y-118325430D01*
X121205057Y-118149183D01*
X121195689Y-118143775D01*
X120873755Y-117938681D01*
X120864894Y-117932476D01*
X120562069Y-117700110D01*
X120553782Y-117693156D01*
X120272364Y-117435284D01*
X120264715Y-117427635D01*
X120006843Y-117146217D01*
X119999889Y-117137930D01*
X119767523Y-116835105D01*
X119761318Y-116826244D01*
X119556224Y-116504310D01*
X119550816Y-116494942D01*
X119374569Y-116156376D01*
X119369997Y-116146572D01*
X119223924Y-115793921D01*
X119220224Y-115783755D01*
X119105446Y-115419723D01*
X119102646Y-115409275D01*
X119020027Y-115036609D01*
X119018149Y-115025955D01*
X119005642Y-114930953D01*
X118968326Y-114647505D01*
X118967386Y-114636773D01*
X118950618Y-114252702D01*
X118950500Y-114247293D01*
X118950500Y-108900761D01*
X118970185Y-108833722D01*
X119022989Y-108787967D01*
X119092147Y-108778023D01*
X119155703Y-108807048D01*
X119186882Y-108848357D01*
X119232231Y-108945609D01*
X119232240Y-108945627D01*
X119439652Y-109304874D01*
X119439656Y-109304880D01*
X119439663Y-109304891D01*
X119677584Y-109644677D01*
X119835690Y-109833100D01*
X119944227Y-109962449D01*
X120237551Y-110255773D01*
X120272765Y-110285321D01*
X120555322Y-110522415D01*
X120895108Y-110760336D01*
X120895115Y-110760340D01*
X120895126Y-110760348D01*
X121231806Y-110954731D01*
X121254366Y-110967756D01*
X121254390Y-110967769D01*
X121630316Y-111143065D01*
X121630321Y-111143066D01*
X121630330Y-111143071D01*
X122020136Y-111284949D01*
X122020142Y-111284950D01*
X122020146Y-111284952D01*
X122129260Y-111314188D01*
X122420824Y-111392313D01*
X122829345Y-111464346D01*
X123242587Y-111500499D01*
X123242588Y-111500500D01*
X123242589Y-111500500D01*
X123657412Y-111500500D01*
X123657412Y-111500499D01*
X124070655Y-111464346D01*
X124479176Y-111392313D01*
X124879864Y-111284949D01*
X125269670Y-111143071D01*
X125498355Y-111036434D01*
X125645609Y-110967769D01*
X125645617Y-110967764D01*
X125645627Y-110967760D01*
X126004874Y-110760348D01*
X126182780Y-110635777D01*
X128649500Y-110635777D01*
X128649500Y-112864208D01*
X128649501Y-112864223D01*
X128659904Y-112996413D01*
X128659905Y-112996420D01*
X128714902Y-113214678D01*
X128714903Y-113214681D01*
X128807991Y-113419622D01*
X128807997Y-113419632D01*
X128936174Y-113604645D01*
X128936178Y-113604650D01*
X128936181Y-113604654D01*
X129095346Y-113763819D01*
X129095350Y-113763822D01*
X129095354Y-113763825D01*
X129234603Y-113860297D01*
X129280374Y-113892007D01*
X129485317Y-113985096D01*
X129485321Y-113985097D01*
X129703579Y-114040094D01*
X129703581Y-114040094D01*
X129703588Y-114040096D01*
X129835783Y-114050500D01*
X131077110Y-114050499D01*
X131144149Y-114070184D01*
X131164791Y-114086818D01*
X132472490Y-115394517D01*
X132663567Y-115533343D01*
X132762991Y-115584002D01*
X132874003Y-115640566D01*
X132874005Y-115640566D01*
X132874008Y-115640568D01*
X132994412Y-115679689D01*
X133098631Y-115713553D01*
X133331903Y-115750500D01*
X133331908Y-115750500D01*
X153368097Y-115750500D01*
X153601368Y-115713553D01*
X153825992Y-115640568D01*
X154036434Y-115533343D01*
X154227510Y-115394517D01*
X155535208Y-114086817D01*
X155596531Y-114053333D01*
X155622889Y-114050499D01*
X156864208Y-114050499D01*
X156864216Y-114050499D01*
X156996412Y-114040096D01*
X157214683Y-113985096D01*
X157419626Y-113892007D01*
X157604654Y-113763819D01*
X157763819Y-113604654D01*
X157892007Y-113419626D01*
X157985096Y-113214683D01*
X158040096Y-112996412D01*
X158050500Y-112864217D01*
X158050499Y-110635784D01*
X158040096Y-110503588D01*
X158014572Y-110402296D01*
X157985097Y-110285321D01*
X157985096Y-110285318D01*
X157971676Y-110255773D01*
X157892007Y-110080374D01*
X157824362Y-109982734D01*
X157763825Y-109895354D01*
X157763822Y-109895350D01*
X157763819Y-109895346D01*
X157604654Y-109736181D01*
X157604650Y-109736178D01*
X157604645Y-109736174D01*
X157419632Y-109607997D01*
X157419630Y-109607995D01*
X157419626Y-109607993D01*
X157214683Y-109514904D01*
X157214681Y-109514903D01*
X157214678Y-109514902D01*
X156996420Y-109459905D01*
X156996413Y-109459904D01*
X156952347Y-109456436D01*
X156864217Y-109449500D01*
X156864215Y-109449500D01*
X154635791Y-109449500D01*
X154635776Y-109449501D01*
X154503586Y-109459904D01*
X154503579Y-109459905D01*
X154285321Y-109514902D01*
X154285318Y-109514903D01*
X154080377Y-109607991D01*
X154080367Y-109607997D01*
X153895354Y-109736174D01*
X153895342Y-109736184D01*
X153736184Y-109895342D01*
X153736174Y-109895354D01*
X153607997Y-110080367D01*
X153607991Y-110080377D01*
X153514903Y-110285318D01*
X153514902Y-110285321D01*
X153459905Y-110503579D01*
X153459904Y-110503586D01*
X153449500Y-110635777D01*
X153449500Y-111247938D01*
X153429815Y-111314977D01*
X153377011Y-111360732D01*
X153307853Y-111370676D01*
X153244297Y-111341651D01*
X153206523Y-111282873D01*
X153205725Y-111280032D01*
X153133087Y-111008942D01*
X153017683Y-110730332D01*
X152866900Y-110469168D01*
X152759850Y-110329657D01*
X152683320Y-110229921D01*
X152683314Y-110229914D01*
X152470085Y-110016685D01*
X152470078Y-110016679D01*
X152230831Y-109833099D01*
X151969671Y-109682318D01*
X151969661Y-109682314D01*
X151691060Y-109566913D01*
X151399766Y-109488861D01*
X151100793Y-109449501D01*
X151100788Y-109449500D01*
X151100783Y-109449500D01*
X150799217Y-109449500D01*
X150799211Y-109449500D01*
X150799206Y-109449501D01*
X150500233Y-109488861D01*
X150208939Y-109566913D01*
X149930338Y-109682314D01*
X149930328Y-109682318D01*
X149669168Y-109833099D01*
X149429921Y-110016679D01*
X149429914Y-110016685D01*
X149233419Y-110213181D01*
X149206491Y-110227884D01*
X149180673Y-110244477D01*
X149174472Y-110245368D01*
X149172096Y-110246666D01*
X149145738Y-110249500D01*
X149074500Y-110249500D01*
X149007461Y-110229815D01*
X148961706Y-110177011D01*
X148950500Y-110125500D01*
X148950500Y-102594402D01*
X148913553Y-102361131D01*
X148840566Y-102136503D01*
X148770759Y-101999500D01*
X148733343Y-101926067D01*
X148715606Y-101901655D01*
X148594523Y-101734996D01*
X148594519Y-101734991D01*
X148361818Y-101502290D01*
X148328333Y-101440967D01*
X148325499Y-101414609D01*
X148325499Y-101335791D01*
X148325498Y-101335776D01*
X148315096Y-101203588D01*
X148283598Y-101078588D01*
X148260097Y-100985321D01*
X148260096Y-100985318D01*
X148203318Y-100860317D01*
X148167007Y-100780374D01*
X148038819Y-100595346D01*
X147879654Y-100436181D01*
X147758039Y-100351926D01*
X147714146Y-100297570D01*
X147706606Y-100228108D01*
X147737817Y-100165597D01*
X147758035Y-100148076D01*
X147879654Y-100063819D01*
X148038819Y-99904654D01*
X148167007Y-99719626D01*
X148260096Y-99514683D01*
X148315096Y-99296412D01*
X148325500Y-99164217D01*
X148325499Y-98410784D01*
X148315096Y-98278588D01*
X148275197Y-98120248D01*
X148260097Y-98060321D01*
X148260096Y-98060318D01*
X148172066Y-97866512D01*
X148167008Y-97855377D01*
X148167007Y-97855374D01*
X148142567Y-97820097D01*
X149299500Y-97820097D01*
X149299500Y-98079902D01*
X149340140Y-98336493D01*
X149420422Y-98583576D01*
X149501534Y-98742764D01*
X149538366Y-98815051D01*
X149691069Y-99025229D01*
X149874771Y-99208931D01*
X150084949Y-99361634D01*
X150202285Y-99421420D01*
X150316423Y-99479577D01*
X150316425Y-99479577D01*
X150316428Y-99479579D01*
X150563507Y-99559860D01*
X150695706Y-99580797D01*
X150820098Y-99600500D01*
X150820103Y-99600500D01*
X151079902Y-99600500D01*
X151193298Y-99582539D01*
X151336493Y-99559860D01*
X151583572Y-99479579D01*
X151815051Y-99361634D01*
X152025229Y-99208931D01*
X152208931Y-99025229D01*
X152361634Y-98815051D01*
X152479579Y-98583572D01*
X152559860Y-98336493D01*
X152582539Y-98193298D01*
X152600500Y-98079902D01*
X152600500Y-97820097D01*
X154099500Y-97820097D01*
X154099500Y-98079902D01*
X154140140Y-98336493D01*
X154220422Y-98583576D01*
X154301534Y-98742764D01*
X154338366Y-98815051D01*
X154491069Y-99025229D01*
X154674771Y-99208931D01*
X154884949Y-99361634D01*
X155002285Y-99421420D01*
X155116423Y-99479577D01*
X155116425Y-99479577D01*
X155116428Y-99479579D01*
X155363507Y-99559860D01*
X155495706Y-99580797D01*
X155620098Y-99600500D01*
X155620103Y-99600500D01*
X155879902Y-99600500D01*
X155993298Y-99582539D01*
X156136493Y-99559860D01*
X156383572Y-99479579D01*
X156615051Y-99361634D01*
X156825229Y-99208931D01*
X157008931Y-99025229D01*
X157161634Y-98815051D01*
X157279579Y-98583572D01*
X157359860Y-98336493D01*
X157382539Y-98193298D01*
X157400500Y-98079902D01*
X157400500Y-97820097D01*
X157378178Y-97679166D01*
X157359860Y-97563507D01*
X157279579Y-97316428D01*
X157279577Y-97316425D01*
X157279577Y-97316423D01*
X157232739Y-97224500D01*
X157161634Y-97084949D01*
X157008931Y-96874771D01*
X156825229Y-96691069D01*
X156615051Y-96538366D01*
X156542764Y-96501534D01*
X156383576Y-96420422D01*
X156136493Y-96340140D01*
X155879902Y-96299500D01*
X155879897Y-96299500D01*
X155620103Y-96299500D01*
X155620098Y-96299500D01*
X155363506Y-96340140D01*
X155116423Y-96420422D01*
X154884945Y-96538368D01*
X154674774Y-96691066D01*
X154674768Y-96691071D01*
X154491071Y-96874768D01*
X154491066Y-96874774D01*
X154338368Y-97084945D01*
X154220422Y-97316423D01*
X154140140Y-97563506D01*
X154099500Y-97820097D01*
X152600500Y-97820097D01*
X152578178Y-97679166D01*
X152559860Y-97563507D01*
X152479579Y-97316428D01*
X152479577Y-97316425D01*
X152479577Y-97316423D01*
X152432739Y-97224500D01*
X152361634Y-97084949D01*
X152208931Y-96874771D01*
X152025229Y-96691069D01*
X151815051Y-96538366D01*
X151742764Y-96501534D01*
X151583576Y-96420422D01*
X151336493Y-96340140D01*
X151079902Y-96299500D01*
X151079897Y-96299500D01*
X150820103Y-96299500D01*
X150820098Y-96299500D01*
X150563506Y-96340140D01*
X150316423Y-96420422D01*
X150084945Y-96538368D01*
X149874774Y-96691066D01*
X149874768Y-96691071D01*
X149691071Y-96874768D01*
X149691066Y-96874774D01*
X149538368Y-97084945D01*
X149420422Y-97316423D01*
X149340140Y-97563506D01*
X149299500Y-97820097D01*
X148142567Y-97820097D01*
X148113363Y-97777943D01*
X148038825Y-97670354D01*
X148038822Y-97670350D01*
X148038819Y-97670346D01*
X147879654Y-97511181D01*
X147879650Y-97511178D01*
X147879645Y-97511174D01*
X147694632Y-97382997D01*
X147694630Y-97382995D01*
X147694626Y-97382993D01*
X147620888Y-97349500D01*
X147489681Y-97289903D01*
X147489678Y-97289902D01*
X147271420Y-97234905D01*
X147271413Y-97234904D01*
X147227347Y-97231436D01*
X147139217Y-97224500D01*
X147139215Y-97224500D01*
X145760791Y-97224500D01*
X145760776Y-97224501D01*
X145628586Y-97234904D01*
X145628579Y-97234905D01*
X145410321Y-97289902D01*
X145410318Y-97289903D01*
X145303552Y-97338399D01*
X145252271Y-97349500D01*
X141647729Y-97349500D01*
X141596448Y-97338399D01*
X141548077Y-97316428D01*
X141489683Y-97289904D01*
X141489681Y-97289903D01*
X141489678Y-97289902D01*
X141271420Y-97234905D01*
X141271413Y-97234904D01*
X141227347Y-97231436D01*
X141139217Y-97224500D01*
X141139215Y-97224500D01*
X139760791Y-97224500D01*
X139760776Y-97224501D01*
X139628586Y-97234904D01*
X139628579Y-97234905D01*
X139410321Y-97289902D01*
X139410318Y-97289903D01*
X139205377Y-97382991D01*
X139205367Y-97382997D01*
X139020354Y-97511174D01*
X139020342Y-97511184D01*
X138861184Y-97670342D01*
X138861174Y-97670354D01*
X138732997Y-97855367D01*
X138732991Y-97855377D01*
X138639903Y-98060318D01*
X138639902Y-98060321D01*
X138584905Y-98278579D01*
X138584904Y-98278586D01*
X138574500Y-98410777D01*
X138574500Y-99289208D01*
X138574501Y-99289223D01*
X138584904Y-99421413D01*
X138584905Y-99421420D01*
X138639902Y-99639678D01*
X138639903Y-99639681D01*
X138732991Y-99844622D01*
X138732997Y-99844632D01*
X138861174Y-100029645D01*
X138861178Y-100029650D01*
X138861181Y-100029654D01*
X138979598Y-100148071D01*
X138993846Y-100162319D01*
X139027330Y-100223642D01*
X139022346Y-100293334D01*
X138993846Y-100337681D01*
X138861179Y-100470348D01*
X138861174Y-100470354D01*
X138732997Y-100655367D01*
X138732991Y-100655377D01*
X138639903Y-100860318D01*
X138639902Y-100860321D01*
X138584905Y-101078579D01*
X138584904Y-101078586D01*
X138574500Y-101210777D01*
X138574500Y-102089208D01*
X138574501Y-102089223D01*
X138584904Y-102221413D01*
X138584905Y-102221420D01*
X138639902Y-102439678D01*
X138639903Y-102439681D01*
X138732991Y-102644622D01*
X138732997Y-102644632D01*
X138861174Y-102829645D01*
X138861178Y-102829650D01*
X138861181Y-102829654D01*
X138861184Y-102829657D01*
X138913181Y-102881654D01*
X138946666Y-102942977D01*
X138949500Y-102969335D01*
X138949500Y-109577111D01*
X138929815Y-109644150D01*
X138913181Y-109664792D01*
X138364792Y-110213181D01*
X138337864Y-110227884D01*
X138312046Y-110244477D01*
X138305845Y-110245368D01*
X138303469Y-110246666D01*
X138277111Y-110249500D01*
X138248696Y-110249500D01*
X138181657Y-110229815D01*
X138135902Y-110177011D01*
X138135797Y-110176781D01*
X138092008Y-110080377D01*
X138092007Y-110080374D01*
X138024362Y-109982734D01*
X137963825Y-109895354D01*
X137963822Y-109895350D01*
X137963819Y-109895346D01*
X137804654Y-109736181D01*
X137804650Y-109736178D01*
X137804645Y-109736174D01*
X137619632Y-109607997D01*
X137619630Y-109607995D01*
X137619626Y-109607993D01*
X137414683Y-109514904D01*
X137414681Y-109514903D01*
X137414678Y-109514902D01*
X137196420Y-109459905D01*
X137196413Y-109459904D01*
X137152347Y-109456436D01*
X137064217Y-109449500D01*
X137064215Y-109449500D01*
X134835791Y-109449500D01*
X134835776Y-109449501D01*
X134703586Y-109459904D01*
X134703579Y-109459905D01*
X134485321Y-109514902D01*
X134485318Y-109514903D01*
X134280377Y-109607991D01*
X134280367Y-109607997D01*
X134095354Y-109736174D01*
X134095342Y-109736184D01*
X133936184Y-109895342D01*
X133936174Y-109895354D01*
X133807997Y-110080367D01*
X133807991Y-110080377D01*
X133714903Y-110285318D01*
X133714902Y-110285321D01*
X133659905Y-110503579D01*
X133659904Y-110503586D01*
X133649500Y-110635777D01*
X133649500Y-112028111D01*
X133643261Y-112049356D01*
X133641682Y-112071445D01*
X133633609Y-112082228D01*
X133629815Y-112095150D01*
X133613081Y-112109649D01*
X133599810Y-112127378D01*
X133587189Y-112132085D01*
X133577011Y-112140905D01*
X133555093Y-112144056D01*
X133534346Y-112151795D01*
X133521185Y-112148932D01*
X133507853Y-112150849D01*
X133487709Y-112141649D01*
X133466073Y-112136943D01*
X133448347Y-112123674D01*
X133444297Y-112121824D01*
X133437819Y-112115792D01*
X133286818Y-111964791D01*
X133253333Y-111903468D01*
X133250499Y-111877110D01*
X133250499Y-110635791D01*
X133250498Y-110635783D01*
X133240096Y-110503588D01*
X133214572Y-110402296D01*
X133185097Y-110285321D01*
X133185096Y-110285318D01*
X133171676Y-110255773D01*
X133092007Y-110080374D01*
X133024362Y-109982734D01*
X132963825Y-109895354D01*
X132963822Y-109895350D01*
X132963819Y-109895346D01*
X132804654Y-109736181D01*
X132804650Y-109736178D01*
X132804645Y-109736174D01*
X132619632Y-109607997D01*
X132619630Y-109607995D01*
X132619626Y-109607993D01*
X132414683Y-109514904D01*
X132414681Y-109514903D01*
X132414678Y-109514902D01*
X132196420Y-109459905D01*
X132196413Y-109459904D01*
X132152347Y-109456436D01*
X132064217Y-109449500D01*
X132064215Y-109449500D01*
X129835791Y-109449500D01*
X129835776Y-109449501D01*
X129703586Y-109459904D01*
X129703579Y-109459905D01*
X129485321Y-109514902D01*
X129485318Y-109514903D01*
X129280377Y-109607991D01*
X129280367Y-109607997D01*
X129095354Y-109736174D01*
X129095342Y-109736184D01*
X128936184Y-109895342D01*
X128936174Y-109895354D01*
X128807997Y-110080367D01*
X128807991Y-110080377D01*
X128714903Y-110285318D01*
X128714902Y-110285321D01*
X128659905Y-110503579D01*
X128659904Y-110503586D01*
X128649500Y-110635777D01*
X126182780Y-110635777D01*
X126344676Y-110522416D01*
X126662449Y-110255773D01*
X126955773Y-109962449D01*
X127222416Y-109644676D01*
X127460348Y-109304874D01*
X127667760Y-108945627D01*
X127667764Y-108945617D01*
X127667769Y-108945609D01*
X127843065Y-108569683D01*
X127843065Y-108569682D01*
X127843071Y-108569670D01*
X127984949Y-108179864D01*
X128092313Y-107779176D01*
X128164346Y-107370655D01*
X128200500Y-106957411D01*
X128200500Y-106542589D01*
X128164346Y-106129345D01*
X128092313Y-105720824D01*
X128014188Y-105429260D01*
X127984952Y-105320146D01*
X127984950Y-105320142D01*
X127984949Y-105320136D01*
X127843071Y-104930330D01*
X127843066Y-104930321D01*
X127843065Y-104930316D01*
X127667769Y-104554390D01*
X127667756Y-104554366D01*
X127654731Y-104531806D01*
X127460348Y-104195126D01*
X127460340Y-104195115D01*
X127460336Y-104195108D01*
X127222415Y-103855322D01*
X126955770Y-103537548D01*
X126662451Y-103244229D01*
X126633839Y-103220221D01*
X126574363Y-103170314D01*
X126344677Y-102977584D01*
X126004891Y-102739663D01*
X126004880Y-102739656D01*
X126004874Y-102739652D01*
X125753305Y-102594408D01*
X125645633Y-102532243D01*
X125645609Y-102532230D01*
X125269683Y-102356934D01*
X125269672Y-102356930D01*
X125269670Y-102356929D01*
X124879864Y-102215051D01*
X124879863Y-102215050D01*
X124879853Y-102215047D01*
X124479183Y-102107689D01*
X124479186Y-102107689D01*
X124479176Y-102107687D01*
X124479170Y-102107685D01*
X124479166Y-102107685D01*
X124070659Y-102035654D01*
X123657414Y-101999500D01*
X123657411Y-101999500D01*
X123242589Y-101999500D01*
X123242585Y-101999500D01*
X122829342Y-102035654D01*
X122829338Y-102035654D01*
X122420833Y-102107685D01*
X122420816Y-102107689D01*
X122020146Y-102215047D01*
X121630316Y-102356934D01*
X121254390Y-102532230D01*
X121254366Y-102532243D01*
X120895134Y-102739647D01*
X120895108Y-102739663D01*
X120555322Y-102977584D01*
X120237548Y-103244229D01*
X119944229Y-103537548D01*
X119677584Y-103855322D01*
X119439663Y-104195108D01*
X119439647Y-104195134D01*
X119232243Y-104554366D01*
X119232235Y-104554381D01*
X119186882Y-104651643D01*
X119140710Y-104704082D01*
X119073516Y-104723234D01*
X119006635Y-104703018D01*
X118961301Y-104649853D01*
X118950500Y-104599238D01*
X118950500Y-99252706D01*
X118950618Y-99247297D01*
X118954245Y-99164217D01*
X118967387Y-98863224D01*
X118968325Y-98852496D01*
X119018151Y-98474032D01*
X119020024Y-98463402D01*
X119102648Y-98090714D01*
X119105446Y-98080276D01*
X119105564Y-98079902D01*
X119187480Y-97820097D01*
X129299500Y-97820097D01*
X129299500Y-98079902D01*
X129340140Y-98336493D01*
X129420422Y-98583576D01*
X129501534Y-98742764D01*
X129538366Y-98815051D01*
X129691069Y-99025229D01*
X129874771Y-99208931D01*
X130084949Y-99361634D01*
X130202285Y-99421420D01*
X130316423Y-99479577D01*
X130316425Y-99479577D01*
X130316428Y-99479579D01*
X130563507Y-99559860D01*
X130695706Y-99580797D01*
X130820098Y-99600500D01*
X130820103Y-99600500D01*
X131079902Y-99600500D01*
X131193298Y-99582539D01*
X131336493Y-99559860D01*
X131583572Y-99479579D01*
X131815051Y-99361634D01*
X132025229Y-99208931D01*
X132208931Y-99025229D01*
X132361634Y-98815051D01*
X132479579Y-98583572D01*
X132559860Y-98336493D01*
X132582539Y-98193298D01*
X132600500Y-98079902D01*
X132600500Y-97820097D01*
X134299500Y-97820097D01*
X134299500Y-98079902D01*
X134340140Y-98336493D01*
X134420422Y-98583576D01*
X134501534Y-98742764D01*
X134538366Y-98815051D01*
X134691069Y-99025229D01*
X134874771Y-99208931D01*
X135084949Y-99361634D01*
X135202285Y-99421420D01*
X135316423Y-99479577D01*
X135316425Y-99479577D01*
X135316428Y-99479579D01*
X135563507Y-99559860D01*
X135695706Y-99580797D01*
X135820098Y-99600500D01*
X135820103Y-99600500D01*
X136079902Y-99600500D01*
X136193298Y-99582539D01*
X136336493Y-99559860D01*
X136583572Y-99479579D01*
X136815051Y-99361634D01*
X137025229Y-99208931D01*
X137208931Y-99025229D01*
X137361634Y-98815051D01*
X137479579Y-98583572D01*
X137559860Y-98336493D01*
X137582539Y-98193298D01*
X137600500Y-98079902D01*
X137600500Y-97820097D01*
X137578178Y-97679166D01*
X137559860Y-97563507D01*
X137479579Y-97316428D01*
X137479577Y-97316425D01*
X137479577Y-97316423D01*
X137432739Y-97224500D01*
X137361634Y-97084949D01*
X137208931Y-96874771D01*
X137025229Y-96691069D01*
X136815051Y-96538366D01*
X136742764Y-96501534D01*
X136583576Y-96420422D01*
X136336493Y-96340140D01*
X136079902Y-96299500D01*
X136079897Y-96299500D01*
X135820103Y-96299500D01*
X135820098Y-96299500D01*
X135563506Y-96340140D01*
X135316423Y-96420422D01*
X135084945Y-96538368D01*
X134874774Y-96691066D01*
X134874768Y-96691071D01*
X134691071Y-96874768D01*
X134691066Y-96874774D01*
X134538368Y-97084945D01*
X134420422Y-97316423D01*
X134340140Y-97563506D01*
X134299500Y-97820097D01*
X132600500Y-97820097D01*
X132578178Y-97679166D01*
X132559860Y-97563507D01*
X132479579Y-97316428D01*
X132479577Y-97316425D01*
X132479577Y-97316423D01*
X132432739Y-97224500D01*
X132361634Y-97084949D01*
X132208931Y-96874771D01*
X132025229Y-96691069D01*
X131815051Y-96538366D01*
X131742764Y-96501534D01*
X131583576Y-96420422D01*
X131336493Y-96340140D01*
X131079902Y-96299500D01*
X131079897Y-96299500D01*
X130820103Y-96299500D01*
X130820098Y-96299500D01*
X130563506Y-96340140D01*
X130316423Y-96420422D01*
X130084945Y-96538368D01*
X129874774Y-96691066D01*
X129874768Y-96691071D01*
X129691071Y-96874768D01*
X129691066Y-96874774D01*
X129538368Y-97084945D01*
X129420422Y-97316423D01*
X129340140Y-97563506D01*
X129299500Y-97820097D01*
X119187480Y-97820097D01*
X119220232Y-97716220D01*
X119223917Y-97706095D01*
X119370003Y-97353412D01*
X119374561Y-97343638D01*
X119550822Y-97005045D01*
X119556217Y-96995700D01*
X119761325Y-96673744D01*
X119767515Y-96664905D01*
X119999896Y-96362060D01*
X120006834Y-96353791D01*
X120264726Y-96072352D01*
X120272352Y-96064726D01*
X120553791Y-95806834D01*
X120562060Y-95799896D01*
X120864905Y-95567515D01*
X120873744Y-95561325D01*
X121195700Y-95356217D01*
X121205045Y-95350822D01*
X121543638Y-95174561D01*
X121553412Y-95170003D01*
X121906095Y-95023917D01*
X121916227Y-95020230D01*
X122280285Y-94905443D01*
X122290714Y-94902648D01*
X122663402Y-94820024D01*
X122674032Y-94818151D01*
X123052496Y-94768325D01*
X123063224Y-94767387D01*
X123447297Y-94750617D01*
X123452706Y-94750500D01*
X123515892Y-94750500D01*
X163384108Y-94750500D01*
X163447294Y-94750500D01*
X163452702Y-94750617D01*
G37*
%TD.AperFunction*%
%TA.AperFunction,NonConductor*%
G36*
X145604777Y-103259096D02*
G01*
X145628588Y-103265096D01*
X145760783Y-103275500D01*
X145825499Y-103275499D01*
X145892538Y-103295183D01*
X145938294Y-103347986D01*
X145949500Y-103399499D01*
X145949500Y-105404471D01*
X145929815Y-105471510D01*
X145877011Y-105517265D01*
X145807853Y-105527209D01*
X145744297Y-105498184D01*
X145712601Y-105455752D01*
X145667008Y-105355377D01*
X145667007Y-105355374D01*
X145538819Y-105170346D01*
X145486819Y-105118346D01*
X145453334Y-105057023D01*
X145450500Y-105030665D01*
X145450500Y-103379342D01*
X145470185Y-103312303D01*
X145522989Y-103266548D01*
X145592147Y-103256604D01*
X145604777Y-103259096D01*
G37*
%TD.AperFunction*%
%TA.AperFunction,NonConductor*%
G36*
X142392326Y-102491076D02*
G01*
X142438189Y-102543786D01*
X142449500Y-102595528D01*
X142449500Y-105030665D01*
X142429815Y-105097704D01*
X142413181Y-105118346D01*
X142361184Y-105170342D01*
X142361174Y-105170354D01*
X142232997Y-105355367D01*
X142232991Y-105355377D01*
X142187399Y-105455752D01*
X142141752Y-105508650D01*
X142074753Y-105528471D01*
X142007673Y-105508923D01*
X141961811Y-105456212D01*
X141950500Y-105404471D01*
X141950500Y-102969335D01*
X141970185Y-102902296D01*
X141986819Y-102881654D01*
X142038819Y-102829654D01*
X142167007Y-102644626D01*
X142212601Y-102544246D01*
X142258248Y-102491350D01*
X142325247Y-102471528D01*
X142392326Y-102491076D01*
G37*
%TD.AperFunction*%
%TA.AperFunction,NonConductor*%
G36*
X145892326Y-107066076D02*
G01*
X145938189Y-107118786D01*
X145949500Y-107170528D01*
X145949500Y-108329471D01*
X145929815Y-108396510D01*
X145877011Y-108442265D01*
X145807853Y-108452209D01*
X145744297Y-108423184D01*
X145712601Y-108380752D01*
X145667008Y-108280377D01*
X145667007Y-108280374D01*
X145635297Y-108234603D01*
X145538825Y-108095354D01*
X145538822Y-108095350D01*
X145538819Y-108095346D01*
X145379654Y-107936181D01*
X145258039Y-107851926D01*
X145214146Y-107797570D01*
X145206606Y-107728108D01*
X145237817Y-107665597D01*
X145258035Y-107648076D01*
X145379654Y-107563819D01*
X145538819Y-107404654D01*
X145667007Y-107219626D01*
X145712601Y-107119246D01*
X145758248Y-107066350D01*
X145825247Y-107046528D01*
X145892326Y-107066076D01*
G37*
%TD.AperFunction*%
%TA.AperFunction,NonConductor*%
G36*
X142155703Y-107076815D02*
G01*
X142187399Y-107119247D01*
X142232991Y-107219622D01*
X142232997Y-107219632D01*
X142361174Y-107404645D01*
X142361178Y-107404650D01*
X142361181Y-107404654D01*
X142520346Y-107563819D01*
X142520350Y-107563822D01*
X142520354Y-107563825D01*
X142641956Y-107648072D01*
X142685853Y-107702431D01*
X142693392Y-107771893D01*
X142662181Y-107834404D01*
X142641956Y-107851928D01*
X142520354Y-107936174D01*
X142520342Y-107936184D01*
X142361184Y-108095342D01*
X142361174Y-108095354D01*
X142232997Y-108280367D01*
X142232991Y-108280377D01*
X142187399Y-108380752D01*
X142141752Y-108433650D01*
X142074753Y-108453471D01*
X142007673Y-108433923D01*
X141961811Y-108381212D01*
X141950500Y-108329471D01*
X141950500Y-107170528D01*
X141970185Y-107103489D01*
X142022989Y-107057734D01*
X142092147Y-107047790D01*
X142155703Y-107076815D01*
G37*
%TD.AperFunction*%
%TA.AperFunction,NonConductor*%
G36*
X145892326Y-109991076D02*
G01*
X145938189Y-110043786D01*
X145949500Y-110095528D01*
X145949500Y-111368097D01*
X145986446Y-111601368D01*
X146059433Y-111825996D01*
X146130153Y-111964791D01*
X146166657Y-112036434D01*
X146250472Y-112151795D01*
X146305484Y-112227511D01*
X146305485Y-112227513D01*
X146615791Y-112537819D01*
X146649276Y-112599142D01*
X146644292Y-112668834D01*
X146602420Y-112724767D01*
X146536956Y-112749184D01*
X146528110Y-112749500D01*
X145574500Y-112749500D01*
X145507461Y-112729815D01*
X145461706Y-112677011D01*
X145450500Y-112625500D01*
X145450500Y-110469335D01*
X145470185Y-110402296D01*
X145486819Y-110381654D01*
X145500381Y-110368092D01*
X145538819Y-110329654D01*
X145667007Y-110144626D01*
X145712601Y-110044246D01*
X145758248Y-109991350D01*
X145825247Y-109971528D01*
X145892326Y-109991076D01*
G37*
%TD.AperFunction*%
%TA.AperFunction,NonConductor*%
G36*
X142155703Y-110001815D02*
G01*
X142187399Y-110044247D01*
X142232991Y-110144622D01*
X142232997Y-110144632D01*
X142361174Y-110329645D01*
X142361178Y-110329650D01*
X142361181Y-110329654D01*
X142361184Y-110329657D01*
X142413181Y-110381654D01*
X142446666Y-110442977D01*
X142449500Y-110469335D01*
X142449500Y-112625500D01*
X142429815Y-112692539D01*
X142377011Y-112738294D01*
X142325500Y-112749500D01*
X140371889Y-112749500D01*
X140304850Y-112729815D01*
X140259095Y-112677011D01*
X140249151Y-112607853D01*
X140278176Y-112544297D01*
X140284208Y-112537819D01*
X140921244Y-111900783D01*
X141594517Y-111227510D01*
X141733343Y-111036434D01*
X141840568Y-110825992D01*
X141878225Y-110710096D01*
X141913553Y-110601368D01*
X141934465Y-110469335D01*
X141950500Y-110368097D01*
X141950500Y-110095528D01*
X141970185Y-110028489D01*
X142022989Y-109982734D01*
X142092147Y-109972790D01*
X142155703Y-110001815D01*
G37*
%TD.AperFunction*%
M02*
