%TF.GenerationSoftware,KiCad,Pcbnew,9.0.8*%
%TF.CreationDate,2026-03-21T10:42:11-04:00*%
%TF.ProjectId,J1772 Enabler,4a313737-3220-4456-9e61-626c65722e6b,rev?*%
%TF.SameCoordinates,Original*%
%TF.FileFunction,Soldermask,Top*%
%TF.FilePolarity,Negative*%
%FSLAX46Y46*%
G04 Gerber Fmt 4.6, Leading zero omitted, Abs format (unit mm)*
G04 Created by KiCad (PCBNEW 9.0.8) date 2026-03-21 10:42:11*
%MOMM*%
%LPD*%
G01*
G04 APERTURE LIST*
G04 Aperture macros list*
%AMRoundRect*
0 Rectangle with rounded corners*
0 $1 Rounding radius*
0 $2 $3 $4 $5 $6 $7 $8 $9 X,Y pos of 4 corners*
0 Add a 4 corners polygon primitive as box body*
4,1,4,$2,$3,$4,$5,$6,$7,$8,$9,$2,$3,0*
0 Add four circle primitives for the rounded corners*
1,1,$1+$1,$2,$3*
1,1,$1+$1,$4,$5*
1,1,$1+$1,$6,$7*
1,1,$1+$1,$8,$9*
0 Add four rect primitives between the rounded corners*
20,1,$1+$1,$2,$3,$4,$5,0*
20,1,$1+$1,$4,$5,$6,$7,0*
20,1,$1+$1,$6,$7,$8,$9,0*
20,1,$1+$1,$8,$9,$2,$3,0*%
G04 Aperture macros list end*
%ADD10C,0.000000*%
%ADD11C,4.700000*%
%ADD12C,7.500000*%
%ADD13RoundRect,0.250000X-0.625000X0.312500X-0.625000X-0.312500X0.625000X-0.312500X0.625000X0.312500X0*%
%ADD14C,2.800000*%
%ADD15RoundRect,0.250000X1.050000X1.050000X-1.050000X1.050000X-1.050000X-1.050000X1.050000X-1.050000X0*%
%ADD16C,2.600000*%
%ADD17RoundRect,0.250000X-0.625000X0.375000X-0.625000X-0.375000X0.625000X-0.375000X0.625000X0.375000X0*%
G04 APERTURE END LIST*
D10*
%TO.C,G\u002A\u002A\u002A*%
G36*
X164060642Y-112500914D02*
G01*
X164258034Y-112500999D01*
X164468947Y-112501132D01*
X164692007Y-112501312D01*
X164925836Y-112501539D01*
X165169058Y-112501815D01*
X165420298Y-112502138D01*
X165534811Y-112502298D01*
X167946596Y-112505746D01*
X165281273Y-115131513D01*
X165050082Y-115359277D01*
X164821490Y-115584489D01*
X164596434Y-115806225D01*
X164375854Y-116023560D01*
X164160687Y-116235568D01*
X163951873Y-116441325D01*
X163750350Y-116639906D01*
X163557056Y-116830385D01*
X163372930Y-117011839D01*
X163198910Y-117183341D01*
X163035935Y-117343968D01*
X162884943Y-117492794D01*
X162746873Y-117628895D01*
X162622663Y-117751345D01*
X162513252Y-117859219D01*
X162419578Y-117951593D01*
X162342580Y-118027542D01*
X162283196Y-118086140D01*
X162244227Y-118124624D01*
X162161585Y-118206001D01*
X162085329Y-118280531D01*
X162017546Y-118346216D01*
X161960324Y-118401056D01*
X161915751Y-118443054D01*
X161885914Y-118470212D01*
X161872902Y-118480532D01*
X161872503Y-118480388D01*
X161874447Y-118465189D01*
X161880052Y-118425344D01*
X161888976Y-118363196D01*
X161900878Y-118281087D01*
X161915416Y-118181358D01*
X161932249Y-118066352D01*
X161951035Y-117938412D01*
X161971433Y-117799878D01*
X161993101Y-117653093D01*
X161995661Y-117635774D01*
X162118819Y-116802739D01*
X162178187Y-116748174D01*
X162194391Y-116733016D01*
X162229350Y-116700111D01*
X162282001Y-116650463D01*
X162351281Y-116585075D01*
X162436129Y-116504952D01*
X162535482Y-116411098D01*
X162648277Y-116304517D01*
X162773453Y-116186213D01*
X162909946Y-116057190D01*
X163056695Y-115918451D01*
X163212637Y-115771003D01*
X163376710Y-115615847D01*
X163547851Y-115453989D01*
X163724997Y-115286433D01*
X163907087Y-115114182D01*
X163931843Y-115090762D01*
X165626131Y-113487916D01*
X164301787Y-113484438D01*
X164064749Y-113483680D01*
X163849349Y-113482711D01*
X163656197Y-113481540D01*
X163485902Y-113480174D01*
X163339076Y-113478621D01*
X163216327Y-113476889D01*
X163118267Y-113474984D01*
X163045504Y-113472916D01*
X162998650Y-113470691D01*
X162978313Y-113468318D01*
X162977443Y-113467695D01*
X162979349Y-113450610D01*
X162984702Y-113410738D01*
X162992957Y-113351788D01*
X163003566Y-113277470D01*
X163015983Y-113191493D01*
X163029663Y-113097565D01*
X163044058Y-112999396D01*
X163058622Y-112900695D01*
X163072810Y-112805170D01*
X163086074Y-112716531D01*
X163097869Y-112638487D01*
X163107648Y-112574747D01*
X163114865Y-112529020D01*
X163118973Y-112505014D01*
X163119643Y-112502298D01*
X163133417Y-112501953D01*
X163173096Y-112501657D01*
X163237306Y-112501408D01*
X163324670Y-112501206D01*
X163433812Y-112501052D01*
X163563357Y-112500946D01*
X163711927Y-112500888D01*
X163878147Y-112500877D01*
X164060642Y-112500914D01*
G37*
G36*
X160066557Y-114909949D02*
G01*
X160062523Y-114934199D01*
X160055443Y-114980972D01*
X160045971Y-115045759D01*
X160034765Y-115124055D01*
X160022479Y-115211351D01*
X160017429Y-115247637D01*
X160004960Y-115336728D01*
X159993360Y-115418114D01*
X159983270Y-115487416D01*
X159975332Y-115540253D01*
X159970186Y-115572246D01*
X159969027Y-115578347D01*
X159962253Y-115608950D01*
X158976911Y-115612450D01*
X157991568Y-115615950D01*
X157893488Y-116291192D01*
X157873944Y-116425735D01*
X157855358Y-116553669D01*
X157838146Y-116672137D01*
X157822722Y-116778282D01*
X157809501Y-116869250D01*
X157798898Y-116942183D01*
X157791329Y-116994225D01*
X157787208Y-117022521D01*
X157786932Y-117024409D01*
X157778457Y-117082384D01*
X157411837Y-117082384D01*
X157045217Y-117082384D01*
X157053635Y-117031229D01*
X157056883Y-117009809D01*
X157063691Y-116963568D01*
X157073744Y-116894691D01*
X157086724Y-116805363D01*
X157102315Y-116697769D01*
X157120202Y-116574093D01*
X157140068Y-116436521D01*
X157161597Y-116287237D01*
X157184472Y-116128427D01*
X157208378Y-115962274D01*
X157213062Y-115929699D01*
X157364071Y-114879323D01*
X158719063Y-114875846D01*
X160074055Y-114872370D01*
X160066557Y-114909949D01*
G37*
G36*
X162314981Y-113644810D02*
G01*
X162511166Y-113644886D01*
X162683218Y-113645048D01*
X162832715Y-113645323D01*
X162961230Y-113645739D01*
X163070339Y-113646324D01*
X163161618Y-113647105D01*
X163236642Y-113648112D01*
X163296985Y-113649370D01*
X163344225Y-113650910D01*
X163379935Y-113652758D01*
X163405691Y-113654942D01*
X163423069Y-113657491D01*
X163433644Y-113660431D01*
X163438991Y-113663792D01*
X163440685Y-113667601D01*
X163440722Y-113668662D01*
X163438796Y-113685845D01*
X163433398Y-113727825D01*
X163424830Y-113792377D01*
X163413396Y-113877277D01*
X163399398Y-113980303D01*
X163383140Y-114099231D01*
X163364923Y-114231836D01*
X163345052Y-114375895D01*
X163323829Y-114529185D01*
X163307408Y-114647422D01*
X163174618Y-115602309D01*
X162185939Y-115609130D01*
X161197261Y-115615950D01*
X161092488Y-116338936D01*
X161072603Y-116476217D01*
X161053918Y-116605345D01*
X161036796Y-116723805D01*
X161021598Y-116829079D01*
X161008689Y-116918652D01*
X160998431Y-116990007D01*
X160991187Y-117040626D01*
X160987320Y-117067994D01*
X160986768Y-117072153D01*
X160973457Y-117074858D01*
X160936403Y-117077294D01*
X160879143Y-117079364D01*
X160805215Y-117080968D01*
X160718159Y-117082007D01*
X160621512Y-117082384D01*
X160619897Y-117082384D01*
X160253973Y-117082384D01*
X160412624Y-115980854D01*
X160571274Y-114879323D01*
X161552430Y-114872502D01*
X162533586Y-114865682D01*
X162563528Y-114661063D01*
X162574162Y-114586412D01*
X162583274Y-114518694D01*
X162590117Y-114463748D01*
X162593945Y-114427413D01*
X162594480Y-114418931D01*
X162595489Y-114381417D01*
X161620140Y-114381417D01*
X161426342Y-114381327D01*
X161258262Y-114381038D01*
X161114338Y-114380522D01*
X160993005Y-114379752D01*
X160892701Y-114378701D01*
X160811861Y-114377342D01*
X160748924Y-114375647D01*
X160702324Y-114373589D01*
X160670498Y-114371141D01*
X160651884Y-114368275D01*
X160644918Y-114364964D01*
X160644780Y-114364366D01*
X160646637Y-114346720D01*
X160651873Y-114305848D01*
X160659975Y-114245527D01*
X160670428Y-114169533D01*
X160682720Y-114081643D01*
X160694851Y-113996052D01*
X160744933Y-113644790D01*
X162093089Y-113644790D01*
X162314981Y-113644810D01*
G37*
G36*
X160232092Y-113689124D02*
G01*
X160228236Y-113714958D01*
X160221231Y-113763413D01*
X160211701Y-113830091D01*
X160200275Y-113910596D01*
X160187579Y-114000528D01*
X160179577Y-114057438D01*
X160134094Y-114381417D01*
X158786596Y-114381417D01*
X158565022Y-114381404D01*
X158369148Y-114381343D01*
X158197392Y-114381206D01*
X158048172Y-114380962D01*
X157919906Y-114380581D01*
X157811010Y-114380034D01*
X157719904Y-114379291D01*
X157645004Y-114378322D01*
X157584729Y-114377097D01*
X157537496Y-114375586D01*
X157501723Y-114373759D01*
X157475828Y-114371588D01*
X157458228Y-114369040D01*
X157447341Y-114366088D01*
X157441586Y-114362701D01*
X157439379Y-114358849D01*
X157439098Y-114356005D01*
X157440987Y-114335832D01*
X157446297Y-114292695D01*
X157454487Y-114230626D01*
X157465017Y-114153656D01*
X157477348Y-114065815D01*
X157486842Y-113999463D01*
X157500061Y-113907317D01*
X157511877Y-113824076D01*
X157521755Y-113753563D01*
X157529164Y-113699603D01*
X157533571Y-113666019D01*
X157534586Y-113656561D01*
X157547928Y-113654894D01*
X157586758Y-113653300D01*
X157649279Y-113651794D01*
X157733697Y-113650393D01*
X157838218Y-113649112D01*
X157961045Y-113647967D01*
X158100383Y-113646973D01*
X158254438Y-113646145D01*
X158421413Y-113645501D01*
X158599515Y-113645054D01*
X158786948Y-113644821D01*
X158886855Y-113644790D01*
X160239123Y-113644790D01*
X160232092Y-113689124D01*
G37*
%TD*%
D11*
%TO.C,REF\u002A\u002A*%
X123450000Y-106750000D03*
D12*
X123450000Y-106750000D03*
%TD*%
D11*
%TO.C,REF\u002A\u002A*%
X163450000Y-106750000D03*
D12*
X163450000Y-106750000D03*
%TD*%
D13*
%TO.C,R2*%
X146450000Y-98787500D03*
X146450000Y-101712500D03*
%TD*%
%TO.C,R1*%
X143950000Y-106287500D03*
X143950000Y-109212500D03*
%TD*%
D14*
%TO.C,GND*%
X130950000Y-97950000D03*
D15*
X130950000Y-111750000D03*
%TD*%
D14*
%TO.C,SWITCH*%
X155750000Y-97950000D03*
X150950000Y-97950000D03*
D15*
X155750000Y-111750000D03*
D16*
X150950000Y-111750000D03*
%TD*%
D14*
%TO.C,CTRL_PILOT*%
X135950000Y-97950000D03*
D15*
X135950000Y-111750000D03*
%TD*%
D17*
%TO.C,D1*%
X140450000Y-98850000D03*
X140450000Y-101650000D03*
%TD*%
M02*
