%TF.GenerationSoftware,KiCad,Pcbnew,9.0.8*%
%TF.CreationDate,2026-03-21T10:42:11-04:00*%
%TF.ProjectId,J1772 Enabler,4a313737-3220-4456-9e61-626c65722e6b,rev?*%
%TF.SameCoordinates,Original*%
%TF.FileFunction,Legend,Top*%
%TF.FilePolarity,Positive*%
%FSLAX46Y46*%
G04 Gerber Fmt 4.6, Leading zero omitted, Abs format (unit mm)*
G04 Created by KiCad (PCBNEW 9.0.8) date 2026-03-21 10:42:11*
%MOMM*%
%LPD*%
G01*
G04 APERTURE LIST*
%ADD10C,0.150000*%
%ADD11C,0.120000*%
G04 APERTURE END LIST*
D10*
X135336779Y-117869819D02*
X135336779Y-116869819D01*
X135336779Y-116869819D02*
X135574874Y-116869819D01*
X135574874Y-116869819D02*
X135717731Y-116917438D01*
X135717731Y-116917438D02*
X135812969Y-117012676D01*
X135812969Y-117012676D02*
X135860588Y-117107914D01*
X135860588Y-117107914D02*
X135908207Y-117298390D01*
X135908207Y-117298390D02*
X135908207Y-117441247D01*
X135908207Y-117441247D02*
X135860588Y-117631723D01*
X135860588Y-117631723D02*
X135812969Y-117726961D01*
X135812969Y-117726961D02*
X135717731Y-117822200D01*
X135717731Y-117822200D02*
X135574874Y-117869819D01*
X135574874Y-117869819D02*
X135336779Y-117869819D01*
X136717731Y-117822200D02*
X136622493Y-117869819D01*
X136622493Y-117869819D02*
X136432017Y-117869819D01*
X136432017Y-117869819D02*
X136336779Y-117822200D01*
X136336779Y-117822200D02*
X136289160Y-117726961D01*
X136289160Y-117726961D02*
X136289160Y-117346009D01*
X136289160Y-117346009D02*
X136336779Y-117250771D01*
X136336779Y-117250771D02*
X136432017Y-117203152D01*
X136432017Y-117203152D02*
X136622493Y-117203152D01*
X136622493Y-117203152D02*
X136717731Y-117250771D01*
X136717731Y-117250771D02*
X136765350Y-117346009D01*
X136765350Y-117346009D02*
X136765350Y-117441247D01*
X136765350Y-117441247D02*
X136289160Y-117536485D01*
X137146303Y-117822200D02*
X137241541Y-117869819D01*
X137241541Y-117869819D02*
X137432017Y-117869819D01*
X137432017Y-117869819D02*
X137527255Y-117822200D01*
X137527255Y-117822200D02*
X137574874Y-117726961D01*
X137574874Y-117726961D02*
X137574874Y-117679342D01*
X137574874Y-117679342D02*
X137527255Y-117584104D01*
X137527255Y-117584104D02*
X137432017Y-117536485D01*
X137432017Y-117536485D02*
X137289160Y-117536485D01*
X137289160Y-117536485D02*
X137193922Y-117488866D01*
X137193922Y-117488866D02*
X137146303Y-117393628D01*
X137146303Y-117393628D02*
X137146303Y-117346009D01*
X137146303Y-117346009D02*
X137193922Y-117250771D01*
X137193922Y-117250771D02*
X137289160Y-117203152D01*
X137289160Y-117203152D02*
X137432017Y-117203152D01*
X137432017Y-117203152D02*
X137527255Y-117250771D01*
X138003446Y-117869819D02*
X138003446Y-117203152D01*
X138003446Y-116869819D02*
X137955827Y-116917438D01*
X137955827Y-116917438D02*
X138003446Y-116965057D01*
X138003446Y-116965057D02*
X138051065Y-116917438D01*
X138051065Y-116917438D02*
X138003446Y-116869819D01*
X138003446Y-116869819D02*
X138003446Y-116965057D01*
X138908207Y-117203152D02*
X138908207Y-118012676D01*
X138908207Y-118012676D02*
X138860588Y-118107914D01*
X138860588Y-118107914D02*
X138812969Y-118155533D01*
X138812969Y-118155533D02*
X138717731Y-118203152D01*
X138717731Y-118203152D02*
X138574874Y-118203152D01*
X138574874Y-118203152D02*
X138479636Y-118155533D01*
X138908207Y-117822200D02*
X138812969Y-117869819D01*
X138812969Y-117869819D02*
X138622493Y-117869819D01*
X138622493Y-117869819D02*
X138527255Y-117822200D01*
X138527255Y-117822200D02*
X138479636Y-117774580D01*
X138479636Y-117774580D02*
X138432017Y-117679342D01*
X138432017Y-117679342D02*
X138432017Y-117393628D01*
X138432017Y-117393628D02*
X138479636Y-117298390D01*
X138479636Y-117298390D02*
X138527255Y-117250771D01*
X138527255Y-117250771D02*
X138622493Y-117203152D01*
X138622493Y-117203152D02*
X138812969Y-117203152D01*
X138812969Y-117203152D02*
X138908207Y-117250771D01*
X139384398Y-117203152D02*
X139384398Y-117869819D01*
X139384398Y-117298390D02*
X139432017Y-117250771D01*
X139432017Y-117250771D02*
X139527255Y-117203152D01*
X139527255Y-117203152D02*
X139670112Y-117203152D01*
X139670112Y-117203152D02*
X139765350Y-117250771D01*
X139765350Y-117250771D02*
X139812969Y-117346009D01*
X139812969Y-117346009D02*
X139812969Y-117869819D01*
X140670112Y-117822200D02*
X140574874Y-117869819D01*
X140574874Y-117869819D02*
X140384398Y-117869819D01*
X140384398Y-117869819D02*
X140289160Y-117822200D01*
X140289160Y-117822200D02*
X140241541Y-117726961D01*
X140241541Y-117726961D02*
X140241541Y-117346009D01*
X140241541Y-117346009D02*
X140289160Y-117250771D01*
X140289160Y-117250771D02*
X140384398Y-117203152D01*
X140384398Y-117203152D02*
X140574874Y-117203152D01*
X140574874Y-117203152D02*
X140670112Y-117250771D01*
X140670112Y-117250771D02*
X140717731Y-117346009D01*
X140717731Y-117346009D02*
X140717731Y-117441247D01*
X140717731Y-117441247D02*
X140241541Y-117536485D01*
X141574874Y-117869819D02*
X141574874Y-116869819D01*
X141574874Y-117822200D02*
X141479636Y-117869819D01*
X141479636Y-117869819D02*
X141289160Y-117869819D01*
X141289160Y-117869819D02*
X141193922Y-117822200D01*
X141193922Y-117822200D02*
X141146303Y-117774580D01*
X141146303Y-117774580D02*
X141098684Y-117679342D01*
X141098684Y-117679342D02*
X141098684Y-117393628D01*
X141098684Y-117393628D02*
X141146303Y-117298390D01*
X141146303Y-117298390D02*
X141193922Y-117250771D01*
X141193922Y-117250771D02*
X141289160Y-117203152D01*
X141289160Y-117203152D02*
X141479636Y-117203152D01*
X141479636Y-117203152D02*
X141574874Y-117250771D01*
X142812970Y-117869819D02*
X142812970Y-116869819D01*
X142812970Y-117250771D02*
X142908208Y-117203152D01*
X142908208Y-117203152D02*
X143098684Y-117203152D01*
X143098684Y-117203152D02*
X143193922Y-117250771D01*
X143193922Y-117250771D02*
X143241541Y-117298390D01*
X143241541Y-117298390D02*
X143289160Y-117393628D01*
X143289160Y-117393628D02*
X143289160Y-117679342D01*
X143289160Y-117679342D02*
X143241541Y-117774580D01*
X143241541Y-117774580D02*
X143193922Y-117822200D01*
X143193922Y-117822200D02*
X143098684Y-117869819D01*
X143098684Y-117869819D02*
X142908208Y-117869819D01*
X142908208Y-117869819D02*
X142812970Y-117822200D01*
X143622494Y-117203152D02*
X143860589Y-117869819D01*
X144098684Y-117203152D02*
X143860589Y-117869819D01*
X143860589Y-117869819D02*
X143765351Y-118107914D01*
X143765351Y-118107914D02*
X143717732Y-118155533D01*
X143717732Y-118155533D02*
X143622494Y-118203152D01*
X145574875Y-117346009D02*
X145241542Y-117346009D01*
X145241542Y-117869819D02*
X145241542Y-116869819D01*
X145241542Y-116869819D02*
X145717732Y-116869819D01*
X146098685Y-117869819D02*
X146098685Y-117203152D01*
X146098685Y-117393628D02*
X146146304Y-117298390D01*
X146146304Y-117298390D02*
X146193923Y-117250771D01*
X146193923Y-117250771D02*
X146289161Y-117203152D01*
X146289161Y-117203152D02*
X146384399Y-117203152D01*
X147098685Y-117822200D02*
X147003447Y-117869819D01*
X147003447Y-117869819D02*
X146812971Y-117869819D01*
X146812971Y-117869819D02*
X146717733Y-117822200D01*
X146717733Y-117822200D02*
X146670114Y-117726961D01*
X146670114Y-117726961D02*
X146670114Y-117346009D01*
X146670114Y-117346009D02*
X146717733Y-117250771D01*
X146717733Y-117250771D02*
X146812971Y-117203152D01*
X146812971Y-117203152D02*
X147003447Y-117203152D01*
X147003447Y-117203152D02*
X147098685Y-117250771D01*
X147098685Y-117250771D02*
X147146304Y-117346009D01*
X147146304Y-117346009D02*
X147146304Y-117441247D01*
X147146304Y-117441247D02*
X146670114Y-117536485D01*
X147955828Y-117822200D02*
X147860590Y-117869819D01*
X147860590Y-117869819D02*
X147670114Y-117869819D01*
X147670114Y-117869819D02*
X147574876Y-117822200D01*
X147574876Y-117822200D02*
X147527257Y-117726961D01*
X147527257Y-117726961D02*
X147527257Y-117346009D01*
X147527257Y-117346009D02*
X147574876Y-117250771D01*
X147574876Y-117250771D02*
X147670114Y-117203152D01*
X147670114Y-117203152D02*
X147860590Y-117203152D01*
X147860590Y-117203152D02*
X147955828Y-117250771D01*
X147955828Y-117250771D02*
X148003447Y-117346009D01*
X148003447Y-117346009D02*
X148003447Y-117441247D01*
X148003447Y-117441247D02*
X147527257Y-117536485D01*
X148432019Y-117203152D02*
X148432019Y-118203152D01*
X148432019Y-117250771D02*
X148527257Y-117203152D01*
X148527257Y-117203152D02*
X148717733Y-117203152D01*
X148717733Y-117203152D02*
X148812971Y-117250771D01*
X148812971Y-117250771D02*
X148860590Y-117298390D01*
X148860590Y-117298390D02*
X148908209Y-117393628D01*
X148908209Y-117393628D02*
X148908209Y-117679342D01*
X148908209Y-117679342D02*
X148860590Y-117774580D01*
X148860590Y-117774580D02*
X148812971Y-117822200D01*
X148812971Y-117822200D02*
X148717733Y-117869819D01*
X148717733Y-117869819D02*
X148527257Y-117869819D01*
X148527257Y-117869819D02*
X148432019Y-117822200D01*
X149479638Y-117869819D02*
X149384400Y-117822200D01*
X149384400Y-117822200D02*
X149336781Y-117774580D01*
X149336781Y-117774580D02*
X149289162Y-117679342D01*
X149289162Y-117679342D02*
X149289162Y-117393628D01*
X149289162Y-117393628D02*
X149336781Y-117298390D01*
X149336781Y-117298390D02*
X149384400Y-117250771D01*
X149384400Y-117250771D02*
X149479638Y-117203152D01*
X149479638Y-117203152D02*
X149622495Y-117203152D01*
X149622495Y-117203152D02*
X149717733Y-117250771D01*
X149717733Y-117250771D02*
X149765352Y-117298390D01*
X149765352Y-117298390D02*
X149812971Y-117393628D01*
X149812971Y-117393628D02*
X149812971Y-117679342D01*
X149812971Y-117679342D02*
X149765352Y-117774580D01*
X149765352Y-117774580D02*
X149717733Y-117822200D01*
X149717733Y-117822200D02*
X149622495Y-117869819D01*
X149622495Y-117869819D02*
X149479638Y-117869819D01*
X150241543Y-117869819D02*
X150241543Y-117203152D01*
X150241543Y-117393628D02*
X150289162Y-117298390D01*
X150289162Y-117298390D02*
X150336781Y-117250771D01*
X150336781Y-117250771D02*
X150432019Y-117203152D01*
X150432019Y-117203152D02*
X150527257Y-117203152D01*
X150717734Y-117203152D02*
X151098686Y-117203152D01*
X150860591Y-116869819D02*
X150860591Y-117726961D01*
X150860591Y-117726961D02*
X150908210Y-117822200D01*
X150908210Y-117822200D02*
X151003448Y-117869819D01*
X151003448Y-117869819D02*
X151098686Y-117869819D01*
X151336782Y-116869819D02*
X152003448Y-116869819D01*
X152003448Y-116869819D02*
X151574877Y-117869819D01*
X148734819Y-100416666D02*
X148258628Y-100749999D01*
X148734819Y-100988094D02*
X147734819Y-100988094D01*
X147734819Y-100988094D02*
X147734819Y-100607142D01*
X147734819Y-100607142D02*
X147782438Y-100511904D01*
X147782438Y-100511904D02*
X147830057Y-100464285D01*
X147830057Y-100464285D02*
X147925295Y-100416666D01*
X147925295Y-100416666D02*
X148068152Y-100416666D01*
X148068152Y-100416666D02*
X148163390Y-100464285D01*
X148163390Y-100464285D02*
X148211009Y-100511904D01*
X148211009Y-100511904D02*
X148258628Y-100607142D01*
X148258628Y-100607142D02*
X148258628Y-100988094D01*
X147830057Y-100035713D02*
X147782438Y-99988094D01*
X147782438Y-99988094D02*
X147734819Y-99892856D01*
X147734819Y-99892856D02*
X147734819Y-99654761D01*
X147734819Y-99654761D02*
X147782438Y-99559523D01*
X147782438Y-99559523D02*
X147830057Y-99511904D01*
X147830057Y-99511904D02*
X147925295Y-99464285D01*
X147925295Y-99464285D02*
X148020533Y-99464285D01*
X148020533Y-99464285D02*
X148163390Y-99511904D01*
X148163390Y-99511904D02*
X148734819Y-100083332D01*
X148734819Y-100083332D02*
X148734819Y-99464285D01*
X146234819Y-107916666D02*
X145758628Y-108249999D01*
X146234819Y-108488094D02*
X145234819Y-108488094D01*
X145234819Y-108488094D02*
X145234819Y-108107142D01*
X145234819Y-108107142D02*
X145282438Y-108011904D01*
X145282438Y-108011904D02*
X145330057Y-107964285D01*
X145330057Y-107964285D02*
X145425295Y-107916666D01*
X145425295Y-107916666D02*
X145568152Y-107916666D01*
X145568152Y-107916666D02*
X145663390Y-107964285D01*
X145663390Y-107964285D02*
X145711009Y-108011904D01*
X145711009Y-108011904D02*
X145758628Y-108107142D01*
X145758628Y-108107142D02*
X145758628Y-108488094D01*
X146234819Y-106964285D02*
X146234819Y-107535713D01*
X146234819Y-107249999D02*
X145234819Y-107249999D01*
X145234819Y-107249999D02*
X145377676Y-107345237D01*
X145377676Y-107345237D02*
X145472914Y-107440475D01*
X145472914Y-107440475D02*
X145520533Y-107535713D01*
X130452438Y-105561904D02*
X130404819Y-105657142D01*
X130404819Y-105657142D02*
X130404819Y-105799999D01*
X130404819Y-105799999D02*
X130452438Y-105942856D01*
X130452438Y-105942856D02*
X130547676Y-106038094D01*
X130547676Y-106038094D02*
X130642914Y-106085713D01*
X130642914Y-106085713D02*
X130833390Y-106133332D01*
X130833390Y-106133332D02*
X130976247Y-106133332D01*
X130976247Y-106133332D02*
X131166723Y-106085713D01*
X131166723Y-106085713D02*
X131261961Y-106038094D01*
X131261961Y-106038094D02*
X131357200Y-105942856D01*
X131357200Y-105942856D02*
X131404819Y-105799999D01*
X131404819Y-105799999D02*
X131404819Y-105704761D01*
X131404819Y-105704761D02*
X131357200Y-105561904D01*
X131357200Y-105561904D02*
X131309580Y-105514285D01*
X131309580Y-105514285D02*
X130976247Y-105514285D01*
X130976247Y-105514285D02*
X130976247Y-105704761D01*
X131404819Y-105085713D02*
X130404819Y-105085713D01*
X130404819Y-105085713D02*
X131404819Y-104514285D01*
X131404819Y-104514285D02*
X130404819Y-104514285D01*
X131404819Y-104038094D02*
X130404819Y-104038094D01*
X130404819Y-104038094D02*
X130404819Y-103799999D01*
X130404819Y-103799999D02*
X130452438Y-103657142D01*
X130452438Y-103657142D02*
X130547676Y-103561904D01*
X130547676Y-103561904D02*
X130642914Y-103514285D01*
X130642914Y-103514285D02*
X130833390Y-103466666D01*
X130833390Y-103466666D02*
X130976247Y-103466666D01*
X130976247Y-103466666D02*
X131166723Y-103514285D01*
X131166723Y-103514285D02*
X131261961Y-103561904D01*
X131261961Y-103561904D02*
X131357200Y-103657142D01*
X131357200Y-103657142D02*
X131404819Y-103799999D01*
X131404819Y-103799999D02*
X131404819Y-104038094D01*
X153757200Y-107299999D02*
X153804819Y-107157142D01*
X153804819Y-107157142D02*
X153804819Y-106919047D01*
X153804819Y-106919047D02*
X153757200Y-106823809D01*
X153757200Y-106823809D02*
X153709580Y-106776190D01*
X153709580Y-106776190D02*
X153614342Y-106728571D01*
X153614342Y-106728571D02*
X153519104Y-106728571D01*
X153519104Y-106728571D02*
X153423866Y-106776190D01*
X153423866Y-106776190D02*
X153376247Y-106823809D01*
X153376247Y-106823809D02*
X153328628Y-106919047D01*
X153328628Y-106919047D02*
X153281009Y-107109523D01*
X153281009Y-107109523D02*
X153233390Y-107204761D01*
X153233390Y-107204761D02*
X153185771Y-107252380D01*
X153185771Y-107252380D02*
X153090533Y-107299999D01*
X153090533Y-107299999D02*
X152995295Y-107299999D01*
X152995295Y-107299999D02*
X152900057Y-107252380D01*
X152900057Y-107252380D02*
X152852438Y-107204761D01*
X152852438Y-107204761D02*
X152804819Y-107109523D01*
X152804819Y-107109523D02*
X152804819Y-106871428D01*
X152804819Y-106871428D02*
X152852438Y-106728571D01*
X152804819Y-106395237D02*
X153804819Y-106157142D01*
X153804819Y-106157142D02*
X153090533Y-105966666D01*
X153090533Y-105966666D02*
X153804819Y-105776190D01*
X153804819Y-105776190D02*
X152804819Y-105538095D01*
X153804819Y-105157142D02*
X152804819Y-105157142D01*
X152804819Y-104823809D02*
X152804819Y-104252381D01*
X153804819Y-104538095D02*
X152804819Y-104538095D01*
X153709580Y-103347619D02*
X153757200Y-103395238D01*
X153757200Y-103395238D02*
X153804819Y-103538095D01*
X153804819Y-103538095D02*
X153804819Y-103633333D01*
X153804819Y-103633333D02*
X153757200Y-103776190D01*
X153757200Y-103776190D02*
X153661961Y-103871428D01*
X153661961Y-103871428D02*
X153566723Y-103919047D01*
X153566723Y-103919047D02*
X153376247Y-103966666D01*
X153376247Y-103966666D02*
X153233390Y-103966666D01*
X153233390Y-103966666D02*
X153042914Y-103919047D01*
X153042914Y-103919047D02*
X152947676Y-103871428D01*
X152947676Y-103871428D02*
X152852438Y-103776190D01*
X152852438Y-103776190D02*
X152804819Y-103633333D01*
X152804819Y-103633333D02*
X152804819Y-103538095D01*
X152804819Y-103538095D02*
X152852438Y-103395238D01*
X152852438Y-103395238D02*
X152900057Y-103347619D01*
X153804819Y-102919047D02*
X152804819Y-102919047D01*
X153281009Y-102919047D02*
X153281009Y-102347619D01*
X153804819Y-102347619D02*
X152804819Y-102347619D01*
X136309580Y-108204762D02*
X136357200Y-108252381D01*
X136357200Y-108252381D02*
X136404819Y-108395238D01*
X136404819Y-108395238D02*
X136404819Y-108490476D01*
X136404819Y-108490476D02*
X136357200Y-108633333D01*
X136357200Y-108633333D02*
X136261961Y-108728571D01*
X136261961Y-108728571D02*
X136166723Y-108776190D01*
X136166723Y-108776190D02*
X135976247Y-108823809D01*
X135976247Y-108823809D02*
X135833390Y-108823809D01*
X135833390Y-108823809D02*
X135642914Y-108776190D01*
X135642914Y-108776190D02*
X135547676Y-108728571D01*
X135547676Y-108728571D02*
X135452438Y-108633333D01*
X135452438Y-108633333D02*
X135404819Y-108490476D01*
X135404819Y-108490476D02*
X135404819Y-108395238D01*
X135404819Y-108395238D02*
X135452438Y-108252381D01*
X135452438Y-108252381D02*
X135500057Y-108204762D01*
X135404819Y-107919047D02*
X135404819Y-107347619D01*
X136404819Y-107633333D02*
X135404819Y-107633333D01*
X136404819Y-106442857D02*
X135928628Y-106776190D01*
X136404819Y-107014285D02*
X135404819Y-107014285D01*
X135404819Y-107014285D02*
X135404819Y-106633333D01*
X135404819Y-106633333D02*
X135452438Y-106538095D01*
X135452438Y-106538095D02*
X135500057Y-106490476D01*
X135500057Y-106490476D02*
X135595295Y-106442857D01*
X135595295Y-106442857D02*
X135738152Y-106442857D01*
X135738152Y-106442857D02*
X135833390Y-106490476D01*
X135833390Y-106490476D02*
X135881009Y-106538095D01*
X135881009Y-106538095D02*
X135928628Y-106633333D01*
X135928628Y-106633333D02*
X135928628Y-107014285D01*
X136404819Y-105538095D02*
X136404819Y-106014285D01*
X136404819Y-106014285D02*
X135404819Y-106014285D01*
X136500057Y-105442857D02*
X136500057Y-104680952D01*
X136404819Y-104442856D02*
X135404819Y-104442856D01*
X135404819Y-104442856D02*
X135404819Y-104061904D01*
X135404819Y-104061904D02*
X135452438Y-103966666D01*
X135452438Y-103966666D02*
X135500057Y-103919047D01*
X135500057Y-103919047D02*
X135595295Y-103871428D01*
X135595295Y-103871428D02*
X135738152Y-103871428D01*
X135738152Y-103871428D02*
X135833390Y-103919047D01*
X135833390Y-103919047D02*
X135881009Y-103966666D01*
X135881009Y-103966666D02*
X135928628Y-104061904D01*
X135928628Y-104061904D02*
X135928628Y-104442856D01*
X136404819Y-103442856D02*
X135404819Y-103442856D01*
X136404819Y-102490476D02*
X136404819Y-102966666D01*
X136404819Y-102966666D02*
X135404819Y-102966666D01*
X135404819Y-101966666D02*
X135404819Y-101776190D01*
X135404819Y-101776190D02*
X135452438Y-101680952D01*
X135452438Y-101680952D02*
X135547676Y-101585714D01*
X135547676Y-101585714D02*
X135738152Y-101538095D01*
X135738152Y-101538095D02*
X136071485Y-101538095D01*
X136071485Y-101538095D02*
X136261961Y-101585714D01*
X136261961Y-101585714D02*
X136357200Y-101680952D01*
X136357200Y-101680952D02*
X136404819Y-101776190D01*
X136404819Y-101776190D02*
X136404819Y-101966666D01*
X136404819Y-101966666D02*
X136357200Y-102061904D01*
X136357200Y-102061904D02*
X136261961Y-102157142D01*
X136261961Y-102157142D02*
X136071485Y-102204761D01*
X136071485Y-102204761D02*
X135738152Y-102204761D01*
X135738152Y-102204761D02*
X135547676Y-102157142D01*
X135547676Y-102157142D02*
X135452438Y-102061904D01*
X135452438Y-102061904D02*
X135404819Y-101966666D01*
X135404819Y-101252380D02*
X135404819Y-100680952D01*
X136404819Y-100966666D02*
X135404819Y-100966666D01*
X142734819Y-100988094D02*
X141734819Y-100988094D01*
X141734819Y-100988094D02*
X141734819Y-100749999D01*
X141734819Y-100749999D02*
X141782438Y-100607142D01*
X141782438Y-100607142D02*
X141877676Y-100511904D01*
X141877676Y-100511904D02*
X141972914Y-100464285D01*
X141972914Y-100464285D02*
X142163390Y-100416666D01*
X142163390Y-100416666D02*
X142306247Y-100416666D01*
X142306247Y-100416666D02*
X142496723Y-100464285D01*
X142496723Y-100464285D02*
X142591961Y-100511904D01*
X142591961Y-100511904D02*
X142687200Y-100607142D01*
X142687200Y-100607142D02*
X142734819Y-100749999D01*
X142734819Y-100749999D02*
X142734819Y-100988094D01*
X142734819Y-99464285D02*
X142734819Y-100035713D01*
X142734819Y-99749999D02*
X141734819Y-99749999D01*
X141734819Y-99749999D02*
X141877676Y-99845237D01*
X141877676Y-99845237D02*
X141972914Y-99940475D01*
X141972914Y-99940475D02*
X142020533Y-100035713D01*
D11*
%TO.C,R2*%
X147360000Y-99522936D02*
X147360000Y-100977064D01*
X145540000Y-99522936D02*
X145540000Y-100977064D01*
%TO.C,R1*%
X144860000Y-107022936D02*
X144860000Y-108477064D01*
X143040000Y-107022936D02*
X143040000Y-108477064D01*
%TO.C,GND*%
X132210000Y-110190000D02*
X132210000Y-99210000D01*
X129690000Y-110190000D02*
X129690000Y-99210000D01*
%TO.C,SWITCH*%
X157010000Y-110190000D02*
X157010000Y-99210000D01*
X154490000Y-110190000D02*
X154490000Y-99210000D01*
X152210000Y-110190000D02*
X152210000Y-99210000D01*
X149690000Y-110190000D02*
X149690000Y-99210000D01*
%TO.C,CTRL_PILOT*%
X137210000Y-110190000D02*
X137210000Y-99210000D01*
X134690000Y-110190000D02*
X134690000Y-99210000D01*
%TO.C,D1*%
X141585000Y-97965000D02*
X139315000Y-97965000D01*
X139315000Y-97965000D02*
X139315000Y-101850000D01*
X141585000Y-101850000D02*
X141585000Y-97965000D01*
%TD*%
M02*
