%TF.GenerationSoftware,KiCad,Pcbnew,9.0.8*%
%TF.CreationDate,2026-03-21T10:59:43-04:00*%
%TF.ProjectId,J1772 Enabler,4a313737-3220-4456-9e61-626c65722e6b,rev?*%
%TF.SameCoordinates,Original*%
%TF.FileFunction,Copper,L1,Top*%
%TF.FilePolarity,Positive*%
%FSLAX46Y46*%
G04 Gerber Fmt 4.6, Leading zero omitted, Abs format (unit mm)*
G04 Created by KiCad (PCBNEW 9.0.8) date 2026-03-21 10:59:43*
%MOMM*%
%LPD*%
G01*
G04 APERTURE LIST*
G04 Aperture macros list*
%AMRoundRect*
0 Rectangle with rounded corners*
0 $1 Rounding radius*
0 $2 $3 $4 $5 $6 $7 $8 $9 X,Y pos of 4 corners*
0 Add a 4 corners polygon primitive as box body*
4,1,4,$2,$3,$4,$5,$6,$7,$8,$9,$2,$3,0*
0 Add four circle primitives for the rounded corners*
1,1,$1+$1,$2,$3*
1,1,$1+$1,$4,$5*
1,1,$1+$1,$6,$7*
1,1,$1+$1,$8,$9*
0 Add four rect primitives between the rounded corners*
20,1,$1+$1,$2,$3,$4,$5,0*
20,1,$1+$1,$4,$5,$6,$7,0*
20,1,$1+$1,$6,$7,$8,$9,0*
20,1,$1+$1,$8,$9,$2,$3,0*%
G04 Aperture macros list end*
%TA.AperFunction,ComponentPad*%
%ADD10C,4.700000*%
%TD*%
%TA.AperFunction,ConnectorPad*%
%ADD11C,7.500000*%
%TD*%
%TA.AperFunction,SMDPad,CuDef*%
%ADD12RoundRect,0.250000X-0.625000X0.312500X-0.625000X-0.312500X0.625000X-0.312500X0.625000X0.312500X0*%
%TD*%
%TA.AperFunction,ComponentPad*%
%ADD13RoundRect,0.250000X1.050000X1.050000X-1.050000X1.050000X-1.050000X-1.050000X1.050000X-1.050000X0*%
%TD*%
%TA.AperFunction,ComponentPad*%
%ADD14C,2.600000*%
%TD*%
%TA.AperFunction,SMDPad,CuDef*%
%ADD15RoundRect,0.250000X-0.625000X0.375000X-0.625000X-0.375000X0.625000X-0.375000X0.625000X0.375000X0*%
%TD*%
%TA.AperFunction,Conductor*%
%ADD16C,1.000000*%
%TD*%
G04 APERTURE END LIST*
D10*
%TO.P,REF\u002A\u002A,1*%
%TO.N,N/C*%
X111450000Y-87250000D03*
D11*
X111450000Y-87250000D03*
%TD*%
D10*
%TO.P,REF\u002A\u002A,1*%
%TO.N,N/C*%
X151450000Y-87250000D03*
D11*
X151450000Y-87250000D03*
%TD*%
D12*
%TO.P,R2,1*%
%TO.N,Net-(D1-K)*%
X134450000Y-79287500D03*
%TO.P,R2,2*%
%TO.N,Net-(J2-Pin_2)*%
X134450000Y-82212500D03*
%TD*%
%TO.P,R1,1*%
%TO.N,Net-(D1-K)*%
X131950000Y-86787500D03*
%TO.P,R1,2*%
%TO.N,Net-(J2-Pin_1)*%
X131950000Y-89712500D03*
%TD*%
D13*
%TO.P,GND,1,Pin_1*%
%TO.N,Net-(J2-Pin_1)*%
X118950000Y-92250000D03*
%TD*%
%TO.P,SWITCH,1,Pin_1*%
%TO.N,Net-(J2-Pin_1)*%
X143750000Y-92250000D03*
D14*
%TO.P,SWITCH,2,Pin_2*%
%TO.N,Net-(J2-Pin_2)*%
X138950000Y-92250000D03*
%TD*%
D13*
%TO.P,CTRL_PILOT,1,Pin_1*%
%TO.N,Net-(D1-A)*%
X123950000Y-92250000D03*
%TD*%
D15*
%TO.P,D1,1,K*%
%TO.N,Net-(D1-K)*%
X128450000Y-79350000D03*
%TO.P,D1,2,A*%
%TO.N,Net-(D1-A)*%
X128450000Y-82150000D03*
%TD*%
D16*
%TO.N,Net-(D1-K)*%
X128450000Y-79350000D02*
X130450000Y-79350000D01*
X131950000Y-86787500D02*
X131950000Y-80850000D01*
X131950000Y-80850000D02*
X130450000Y-79350000D01*
%TO.N,Net-(J2-Pin_1)*%
X131950000Y-94750000D02*
X141250000Y-94750000D01*
X141250000Y-94750000D02*
X143750000Y-92250000D01*
X131950000Y-89712500D02*
X131950000Y-94750000D01*
X131950000Y-94750000D02*
X121450000Y-94750000D01*
X121450000Y-94750000D02*
X118950000Y-92250000D01*
%TO.N,Net-(D1-A)*%
X126950000Y-92250000D02*
X128450000Y-90750000D01*
X128450000Y-90750000D02*
X128450000Y-82150000D01*
%TO.N,Net-(J2-Pin_2)*%
X135450000Y-91750000D02*
X135950000Y-92250000D01*
X135450000Y-83212500D02*
X135450000Y-91750000D01*
X134450000Y-82212500D02*
X135450000Y-83212500D01*
X135950000Y-92250000D02*
X138950000Y-92250000D01*
%TO.N,Net-(D1-K)*%
X130450000Y-79350000D02*
X134387500Y-79350000D01*
X134387500Y-79350000D02*
X134450000Y-79287500D01*
%TO.N,Net-(D1-A)*%
X123950000Y-92250000D02*
X126950000Y-92250000D01*
%TD*%
%TA.AperFunction,NonConductor*%
G36*
X151502702Y-75250617D02*
G01*
X151886773Y-75267386D01*
X151897505Y-75268326D01*
X152275963Y-75318150D01*
X152286601Y-75320025D01*
X152659279Y-75402647D01*
X152669720Y-75405445D01*
X153033765Y-75520227D01*
X153043911Y-75523920D01*
X153396578Y-75670000D01*
X153406369Y-75674566D01*
X153744942Y-75850816D01*
X153754310Y-75856224D01*
X154076244Y-76061318D01*
X154085105Y-76067523D01*
X154387930Y-76299889D01*
X154396217Y-76306843D01*
X154677635Y-76564715D01*
X154685284Y-76572364D01*
X154943156Y-76853782D01*
X154950110Y-76862069D01*
X155182476Y-77164894D01*
X155188681Y-77173755D01*
X155393775Y-77495689D01*
X155399183Y-77505057D01*
X155575430Y-77843623D01*
X155580002Y-77853427D01*
X155726075Y-78206078D01*
X155729775Y-78216244D01*
X155844553Y-78580276D01*
X155847353Y-78590724D01*
X155929972Y-78963390D01*
X155931850Y-78974044D01*
X155981671Y-79352472D01*
X155982614Y-79363248D01*
X155999382Y-79747297D01*
X155999500Y-79752706D01*
X155999500Y-85206464D01*
X155979815Y-85273503D01*
X155927011Y-85319258D01*
X155857853Y-85329202D01*
X155794297Y-85300177D01*
X155763118Y-85258868D01*
X155667769Y-85054390D01*
X155667756Y-85054366D01*
X155632316Y-84992983D01*
X155460348Y-84695126D01*
X155460340Y-84695115D01*
X155460336Y-84695108D01*
X155222415Y-84355322D01*
X154955770Y-84037548D01*
X154662451Y-83744229D01*
X154633839Y-83720221D01*
X154574363Y-83670314D01*
X154344677Y-83477584D01*
X154004891Y-83239663D01*
X154004880Y-83239656D01*
X154004874Y-83239652D01*
X153753305Y-83094408D01*
X153645633Y-83032243D01*
X153645609Y-83032230D01*
X153269683Y-82856934D01*
X153269672Y-82856930D01*
X153269670Y-82856929D01*
X152879864Y-82715051D01*
X152879863Y-82715050D01*
X152879853Y-82715047D01*
X152479183Y-82607689D01*
X152479186Y-82607689D01*
X152479176Y-82607687D01*
X152479170Y-82607685D01*
X152479166Y-82607685D01*
X152070659Y-82535654D01*
X151657414Y-82499500D01*
X151657411Y-82499500D01*
X151242589Y-82499500D01*
X151242585Y-82499500D01*
X150829342Y-82535654D01*
X150829338Y-82535654D01*
X150420833Y-82607685D01*
X150420816Y-82607689D01*
X150020146Y-82715047D01*
X149630316Y-82856934D01*
X149254390Y-83032230D01*
X149254366Y-83032243D01*
X148895134Y-83239647D01*
X148895108Y-83239663D01*
X148555322Y-83477584D01*
X148237548Y-83744229D01*
X147944229Y-84037548D01*
X147677584Y-84355322D01*
X147439663Y-84695108D01*
X147439647Y-84695134D01*
X147232243Y-85054366D01*
X147232230Y-85054390D01*
X147056934Y-85430316D01*
X146915047Y-85820146D01*
X146807689Y-86220816D01*
X146807685Y-86220833D01*
X146735654Y-86629338D01*
X146735654Y-86629342D01*
X146699500Y-87042585D01*
X146699500Y-87457414D01*
X146735654Y-87870657D01*
X146735654Y-87870661D01*
X146806403Y-88271893D01*
X146807687Y-88279176D01*
X146819032Y-88321518D01*
X146915047Y-88679853D01*
X146915050Y-88679863D01*
X146915051Y-88679864D01*
X147003612Y-88923184D01*
X147056934Y-89069683D01*
X147232230Y-89445609D01*
X147232240Y-89445627D01*
X147439652Y-89804874D01*
X147439656Y-89804880D01*
X147439663Y-89804891D01*
X147677584Y-90144677D01*
X147835690Y-90333100D01*
X147944227Y-90462449D01*
X148237551Y-90755773D01*
X148272765Y-90785321D01*
X148555322Y-91022415D01*
X148895108Y-91260336D01*
X148895115Y-91260340D01*
X148895126Y-91260348D01*
X149231806Y-91454731D01*
X149254366Y-91467756D01*
X149254390Y-91467769D01*
X149630316Y-91643065D01*
X149630321Y-91643066D01*
X149630330Y-91643071D01*
X150020136Y-91784949D01*
X150020142Y-91784950D01*
X150020146Y-91784952D01*
X150129260Y-91814188D01*
X150420824Y-91892313D01*
X150829345Y-91964346D01*
X151242587Y-92000499D01*
X151242588Y-92000500D01*
X151242589Y-92000500D01*
X151657412Y-92000500D01*
X151657412Y-92000499D01*
X152070655Y-91964346D01*
X152479176Y-91892313D01*
X152879864Y-91784949D01*
X153269670Y-91643071D01*
X153498355Y-91536434D01*
X153645609Y-91467769D01*
X153645617Y-91467764D01*
X153645627Y-91467760D01*
X154004874Y-91260348D01*
X154344676Y-91022416D01*
X154662449Y-90755773D01*
X154955773Y-90462449D01*
X155222416Y-90144676D01*
X155460348Y-89804874D01*
X155667760Y-89445627D01*
X155722593Y-89328034D01*
X155763118Y-89241131D01*
X155809290Y-89188691D01*
X155876483Y-89169539D01*
X155943365Y-89189754D01*
X155988699Y-89242920D01*
X155999500Y-89293535D01*
X155999500Y-94747293D01*
X155999382Y-94752702D01*
X155982614Y-95136751D01*
X155981671Y-95147527D01*
X155931850Y-95525955D01*
X155929972Y-95536609D01*
X155847353Y-95909275D01*
X155844553Y-95919723D01*
X155729775Y-96283755D01*
X155726075Y-96293921D01*
X155580002Y-96646572D01*
X155575430Y-96656376D01*
X155399183Y-96994942D01*
X155393775Y-97004310D01*
X155188681Y-97326244D01*
X155182476Y-97335105D01*
X154950110Y-97637930D01*
X154943156Y-97646217D01*
X154685284Y-97927635D01*
X154677635Y-97935284D01*
X154396217Y-98193156D01*
X154387930Y-98200110D01*
X154085105Y-98432476D01*
X154076244Y-98438681D01*
X153754310Y-98643775D01*
X153744942Y-98649183D01*
X153406376Y-98825430D01*
X153396572Y-98830002D01*
X153043921Y-98976075D01*
X153033755Y-98979775D01*
X152669723Y-99094553D01*
X152659275Y-99097353D01*
X152286609Y-99179972D01*
X152275955Y-99181850D01*
X151897527Y-99231671D01*
X151886751Y-99232614D01*
X151502703Y-99249382D01*
X151497294Y-99249500D01*
X111502706Y-99249500D01*
X111497297Y-99249382D01*
X111113248Y-99232614D01*
X111102474Y-99231671D01*
X111040007Y-99223447D01*
X110724044Y-99181850D01*
X110713390Y-99179972D01*
X110340724Y-99097353D01*
X110330276Y-99094553D01*
X109966244Y-98979775D01*
X109956078Y-98976075D01*
X109603427Y-98830002D01*
X109593623Y-98825430D01*
X109255057Y-98649183D01*
X109245689Y-98643775D01*
X108923755Y-98438681D01*
X108914894Y-98432476D01*
X108612069Y-98200110D01*
X108603782Y-98193156D01*
X108322364Y-97935284D01*
X108314715Y-97927635D01*
X108056843Y-97646217D01*
X108049889Y-97637930D01*
X107817523Y-97335105D01*
X107811318Y-97326244D01*
X107606224Y-97004310D01*
X107600816Y-96994942D01*
X107424569Y-96656376D01*
X107419997Y-96646572D01*
X107273924Y-96293921D01*
X107270224Y-96283755D01*
X107155446Y-95919723D01*
X107152646Y-95909275D01*
X107070027Y-95536609D01*
X107068149Y-95525955D01*
X107055642Y-95430953D01*
X107018326Y-95147505D01*
X107017386Y-95136773D01*
X107000618Y-94752702D01*
X107000500Y-94747293D01*
X107000500Y-89507016D01*
X107020185Y-89439977D01*
X107072989Y-89394222D01*
X107142147Y-89384278D01*
X107205703Y-89413303D01*
X107231887Y-89445016D01*
X107232240Y-89445627D01*
X107439652Y-89804874D01*
X107439656Y-89804880D01*
X107439663Y-89804891D01*
X107677584Y-90144677D01*
X107835690Y-90333100D01*
X107944227Y-90462449D01*
X108237551Y-90755773D01*
X108272765Y-90785321D01*
X108555322Y-91022415D01*
X108895108Y-91260336D01*
X108895115Y-91260340D01*
X108895126Y-91260348D01*
X109231806Y-91454731D01*
X109254366Y-91467756D01*
X109254390Y-91467769D01*
X109630316Y-91643065D01*
X109630321Y-91643066D01*
X109630330Y-91643071D01*
X110020136Y-91784949D01*
X110020142Y-91784950D01*
X110020146Y-91784952D01*
X110129260Y-91814188D01*
X110420824Y-91892313D01*
X110829345Y-91964346D01*
X111242587Y-92000499D01*
X111242588Y-92000500D01*
X111242589Y-92000500D01*
X111657412Y-92000500D01*
X111657412Y-92000499D01*
X112070655Y-91964346D01*
X112479176Y-91892313D01*
X112879864Y-91784949D01*
X113269670Y-91643071D01*
X113498355Y-91536434D01*
X113645609Y-91467769D01*
X113645617Y-91467764D01*
X113645627Y-91467760D01*
X114004874Y-91260348D01*
X114182780Y-91135777D01*
X116649500Y-91135777D01*
X116649500Y-93364208D01*
X116649501Y-93364223D01*
X116659904Y-93496413D01*
X116659905Y-93496420D01*
X116714902Y-93714678D01*
X116714903Y-93714681D01*
X116807991Y-93919622D01*
X116807997Y-93919632D01*
X116936174Y-94104645D01*
X116936178Y-94104650D01*
X116936181Y-94104654D01*
X117095346Y-94263819D01*
X117095350Y-94263822D01*
X117095354Y-94263825D01*
X117234603Y-94360297D01*
X117280374Y-94392007D01*
X117485317Y-94485096D01*
X117485321Y-94485097D01*
X117703579Y-94540094D01*
X117703581Y-94540094D01*
X117703588Y-94540096D01*
X117835783Y-94550500D01*
X119077110Y-94550499D01*
X119144149Y-94570184D01*
X119164791Y-94586818D01*
X120472490Y-95894517D01*
X120663567Y-96033343D01*
X120762991Y-96084002D01*
X120874003Y-96140566D01*
X120874005Y-96140566D01*
X120874008Y-96140568D01*
X120994412Y-96179689D01*
X121098631Y-96213553D01*
X121331903Y-96250500D01*
X121331908Y-96250500D01*
X141368097Y-96250500D01*
X141601368Y-96213553D01*
X141825992Y-96140568D01*
X142036434Y-96033343D01*
X142227510Y-95894517D01*
X143535208Y-94586817D01*
X143596531Y-94553333D01*
X143622889Y-94550499D01*
X144864208Y-94550499D01*
X144864216Y-94550499D01*
X144996412Y-94540096D01*
X145214683Y-94485096D01*
X145419626Y-94392007D01*
X145604654Y-94263819D01*
X145763819Y-94104654D01*
X145892007Y-93919626D01*
X145985096Y-93714683D01*
X146040096Y-93496412D01*
X146050500Y-93364217D01*
X146050499Y-91135784D01*
X146040096Y-91003588D01*
X146014572Y-90902296D01*
X145985097Y-90785321D01*
X145985096Y-90785318D01*
X145971676Y-90755773D01*
X145892007Y-90580374D01*
X145824362Y-90482734D01*
X145763825Y-90395354D01*
X145763822Y-90395350D01*
X145763819Y-90395346D01*
X145604654Y-90236181D01*
X145604650Y-90236178D01*
X145604645Y-90236174D01*
X145419632Y-90107997D01*
X145419630Y-90107995D01*
X145419626Y-90107993D01*
X145214683Y-90014904D01*
X145214681Y-90014903D01*
X145214678Y-90014902D01*
X144996420Y-89959905D01*
X144996413Y-89959904D01*
X144952347Y-89956436D01*
X144864217Y-89949500D01*
X144864215Y-89949500D01*
X142635791Y-89949500D01*
X142635776Y-89949501D01*
X142503586Y-89959904D01*
X142503579Y-89959905D01*
X142285321Y-90014902D01*
X142285318Y-90014903D01*
X142080377Y-90107991D01*
X142080367Y-90107997D01*
X141895354Y-90236174D01*
X141895342Y-90236184D01*
X141736184Y-90395342D01*
X141736174Y-90395354D01*
X141607997Y-90580367D01*
X141607991Y-90580377D01*
X141514903Y-90785318D01*
X141514902Y-90785321D01*
X141459905Y-91003579D01*
X141459904Y-91003586D01*
X141449500Y-91135777D01*
X141449500Y-91747938D01*
X141429815Y-91814977D01*
X141377011Y-91860732D01*
X141307853Y-91870676D01*
X141244297Y-91841651D01*
X141206523Y-91782873D01*
X141205725Y-91780032D01*
X141133087Y-91508942D01*
X141017683Y-91230332D01*
X140866900Y-90969168D01*
X140759850Y-90829657D01*
X140683320Y-90729921D01*
X140683314Y-90729914D01*
X140470085Y-90516685D01*
X140470078Y-90516679D01*
X140230831Y-90333099D01*
X139969671Y-90182318D01*
X139969661Y-90182314D01*
X139691060Y-90066913D01*
X139399766Y-89988861D01*
X139100793Y-89949501D01*
X139100788Y-89949500D01*
X139100783Y-89949500D01*
X138799217Y-89949500D01*
X138799211Y-89949500D01*
X138799206Y-89949501D01*
X138500233Y-89988861D01*
X138208939Y-90066913D01*
X137930338Y-90182314D01*
X137930328Y-90182318D01*
X137669168Y-90333099D01*
X137429921Y-90516679D01*
X137429914Y-90516685D01*
X137233419Y-90713181D01*
X137206491Y-90727884D01*
X137180673Y-90744477D01*
X137174472Y-90745368D01*
X137172096Y-90746666D01*
X137145738Y-90749500D01*
X137074500Y-90749500D01*
X137007461Y-90729815D01*
X136961706Y-90677011D01*
X136950500Y-90625500D01*
X136950500Y-83094402D01*
X136913553Y-82861131D01*
X136840566Y-82636503D01*
X136770759Y-82499500D01*
X136733343Y-82426067D01*
X136715606Y-82401655D01*
X136594523Y-82234996D01*
X136594519Y-82234991D01*
X136361818Y-82002290D01*
X136328333Y-81940967D01*
X136325499Y-81914609D01*
X136325499Y-81835791D01*
X136325498Y-81835776D01*
X136315096Y-81703588D01*
X136283598Y-81578588D01*
X136260097Y-81485321D01*
X136260096Y-81485318D01*
X136203318Y-81360317D01*
X136167007Y-81280374D01*
X136038819Y-81095346D01*
X135879654Y-80936181D01*
X135758039Y-80851926D01*
X135714146Y-80797570D01*
X135706606Y-80728108D01*
X135737817Y-80665597D01*
X135758035Y-80648076D01*
X135879654Y-80563819D01*
X136038819Y-80404654D01*
X136167007Y-80219626D01*
X136260096Y-80014683D01*
X136315096Y-79796412D01*
X136325500Y-79664217D01*
X136325499Y-78910784D01*
X136315096Y-78778588D01*
X136275197Y-78620248D01*
X136260097Y-78560321D01*
X136260096Y-78560318D01*
X136172066Y-78366512D01*
X136167008Y-78355377D01*
X136167007Y-78355374D01*
X136142567Y-78320097D01*
X137299500Y-78320097D01*
X137299500Y-78579902D01*
X137340140Y-78836493D01*
X137420422Y-79083576D01*
X137501534Y-79242764D01*
X137538366Y-79315051D01*
X137691069Y-79525229D01*
X137874771Y-79708931D01*
X138084949Y-79861634D01*
X138202285Y-79921420D01*
X138316423Y-79979577D01*
X138316425Y-79979577D01*
X138316428Y-79979579D01*
X138563507Y-80059860D01*
X138695706Y-80080797D01*
X138820098Y-80100500D01*
X138820103Y-80100500D01*
X139079902Y-80100500D01*
X139193298Y-80082539D01*
X139336493Y-80059860D01*
X139583572Y-79979579D01*
X139815051Y-79861634D01*
X140025229Y-79708931D01*
X140208931Y-79525229D01*
X140361634Y-79315051D01*
X140479579Y-79083572D01*
X140559860Y-78836493D01*
X140582539Y-78693298D01*
X140600500Y-78579902D01*
X140600500Y-78320097D01*
X142099500Y-78320097D01*
X142099500Y-78579902D01*
X142140140Y-78836493D01*
X142220422Y-79083576D01*
X142301534Y-79242764D01*
X142338366Y-79315051D01*
X142491069Y-79525229D01*
X142674771Y-79708931D01*
X142884949Y-79861634D01*
X143002285Y-79921420D01*
X143116423Y-79979577D01*
X143116425Y-79979577D01*
X143116428Y-79979579D01*
X143363507Y-80059860D01*
X143495706Y-80080797D01*
X143620098Y-80100500D01*
X143620103Y-80100500D01*
X143879902Y-80100500D01*
X143993298Y-80082539D01*
X144136493Y-80059860D01*
X144383572Y-79979579D01*
X144615051Y-79861634D01*
X144825229Y-79708931D01*
X145008931Y-79525229D01*
X145161634Y-79315051D01*
X145279579Y-79083572D01*
X145359860Y-78836493D01*
X145382539Y-78693298D01*
X145400500Y-78579902D01*
X145400500Y-78320097D01*
X145378178Y-78179166D01*
X145359860Y-78063507D01*
X145279579Y-77816428D01*
X145279577Y-77816425D01*
X145279577Y-77816423D01*
X145232739Y-77724500D01*
X145161634Y-77584949D01*
X145008931Y-77374771D01*
X144825229Y-77191069D01*
X144615051Y-77038366D01*
X144542764Y-77001534D01*
X144383576Y-76920422D01*
X144136493Y-76840140D01*
X143879902Y-76799500D01*
X143879897Y-76799500D01*
X143620103Y-76799500D01*
X143620098Y-76799500D01*
X143363506Y-76840140D01*
X143116423Y-76920422D01*
X142884945Y-77038368D01*
X142674774Y-77191066D01*
X142674768Y-77191071D01*
X142491071Y-77374768D01*
X142491066Y-77374774D01*
X142338368Y-77584945D01*
X142220422Y-77816423D01*
X142140140Y-78063506D01*
X142099500Y-78320097D01*
X140600500Y-78320097D01*
X140578178Y-78179166D01*
X140559860Y-78063507D01*
X140479579Y-77816428D01*
X140479577Y-77816425D01*
X140479577Y-77816423D01*
X140432739Y-77724500D01*
X140361634Y-77584949D01*
X140208931Y-77374771D01*
X140025229Y-77191069D01*
X139815051Y-77038366D01*
X139742764Y-77001534D01*
X139583576Y-76920422D01*
X139336493Y-76840140D01*
X139079902Y-76799500D01*
X139079897Y-76799500D01*
X138820103Y-76799500D01*
X138820098Y-76799500D01*
X138563506Y-76840140D01*
X138316423Y-76920422D01*
X138084945Y-77038368D01*
X137874774Y-77191066D01*
X137874768Y-77191071D01*
X137691071Y-77374768D01*
X137691066Y-77374774D01*
X137538368Y-77584945D01*
X137420422Y-77816423D01*
X137340140Y-78063506D01*
X137299500Y-78320097D01*
X136142567Y-78320097D01*
X136113363Y-78277943D01*
X136038825Y-78170354D01*
X136038822Y-78170350D01*
X136038819Y-78170346D01*
X135879654Y-78011181D01*
X135879650Y-78011178D01*
X135879645Y-78011174D01*
X135694632Y-77882997D01*
X135694630Y-77882995D01*
X135694626Y-77882993D01*
X135620888Y-77849500D01*
X135489681Y-77789903D01*
X135489678Y-77789902D01*
X135271420Y-77734905D01*
X135271413Y-77734904D01*
X135227347Y-77731436D01*
X135139217Y-77724500D01*
X135139215Y-77724500D01*
X133760791Y-77724500D01*
X133760776Y-77724501D01*
X133628586Y-77734904D01*
X133628579Y-77734905D01*
X133410321Y-77789902D01*
X133410318Y-77789903D01*
X133303552Y-77838399D01*
X133252271Y-77849500D01*
X129647729Y-77849500D01*
X129596448Y-77838399D01*
X129548077Y-77816428D01*
X129489683Y-77789904D01*
X129489681Y-77789903D01*
X129489678Y-77789902D01*
X129271420Y-77734905D01*
X129271413Y-77734904D01*
X129227347Y-77731436D01*
X129139217Y-77724500D01*
X129139215Y-77724500D01*
X127760791Y-77724500D01*
X127760776Y-77724501D01*
X127628586Y-77734904D01*
X127628579Y-77734905D01*
X127410321Y-77789902D01*
X127410318Y-77789903D01*
X127205377Y-77882991D01*
X127205367Y-77882997D01*
X127020354Y-78011174D01*
X127020342Y-78011184D01*
X126861184Y-78170342D01*
X126861174Y-78170354D01*
X126732997Y-78355367D01*
X126732991Y-78355377D01*
X126639903Y-78560318D01*
X126639902Y-78560321D01*
X126584905Y-78778579D01*
X126584904Y-78778586D01*
X126574500Y-78910777D01*
X126574500Y-79789208D01*
X126574501Y-79789223D01*
X126584904Y-79921413D01*
X126584905Y-79921420D01*
X126639902Y-80139678D01*
X126639903Y-80139681D01*
X126732991Y-80344622D01*
X126732997Y-80344632D01*
X126861174Y-80529645D01*
X126861178Y-80529650D01*
X126861181Y-80529654D01*
X126979598Y-80648071D01*
X126993846Y-80662319D01*
X127027330Y-80723642D01*
X127022346Y-80793334D01*
X126993846Y-80837681D01*
X126861179Y-80970348D01*
X126861174Y-80970354D01*
X126732997Y-81155367D01*
X126732991Y-81155377D01*
X126639903Y-81360318D01*
X126639902Y-81360321D01*
X126584905Y-81578579D01*
X126584904Y-81578586D01*
X126574500Y-81710777D01*
X126574500Y-82589208D01*
X126574501Y-82589223D01*
X126584904Y-82721413D01*
X126584905Y-82721420D01*
X126639902Y-82939678D01*
X126639903Y-82939681D01*
X126732991Y-83144622D01*
X126732997Y-83144632D01*
X126861174Y-83329645D01*
X126861178Y-83329650D01*
X126861181Y-83329654D01*
X126861184Y-83329657D01*
X126913181Y-83381654D01*
X126946666Y-83442977D01*
X126949500Y-83469335D01*
X126949500Y-90077111D01*
X126929815Y-90144150D01*
X126913181Y-90164792D01*
X126364792Y-90713181D01*
X126337864Y-90727884D01*
X126312046Y-90744477D01*
X126305845Y-90745368D01*
X126303469Y-90746666D01*
X126277111Y-90749500D01*
X126248696Y-90749500D01*
X126181657Y-90729815D01*
X126135902Y-90677011D01*
X126135797Y-90676781D01*
X126092008Y-90580377D01*
X126092007Y-90580374D01*
X126024362Y-90482734D01*
X125963825Y-90395354D01*
X125963822Y-90395350D01*
X125963819Y-90395346D01*
X125804654Y-90236181D01*
X125804650Y-90236178D01*
X125804645Y-90236174D01*
X125619632Y-90107997D01*
X125619630Y-90107995D01*
X125619626Y-90107993D01*
X125414683Y-90014904D01*
X125414681Y-90014903D01*
X125414678Y-90014902D01*
X125196420Y-89959905D01*
X125196413Y-89959904D01*
X125152347Y-89956436D01*
X125064217Y-89949500D01*
X125064215Y-89949500D01*
X122835791Y-89949500D01*
X122835776Y-89949501D01*
X122703586Y-89959904D01*
X122703579Y-89959905D01*
X122485321Y-90014902D01*
X122485318Y-90014903D01*
X122280377Y-90107991D01*
X122280367Y-90107997D01*
X122095354Y-90236174D01*
X122095342Y-90236184D01*
X121936184Y-90395342D01*
X121936174Y-90395354D01*
X121807997Y-90580367D01*
X121807991Y-90580377D01*
X121714903Y-90785318D01*
X121714902Y-90785321D01*
X121659905Y-91003579D01*
X121659904Y-91003586D01*
X121649500Y-91135777D01*
X121649500Y-92528111D01*
X121643261Y-92549356D01*
X121641682Y-92571445D01*
X121633609Y-92582228D01*
X121629815Y-92595150D01*
X121613081Y-92609649D01*
X121599810Y-92627378D01*
X121587189Y-92632085D01*
X121577011Y-92640905D01*
X121555093Y-92644056D01*
X121534346Y-92651795D01*
X121521185Y-92648932D01*
X121507853Y-92650849D01*
X121487709Y-92641649D01*
X121466073Y-92636943D01*
X121448347Y-92623674D01*
X121444297Y-92621824D01*
X121437819Y-92615792D01*
X121286818Y-92464791D01*
X121253333Y-92403468D01*
X121250499Y-92377110D01*
X121250499Y-91135791D01*
X121250498Y-91135783D01*
X121240096Y-91003588D01*
X121214572Y-90902296D01*
X121185097Y-90785321D01*
X121185096Y-90785318D01*
X121171676Y-90755773D01*
X121092007Y-90580374D01*
X121024362Y-90482734D01*
X120963825Y-90395354D01*
X120963822Y-90395350D01*
X120963819Y-90395346D01*
X120804654Y-90236181D01*
X120804650Y-90236178D01*
X120804645Y-90236174D01*
X120619632Y-90107997D01*
X120619630Y-90107995D01*
X120619626Y-90107993D01*
X120414683Y-90014904D01*
X120414681Y-90014903D01*
X120414678Y-90014902D01*
X120196420Y-89959905D01*
X120196413Y-89959904D01*
X120152347Y-89956436D01*
X120064217Y-89949500D01*
X120064215Y-89949500D01*
X117835791Y-89949500D01*
X117835776Y-89949501D01*
X117703586Y-89959904D01*
X117703579Y-89959905D01*
X117485321Y-90014902D01*
X117485318Y-90014903D01*
X117280377Y-90107991D01*
X117280367Y-90107997D01*
X117095354Y-90236174D01*
X117095342Y-90236184D01*
X116936184Y-90395342D01*
X116936174Y-90395354D01*
X116807997Y-90580367D01*
X116807991Y-90580377D01*
X116714903Y-90785318D01*
X116714902Y-90785321D01*
X116659905Y-91003579D01*
X116659904Y-91003586D01*
X116649500Y-91135777D01*
X114182780Y-91135777D01*
X114344676Y-91022416D01*
X114662449Y-90755773D01*
X114955773Y-90462449D01*
X115222416Y-90144676D01*
X115460348Y-89804874D01*
X115667760Y-89445627D01*
X115667764Y-89445617D01*
X115667769Y-89445609D01*
X115843065Y-89069683D01*
X115843065Y-89069682D01*
X115843071Y-89069670D01*
X115984949Y-88679864D01*
X116092313Y-88279176D01*
X116164346Y-87870655D01*
X116200500Y-87457411D01*
X116200500Y-87042589D01*
X116164346Y-86629345D01*
X116092313Y-86220824D01*
X116014188Y-85929260D01*
X115984952Y-85820146D01*
X115984950Y-85820142D01*
X115984949Y-85820136D01*
X115843071Y-85430330D01*
X115843066Y-85430321D01*
X115843065Y-85430316D01*
X115667769Y-85054390D01*
X115667756Y-85054366D01*
X115632316Y-84992983D01*
X115460348Y-84695126D01*
X115460340Y-84695115D01*
X115460336Y-84695108D01*
X115222415Y-84355322D01*
X114955770Y-84037548D01*
X114662451Y-83744229D01*
X114633839Y-83720221D01*
X114574363Y-83670314D01*
X114344677Y-83477584D01*
X114004891Y-83239663D01*
X114004880Y-83239656D01*
X114004874Y-83239652D01*
X113753305Y-83094408D01*
X113645633Y-83032243D01*
X113645609Y-83032230D01*
X113269683Y-82856934D01*
X113269672Y-82856930D01*
X113269670Y-82856929D01*
X112879864Y-82715051D01*
X112879863Y-82715050D01*
X112879853Y-82715047D01*
X112479183Y-82607689D01*
X112479186Y-82607689D01*
X112479176Y-82607687D01*
X112479170Y-82607685D01*
X112479166Y-82607685D01*
X112070659Y-82535654D01*
X111657414Y-82499500D01*
X111657411Y-82499500D01*
X111242589Y-82499500D01*
X111242585Y-82499500D01*
X110829342Y-82535654D01*
X110829338Y-82535654D01*
X110420833Y-82607685D01*
X110420816Y-82607689D01*
X110020146Y-82715047D01*
X109630316Y-82856934D01*
X109254390Y-83032230D01*
X109254366Y-83032243D01*
X108895134Y-83239647D01*
X108895108Y-83239663D01*
X108555322Y-83477584D01*
X108237548Y-83744229D01*
X107944229Y-84037548D01*
X107677584Y-84355322D01*
X107439663Y-84695108D01*
X107439647Y-84695134D01*
X107231887Y-85054983D01*
X107181320Y-85103199D01*
X107112713Y-85116421D01*
X107047848Y-85090453D01*
X107007320Y-85033539D01*
X107000500Y-84992983D01*
X107000500Y-79752706D01*
X107000618Y-79747297D01*
X107004245Y-79664217D01*
X107017387Y-79363224D01*
X107018325Y-79352496D01*
X107068151Y-78974032D01*
X107070024Y-78963402D01*
X107152648Y-78590714D01*
X107155446Y-78580276D01*
X107155564Y-78579902D01*
X107237480Y-78320097D01*
X117299500Y-78320097D01*
X117299500Y-78579902D01*
X117340140Y-78836493D01*
X117420422Y-79083576D01*
X117501534Y-79242764D01*
X117538366Y-79315051D01*
X117691069Y-79525229D01*
X117874771Y-79708931D01*
X118084949Y-79861634D01*
X118202285Y-79921420D01*
X118316423Y-79979577D01*
X118316425Y-79979577D01*
X118316428Y-79979579D01*
X118563507Y-80059860D01*
X118695706Y-80080797D01*
X118820098Y-80100500D01*
X118820103Y-80100500D01*
X119079902Y-80100500D01*
X119193298Y-80082539D01*
X119336493Y-80059860D01*
X119583572Y-79979579D01*
X119815051Y-79861634D01*
X120025229Y-79708931D01*
X120208931Y-79525229D01*
X120361634Y-79315051D01*
X120479579Y-79083572D01*
X120559860Y-78836493D01*
X120582539Y-78693298D01*
X120600500Y-78579902D01*
X120600500Y-78320097D01*
X122299500Y-78320097D01*
X122299500Y-78579902D01*
X122340140Y-78836493D01*
X122420422Y-79083576D01*
X122501534Y-79242764D01*
X122538366Y-79315051D01*
X122691069Y-79525229D01*
X122874771Y-79708931D01*
X123084949Y-79861634D01*
X123202285Y-79921420D01*
X123316423Y-79979577D01*
X123316425Y-79979577D01*
X123316428Y-79979579D01*
X123563507Y-80059860D01*
X123695706Y-80080797D01*
X123820098Y-80100500D01*
X123820103Y-80100500D01*
X124079902Y-80100500D01*
X124193298Y-80082539D01*
X124336493Y-80059860D01*
X124583572Y-79979579D01*
X124815051Y-79861634D01*
X125025229Y-79708931D01*
X125208931Y-79525229D01*
X125361634Y-79315051D01*
X125479579Y-79083572D01*
X125559860Y-78836493D01*
X125582539Y-78693298D01*
X125600500Y-78579902D01*
X125600500Y-78320097D01*
X125578178Y-78179166D01*
X125559860Y-78063507D01*
X125479579Y-77816428D01*
X125479577Y-77816425D01*
X125479577Y-77816423D01*
X125432739Y-77724500D01*
X125361634Y-77584949D01*
X125208931Y-77374771D01*
X125025229Y-77191069D01*
X124815051Y-77038366D01*
X124742764Y-77001534D01*
X124583576Y-76920422D01*
X124336493Y-76840140D01*
X124079902Y-76799500D01*
X124079897Y-76799500D01*
X123820103Y-76799500D01*
X123820098Y-76799500D01*
X123563506Y-76840140D01*
X123316423Y-76920422D01*
X123084945Y-77038368D01*
X122874774Y-77191066D01*
X122874768Y-77191071D01*
X122691071Y-77374768D01*
X122691066Y-77374774D01*
X122538368Y-77584945D01*
X122420422Y-77816423D01*
X122340140Y-78063506D01*
X122299500Y-78320097D01*
X120600500Y-78320097D01*
X120578178Y-78179166D01*
X120559860Y-78063507D01*
X120479579Y-77816428D01*
X120479577Y-77816425D01*
X120479577Y-77816423D01*
X120432739Y-77724500D01*
X120361634Y-77584949D01*
X120208931Y-77374771D01*
X120025229Y-77191069D01*
X119815051Y-77038366D01*
X119742764Y-77001534D01*
X119583576Y-76920422D01*
X119336493Y-76840140D01*
X119079902Y-76799500D01*
X119079897Y-76799500D01*
X118820103Y-76799500D01*
X118820098Y-76799500D01*
X118563506Y-76840140D01*
X118316423Y-76920422D01*
X118084945Y-77038368D01*
X117874774Y-77191066D01*
X117874768Y-77191071D01*
X117691071Y-77374768D01*
X117691066Y-77374774D01*
X117538368Y-77584945D01*
X117420422Y-77816423D01*
X117340140Y-78063506D01*
X117299500Y-78320097D01*
X107237480Y-78320097D01*
X107270232Y-78216220D01*
X107273917Y-78206095D01*
X107420003Y-77853412D01*
X107424561Y-77843638D01*
X107600822Y-77505045D01*
X107606217Y-77495700D01*
X107811325Y-77173744D01*
X107817515Y-77164905D01*
X108049896Y-76862060D01*
X108056834Y-76853791D01*
X108314726Y-76572352D01*
X108322352Y-76564726D01*
X108603791Y-76306834D01*
X108612060Y-76299896D01*
X108914905Y-76067515D01*
X108923744Y-76061325D01*
X109245700Y-75856217D01*
X109255045Y-75850822D01*
X109593638Y-75674561D01*
X109603412Y-75670003D01*
X109956095Y-75523917D01*
X109966227Y-75520230D01*
X110330285Y-75405443D01*
X110340714Y-75402648D01*
X110713402Y-75320024D01*
X110724032Y-75318151D01*
X111102496Y-75268325D01*
X111113224Y-75267387D01*
X111497297Y-75250617D01*
X111502706Y-75250500D01*
X111565892Y-75250500D01*
X151434108Y-75250500D01*
X151497294Y-75250500D01*
X151502702Y-75250617D01*
G37*
%TD.AperFunction*%
%TA.AperFunction,NonConductor*%
G36*
X133604777Y-83759096D02*
G01*
X133628588Y-83765096D01*
X133760783Y-83775500D01*
X133825499Y-83775499D01*
X133892538Y-83795183D01*
X133938294Y-83847986D01*
X133949500Y-83899499D01*
X133949500Y-85904471D01*
X133929815Y-85971510D01*
X133877011Y-86017265D01*
X133807853Y-86027209D01*
X133744297Y-85998184D01*
X133712601Y-85955752D01*
X133688479Y-85902646D01*
X133667007Y-85855374D01*
X133538819Y-85670346D01*
X133486819Y-85618346D01*
X133453334Y-85557023D01*
X133450500Y-85530665D01*
X133450500Y-83879342D01*
X133470185Y-83812303D01*
X133522989Y-83766548D01*
X133592147Y-83756604D01*
X133604777Y-83759096D01*
G37*
%TD.AperFunction*%
%TA.AperFunction,NonConductor*%
G36*
X130392326Y-82991076D02*
G01*
X130438189Y-83043786D01*
X130449500Y-83095528D01*
X130449500Y-85530665D01*
X130429815Y-85597704D01*
X130413181Y-85618346D01*
X130361184Y-85670342D01*
X130361174Y-85670354D01*
X130232997Y-85855367D01*
X130232991Y-85855377D01*
X130187399Y-85955752D01*
X130141752Y-86008650D01*
X130074753Y-86028471D01*
X130007673Y-86008923D01*
X129961811Y-85956212D01*
X129950500Y-85904471D01*
X129950500Y-83469335D01*
X129970185Y-83402296D01*
X129986819Y-83381654D01*
X130038819Y-83329654D01*
X130167007Y-83144626D01*
X130212601Y-83044246D01*
X130258248Y-82991350D01*
X130325247Y-82971528D01*
X130392326Y-82991076D01*
G37*
%TD.AperFunction*%
%TA.AperFunction,NonConductor*%
G36*
X133892326Y-87566076D02*
G01*
X133938189Y-87618786D01*
X133949500Y-87670528D01*
X133949500Y-88829471D01*
X133929815Y-88896510D01*
X133877011Y-88942265D01*
X133807853Y-88952209D01*
X133744297Y-88923184D01*
X133712601Y-88880752D01*
X133667008Y-88780377D01*
X133667007Y-88780374D01*
X133635297Y-88734603D01*
X133538825Y-88595354D01*
X133538822Y-88595350D01*
X133538819Y-88595346D01*
X133379654Y-88436181D01*
X133258039Y-88351926D01*
X133214146Y-88297570D01*
X133206606Y-88228108D01*
X133237817Y-88165597D01*
X133258035Y-88148076D01*
X133379654Y-88063819D01*
X133538819Y-87904654D01*
X133667007Y-87719626D01*
X133712601Y-87619246D01*
X133758248Y-87566350D01*
X133825247Y-87546528D01*
X133892326Y-87566076D01*
G37*
%TD.AperFunction*%
%TA.AperFunction,NonConductor*%
G36*
X130155703Y-87576815D02*
G01*
X130187399Y-87619247D01*
X130232991Y-87719622D01*
X130232997Y-87719632D01*
X130361174Y-87904645D01*
X130361178Y-87904650D01*
X130361181Y-87904654D01*
X130520346Y-88063819D01*
X130520350Y-88063822D01*
X130520354Y-88063825D01*
X130641956Y-88148072D01*
X130685853Y-88202431D01*
X130693392Y-88271893D01*
X130662181Y-88334404D01*
X130641956Y-88351928D01*
X130520354Y-88436174D01*
X130520342Y-88436184D01*
X130361184Y-88595342D01*
X130361174Y-88595354D01*
X130232997Y-88780367D01*
X130232991Y-88780377D01*
X130187399Y-88880752D01*
X130141752Y-88933650D01*
X130074753Y-88953471D01*
X130007673Y-88933923D01*
X129961811Y-88881212D01*
X129950500Y-88829471D01*
X129950500Y-87670528D01*
X129970185Y-87603489D01*
X130022989Y-87557734D01*
X130092147Y-87547790D01*
X130155703Y-87576815D01*
G37*
%TD.AperFunction*%
%TA.AperFunction,NonConductor*%
G36*
X133892326Y-90491076D02*
G01*
X133938189Y-90543786D01*
X133949500Y-90595528D01*
X133949500Y-91868097D01*
X133986446Y-92101368D01*
X134059433Y-92325996D01*
X134130153Y-92464791D01*
X134166657Y-92536434D01*
X134250472Y-92651795D01*
X134305484Y-92727511D01*
X134305485Y-92727513D01*
X134615791Y-93037819D01*
X134649276Y-93099142D01*
X134644292Y-93168834D01*
X134602420Y-93224767D01*
X134536956Y-93249184D01*
X134528110Y-93249500D01*
X133574500Y-93249500D01*
X133507461Y-93229815D01*
X133461706Y-93177011D01*
X133450500Y-93125500D01*
X133450500Y-90969335D01*
X133470185Y-90902296D01*
X133486819Y-90881654D01*
X133500381Y-90868092D01*
X133538819Y-90829654D01*
X133667007Y-90644626D01*
X133712601Y-90544246D01*
X133758248Y-90491350D01*
X133825247Y-90471528D01*
X133892326Y-90491076D01*
G37*
%TD.AperFunction*%
%TA.AperFunction,NonConductor*%
G36*
X130155703Y-90501815D02*
G01*
X130187399Y-90544247D01*
X130232991Y-90644622D01*
X130232997Y-90644632D01*
X130361174Y-90829645D01*
X130361178Y-90829650D01*
X130361181Y-90829654D01*
X130361184Y-90829657D01*
X130413181Y-90881654D01*
X130446666Y-90942977D01*
X130449500Y-90969335D01*
X130449500Y-93125500D01*
X130429815Y-93192539D01*
X130377011Y-93238294D01*
X130325500Y-93249500D01*
X128371889Y-93249500D01*
X128304850Y-93229815D01*
X128259095Y-93177011D01*
X128249151Y-93107853D01*
X128278176Y-93044297D01*
X128284208Y-93037819D01*
X128921244Y-92400783D01*
X129594517Y-91727510D01*
X129733343Y-91536434D01*
X129840568Y-91325992D01*
X129878225Y-91210096D01*
X129913553Y-91101368D01*
X129934465Y-90969335D01*
X129950500Y-90868097D01*
X129950500Y-90595528D01*
X129970185Y-90528489D01*
X130022989Y-90482734D01*
X130092147Y-90472790D01*
X130155703Y-90501815D01*
G37*
%TD.AperFunction*%
M02*
