%TF.GenerationSoftware,KiCad,Pcbnew,9.0.8*%
%TF.CreationDate,2026-03-21T10:59:41-04:00*%
%TF.ProjectId,J1772 Enabler,4a313737-3220-4456-9e61-626c65722e6b,rev?*%
%TF.SameCoordinates,Original*%
%TF.FileFunction,Drillmap*%
%TF.FilePolarity,Positive*%
%FSLAX45Y45*%
G04 Gerber Fmt 4.5, Leading zero omitted, Abs format (unit mm)*
G04 Created by KiCad (PCBNEW 9.0.8) date 2026-03-21 10:59:41*
%MOMM*%
%LPD*%
G01*
G04 APERTURE LIST*
%ADD10C,0.050000*%
%ADD11C,0.200000*%
%ADD12C,0.160000*%
%ADD13C,0.430000*%
G04 APERTURE END LIST*
D10*
X10650000Y-7975000D02*
G75*
G02*
X11150000Y-7475000I500000J0D01*
G01*
X11150000Y-9975000D02*
G75*
G02*
X10650000Y-9475000I0J500000D01*
G01*
X15150000Y-7475000D02*
G75*
G02*
X15650000Y-7975000I0J-500000D01*
G01*
X15650000Y-9475000D02*
G75*
G02*
X15150000Y-9975000I-500000J0D01*
G01*
X11150000Y-7475000D02*
X15150000Y-7475000D01*
X10650000Y-9475000D02*
X10650000Y-7975000D01*
X15150000Y-9975000D02*
X11150000Y-9975000D01*
X15650000Y-7975000D02*
X15650000Y-9475000D01*
D11*
D12*
X11815000Y-9145000D02*
X11975000Y-9305000D01*
X11975000Y-9145000D02*
X11815000Y-9305000D01*
X12315000Y-9145000D02*
X12475000Y-9305000D01*
X12475000Y-9145000D02*
X12315000Y-9305000D01*
X13815000Y-9145000D02*
X13975000Y-9305000D01*
X13975000Y-9145000D02*
X13815000Y-9305000D01*
X14295000Y-9145000D02*
X14455000Y-9305000D01*
X14455000Y-9145000D02*
X14295000Y-9305000D01*
D13*
X11360000Y-8725000D02*
G75*
G02*
X10930000Y-8725000I-215000J0D01*
G01*
X10930000Y-8725000D02*
G75*
G02*
X11360000Y-8725000I215000J0D01*
G01*
X15360000Y-8725000D02*
G75*
G02*
X14930000Y-8725000I-215000J0D01*
G01*
X14930000Y-8725000D02*
G75*
G02*
X15360000Y-8725000I215000J0D01*
G01*
D11*
X10908277Y-10288984D02*
X10908277Y-10088984D01*
X10908277Y-10088984D02*
X10955896Y-10088984D01*
X10955896Y-10088984D02*
X10984467Y-10098508D01*
X10984467Y-10098508D02*
X11003515Y-10117555D01*
X11003515Y-10117555D02*
X11013039Y-10136603D01*
X11013039Y-10136603D02*
X11022563Y-10174698D01*
X11022563Y-10174698D02*
X11022563Y-10203270D01*
X11022563Y-10203270D02*
X11013039Y-10241365D01*
X11013039Y-10241365D02*
X11003515Y-10260412D01*
X11003515Y-10260412D02*
X10984467Y-10279460D01*
X10984467Y-10279460D02*
X10955896Y-10288984D01*
X10955896Y-10288984D02*
X10908277Y-10288984D01*
X11108277Y-10288984D02*
X11108277Y-10155650D01*
X11108277Y-10193746D02*
X11117801Y-10174698D01*
X11117801Y-10174698D02*
X11127324Y-10165174D01*
X11127324Y-10165174D02*
X11146372Y-10155650D01*
X11146372Y-10155650D02*
X11165420Y-10155650D01*
X11232086Y-10288984D02*
X11232086Y-10155650D01*
X11232086Y-10088984D02*
X11222562Y-10098508D01*
X11222562Y-10098508D02*
X11232086Y-10108031D01*
X11232086Y-10108031D02*
X11241610Y-10098508D01*
X11241610Y-10098508D02*
X11232086Y-10088984D01*
X11232086Y-10088984D02*
X11232086Y-10108031D01*
X11355896Y-10288984D02*
X11336848Y-10279460D01*
X11336848Y-10279460D02*
X11327324Y-10260412D01*
X11327324Y-10260412D02*
X11327324Y-10088984D01*
X11460658Y-10288984D02*
X11441610Y-10279460D01*
X11441610Y-10279460D02*
X11432086Y-10260412D01*
X11432086Y-10260412D02*
X11432086Y-10088984D01*
X11689229Y-10288984D02*
X11689229Y-10088984D01*
X11689229Y-10088984D02*
X11755896Y-10231841D01*
X11755896Y-10231841D02*
X11822562Y-10088984D01*
X11822562Y-10088984D02*
X11822562Y-10288984D01*
X12003515Y-10288984D02*
X12003515Y-10184222D01*
X12003515Y-10184222D02*
X11993991Y-10165174D01*
X11993991Y-10165174D02*
X11974943Y-10155650D01*
X11974943Y-10155650D02*
X11936848Y-10155650D01*
X11936848Y-10155650D02*
X11917801Y-10165174D01*
X12003515Y-10279460D02*
X11984467Y-10288984D01*
X11984467Y-10288984D02*
X11936848Y-10288984D01*
X11936848Y-10288984D02*
X11917801Y-10279460D01*
X11917801Y-10279460D02*
X11908277Y-10260412D01*
X11908277Y-10260412D02*
X11908277Y-10241365D01*
X11908277Y-10241365D02*
X11917801Y-10222317D01*
X11917801Y-10222317D02*
X11936848Y-10212793D01*
X11936848Y-10212793D02*
X11984467Y-10212793D01*
X11984467Y-10212793D02*
X12003515Y-10203270D01*
X12098753Y-10155650D02*
X12098753Y-10355650D01*
X12098753Y-10165174D02*
X12117801Y-10155650D01*
X12117801Y-10155650D02*
X12155896Y-10155650D01*
X12155896Y-10155650D02*
X12174943Y-10165174D01*
X12174943Y-10165174D02*
X12184467Y-10174698D01*
X12184467Y-10174698D02*
X12193991Y-10193746D01*
X12193991Y-10193746D02*
X12193991Y-10250889D01*
X12193991Y-10250889D02*
X12184467Y-10269936D01*
X12184467Y-10269936D02*
X12174943Y-10279460D01*
X12174943Y-10279460D02*
X12155896Y-10288984D01*
X12155896Y-10288984D02*
X12117801Y-10288984D01*
X12117801Y-10288984D02*
X12098753Y-10279460D01*
X12279705Y-10269936D02*
X12289229Y-10279460D01*
X12289229Y-10279460D02*
X12279705Y-10288984D01*
X12279705Y-10288984D02*
X12270182Y-10279460D01*
X12270182Y-10279460D02*
X12279705Y-10269936D01*
X12279705Y-10269936D02*
X12279705Y-10288984D01*
X12279705Y-10165174D02*
X12289229Y-10174698D01*
X12289229Y-10174698D02*
X12279705Y-10184222D01*
X12279705Y-10184222D02*
X12270182Y-10174698D01*
X12270182Y-10174698D02*
X12279705Y-10165174D01*
X12279705Y-10165174D02*
X12279705Y-10184222D01*
D12*
X10487500Y-10537500D02*
X10647500Y-10697500D01*
X10647500Y-10537500D02*
X10487500Y-10697500D01*
D11*
X11013039Y-10708984D02*
X10898753Y-10708984D01*
X10955896Y-10708984D02*
X10955896Y-10508984D01*
X10955896Y-10508984D02*
X10936848Y-10537555D01*
X10936848Y-10537555D02*
X10917801Y-10556603D01*
X10917801Y-10556603D02*
X10898753Y-10566127D01*
X11098753Y-10689936D02*
X11108277Y-10699460D01*
X11108277Y-10699460D02*
X11098753Y-10708984D01*
X11098753Y-10708984D02*
X11089229Y-10699460D01*
X11089229Y-10699460D02*
X11098753Y-10689936D01*
X11098753Y-10689936D02*
X11098753Y-10708984D01*
X11279705Y-10508984D02*
X11241610Y-10508984D01*
X11241610Y-10508984D02*
X11222562Y-10518508D01*
X11222562Y-10518508D02*
X11213039Y-10528031D01*
X11213039Y-10528031D02*
X11193991Y-10556603D01*
X11193991Y-10556603D02*
X11184467Y-10594698D01*
X11184467Y-10594698D02*
X11184467Y-10670889D01*
X11184467Y-10670889D02*
X11193991Y-10689936D01*
X11193991Y-10689936D02*
X11203515Y-10699460D01*
X11203515Y-10699460D02*
X11222562Y-10708984D01*
X11222562Y-10708984D02*
X11260658Y-10708984D01*
X11260658Y-10708984D02*
X11279705Y-10699460D01*
X11279705Y-10699460D02*
X11289229Y-10689936D01*
X11289229Y-10689936D02*
X11298753Y-10670889D01*
X11298753Y-10670889D02*
X11298753Y-10623270D01*
X11298753Y-10623270D02*
X11289229Y-10604222D01*
X11289229Y-10604222D02*
X11279705Y-10594698D01*
X11279705Y-10594698D02*
X11260658Y-10585174D01*
X11260658Y-10585174D02*
X11222562Y-10585174D01*
X11222562Y-10585174D02*
X11203515Y-10594698D01*
X11203515Y-10594698D02*
X11193991Y-10604222D01*
X11193991Y-10604222D02*
X11184467Y-10623270D01*
X11422562Y-10508984D02*
X11441610Y-10508984D01*
X11441610Y-10508984D02*
X11460658Y-10518508D01*
X11460658Y-10518508D02*
X11470182Y-10528031D01*
X11470182Y-10528031D02*
X11479705Y-10547079D01*
X11479705Y-10547079D02*
X11489229Y-10585174D01*
X11489229Y-10585174D02*
X11489229Y-10632793D01*
X11489229Y-10632793D02*
X11479705Y-10670889D01*
X11479705Y-10670889D02*
X11470182Y-10689936D01*
X11470182Y-10689936D02*
X11460658Y-10699460D01*
X11460658Y-10699460D02*
X11441610Y-10708984D01*
X11441610Y-10708984D02*
X11422562Y-10708984D01*
X11422562Y-10708984D02*
X11403515Y-10699460D01*
X11403515Y-10699460D02*
X11393991Y-10689936D01*
X11393991Y-10689936D02*
X11384467Y-10670889D01*
X11384467Y-10670889D02*
X11374943Y-10632793D01*
X11374943Y-10632793D02*
X11374943Y-10585174D01*
X11374943Y-10585174D02*
X11384467Y-10547079D01*
X11384467Y-10547079D02*
X11393991Y-10528031D01*
X11393991Y-10528031D02*
X11403515Y-10518508D01*
X11403515Y-10518508D02*
X11422562Y-10508984D01*
X11613039Y-10508984D02*
X11632086Y-10508984D01*
X11632086Y-10508984D02*
X11651134Y-10518508D01*
X11651134Y-10518508D02*
X11660658Y-10528031D01*
X11660658Y-10528031D02*
X11670182Y-10547079D01*
X11670182Y-10547079D02*
X11679705Y-10585174D01*
X11679705Y-10585174D02*
X11679705Y-10632793D01*
X11679705Y-10632793D02*
X11670182Y-10670889D01*
X11670182Y-10670889D02*
X11660658Y-10689936D01*
X11660658Y-10689936D02*
X11651134Y-10699460D01*
X11651134Y-10699460D02*
X11632086Y-10708984D01*
X11632086Y-10708984D02*
X11613039Y-10708984D01*
X11613039Y-10708984D02*
X11593991Y-10699460D01*
X11593991Y-10699460D02*
X11584467Y-10689936D01*
X11584467Y-10689936D02*
X11574943Y-10670889D01*
X11574943Y-10670889D02*
X11565420Y-10632793D01*
X11565420Y-10632793D02*
X11565420Y-10585174D01*
X11565420Y-10585174D02*
X11574943Y-10547079D01*
X11574943Y-10547079D02*
X11584467Y-10528031D01*
X11584467Y-10528031D02*
X11593991Y-10518508D01*
X11593991Y-10518508D02*
X11613039Y-10508984D01*
X11765420Y-10708984D02*
X11765420Y-10575650D01*
X11765420Y-10594698D02*
X11774943Y-10585174D01*
X11774943Y-10585174D02*
X11793991Y-10575650D01*
X11793991Y-10575650D02*
X11822563Y-10575650D01*
X11822563Y-10575650D02*
X11841610Y-10585174D01*
X11841610Y-10585174D02*
X11851134Y-10604222D01*
X11851134Y-10604222D02*
X11851134Y-10708984D01*
X11851134Y-10604222D02*
X11860658Y-10585174D01*
X11860658Y-10585174D02*
X11879705Y-10575650D01*
X11879705Y-10575650D02*
X11908277Y-10575650D01*
X11908277Y-10575650D02*
X11927324Y-10585174D01*
X11927324Y-10585174D02*
X11936848Y-10604222D01*
X11936848Y-10604222D02*
X11936848Y-10708984D01*
X12032086Y-10708984D02*
X12032086Y-10575650D01*
X12032086Y-10594698D02*
X12041610Y-10585174D01*
X12041610Y-10585174D02*
X12060658Y-10575650D01*
X12060658Y-10575650D02*
X12089229Y-10575650D01*
X12089229Y-10575650D02*
X12108277Y-10585174D01*
X12108277Y-10585174D02*
X12117801Y-10604222D01*
X12117801Y-10604222D02*
X12117801Y-10708984D01*
X12117801Y-10604222D02*
X12127324Y-10585174D01*
X12127324Y-10585174D02*
X12146372Y-10575650D01*
X12146372Y-10575650D02*
X12174943Y-10575650D01*
X12174943Y-10575650D02*
X12193991Y-10585174D01*
X12193991Y-10585174D02*
X12203515Y-10604222D01*
X12203515Y-10604222D02*
X12203515Y-10708984D01*
X12593991Y-10499460D02*
X12422563Y-10756603D01*
X12851134Y-10508984D02*
X12870182Y-10508984D01*
X12870182Y-10508984D02*
X12889229Y-10518508D01*
X12889229Y-10518508D02*
X12898753Y-10528031D01*
X12898753Y-10528031D02*
X12908277Y-10547079D01*
X12908277Y-10547079D02*
X12917801Y-10585174D01*
X12917801Y-10585174D02*
X12917801Y-10632793D01*
X12917801Y-10632793D02*
X12908277Y-10670889D01*
X12908277Y-10670889D02*
X12898753Y-10689936D01*
X12898753Y-10689936D02*
X12889229Y-10699460D01*
X12889229Y-10699460D02*
X12870182Y-10708984D01*
X12870182Y-10708984D02*
X12851134Y-10708984D01*
X12851134Y-10708984D02*
X12832086Y-10699460D01*
X12832086Y-10699460D02*
X12822563Y-10689936D01*
X12822563Y-10689936D02*
X12813039Y-10670889D01*
X12813039Y-10670889D02*
X12803515Y-10632793D01*
X12803515Y-10632793D02*
X12803515Y-10585174D01*
X12803515Y-10585174D02*
X12813039Y-10547079D01*
X12813039Y-10547079D02*
X12822563Y-10528031D01*
X12822563Y-10528031D02*
X12832086Y-10518508D01*
X12832086Y-10518508D02*
X12851134Y-10508984D01*
X13003515Y-10689936D02*
X13013039Y-10699460D01*
X13013039Y-10699460D02*
X13003515Y-10708984D01*
X13003515Y-10708984D02*
X12993991Y-10699460D01*
X12993991Y-10699460D02*
X13003515Y-10689936D01*
X13003515Y-10689936D02*
X13003515Y-10708984D01*
X13136848Y-10508984D02*
X13155896Y-10508984D01*
X13155896Y-10508984D02*
X13174944Y-10518508D01*
X13174944Y-10518508D02*
X13184467Y-10528031D01*
X13184467Y-10528031D02*
X13193991Y-10547079D01*
X13193991Y-10547079D02*
X13203515Y-10585174D01*
X13203515Y-10585174D02*
X13203515Y-10632793D01*
X13203515Y-10632793D02*
X13193991Y-10670889D01*
X13193991Y-10670889D02*
X13184467Y-10689936D01*
X13184467Y-10689936D02*
X13174944Y-10699460D01*
X13174944Y-10699460D02*
X13155896Y-10708984D01*
X13155896Y-10708984D02*
X13136848Y-10708984D01*
X13136848Y-10708984D02*
X13117801Y-10699460D01*
X13117801Y-10699460D02*
X13108277Y-10689936D01*
X13108277Y-10689936D02*
X13098753Y-10670889D01*
X13098753Y-10670889D02*
X13089229Y-10632793D01*
X13089229Y-10632793D02*
X13089229Y-10585174D01*
X13089229Y-10585174D02*
X13098753Y-10547079D01*
X13098753Y-10547079D02*
X13108277Y-10528031D01*
X13108277Y-10528031D02*
X13117801Y-10518508D01*
X13117801Y-10518508D02*
X13136848Y-10508984D01*
X13374944Y-10508984D02*
X13336848Y-10508984D01*
X13336848Y-10508984D02*
X13317801Y-10518508D01*
X13317801Y-10518508D02*
X13308277Y-10528031D01*
X13308277Y-10528031D02*
X13289229Y-10556603D01*
X13289229Y-10556603D02*
X13279706Y-10594698D01*
X13279706Y-10594698D02*
X13279706Y-10670889D01*
X13279706Y-10670889D02*
X13289229Y-10689936D01*
X13289229Y-10689936D02*
X13298753Y-10699460D01*
X13298753Y-10699460D02*
X13317801Y-10708984D01*
X13317801Y-10708984D02*
X13355896Y-10708984D01*
X13355896Y-10708984D02*
X13374944Y-10699460D01*
X13374944Y-10699460D02*
X13384467Y-10689936D01*
X13384467Y-10689936D02*
X13393991Y-10670889D01*
X13393991Y-10670889D02*
X13393991Y-10623270D01*
X13393991Y-10623270D02*
X13384467Y-10604222D01*
X13384467Y-10604222D02*
X13374944Y-10594698D01*
X13374944Y-10594698D02*
X13355896Y-10585174D01*
X13355896Y-10585174D02*
X13317801Y-10585174D01*
X13317801Y-10585174D02*
X13298753Y-10594698D01*
X13298753Y-10594698D02*
X13289229Y-10604222D01*
X13289229Y-10604222D02*
X13279706Y-10623270D01*
X13460658Y-10508984D02*
X13584467Y-10508984D01*
X13584467Y-10508984D02*
X13517801Y-10585174D01*
X13517801Y-10585174D02*
X13546372Y-10585174D01*
X13546372Y-10585174D02*
X13565420Y-10594698D01*
X13565420Y-10594698D02*
X13574944Y-10604222D01*
X13574944Y-10604222D02*
X13584467Y-10623270D01*
X13584467Y-10623270D02*
X13584467Y-10670889D01*
X13584467Y-10670889D02*
X13574944Y-10689936D01*
X13574944Y-10689936D02*
X13565420Y-10699460D01*
X13565420Y-10699460D02*
X13546372Y-10708984D01*
X13546372Y-10708984D02*
X13489229Y-10708984D01*
X13489229Y-10708984D02*
X13470182Y-10699460D01*
X13470182Y-10699460D02*
X13460658Y-10689936D01*
X13708277Y-10508984D02*
X13727325Y-10508984D01*
X13727325Y-10508984D02*
X13746372Y-10518508D01*
X13746372Y-10518508D02*
X13755896Y-10528031D01*
X13755896Y-10528031D02*
X13765420Y-10547079D01*
X13765420Y-10547079D02*
X13774944Y-10585174D01*
X13774944Y-10585174D02*
X13774944Y-10632793D01*
X13774944Y-10632793D02*
X13765420Y-10670889D01*
X13765420Y-10670889D02*
X13755896Y-10689936D01*
X13755896Y-10689936D02*
X13746372Y-10699460D01*
X13746372Y-10699460D02*
X13727325Y-10708984D01*
X13727325Y-10708984D02*
X13708277Y-10708984D01*
X13708277Y-10708984D02*
X13689229Y-10699460D01*
X13689229Y-10699460D02*
X13679706Y-10689936D01*
X13679706Y-10689936D02*
X13670182Y-10670889D01*
X13670182Y-10670889D02*
X13660658Y-10632793D01*
X13660658Y-10632793D02*
X13660658Y-10585174D01*
X13660658Y-10585174D02*
X13670182Y-10547079D01*
X13670182Y-10547079D02*
X13679706Y-10528031D01*
X13679706Y-10528031D02*
X13689229Y-10518508D01*
X13689229Y-10518508D02*
X13708277Y-10508984D01*
X13851134Y-10508984D02*
X13851134Y-10547079D01*
X13927325Y-10508984D02*
X13927325Y-10547079D01*
X14222563Y-10785174D02*
X14213039Y-10775650D01*
X14213039Y-10775650D02*
X14193991Y-10747079D01*
X14193991Y-10747079D02*
X14184468Y-10728031D01*
X14184468Y-10728031D02*
X14174944Y-10699460D01*
X14174944Y-10699460D02*
X14165420Y-10651841D01*
X14165420Y-10651841D02*
X14165420Y-10613746D01*
X14165420Y-10613746D02*
X14174944Y-10566127D01*
X14174944Y-10566127D02*
X14184468Y-10537555D01*
X14184468Y-10537555D02*
X14193991Y-10518508D01*
X14193991Y-10518508D02*
X14213039Y-10489936D01*
X14213039Y-10489936D02*
X14222563Y-10480412D01*
X14384468Y-10575650D02*
X14384468Y-10708984D01*
X14336848Y-10499460D02*
X14289229Y-10642317D01*
X14289229Y-10642317D02*
X14413039Y-10642317D01*
X14641610Y-10708984D02*
X14641610Y-10508984D01*
X14727325Y-10708984D02*
X14727325Y-10604222D01*
X14727325Y-10604222D02*
X14717801Y-10585174D01*
X14717801Y-10585174D02*
X14698753Y-10575650D01*
X14698753Y-10575650D02*
X14670182Y-10575650D01*
X14670182Y-10575650D02*
X14651134Y-10585174D01*
X14651134Y-10585174D02*
X14641610Y-10594698D01*
X14851134Y-10708984D02*
X14832087Y-10699460D01*
X14832087Y-10699460D02*
X14822563Y-10689936D01*
X14822563Y-10689936D02*
X14813039Y-10670889D01*
X14813039Y-10670889D02*
X14813039Y-10613746D01*
X14813039Y-10613746D02*
X14822563Y-10594698D01*
X14822563Y-10594698D02*
X14832087Y-10585174D01*
X14832087Y-10585174D02*
X14851134Y-10575650D01*
X14851134Y-10575650D02*
X14879706Y-10575650D01*
X14879706Y-10575650D02*
X14898753Y-10585174D01*
X14898753Y-10585174D02*
X14908277Y-10594698D01*
X14908277Y-10594698D02*
X14917801Y-10613746D01*
X14917801Y-10613746D02*
X14917801Y-10670889D01*
X14917801Y-10670889D02*
X14908277Y-10689936D01*
X14908277Y-10689936D02*
X14898753Y-10699460D01*
X14898753Y-10699460D02*
X14879706Y-10708984D01*
X14879706Y-10708984D02*
X14851134Y-10708984D01*
X15032087Y-10708984D02*
X15013039Y-10699460D01*
X15013039Y-10699460D02*
X15003515Y-10680412D01*
X15003515Y-10680412D02*
X15003515Y-10508984D01*
X15184468Y-10699460D02*
X15165420Y-10708984D01*
X15165420Y-10708984D02*
X15127325Y-10708984D01*
X15127325Y-10708984D02*
X15108277Y-10699460D01*
X15108277Y-10699460D02*
X15098753Y-10680412D01*
X15098753Y-10680412D02*
X15098753Y-10604222D01*
X15098753Y-10604222D02*
X15108277Y-10585174D01*
X15108277Y-10585174D02*
X15127325Y-10575650D01*
X15127325Y-10575650D02*
X15165420Y-10575650D01*
X15165420Y-10575650D02*
X15184468Y-10585174D01*
X15184468Y-10585174D02*
X15193991Y-10604222D01*
X15193991Y-10604222D02*
X15193991Y-10623270D01*
X15193991Y-10623270D02*
X15098753Y-10642317D01*
X15270182Y-10699460D02*
X15289230Y-10708984D01*
X15289230Y-10708984D02*
X15327325Y-10708984D01*
X15327325Y-10708984D02*
X15346372Y-10699460D01*
X15346372Y-10699460D02*
X15355896Y-10680412D01*
X15355896Y-10680412D02*
X15355896Y-10670889D01*
X15355896Y-10670889D02*
X15346372Y-10651841D01*
X15346372Y-10651841D02*
X15327325Y-10642317D01*
X15327325Y-10642317D02*
X15298753Y-10642317D01*
X15298753Y-10642317D02*
X15279706Y-10632793D01*
X15279706Y-10632793D02*
X15270182Y-10613746D01*
X15270182Y-10613746D02*
X15270182Y-10604222D01*
X15270182Y-10604222D02*
X15279706Y-10585174D01*
X15279706Y-10585174D02*
X15298753Y-10575650D01*
X15298753Y-10575650D02*
X15327325Y-10575650D01*
X15327325Y-10575650D02*
X15346372Y-10585174D01*
X15422563Y-10785174D02*
X15432087Y-10775650D01*
X15432087Y-10775650D02*
X15451134Y-10747079D01*
X15451134Y-10747079D02*
X15460658Y-10728031D01*
X15460658Y-10728031D02*
X15470182Y-10699460D01*
X15470182Y-10699460D02*
X15479706Y-10651841D01*
X15479706Y-10651841D02*
X15479706Y-10613746D01*
X15479706Y-10613746D02*
X15470182Y-10566127D01*
X15470182Y-10566127D02*
X15460658Y-10537555D01*
X15460658Y-10537555D02*
X15451134Y-10518508D01*
X15451134Y-10518508D02*
X15432087Y-10489936D01*
X15432087Y-10489936D02*
X15422563Y-10480412D01*
X10647500Y-10897500D02*
G75*
G02*
X10447500Y-10897500I-100000J0D01*
G01*
X10447500Y-10897500D02*
G75*
G02*
X10647500Y-10897500I100000J0D01*
G01*
X10993991Y-10855650D02*
X10993991Y-10988984D01*
X10946372Y-10779460D02*
X10898753Y-10922317D01*
X10898753Y-10922317D02*
X11022563Y-10922317D01*
X11098753Y-10969936D02*
X11108277Y-10979460D01*
X11108277Y-10979460D02*
X11098753Y-10988984D01*
X11098753Y-10988984D02*
X11089229Y-10979460D01*
X11089229Y-10979460D02*
X11098753Y-10969936D01*
X11098753Y-10969936D02*
X11098753Y-10988984D01*
X11174944Y-10788984D02*
X11298753Y-10788984D01*
X11298753Y-10788984D02*
X11232086Y-10865174D01*
X11232086Y-10865174D02*
X11260658Y-10865174D01*
X11260658Y-10865174D02*
X11279705Y-10874698D01*
X11279705Y-10874698D02*
X11289229Y-10884222D01*
X11289229Y-10884222D02*
X11298753Y-10903270D01*
X11298753Y-10903270D02*
X11298753Y-10950889D01*
X11298753Y-10950889D02*
X11289229Y-10969936D01*
X11289229Y-10969936D02*
X11279705Y-10979460D01*
X11279705Y-10979460D02*
X11260658Y-10988984D01*
X11260658Y-10988984D02*
X11203515Y-10988984D01*
X11203515Y-10988984D02*
X11184467Y-10979460D01*
X11184467Y-10979460D02*
X11174944Y-10969936D01*
X11422562Y-10788984D02*
X11441610Y-10788984D01*
X11441610Y-10788984D02*
X11460658Y-10798508D01*
X11460658Y-10798508D02*
X11470182Y-10808031D01*
X11470182Y-10808031D02*
X11479705Y-10827079D01*
X11479705Y-10827079D02*
X11489229Y-10865174D01*
X11489229Y-10865174D02*
X11489229Y-10912793D01*
X11489229Y-10912793D02*
X11479705Y-10950889D01*
X11479705Y-10950889D02*
X11470182Y-10969936D01*
X11470182Y-10969936D02*
X11460658Y-10979460D01*
X11460658Y-10979460D02*
X11441610Y-10988984D01*
X11441610Y-10988984D02*
X11422562Y-10988984D01*
X11422562Y-10988984D02*
X11403515Y-10979460D01*
X11403515Y-10979460D02*
X11393991Y-10969936D01*
X11393991Y-10969936D02*
X11384467Y-10950889D01*
X11384467Y-10950889D02*
X11374943Y-10912793D01*
X11374943Y-10912793D02*
X11374943Y-10865174D01*
X11374943Y-10865174D02*
X11384467Y-10827079D01*
X11384467Y-10827079D02*
X11393991Y-10808031D01*
X11393991Y-10808031D02*
X11403515Y-10798508D01*
X11403515Y-10798508D02*
X11422562Y-10788984D01*
X11613039Y-10788984D02*
X11632086Y-10788984D01*
X11632086Y-10788984D02*
X11651134Y-10798508D01*
X11651134Y-10798508D02*
X11660658Y-10808031D01*
X11660658Y-10808031D02*
X11670182Y-10827079D01*
X11670182Y-10827079D02*
X11679705Y-10865174D01*
X11679705Y-10865174D02*
X11679705Y-10912793D01*
X11679705Y-10912793D02*
X11670182Y-10950889D01*
X11670182Y-10950889D02*
X11660658Y-10969936D01*
X11660658Y-10969936D02*
X11651134Y-10979460D01*
X11651134Y-10979460D02*
X11632086Y-10988984D01*
X11632086Y-10988984D02*
X11613039Y-10988984D01*
X11613039Y-10988984D02*
X11593991Y-10979460D01*
X11593991Y-10979460D02*
X11584467Y-10969936D01*
X11584467Y-10969936D02*
X11574943Y-10950889D01*
X11574943Y-10950889D02*
X11565420Y-10912793D01*
X11565420Y-10912793D02*
X11565420Y-10865174D01*
X11565420Y-10865174D02*
X11574943Y-10827079D01*
X11574943Y-10827079D02*
X11584467Y-10808031D01*
X11584467Y-10808031D02*
X11593991Y-10798508D01*
X11593991Y-10798508D02*
X11613039Y-10788984D01*
X11765420Y-10988984D02*
X11765420Y-10855650D01*
X11765420Y-10874698D02*
X11774943Y-10865174D01*
X11774943Y-10865174D02*
X11793991Y-10855650D01*
X11793991Y-10855650D02*
X11822563Y-10855650D01*
X11822563Y-10855650D02*
X11841610Y-10865174D01*
X11841610Y-10865174D02*
X11851134Y-10884222D01*
X11851134Y-10884222D02*
X11851134Y-10988984D01*
X11851134Y-10884222D02*
X11860658Y-10865174D01*
X11860658Y-10865174D02*
X11879705Y-10855650D01*
X11879705Y-10855650D02*
X11908277Y-10855650D01*
X11908277Y-10855650D02*
X11927324Y-10865174D01*
X11927324Y-10865174D02*
X11936848Y-10884222D01*
X11936848Y-10884222D02*
X11936848Y-10988984D01*
X12032086Y-10988984D02*
X12032086Y-10855650D01*
X12032086Y-10874698D02*
X12041610Y-10865174D01*
X12041610Y-10865174D02*
X12060658Y-10855650D01*
X12060658Y-10855650D02*
X12089229Y-10855650D01*
X12089229Y-10855650D02*
X12108277Y-10865174D01*
X12108277Y-10865174D02*
X12117801Y-10884222D01*
X12117801Y-10884222D02*
X12117801Y-10988984D01*
X12117801Y-10884222D02*
X12127324Y-10865174D01*
X12127324Y-10865174D02*
X12146372Y-10855650D01*
X12146372Y-10855650D02*
X12174943Y-10855650D01*
X12174943Y-10855650D02*
X12193991Y-10865174D01*
X12193991Y-10865174D02*
X12203515Y-10884222D01*
X12203515Y-10884222D02*
X12203515Y-10988984D01*
X12593991Y-10779460D02*
X12422563Y-11036603D01*
X12851134Y-10788984D02*
X12870182Y-10788984D01*
X12870182Y-10788984D02*
X12889229Y-10798508D01*
X12889229Y-10798508D02*
X12898753Y-10808031D01*
X12898753Y-10808031D02*
X12908277Y-10827079D01*
X12908277Y-10827079D02*
X12917801Y-10865174D01*
X12917801Y-10865174D02*
X12917801Y-10912793D01*
X12917801Y-10912793D02*
X12908277Y-10950889D01*
X12908277Y-10950889D02*
X12898753Y-10969936D01*
X12898753Y-10969936D02*
X12889229Y-10979460D01*
X12889229Y-10979460D02*
X12870182Y-10988984D01*
X12870182Y-10988984D02*
X12851134Y-10988984D01*
X12851134Y-10988984D02*
X12832086Y-10979460D01*
X12832086Y-10979460D02*
X12822563Y-10969936D01*
X12822563Y-10969936D02*
X12813039Y-10950889D01*
X12813039Y-10950889D02*
X12803515Y-10912793D01*
X12803515Y-10912793D02*
X12803515Y-10865174D01*
X12803515Y-10865174D02*
X12813039Y-10827079D01*
X12813039Y-10827079D02*
X12822563Y-10808031D01*
X12822563Y-10808031D02*
X12832086Y-10798508D01*
X12832086Y-10798508D02*
X12851134Y-10788984D01*
X13003515Y-10969936D02*
X13013039Y-10979460D01*
X13013039Y-10979460D02*
X13003515Y-10988984D01*
X13003515Y-10988984D02*
X12993991Y-10979460D01*
X12993991Y-10979460D02*
X13003515Y-10969936D01*
X13003515Y-10969936D02*
X13003515Y-10988984D01*
X13203515Y-10988984D02*
X13089229Y-10988984D01*
X13146372Y-10988984D02*
X13146372Y-10788984D01*
X13146372Y-10788984D02*
X13127325Y-10817555D01*
X13127325Y-10817555D02*
X13108277Y-10836603D01*
X13108277Y-10836603D02*
X13089229Y-10846127D01*
X13374944Y-10788984D02*
X13336848Y-10788984D01*
X13336848Y-10788984D02*
X13317801Y-10798508D01*
X13317801Y-10798508D02*
X13308277Y-10808031D01*
X13308277Y-10808031D02*
X13289229Y-10836603D01*
X13289229Y-10836603D02*
X13279706Y-10874698D01*
X13279706Y-10874698D02*
X13279706Y-10950889D01*
X13279706Y-10950889D02*
X13289229Y-10969936D01*
X13289229Y-10969936D02*
X13298753Y-10979460D01*
X13298753Y-10979460D02*
X13317801Y-10988984D01*
X13317801Y-10988984D02*
X13355896Y-10988984D01*
X13355896Y-10988984D02*
X13374944Y-10979460D01*
X13374944Y-10979460D02*
X13384467Y-10969936D01*
X13384467Y-10969936D02*
X13393991Y-10950889D01*
X13393991Y-10950889D02*
X13393991Y-10903270D01*
X13393991Y-10903270D02*
X13384467Y-10884222D01*
X13384467Y-10884222D02*
X13374944Y-10874698D01*
X13374944Y-10874698D02*
X13355896Y-10865174D01*
X13355896Y-10865174D02*
X13317801Y-10865174D01*
X13317801Y-10865174D02*
X13298753Y-10874698D01*
X13298753Y-10874698D02*
X13289229Y-10884222D01*
X13289229Y-10884222D02*
X13279706Y-10903270D01*
X13489229Y-10988984D02*
X13527325Y-10988984D01*
X13527325Y-10988984D02*
X13546372Y-10979460D01*
X13546372Y-10979460D02*
X13555896Y-10969936D01*
X13555896Y-10969936D02*
X13574944Y-10941365D01*
X13574944Y-10941365D02*
X13584467Y-10903270D01*
X13584467Y-10903270D02*
X13584467Y-10827079D01*
X13584467Y-10827079D02*
X13574944Y-10808031D01*
X13574944Y-10808031D02*
X13565420Y-10798508D01*
X13565420Y-10798508D02*
X13546372Y-10788984D01*
X13546372Y-10788984D02*
X13508277Y-10788984D01*
X13508277Y-10788984D02*
X13489229Y-10798508D01*
X13489229Y-10798508D02*
X13479706Y-10808031D01*
X13479706Y-10808031D02*
X13470182Y-10827079D01*
X13470182Y-10827079D02*
X13470182Y-10874698D01*
X13470182Y-10874698D02*
X13479706Y-10893746D01*
X13479706Y-10893746D02*
X13489229Y-10903270D01*
X13489229Y-10903270D02*
X13508277Y-10912793D01*
X13508277Y-10912793D02*
X13546372Y-10912793D01*
X13546372Y-10912793D02*
X13565420Y-10903270D01*
X13565420Y-10903270D02*
X13574944Y-10893746D01*
X13574944Y-10893746D02*
X13584467Y-10874698D01*
X13651134Y-10788984D02*
X13774944Y-10788984D01*
X13774944Y-10788984D02*
X13708277Y-10865174D01*
X13708277Y-10865174D02*
X13736848Y-10865174D01*
X13736848Y-10865174D02*
X13755896Y-10874698D01*
X13755896Y-10874698D02*
X13765420Y-10884222D01*
X13765420Y-10884222D02*
X13774944Y-10903270D01*
X13774944Y-10903270D02*
X13774944Y-10950889D01*
X13774944Y-10950889D02*
X13765420Y-10969936D01*
X13765420Y-10969936D02*
X13755896Y-10979460D01*
X13755896Y-10979460D02*
X13736848Y-10988984D01*
X13736848Y-10988984D02*
X13679706Y-10988984D01*
X13679706Y-10988984D02*
X13660658Y-10979460D01*
X13660658Y-10979460D02*
X13651134Y-10969936D01*
X13851134Y-10788984D02*
X13851134Y-10827079D01*
X13927325Y-10788984D02*
X13927325Y-10827079D01*
X14222563Y-11065174D02*
X14213039Y-11055650D01*
X14213039Y-11055650D02*
X14193991Y-11027079D01*
X14193991Y-11027079D02*
X14184468Y-11008031D01*
X14184468Y-11008031D02*
X14174944Y-10979460D01*
X14174944Y-10979460D02*
X14165420Y-10931841D01*
X14165420Y-10931841D02*
X14165420Y-10893746D01*
X14165420Y-10893746D02*
X14174944Y-10846127D01*
X14174944Y-10846127D02*
X14184468Y-10817555D01*
X14184468Y-10817555D02*
X14193991Y-10798508D01*
X14193991Y-10798508D02*
X14213039Y-10769936D01*
X14213039Y-10769936D02*
X14222563Y-10760412D01*
X14289229Y-10808031D02*
X14298753Y-10798508D01*
X14298753Y-10798508D02*
X14317801Y-10788984D01*
X14317801Y-10788984D02*
X14365420Y-10788984D01*
X14365420Y-10788984D02*
X14384468Y-10798508D01*
X14384468Y-10798508D02*
X14393991Y-10808031D01*
X14393991Y-10808031D02*
X14403515Y-10827079D01*
X14403515Y-10827079D02*
X14403515Y-10846127D01*
X14403515Y-10846127D02*
X14393991Y-10874698D01*
X14393991Y-10874698D02*
X14279706Y-10988984D01*
X14279706Y-10988984D02*
X14403515Y-10988984D01*
X14641610Y-10988984D02*
X14641610Y-10788984D01*
X14727325Y-10988984D02*
X14727325Y-10884222D01*
X14727325Y-10884222D02*
X14717801Y-10865174D01*
X14717801Y-10865174D02*
X14698753Y-10855650D01*
X14698753Y-10855650D02*
X14670182Y-10855650D01*
X14670182Y-10855650D02*
X14651134Y-10865174D01*
X14651134Y-10865174D02*
X14641610Y-10874698D01*
X14851134Y-10988984D02*
X14832087Y-10979460D01*
X14832087Y-10979460D02*
X14822563Y-10969936D01*
X14822563Y-10969936D02*
X14813039Y-10950889D01*
X14813039Y-10950889D02*
X14813039Y-10893746D01*
X14813039Y-10893746D02*
X14822563Y-10874698D01*
X14822563Y-10874698D02*
X14832087Y-10865174D01*
X14832087Y-10865174D02*
X14851134Y-10855650D01*
X14851134Y-10855650D02*
X14879706Y-10855650D01*
X14879706Y-10855650D02*
X14898753Y-10865174D01*
X14898753Y-10865174D02*
X14908277Y-10874698D01*
X14908277Y-10874698D02*
X14917801Y-10893746D01*
X14917801Y-10893746D02*
X14917801Y-10950889D01*
X14917801Y-10950889D02*
X14908277Y-10969936D01*
X14908277Y-10969936D02*
X14898753Y-10979460D01*
X14898753Y-10979460D02*
X14879706Y-10988984D01*
X14879706Y-10988984D02*
X14851134Y-10988984D01*
X15032087Y-10988984D02*
X15013039Y-10979460D01*
X15013039Y-10979460D02*
X15003515Y-10960412D01*
X15003515Y-10960412D02*
X15003515Y-10788984D01*
X15184468Y-10979460D02*
X15165420Y-10988984D01*
X15165420Y-10988984D02*
X15127325Y-10988984D01*
X15127325Y-10988984D02*
X15108277Y-10979460D01*
X15108277Y-10979460D02*
X15098753Y-10960412D01*
X15098753Y-10960412D02*
X15098753Y-10884222D01*
X15098753Y-10884222D02*
X15108277Y-10865174D01*
X15108277Y-10865174D02*
X15127325Y-10855650D01*
X15127325Y-10855650D02*
X15165420Y-10855650D01*
X15165420Y-10855650D02*
X15184468Y-10865174D01*
X15184468Y-10865174D02*
X15193991Y-10884222D01*
X15193991Y-10884222D02*
X15193991Y-10903270D01*
X15193991Y-10903270D02*
X15098753Y-10922317D01*
X15270182Y-10979460D02*
X15289230Y-10988984D01*
X15289230Y-10988984D02*
X15327325Y-10988984D01*
X15327325Y-10988984D02*
X15346372Y-10979460D01*
X15346372Y-10979460D02*
X15355896Y-10960412D01*
X15355896Y-10960412D02*
X15355896Y-10950889D01*
X15355896Y-10950889D02*
X15346372Y-10931841D01*
X15346372Y-10931841D02*
X15327325Y-10922317D01*
X15327325Y-10922317D02*
X15298753Y-10922317D01*
X15298753Y-10922317D02*
X15279706Y-10912793D01*
X15279706Y-10912793D02*
X15270182Y-10893746D01*
X15270182Y-10893746D02*
X15270182Y-10884222D01*
X15270182Y-10884222D02*
X15279706Y-10865174D01*
X15279706Y-10865174D02*
X15298753Y-10855650D01*
X15298753Y-10855650D02*
X15327325Y-10855650D01*
X15327325Y-10855650D02*
X15346372Y-10865174D01*
X15422563Y-11065174D02*
X15432087Y-11055650D01*
X15432087Y-11055650D02*
X15451134Y-11027079D01*
X15451134Y-11027079D02*
X15460658Y-11008031D01*
X15460658Y-11008031D02*
X15470182Y-10979460D01*
X15470182Y-10979460D02*
X15479706Y-10931841D01*
X15479706Y-10931841D02*
X15479706Y-10893746D01*
X15479706Y-10893746D02*
X15470182Y-10846127D01*
X15470182Y-10846127D02*
X15460658Y-10817555D01*
X15460658Y-10817555D02*
X15451134Y-10798508D01*
X15451134Y-10798508D02*
X15432087Y-10769936D01*
X15432087Y-10769936D02*
X15422563Y-10760412D01*
M02*
