%TF.GenerationSoftware,KiCad,Pcbnew,9.0.8*%
%TF.CreationDate,2026-03-21T20:31:41-04:00*%
%TF.ProjectId,J1772 Enabler,4a313737-3220-4456-9e61-626c65722e6b,rev?*%
%TF.SameCoordinates,Original*%
%TF.FileFunction,Soldermask,Top*%
%TF.FilePolarity,Negative*%
%FSLAX46Y46*%
G04 Gerber Fmt 4.6, Leading zero omitted, Abs format (unit mm)*
G04 Created by KiCad (PCBNEW 9.0.8) date 2026-03-21 20:31:41*
%MOMM*%
%LPD*%
G01*
G04 APERTURE LIST*
G04 Aperture macros list*
%AMRoundRect*
0 Rectangle with rounded corners*
0 $1 Rounding radius*
0 $2 $3 $4 $5 $6 $7 $8 $9 X,Y pos of 4 corners*
0 Add a 4 corners polygon primitive as box body*
4,1,4,$2,$3,$4,$5,$6,$7,$8,$9,$2,$3,0*
0 Add four circle primitives for the rounded corners*
1,1,$1+$1,$2,$3*
1,1,$1+$1,$4,$5*
1,1,$1+$1,$6,$7*
1,1,$1+$1,$8,$9*
0 Add four rect primitives between the rounded corners*
20,1,$1+$1,$2,$3,$4,$5,0*
20,1,$1+$1,$4,$5,$6,$7,0*
20,1,$1+$1,$6,$7,$8,$9,0*
20,1,$1+$1,$8,$9,$2,$3,0*%
G04 Aperture macros list end*
%ADD10C,0.000000*%
%ADD11RoundRect,0.250000X-0.625000X0.375000X-0.625000X-0.375000X0.625000X-0.375000X0.625000X0.375000X0*%
%ADD12C,4.700000*%
%ADD13C,7.500000*%
%ADD14RoundRect,0.250000X-0.625000X0.312500X-0.625000X-0.312500X0.625000X-0.312500X0.625000X0.312500X0*%
%ADD15C,2.800000*%
%ADD16RoundRect,0.250000X1.050000X1.050000X-1.050000X1.050000X-1.050000X-1.050000X1.050000X-1.050000X0*%
%ADD17C,2.600000*%
G04 APERTURE END LIST*
D10*
%TO.C,G\u002A\u002A\u002A*%
G36*
X148066557Y-95609949D02*
G01*
X148062523Y-95634199D01*
X148055443Y-95680972D01*
X148045971Y-95745759D01*
X148034765Y-95824055D01*
X148022479Y-95911351D01*
X148017429Y-95947637D01*
X148004960Y-96036728D01*
X147993360Y-96118114D01*
X147983270Y-96187416D01*
X147975332Y-96240253D01*
X147970186Y-96272246D01*
X147969027Y-96278347D01*
X147962253Y-96308950D01*
X146976911Y-96312450D01*
X145991568Y-96315950D01*
X145893488Y-96991192D01*
X145873944Y-97125735D01*
X145855358Y-97253669D01*
X145838146Y-97372137D01*
X145822722Y-97478282D01*
X145809501Y-97569250D01*
X145798898Y-97642183D01*
X145791329Y-97694225D01*
X145787208Y-97722521D01*
X145786932Y-97724409D01*
X145778457Y-97782384D01*
X145411837Y-97782384D01*
X145045217Y-97782384D01*
X145053635Y-97731229D01*
X145056883Y-97709809D01*
X145063691Y-97663568D01*
X145073744Y-97594691D01*
X145086724Y-97505363D01*
X145102315Y-97397769D01*
X145120202Y-97274093D01*
X145140068Y-97136521D01*
X145161597Y-96987237D01*
X145184472Y-96828427D01*
X145208378Y-96662274D01*
X145213062Y-96629699D01*
X145364071Y-95579323D01*
X146719063Y-95575846D01*
X148074055Y-95572370D01*
X148066557Y-95609949D01*
G37*
G36*
X148232092Y-94389124D02*
G01*
X148228236Y-94414958D01*
X148221231Y-94463413D01*
X148211701Y-94530091D01*
X148200275Y-94610596D01*
X148187579Y-94700528D01*
X148179577Y-94757438D01*
X148134094Y-95081417D01*
X146786596Y-95081417D01*
X146565022Y-95081404D01*
X146369148Y-95081343D01*
X146197392Y-95081206D01*
X146048172Y-95080962D01*
X145919906Y-95080581D01*
X145811010Y-95080034D01*
X145719904Y-95079291D01*
X145645004Y-95078322D01*
X145584729Y-95077097D01*
X145537496Y-95075586D01*
X145501723Y-95073759D01*
X145475828Y-95071588D01*
X145458228Y-95069040D01*
X145447341Y-95066088D01*
X145441586Y-95062701D01*
X145439379Y-95058849D01*
X145439098Y-95056005D01*
X145440987Y-95035832D01*
X145446297Y-94992695D01*
X145454487Y-94930626D01*
X145465017Y-94853656D01*
X145477348Y-94765815D01*
X145486842Y-94699463D01*
X145500061Y-94607317D01*
X145511877Y-94524076D01*
X145521755Y-94453563D01*
X145529164Y-94399603D01*
X145533571Y-94366019D01*
X145534586Y-94356561D01*
X145547928Y-94354894D01*
X145586758Y-94353300D01*
X145649279Y-94351794D01*
X145733697Y-94350393D01*
X145838218Y-94349112D01*
X145961045Y-94347967D01*
X146100383Y-94346973D01*
X146254438Y-94346145D01*
X146421413Y-94345501D01*
X146599515Y-94345054D01*
X146786948Y-94344821D01*
X146886855Y-94344790D01*
X148239123Y-94344790D01*
X148232092Y-94389124D01*
G37*
G36*
X150314981Y-94344810D02*
G01*
X150511166Y-94344886D01*
X150683218Y-94345048D01*
X150832715Y-94345323D01*
X150961230Y-94345739D01*
X151070339Y-94346324D01*
X151161618Y-94347105D01*
X151236642Y-94348112D01*
X151296985Y-94349370D01*
X151344225Y-94350910D01*
X151379935Y-94352758D01*
X151405691Y-94354942D01*
X151423069Y-94357491D01*
X151433644Y-94360431D01*
X151438991Y-94363792D01*
X151440685Y-94367601D01*
X151440722Y-94368662D01*
X151438796Y-94385845D01*
X151433398Y-94427825D01*
X151424830Y-94492377D01*
X151413396Y-94577277D01*
X151399398Y-94680303D01*
X151383140Y-94799231D01*
X151364923Y-94931836D01*
X151345052Y-95075895D01*
X151323829Y-95229185D01*
X151307408Y-95347422D01*
X151174618Y-96302309D01*
X150185939Y-96309130D01*
X149197261Y-96315950D01*
X149092488Y-97038936D01*
X149072603Y-97176217D01*
X149053918Y-97305345D01*
X149036796Y-97423805D01*
X149021598Y-97529079D01*
X149008689Y-97618652D01*
X148998431Y-97690007D01*
X148991187Y-97740626D01*
X148987320Y-97767994D01*
X148986768Y-97772153D01*
X148973457Y-97774858D01*
X148936403Y-97777294D01*
X148879143Y-97779364D01*
X148805215Y-97780968D01*
X148718159Y-97782007D01*
X148621512Y-97782384D01*
X148619897Y-97782384D01*
X148253973Y-97782384D01*
X148412624Y-96680854D01*
X148571274Y-95579323D01*
X149552430Y-95572502D01*
X150533586Y-95565682D01*
X150563528Y-95361063D01*
X150574162Y-95286412D01*
X150583274Y-95218694D01*
X150590117Y-95163748D01*
X150593945Y-95127413D01*
X150594480Y-95118931D01*
X150595489Y-95081417D01*
X149620140Y-95081417D01*
X149426342Y-95081327D01*
X149258262Y-95081038D01*
X149114338Y-95080522D01*
X148993005Y-95079752D01*
X148892701Y-95078701D01*
X148811861Y-95077342D01*
X148748924Y-95075647D01*
X148702324Y-95073589D01*
X148670498Y-95071141D01*
X148651884Y-95068275D01*
X148644918Y-95064964D01*
X148644780Y-95064366D01*
X148646637Y-95046720D01*
X148651873Y-95005848D01*
X148659975Y-94945527D01*
X148670428Y-94869533D01*
X148682720Y-94781643D01*
X148694851Y-94696052D01*
X148744933Y-94344790D01*
X150093089Y-94344790D01*
X150314981Y-94344810D01*
G37*
G36*
X152060642Y-93200914D02*
G01*
X152258034Y-93200999D01*
X152468947Y-93201132D01*
X152692007Y-93201312D01*
X152925836Y-93201539D01*
X153169058Y-93201815D01*
X153420298Y-93202138D01*
X153534811Y-93202298D01*
X155946596Y-93205746D01*
X153281273Y-95831513D01*
X153050082Y-96059277D01*
X152821490Y-96284489D01*
X152596434Y-96506225D01*
X152375854Y-96723560D01*
X152160687Y-96935568D01*
X151951873Y-97141325D01*
X151750350Y-97339906D01*
X151557056Y-97530385D01*
X151372930Y-97711839D01*
X151198910Y-97883341D01*
X151035935Y-98043968D01*
X150884943Y-98192794D01*
X150746873Y-98328895D01*
X150622663Y-98451345D01*
X150513252Y-98559219D01*
X150419578Y-98651593D01*
X150342580Y-98727542D01*
X150283196Y-98786140D01*
X150244227Y-98824624D01*
X150161585Y-98906001D01*
X150085329Y-98980531D01*
X150017546Y-99046216D01*
X149960324Y-99101056D01*
X149915751Y-99143054D01*
X149885914Y-99170212D01*
X149872902Y-99180532D01*
X149872503Y-99180388D01*
X149874447Y-99165189D01*
X149880052Y-99125344D01*
X149888976Y-99063196D01*
X149900878Y-98981087D01*
X149915416Y-98881358D01*
X149932249Y-98766352D01*
X149951035Y-98638412D01*
X149971433Y-98499878D01*
X149993101Y-98353093D01*
X149995661Y-98335774D01*
X150118819Y-97502739D01*
X150178187Y-97448174D01*
X150194391Y-97433016D01*
X150229350Y-97400111D01*
X150282001Y-97350463D01*
X150351281Y-97285075D01*
X150436129Y-97204952D01*
X150535482Y-97111098D01*
X150648277Y-97004517D01*
X150773453Y-96886213D01*
X150909946Y-96757190D01*
X151056695Y-96618451D01*
X151212637Y-96471003D01*
X151376710Y-96315847D01*
X151547851Y-96153989D01*
X151724997Y-95986433D01*
X151907087Y-95814182D01*
X151931843Y-95790762D01*
X153626131Y-94187916D01*
X152301787Y-94184438D01*
X152064749Y-94183680D01*
X151849349Y-94182711D01*
X151656197Y-94181540D01*
X151485902Y-94180174D01*
X151339076Y-94178621D01*
X151216327Y-94176889D01*
X151118267Y-94174984D01*
X151045504Y-94172916D01*
X150998650Y-94170691D01*
X150978313Y-94168318D01*
X150977443Y-94167695D01*
X150979349Y-94150610D01*
X150984702Y-94110738D01*
X150992957Y-94051788D01*
X151003566Y-93977470D01*
X151015983Y-93891493D01*
X151029663Y-93797565D01*
X151044058Y-93699396D01*
X151058622Y-93600695D01*
X151072810Y-93505170D01*
X151086074Y-93416531D01*
X151097869Y-93338487D01*
X151107648Y-93274747D01*
X151114865Y-93229020D01*
X151118973Y-93205014D01*
X151119643Y-93202298D01*
X151133417Y-93201953D01*
X151173096Y-93201657D01*
X151237306Y-93201408D01*
X151324670Y-93201206D01*
X151433812Y-93201052D01*
X151563357Y-93200946D01*
X151711927Y-93200888D01*
X151878147Y-93200877D01*
X152060642Y-93200914D01*
G37*
%TD*%
D11*
%TO.C,D1*%
X128450000Y-79350000D03*
X128450000Y-82150000D03*
%TD*%
D12*
%TO.C,REF\u002A\u002A*%
X111450000Y-87250000D03*
D13*
X111450000Y-87250000D03*
%TD*%
D14*
%TO.C,R1*%
X131950000Y-86787500D03*
X131950000Y-89712500D03*
%TD*%
D12*
%TO.C,REF\u002A\u002A*%
X151450000Y-87250000D03*
D13*
X151450000Y-87250000D03*
%TD*%
D15*
%TO.C,J2*%
X143750000Y-78450000D03*
X138950000Y-78450000D03*
D16*
X143750000Y-92250000D03*
D17*
X138950000Y-92250000D03*
%TD*%
D15*
%TO.C,J3*%
X118950000Y-78450000D03*
D16*
X118950000Y-92250000D03*
%TD*%
D14*
%TO.C,R2*%
X134450000Y-79287500D03*
X134450000Y-82212500D03*
%TD*%
D15*
%TO.C,J1*%
X123950000Y-78450000D03*
D16*
X123950000Y-92250000D03*
%TD*%
M02*
