%TF.GenerationSoftware,KiCad,Pcbnew,9.0.8*%
%TF.CreationDate,2026-03-21T10:54:52-04:00*%
%TF.ProjectId,J1772 Enabler,4a313737-3220-4456-9e61-626c65722e6b,rev?*%
%TF.SameCoordinates,Original*%
%TF.FileFunction,Legend,Top*%
%TF.FilePolarity,Positive*%
%FSLAX46Y46*%
G04 Gerber Fmt 4.6, Leading zero omitted, Abs format (unit mm)*
G04 Created by KiCad (PCBNEW 9.0.8) date 2026-03-21 10:54:52*
%MOMM*%
%LPD*%
G01*
G04 APERTURE LIST*
G04 Aperture macros list*
%AMRoundRect*
0 Rectangle with rounded corners*
0 $1 Rounding radius*
0 $2 $3 $4 $5 $6 $7 $8 $9 X,Y pos of 4 corners*
0 Add a 4 corners polygon primitive as box body*
4,1,4,$2,$3,$4,$5,$6,$7,$8,$9,$2,$3,0*
0 Add four circle primitives for the rounded corners*
1,1,$1+$1,$2,$3*
1,1,$1+$1,$4,$5*
1,1,$1+$1,$6,$7*
1,1,$1+$1,$8,$9*
0 Add four rect primitives between the rounded corners*
20,1,$1+$1,$2,$3,$4,$5,0*
20,1,$1+$1,$4,$5,$6,$7,0*
20,1,$1+$1,$6,$7,$8,$9,0*
20,1,$1+$1,$8,$9,$2,$3,0*%
G04 Aperture macros list end*
%ADD10C,0.150000*%
%ADD11C,0.120000*%
%ADD12C,0.000000*%
%ADD13C,4.700000*%
%ADD14C,7.500000*%
%ADD15RoundRect,0.250000X-0.625000X0.312500X-0.625000X-0.312500X0.625000X-0.312500X0.625000X0.312500X0*%
%ADD16C,2.800000*%
%ADD17RoundRect,0.250000X1.050000X1.050000X-1.050000X1.050000X-1.050000X-1.050000X1.050000X-1.050000X0*%
%ADD18C,2.600000*%
%ADD19RoundRect,0.250000X-0.625000X0.375000X-0.625000X-0.375000X0.625000X-0.375000X0.625000X0.375000X0*%
G04 APERTURE END LIST*
D10*
X123336779Y-98369819D02*
X123336779Y-97369819D01*
X123336779Y-97369819D02*
X123574874Y-97369819D01*
X123574874Y-97369819D02*
X123717731Y-97417438D01*
X123717731Y-97417438D02*
X123812969Y-97512676D01*
X123812969Y-97512676D02*
X123860588Y-97607914D01*
X123860588Y-97607914D02*
X123908207Y-97798390D01*
X123908207Y-97798390D02*
X123908207Y-97941247D01*
X123908207Y-97941247D02*
X123860588Y-98131723D01*
X123860588Y-98131723D02*
X123812969Y-98226961D01*
X123812969Y-98226961D02*
X123717731Y-98322200D01*
X123717731Y-98322200D02*
X123574874Y-98369819D01*
X123574874Y-98369819D02*
X123336779Y-98369819D01*
X124717731Y-98322200D02*
X124622493Y-98369819D01*
X124622493Y-98369819D02*
X124432017Y-98369819D01*
X124432017Y-98369819D02*
X124336779Y-98322200D01*
X124336779Y-98322200D02*
X124289160Y-98226961D01*
X124289160Y-98226961D02*
X124289160Y-97846009D01*
X124289160Y-97846009D02*
X124336779Y-97750771D01*
X124336779Y-97750771D02*
X124432017Y-97703152D01*
X124432017Y-97703152D02*
X124622493Y-97703152D01*
X124622493Y-97703152D02*
X124717731Y-97750771D01*
X124717731Y-97750771D02*
X124765350Y-97846009D01*
X124765350Y-97846009D02*
X124765350Y-97941247D01*
X124765350Y-97941247D02*
X124289160Y-98036485D01*
X125146303Y-98322200D02*
X125241541Y-98369819D01*
X125241541Y-98369819D02*
X125432017Y-98369819D01*
X125432017Y-98369819D02*
X125527255Y-98322200D01*
X125527255Y-98322200D02*
X125574874Y-98226961D01*
X125574874Y-98226961D02*
X125574874Y-98179342D01*
X125574874Y-98179342D02*
X125527255Y-98084104D01*
X125527255Y-98084104D02*
X125432017Y-98036485D01*
X125432017Y-98036485D02*
X125289160Y-98036485D01*
X125289160Y-98036485D02*
X125193922Y-97988866D01*
X125193922Y-97988866D02*
X125146303Y-97893628D01*
X125146303Y-97893628D02*
X125146303Y-97846009D01*
X125146303Y-97846009D02*
X125193922Y-97750771D01*
X125193922Y-97750771D02*
X125289160Y-97703152D01*
X125289160Y-97703152D02*
X125432017Y-97703152D01*
X125432017Y-97703152D02*
X125527255Y-97750771D01*
X126003446Y-98369819D02*
X126003446Y-97703152D01*
X126003446Y-97369819D02*
X125955827Y-97417438D01*
X125955827Y-97417438D02*
X126003446Y-97465057D01*
X126003446Y-97465057D02*
X126051065Y-97417438D01*
X126051065Y-97417438D02*
X126003446Y-97369819D01*
X126003446Y-97369819D02*
X126003446Y-97465057D01*
X126908207Y-97703152D02*
X126908207Y-98512676D01*
X126908207Y-98512676D02*
X126860588Y-98607914D01*
X126860588Y-98607914D02*
X126812969Y-98655533D01*
X126812969Y-98655533D02*
X126717731Y-98703152D01*
X126717731Y-98703152D02*
X126574874Y-98703152D01*
X126574874Y-98703152D02*
X126479636Y-98655533D01*
X126908207Y-98322200D02*
X126812969Y-98369819D01*
X126812969Y-98369819D02*
X126622493Y-98369819D01*
X126622493Y-98369819D02*
X126527255Y-98322200D01*
X126527255Y-98322200D02*
X126479636Y-98274580D01*
X126479636Y-98274580D02*
X126432017Y-98179342D01*
X126432017Y-98179342D02*
X126432017Y-97893628D01*
X126432017Y-97893628D02*
X126479636Y-97798390D01*
X126479636Y-97798390D02*
X126527255Y-97750771D01*
X126527255Y-97750771D02*
X126622493Y-97703152D01*
X126622493Y-97703152D02*
X126812969Y-97703152D01*
X126812969Y-97703152D02*
X126908207Y-97750771D01*
X127384398Y-97703152D02*
X127384398Y-98369819D01*
X127384398Y-97798390D02*
X127432017Y-97750771D01*
X127432017Y-97750771D02*
X127527255Y-97703152D01*
X127527255Y-97703152D02*
X127670112Y-97703152D01*
X127670112Y-97703152D02*
X127765350Y-97750771D01*
X127765350Y-97750771D02*
X127812969Y-97846009D01*
X127812969Y-97846009D02*
X127812969Y-98369819D01*
X128670112Y-98322200D02*
X128574874Y-98369819D01*
X128574874Y-98369819D02*
X128384398Y-98369819D01*
X128384398Y-98369819D02*
X128289160Y-98322200D01*
X128289160Y-98322200D02*
X128241541Y-98226961D01*
X128241541Y-98226961D02*
X128241541Y-97846009D01*
X128241541Y-97846009D02*
X128289160Y-97750771D01*
X128289160Y-97750771D02*
X128384398Y-97703152D01*
X128384398Y-97703152D02*
X128574874Y-97703152D01*
X128574874Y-97703152D02*
X128670112Y-97750771D01*
X128670112Y-97750771D02*
X128717731Y-97846009D01*
X128717731Y-97846009D02*
X128717731Y-97941247D01*
X128717731Y-97941247D02*
X128241541Y-98036485D01*
X129574874Y-98369819D02*
X129574874Y-97369819D01*
X129574874Y-98322200D02*
X129479636Y-98369819D01*
X129479636Y-98369819D02*
X129289160Y-98369819D01*
X129289160Y-98369819D02*
X129193922Y-98322200D01*
X129193922Y-98322200D02*
X129146303Y-98274580D01*
X129146303Y-98274580D02*
X129098684Y-98179342D01*
X129098684Y-98179342D02*
X129098684Y-97893628D01*
X129098684Y-97893628D02*
X129146303Y-97798390D01*
X129146303Y-97798390D02*
X129193922Y-97750771D01*
X129193922Y-97750771D02*
X129289160Y-97703152D01*
X129289160Y-97703152D02*
X129479636Y-97703152D01*
X129479636Y-97703152D02*
X129574874Y-97750771D01*
X130812970Y-98369819D02*
X130812970Y-97369819D01*
X130812970Y-97750771D02*
X130908208Y-97703152D01*
X130908208Y-97703152D02*
X131098684Y-97703152D01*
X131098684Y-97703152D02*
X131193922Y-97750771D01*
X131193922Y-97750771D02*
X131241541Y-97798390D01*
X131241541Y-97798390D02*
X131289160Y-97893628D01*
X131289160Y-97893628D02*
X131289160Y-98179342D01*
X131289160Y-98179342D02*
X131241541Y-98274580D01*
X131241541Y-98274580D02*
X131193922Y-98322200D01*
X131193922Y-98322200D02*
X131098684Y-98369819D01*
X131098684Y-98369819D02*
X130908208Y-98369819D01*
X130908208Y-98369819D02*
X130812970Y-98322200D01*
X131622494Y-97703152D02*
X131860589Y-98369819D01*
X132098684Y-97703152D02*
X131860589Y-98369819D01*
X131860589Y-98369819D02*
X131765351Y-98607914D01*
X131765351Y-98607914D02*
X131717732Y-98655533D01*
X131717732Y-98655533D02*
X131622494Y-98703152D01*
X133574875Y-97846009D02*
X133241542Y-97846009D01*
X133241542Y-98369819D02*
X133241542Y-97369819D01*
X133241542Y-97369819D02*
X133717732Y-97369819D01*
X134098685Y-98369819D02*
X134098685Y-97703152D01*
X134098685Y-97893628D02*
X134146304Y-97798390D01*
X134146304Y-97798390D02*
X134193923Y-97750771D01*
X134193923Y-97750771D02*
X134289161Y-97703152D01*
X134289161Y-97703152D02*
X134384399Y-97703152D01*
X135098685Y-98322200D02*
X135003447Y-98369819D01*
X135003447Y-98369819D02*
X134812971Y-98369819D01*
X134812971Y-98369819D02*
X134717733Y-98322200D01*
X134717733Y-98322200D02*
X134670114Y-98226961D01*
X134670114Y-98226961D02*
X134670114Y-97846009D01*
X134670114Y-97846009D02*
X134717733Y-97750771D01*
X134717733Y-97750771D02*
X134812971Y-97703152D01*
X134812971Y-97703152D02*
X135003447Y-97703152D01*
X135003447Y-97703152D02*
X135098685Y-97750771D01*
X135098685Y-97750771D02*
X135146304Y-97846009D01*
X135146304Y-97846009D02*
X135146304Y-97941247D01*
X135146304Y-97941247D02*
X134670114Y-98036485D01*
X135955828Y-98322200D02*
X135860590Y-98369819D01*
X135860590Y-98369819D02*
X135670114Y-98369819D01*
X135670114Y-98369819D02*
X135574876Y-98322200D01*
X135574876Y-98322200D02*
X135527257Y-98226961D01*
X135527257Y-98226961D02*
X135527257Y-97846009D01*
X135527257Y-97846009D02*
X135574876Y-97750771D01*
X135574876Y-97750771D02*
X135670114Y-97703152D01*
X135670114Y-97703152D02*
X135860590Y-97703152D01*
X135860590Y-97703152D02*
X135955828Y-97750771D01*
X135955828Y-97750771D02*
X136003447Y-97846009D01*
X136003447Y-97846009D02*
X136003447Y-97941247D01*
X136003447Y-97941247D02*
X135527257Y-98036485D01*
X136432019Y-97703152D02*
X136432019Y-98703152D01*
X136432019Y-97750771D02*
X136527257Y-97703152D01*
X136527257Y-97703152D02*
X136717733Y-97703152D01*
X136717733Y-97703152D02*
X136812971Y-97750771D01*
X136812971Y-97750771D02*
X136860590Y-97798390D01*
X136860590Y-97798390D02*
X136908209Y-97893628D01*
X136908209Y-97893628D02*
X136908209Y-98179342D01*
X136908209Y-98179342D02*
X136860590Y-98274580D01*
X136860590Y-98274580D02*
X136812971Y-98322200D01*
X136812971Y-98322200D02*
X136717733Y-98369819D01*
X136717733Y-98369819D02*
X136527257Y-98369819D01*
X136527257Y-98369819D02*
X136432019Y-98322200D01*
X137479638Y-98369819D02*
X137384400Y-98322200D01*
X137384400Y-98322200D02*
X137336781Y-98274580D01*
X137336781Y-98274580D02*
X137289162Y-98179342D01*
X137289162Y-98179342D02*
X137289162Y-97893628D01*
X137289162Y-97893628D02*
X137336781Y-97798390D01*
X137336781Y-97798390D02*
X137384400Y-97750771D01*
X137384400Y-97750771D02*
X137479638Y-97703152D01*
X137479638Y-97703152D02*
X137622495Y-97703152D01*
X137622495Y-97703152D02*
X137717733Y-97750771D01*
X137717733Y-97750771D02*
X137765352Y-97798390D01*
X137765352Y-97798390D02*
X137812971Y-97893628D01*
X137812971Y-97893628D02*
X137812971Y-98179342D01*
X137812971Y-98179342D02*
X137765352Y-98274580D01*
X137765352Y-98274580D02*
X137717733Y-98322200D01*
X137717733Y-98322200D02*
X137622495Y-98369819D01*
X137622495Y-98369819D02*
X137479638Y-98369819D01*
X138241543Y-98369819D02*
X138241543Y-97703152D01*
X138241543Y-97893628D02*
X138289162Y-97798390D01*
X138289162Y-97798390D02*
X138336781Y-97750771D01*
X138336781Y-97750771D02*
X138432019Y-97703152D01*
X138432019Y-97703152D02*
X138527257Y-97703152D01*
X138717734Y-97703152D02*
X139098686Y-97703152D01*
X138860591Y-97369819D02*
X138860591Y-98226961D01*
X138860591Y-98226961D02*
X138908210Y-98322200D01*
X138908210Y-98322200D02*
X139003448Y-98369819D01*
X139003448Y-98369819D02*
X139098686Y-98369819D01*
X139336782Y-97369819D02*
X140003448Y-97369819D01*
X140003448Y-97369819D02*
X139574877Y-98369819D01*
X136734819Y-80916666D02*
X136258628Y-81249999D01*
X136734819Y-81488094D02*
X135734819Y-81488094D01*
X135734819Y-81488094D02*
X135734819Y-81107142D01*
X135734819Y-81107142D02*
X135782438Y-81011904D01*
X135782438Y-81011904D02*
X135830057Y-80964285D01*
X135830057Y-80964285D02*
X135925295Y-80916666D01*
X135925295Y-80916666D02*
X136068152Y-80916666D01*
X136068152Y-80916666D02*
X136163390Y-80964285D01*
X136163390Y-80964285D02*
X136211009Y-81011904D01*
X136211009Y-81011904D02*
X136258628Y-81107142D01*
X136258628Y-81107142D02*
X136258628Y-81488094D01*
X135830057Y-80535713D02*
X135782438Y-80488094D01*
X135782438Y-80488094D02*
X135734819Y-80392856D01*
X135734819Y-80392856D02*
X135734819Y-80154761D01*
X135734819Y-80154761D02*
X135782438Y-80059523D01*
X135782438Y-80059523D02*
X135830057Y-80011904D01*
X135830057Y-80011904D02*
X135925295Y-79964285D01*
X135925295Y-79964285D02*
X136020533Y-79964285D01*
X136020533Y-79964285D02*
X136163390Y-80011904D01*
X136163390Y-80011904D02*
X136734819Y-80583332D01*
X136734819Y-80583332D02*
X136734819Y-79964285D01*
X134234819Y-88416666D02*
X133758628Y-88749999D01*
X134234819Y-88988094D02*
X133234819Y-88988094D01*
X133234819Y-88988094D02*
X133234819Y-88607142D01*
X133234819Y-88607142D02*
X133282438Y-88511904D01*
X133282438Y-88511904D02*
X133330057Y-88464285D01*
X133330057Y-88464285D02*
X133425295Y-88416666D01*
X133425295Y-88416666D02*
X133568152Y-88416666D01*
X133568152Y-88416666D02*
X133663390Y-88464285D01*
X133663390Y-88464285D02*
X133711009Y-88511904D01*
X133711009Y-88511904D02*
X133758628Y-88607142D01*
X133758628Y-88607142D02*
X133758628Y-88988094D01*
X134234819Y-87464285D02*
X134234819Y-88035713D01*
X134234819Y-87749999D02*
X133234819Y-87749999D01*
X133234819Y-87749999D02*
X133377676Y-87845237D01*
X133377676Y-87845237D02*
X133472914Y-87940475D01*
X133472914Y-87940475D02*
X133520533Y-88035713D01*
X118452438Y-86061904D02*
X118404819Y-86157142D01*
X118404819Y-86157142D02*
X118404819Y-86299999D01*
X118404819Y-86299999D02*
X118452438Y-86442856D01*
X118452438Y-86442856D02*
X118547676Y-86538094D01*
X118547676Y-86538094D02*
X118642914Y-86585713D01*
X118642914Y-86585713D02*
X118833390Y-86633332D01*
X118833390Y-86633332D02*
X118976247Y-86633332D01*
X118976247Y-86633332D02*
X119166723Y-86585713D01*
X119166723Y-86585713D02*
X119261961Y-86538094D01*
X119261961Y-86538094D02*
X119357200Y-86442856D01*
X119357200Y-86442856D02*
X119404819Y-86299999D01*
X119404819Y-86299999D02*
X119404819Y-86204761D01*
X119404819Y-86204761D02*
X119357200Y-86061904D01*
X119357200Y-86061904D02*
X119309580Y-86014285D01*
X119309580Y-86014285D02*
X118976247Y-86014285D01*
X118976247Y-86014285D02*
X118976247Y-86204761D01*
X119404819Y-85585713D02*
X118404819Y-85585713D01*
X118404819Y-85585713D02*
X119404819Y-85014285D01*
X119404819Y-85014285D02*
X118404819Y-85014285D01*
X119404819Y-84538094D02*
X118404819Y-84538094D01*
X118404819Y-84538094D02*
X118404819Y-84299999D01*
X118404819Y-84299999D02*
X118452438Y-84157142D01*
X118452438Y-84157142D02*
X118547676Y-84061904D01*
X118547676Y-84061904D02*
X118642914Y-84014285D01*
X118642914Y-84014285D02*
X118833390Y-83966666D01*
X118833390Y-83966666D02*
X118976247Y-83966666D01*
X118976247Y-83966666D02*
X119166723Y-84014285D01*
X119166723Y-84014285D02*
X119261961Y-84061904D01*
X119261961Y-84061904D02*
X119357200Y-84157142D01*
X119357200Y-84157142D02*
X119404819Y-84299999D01*
X119404819Y-84299999D02*
X119404819Y-84538094D01*
X141757200Y-87799999D02*
X141804819Y-87657142D01*
X141804819Y-87657142D02*
X141804819Y-87419047D01*
X141804819Y-87419047D02*
X141757200Y-87323809D01*
X141757200Y-87323809D02*
X141709580Y-87276190D01*
X141709580Y-87276190D02*
X141614342Y-87228571D01*
X141614342Y-87228571D02*
X141519104Y-87228571D01*
X141519104Y-87228571D02*
X141423866Y-87276190D01*
X141423866Y-87276190D02*
X141376247Y-87323809D01*
X141376247Y-87323809D02*
X141328628Y-87419047D01*
X141328628Y-87419047D02*
X141281009Y-87609523D01*
X141281009Y-87609523D02*
X141233390Y-87704761D01*
X141233390Y-87704761D02*
X141185771Y-87752380D01*
X141185771Y-87752380D02*
X141090533Y-87799999D01*
X141090533Y-87799999D02*
X140995295Y-87799999D01*
X140995295Y-87799999D02*
X140900057Y-87752380D01*
X140900057Y-87752380D02*
X140852438Y-87704761D01*
X140852438Y-87704761D02*
X140804819Y-87609523D01*
X140804819Y-87609523D02*
X140804819Y-87371428D01*
X140804819Y-87371428D02*
X140852438Y-87228571D01*
X140804819Y-86895237D02*
X141804819Y-86657142D01*
X141804819Y-86657142D02*
X141090533Y-86466666D01*
X141090533Y-86466666D02*
X141804819Y-86276190D01*
X141804819Y-86276190D02*
X140804819Y-86038095D01*
X141804819Y-85657142D02*
X140804819Y-85657142D01*
X140804819Y-85323809D02*
X140804819Y-84752381D01*
X141804819Y-85038095D02*
X140804819Y-85038095D01*
X141709580Y-83847619D02*
X141757200Y-83895238D01*
X141757200Y-83895238D02*
X141804819Y-84038095D01*
X141804819Y-84038095D02*
X141804819Y-84133333D01*
X141804819Y-84133333D02*
X141757200Y-84276190D01*
X141757200Y-84276190D02*
X141661961Y-84371428D01*
X141661961Y-84371428D02*
X141566723Y-84419047D01*
X141566723Y-84419047D02*
X141376247Y-84466666D01*
X141376247Y-84466666D02*
X141233390Y-84466666D01*
X141233390Y-84466666D02*
X141042914Y-84419047D01*
X141042914Y-84419047D02*
X140947676Y-84371428D01*
X140947676Y-84371428D02*
X140852438Y-84276190D01*
X140852438Y-84276190D02*
X140804819Y-84133333D01*
X140804819Y-84133333D02*
X140804819Y-84038095D01*
X140804819Y-84038095D02*
X140852438Y-83895238D01*
X140852438Y-83895238D02*
X140900057Y-83847619D01*
X141804819Y-83419047D02*
X140804819Y-83419047D01*
X141281009Y-83419047D02*
X141281009Y-82847619D01*
X141804819Y-82847619D02*
X140804819Y-82847619D01*
X124309580Y-88704762D02*
X124357200Y-88752381D01*
X124357200Y-88752381D02*
X124404819Y-88895238D01*
X124404819Y-88895238D02*
X124404819Y-88990476D01*
X124404819Y-88990476D02*
X124357200Y-89133333D01*
X124357200Y-89133333D02*
X124261961Y-89228571D01*
X124261961Y-89228571D02*
X124166723Y-89276190D01*
X124166723Y-89276190D02*
X123976247Y-89323809D01*
X123976247Y-89323809D02*
X123833390Y-89323809D01*
X123833390Y-89323809D02*
X123642914Y-89276190D01*
X123642914Y-89276190D02*
X123547676Y-89228571D01*
X123547676Y-89228571D02*
X123452438Y-89133333D01*
X123452438Y-89133333D02*
X123404819Y-88990476D01*
X123404819Y-88990476D02*
X123404819Y-88895238D01*
X123404819Y-88895238D02*
X123452438Y-88752381D01*
X123452438Y-88752381D02*
X123500057Y-88704762D01*
X123404819Y-88419047D02*
X123404819Y-87847619D01*
X124404819Y-88133333D02*
X123404819Y-88133333D01*
X124404819Y-86942857D02*
X123928628Y-87276190D01*
X124404819Y-87514285D02*
X123404819Y-87514285D01*
X123404819Y-87514285D02*
X123404819Y-87133333D01*
X123404819Y-87133333D02*
X123452438Y-87038095D01*
X123452438Y-87038095D02*
X123500057Y-86990476D01*
X123500057Y-86990476D02*
X123595295Y-86942857D01*
X123595295Y-86942857D02*
X123738152Y-86942857D01*
X123738152Y-86942857D02*
X123833390Y-86990476D01*
X123833390Y-86990476D02*
X123881009Y-87038095D01*
X123881009Y-87038095D02*
X123928628Y-87133333D01*
X123928628Y-87133333D02*
X123928628Y-87514285D01*
X124404819Y-86038095D02*
X124404819Y-86514285D01*
X124404819Y-86514285D02*
X123404819Y-86514285D01*
X124500057Y-85942857D02*
X124500057Y-85180952D01*
X124404819Y-84942856D02*
X123404819Y-84942856D01*
X123404819Y-84942856D02*
X123404819Y-84561904D01*
X123404819Y-84561904D02*
X123452438Y-84466666D01*
X123452438Y-84466666D02*
X123500057Y-84419047D01*
X123500057Y-84419047D02*
X123595295Y-84371428D01*
X123595295Y-84371428D02*
X123738152Y-84371428D01*
X123738152Y-84371428D02*
X123833390Y-84419047D01*
X123833390Y-84419047D02*
X123881009Y-84466666D01*
X123881009Y-84466666D02*
X123928628Y-84561904D01*
X123928628Y-84561904D02*
X123928628Y-84942856D01*
X124404819Y-83942856D02*
X123404819Y-83942856D01*
X124404819Y-82990476D02*
X124404819Y-83466666D01*
X124404819Y-83466666D02*
X123404819Y-83466666D01*
X123404819Y-82466666D02*
X123404819Y-82276190D01*
X123404819Y-82276190D02*
X123452438Y-82180952D01*
X123452438Y-82180952D02*
X123547676Y-82085714D01*
X123547676Y-82085714D02*
X123738152Y-82038095D01*
X123738152Y-82038095D02*
X124071485Y-82038095D01*
X124071485Y-82038095D02*
X124261961Y-82085714D01*
X124261961Y-82085714D02*
X124357200Y-82180952D01*
X124357200Y-82180952D02*
X124404819Y-82276190D01*
X124404819Y-82276190D02*
X124404819Y-82466666D01*
X124404819Y-82466666D02*
X124357200Y-82561904D01*
X124357200Y-82561904D02*
X124261961Y-82657142D01*
X124261961Y-82657142D02*
X124071485Y-82704761D01*
X124071485Y-82704761D02*
X123738152Y-82704761D01*
X123738152Y-82704761D02*
X123547676Y-82657142D01*
X123547676Y-82657142D02*
X123452438Y-82561904D01*
X123452438Y-82561904D02*
X123404819Y-82466666D01*
X123404819Y-81752380D02*
X123404819Y-81180952D01*
X124404819Y-81466666D02*
X123404819Y-81466666D01*
X130734819Y-81488094D02*
X129734819Y-81488094D01*
X129734819Y-81488094D02*
X129734819Y-81249999D01*
X129734819Y-81249999D02*
X129782438Y-81107142D01*
X129782438Y-81107142D02*
X129877676Y-81011904D01*
X129877676Y-81011904D02*
X129972914Y-80964285D01*
X129972914Y-80964285D02*
X130163390Y-80916666D01*
X130163390Y-80916666D02*
X130306247Y-80916666D01*
X130306247Y-80916666D02*
X130496723Y-80964285D01*
X130496723Y-80964285D02*
X130591961Y-81011904D01*
X130591961Y-81011904D02*
X130687200Y-81107142D01*
X130687200Y-81107142D02*
X130734819Y-81249999D01*
X130734819Y-81249999D02*
X130734819Y-81488094D01*
X130734819Y-79964285D02*
X130734819Y-80535713D01*
X130734819Y-80249999D02*
X129734819Y-80249999D01*
X129734819Y-80249999D02*
X129877676Y-80345237D01*
X129877676Y-80345237D02*
X129972914Y-80440475D01*
X129972914Y-80440475D02*
X130020533Y-80535713D01*
D11*
%TO.C,R2*%
X135360000Y-80022936D02*
X135360000Y-81477064D01*
X133540000Y-80022936D02*
X133540000Y-81477064D01*
%TO.C,R1*%
X132860000Y-87522936D02*
X132860000Y-88977064D01*
X131040000Y-87522936D02*
X131040000Y-88977064D01*
%TO.C,GND*%
X120210000Y-90690000D02*
X120210000Y-79710000D01*
X117690000Y-90690000D02*
X117690000Y-79710000D01*
%TO.C,SWITCH*%
X145010000Y-90690000D02*
X145010000Y-79710000D01*
X142490000Y-90690000D02*
X142490000Y-79710000D01*
X140210000Y-90690000D02*
X140210000Y-79710000D01*
X137690000Y-90690000D02*
X137690000Y-79710000D01*
%TO.C,CTRL_PILOT*%
X125210000Y-90690000D02*
X125210000Y-79710000D01*
X122690000Y-90690000D02*
X122690000Y-79710000D01*
%TO.C,D1*%
X129585000Y-78465000D02*
X127315000Y-78465000D01*
X127315000Y-78465000D02*
X127315000Y-82350000D01*
X129585000Y-82350000D02*
X129585000Y-78465000D01*
%TD*%
%LPC*%
D12*
%TO.C,G\u002A\u002A\u002A*%
G36*
X152060642Y-93000914D02*
G01*
X152258034Y-93000999D01*
X152468947Y-93001132D01*
X152692007Y-93001312D01*
X152925836Y-93001539D01*
X153169058Y-93001815D01*
X153420298Y-93002138D01*
X153534811Y-93002298D01*
X155946596Y-93005746D01*
X153281273Y-95631513D01*
X153050082Y-95859277D01*
X152821490Y-96084489D01*
X152596434Y-96306225D01*
X152375854Y-96523560D01*
X152160687Y-96735568D01*
X151951873Y-96941325D01*
X151750350Y-97139906D01*
X151557056Y-97330385D01*
X151372930Y-97511839D01*
X151198910Y-97683341D01*
X151035935Y-97843968D01*
X150884943Y-97992794D01*
X150746873Y-98128895D01*
X150622663Y-98251345D01*
X150513252Y-98359219D01*
X150419578Y-98451593D01*
X150342580Y-98527542D01*
X150283196Y-98586140D01*
X150244227Y-98624624D01*
X150161585Y-98706001D01*
X150085329Y-98780531D01*
X150017546Y-98846216D01*
X149960324Y-98901056D01*
X149915751Y-98943054D01*
X149885914Y-98970212D01*
X149872902Y-98980532D01*
X149872503Y-98980388D01*
X149874447Y-98965189D01*
X149880052Y-98925344D01*
X149888976Y-98863196D01*
X149900878Y-98781087D01*
X149915416Y-98681358D01*
X149932249Y-98566352D01*
X149951035Y-98438412D01*
X149971433Y-98299878D01*
X149993101Y-98153093D01*
X149995661Y-98135774D01*
X150118819Y-97302739D01*
X150178187Y-97248174D01*
X150194391Y-97233016D01*
X150229350Y-97200111D01*
X150282001Y-97150463D01*
X150351281Y-97085075D01*
X150436129Y-97004952D01*
X150535482Y-96911098D01*
X150648277Y-96804517D01*
X150773453Y-96686213D01*
X150909946Y-96557190D01*
X151056695Y-96418451D01*
X151212637Y-96271003D01*
X151376710Y-96115847D01*
X151547851Y-95953989D01*
X151724997Y-95786433D01*
X151907087Y-95614182D01*
X151931843Y-95590762D01*
X153626131Y-93987916D01*
X152301787Y-93984438D01*
X152064749Y-93983680D01*
X151849349Y-93982711D01*
X151656197Y-93981540D01*
X151485902Y-93980174D01*
X151339076Y-93978621D01*
X151216327Y-93976889D01*
X151118267Y-93974984D01*
X151045504Y-93972916D01*
X150998650Y-93970691D01*
X150978313Y-93968318D01*
X150977443Y-93967695D01*
X150979349Y-93950610D01*
X150984702Y-93910738D01*
X150992957Y-93851788D01*
X151003566Y-93777470D01*
X151015983Y-93691493D01*
X151029663Y-93597565D01*
X151044058Y-93499396D01*
X151058622Y-93400695D01*
X151072810Y-93305170D01*
X151086074Y-93216531D01*
X151097869Y-93138487D01*
X151107648Y-93074747D01*
X151114865Y-93029020D01*
X151118973Y-93005014D01*
X151119643Y-93002298D01*
X151133417Y-93001953D01*
X151173096Y-93001657D01*
X151237306Y-93001408D01*
X151324670Y-93001206D01*
X151433812Y-93001052D01*
X151563357Y-93000946D01*
X151711927Y-93000888D01*
X151878147Y-93000877D01*
X152060642Y-93000914D01*
G37*
G36*
X148066557Y-95409949D02*
G01*
X148062523Y-95434199D01*
X148055443Y-95480972D01*
X148045971Y-95545759D01*
X148034765Y-95624055D01*
X148022479Y-95711351D01*
X148017429Y-95747637D01*
X148004960Y-95836728D01*
X147993360Y-95918114D01*
X147983270Y-95987416D01*
X147975332Y-96040253D01*
X147970186Y-96072246D01*
X147969027Y-96078347D01*
X147962253Y-96108950D01*
X146976911Y-96112450D01*
X145991568Y-96115950D01*
X145893488Y-96791192D01*
X145873944Y-96925735D01*
X145855358Y-97053669D01*
X145838146Y-97172137D01*
X145822722Y-97278282D01*
X145809501Y-97369250D01*
X145798898Y-97442183D01*
X145791329Y-97494225D01*
X145787208Y-97522521D01*
X145786932Y-97524409D01*
X145778457Y-97582384D01*
X145411837Y-97582384D01*
X145045217Y-97582384D01*
X145053635Y-97531229D01*
X145056883Y-97509809D01*
X145063691Y-97463568D01*
X145073744Y-97394691D01*
X145086724Y-97305363D01*
X145102315Y-97197769D01*
X145120202Y-97074093D01*
X145140068Y-96936521D01*
X145161597Y-96787237D01*
X145184472Y-96628427D01*
X145208378Y-96462274D01*
X145213062Y-96429699D01*
X145364071Y-95379323D01*
X146719063Y-95375846D01*
X148074055Y-95372370D01*
X148066557Y-95409949D01*
G37*
G36*
X150314981Y-94144810D02*
G01*
X150511166Y-94144886D01*
X150683218Y-94145048D01*
X150832715Y-94145323D01*
X150961230Y-94145739D01*
X151070339Y-94146324D01*
X151161618Y-94147105D01*
X151236642Y-94148112D01*
X151296985Y-94149370D01*
X151344225Y-94150910D01*
X151379935Y-94152758D01*
X151405691Y-94154942D01*
X151423069Y-94157491D01*
X151433644Y-94160431D01*
X151438991Y-94163792D01*
X151440685Y-94167601D01*
X151440722Y-94168662D01*
X151438796Y-94185845D01*
X151433398Y-94227825D01*
X151424830Y-94292377D01*
X151413396Y-94377277D01*
X151399398Y-94480303D01*
X151383140Y-94599231D01*
X151364923Y-94731836D01*
X151345052Y-94875895D01*
X151323829Y-95029185D01*
X151307408Y-95147422D01*
X151174618Y-96102309D01*
X150185939Y-96109130D01*
X149197261Y-96115950D01*
X149092488Y-96838936D01*
X149072603Y-96976217D01*
X149053918Y-97105345D01*
X149036796Y-97223805D01*
X149021598Y-97329079D01*
X149008689Y-97418652D01*
X148998431Y-97490007D01*
X148991187Y-97540626D01*
X148987320Y-97567994D01*
X148986768Y-97572153D01*
X148973457Y-97574858D01*
X148936403Y-97577294D01*
X148879143Y-97579364D01*
X148805215Y-97580968D01*
X148718159Y-97582007D01*
X148621512Y-97582384D01*
X148619897Y-97582384D01*
X148253973Y-97582384D01*
X148412624Y-96480854D01*
X148571274Y-95379323D01*
X149552430Y-95372502D01*
X150533586Y-95365682D01*
X150563528Y-95161063D01*
X150574162Y-95086412D01*
X150583274Y-95018694D01*
X150590117Y-94963748D01*
X150593945Y-94927413D01*
X150594480Y-94918931D01*
X150595489Y-94881417D01*
X149620140Y-94881417D01*
X149426342Y-94881327D01*
X149258262Y-94881038D01*
X149114338Y-94880522D01*
X148993005Y-94879752D01*
X148892701Y-94878701D01*
X148811861Y-94877342D01*
X148748924Y-94875647D01*
X148702324Y-94873589D01*
X148670498Y-94871141D01*
X148651884Y-94868275D01*
X148644918Y-94864964D01*
X148644780Y-94864366D01*
X148646637Y-94846720D01*
X148651873Y-94805848D01*
X148659975Y-94745527D01*
X148670428Y-94669533D01*
X148682720Y-94581643D01*
X148694851Y-94496052D01*
X148744933Y-94144790D01*
X150093089Y-94144790D01*
X150314981Y-94144810D01*
G37*
G36*
X148232092Y-94189124D02*
G01*
X148228236Y-94214958D01*
X148221231Y-94263413D01*
X148211701Y-94330091D01*
X148200275Y-94410596D01*
X148187579Y-94500528D01*
X148179577Y-94557438D01*
X148134094Y-94881417D01*
X146786596Y-94881417D01*
X146565022Y-94881404D01*
X146369148Y-94881343D01*
X146197392Y-94881206D01*
X146048172Y-94880962D01*
X145919906Y-94880581D01*
X145811010Y-94880034D01*
X145719904Y-94879291D01*
X145645004Y-94878322D01*
X145584729Y-94877097D01*
X145537496Y-94875586D01*
X145501723Y-94873759D01*
X145475828Y-94871588D01*
X145458228Y-94869040D01*
X145447341Y-94866088D01*
X145441586Y-94862701D01*
X145439379Y-94858849D01*
X145439098Y-94856005D01*
X145440987Y-94835832D01*
X145446297Y-94792695D01*
X145454487Y-94730626D01*
X145465017Y-94653656D01*
X145477348Y-94565815D01*
X145486842Y-94499463D01*
X145500061Y-94407317D01*
X145511877Y-94324076D01*
X145521755Y-94253563D01*
X145529164Y-94199603D01*
X145533571Y-94166019D01*
X145534586Y-94156561D01*
X145547928Y-94154894D01*
X145586758Y-94153300D01*
X145649279Y-94151794D01*
X145733697Y-94150393D01*
X145838218Y-94149112D01*
X145961045Y-94147967D01*
X146100383Y-94146973D01*
X146254438Y-94146145D01*
X146421413Y-94145501D01*
X146599515Y-94145054D01*
X146786948Y-94144821D01*
X146886855Y-94144790D01*
X148239123Y-94144790D01*
X148232092Y-94189124D01*
G37*
%TD*%
D13*
%TO.C,REF\u002A\u002A*%
X111450000Y-87250000D03*
D14*
X111450000Y-87250000D03*
%TD*%
D13*
%TO.C,REF\u002A\u002A*%
X151450000Y-87250000D03*
D14*
X151450000Y-87250000D03*
%TD*%
D15*
%TO.C,R2*%
X134450000Y-79287500D03*
X134450000Y-82212500D03*
%TD*%
%TO.C,R1*%
X131950000Y-86787500D03*
X131950000Y-89712500D03*
%TD*%
D16*
%TO.C,GND*%
X118950000Y-78450000D03*
D17*
X118950000Y-92250000D03*
%TD*%
D16*
%TO.C,SWITCH*%
X143750000Y-78450000D03*
X138950000Y-78450000D03*
D17*
X143750000Y-92250000D03*
D18*
X138950000Y-92250000D03*
%TD*%
D16*
%TO.C,CTRL_PILOT*%
X123950000Y-78450000D03*
D17*
X123950000Y-92250000D03*
%TD*%
D19*
%TO.C,D1*%
X128450000Y-79350000D03*
X128450000Y-82150000D03*
%TD*%
%LPD*%
M02*
