%TF.GenerationSoftware,KiCad,Pcbnew,9.0.8*%
%TF.CreationDate,2026-03-21T20:31:39-04:00*%
%TF.ProjectId,J1772 Enabler,4a313737-3220-4456-9e61-626c65722e6b,rev?*%
%TF.SameCoordinates,Original*%
%TF.FileFunction,Drillmap*%
%TF.FilePolarity,Positive*%
%FSLAX45Y45*%
G04 Gerber Fmt 4.5, Leading zero omitted, Abs format (unit mm)*
G04 Created by KiCad (PCBNEW 9.0.8) date 2026-03-21 20:31:39*
%MOMM*%
%LPD*%
G01*
G04 APERTURE LIST*
%ADD10C,0.050000*%
%ADD11C,0.200000*%
%ADD12C,0.280000*%
G04 APERTURE END LIST*
D10*
X10650000Y-7975000D02*
G75*
G02*
X11150000Y-7475000I500000J0D01*
G01*
X10650000Y-9475000D02*
X10650000Y-7975000D01*
X11150000Y-7475000D02*
X15150000Y-7475000D01*
X11150000Y-9975000D02*
G75*
G02*
X10650000Y-9475000I0J500000D01*
G01*
X15150000Y-7475000D02*
G75*
G02*
X15650000Y-7975000I0J-500000D01*
G01*
X15150000Y-9975000D02*
X11150000Y-9975000D01*
X15650000Y-7975000D02*
X15650000Y-9475000D01*
X15650000Y-9475000D02*
G75*
G02*
X15150000Y-9975000I-500000J0D01*
G01*
D11*
D12*
X11755000Y-7705000D02*
X12035000Y-7985000D01*
X12035000Y-7705000D02*
X11755000Y-7985000D01*
X12255000Y-7705000D02*
X12535000Y-7985000D01*
X12535000Y-7705000D02*
X12255000Y-7985000D01*
X13755000Y-7705000D02*
X14035000Y-7985000D01*
X14035000Y-7705000D02*
X13755000Y-7985000D01*
X14235000Y-7705000D02*
X14515000Y-7985000D01*
X14515000Y-7705000D02*
X14235000Y-7985000D01*
D11*
X10908277Y-10288984D02*
X10908277Y-10088984D01*
X10908277Y-10088984D02*
X10955896Y-10088984D01*
X10955896Y-10088984D02*
X10984467Y-10098508D01*
X10984467Y-10098508D02*
X11003515Y-10117555D01*
X11003515Y-10117555D02*
X11013039Y-10136603D01*
X11013039Y-10136603D02*
X11022563Y-10174698D01*
X11022563Y-10174698D02*
X11022563Y-10203270D01*
X11022563Y-10203270D02*
X11013039Y-10241365D01*
X11013039Y-10241365D02*
X11003515Y-10260412D01*
X11003515Y-10260412D02*
X10984467Y-10279460D01*
X10984467Y-10279460D02*
X10955896Y-10288984D01*
X10955896Y-10288984D02*
X10908277Y-10288984D01*
X11108277Y-10288984D02*
X11108277Y-10155650D01*
X11108277Y-10193746D02*
X11117801Y-10174698D01*
X11117801Y-10174698D02*
X11127324Y-10165174D01*
X11127324Y-10165174D02*
X11146372Y-10155650D01*
X11146372Y-10155650D02*
X11165420Y-10155650D01*
X11232086Y-10288984D02*
X11232086Y-10155650D01*
X11232086Y-10088984D02*
X11222562Y-10098508D01*
X11222562Y-10098508D02*
X11232086Y-10108031D01*
X11232086Y-10108031D02*
X11241610Y-10098508D01*
X11241610Y-10098508D02*
X11232086Y-10088984D01*
X11232086Y-10088984D02*
X11232086Y-10108031D01*
X11355896Y-10288984D02*
X11336848Y-10279460D01*
X11336848Y-10279460D02*
X11327324Y-10260412D01*
X11327324Y-10260412D02*
X11327324Y-10088984D01*
X11460658Y-10288984D02*
X11441610Y-10279460D01*
X11441610Y-10279460D02*
X11432086Y-10260412D01*
X11432086Y-10260412D02*
X11432086Y-10088984D01*
X11689229Y-10288984D02*
X11689229Y-10088984D01*
X11689229Y-10088984D02*
X11755896Y-10231841D01*
X11755896Y-10231841D02*
X11822562Y-10088984D01*
X11822562Y-10088984D02*
X11822562Y-10288984D01*
X12003515Y-10288984D02*
X12003515Y-10184222D01*
X12003515Y-10184222D02*
X11993991Y-10165174D01*
X11993991Y-10165174D02*
X11974943Y-10155650D01*
X11974943Y-10155650D02*
X11936848Y-10155650D01*
X11936848Y-10155650D02*
X11917801Y-10165174D01*
X12003515Y-10279460D02*
X11984467Y-10288984D01*
X11984467Y-10288984D02*
X11936848Y-10288984D01*
X11936848Y-10288984D02*
X11917801Y-10279460D01*
X11917801Y-10279460D02*
X11908277Y-10260412D01*
X11908277Y-10260412D02*
X11908277Y-10241365D01*
X11908277Y-10241365D02*
X11917801Y-10222317D01*
X11917801Y-10222317D02*
X11936848Y-10212793D01*
X11936848Y-10212793D02*
X11984467Y-10212793D01*
X11984467Y-10212793D02*
X12003515Y-10203270D01*
X12098753Y-10155650D02*
X12098753Y-10355650D01*
X12098753Y-10165174D02*
X12117801Y-10155650D01*
X12117801Y-10155650D02*
X12155896Y-10155650D01*
X12155896Y-10155650D02*
X12174943Y-10165174D01*
X12174943Y-10165174D02*
X12184467Y-10174698D01*
X12184467Y-10174698D02*
X12193991Y-10193746D01*
X12193991Y-10193746D02*
X12193991Y-10250889D01*
X12193991Y-10250889D02*
X12184467Y-10269936D01*
X12184467Y-10269936D02*
X12174943Y-10279460D01*
X12174943Y-10279460D02*
X12155896Y-10288984D01*
X12155896Y-10288984D02*
X12117801Y-10288984D01*
X12117801Y-10288984D02*
X12098753Y-10279460D01*
X12279705Y-10269936D02*
X12289229Y-10279460D01*
X12289229Y-10279460D02*
X12279705Y-10288984D01*
X12279705Y-10288984D02*
X12270182Y-10279460D01*
X12270182Y-10279460D02*
X12279705Y-10269936D01*
X12279705Y-10269936D02*
X12279705Y-10288984D01*
X12279705Y-10165174D02*
X12289229Y-10174698D01*
X12289229Y-10174698D02*
X12279705Y-10184222D01*
X12279705Y-10184222D02*
X12270182Y-10174698D01*
X12270182Y-10174698D02*
X12279705Y-10165174D01*
X12279705Y-10165174D02*
X12279705Y-10184222D01*
X10447500Y-10517500D02*
X10647500Y-10717500D01*
X10647500Y-10517500D02*
X10447500Y-10717500D01*
X10898753Y-10528031D02*
X10908277Y-10518508D01*
X10908277Y-10518508D02*
X10927324Y-10508984D01*
X10927324Y-10508984D02*
X10974944Y-10508984D01*
X10974944Y-10508984D02*
X10993991Y-10518508D01*
X10993991Y-10518508D02*
X11003515Y-10528031D01*
X11003515Y-10528031D02*
X11013039Y-10547079D01*
X11013039Y-10547079D02*
X11013039Y-10566127D01*
X11013039Y-10566127D02*
X11003515Y-10594698D01*
X11003515Y-10594698D02*
X10889229Y-10708984D01*
X10889229Y-10708984D02*
X11013039Y-10708984D01*
X11098753Y-10689936D02*
X11108277Y-10699460D01*
X11108277Y-10699460D02*
X11098753Y-10708984D01*
X11098753Y-10708984D02*
X11089229Y-10699460D01*
X11089229Y-10699460D02*
X11098753Y-10689936D01*
X11098753Y-10689936D02*
X11098753Y-10708984D01*
X11222562Y-10594698D02*
X11203515Y-10585174D01*
X11203515Y-10585174D02*
X11193991Y-10575650D01*
X11193991Y-10575650D02*
X11184467Y-10556603D01*
X11184467Y-10556603D02*
X11184467Y-10547079D01*
X11184467Y-10547079D02*
X11193991Y-10528031D01*
X11193991Y-10528031D02*
X11203515Y-10518508D01*
X11203515Y-10518508D02*
X11222562Y-10508984D01*
X11222562Y-10508984D02*
X11260658Y-10508984D01*
X11260658Y-10508984D02*
X11279705Y-10518508D01*
X11279705Y-10518508D02*
X11289229Y-10528031D01*
X11289229Y-10528031D02*
X11298753Y-10547079D01*
X11298753Y-10547079D02*
X11298753Y-10556603D01*
X11298753Y-10556603D02*
X11289229Y-10575650D01*
X11289229Y-10575650D02*
X11279705Y-10585174D01*
X11279705Y-10585174D02*
X11260658Y-10594698D01*
X11260658Y-10594698D02*
X11222562Y-10594698D01*
X11222562Y-10594698D02*
X11203515Y-10604222D01*
X11203515Y-10604222D02*
X11193991Y-10613746D01*
X11193991Y-10613746D02*
X11184467Y-10632793D01*
X11184467Y-10632793D02*
X11184467Y-10670889D01*
X11184467Y-10670889D02*
X11193991Y-10689936D01*
X11193991Y-10689936D02*
X11203515Y-10699460D01*
X11203515Y-10699460D02*
X11222562Y-10708984D01*
X11222562Y-10708984D02*
X11260658Y-10708984D01*
X11260658Y-10708984D02*
X11279705Y-10699460D01*
X11279705Y-10699460D02*
X11289229Y-10689936D01*
X11289229Y-10689936D02*
X11298753Y-10670889D01*
X11298753Y-10670889D02*
X11298753Y-10632793D01*
X11298753Y-10632793D02*
X11289229Y-10613746D01*
X11289229Y-10613746D02*
X11279705Y-10604222D01*
X11279705Y-10604222D02*
X11260658Y-10594698D01*
X11422562Y-10508984D02*
X11441610Y-10508984D01*
X11441610Y-10508984D02*
X11460658Y-10518508D01*
X11460658Y-10518508D02*
X11470182Y-10528031D01*
X11470182Y-10528031D02*
X11479705Y-10547079D01*
X11479705Y-10547079D02*
X11489229Y-10585174D01*
X11489229Y-10585174D02*
X11489229Y-10632793D01*
X11489229Y-10632793D02*
X11479705Y-10670889D01*
X11479705Y-10670889D02*
X11470182Y-10689936D01*
X11470182Y-10689936D02*
X11460658Y-10699460D01*
X11460658Y-10699460D02*
X11441610Y-10708984D01*
X11441610Y-10708984D02*
X11422562Y-10708984D01*
X11422562Y-10708984D02*
X11403515Y-10699460D01*
X11403515Y-10699460D02*
X11393991Y-10689936D01*
X11393991Y-10689936D02*
X11384467Y-10670889D01*
X11384467Y-10670889D02*
X11374943Y-10632793D01*
X11374943Y-10632793D02*
X11374943Y-10585174D01*
X11374943Y-10585174D02*
X11384467Y-10547079D01*
X11384467Y-10547079D02*
X11393991Y-10528031D01*
X11393991Y-10528031D02*
X11403515Y-10518508D01*
X11403515Y-10518508D02*
X11422562Y-10508984D01*
X11613039Y-10508984D02*
X11632086Y-10508984D01*
X11632086Y-10508984D02*
X11651134Y-10518508D01*
X11651134Y-10518508D02*
X11660658Y-10528031D01*
X11660658Y-10528031D02*
X11670182Y-10547079D01*
X11670182Y-10547079D02*
X11679705Y-10585174D01*
X11679705Y-10585174D02*
X11679705Y-10632793D01*
X11679705Y-10632793D02*
X11670182Y-10670889D01*
X11670182Y-10670889D02*
X11660658Y-10689936D01*
X11660658Y-10689936D02*
X11651134Y-10699460D01*
X11651134Y-10699460D02*
X11632086Y-10708984D01*
X11632086Y-10708984D02*
X11613039Y-10708984D01*
X11613039Y-10708984D02*
X11593991Y-10699460D01*
X11593991Y-10699460D02*
X11584467Y-10689936D01*
X11584467Y-10689936D02*
X11574943Y-10670889D01*
X11574943Y-10670889D02*
X11565420Y-10632793D01*
X11565420Y-10632793D02*
X11565420Y-10585174D01*
X11565420Y-10585174D02*
X11574943Y-10547079D01*
X11574943Y-10547079D02*
X11584467Y-10528031D01*
X11584467Y-10528031D02*
X11593991Y-10518508D01*
X11593991Y-10518508D02*
X11613039Y-10508984D01*
X11765420Y-10708984D02*
X11765420Y-10575650D01*
X11765420Y-10594698D02*
X11774943Y-10585174D01*
X11774943Y-10585174D02*
X11793991Y-10575650D01*
X11793991Y-10575650D02*
X11822563Y-10575650D01*
X11822563Y-10575650D02*
X11841610Y-10585174D01*
X11841610Y-10585174D02*
X11851134Y-10604222D01*
X11851134Y-10604222D02*
X11851134Y-10708984D01*
X11851134Y-10604222D02*
X11860658Y-10585174D01*
X11860658Y-10585174D02*
X11879705Y-10575650D01*
X11879705Y-10575650D02*
X11908277Y-10575650D01*
X11908277Y-10575650D02*
X11927324Y-10585174D01*
X11927324Y-10585174D02*
X11936848Y-10604222D01*
X11936848Y-10604222D02*
X11936848Y-10708984D01*
X12032086Y-10708984D02*
X12032086Y-10575650D01*
X12032086Y-10594698D02*
X12041610Y-10585174D01*
X12041610Y-10585174D02*
X12060658Y-10575650D01*
X12060658Y-10575650D02*
X12089229Y-10575650D01*
X12089229Y-10575650D02*
X12108277Y-10585174D01*
X12108277Y-10585174D02*
X12117801Y-10604222D01*
X12117801Y-10604222D02*
X12117801Y-10708984D01*
X12117801Y-10604222D02*
X12127324Y-10585174D01*
X12127324Y-10585174D02*
X12146372Y-10575650D01*
X12146372Y-10575650D02*
X12174943Y-10575650D01*
X12174943Y-10575650D02*
X12193991Y-10585174D01*
X12193991Y-10585174D02*
X12203515Y-10604222D01*
X12203515Y-10604222D02*
X12203515Y-10708984D01*
X12593991Y-10499460D02*
X12422563Y-10756603D01*
X12851134Y-10508984D02*
X12870182Y-10508984D01*
X12870182Y-10508984D02*
X12889229Y-10518508D01*
X12889229Y-10518508D02*
X12898753Y-10528031D01*
X12898753Y-10528031D02*
X12908277Y-10547079D01*
X12908277Y-10547079D02*
X12917801Y-10585174D01*
X12917801Y-10585174D02*
X12917801Y-10632793D01*
X12917801Y-10632793D02*
X12908277Y-10670889D01*
X12908277Y-10670889D02*
X12898753Y-10689936D01*
X12898753Y-10689936D02*
X12889229Y-10699460D01*
X12889229Y-10699460D02*
X12870182Y-10708984D01*
X12870182Y-10708984D02*
X12851134Y-10708984D01*
X12851134Y-10708984D02*
X12832086Y-10699460D01*
X12832086Y-10699460D02*
X12822563Y-10689936D01*
X12822563Y-10689936D02*
X12813039Y-10670889D01*
X12813039Y-10670889D02*
X12803515Y-10632793D01*
X12803515Y-10632793D02*
X12803515Y-10585174D01*
X12803515Y-10585174D02*
X12813039Y-10547079D01*
X12813039Y-10547079D02*
X12822563Y-10528031D01*
X12822563Y-10528031D02*
X12832086Y-10518508D01*
X12832086Y-10518508D02*
X12851134Y-10508984D01*
X13003515Y-10689936D02*
X13013039Y-10699460D01*
X13013039Y-10699460D02*
X13003515Y-10708984D01*
X13003515Y-10708984D02*
X12993991Y-10699460D01*
X12993991Y-10699460D02*
X13003515Y-10689936D01*
X13003515Y-10689936D02*
X13003515Y-10708984D01*
X13203515Y-10708984D02*
X13089229Y-10708984D01*
X13146372Y-10708984D02*
X13146372Y-10508984D01*
X13146372Y-10508984D02*
X13127325Y-10537555D01*
X13127325Y-10537555D02*
X13108277Y-10556603D01*
X13108277Y-10556603D02*
X13089229Y-10566127D01*
X13393991Y-10708984D02*
X13279706Y-10708984D01*
X13336848Y-10708984D02*
X13336848Y-10508984D01*
X13336848Y-10508984D02*
X13317801Y-10537555D01*
X13317801Y-10537555D02*
X13298753Y-10556603D01*
X13298753Y-10556603D02*
X13279706Y-10566127D01*
X13517801Y-10508984D02*
X13536848Y-10508984D01*
X13536848Y-10508984D02*
X13555896Y-10518508D01*
X13555896Y-10518508D02*
X13565420Y-10528031D01*
X13565420Y-10528031D02*
X13574944Y-10547079D01*
X13574944Y-10547079D02*
X13584467Y-10585174D01*
X13584467Y-10585174D02*
X13584467Y-10632793D01*
X13584467Y-10632793D02*
X13574944Y-10670889D01*
X13574944Y-10670889D02*
X13565420Y-10689936D01*
X13565420Y-10689936D02*
X13555896Y-10699460D01*
X13555896Y-10699460D02*
X13536848Y-10708984D01*
X13536848Y-10708984D02*
X13517801Y-10708984D01*
X13517801Y-10708984D02*
X13498753Y-10699460D01*
X13498753Y-10699460D02*
X13489229Y-10689936D01*
X13489229Y-10689936D02*
X13479706Y-10670889D01*
X13479706Y-10670889D02*
X13470182Y-10632793D01*
X13470182Y-10632793D02*
X13470182Y-10585174D01*
X13470182Y-10585174D02*
X13479706Y-10547079D01*
X13479706Y-10547079D02*
X13489229Y-10528031D01*
X13489229Y-10528031D02*
X13498753Y-10518508D01*
X13498753Y-10518508D02*
X13517801Y-10508984D01*
X13660658Y-10528031D02*
X13670182Y-10518508D01*
X13670182Y-10518508D02*
X13689229Y-10508984D01*
X13689229Y-10508984D02*
X13736848Y-10508984D01*
X13736848Y-10508984D02*
X13755896Y-10518508D01*
X13755896Y-10518508D02*
X13765420Y-10528031D01*
X13765420Y-10528031D02*
X13774944Y-10547079D01*
X13774944Y-10547079D02*
X13774944Y-10566127D01*
X13774944Y-10566127D02*
X13765420Y-10594698D01*
X13765420Y-10594698D02*
X13651134Y-10708984D01*
X13651134Y-10708984D02*
X13774944Y-10708984D01*
X13851134Y-10508984D02*
X13851134Y-10547079D01*
X13927325Y-10508984D02*
X13927325Y-10547079D01*
X14222563Y-10785174D02*
X14213039Y-10775650D01*
X14213039Y-10775650D02*
X14193991Y-10747079D01*
X14193991Y-10747079D02*
X14184468Y-10728031D01*
X14184468Y-10728031D02*
X14174944Y-10699460D01*
X14174944Y-10699460D02*
X14165420Y-10651841D01*
X14165420Y-10651841D02*
X14165420Y-10613746D01*
X14165420Y-10613746D02*
X14174944Y-10566127D01*
X14174944Y-10566127D02*
X14184468Y-10537555D01*
X14184468Y-10537555D02*
X14193991Y-10518508D01*
X14193991Y-10518508D02*
X14213039Y-10489936D01*
X14213039Y-10489936D02*
X14222563Y-10480412D01*
X14384468Y-10575650D02*
X14384468Y-10708984D01*
X14336848Y-10499460D02*
X14289229Y-10642317D01*
X14289229Y-10642317D02*
X14413039Y-10642317D01*
X14641610Y-10708984D02*
X14641610Y-10508984D01*
X14727325Y-10708984D02*
X14727325Y-10604222D01*
X14727325Y-10604222D02*
X14717801Y-10585174D01*
X14717801Y-10585174D02*
X14698753Y-10575650D01*
X14698753Y-10575650D02*
X14670182Y-10575650D01*
X14670182Y-10575650D02*
X14651134Y-10585174D01*
X14651134Y-10585174D02*
X14641610Y-10594698D01*
X14851134Y-10708984D02*
X14832087Y-10699460D01*
X14832087Y-10699460D02*
X14822563Y-10689936D01*
X14822563Y-10689936D02*
X14813039Y-10670889D01*
X14813039Y-10670889D02*
X14813039Y-10613746D01*
X14813039Y-10613746D02*
X14822563Y-10594698D01*
X14822563Y-10594698D02*
X14832087Y-10585174D01*
X14832087Y-10585174D02*
X14851134Y-10575650D01*
X14851134Y-10575650D02*
X14879706Y-10575650D01*
X14879706Y-10575650D02*
X14898753Y-10585174D01*
X14898753Y-10585174D02*
X14908277Y-10594698D01*
X14908277Y-10594698D02*
X14917801Y-10613746D01*
X14917801Y-10613746D02*
X14917801Y-10670889D01*
X14917801Y-10670889D02*
X14908277Y-10689936D01*
X14908277Y-10689936D02*
X14898753Y-10699460D01*
X14898753Y-10699460D02*
X14879706Y-10708984D01*
X14879706Y-10708984D02*
X14851134Y-10708984D01*
X15032087Y-10708984D02*
X15013039Y-10699460D01*
X15013039Y-10699460D02*
X15003515Y-10680412D01*
X15003515Y-10680412D02*
X15003515Y-10508984D01*
X15184468Y-10699460D02*
X15165420Y-10708984D01*
X15165420Y-10708984D02*
X15127325Y-10708984D01*
X15127325Y-10708984D02*
X15108277Y-10699460D01*
X15108277Y-10699460D02*
X15098753Y-10680412D01*
X15098753Y-10680412D02*
X15098753Y-10604222D01*
X15098753Y-10604222D02*
X15108277Y-10585174D01*
X15108277Y-10585174D02*
X15127325Y-10575650D01*
X15127325Y-10575650D02*
X15165420Y-10575650D01*
X15165420Y-10575650D02*
X15184468Y-10585174D01*
X15184468Y-10585174D02*
X15193991Y-10604222D01*
X15193991Y-10604222D02*
X15193991Y-10623270D01*
X15193991Y-10623270D02*
X15098753Y-10642317D01*
X15270182Y-10699460D02*
X15289230Y-10708984D01*
X15289230Y-10708984D02*
X15327325Y-10708984D01*
X15327325Y-10708984D02*
X15346372Y-10699460D01*
X15346372Y-10699460D02*
X15355896Y-10680412D01*
X15355896Y-10680412D02*
X15355896Y-10670889D01*
X15355896Y-10670889D02*
X15346372Y-10651841D01*
X15346372Y-10651841D02*
X15327325Y-10642317D01*
X15327325Y-10642317D02*
X15298753Y-10642317D01*
X15298753Y-10642317D02*
X15279706Y-10632793D01*
X15279706Y-10632793D02*
X15270182Y-10613746D01*
X15270182Y-10613746D02*
X15270182Y-10604222D01*
X15270182Y-10604222D02*
X15279706Y-10585174D01*
X15279706Y-10585174D02*
X15298753Y-10575650D01*
X15298753Y-10575650D02*
X15327325Y-10575650D01*
X15327325Y-10575650D02*
X15346372Y-10585174D01*
X15422563Y-10785174D02*
X15432087Y-10775650D01*
X15432087Y-10775650D02*
X15451134Y-10747079D01*
X15451134Y-10747079D02*
X15460658Y-10728031D01*
X15460658Y-10728031D02*
X15470182Y-10699460D01*
X15470182Y-10699460D02*
X15479706Y-10651841D01*
X15479706Y-10651841D02*
X15479706Y-10613746D01*
X15479706Y-10613746D02*
X15470182Y-10566127D01*
X15470182Y-10566127D02*
X15460658Y-10537555D01*
X15460658Y-10537555D02*
X15451134Y-10518508D01*
X15451134Y-10518508D02*
X15432087Y-10489936D01*
X15432087Y-10489936D02*
X15422563Y-10480412D01*
X15784468Y-10785174D02*
X15774944Y-10775650D01*
X15774944Y-10775650D02*
X15755896Y-10747079D01*
X15755896Y-10747079D02*
X15746372Y-10728031D01*
X15746372Y-10728031D02*
X15736849Y-10699460D01*
X15736849Y-10699460D02*
X15727325Y-10651841D01*
X15727325Y-10651841D02*
X15727325Y-10613746D01*
X15727325Y-10613746D02*
X15736849Y-10566127D01*
X15736849Y-10566127D02*
X15746372Y-10537555D01*
X15746372Y-10537555D02*
X15755896Y-10518508D01*
X15755896Y-10518508D02*
X15774944Y-10489936D01*
X15774944Y-10489936D02*
X15784468Y-10480412D01*
X15860658Y-10575650D02*
X15860658Y-10708984D01*
X15860658Y-10594698D02*
X15870182Y-10585174D01*
X15870182Y-10585174D02*
X15889230Y-10575650D01*
X15889230Y-10575650D02*
X15917801Y-10575650D01*
X15917801Y-10575650D02*
X15936849Y-10585174D01*
X15936849Y-10585174D02*
X15946372Y-10604222D01*
X15946372Y-10604222D02*
X15946372Y-10708984D01*
X16070182Y-10708984D02*
X16051134Y-10699460D01*
X16051134Y-10699460D02*
X16041611Y-10689936D01*
X16041611Y-10689936D02*
X16032087Y-10670889D01*
X16032087Y-10670889D02*
X16032087Y-10613746D01*
X16032087Y-10613746D02*
X16041611Y-10594698D01*
X16041611Y-10594698D02*
X16051134Y-10585174D01*
X16051134Y-10585174D02*
X16070182Y-10575650D01*
X16070182Y-10575650D02*
X16098753Y-10575650D01*
X16098753Y-10575650D02*
X16117801Y-10585174D01*
X16117801Y-10585174D02*
X16127325Y-10594698D01*
X16127325Y-10594698D02*
X16136849Y-10613746D01*
X16136849Y-10613746D02*
X16136849Y-10670889D01*
X16136849Y-10670889D02*
X16127325Y-10689936D01*
X16127325Y-10689936D02*
X16117801Y-10699460D01*
X16117801Y-10699460D02*
X16098753Y-10708984D01*
X16098753Y-10708984D02*
X16070182Y-10708984D01*
X16193992Y-10575650D02*
X16270182Y-10575650D01*
X16222563Y-10508984D02*
X16222563Y-10680412D01*
X16222563Y-10680412D02*
X16232087Y-10699460D01*
X16232087Y-10699460D02*
X16251134Y-10708984D01*
X16251134Y-10708984D02*
X16270182Y-10708984D01*
X16489230Y-10575650D02*
X16489230Y-10775650D01*
X16489230Y-10585174D02*
X16508277Y-10575650D01*
X16508277Y-10575650D02*
X16546373Y-10575650D01*
X16546373Y-10575650D02*
X16565420Y-10585174D01*
X16565420Y-10585174D02*
X16574944Y-10594698D01*
X16574944Y-10594698D02*
X16584468Y-10613746D01*
X16584468Y-10613746D02*
X16584468Y-10670889D01*
X16584468Y-10670889D02*
X16574944Y-10689936D01*
X16574944Y-10689936D02*
X16565420Y-10699460D01*
X16565420Y-10699460D02*
X16546373Y-10708984D01*
X16546373Y-10708984D02*
X16508277Y-10708984D01*
X16508277Y-10708984D02*
X16489230Y-10699460D01*
X16698753Y-10708984D02*
X16679706Y-10699460D01*
X16679706Y-10699460D02*
X16670182Y-10680412D01*
X16670182Y-10680412D02*
X16670182Y-10508984D01*
X16860658Y-10708984D02*
X16860658Y-10604222D01*
X16860658Y-10604222D02*
X16851135Y-10585174D01*
X16851135Y-10585174D02*
X16832087Y-10575650D01*
X16832087Y-10575650D02*
X16793992Y-10575650D01*
X16793992Y-10575650D02*
X16774944Y-10585174D01*
X16860658Y-10699460D02*
X16841611Y-10708984D01*
X16841611Y-10708984D02*
X16793992Y-10708984D01*
X16793992Y-10708984D02*
X16774944Y-10699460D01*
X16774944Y-10699460D02*
X16765420Y-10680412D01*
X16765420Y-10680412D02*
X16765420Y-10661365D01*
X16765420Y-10661365D02*
X16774944Y-10642317D01*
X16774944Y-10642317D02*
X16793992Y-10632793D01*
X16793992Y-10632793D02*
X16841611Y-10632793D01*
X16841611Y-10632793D02*
X16860658Y-10623270D01*
X16927325Y-10575650D02*
X17003515Y-10575650D01*
X16955896Y-10508984D02*
X16955896Y-10680412D01*
X16955896Y-10680412D02*
X16965420Y-10699460D01*
X16965420Y-10699460D02*
X16984468Y-10708984D01*
X16984468Y-10708984D02*
X17003515Y-10708984D01*
X17146373Y-10699460D02*
X17127325Y-10708984D01*
X17127325Y-10708984D02*
X17089230Y-10708984D01*
X17089230Y-10708984D02*
X17070182Y-10699460D01*
X17070182Y-10699460D02*
X17060658Y-10680412D01*
X17060658Y-10680412D02*
X17060658Y-10604222D01*
X17060658Y-10604222D02*
X17070182Y-10585174D01*
X17070182Y-10585174D02*
X17089230Y-10575650D01*
X17089230Y-10575650D02*
X17127325Y-10575650D01*
X17127325Y-10575650D02*
X17146373Y-10585174D01*
X17146373Y-10585174D02*
X17155896Y-10604222D01*
X17155896Y-10604222D02*
X17155896Y-10623270D01*
X17155896Y-10623270D02*
X17060658Y-10642317D01*
X17327325Y-10708984D02*
X17327325Y-10508984D01*
X17327325Y-10699460D02*
X17308277Y-10708984D01*
X17308277Y-10708984D02*
X17270182Y-10708984D01*
X17270182Y-10708984D02*
X17251135Y-10699460D01*
X17251135Y-10699460D02*
X17241611Y-10689936D01*
X17241611Y-10689936D02*
X17232087Y-10670889D01*
X17232087Y-10670889D02*
X17232087Y-10613746D01*
X17232087Y-10613746D02*
X17241611Y-10594698D01*
X17241611Y-10594698D02*
X17251135Y-10585174D01*
X17251135Y-10585174D02*
X17270182Y-10575650D01*
X17270182Y-10575650D02*
X17308277Y-10575650D01*
X17308277Y-10575650D02*
X17327325Y-10585174D01*
X17403516Y-10785174D02*
X17413039Y-10775650D01*
X17413039Y-10775650D02*
X17432087Y-10747079D01*
X17432087Y-10747079D02*
X17441611Y-10728031D01*
X17441611Y-10728031D02*
X17451135Y-10699460D01*
X17451135Y-10699460D02*
X17460658Y-10651841D01*
X17460658Y-10651841D02*
X17460658Y-10613746D01*
X17460658Y-10613746D02*
X17451135Y-10566127D01*
X17451135Y-10566127D02*
X17441611Y-10537555D01*
X17441611Y-10537555D02*
X17432087Y-10518508D01*
X17432087Y-10518508D02*
X17413039Y-10489936D01*
X17413039Y-10489936D02*
X17403516Y-10480412D01*
M02*
